# Made in Blockbench 5.1.4
mtllib Mo_Tweasel_Tail.mtl

o Tail
v -10.123637 -2.184195 0
v -10.028963 -2.462351 -0.307772
v -11.088519 -2.261689 -0.361082
v -11.060029 -2.002923 0
v -6.287397 -1.321218 0
v -6.345563 -1.3124 -0.204264
v -6.336256 -0.953794 -0.175533
v -6.282452 -0.892311 0
v -13.94158 0.279139 0
v -13.961459 0.081569 -0.334762
v -15.290993 0.912261 -0.435808
v -15.152394 1.164704 0
v -12.08326 -1.801944 -0.432416
v -12.105963 -1.572367 0
v -16.562992 0.823227 0
v -16.562824 0.535905 -0.357668
v -16.790995 0.460546 0
v -7.35121 -1.505585 -0.240223
v -7.375998 -1.399474 0
v -8.316639 -2.030024 -0.193967
v -8.487738 -1.848849 0
v -16.426067 -0.79655 0
v -16.193295 -0.45441 -0.434717
v -15.27681 -1.710602 -0.333461
v -15.369546 -2.166554 0
v -12.829287 -3.226947 0
v -12.652979 -3.034438 -0.443284
v -11.238066 -3.379143 -0.391642
v -11.223786 -3.645585 0
v -16.358931 1.148541 0
v -16.302319 0.880597 -0.35865
v -9.92944 -3.479597 -0.435234
v -9.939624 -3.735626 0
v -9.243222 -2.088861 0
v -9.25862 -2.357386 -0.292466
v -16.016359 1.086741 -0.406162
v -15.987966 1.295916 0
v -12.88647 -0.94915 -0.392253
v -12.897585 -0.665705 0
v -8.728586 -3.232814 -0.339092
v -8.713188 -3.374051 0
v -16.723814 -0.043147 0
v -16.600094 0.247309 -0.405462
v -14.204517 -2.694606 0
v -14.074348 -2.380733 -0.391083
v -7.856386 -2.766926 -0.209537
v -7.730389 -2.925253 0
v -6.971837 -1.971534 -0.211839
v -6.854515 -2.062312 0
v -8.143604 -2.19962 -0.346087
v -9.156304 -2.620208 -0.397703
v -13.215345 -1.296082 -0.627893
v -14.187244 -0.337386 -0.570402
v -7.154945 -1.736261 -0.25352
v -6.373449 -1.127355 -0.232617
v -7.998843 -2.455992 -0.41376
v -9.009739 -2.884629 -0.444329
v -13.823665 -2.036418 -0.626722
v -12.479967 -2.69967 -0.678924
v -16.240114 0.459791 -0.639975
v -15.820515 -0.190443 -0.670357
v -10.003345 -3.114974 -0.490273
v -12.23263 -2.158867 -0.668055
v -15.341448 0.356143 -0.671448
v -10.024076 -2.788407 -0.456744
v -11.114428 -3.059889 -0.627282
v -15.062893 -1.324264 -0.569101
v -11.057789 -2.637754 -0.596721
v -11.088519 -2.261689 0.361081
v -10.028963 -2.462351 0.307772
v -6.336256 -0.953794 0.175532
v -6.345563 -1.3124 0.204264
v -15.290993 0.912261 0.435808
v -13.961459 0.081569 0.334762
v -12.08326 -1.801944 0.432415
v -16.562824 0.535905 0.357668
v -7.35121 -1.505585 0.240223
v -8.316639 -2.030024 0.193966
v -15.27681 -1.710602 0.333461
v -16.193295 -0.45441 0.434717
v -11.238066 -3.379143 0.391642
v -12.652979 -3.034438 0.443284
v -16.302319 0.880597 0.35865
v -9.92944 -3.479597 0.435234
v -9.25862 -2.357386 0.292466
v -16.016359 1.086741 0.406162
v -12.88647 -0.94915 0.392253
v -8.728586 -3.232814 0.339092
v -16.600094 0.247309 0.405462
v -14.074348 -2.380733 0.391082
v -7.856386 -2.766926 0.209537
v -6.971837 -1.971534 0.211839
v -9.156304 -2.620208 0.397702
v -8.143604 -2.19962 0.346087
v -14.187244 -0.337386 0.570402
v -13.215345 -1.296082 0.627893
v -6.373449 -1.127355 0.232617
v -7.154945 -1.736261 0.25352
v -7.998843 -2.455992 0.41376
v -9.009739 -2.884629 0.444329
v -12.479967 -2.69967 0.678923
v -13.823665 -2.036418 0.626722
v -15.820515 -0.190443 0.670357
v -16.240114 0.459791 0.639975
v -10.003345 -3.114974 0.490273
v -12.23263 -2.158867 0.668055
v -15.341448 0.356143 0.671448
v -10.024076 -2.788407 0.456744
v -11.114428 -3.059889 0.627282
v -15.062893 -1.324264 0.569101
v -11.057789 -2.637754 0.596721
vt 0.09375 0.90625
vt 0.09375 0.90625
vt 0.09375 0.90625
vt 0.09375 0.90625
vt 0.09375 0.90625
vt 0.09375 0.90625
vt 0.09375 0.90625
vt 0.09375 0.90625
vt 0.09375 0.90625
vt 0.09375 0.90625
vt 0.09375 0.90625
vt 0.09375 0.90625
vt 0.09375 0.90625
vt 0.09375 0.90625
vt 0.09375 0.90625
vt 0.09375 0.90625
vt 0.09375 0.90625
vt 0.09375 0.90625
vt 0.09375 0.90625
vt 0.09375 0.90625
vt 0.09375 0.90625
vt 0.09375 0.90625
vt 0.09375 0.90625
vt 0.09375 0.90625
vt 0.09375 0.90625
vt 0.09375 0.90625
vt 0.09375 0.90625
vt 0.09375 0.90625
vt 0.09375 0.90625
vt 0.09375 0.90625
vt 0.09375 0.90625
vt 0.09375 0.90625
vt 0.09375 0.90625
vt 0.09375 0.90625
vt 0.09375 0.90625
vt 0.09375 0.90625
vt 0.09375 0.90625
vt 0.09375 0.90625
vt 0.09375 0.90625
vt 0.09375 0.90625
vt 0.09375 0.90625
vt 0.09375 0.90625
vt 0.09375 0.90625
vt 0.09375 0.90625
vt 0.09375 0.90625
vt 0.09375 0.90625
vt 0.09375 0.90625
vt 0.09375 0.90625
vt 0.09375 0.90625
vt 0.09375 0.90625
vt 0.09375 0.90625
vt 0.09375 0.90625
vt 0.09375 0.90625
vt 0.09375 0.90625
vt 0.09375 0.90625
vt 0.09375 0.90625
vt 0.09375 0.90625
vt 0.09375 0.90625
vt 0.09375 0.90625
vt 0.09375 0.90625
vt 0.09375 0.90625
vt 0.09375 0.90625
vt 0.09375 0.90625
vt 0.09375 0.90625
vt 0.09375 0.90625
vt 0.09375 0.90625
vt 0.09375 0.90625
vt 0.09375 0.90625
vt 0.09375 0.90625
vt 0.09375 0.90625
vt 0.09375 0.90625
vt 0.09375 0.90625
vt 0.09375 0.90625
vt 0.09375 0.90625
vt 0.09375 0.90625
vt 0.09375 0.90625
vt 0.09375 0.90625
vt 0.09375 0.90625
vt 0.09375 0.90625
vt 0.09375 0.90625
vt 0.09375 0.90625
vt 0.09375 0.90625
vt 0.09375 0.90625
vt 0.09375 0.90625
vt 0.09375 0.90625
vt 0.09375 0.90625
vt 0.09375 0.90625
vt 0.09375 0.90625
vt 0.09375 0.90625
vt 0.09375 0.90625
vt 0.09375 0.90625
vt 0.09375 0.90625
vt 0.09375 0.90625
vt 0.09375 0.90625
vt 0.09375 0.90625
vt 0.09375 0.90625
vt 0.09375 0.90625
vt 0.09375 0.90625
vt 0.09375 0.90625
vt 0.09375 0.90625
vt 0.09375 0.90625
vt 0.09375 0.90625
vt 0.09375 0.90625
vt 0.09375 0.90625
vt 0.09375 0.90625
vt 0.09375 0.90625
vt 0.09375 0.90625
vt 0.09375 0.90625
vt 0.09375 0.90625
vt 0.09375 0.90625
vt 0.09375 0.90625
vt 0.09375 0.90625
vt 0.09375 0.90625
vt 0.09375 0.90625
vt 0.09375 0.90625
vt 0.09375 0.90625
vt 0.09375 0.90625
vt 0.09375 0.90625
vt 0.09375 0.90625
vt 0.09375 0.90625
vt 0.09375 0.90625
vt 0.09375 0.90625
vt 0.09375 0.90625
vt 0.09375 0.90625
vt 0.09375 0.90625
vt 0.09375 0.90625
vt 0.09375 0.90625
vt 0.09375 0.90625
vt 0.09375 0.90625
vt 0.09375 0.90625
vt 0.09375 0.90625
vt 0.09375 0.90625
vt 0.09375 0.90625
vt 0.09375 0.90625
vt 0.09375 0.90625
vt 0.09375 0.90625
vt 0.09375 0.90625
vt 0.09375 0.90625
vt 0.09375 0.90625
vt 0.09375 0.90625
vt 0.09375 0.90625
vt 0.09375 0.90625
vt 0.09375 0.90625
vt 0.09375 0.90625
vt 0.09375 0.90625
vt 0.09375 0.90625
vt 0.09375 0.90625
vt 0.09375 0.90625
vt 0.09375 0.90625
vt 0.09375 0.90625
vt 0.09375 0.90625
vt 0.09375 0.90625
vt 0.09375 0.90625
vt 0.09375 0.90625
vt 0.09375 0.90625
vt 0.09375 0.90625
vt 0.09375 0.90625
vt 0.09375 0.90625
vt 0.09375 0.90625
vt 0.09375 0.90625
vt 0.09375 0.90625
vt 0.09375 0.90625
vt 0.09375 0.90625
vt 0.09375 0.90625
vt 0.09375 0.90625
vt 0.09375 0.90625
vt 0.09375 0.90625
vt 0.09375 0.90625
vt 0.09375 0.90625
vt 0.09375 0.90625
vt 0.09375 0.90625
vt 0.09375 0.90625
vt 0.09375 0.90625
vt 0.09375 0.90625
vt 0.09375 0.90625
vt 0.09375 0.90625
vt 0.09375 0.90625
vt 0.09375 0.90625
vt 0.09375 0.90625
vt 0.09375 0.90625
vt 0.09375 0.90625
vt 0.09375 0.90625
vt 0.09375 0.90625
vt 0.09375 0.90625
vt 0.09375 0.90625
vt 0.09375 0.90625
vt 0.09375 0.90625
vt 0.09375 0.90625
vt 0.09375 0.90625
vt 0.09375 0.90625
vt 0.09375 0.90625
vt 0.09375 0.90625
vt 0.09375 0.90625
vt 0.09375 0.90625
vt 0.09375 0.90625
vt 0.09375 0.90625
vt 0.09375 0.90625
vt 0.09375 0.90625
vt 0.09375 0.90625
vt 0.09375 0.90625
vt 0.09375 0.90625
vt 0.09375 0.90625
vt 0.09375 0.90625
vt 0.09375 0.90625
vt 0.09375 0.90625
vt 0.09375 0.90625
vt 0.09375 0.90625
vt 0.09375 0.90625
vt 0.09375 0.90625
vt 0.09375 0.90625
vt 0.09375 0.90625
vt 0.09375 0.90625
vt 0.09375 0.90625
vt 0.09375 0.90625
vt 0.09375 0.90625
vt 0.09375 0.90625
vt 0.09375 0.90625
vt 0.09375 0.90625
vt 0.09375 0.90625
vt 0.09375 0.90625
vt 0.09375 0.90625
vt 0.09375 0.90625
vt 0.09375 0.90625
vt 0.09375 0.90625
vt 0.09375 0.90625
vt 0.09375 0.90625
vt 0.09375 0.90625
vt 0.09375 0.90625
vt 0.09375 0.90625
vt 0.09375 0.90625
vt 0.09375 0.90625
vt 0.09375 0.9375
vt 0.125 0.9375
vt 0.09375 0.90625
vt 0.09375 0.90625
vt 0.09375 0.90625
vt 0.09375 0.90625
vt 0.09375 0.90625
vt 0.09375 0.90625
vt 0.09375 0.90625
vt 0.09375 0.90625
vt 0.09375 0.90625
vt 0.09375 0.90625
vt 0.09375 0.90625
vt 0.09375 0.90625
vt 0.09375 0.90625
vt 0.09375 0.90625
vt 0.09375 0.9375
vt 0.09375 0.90625
vt 0.09375 0.90625
vt 0.09375 0.90625
vt 0.09375 0.90625
vt 0.09375 0.90625
vt 0.09375 0.90625
vt 0.09375 0.90625
vt 0.09375 0.90625
vt 0.09375 0.90625
vt 0.09375 0.90625
vt 0.09375 0.90625
vt 0.09375 0.90625
vt 0.09375 0.90625
vt 0.09375 0.90625
vt 0.09375 0.90625
vt 0.09375 0.90625
vt 0.09375 0.90625
vt 0.09375 0.90625
vt 0.09375 0.90625
vt 0.09375 0.90625
vt 0.09375 0.90625
vt 0.09375 0.90625
vt 0.09375 0.90625
vt 0.09375 0.90625
vt 0.09375 0.90625
vt 0.09375 0.90625
vt 0.09375 0.90625
vt 0.09375 0.90625
vt 0.09375 0.90625
vt 0.09375 0.90625
vt 0.09375 0.90625
vt 0.09375 0.90625
vt 0.09375 0.90625
vt 0.09375 0.90625
vt 0.09375 0.90625
vt 0.09375 0.90625
vt 0.09375 0.90625
vt 0.09375 0.90625
vt 0.09375 0.90625
vt 0.09375 0.90625
vt 0.09375 0.90625
vt 0.09375 0.90625
vt 0.09375 0.90625
vt 0.09375 0.90625
vt 0.09375 0.90625
vt 0.09375 0.90625
vt 0.09375 0.90625
vt 0.09375 0.90625
vt 0.09375 0.90625
vt 0.09375 0.90625
vt 0.09375 0.90625
vt 0.09375 0.90625
vt 0.09375 0.90625
vt 0.09375 0.90625
vt 0.09375 0.90625
vt 0.09375 0.90625
vt 0.09375 0.90625
vt 0.09375 0.90625
vt 0.125 0.9375
vt 0.09375 0.90625
vt 0.09375 0.90625
vt 0.09375 0.90625
vt 0.09375 0.90625
vt 0.09375 0.90625
vt 0.09375 0.90625
vt 0.09375 0.90625
vt 0.09375 0.90625
vt 0.09375 0.90625
vt 0.09375 0.90625
vt 0.09375 0.90625
vt 0.09375 0.90625
vt 0.09375 0.90625
vt 0.09375 0.90625
vt 0.09375 0.90625
vt 0.09375 0.90625
vt 0.09375 0.90625
vt 0.09375 0.90625
vt 0.09375 0.90625
vt 0.09375 0.90625
vt 0.09375 0.90625
vt 0.09375 0.90625
vt 0.09375 0.90625
vt 0.09375 0.90625
vt 0.09375 0.90625
vt 0.09375 0.90625
vt 0.125 0.9375
vt 0.09375 0.90625
vt 0.09375 0.90625
vt 0.09375 0.90625
vt 0.09375 0.90625
vt 0.09375 0.90625
vt 0.09375 0.90625
vt 0.09375 0.90625
vt 0.09375 0.90625
vt 0.09375 0.90625
vt 0.09375 0.90625
vt 0.09375 0.90625
vt 0.09375 0.90625
vt 0.09375 0.90625
vt 0.09375 0.90625
vt 0.09375 0.90625
vt 0.09375 0.90625
vt 0.09375 0.90625
vt 0.09375 0.90625
vt 0.09375 0.90625
vt 0.09375 0.90625
vt 0.09375 0.90625
vt 0.09375 0.90625
vt 0.09375 0.90625
vt 0.09375 0.90625
vt 0.09375 0.90625
vt 0.09375 0.90625
vt 0.09375 0.90625
vt 0.09375 0.90625
vt 0.09375 0.90625
vt 0.09375 0.90625
vt 0.09375 0.90625
vt 0.09375 0.90625
vt 0.09375 0.90625
vt 0.09375 0.90625
vt 0.09375 0.90625
vt 0.09375 0.90625
vt 0.09375 0.90625
vt 0.09375 0.90625
vt 0.09375 0.90625
vt 0.09375 0.90625
vt 0.09375 0.90625
vt 0.09375 0.90625
vt 0.09375 0.90625
vt 0.09375 0.90625
vt 0.09375 0.90625
vt 0.09375 0.90625
vt 0.09375 0.90625
vt 0.09375 0.90625
vt 0.09375 0.90625
vt 0.09375 0.90625
vt 0.09375 0.90625
vt 0.09375 0.90625
vt 0.09375 0.90625
vt 0.09375 0.9375
vt 0.09375 0.90625
vt 0.09375 0.90625
vt 0.09375 0.90625
vt 0.09375 0.90625
vt 0.09375 0.90625
vt 0.09375 0.90625
vt 0.09375 0.90625
vt 0.09375 0.90625
vt 0.09375 0.90625
vt 0.09375 0.90625
vt 0.09375 0.90625
vt 0.09375 0.90625
vt 0.09375 0.90625
vt 0.09375 0.90625
vt 0.09375 0.90625
vt 0.09375 0.90625
vt 0.09375 0.90625
vt 0.09375 0.90625
vt 0.09375 0.90625
vt 0.09375 0.90625
vt 0.09375 0.90625
vt 0.09375 0.90625
vt 0.09375 0.90625
vt 0.09375 0.90625
vt 0.09375 0.90625
vt 0.09375 0.90625
vt 0.09375 0.90625
vt 0.09375 0.90625
vt 0.09375 0.90625
vt 0.09375 0.90625
vt 0.09375 0.90625
vt 0.09375 0.90625
vt 0.09375 0.90625
vt 0.09375 0.90625
vt 0.09375 0.90625
vt 0.09375 0.90625
vt 0.09375 0.90625
vt 0.09375 0.90625
vt 0.09375 0.90625
vt 0.09375 0.90625
vt 0.09375 0.90625
vt 0.09375 0.90625
vt 0.09375 0.90625
vt 0.09375 0.90625
vt 0.09375 0.90625
vt 0.09375 0.90625
vt 0.09375 0.90625
vt 0.09375 0.90625
vt 0.09375 0.90625
vt 0.09375 0.90625
vt 0.09375 0.90625
vt 0.09375 0.90625
vt 0.09375 0.90625
vt 0.09375 0.90625
vt 0.09375 0.90625
vt 0.09375 0.90625
vt 0.09375 0.90625
vt 0.09375 0.90625
vt 0.09375 0.90625
vt 0.125 0.9375
vt 0.09375 0.9375
vt 0.09375 0.90625
vn 0.1749899674901334 0.7566294356255434 -0.629992387591131
vn 0.9617277135633415 -0.003008262012292558 -0.2739904292560102
vn 0.4946286551332837 0.7352999352957056 -0.4633319530047224
vn 0.38071895988283866 0.7371288157793787 -0.5582957840906738
vn -0.7783271700734623 0.4893030783477979 -0.39343273102883136
vn -0.4631918834314549 0.871112798155318 -0.16314340934660546
vn -0.4523838838355702 0.7975927541583828 -0.39899200513279814
vn -0.5693810345569879 -0.46978347535151427 -0.6746174647705672
vn -0.19507862223650055 -0.8688963046844643 -0.45493245965966383
vn -0.6920749585387515 0.5216222792792271 -0.4989413287382892
vn -0.08196693449884504 -0.8254085974177969 -0.5585535506624654
vn -0.08696161782575927 0.7360991268152925 -0.6712642940950238
vn 0.17688172157396084 0.8262269435608279 -0.5348475430505076
vn 0.6837479597381022 0.6587740852437352 -0.31385575056905124
vn 0.21288331067175992 -0.844337826525691 -0.4917055325449405
vn -0.7469244302663572 -0.41122236543907853 -0.5224940780850694
vn -0.3354430427337897 -0.6770557942073783 -0.6550369582029043
vn 0.4809006566830965 -0.8014094279679371 -0.3556367348374889
vn 0.48037896752197806 -0.5362342229797569 -0.6940381154286953
vn -0.586670632790488 0.7359211144622403 -0.33799065358359015
vn 0.5979901524555608 -0.5616065388333522 -0.5718442734746915
vn 0.603171720381894 0.6545049939848142 -0.4558586278447349
vn -0.1494637299275641 0.6533779612017031 -0.7421306039047615
vn -0.845233790351741 0.19176212760531552 -0.49880569971073135
vn -0.3247175212314379 -0.5144171012913505 -0.7936835498511451
vn -0.18469650582956285 0.5450776259031194 -0.8177882259327102
vn 0.28301433290846123 0.3406775240115534 -0.8965722012207027
vn 0.10156841536594637 -0.09636660105849644 -0.9901501579055993
vn 0.44653305658919157 -0.33923059920942333 -0.8279678918491522
vn 0.11478362967459274 -0.20133016543503593 -0.972774836662949
vn -0.24211301229820315 -0.4217291175934238 -0.8737996570437426
vn -0.4288117384509629 -0.23596875951484053 -0.8720316723030709
vn 0.07666167268967813 -0.13360763286660055 -0.9880647693244632
vn 0.33291952331074215 0.4185298112064645 -0.8449836614574447
vn 0.012623502681916936 0.3891422444293185 -0.9210911794065516
vn -0.008273740768675085 0.3689298476882624 -0.9294204176250963
vn 0.06722837875623229 -0.6092322940642022 -0.7901369229184763
vn -0.5441939560440544 0.4091943753068048 -0.7324021446052679
vn -0.10911076654931287 -0.533835823480474 -0.8385190243470602
vn -0.3426954359319807 -0.3082426841354307 -0.8874380462141428
vn 0.04734178936249907 0.09758316352112816 -0.9941007399540379
vn -0.248789858990011 0.3503060575934669 -0.9029890763885537
vn -0.4516310003962942 0.4487668134888718 -0.7711276072039484
vn 0.26405622499931886 0.5275246800015947 -0.8074602293787135
vn 0.28693624269355156 0.34746633671331323 -0.8927120126221769
vn -0.031988464016825556 0.026042646617970597 -0.999148897175479
vn 0.05640035778227924 -0.051358046626126544 -0.9970864309019453
vn -0.03217448190614796 0.02485675301137817 -0.9991731304152462
vn -0.023583372555958996 0.030868609472170176 -0.999245191876419
vn 0.05477186044270959 0.06478638513362903 -0.9963948853767574
vn 0.14914415632277195 0.11035645849391279 -0.9826380171270853
vn 0.030005305600657874 0.18968190199744525 -0.9813870070927385
vn -0.04618474678396231 0.23048903878783975 -0.97197827761898
vn -0.0230695730805424 0.24295628512929532 -0.9697628773643866
vn -0.6164651700652053 0.20549016528473707 -0.7600950506796691
vn -0.26546879991280475 -0.39062746961740097 -0.8814400128500872
vn 0.18088713365028036 0.41095652257269977 -0.8935292840387157
vn 0.7969870410350048 0.027656149649434518 -0.6033629039051337
vn 0.15434201116172674 0.7972804653545594 0.5835429745567767
vn 0.9571118578108458 -0.011034835376608036 0.28950841791920734
vn 0.4937677568202799 0.6751180463394443 0.5480958181116519
vn 0.3443758537499568 0.8365797113873852 0.42607470923417645
vn -0.7783271700734623 0.4893030783477979 0.39343273102883136
vn -0.3845145267271835 0.8290910863852538 0.40590214240909067
vn -0.240316965195071 0.5945368186614038 0.7673159241768728
vn -0.5446989986274476 -0.42006149670283416 0.7258452589099352
vn -0.2116385729240013 -0.811646196637804 0.5444626396127464
vn -0.7790034763444281 0.4886485930095926 0.3929072872740356
vn -0.06028212494341597 -0.8597418301838841 0.5071588023926745
vn -0.07876748288321238 0.7274222569348149 0.6816542699610288
vn 0.13765702002281413 0.8766145743872732 0.46108289147425385
vn 0.6859230768273309 0.5988910949440978 0.4133267340402595
vn 0.2614299767101109 -0.8867513929791654 0.3812169124355065
vn -0.7307367427813407 -0.2887892309334004 0.618566562987535
vn -0.3164961766975498 -0.8176244870858544 0.4809577614026277
vn 0.30310232557183425 -0.6637477494767655 0.6837893720272895
vn 0.5765945422453909 -0.585236033627605 0.5701206177614146
vn -0.29499855075428905 0.7425556395627771 0.6013210267456014
vn 0.7700075226285381 -0.5892439099737026 0.2447039632992579
vn 0.6055473935967298 0.6690929414570218 0.4308445076829895
vn -0.22966563554288613 0.7229168250024228 0.6516478803610879
vn -0.9212255358586992 -0.1228701862533753 0.3691157398593474
vn -0.3117008772040099 -0.687698486641677 0.6556777826196325
vn -0.028383929137939565 0.3620247391131459 0.9317362506829661
vn 0.2859612332707834 0.34804169442425636 0.8928007347715083
vn 0.14675776227223528 -0.1281693182037871 0.9808337193857185
vn 0.09129531948980261 -0.10439498854155854 0.9903367361694017
vn 0.3409384341348682 -0.40196025803494556 0.8498170009420525
vn -0.24692645846372105 -0.4691917847824272 0.8478716843976127
vn -0.4157421279801408 -0.20406310254082452 0.886293818777925
vn 0.11864001878439166 -0.19826653828822494 0.9729413783666738
vn 0.3000126683812091 0.3248097987084615 0.8969342191452813
vn 0.042320480019697626 0.3358205826994159 0.9409747675715471
vn -0.03845458789523832 0.4147858873387762 0.9091061062023462
vn -0.044988327078827085 -0.15801513954267343 0.9864113067589797
vn -0.5441939560440544 0.4091943753068048 0.7324021446052679
vn -0.10730163320520725 -0.5631898982541901 0.8193311284309477
vn -0.35960228147829904 -0.33262877314065875 0.8718051952325948
vn -0.28932726159952044 0.45850179838677474 0.8402772379229467
vn 0.022082518578355432 0.07625007527777282 0.9968441645479853
vn -0.4516310003962942 0.4487668134888718 0.7711276072039484
vn 0.2689380733049708 0.44974541275861385 0.8517049820387307
vn 0.28732058315801784 0.35147659070380816 0.8910168846217025
vn -0.031988464016825556 0.026042646617970597 0.999148897175479
vn 0.05639473999930081 -0.05141858215579056 0.9970836287440987
vn -0.0322091360135109 0.027261785711314705 0.9991092866133784
vn -0.02453641750074484 0.018580142320118485 0.9995262590485521
vn 0.05798272571061867 -0.006456666879974347 0.9982967068822617
vn 0.12488296037391873 0.05496332865205598 0.9906479085486087
vn 0.02198815753194114 0.10349070734906503 0.9943873462694208
vn -0.035600552766568115 0.15437628140950407 0.9873705304397579
vn -0.0230695730805424 0.24295628512929532 0.9697628773643866
vn -0.6164651700652053 0.20549016528473707 0.7600950506796691
vn -0.26716501949300997 -0.4041735279328439 0.8747951827014243
vn 0.14303653996090643 0.5338766727604773 0.8333764134640567
vn 0.7969904840139327 0.027657373936875247 0.6033582998999459
usemtl m_bbf1847c-ad03-79df-ec9d-885fcb623a69
f 1/1/1 2/2/1 3/3/1 4/4/1
f 5/5/2 6/6/2 7/7/2 8/8/2
f 9/9/3 10/10/3 11/11/3 12/12/3
f 4/13/4 3/14/4 13/15/4 14/16/4
f 15/17/5 16/18/5 17/19/5
f 8/20/6 7/21/6 18/22/6 19/23/6
f 19/24/7 18/25/7 20/26/7 21/27/7
f 22/28/8 23/29/8 24/30/8 25/31/8
f 26/32/9 27/33/9 28/34/9 29/35/9
f 30/36/10 31/37/10 16/38/10 15/39/10
f 29/40/11 28/41/11 32/42/11 33/43/11
f 34/44/12 35/45/12 2/46/12 1/47/12
f 12/48/13 11/49/13 36/50/13 37/51/13
f 14/52/14 13/53/14 38/54/14 39/55/14
f 33/56/15 32/57/15 40/58/15 41/59/15
f 42/60/16 43/61/16 23/62/16 22/63/16
f 44/64/17 45/65/17 27/66/17 26/67/17
f 41/68/18 40/69/18 46/70/18 47/71/18
f 47/72/19 46/73/19 48/74/19 49/75/19
f 37/76/20 36/77/20 31/78/20 30/79/20
f 49/80/21 48/81/21 6/82/21 5/83/21
f 39/84/22 38/85/22 10/86/22 9/87/22
f 21/88/23 20/89/23 35/90/23 34/91/23
f 17/92/24 16/93/24 43/94/24 42/95/24
f 25/96/25 24/97/25 45/98/25 44/99/25
f 20/100/26 50/101/26 51/102/26 35/103/26
f 38/104/27 52/105/27 53/106/27 10/107/27
f 48/108/28 54/109/28 55/110/28 6/111/28
f 46/112/29 56/113/29 54/114/29 48/115/29
f 40/116/30 57/117/30 56/118/30 46/119/30
f 45/120/31 58/121/31 59/122/31 27/123/31
f 43/124/32 60/125/32 61/126/32 23/127/32
f 32/128/33 62/129/33 57/130/33 40/131/33
f 13/132/34 63/133/34 52/134/34 38/135/34
f 11/136/35 64/137/35 60/138/35 36/139/35
f 35/140/36 51/141/36 65/142/36 2/143/36
f 28/144/37 66/145/37 62/146/37 32/147/37
f 16/148/38 31/149/38 60/150/38
f 27/151/39 59/152/39 66/153/39 28/154/39
f 23/155/40 61/156/40 67/157/40 24/158/40
f 18/159/41 54/160/41 50/161/41 20/162/41
f 7/163/42 55/164/42 54/165/42 18/166/42
f 36/167/43 60/168/43 31/169/43
f 3/170/44 68/171/44 63/172/44 13/173/44
f 10/174/45 53/175/45 64/176/45 11/177/45
f 64/178/46 61/179/46 60/180/46
f 53/181/47 67/182/47 61/183/47 64/184/47
f 52/185/48 58/186/48 67/187/48 53/188/48
f 63/189/49 59/190/49 58/191/49 52/192/49
f 68/193/50 66/194/50 59/195/50 63/196/50
f 68/197/51 65/198/51 62/199/51 66/200/51
f 65/201/52 51/202/52 57/203/52 62/204/52
f 51/205/53 50/206/53 56/207/53 57/208/53
f 54/209/54 56/210/54 50/211/54
f 43/212/55 16/213/55 60/214/55
f 24/215/56 67/216/56 58/217/56 45/218/56
f 2/219/57 65/220/57 68/221/57 3/222/57
f 6/223/58 55/224/58 7/225/58
f 1/226/59 4/227/59 69/228/59 70/229/59
f 5/230/60 8/231/60 71/232/60 72/233/60
f 9/234/61 12/235/61 73/236/61 74/237/61
f 4/238/62 14/239/62 75/240/62 69/241/62
f 15/242/63 17/243/63 76/244/63
f 8/245/64 19/246/64 77/247/64 71/248/64
f 19/249/65 21/250/65 78/251/65 77/252/65
f 22/253/66 25/254/66 79/255/66 80/256/66
f 26/257/67 29/258/67 81/259/67 82/260/67
f 30/261/68 15/262/68 76/263/68 83/264/68
f 29/265/69 33/266/69 84/267/69 81/268/69
f 34/269/70 1/270/70 70/271/70 85/272/70
f 12/273/71 37/274/71 86/275/71 73/276/71
f 14/277/72 39/278/72 87/279/72 75/280/72
f 33/281/73 41/282/73 88/283/73 84/284/73
f 42/285/74 22/286/74 80/287/74 89/288/74
f 44/289/75 26/290/75 82/291/75 90/292/75
f 41/293/76 47/294/76 91/295/76 88/296/76
f 47/297/77 49/298/77 92/299/77 91/300/77
f 37/301/78 30/302/78 83/303/78 86/304/78
f 49/305/79 5/306/79 72/307/79 92/308/79
f 39/309/80 9/310/80 74/311/80 87/312/80
f 21/313/81 34/314/81 85/315/81 78/316/81
f 17/317/82 42/318/82 89/319/82 76/320/82
f 25/321/83 44/322/83 90/323/83 79/324/83
f 78/325/84 85/326/84 93/327/84 94/328/84
f 87/329/85 74/330/85 95/331/85 96/332/85
f 92/333/86 72/334/86 97/335/86 98/336/86
f 91/337/87 92/338/87 98/339/87 99/340/87
f 88/341/88 91/342/88 99/343/88 100/344/88
f 90/345/89 82/346/89 101/347/89 102/348/89
f 89/349/90 80/350/90 103/351/90 104/352/90
f 84/353/91 88/354/91 100/355/91 105/356/91
f 75/357/92 87/358/92 96/359/92 106/360/92
f 73/361/93 86/362/93 104/363/93 107/364/93
f 85/365/94 70/366/94 108/367/94 93/368/94
f 81/369/95 84/370/95 105/371/95 109/372/95
f 76/373/96 104/374/96 83/375/96
f 82/376/97 81/377/97 109/378/97 101/379/97
f 80/380/98 79/381/98 110/382/98 103/383/98
f 77/384/99 78/385/99 94/386/99 98/387/99
f 71/388/100 77/389/100 98/390/100 97/391/100
f 86/392/101 83/393/101 104/394/101
f 69/395/102 75/396/102 106/397/102 111/398/102
f 74/399/103 73/400/103 107/401/103 95/402/103
f 107/403/104 104/404/104 103/405/104
f 95/406/105 107/407/105 103/408/105 110/409/105
f 96/410/106 95/411/106 110/412/106 102/413/106
f 106/414/107 96/415/107 102/416/107 101/417/107
f 111/418/108 106/419/108 101/420/108 109/421/108
f 111/422/109 109/423/109 105/424/109 108/425/109
f 108/426/110 105/427/110 100/428/110 93/429/110
f 93/430/111 100/431/111 99/432/111 94/433/111
f 98/434/112 94/435/112 99/436/112
f 89/437/113 104/438/113 76/439/113
f 79/440/114 90/441/114 102/442/114 110/443/114
f 70/444/115 69/445/115 111/446/115 108/447/115
f 72/448/116 71/449/116 97/450/116