# Made in Blockbench 5.1.4
mtllib Mo_Snat_Head.mtl

o Head.001
v 0.71285625 4.491533125 7.272086875
v 0.564221875 4.28625875 7.42899125
v 0.522343125 4.30271 7.369426875
v 0.62936625 4.476028125 7.25262
v 0.33007625 4.18105875 7.641276875
v 0 4.288685 7.846593125
v 0.3083 4.177713125 7.57427375
v 0.33007625 4.145035 6.843105
v 0.33007625 4.178221875 6.619091875
v 0.564221875 4.287691875 6.598028125
v 0.54104 4.262068125 6.770985
v 0.401221875 5.63323 4.902801875
v 0.40395625 5.67317375 5.29818375
v 0.635368125 5.44578125 5.40647125
v 0.635368125 5.411083125 5.219635
v 0.401221875 4.190666875 6.27892625
v 0.401221875 4.268325 5.757063125
v 0.635368125 4.35725875 5.77443375
v 0.635368125 4.2973 6.33539
v 0.40794625 5.38874625 6.11216375
v 0.33007625 5.004475 6.65128375
v 0.564221875 4.92563 6.622881875
v 0.635368125 5.22963125 6.232721875
v 0.33007625 4.12385375 7.197105
v 0.531438125 4.245715 7.07669625
v 0.39286375 4.82908625 7.36842125
v 0.39286375 4.75796375 7.59535625
v 0.564221875 4.73712875 7.422
v 0.564221875 4.803188125 7.20009
v 0.42670375 4.88878 4.643986875
v 0.401221875 5.36204125 4.617916875
v 0.635368125 5.201701875 4.99968
v 0.65160125 4.890346875 5.012153125
v 0.33007625 4.86343 6.933373125
v 0.33007625 4.77631375 7.17755
v 0.564221875 4.74947 7.04041875
v 0.564221875 4.81673125 6.84068
v 0.401221875 5.534803125 5.74620875
v 0.635368125 5.39567 5.72572875
v 0.33007625 4.114116875 7.409075
v 0.531438125 4.23819625 7.240355
v 0.545308125 4.49054 5.054695
v 0.66783375 4.528828125 5.252881875
v 0.401221875 4.30732 5.42767
v 0.635368125 4.38736625 5.506445
v 0 4.171626875 6.226588125
v 0 4.18589125 5.77790375
v 0 4.893028125 4.460871875
v 0 5.088411875 4.393463125
v 0 5.765136875 4.795963125
v 0 5.835236875 5.242466875
v 0 4.08339625 6.90995375
v 0 4.123595 6.638618125
v 0 4.717325 7.62316
v 0 4.635633125 7.75685875
v 0.33007625 4.517746875 7.755873125
v 0 4.23312375 5.39930625
v 0 4.45505 4.956953125
v 0.33007625 4.350418125 7.76567125
v 0 5.077556875 6.67760875
v 0 4.90671625 6.893001875
v 0 4.49136375 7.85431
v 0.38981625 5.568695 5.76197875
v 0 4.80119625 7.14979125
v 0 4.76013 7.42127125
v 0 5.630146875 4.59651625
v 0 4.052018125 7.50798875
v 0 4.039875 7.338683125
v 0 4.05774125 7.16658625
v 0.385973125 5.422636875 6.090483125
v 0 5.406608125 4.42340125
v 0 5.35295375 6.36228125
v 0.68916875 4.41016875 6.57446125
v 0.668173125 4.393008125 6.69029625
v 0.78678625 5.229143125 5.617386875
v 0.78678625 5.17773375 5.411915
v 0.78678625 4.51545625 5.80019375
v 0.767285 4.4753 6.398563125
v 0.68916875 4.83741625 6.59110625
v 0.780736875 5.114275 6.322271875
v 0.644485 4.382055 6.94198
v 0.71285625 4.709098125 7.14237
v 0.78678625 5.054398125 5.23985
v 0.78678625 4.82537375 5.28834375
v 0.71285625 4.71943625 6.979918125
v 0.71285625 4.764483125 6.736971875
v 0.78678625 5.222456875 5.77904875
v 0.640486875 4.37702 7.09684625
v 0.77900875 4.63036 5.42569375
v 0.71285625 4.52219625 7.082386875
v 0.71285625 4.57805625 7.286763125
v 0.78678625 4.53562 5.655378125
v 0.564221875 4.54621125 7.546948125
v 0.564221875 4.41701875 7.52503375
v 0.78678625 5.01056625 5.836303125
v 0.78678625 4.93180875 5.668653125
v 0.665986875 4.50923375 6.95628125
v 0.665986875 4.50162125 7.064046875
v 0.71285625 4.530301875 6.95865
v 0 4.099445 7.65487125
v 0.69901 4.490493125 7.24750875
v 0.64100375 4.470398125 7.20593125
v 0.69763875 4.46485375 7.21870125
v 0.703551875 4.51944375 7.09954125
v 0.658083125 4.470398125 7.120066875
v 0.66393625 4.418933125 7.09517625
v 0.651195 4.418933125 7.159233125
v 0.703038125 4.46876375 7.105278125
v 0.715735 4.462668125 7.182305
v 0.67451375 4.35478125 7.055415
v 0.667518125 4.33580125 7.08503
v 0.690946875 4.418933125 7.165735
v 0.70847375 4.418933125 7.14368125
v 0.696988125 4.418933125 7.087558125
v 0.72159625 4.462668125 7.128833125
v 0.71284625 4.418933125 7.10817875
v 0.701371875 4.350928125 7.061426875
v 0.69266375 4.357038125 7.051893125
v 0.68934625 4.333875 7.08803625
v 0.67878625 4.314198125 7.023095
v 0.69897125 4.34040875 7.07784
v 0.781285 5.091338125 5.91450625
v 0.77289375 4.755385 6.09586125
v 0.770781875 4.815723125 6.19483625
v 0.781198125 4.75789875 5.91304875
v 0.77280875 5.08485 6.113946875
v 0.770491875 5.004735 6.192565
v 0.78678625 4.857681875 5.84046625
v 0.69523625 5.069048125 6.091525
v 0.69523625 5.089958125 6.013486875
v 0.69523625 4.79871625 6.091525
v 0.69523625 4.85584375 6.148653125
v 0.695235 4.933881875 6.16956375
v 0.695235 5.01192 6.148653125
v 0.69523625 5.01192 5.87832125
v 0.69523625 4.933881875 5.85741
v 0.69523625 5.069048125 5.93544875
v 0.69523625 4.85584375 5.87832125
v 0.69523625 4.79871625 5.93544875
v 0.78977 4.85584375 5.94590375
v 0.74029625 4.79871625 5.974468125
v 0.78977 5.01192 5.94590375
v 0.80787875 4.933881875 5.93544875
v 0.74029625 5.069048125 5.974468125
v 0.69523625 4.777805 6.013486875
v 0.74029625 5.069048125 6.05250625
v 0.74029625 4.79871625 6.05250625
v 0.80787875 4.933881875 6.076301875
v 0.78977 4.85584375 6.08107
v 0.78977 5.01192 6.08107
v 0.79456 4.933881875 6.100753125
v 0.80787875 4.933881875 6.091525
v 0 5.695473125 5.80090875
v 0 5.386845 6.33410375
v -0.71285625 4.491533125 7.272086875
v -0.629365 4.476028125 7.25262
v -0.522341875 4.30271 7.369426875
v -0.564221875 4.28625875 7.42899125
v -0.33007625 4.18105875 7.641276875
v -0.30829875 4.177713125 7.57427375
v -0.33007625 4.145035 6.843105
v -0.54104 4.262068125 6.770985
v -0.564221875 4.287691875 6.598028125
v -0.33007625 4.178221875 6.619091875
v -0.401221875 5.63323 4.902801875
v -0.635368125 5.411083125 5.219635
v -0.635368125 5.44578125 5.40647125
v -0.40395625 5.67317375 5.29818375
v -0.401221875 4.190666875 6.27892625
v -0.635368125 4.2973 6.33539
v -0.635368125 4.35725875 5.77443375
v -0.401221875 4.268325 5.757063125
v -0.40794625 5.38874625 6.11216375
v -0.635368125 5.22963125 6.232721875
v -0.564221875 4.92563 6.622881875
v -0.33007625 5.004475 6.65128375
v -0.33007625 4.12385375 7.197105
v -0.531436875 4.245715 7.07669625
v -0.392863125 4.82908625 7.36842125
v -0.564221875 4.803188125 7.20009
v -0.564221875 4.73712875 7.422
v -0.392863125 4.75796375 7.59535625
v -0.42670375 4.88878 4.643986875
v -0.65160125 4.890346875 5.012153125
v -0.635368125 5.201701875 4.99968
v -0.401221875 5.36204125 4.617916875
v -0.33007625 4.86343 6.933373125
v -0.564221875 4.81673125 6.84068
v -0.564221875 4.74947 7.04041875
v -0.33007625 4.77631375 7.17755
v -0.401221875 5.534803125 5.74620875
v -0.635368125 5.39567 5.72572875
v -0.33007625 4.114116875 7.409075
v -0.531436875 4.23819625 7.240355
v -0.545306875 4.49054 5.054695
v -0.66783375 4.528828125 5.252881875
v -0.635368125 4.38736625 5.506445
v -0.401221875 4.30732 5.42767
v -0.33007625 4.517746875 7.755873125
v -0.33007625 4.350418125 7.76567125
v -0.389815 5.568695 5.76197875
v -0.385971875 5.422636875 6.090483125
v -0.668171875 4.393008125 6.69029625
v -0.68916875 4.41016875 6.57446125
v -0.78678625 5.17773375 5.411915
v -0.78678625 5.229143125 5.617386875
v -0.76728375 4.4753 6.398563125
v -0.78678625 4.51545625 5.80019375
v -0.78073625 5.114275 6.322271875
v -0.68916875 4.83741625 6.59110625
v -0.644485 4.382055 6.94198
v -0.71285625 4.709098125 7.14237
v -0.78678625 4.82537375 5.28834375
v -0.78678625 5.054398125 5.23985
v -0.71285625 4.764483125 6.736971875
v -0.71285625 4.71943625 6.979918125
v -0.78678625 5.222456875 5.77904875
v -0.64048625 4.37702 7.09684625
v -0.779008125 4.63036 5.42569375
v -0.71285625 4.57805625 7.286763125
v -0.71285625 4.52219625 7.082386875
v -0.78678625 4.53562 5.655378125
v -0.564221875 4.54621125 7.546948125
v -0.564221875 4.41701875 7.52503375
v -0.78678625 4.93180875 5.668653125
v -0.78678625 5.01056625 5.836303125
v -0.66598625 4.50923375 6.95628125
v -0.66598625 4.50162125 7.064046875
v -0.71285625 4.530301875 6.95865
v -0.69900875 4.490493125 7.24750875
v -0.697638125 4.46485375 7.21870125
v -0.641003125 4.470398125 7.20593125
v -0.703551875 4.51944375 7.09954125
v -0.65119375 4.418933125 7.159233125
v -0.66393625 4.418933125 7.09517625
v -0.658081875 4.470398125 7.120066875
v -0.703036875 4.46876375 7.105278125
v -0.715735 4.462668125 7.182305
v -0.667518125 4.33580125 7.08503
v -0.67451375 4.35478125 7.055415
v -0.708473125 4.418933125 7.14368125
v -0.69094625 4.418933125 7.165735
v -0.696988125 4.418933125 7.087558125
v -0.72159625 4.462668125 7.128833125
v -0.71284625 4.418933125 7.10817875
v -0.69266375 4.357038125 7.051893125
v -0.701371875 4.350928125 7.061426875
v -0.68934625 4.333875 7.08803625
v -0.67878625 4.314198125 7.023095
v -0.69897125 4.34040875 7.07784
v -0.781285 5.091338125 5.91450625
v -0.772893125 4.755385 6.09586125
v -0.77078125 4.815723125 6.19483625
v -0.781198125 4.75789875 5.91304875
v -0.77280875 5.08485 6.113946875
v -0.77049125 5.004735 6.192565
v -0.78678625 4.857681875 5.84046625
v -0.695235 5.089958125 6.013486875
v -0.695235 5.069048125 6.091525
v -0.695235 4.79871625 6.091525
v -0.695235 4.85584375 6.148653125
v -0.695235 4.933881875 6.16956375
v -0.695235 5.01192 6.148653125
v -0.695235 5.01192 5.87832125
v -0.695235 4.933881875 5.85741
v -0.695235 5.069048125 5.93544875
v -0.695235 4.85584375 5.87832125
v -0.695235 4.79871625 5.93544875
v -0.74029625 4.79871625 5.974468125
v -0.78977 4.85584375 5.94590375
v -0.80787875 4.933881875 5.93544875
v -0.78977 5.01192 5.94590375
v -0.740295 5.069048125 5.974468125
v -0.695235 4.777805 6.013486875
v -0.740295 5.069048125 6.05250625
v -0.740295 4.79871625 6.05250625
v -0.78977 4.85584375 6.08107
v -0.80787875 4.933881875 6.076301875
v -0.78977 5.01192 6.08107
v -0.79455875 4.933881875 6.100753125
v -0.80787875 4.933881875 6.091525
vt 0.375 0.859375
vt 0.375 0.859375
vt 0.375 0.859375
vt 0.375 0.859375
vt 0.375 0.859375
vt 0.375 0.859375
vt 0.375 0.859375
vt 0.625 0.90625
vt 0.625 0.90625
vt 0.625 0.90625
vt 0.625 0.90625
vt 0.375 0.859375
vt 0.375 0.859375
vt 0.375 0.859375
vt 0.375 0.859375
vt 0.625 0.90625
vt 0.625 0.90625
vt 0.625 0.90625
vt 0.625 0.90625
vt 0.375 0.859375
vt 0.375 0.859375
vt 0.375 0.859375
vt 0.375 0.859375
vt 0.625 0.90625
vt 0.625 0.90625
vt 0.625 0.90625
vt 0.625 0.90625
vt 0.375 0.859375
vt 0.375 0.859375
vt 0.375 0.859375
vt 0.375 0.859375
vt 0.625 0.90625
vt 0.625 0.90625
vt 0.625 0.90625
vt 0.625 0.90625
vt 0.375 0.859375
vt 0.375 0.859375
vt 0.375 0.859375
vt 0.375 0.859375
vt 0.375 0.859375
vt 0.375 0.859375
vt 0.375 0.859375
vt 0.375 0.859375
vt 0.375 0.859375
vt 0.375 0.859375
vt 0.375 0.859375
vt 0.375 0.859375
vt 0.625 0.90625
vt 0.625 0.90625
vt 0.625 0.90625
vt 0.625 0.90625
vt 0.625 0.90625
vt 0.625 0.90625
vt 0.625 0.90625
vt 0.625 0.90625
vt 0.625 0.90625
vt 0.625 0.90625
vt 0.625 0.90625
vt 0.625 0.90625
vt 0.375 0.859375
vt 0.375 0.859375
vt 0.375 0.859375
vt 0.375 0.859375
vt 0.625 0.90625
vt 0.625 0.90625
vt 0.625 0.90625
vt 0.625 0.90625
vt 0.171875 0.890625
vt 0.171875 0.890625
vt 0.171875 0.890625
vt 0.171875 0.890625
vt 0.171875 0.890625
vt 0.171875 0.890625
vt 0.171875 0.890625
vt 0.625 0.90625
vt 0.625 0.90625
vt 0.625 0.90625
vt 0.625 0.90625
vt 0.375 0.859375
vt 0.375 0.859375
vt 0.375 0.859375
vt 0.375 0.859375
vt 0.625 0.90625
vt 0.625 0.90625
vt 0.625 0.90625
vt 0.625 0.90625
vt 0.375 0.859375
vt 0.375 0.859375
vt 0.375 0.859375
vt 0.375 0.859375
vt 0.375 0.859375
vt 0.375 0.859375
vt 0.375 0.859375
vt 0.375 0.859375
vt 0.375 0.859375
vt 0.375 0.859375
vt 0.375 0.859375
vt 0.171875 0.890625
vt 0.171875 0.890625
vt 0.171875 0.890625
vt 0.375 0.859375
vt 0.375 0.859375
vt 0.375 0.859375
vt 0.375 0.859375
vt 0.171875 0.890625
vt 0.171875 0.890625
vt 0.171875 0.890625
vt 0.171875 0.890625
vt 0.625 0.90625
vt 0.625 0.90625
vt 0.625 0.90625
vt 0.625 0.90625
vt 0.625 0.90625
vt 0.625 0.90625
vt 0.625 0.90625
vt 0.375 0.859375
vt 0.375 0.859375
vt 0.375 0.859375
vt 0.625 0.90625
vt 0.625 0.90625
vt 0.625 0.90625
vt 0.625 0.90625
vt 0.625 0.90625
vt 0.625 0.90625
vt 0.625 0.90625
vt 0.625 0.90625
vt 0.171875 0.890625
vt 0.171875 0.890625
vt 0.171875 0.890625
vt 0.171875 0.890625
vt 0.375 0.859375
vt 0.375 0.859375
vt 0.375 0.859375
vt 0.375 0.859375
vt 0.171875 0.890625
vt 0.171875 0.890625
vt 0.171875 0.890625
vt 0.171875 0.890625
vt 0.625 0.90625
vt 0.625 0.90625
vt 0.625 0.90625
vt 0.625 0.90625
vt 0.375 0.859375
vt 0.375 0.859375
vt 0.375 0.859375
vt 0.375 0.859375
vt 0.625 0.90625
vt 0.625 0.90625
vt 0.625 0.90625
vt 0.625 0.90625
vt 0.171875 0.890625
vt 0.171875 0.890625
vt 0.171875 0.890625
vt 0.375 0.859375
vt 0.375 0.859375
vt 0.375 0.859375
vt 0.375 0.859375
vt 0.625 0.90625
vt 0.625 0.90625
vt 0.625 0.90625
vt 0.625 0.90625
vt 0.375 0.859375
vt 0.375 0.859375
vt 0.375 0.859375
vt 0.375 0.859375
vt 0.625 0.90625
vt 0.625 0.90625
vt 0.625 0.90625
vt 0.625 0.90625
vt 0.375 0.859375
vt 0.375 0.859375
vt 0.375 0.859375
vt 0.375 0.859375
vt 0.625 0.90625
vt 0.625 0.90625
vt 0.625 0.90625
vt 0.625 0.90625
vt 0.375 0.859375
vt 0.375 0.859375
vt 0.375 0.859375
vt 0.625 0.90625
vt 0.625 0.90625
vt 0.625 0.90625
vt 0.625 0.90625
vt 0.375 0.859375
vt 0.375 0.859375
vt 0.375 0.859375
vt 0.375 0.859375
vt 0.375 0.859375
vt 0.375 0.859375
vt 0.375 0.859375
vt 0.375 0.859375
vt 0.375 0.859375
vt 0.375 0.859375
vt 0.375 0.859375
vt 0.375 0.859375
vt 0.625 0.90625
vt 0.625 0.90625
vt 0.625 0.90625
vt 0.625 0.90625
vt 0.625 0.90625
vt 0.625 0.90625
vt 0.625 0.90625
vt 0.625 0.90625
vt 0.375 0.859375
vt 0.375 0.859375
vt 0.375 0.859375
vt 0.375 0.859375
vt 0.625 0.90625
vt 0.625 0.90625
vt 0.625 0.90625
vt 0.625 0.90625
vt 0.375 0.859375
vt 0.375 0.859375
vt 0.375 0.859375
vt 0.375 0.859375
vt 0.375 0.859375
vt 0.375 0.859375
vt 0.375 0.859375
vt 0.375 0.859375
vt 0.625 0.90625
vt 0.625 0.90625
vt 0.625 0.90625
vt 0.625 0.90625
vt 0.375 0.859375
vt 0.375 0.859375
vt 0.375 0.859375
vt 0.375 0.859375
vt 0.375 0.859375
vt 0.375 0.859375
vt 0.375 0.859375
vt 0.375 0.859375
vt 0.375 0.859375
vt 0.375 0.859375
vt 0.375 0.859375
vt 0.375 0.859375
vt 0.375 0.859375
vt 0.375 0.859375
vt 0.375 0.859375
vt 0.375 0.859375
vt 0.375 0.859375
vt 0.375 0.859375
vt 0.375 0.859375
vt 0.375 0.859375
vt 0.375 0.859375
vt 0.375 0.859375
vt 0.375 0.859375
vt 0.375 0.859375
vt 0.375 0.859375
vt 0.375 0.859375
vt 0.375 0.859375
vt 0.375 0.859375
vt 0.375 0.859375
vt 0.375 0.859375
vt 0.375 0.859375
vt 0.375 0.859375
vt 0.625 0.90625
vt 0.625 0.90625
vt 0.625 0.90625
vt 0.375 0.859375
vt 0.375 0.859375
vt 0.375 0.859375
vt 0.375 0.859375
vt 0.625 0.90625
vt 0.625 0.90625
vt 0.625 0.90625
vt 0.625 0.90625
vt 0.375 0.859375
vt 0.375 0.859375
vt 0.375 0.859375
vt 0.375 0.859375
vt 0.625 0.90625
vt 0.625 0.90625
vt 0.625 0.90625
vt 0.375 0.859375
vt 0.375 0.859375
vt 0.375 0.859375
vt 0.375 0.859375
vt 0.375 0.859375
vt 0.375 0.859375
vt 0.375 0.859375
vt 0.375 0.859375
vt 0.375 0.859375
vt 0.375 0.859375
vt 0.375 0.859375
vt 0.375 0.859375
vt 0.625 0.90625
vt 0.625 0.90625
vt 0.625 0.90625
vt 0.625 0.90625
vt 0.375 0.859375
vt 0.375 0.859375
vt 0.375 0.859375
vt 0.375 0.859375
vt 0.375 0.859375
vt 0.375 0.859375
vt 0.375 0.859375
vt 0.375 0.859375
vt 0.375 0.859375
vt 0.375 0.859375
vt 0.375 0.859375
vt 0.375 0.859375
vt 0.375 0.859375
vt 0.375 0.859375
vt 0.375 0.859375
vt 0.375 0.859375
vt 0.375 0.859375
vt 0.375 0.859375
vt 0.375 0.859375
vt 0.375 0.859375
vt 0.375 0.859375
vt 0.375 0.859375
vt 0.375 0.859375
vt 0.625 0.90625
vt 0.625 0.90625
vt 0.625 0.90625
vt 0.375 0.859375
vt 0.375 0.859375
vt 0.375 0.859375
vt 0.375 0.859375
vt 0.375 0.859375
vt 0.375 0.859375
vt 0.375 0.859375
vt 0.421875 0.078125
vt 0.421875 0.09375
vt 0.421875 0.078125
vt 0.421875 0.078125
vt 0.625 0.90625
vt 0.625 0.90625
vt 0.625 0.90625
vt 0.625 0.90625
vt 0.625 0.90625
vt 0.625 0.90625
vt 0.625 0.90625
vt 0.625 0.90625
vt 0.625 0.90625
vt 0.625 0.90625
vt 0.625 0.90625
vt 0.625 0.90625
vt 0.375 0.859375
vt 0.375 0.859375
vt 0.375 0.859375
vt 0.375 0.859375
vt 0.375 0.859375
vt 0.375 0.859375
vt 0.375 0.859375
vt 0.375 0.859375
vt 0.375 0.859375
vt 0.375 0.859375
vt 0.421875 0.078125
vt 0.40625 0.078125
vt 0.421875 0.078125
vt 0.421875 0.078125
vt 0.40625 0.09375
vt 0.421875 0.078125
vt 0.421875 0.078125
vt 0.40625 0.078125
vt 0.421875 0.09375
vt 0.40625 0.09375
vt 0.40625 0.078125
vt 0.421875 0.078125
vt 0.421875 0.078125
vt 0.421875 0.078125
vt 0.421875 0.078125
vt 0.421875 0.078125
vt 0.421875 0.078125
vt 0.421875 0.078125
vt 0.421875 0.078125
vt 0.421875 0.078125
vt 0.421875 0.078125
vt 0.421875 0.078125
vt 0.421875 0.078125
vt 0.421875 0.078125
vt 0.421875 0.078125
vt 0.421875 0.078125
vt 0.421875 0.078125
vt 0.40625 0.078125
vt 0.421875 0.078125
vt 0.421875 0.078125
vt 0.421875 0.078125
vt 0.421875 0.078125
vt 0.421875 0.078125
vt 0.421875 0.078125
vt 0.421875 0.078125
vt 0.421875 0.078125
vt 0.421875 0.078125
vt 0.421875 0.078125
vt 0.421875 0.078125
vt 0.421875 0.078125
vt 0.421875 0.078125
vt 0.421875 0.078125
vt 0.421875 0.078125
vt 0.421875 0.078125
vt 0.421875 0.078125
vt 0.421875 0.078125
vt 0.421875 0.078125
vt 0.421875 0.078125
vt 0.421875 0.078125
vt 0.421875 0.078125
vt 0.421875 0.078125
vt 0.421875 0.078125
vt 0.421875 0.078125
vt 0.421875 0.078125
vt 0.421875 0.078125
vt 0.421875 0.078125
vt 0.421875 0.078125
vt 0.421875 0.078125
vt 0.421875 0.078125
vt 0.421875 0.078125
vt 0.421875 0.078125
vt 0.421875 0.078125
vt 0.421875 0.078125
vt 0.421875 0.078125
vt 0.421875 0.078125
vt 0.421875 0.078125
vt 0.421875 0.078125
vt 0.421875 0.078125
vt 0.421875 0.078125
vt 0.421875 0.078125
vt 0.421875 0.078125
vt 0.421875 0.078125
vt 0.421875 0.078125
vt 0.421875 0.078125
vt 0.421875 0.078125
vt 0.421875 0.078125
vt 0.421875 0.078125
vt 0.421875 0.078125
vt 0.421875 0.078125
vt 0.421875 0.078125
vt 0.421875 0.078125
vt 0.421875 0.078125
vt 0.421875 0.078125
vt 0.421875 0.078125
vt 0.375 0.859375
vt 0.375 0.859375
vt 0.375 0.859375
vt 0.375 0.859375
vt 0.375 0.859375
vt 0.375 0.859375
vt 0.375 0.859375
vt 0.375 0.859375
vt 0.375 0.859375
vt 0.375 0.859375
vt 0.375 0.859375
vt 0.375 0.859375
vt 0.375 0.859375
vt 0.375 0.859375
vt 0.375 0.859375
vt 0.375 0.859375
vt 0.375 0.859375
vt 0.375 0.859375
vt 0.375 0.859375
vt 0.375 0.859375
vt 0.375 0.859375
vt 0.375 0.859375
vt 0.375 0.859375
vt 0.375 0.859375
vt 0.375 0.859375
vt 0.375 0.859375
vt 0.375 0.859375
vt 0.375 0.859375
vt 0.375 0.859375
vt 0.375 0.859375
vt 0.375 0.859375
vt 0.375 0.859375
vt 0.375 0.859375
vt 0.375 0.859375
vt 0.375 0.859375
vt 0.375 0.859375
vt 0.375 0.859375
vt 0.375 0.859375
vt 0.375 0.859375
vt 0.375 0.859375
vt 0.375 0.859375
vt 0.375 0.859375
vt 0.375 0.859375
vt 0.375 0.859375
vt 0.375 0.859375
vt 0.375 0.859375
vt 0.375 0.859375
vt 0.375 0.859375
vt 0.375 0.859375
vt 0.375 0.859375
vt 0.375 0.859375
vt 0.375 0.859375
vt 0.375 0.859375
vt 0.375 0.859375
vt 0.375 0.859375
vt 0.375 0.859375
vt 0.375 0.859375
vt 0.375 0.859375
vt 0.375 0.859375
vt 0.375 0.859375
vt 0.375 0.859375
vt 0.375 0.859375
vt 0.375 0.859375
vt 0.125 0.609375
vt 0.125 0.609375
vt 0.125 0.609375
vt 0.125 0.609375
vt 0.125 0.609375
vt 0.125 0.609375
vt 0.125 0.609375
vt 0.125 0.609375
vt 0.125 0.609375
vt 0.125 0.609375
vt 0.125 0.609375
vt 0.125 0.609375
vt 0.125 0.609375
vt 0.125 0.609375
vt 0.125 0.609375
vt 0.125 0.609375
vt 0.125 0.609375
vt 0.125 0.609375
vt 0.125 0.609375
vt 0.125 0.609375
vt 0.125 0.609375
vt 0.125 0.609375
vt 0.125 0.609375
vt 0.125 0.609375
vt 0.125 0.609375
vt 0.125 0.609375
vt 0.125 0.609375
vt 0.125 0.609375
vt 0.125 0.609375
vt 0.125 0.609375
vt 0.125 0.609375
vt 0.125 0.609375
vt 0.125 0.609375
vt 0.125 0.609375
vt 0.125 0.609375
vt 0.125 0.609375
vt 0.125 0.609375
vt 0.125 0.609375
vt 0.125 0.609375
vt 0.125 0.609375
vt 0.125 0.609375
vt 0.125 0.609375
vt 0.125 0.609375
vt 0.125 0.609375
vt 0.125 0.609375
vt 0.125 0.609375
vt 0.125 0.609375
vt 0.125 0.609375
vt 0.125 0.609375
vt 0.125 0.609375
vt 0.125 0.609375
vt 0.125 0.609375
vt 0.125 0.609375
vt 0.125 0.609375
vt 0.125 0.609375
vt 0.125 0.609375
vt 0.125 0.609375
vt 0.125 0.609375
vt 0.125 0.609375
vt 0.421875 0.625
vt 0.40625 0.625
vt 0.40625 0.609375
vt 0.125 0.609375
vt 0.125 0.609375
vt 0.125 0.609375
vt 0.375 0.859375
vt 0.375 0.859375
vt 0.375 0.859375
vt 0.375 0.859375
vt 0.375 0.859375
vt 0.375 0.859375
vt 0.375 0.859375
vt 0.375 0.859375
vt 0.375 0.859375
vt 0.375 0.859375
vt 0.375 0.859375
vt 0.375 0.859375
vt 0.375 0.859375
vt 0.171875 0.890625
vt 0.15625 0.90625
vt 0.171875 0.890625
vt 0.171875 0.890625
vt 0.171875 0.890625
vt 0.171875 0.890625
vt 0.171875 0.890625
vt 0.171875 0.890625
vt 0.171875 0.90625
vt 0.171875 0.890625
vt 0.171875 0.890625
vt 0.15625 0.90625
vt 0.40625 0.609375
vt 0.40625 0.609375
vt 0.421875 0.625
vt 0.40625 0.609375
vt 0.40625 0.625
vt 0.421875 0.625
vt 0.125 0.609375
vt 0.125 0.609375
vt 0.125 0.609375
vt 0.125 0.609375
vt 0.40625 0.609375
vt 0.40625 0.609375
vt 0.421875 0.625
vt 0.375 0.859375
vt 0.375 0.859375
vt 0.375 0.859375
vt 0.375 0.859375
vt 0.375 0.859375
vt 0.375 0.859375
vt 0.375 0.859375
vt 0.625 0.90625
vt 0.625 0.90625
vt 0.625 0.90625
vt 0.625 0.90625
vt 0.375 0.859375
vt 0.375 0.859375
vt 0.375 0.859375
vt 0.375 0.859375
vt 0.625 0.90625
vt 0.625 0.90625
vt 0.625 0.90625
vt 0.625 0.90625
vt 0.375 0.859375
vt 0.375 0.859375
vt 0.375 0.859375
vt 0.375 0.859375
vt 0.625 0.90625
vt 0.625 0.90625
vt 0.625 0.90625
vt 0.625 0.90625
vt 0.375 0.859375
vt 0.375 0.859375
vt 0.375 0.859375
vt 0.375 0.859375
vt 0.625 0.90625
vt 0.625 0.90625
vt 0.625 0.90625
vt 0.625 0.90625
vt 0.375 0.859375
vt 0.375 0.859375
vt 0.375 0.859375
vt 0.375 0.859375
vt 0.375 0.859375
vt 0.375 0.859375
vt 0.375 0.859375
vt 0.375 0.859375
vt 0.375 0.859375
vt 0.375 0.859375
vt 0.375 0.859375
vt 0.375 0.859375
vt 0.625 0.90625
vt 0.625 0.90625
vt 0.625 0.90625
vt 0.625 0.90625
vt 0.625 0.90625
vt 0.625 0.90625
vt 0.625 0.90625
vt 0.625 0.90625
vt 0.625 0.90625
vt 0.625 0.90625
vt 0.625 0.90625
vt 0.625 0.90625
vt 0.375 0.859375
vt 0.375 0.859375
vt 0.375 0.859375
vt 0.375 0.859375
vt 0.625 0.90625
vt 0.625 0.90625
vt 0.625 0.90625
vt 0.625 0.90625
vt 0.171875 0.890625
vt 0.171875 0.890625
vt 0.171875 0.890625
vt 0.171875 0.890625
vt 0.171875 0.890625
vt 0.171875 0.890625
vt 0.171875 0.890625
vt 0.625 0.90625
vt 0.625 0.90625
vt 0.625 0.90625
vt 0.625 0.90625
vt 0.375 0.859375
vt 0.375 0.859375
vt 0.375 0.859375
vt 0.375 0.859375
vt 0.625 0.90625
vt 0.625 0.90625
vt 0.625 0.90625
vt 0.625 0.90625
vt 0.375 0.859375
vt 0.375 0.859375
vt 0.375 0.859375
vt 0.375 0.859375
vt 0.375 0.859375
vt 0.375 0.859375
vt 0.375 0.859375
vt 0.375 0.859375
vt 0.375 0.859375
vt 0.375 0.859375
vt 0.375 0.859375
vt 0.171875 0.890625
vt 0.171875 0.890625
vt 0.171875 0.890625
vt 0.375 0.859375
vt 0.375 0.859375
vt 0.375 0.859375
vt 0.375 0.859375
vt 0.171875 0.890625
vt 0.171875 0.890625
vt 0.171875 0.890625
vt 0.171875 0.890625
vt 0.625 0.90625
vt 0.625 0.90625
vt 0.625 0.90625
vt 0.625 0.90625
vt 0.625 0.90625
vt 0.625 0.90625
vt 0.625 0.90625
vt 0.375 0.859375
vt 0.375 0.859375
vt 0.375 0.859375
vt 0.625 0.90625
vt 0.625 0.90625
vt 0.625 0.90625
vt 0.625 0.90625
vt 0.625 0.90625
vt 0.625 0.90625
vt 0.625 0.90625
vt 0.625 0.90625
vt 0.171875 0.890625
vt 0.15625 0.890625
vt 0.171875 0.890625
vt 0.171875 0.890625
vt 0.375 0.859375
vt 0.375 0.859375
vt 0.375 0.859375
vt 0.375 0.859375
vt 0.171875 0.890625
vt 0.171875 0.890625
vt 0.171875 0.890625
vt 0.171875 0.890625
vt 0.625 0.90625
vt 0.625 0.90625
vt 0.625 0.90625
vt 0.625 0.90625
vt 0.375 0.859375
vt 0.375 0.859375
vt 0.375 0.859375
vt 0.375 0.859375
vt 0.625 0.90625
vt 0.625 0.90625
vt 0.625 0.90625
vt 0.625 0.90625
vt 0.171875 0.890625
vt 0.171875 0.890625
vt 0.171875 0.890625
vt 0.375 0.859375
vt 0.375 0.859375
vt 0.375 0.859375
vt 0.375 0.859375
vt 0.625 0.90625
vt 0.625 0.90625
vt 0.625 0.90625
vt 0.625 0.90625
vt 0.375 0.859375
vt 0.375 0.859375
vt 0.375 0.875
vt 0.375 0.859375
vt 0.625 0.90625
vt 0.625 0.90625
vt 0.625 0.90625
vt 0.625 0.90625
vt 0.375 0.859375
vt 0.375 0.859375
vt 0.375 0.859375
vt 0.375 0.859375
vt 0.625 0.90625
vt 0.625 0.90625
vt 0.625 0.90625
vt 0.625 0.90625
vt 0.375 0.859375
vt 0.375 0.859375
vt 0.375 0.859375
vt 0.625 0.90625
vt 0.625 0.90625
vt 0.625 0.90625
vt 0.625 0.90625
vt 0.375 0.859375
vt 0.375 0.859375
vt 0.375 0.859375
vt 0.375 0.859375
vt 0.375 0.859375
vt 0.375 0.859375
vt 0.375 0.859375
vt 0.375 0.859375
vt 0.375 0.859375
vt 0.375 0.859375
vt 0.375 0.859375
vt 0.375 0.859375
vt 0.625 0.90625
vt 0.625 0.90625
vt 0.625 0.90625
vt 0.625 0.90625
vt 0.625 0.90625
vt 0.625 0.90625
vt 0.625 0.90625
vt 0.625 0.90625
vt 0.375 0.859375
vt 0.375 0.859375
vt 0.375 0.859375
vt 0.375 0.859375
vt 0.625 0.90625
vt 0.625 0.90625
vt 0.625 0.90625
vt 0.625 0.90625
vt 0.375 0.859375
vt 0.375 0.859375
vt 0.375 0.859375
vt 0.375 0.859375
vt 0.375 0.859375
vt 0.375 0.859375
vt 0.375 0.859375
vt 0.375 0.859375
vt 0.625 0.90625
vt 0.625 0.90625
vt 0.625 0.90625
vt 0.625 0.90625
vt 0.375 0.859375
vt 0.375 0.859375
vt 0.375 0.859375
vt 0.375 0.859375
vt 0.375 0.859375
vt 0.375 0.859375
vt 0.375 0.859375
vt 0.375 0.859375
vt 0.375 0.859375
vt 0.375 0.859375
vt 0.375 0.859375
vt 0.375 0.859375
vt 0.375 0.859375
vt 0.375 0.859375
vt 0.375 0.859375
vt 0.375 0.859375
vt 0.375 0.859375
vt 0.375 0.859375
vt 0.375 0.859375
vt 0.375 0.859375
vt 0.375 0.859375
vt 0.375 0.859375
vt 0.375 0.859375
vt 0.375 0.859375
vt 0.375 0.859375
vt 0.375 0.875
vt 0.390625 0.875
vt 0.375 0.859375
vt 0.375 0.859375
vt 0.375 0.859375
vt 0.375 0.859375
vt 0.375 0.859375
vt 0.625 0.90625
vt 0.625 0.90625
vt 0.625 0.90625
vt 0.375 0.859375
vt 0.375 0.859375
vt 0.375 0.859375
vt 0.375 0.859375
vt 0.625 0.90625
vt 0.625 0.90625
vt 0.625 0.90625
vt 0.625 0.90625
vt 0.375 0.859375
vt 0.375 0.859375
vt 0.375 0.859375
vt 0.375 0.859375
vt 0.625 0.90625
vt 0.625 0.90625
vt 0.625 0.90625
vt 0.375 0.859375
vt 0.375 0.859375
vt 0.375 0.859375
vt 0.390625 0.875
vt 0.375 0.859375
vt 0.375 0.859375
vt 0.375 0.859375
vt 0.375 0.859375
vt 0.375 0.859375
vt 0.375 0.859375
vt 0.375 0.859375
vt 0.375 0.859375
vt 0.625 0.90625
vt 0.625 0.90625
vt 0.625 0.90625
vt 0.625 0.90625
vt 0.375 0.859375
vt 0.375 0.859375
vt 0.375 0.859375
vt 0.375 0.859375
vt 0.375 0.859375
vt 0.375 0.859375
vt 0.375 0.859375
vt 0.375 0.859375
vt 0.375 0.859375
vt 0.375 0.859375
vt 0.375 0.859375
vt 0.375 0.859375
vt 0.375 0.875
vt 0.375 0.859375
vt 0.375 0.859375
vt 0.375 0.859375
vt 0.375 0.859375
vt 0.375 0.859375
vt 0.375 0.859375
vt 0.375 0.859375
vt 0.375 0.859375
vt 0.375 0.859375
vt 0.375 0.859375
vt 0.625 0.90625
vt 0.625 0.90625
vt 0.625 0.90625
vt 0.375 0.859375
vt 0.375 0.859375
vt 0.375 0.859375
vt 0.375 0.859375
vt 0.375 0.859375
vt 0.375 0.859375
vt 0.375 0.859375
vt 0.390625 0.078125
vt 0.390625 0.078125
vt 0.390625 0.078125
vt 0.390625 0.078125
vt 0.625 0.90625
vt 0.625 0.90625
vt 0.625 0.90625
vt 0.625 0.90625
vt 0.625 0.90625
vt 0.625 0.90625
vt 0.625 0.90625
vt 0.625 0.90625
vt 0.625 0.90625
vt 0.625 0.90625
vt 0.625 0.90625
vt 0.625 0.90625
vt 0.375 0.859375
vt 0.375 0.859375
vt 0.375 0.859375
vt 0.375 0.859375
vt 0.375 0.859375
vt 0.375 0.859375
vt 0.375 0.859375
vt 0.375 0.859375
vt 0.375 0.859375
vt 0.375 0.859375
vt 0.390625 0.078125
vt 0.390625 0.078125
vt 0.390625 0.09375
vt 0.390625 0.078125
vt 0.390625 0.078125
vt 0.390625 0.078125
vt 0.390625 0.078125
vt 0.390625 0.078125
vt 0.390625 0.078125
vt 0.390625 0.078125
vt 0.390625 0.078125
vt 0.390625 0.078125
vt 0.390625 0.078125
vt 0.390625 0.078125
vt 0.390625 0.078125
vt 0.390625 0.078125
vt 0.390625 0.078125
vt 0.375 0.09375
vt 0.390625 0.09375
vt 0.390625 0.078125
vt 0.390625 0.078125
vt 0.390625 0.078125
vt 0.390625 0.078125
vt 0.390625 0.078125
vt 0.390625 0.078125
vt 0.390625 0.078125
vt 0.390625 0.078125
vt 0.390625 0.078125
vt 0.390625 0.09375
vt 0.390625 0.078125
vt 0.390625 0.078125
vt 0.390625 0.078125
vt 0.390625 0.078125
vt 0.390625 0.078125
vt 0.390625 0.078125
vt 0.390625 0.078125
vt 0.390625 0.078125
vt 0.390625 0.078125
vt 0.390625 0.078125
vt 0.390625 0.078125
vt 0.375 0.078125
vt 0.390625 0.078125
vt 0.390625 0.078125
vt 0.390625 0.078125
vt 0.390625 0.078125
vt 0.390625 0.078125
vt 0.390625 0.078125
vt 0.390625 0.078125
vt 0.390625 0.078125
vt 0.390625 0.078125
vt 0.390625 0.078125
vt 0.390625 0.078125
vt 0.390625 0.078125
vt 0.390625 0.078125
vt 0.390625 0.078125
vt 0.390625 0.078125
vt 0.390625 0.078125
vt 0.390625 0.078125
vt 0.390625 0.078125
vt 0.390625 0.078125
vt 0.390625 0.078125
vt 0.390625 0.078125
vt 0.390625 0.078125
vt 0.390625 0.078125
vt 0.390625 0.078125
vt 0.390625 0.078125
vt 0.390625 0.078125
vt 0.390625 0.078125
vt 0.390625 0.09375
vt 0.375 0.09375
vt 0.375 0.078125
vt 0.390625 0.078125
vt 0.375 0.09375
vt 0.390625 0.078125
vt 0.375 0.078125
vt 0.375 0.078125
vt 0.390625 0.078125
vt 0.390625 0.078125
vt 0.390625 0.078125
vt 0.390625 0.078125
vt 0.390625 0.078125
vt 0.390625 0.078125
vt 0.390625 0.078125
vt 0.375 0.09375
vt 0.375 0.859375
vt 0.375 0.859375
vt 0.375 0.859375
vt 0.375 0.859375
vt 0.375 0.859375
vt 0.375 0.859375
vt 0.375 0.859375
vt 0.375 0.859375
vt 0.375 0.859375
vt 0.375 0.859375
vt 0.375 0.859375
vt 0.375 0.859375
vt 0.375 0.859375
vt 0.375 0.859375
vt 0.375 0.859375
vt 0.375 0.859375
vt 0.375 0.859375
vt 0.375 0.859375
vt 0.390625 0.875
vt 0.375 0.859375
vt 0.375 0.859375
vt 0.375 0.859375
vt 0.375 0.859375
vt 0.375 0.859375
vt 0.375 0.859375
vt 0.375 0.859375
vt 0.375 0.859375
vt 0.375 0.859375
vt 0.375 0.859375
vt 0.375 0.859375
vt 0.375 0.859375
vt 0.375 0.859375
vt 0.375 0.859375
vt 0.375 0.859375
vt 0.375 0.859375
vt 0.375 0.859375
vt 0.375 0.859375
vt 0.375 0.859375
vt 0.375 0.859375
vt 0.375 0.859375
vt 0.375 0.859375
vt 0.375 0.859375
vt 0.375 0.859375
vt 0.375 0.859375
vt 0.375 0.859375
vt 0.375 0.859375
vt 0.375 0.859375
vt 0.375 0.859375
vt 0.375 0.859375
vt 0.375 0.859375
vt 0.375 0.859375
vt 0.375 0.859375
vt 0.375 0.859375
vt 0.375 0.859375
vt 0.375 0.859375
vt 0.375 0.859375
vt 0.375 0.859375
vt 0.375 0.859375
vt 0.375 0.859375
vt 0.375 0.859375
vt 0.375 0.859375
vt 0.375 0.859375
vt 0.375 0.859375
vt 0.125 0.609375
vt 0.125 0.609375
vt 0.125 0.609375
vt 0.125 0.609375
vt 0.125 0.609375
vt 0.125 0.609375
vt 0.125 0.609375
vt 0.125 0.609375
vt 0.125 0.609375
vt 0.125 0.609375
vt 0.125 0.609375
vt 0.125 0.609375
vt 0.125 0.609375
vt 0.125 0.609375
vt 0.125 0.609375
vt 0.125 0.609375
vt 0.125 0.609375
vt 0.125 0.609375
vt 0.125 0.609375
vt 0.125 0.609375
vt 0.125 0.609375
vt 0.125 0.609375
vt 0.125 0.609375
vt 0.140625 0.625
vt 0.125 0.609375
vt 0.125 0.609375
vt 0.125 0.609375
vt 0.125 0.609375
vt 0.125 0.609375
vt 0.125 0.609375
vt 0.125 0.609375
vt 0.125 0.609375
vt 0.125 0.609375
vt 0.125 0.609375
vt 0.140625 0.625
vt 0.125 0.609375
vt 0.125 0.609375
vt 0.125 0.609375
vt 0.125 0.609375
vt 0.125 0.609375
vt 0.125 0.609375
vt 0.125 0.609375
vt 0.125 0.609375
vt 0.125 0.609375
vt 0.125 0.609375
vt 0.125 0.609375
vt 0.125 0.609375
vt 0.125 0.609375
vt 0.125 0.609375
vt 0.125 0.609375
vt 0.125 0.609375
vt 0.125 0.609375
vt 0.125 0.609375
vt 0.125 0.625
vt 0.140625 0.625
vt 0.125 0.609375
vt 0.125 0.609375
vt 0.125 0.609375
vt 0.125 0.609375
vt 0.40625 0.609375
vt 0.40625 0.609375
vt 0.40625 0.609375
vt 0.140625 0.625
vt 0.125 0.625
vt 0.125 0.609375
vt 0.375 0.859375
vt 0.375 0.859375
vt 0.375 0.859375
vt 0.375 0.859375
vt 0.375 0.859375
vt 0.375 0.859375
vt 0.375 0.859375
vt 0.375 0.859375
vt 0.375 0.859375
vt 0.375 0.859375
vt 0.390625 0.875
vt 0.375 0.875
vt 0.375 0.859375
vt 0.171875 0.890625
vt 0.171875 0.890625
vt 0.15625 0.890625
vt 0.15625 0.90625
vt 0.171875 0.890625
vt 0.171875 0.890625
vt 0.171875 0.890625
vt 0.171875 0.890625
vt 0.171875 0.90625
vt 0.15625 0.90625
vt 0.15625 0.890625
vt 0.171875 0.890625
vt 0.40625 0.609375
vt 0.40625 0.609375
vt 0.40625 0.609375
vt 0.40625 0.609375
vt 0.40625 0.609375
vt 0.40625 0.609375
vt 0.125 0.609375
vt 0.125 0.609375
vt 0.125 0.609375
vt 0.125 0.609375
vt 0.40625 0.609375
vt 0.40625 0.609375
vt 0.40625 0.609375
vn 0.45326190819602336 -0.7247982951743941 -0.518865178915286
vn -0.23645695245713083 -0.9635727299740903 0.12496280920723955
vn 0.4098324872047168 -0.9023127742644181 -0.13367494092328966
vn 0.716549119832115 0.6934911424457494 -0.07501595974931403
vn 0.36059435916835364 -0.9225639369979292 -0.1372861620369853
vn 0.32229806177217707 0.7482404236004947 0.5798794942641533
vn 0.47059690622747263 -0.8807730919496477 -0.05270021201654876
vn 0.38611205733295006 0.8802348322341713 0.2758697506139397
vn 0.40370216304124334 -0.9134670407431194 0.051014988305691976
vn 0.8555795176452137 0.017567146220420108 -0.517373254391502
vn 0.29154008289948774 0.9009362090888304 0.32143168359016405
vn 0.41729139997022924 0.8466464826429161 0.3302387332510597
vn 0.49984316389168304 -0.8652036087437441 -0.03974326266871397
vn 0.8217728582972055 -0.27176888213670164 -0.5008303545794811
vn 0.3544381973934974 -0.928595018304371 -0.1099311430339623
vn 0.8509579943003681 0.3804285646554692 -0.3621389224185583
vn 0.19960335711792282 -0.979381970670261 -0.031136078001110203
vn 0.373330459964908 -0.3025616140608811 -0.8769725408239787
vn 0.38544918535919653 0.9115632374700862 -0.1431132055366906
vn 0.1532108399424834 -0.9775239948378692 -0.14482153859261523
vn 0.29288553447732174 0.8158983721203381 0.4985257366127811
vn 0.1372375213294894 -0.8853632627984253 -0.4441821198858242
vn 0.29462014649206664 -0.5656995590016379 0.7701837301750446
vn 0.026730512443727185 0.7831971899330089 0.6211985523047636
vn 0.24445114061481335 -0.03689256817936692 0.9689595338636425
vn 0.9559068489790475 0.27889706053662827 0.09197024355179563
vn -0.151652712701452 0.9773156026256199 0.14783662467336225
vn 0.3884217984835762 0.763123579504719 -0.516498701708619
vn 0.18879733444924238 -0.9744619988018154 -0.12157047090487015
vn 0.2046646662046057 -0.9763241643026992 0.07002499986428645
vn 0.1983653624545225 0.5486235558315848 0.8121966368835777
vn 0.2665528494195782 -0.7225215040418924 -0.6378967429477481
vn 0.20436515426846508 -0.9736619322436867 -0.10108078660317751
vn 0.9559596768458591 0.2782154315420925 0.09347336463724826
vn 0.03773570178699836 0.924294002321793 0.3798112874607653
vn 0.44224253375575634 0.08401514456376524 -0.8929518446261359
vn 0.062120031302789015 -0.9913554360405206 -0.11556600340865762
vn -0.08619194351749754 0.9746131582436248 0.20664012352653993
vn 0.1634414330806691 -0.9816600875261351 -0.09813445119181133
vn 0.41136295833952147 0.5580847959409331 -0.7206399080301649
vn 0.2141397859146921 0.7357139925278489 0.6425488878576807
vn 0.6987754538208212 -0.7152352574332005 -0.01230413190635881
vn 0.8567202496373664 0.5071104432511669 -0.09417755681102619
vn 0.7264013283725244 -0.6833781394062711 -0.07304401905875124
vn 0.5660738074958221 0.5970408844154665 0.5684211702633711
vn 0.7127016360737932 -0.7013041264561237 -0.015129446564615734
vn 0.5829739983034967 0.7787193704710025 0.23181341495970462
vn 0.7578710795242053 -0.6263921865113717 0.18238491028130288
vn 0.8521165180677205 0.023482043797043082 -0.5228250503325736
vn 0.3059854065987857 0.90225283265895 0.3038301448300958
vn 0.4901986788753271 0.8283213868550269 0.2712728060595994
vn 0.754630203102233 -0.6554589785292196 -0.03011285491803273
vn 0.8352226380279429 -0.2783141945353495 -0.4742829894122114
vn 1 0 0
vn 0.7346345204555879 -0.6742215048839247 -0.07574617948810611
vn 0.8936868907578439 0.32498783489607547 -0.3093649114834111
vn 0.6071457990226803 0.3256302903832097 0.7248026577724849
vn 0.5533233749524299 -0.8121199501269102 -0.1851875517876887
vn 0.7059307648750094 -0.41928432883539785 0.5708435922352412
vn 0.3349043986461188 0.8427755368662915 0.4213887020640396
vn 0.7103863253840307 0.04114203443179978 0.702608427013359
vn 0.5102164493916623 0.820864165510867 0.2566343635414265
vn -0.08805378433729714 0.967157990385621 -0.2384364751818142
vn 0.4321177627702975 -0.8967288559255581 -0.09566398511891797
vn 1 0 0
vn 0.9395833388948441 0.021014322005804366 0.34167462232634854
vn 0.9808563508089643 -0.17535444724871552 0.08468551769824505
vn 0.9841230125864147 -0.006909446923409225 0.17735319461755486
vn 0.986155086110738 -0.16541346290311484 -0.01168470916723115
vn 1 0 0
vn 0.9735208991411559 -0.15500537975463785 0.16801902029983337
vn 1 0 0
vn 0.9991985748996618 -0.013246549778646886 0.03777217014478721
vn 0.8030035620661352 0.3263613918417515 0.49867175699473265
vn 0.8124840481208576 -0.5471540413891844 -0.20122655525706998
vn 0.8577227905980619 -0.30434021120372257 0.41435329168856283
vn 0.5308812296947953 0.7579793898542262 0.3789886073669727
vn 0.8696588033155511 -0.08255703008573054 0.4867010402692677
vn 0.7323443721227265 0.6726982256412126 0.10558796256834359
vn 0.42990939557390984 0.855741435140055 -0.28789669637165816
vn 0.9882789983028314 -0.10494570780653066 -0.11086487237416025
vn 0.34231567506280375 -0.6687010580740878 0.6600445996573964
vn 0.41184271947086937 -0.9089898708135548 -0.06421050675081048
vn 0.3641504271348964 -0.8523203869498205 0.37542565763035024
vn 0.21230902600863125 -0.9624813075339954 0.16898109398070824
vn 0.6938621363165666 -0.6366262787211556 0.3365446731533038
vn 0.8893298580256879 -0.35451268786673695 0.28881336147330744
vn 0.3192583933364462 -0.8695271500400527 0.3768243803517161
vn -0.06733184197017067 -0.9787734559903243 -0.1935689667939075
vn 0.3817855196804806 -0.9223607700856974 0.05907983386253521
vn 0.19792242723586223 -0.9777057145044822 -0.07013022616778675
vn -0.9806406176185556 -0.01718915545688036 -0.19506027789218697
vn 0.7056388750440764 -0.08675854200707281 -0.7032401676634644
vn -0.9710514435008225 -0.12231629981817926 -0.20517752526472877
vn 0.7627519919859552 -0.5006766692760275 0.4093070626853643
vn -0.9799712364237521 -0.04076771759882602 -0.19492144310948828
vn 0.6018973935002861 -0.6394545700167239 0.47834859734537566
vn -0.2241202547368882 -0.6788512469715644 0.6992360802345833
vn -0.2809729749735709 0.3516567942850192 -0.8929679089237671
vn 0.9617627280400383 -0.2527816822101227 0.10542236997907144
vn 0.9357787942051695 0.33950629325177634 0.09515001396930145
vn 0.7622703964412094 0.2743946625744116 -0.5862178877005003
vn 0.7945526324091072 0.11551069656553889 -0.5961068640023385
vn 0.772985459438531 -0.07909111051882052 -0.629474444067035
vn -0.1254583199543877 -0.9436267572543153 0.3063147938770313
vn 0.6439121767743273 -0.7549762217564392 0.12404843080071307
vn 0.9687892067864052 -0.21728107921165987 0.11931640889158752
vn -0.11923103895269394 -0.6740845209282451 0.7289677756905305
vn 0.6763064544998327 -0.5037067443190912 0.537484041929923
vn -0.1945239424370626 0.49989454540612965 -0.843958458273831
vn -0.22383137784591553 0.5926377426232945 -0.7737441568825998
vn 0.7773386011163692 0.15759146939393315 -0.6090235036422713
vn 0.900358479972306 -0.4140965983649258 -0.1337109373408026
vn -0.978964759187612 0.053695759377029154 -0.19683690124990508
vn 0.998381188565081 0.014836516968365918 0.054907923687057755
vn 0.9997939252769096 0.0018293693167512448 0.020217823505319168
vn 0.998517710579844 0.02946335261714405 0.04576344076820648
vn 0.9978682199670291 -0.05807411862540894 -0.029772677503292447
vn 0.999795825416226 0.0017758539946988768 0.020128433194792992
vn 1 0 0
vn 0.9987718798130965 -0.02468710873733662 0.04295670793723539
vn 0.2620804206031918 -0.9321636447387828 -0.2497694788475215
vn 0.6283889736488971 0.5500608685042567 -0.5500548506620305
vn 0.5885328400579085 0.20926056329114728 -0.7809219633384914
vn 0.3290256401051078 -0.6677393737840325 -0.667732174492088
vn 0.4023521113848973 -0.23695549775328947 0.8842877758674528
vn 0.29964986126698673 -0.6746109999842362 0.6746183805255713
vn 0.4613636875382104 0.6273529898793601 0.6273529898793601
vn 0.906978786419953 -0.42044144715839354 0.024869067042121665
vn -0.08141207101683712 -0.2579641891857998 -0.9627183138335234
vn 0.0058912195758692235 0.2588260722230505 0.9659059777584449
vn 0.4511453624988511 -0.6310577873284586 -0.6310577873284586
vn 0.5682270846281685 0.21298436895804748 -0.7948305724332164
vn 0.21869472191398764 0.9425447390952665 -0.2525510510981883
vn 0.2187063362365369 -0.9425384503005355 -0.252564463444595
vn 0.5561520459712442 -0.21510905062465832 -0.8027596141444571
vn 0.5221987434758101 0.6030342093450959 -0.6030408068048301
vn 0.42093386056748067 0.9070913322415538 0
vn 0.42095456507842677 -0.9070817240688033 0
vn 0.974117112411795 -0.22604391455313805 0
vn 0.7559332516192316 0.6546486989954042 0
vn 0.7559297072889333 -0.6546527916675129 0
vn 0.974117112411795 0.22604391455313805 0
vn 0.2187030006290147 -0.9425391724357711 0.252564656949378
vn 0.5534607758954805 -0.23547253441008228 0.7988953968346953
vn 0.47580767261478535 0.6867913963961201 0.5494766933339108
vn 0.4300491250247978 -0.6732040972547529 0.6015430105194631
vn 0.5535071524958789 0.23546764064610048 0.7988647084109192
vn 0.2186913864658066 0.9425454611586246 0.25255124457214506
vn 0.2988864569949915 -0.9217728281098452 0.2469853015532684
vn 0.46559537614254287 0.8548394122080796 0.22906445610445342
vn 0.4842125684212461 0.8451344798858876 -0.2264639032846306
vn 1 0 0
vn 0.22963628411422377 0.8423427241676857 0.48757144303165856
vn 0.3376144882517075 0.9160143567792125 0.21664292164043478
vn 0.35205022639493366 0.6556003188121927 0.6680186075766359
vn 0.5535071524958789 -0.23546764064610048 0.7988647084109192
vn 0.974117112411795 0.2260439145531381 0
vn 0.5653974547421962 0.2341824361322596 0.7908756569639797
vn 0.974117112411795 -0.22604391455313805 0
vn -0.2849551389970322 -0.6504581712654258 -0.7040630200438168
vn 0.2364546891550201 -0.9635728081755364 0.12496648879325246
vn -0.46604198555993603 -0.8821283539219973 -0.06822341901590667
vn -0.7628620527876228 0.6356917892059036 -0.11805692505249761
vn -0.4316035347559129 -0.8969542134081417 -0.0958724560840266
vn -0.1974447985986025 0.7555102239548099 0.6246757983195046
vn -0.5041812264579935 -0.8630651232269517 -0.030329588796426363
vn -0.3912367366366655 0.8820379207618104 0.262569842602068
vn -0.42818626117474246 -0.8998642069222882 0.08307186552206976
vn -0.8530954121803319 0.023597337922375467 -0.5212210503805915
vn -0.30075319836331277 0.9038315275320219 0.30436176421056854
vn -0.509377026503636 0.8178037870744345 0.26782832321662237
vn -0.4998384425499112 -0.8652060737431314 -0.03974897869473032
vn -0.840918937111699 -0.2732720620248887 -0.46709498105160185
vn -0.35988431506581015 -0.9271641095459207 -0.10416330322879003
vn -0.8509586169460898 0.38042705813443906 -0.3621390419222625
vn -0.06599428722913868 -0.9869521881860768 -0.14686773739604247
vn -0.373330459964908 -0.3025616140608811 -0.8769725408239787
vn -0.3340657102022337 0.9375425353875076 -0.09702626245631249
vn -0.15321461799254368 -0.9775240358776807 -0.14481726456058394
vn -0.0014104057729524603 0.5553365559420791 0.8316245068478596
vn -0.1941595226118754 -0.9080770932273547 -0.37107690919119013
vn -0.29462014649206664 -0.5656995590016379 0.7701837301750446
vn -0.22756957299706634 0.8709586668027482 0.4354802982536784
vn -0.2812163725496758 0.05609697612139616 0.9580033826036511
vn -0.9558977934582976 0.2789252440521783 0.09197889264385925
vn -0.09644541200691635 0.9507445931044067 -0.2945895469726519
vn -0.46189165841581326 0.6424109726049878 -0.6115261549292911
vn -0.1941589157170883 -0.9741674301536873 -0.11532620463418268
vn -0.2046646662046057 -0.9763241643026992 0.07002499986428645
vn -0.1983653624545225 0.5486235558315848 0.8121966368835777
vn -0.17180821586693248 -0.6819870056721442 -0.710897785237065
vn -0.228281093021636 -0.9725697271922293 -0.0446751420599871
vn -0.7043189720951325 0.6455633775999756 0.295267185864883
vn -0.08213672503600442 0.938669096779408 0.3348938416150559
vn -0.4989147343929962 -0.020863239683064968 -0.8663999151866839
vn -0.16316310960494865 -0.9865971426308248 -0.0019692172901145982
vn 0.12623994998201615 0.9465997472110874 0.29666882817115076
vn -0.20125546237077332 -0.9777900535278145 -0.058505128732445705
vn -0.41136295833952147 0.5580847959409331 -0.7206399080301649
vn -0.29077275611407927 0.7587815195734755 0.5828394374573408
vn -0.72629172146734 -0.6867353993931253 0.029913651538597333
vn -0.87452634751548 0.4704754599448643 -0.11771367418827099
vn -0.8056305271320485 -0.5922647249299344 -0.013488860463613896
vn -0.08924806495114987 0.6785039126324757 0.7291551436044988
vn -0.7917031288127153 -0.6090168946519681 0.04800601896253212
vn -0.5829739983034967 0.7787193704710025 0.23181341495970462
vn -0.7039483667462036 -0.7084686758931784 0.050287495796857366
vn -0.8848355332475822 -0.09651090351346997 -0.45579789886031813
vn -0.4274599628739871 0.8888833894995287 0.16481595800042725
vn -0.723006770468492 0.6759493495883397 0.1426663472856227
vn -0.786506187896455 -0.6175823538697726 0.00022932347826849054
vn -0.8724284951931867 -0.3042114127199186 -0.3825231197534383
vn -1 0 0
vn -0.726827854893552 -0.6802572403041302 -0.09471724428342913
vn -0.8638380686142307 0.40944733273835376 -0.2934904988688456
vn -0.6742799177960103 0.4043966967571296 0.6179076825132762
vn -0.4144319746235925 -0.8163080668417599 -0.402352182072695
vn -0.705932001743278 -0.4192817454911641 0.5708439601262427
vn -0.3349062399650566 0.8427758086411963 0.4213866950932906
vn -0.668985578259139 -0.12430304847406871 0.7328076474910309
vn -0.6682183493807189 0.7349666049662488 0.11536172300764944
vn 0.07785215313436898 0.9449225962120466 -0.3178998732623659
vn -0.11348402069671772 -0.9343342164888456 -0.3378475232182145
vn -1 0 0
vn -0.9159523092215104 -0.015621767785799521 0.4009829517610808
vn -0.980857654918971 -0.1753493384667983 0.08468099129151073
vn -0.9746600338581454 -0.09159874938421893 -0.20407716067920575
vn -0.9804866471783268 -0.1956697071578321 0.018955221068919347
vn -1 0 0
vn -0.9735204847230396 -0.1550044329484835 0.16802229492224238
vn -0.9990797318647838 -0.015206376713297226 -0.040105554281733326
vn -1 0 0
vn -0.8145133643655278 0.429604835245818 0.3898816035713441
vn -0.792838546294162 -0.5534545438382702 -0.25513742848694754
vn -0.8577227905980619 -0.30434021120372257 0.41435329168856283
vn -0.6001988050858341 0.7501329860753942 0.2776002477937465
vn -0.8696590759070447 -0.0825553085314235 0.48670084520759443
vn -0.8081128715344326 0.5885245105133333 0.02434106376917903
vn -0.221839117262733 0.9731148100033886 0.061927155627885665
vn -1 0 0
vn -0.3423169003471325 -0.668700740368829 0.6600442860648907
vn -0.4206136651618989 -0.9052995362392913 -0.05930340937921195
vn -0.36414637680528766 -0.8523221664762599 0.3754255462708901
vn 0.21844352848181653 -0.723763323497331 0.6545602160416654
vn -0.6897361812233019 -0.6270589067827713 0.3620236563208159
vn -0.8723655564147591 -0.4099163601508024 0.26635861852375914
vn -0.26166632246108207 -0.9184665413379629 0.2965635650790122
vn -0.3365199999440862 -0.929610417053608 -0.15026231111975277
vn -0.3817819835032156 -0.9223623731048065 0.05907765866061515
vn -0.19792161142367812 -0.9777051889533178 -0.07013985475613711
vn 0.9806383325965314 -0.017172090708977926 -0.19507326814040218
vn 0.19465453621604248 -0.8448441748966253 -0.49834519328850535
vn 0.9075838333526591 -0.37908236639132387 -0.1805218682820643
vn -0.7627495682834693 -0.5006709210909609 0.4093186104458359
vn 0.9744487225853792 0.008975974451525398 -0.2244306550682598
vn -0.7680422955822316 -0.49081106176016964 0.4113581576322888
vn 0.10778341473269192 -0.7443903720604494 0.6589883986021805
vn 0.20514465727410813 0.4071231215430221 -0.8900373214067794
vn -0.9614224055943196 -0.24827853697542843 0.1184260364048916
vn -0.9316266377112056 0.3487742955539947 0.10211904165105096
vn -0.7903744835758801 0.2634707789583432 -0.5530744293015586
vn -0.7861514218724477 0.1282375046359995 -0.604583397301531
vn -0.7729609314670238 -0.07911302429908341 -0.6295018092205007
vn 0.1254583199543877 -0.9436267572543153 0.3063147938770313
vn -0.6439121767743273 -0.7549762217564392 0.12404843080071307
vn -0.9826427628611757 -0.18367642298534803 0.02600331201718112
vn 0.15920694272994185 -0.664207835943058 0.7303979052943848
vn -0.7738249744604968 -0.45932758785532624 0.43613424072895207
vn 0.22434002549539261 0.48639703776458165 -0.844446253242068
vn 0.22383137784591553 0.5926377426232945 -0.7737441568825998
vn -0.7773386011163692 0.15759146939393315 -0.6090235036422713
vn -0.900358479972306 -0.4140965983649258 -0.1337109373408026
vn 0.978964759187612 0.053695759377029154 -0.19683690124990508
vn -0.998381188565081 0.014836516968365918 0.054907923687057755
vn -0.9997939111624286 0.0018280243861138299 0.020218643114157622
vn -0.9994233385888998 0.007634585144046011 0.03308630220341841
vn -0.9978680800705115 -0.058078367322617085 -0.029769078345330376
vn -0.998076489761195 -0.027638377201616732 -0.05549270845464745
vn -1 0 0
vn -0.9997612623622193 0.02164113157491639 0.0030132547285123563
vn 0.022463709960955956 -0.9991875786404448 -0.03345989278875762
vn -0.4527064858607844 0.7655988838403739 -0.45707240862028986
vn -0.5885275461211644 0.2092527652410663 -0.7809280425849543
vn -0.3271327463561176 -0.6666738145366552 -0.6697239664762263
vn -0.4023475071664401 -0.23695602150272574 0.8842897304337258
vn -0.33428368460758584 -0.6437245274741168 0.6883844499503174
vn -0.3102624331004165 0.5477870340529656 0.7769598367548124
vn -0.9992597855503332 -0.0383097015312056 0.0034996786269791734
vn -0.5032692020782275 -0.009610957406447422 -0.8640762349105986
vn -0.3815556603621782 0.025161115770212496 0.9240033529694468
vn -0.4758005163594238 -0.6867978126982686 -0.5494748703125373
vn -0.5534675862072531 0.23546234111575928 -0.7988936831232318
vn -0.21869472191398764 0.9425447390952665 -0.2525510510981883
vn -0.218700559502417 -0.942539700914937 -0.25256479856169833
vn -0.5649981954803666 -0.23698997826965185 -0.7903244835532298
vn -0.43004117439283 0.6732070353813773 -0.601545406299352
vn -0.42093386056748067 0.9070913322415538 0
vn -0.42094976092567365 -0.9070839535187216 0.000006742694050340432
vn -0.974117112411795 -0.22604391455313808 0
vn -0.7559250663365435 0.6546581505519447 0
vn -0.7559185258763605 -0.6546657025461949 0.000012108160688249094
vn -0.9741171124117951 0.2260439145531381 0
vn -0.2187030006290147 -0.9425391724357711 0.252564656949378
vn -0.5682263256928819 -0.21297856532054477 0.7948326701284801
vn -0.45114393426737204 0.6310582978512197 0.6310582978512197
vn -0.5221885047910986 -0.6030452398503695 0.6030386423421364
vn -0.5534726924766327 0.23546302507432576 0.7988899439256415
vn -0.2186913864658066 0.9425454611586246 0.25255124457214506
vn -0.2988825030942243 -0.9217740242806687 0.24698562206240313
vn -0.25292779010701055 0.9671675277036856 0.02478923853458223
vn -0.4842095851189384 0.845136074628264 -0.22646433061494528
vn -1 0 0
vn -0.3198639342173148 0.864353324800846 0.38804689599679165
vn -0.3216838387544214 0.9185173005662476 0.2298814399744204
vn -0.39197126799227866 0.5881515650052695 0.7074151974974651
vn -0.5534726924766327 -0.23546302507432576 0.7988899439256415
vn -0.974117112411795 0.2260439145531381 0
vn -0.5561478360202948 0.21510378126479426 0.8027639427475123
vn -0.974117112411795 -0.22604391455313805 0
usemtl m_ae266414-76c9-1cea-ae9c-2069450eac32
f 1/1/1 2/2/1 3/3/1 4/4/1
f 5/5/2 6/6/2 7/7/2
f 8/8/3 9/9/3 10/10/3 11/11/3
f 12/12/4 13/13/4 14/14/4 15/15/4
f 16/16/5 17/17/5 18/18/5 19/19/5
f 20/20/6 21/21/6 22/22/6 23/23/6
f 24/24/7 8/25/7 11/26/7 25/27/7
f 26/28/8 27/29/8 28/30/8 29/31/8
f 9/32/9 16/33/9 19/34/9 10/35/9
f 30/36/10 31/37/10 32/38/10 33/39/10
f 34/40/11 35/41/11 36/42/11 37/43/11
f 38/44/12 20/45/12 23/46/12 39/47/12
f 40/48/13 24/49/13 25/50/13 41/51/13
f 42/52/14 30/53/14 33/54/14 43/55/14
f 17/56/15 44/57/15 45/58/15 18/59/15
f 31/60/16 12/61/16 15/62/16 32/63/16
f 46/64/17 47/65/17 17/66/17 16/67/17
f 48/68/18 49/69/18 30/70/18
f 50/71/19 51/72/19 13/73/19 12/74/19
f 52/75/20 53/76/20 9/77/20 8/78/20
f 54/79/21 55/80/21 56/81/21 27/82/21
f 57/83/22 58/84/22 42/85/22 44/86/22
f 6/87/23 5/88/23 59/89/23
f 60/90/24 61/91/24 34/92/24 21/93/24
f 62/94/25 6/95/25 59/96/25 56/97/25
f 63/98/26 38/99/26 13/100/26
f 64/101/27 65/102/27 26/103/27 35/104/27
f 66/105/28 50/106/28 12/107/28 31/108/28
f 47/109/29 57/110/29 44/111/29 17/112/29
f 67/113/30 68/114/30 40/115/30
f 55/116/31 62/117/31 56/118/31
f 58/119/32 48/120/32 30/121/32 42/122/32
f 68/123/33 69/124/33 24/125/33 40/126/33
f 20/127/34 38/128/34 63/129/34 70/130/34
f 61/131/35 64/132/35 35/133/35 34/134/35
f 49/135/36 71/136/36 31/137/36 30/138/36
f 53/139/37 46/140/37 16/141/37 9/142/37
f 65/143/38 54/144/38 27/145/38 26/146/38
f 69/147/39 52/148/39 8/149/39 24/150/39
f 71/151/40 66/152/40 31/153/40
f 72/154/41 60/155/41 21/156/41 20/157/41
f 11/158/42 10/159/42 73/160/42 74/161/42
f 15/162/43 14/163/43 75/164/43 76/165/43
f 19/166/44 18/167/44 77/168/44 78/169/44
f 23/170/45 22/171/45 79/172/45 80/173/45
f 25/174/46 11/175/46 74/176/46 81/177/46
f 29/178/47 28/179/47 82/180/47
f 10/181/48 19/182/48 78/183/48 73/184/48
f 33/185/49 32/186/49 83/187/49 84/188/49
f 37/189/50 36/190/50 85/191/50 86/192/50
f 39/193/51 23/194/51 80/195/51 87/196/51
f 41/197/52 25/198/52 81/199/52 88/200/52
f 43/201/53 33/202/53 84/203/53 89/204/53
f 1/205/54 90/206/54 82/207/54 91/208/54
f 18/209/55 45/210/55 92/211/55 77/212/55
f 32/213/56 15/214/56 76/215/56 83/216/56
f 27/217/57 56/218/57 93/219/57 28/220/57
f 44/221/58 42/222/58 43/223/58 45/224/58
f 59/225/59 5/226/59 2/227/59 94/228/59
f 21/229/60 34/230/60 37/231/60 22/232/60
f 56/233/61 59/234/61 94/235/61 93/236/61
f 13/237/62 38/238/62 39/239/62 14/240/62
f 35/241/63 26/242/63 29/243/63 36/244/63
f 5/245/64 7/246/64 3/247/64 2/248/64
f 87/249/65 95/250/65 96/251/65 75/252/65
f 78/253/66 80/254/66 79/255/66 73/256/66
f 74/257/67 97/258/67 81/259/67
f 74/260/68 73/261/68 79/262/68 86/263/68
f 81/264/69 97/265/69 98/266/69 88/267/69
f 90/268/70 99/269/70 85/270/70 82/271/70
f 88/272/71 98/273/71 4/274/71
f 76/275/72 96/276/72 92/277/72 89/278/72
f 76/279/73 89/280/73 84/281/73 83/282/73
f 28/283/74 93/284/74 91/285/74 82/286/74
f 45/287/75 43/288/75 89/289/75 92/290/75
f 94/291/76 2/292/76 1/293/76
f 22/294/77 37/295/77 86/296/77 79/297/77
f 93/298/78 94/299/78 1/300/78 91/301/78
f 14/302/79 39/303/79 87/304/79 75/305/79
f 36/306/80 29/307/80 82/308/80 85/309/80
f 99/310/81 74/311/81 86/312/81 85/313/81
f 7/314/82 6/315/82 100/316/82
f 98/317/83 97/318/83 99/319/83 90/320/83
f 97/321/84 74/322/84 99/323/84
f 101/324/85 4/325/85 102/326/85 103/327/85
f 3/328/86 7/329/86 40/330/86 41/331/86
f 88/332/87 4/333/87 3/334/87 41/335/87
f 40/336/88 7/337/88 100/338/88 67/339/88
f 101/340/89 104/341/89 90/342/89 1/343/89
f 104/344/90 98/345/90 90/346/90
f 4/347/91 101/348/91 1/349/91
f 102/350/92 105/351/92 106/352/92 107/353/92
f 98/354/93 104/355/93 108/356/93 105/357/93
f 4/358/94 98/359/94 105/360/94 102/361/94
f 101/362/95 103/363/95 109/364/95
f 107/365/96 106/366/96 110/367/96 111/368/96
f 103/369/97 112/370/97 113/371/97 109/372/97
f 103/373/98 102/374/98 107/375/98 112/376/98
f 105/377/99 108/378/99 114/379/99 106/380/99
f 115/381/100 109/382/100 113/383/100 116/384/100
f 104/385/101 101/386/101 109/387/101 115/388/101
f 114/389/102 116/390/102 117/391/102 118/392/102
f 114/393/103 108/394/103 115/395/103 116/396/103
f 108/397/104 104/398/104 115/399/104
f 119/400/105 111/401/105 120/402/105
f 121/403/106 119/404/106 120/405/106
f 116/406/107 113/407/107 121/408/107 117/409/107
f 112/410/108 107/411/108 111/412/108 119/413/108
f 113/414/109 112/415/109 119/416/109 121/417/109
f 106/418/110 114/419/110 118/420/110 110/421/110
f 110/422/111 118/423/111 120/424/111
f 118/425/112 117/426/112 120/427/112
f 117/428/113 121/429/113 120/430/113
f 111/431/114 110/432/114 120/433/114
f 95/434/115 87/435/115 122/436/115
f 123/437/116 124/438/116 78/439/116
f 125/440/117 123/441/117 78/442/117 77/443/117
f 126/444/118 80/445/118 127/446/118
f 78/447/119 124/448/119 127/449/119 80/450/119
f 95/451/120 128/452/120 92/453/120 96/454/120
f 92/455/121 128/456/121 125/457/121 77/458/121
f 126/459/122 129/460/122 130/461/122 122/462/122
f 131/463/123 132/464/123 124/465/123 123/466/123
f 132/467/124 133/468/124 124/469/124
f 134/470/125 129/471/125 126/472/125 127/473/125
f 135/474/126 136/475/126 95/476/126
f 137/477/127 135/478/127 95/479/127 122/480/127
f 138/481/128 139/482/128 125/483/128 128/484/128
f 80/485/129 126/486/129 122/487/129 87/488/129
f 124/489/130 133/490/130 134/491/130 127/492/130
f 95/493/131 136/494/131 138/495/131 128/496/131
f 139/497/132 138/498/132 140/499/132 141/500/132
f 136/501/133 135/502/133 142/503/133 143/504/133
f 137/505/134 130/506/134 144/507/134
f 145/508/135 139/509/135 141/510/135
f 138/511/136 136/512/136 143/513/136 140/514/136
f 135/515/137 137/516/137 144/517/137 142/518/137
f 144/519/138 130/520/138 146/521/138
f 145/522/139 141/523/139 147/524/139
f 140/525/140 143/526/140 148/527/140 149/528/140
f 142/529/141 144/530/141 146/531/141 150/532/141
f 141/533/142 140/534/142 149/535/142 147/536/142
f 143/537/143 142/538/143 150/539/143 148/540/143
f 145/541/144 147/542/144 131/543/144
f 149/544/145 151/545/145 133/546/145 132/547/145
f 150/548/146 146/549/146 129/550/146 134/551/146
f 147/552/147 149/553/147 132/554/147 131/555/147
f 152/556/148 150/557/148 151/558/148
f 146/559/149 130/560/149 129/561/149
f 137/562/150 122/563/150 130/564/150
f 125/565/151 139/566/151 145/567/151 123/568/151
f 123/569/152 145/570/152 131/571/152
f 96/572/153 76/573/153 75/574/153
f 153/575/154 154/576/154 70/577/154 63/578/154
f 63/579/155 13/580/155 51/581/155 153/582/155
f 72/583/156 20/584/156 70/585/156 154/586/156
f 151/587/157 149/588/157 152/589/157
f 148/590/158 150/591/158 152/592/158
f 151/593/159 150/594/159 134/595/159 133/596/159
f 149/597/160 148/598/160 152/599/160
f 155/600/161 156/601/161 157/602/161 158/603/161
f 159/604/162 160/605/162 6/606/162
f 161/607/163 162/608/163 163/609/163 164/610/163
f 165/611/164 166/612/164 167/613/164 168/614/164
f 169/615/165 170/616/165 171/617/165 172/618/165
f 173/619/166 174/620/166 175/621/166 176/622/166
f 177/623/167 178/624/167 162/625/167 161/626/167
f 179/627/168 180/628/168 181/629/168 182/630/168
f 164/631/169 163/632/169 170/633/169 169/634/169
f 183/635/170 184/636/170 185/637/170 186/638/170
f 187/639/171 188/640/171 189/641/171 190/642/171
f 191/643/172 192/644/172 174/645/172 173/646/172
f 193/647/173 194/648/173 178/649/173 177/650/173
f 195/651/174 196/652/174 184/653/174 183/654/174
f 172/655/175 171/656/175 197/657/175 198/658/175
f 186/659/176 185/660/176 166/661/176 165/662/176
f 46/663/177 169/664/177 172/665/177 47/666/177
f 48/667/178 183/668/178 49/669/178
f 50/670/179 165/671/179 168/672/179 51/673/179
f 52/674/180 161/675/180 164/676/180 53/677/180
f 54/678/181 182/679/181 199/680/181 55/681/181
f 57/682/182 198/683/182 195/684/182 58/685/182
f 6/686/183 200/687/183 159/688/183
f 60/689/184 176/690/184 187/691/184 61/692/184
f 62/693/185 199/694/185 200/695/185 6/696/185
f 201/697/186 168/698/186 191/699/186
f 64/700/187 190/701/187 179/702/187 65/703/187
f 66/704/188 186/705/188 165/706/188 50/707/188
f 47/708/189 172/709/189 198/710/189 57/711/189
f 67/712/190 193/713/190 68/714/190
f 55/715/191 199/716/191 62/717/191
f 58/718/192 195/719/192 183/720/192 48/721/192
f 68/722/193 193/723/193 177/724/193 69/725/193
f 173/726/194 202/727/194 201/728/194 191/729/194
f 61/730/195 187/731/195 190/732/195 64/733/195
f 49/734/196 183/735/196 186/736/196 71/737/196
f 53/738/197 164/739/197 169/740/197 46/741/197
f 65/742/198 179/743/198 182/744/198 54/745/198
f 69/746/199 177/747/199 161/748/199 52/749/199
f 71/750/200 186/751/200 66/752/200
f 72/753/201 173/754/201 176/755/201 60/756/201
f 162/757/202 203/758/202 204/759/202 163/760/202
f 166/761/203 205/762/203 206/763/203 167/764/203
f 170/765/204 207/766/204 208/767/204 171/768/204
f 174/769/205 209/770/205 210/771/205 175/772/205
f 178/773/206 211/774/206 203/775/206 162/776/206
f 180/777/207 212/778/207 181/779/207
f 163/780/208 204/781/208 207/782/208 170/783/208
f 184/784/209 213/785/209 214/786/209 185/787/209
f 188/788/210 215/789/210 216/790/210 189/791/210
f 192/792/211 217/793/211 209/794/211 174/795/211
f 194/796/212 218/797/212 211/798/212 178/799/212
f 196/800/213 219/801/213 213/802/213 184/803/213
f 155/804/214 220/805/214 212/806/214 221/807/214
f 171/808/215 208/809/215 222/810/215 197/811/215
f 185/812/216 214/813/216 205/814/216 166/815/216
f 182/816/217 181/817/217 223/818/217 199/819/217
f 198/820/218 197/821/218 196/822/218 195/823/218
f 200/824/219 224/825/219 158/826/219 159/827/219
f 176/828/220 175/829/220 188/830/220 187/831/220
f 199/832/221 223/833/221 224/834/221 200/835/221
f 168/836/222 167/837/222 192/838/222 191/839/222
f 190/840/223 189/841/223 180/842/223 179/843/223
f 159/844/224 158/845/224 157/846/224 160/847/224
f 217/848/225 206/849/225 225/850/225 226/851/225
f 207/852/226 204/853/226 210/854/226 209/855/226
f 203/856/227 211/857/227 227/858/227
f 203/859/228 215/860/228 210/861/228 204/862/228
f 211/863/229 218/864/229 228/865/229 227/866/229
f 221/867/230 212/868/230 216/869/230 229/870/230
f 218/871/231 156/872/231 228/873/231
f 205/874/232 219/875/232 222/876/232 225/877/232
f 205/878/233 214/879/233 213/880/233 219/881/233
f 181/882/234 212/883/234 220/884/234 223/885/234
f 197/886/235 222/887/235 219/888/235 196/889/235
f 224/890/236 155/891/236 158/892/236
f 175/893/237 210/894/237 215/895/237 188/896/237
f 223/897/238 220/898/238 155/899/238 224/900/238
f 167/901/239 206/902/239 217/903/239 192/904/239
f 189/905/240 216/906/240 212/907/240 180/908/240
f 229/909/241 216/910/241 215/911/241 203/912/241
f 160/913/242 100/914/242 6/915/242
f 228/916/243 221/917/243 229/918/243 227/919/243
f 227/920/244 229/921/244 203/922/244
f 230/923/245 231/924/245 232/925/245 156/926/245
f 157/927/246 194/928/246 193/929/246 160/930/246
f 218/931/247 194/932/247 157/933/247 156/934/247
f 193/935/248 67/936/248 100/937/248 160/938/248
f 230/939/249 155/940/249 221/941/249 233/942/249
f 233/943/250 221/944/250 228/945/250
f 156/946/251 155/947/251 230/948/251
f 232/949/252 234/950/252 235/951/252 236/952/252
f 228/953/253 236/954/253 237/955/253 233/956/253
f 156/957/254 232/958/254 236/959/254 228/960/254
f 230/961/255 238/962/255 231/963/255
f 234/964/256 239/965/256 240/966/256 235/967/256
f 231/968/257 238/969/257 241/970/257 242/971/257
f 231/972/258 242/973/258 234/974/258 232/975/258
f 236/976/259 235/977/259 243/978/259 237/979/259
f 244/980/260 245/981/260 241/982/260 238/983/260
f 233/984/261 244/985/261 238/986/261 230/987/261
f 243/988/262 246/989/262 247/990/262 245/991/262
f 243/992/263 245/993/263 244/994/263 237/995/263
f 237/996/264 244/997/264 233/998/264
f 248/999/265 249/1000/265 239/1001/265
f 250/1002/266 249/1003/266 248/1004/266
f 245/1005/267 247/1006/267 250/1007/267 241/1008/267
f 242/1009/268 248/1010/268 239/1011/268 234/1012/268
f 241/1013/269 250/1014/269 248/1015/269 242/1016/269
f 235/1017/270 240/1018/270 246/1019/270 243/1020/270
f 240/1021/271 249/1022/271 246/1023/271
f 246/1024/272 249/1025/272 247/1026/272
f 247/1027/273 249/1028/273 250/1029/273
f 239/1030/274 249/1031/274 240/1032/274
f 226/1033/275 251/1034/275 217/1035/275
f 252/1036/276 207/1037/276 253/1038/276
f 254/1039/277 208/1040/277 207/1041/277 252/1042/277
f 255/1043/278 256/1044/278 209/1045/278
f 207/1046/279 209/1047/279 256/1048/279 253/1049/279
f 226/1050/280 225/1051/280 222/1052/280 257/1053/280
f 222/1054/281 208/1055/281 254/1056/281 257/1057/281
f 255/1058/282 251/1059/282 258/1060/282 259/1061/282
f 260/1062/283 252/1063/283 253/1064/283 261/1065/283
f 261/1066/284 253/1067/284 262/1068/284
f 263/1069/285 256/1070/285 255/1071/285 259/1072/285
f 264/1073/286 226/1074/286 265/1075/286
f 266/1076/287 251/1077/287 226/1078/287 264/1079/287
f 267/1080/288 257/1081/288 254/1082/288 268/1083/288
f 209/1084/289 217/1085/289 251/1086/289 255/1087/289
f 253/1088/290 256/1089/290 263/1090/290 262/1091/290
f 226/1092/291 257/1093/291 267/1094/291 265/1095/291
f 268/1096/292 269/1097/292 270/1098/292 267/1099/292
f 265/1100/293 271/1101/293 272/1102/293 264/1103/293
f 266/1104/294 273/1105/294 258/1106/294
f 274/1107/295 269/1108/295 268/1109/295
f 267/1110/296 270/1111/296 271/1112/296 265/1113/296
f 264/1114/297 272/1115/297 273/1116/297 266/1117/297
f 273/1118/298 275/1119/298 258/1120/298
f 274/1121/299 276/1122/299 269/1123/299
f 270/1124/300 277/1125/300 278/1126/300 271/1127/300
f 272/1128/301 279/1129/301 275/1130/301 273/1131/301
f 269/1132/302 276/1133/302 277/1134/302 270/1135/302
f 271/1136/303 278/1137/303 279/1138/303 272/1139/303
f 274/1140/304 260/1141/304 276/1142/304
f 277/1143/305 261/1144/305 262/1145/305 280/1146/305
f 279/1147/306 263/1148/306 259/1149/306 275/1150/306
f 276/1151/307 260/1152/307 261/1153/307 277/1154/307
f 281/1155/308 280/1156/308 279/1157/308
f 275/1158/309 259/1159/309 258/1160/309
f 266/1161/310 258/1162/310 251/1163/310
f 254/1164/311 252/1165/311 274/1166/311 268/1167/311
f 252/1168/312 260/1169/312 274/1170/312
f 225/1171/313 206/1172/313 205/1173/313
f 153/1174/314 201/1175/314 202/1176/314 154/1177/314
f 201/1178/315 153/1179/315 51/1180/315 168/1181/315
f 72/1182/316 154/1183/316 202/1184/316 173/1185/316
f 280/1186/317 281/1187/317 277/1188/317
f 278/1189/318 281/1190/318 279/1191/318
f 280/1192/319 262/1193/319 263/1194/319 279/1195/319
f 277/1196/320 281/1197/320 278/1198/320