# Made in Blockbench 5.1.4
mtllib Mo_Snat_Hood.mtl

o Plane
v 0.745604 3.310577 4.059453
v 0.881927 3.06999 3.470312
v 0.881927 2.981802 3.487851
v 0.746901 3.177819 4.161125
v 0.915966 3.036517 3.371262
v 0.619169 3.483759 4.510821
v 0.590585 3.702616 4.367251
v 0.501541 3.879106 4.704363
v 0.449963 4.189296 4.504656
v 0.4821 4.362681 4.818123
v 0.427656 4.468741 4.557032
v 0.454074 4.754469 4.865188
v 0.321605 4.957364 4.593392
v 0.625834 5.101132 4.921849
v 0.378972 5.363005 4.616214
v 0.605864 5.318339 5.073151
v 0.398487 5.633629 4.905801
v 0.625834 5.412836 5.375158
v 0.390439 5.674006 5.297839
v 0.625834 5.373715 5.736611
v 0.392477 5.533462 5.758823
v 0.625834 5.24729 6.108949
v 0.382455 5.394819 6.109572
v 0.754711 5.112529 6.317494
v 1.026671 4.36927 4.800757
v 1.026671 3.974617 4.686997
v 1.530545 3.641167 4.886744
v 1.530545 4.193841 5.000504
v 1.026671 4.805052 4.762752
v 1.026671 5.193126 4.743383
v 1.530545 5.017696 4.94313
v 1.530545 4.629622 4.962499
v 1.026671 3.579271 4.493455
v 1.026671 3.202346 4.116345
v 1.315596 3.026917 4.316092
v 1.424191 3.403842 4.693202
v 1.026671 5.493524 4.993369
v 1.026671 5.608395 5.354362
v 1.530545 5.432965 5.554109
v 1.530545 5.318094 5.193116
v 1.026671 3.609125 4.444576
v 1.026671 4.003887 4.596246
v 1.530545 3.670436 4.795992
v 1.424191 3.433695 4.644322
v 1.026671 5.349391 6.144304
v 1.026671 5.123811 6.353388
v 1.366902 5.173961 6.15224
v 1.026671 5.236857 6.126931
v 1.366902 5.148729 6.134868
v 1.026671 5.508348 5.357792
v 1.026671 5.413851 5.055785
v 1.530545 5.238421 5.255532
v 1.530545 5.332919 5.557539
v 1.026671 5.542832 5.772223
v 1.530545 5.367403 5.849503
v 1.026671 5.469227 5.719245
v 1.026671 4.355715 4.706239
v 1.026671 5.157269 4.904483
v 1.026671 3.249796 4.094184
v 1.075062 2.958467 3.644213
v 1.315596 3.074367 4.293931
v 1.530545 4.180286 4.905986
v 1.780485 4.040523 5.090651
v 1.530545 5.293798 5.796526
v 1.881813 4.989322 5.664731
v 1.723898 5.083742 5.842058
v 1.881813 4.695643 5.24128
v 1.881813 4.415764 5.170462
v 1.780485 4.054077 5.185169
v 1.530545 5.021215 5.10423
v 1.530545 4.653478 5.073347
v 1.881813 4.43962 5.28131
v 1.881813 4.682209 5.356966
v 1.881813 5.089368 5.661301
v 1.881813 4.95217 5.414436
v 1.881813 4.872497 5.476852
v 0.776648 4.757736 4.915071
v 1.0342 4.481648 4.834956
v 1.269114 4.746874 4.930968
v 1.0342 5.044597 4.875158
v 1.917947 4.322457 5.226901
v 1.95434 4.803082 5.470876
v 1.95434 4.546556 5.297719
v 1.95434 4.72341 5.533292
v 1.904324 4.94028 5.717741
v 1.723898 5.121716 5.870063
v 1.917947 4.346313 5.337749
v 1.95434 4.533122 5.413406
v 0.719422 4.680984 4.896236
v 0.74115 4.838564 4.916667
v 1.324729 4.805236 4.967826
v 1.317397 4.644735 4.94381
v 0.665052 4.756872 4.93032
v 1.385531 4.738284 4.988907
v -0.745604 3.310577 4.059453
v -0.746901 3.17782 4.161125
v -0.881927 2.981802 3.487852
v -0.881927 3.06999 3.470312
v -0.915966 3.036517 3.371262
v -0.590585 3.702616 4.367252
v -0.619169 3.483759 4.510822
v -0.449963 4.189296 4.504656
v -0.501541 3.879106 4.704363
v -0.427656 4.468741 4.557032
v -0.4821 4.362682 4.818123
v -0.321605 4.957365 4.593393
v -0.454074 4.754469 4.865188
v -0.378971 5.363005 4.616214
v -0.625834 5.101132 4.921849
v -0.398486 5.633629 4.905801
v -0.605864 5.318339 5.073152
v -0.390439 5.674006 5.297839
v -0.625834 5.412837 5.375158
v -0.392477 5.533462 5.758823
v -0.625834 5.373715 5.736611
v -0.382455 5.39482 6.109572
v -0.625834 5.24729 6.108949
v -0.754711 5.11253 6.317495
v -1.026671 4.36927 4.800757
v -1.530545 4.193841 5.000504
v -1.530545 3.641167 4.886744
v -1.026671 3.974618 4.686997
v -1.026671 4.805052 4.762753
v -1.530545 4.629622 4.962499
v -1.530545 5.017697 4.94313
v -1.026671 5.193126 4.743383
v -1.026671 3.579271 4.493456
v -1.424191 3.403842 4.693202
v -1.315596 3.026917 4.316092
v -1.026671 3.202346 4.116345
v -1.026671 5.493524 4.993369
v -1.530545 5.318094 5.193116
v -1.530545 5.432966 5.554109
v -1.026671 5.608395 5.354362
v -1.026671 3.609125 4.444576
v -1.424191 3.433695 4.644323
v -1.530545 3.670437 4.795993
v -1.026671 4.003887 4.596246
v -1.026671 5.349391 6.144304
v -1.366902 5.173962 6.152241
v -1.026671 5.123811 6.353388
v -1.366902 5.148729 6.134868
v -1.026671 5.236857 6.126931
v -1.026671 5.508348 5.357792
v -1.530545 5.332919 5.557539
v -1.530545 5.238422 5.255532
v -1.026671 5.413851 5.055786
v -1.026671 5.542832 5.772223
v -1.530545 5.367404 5.849503
v -1.026671 5.469227 5.719245
v -1.026671 4.355716 4.70624
v -1.026671 5.157269 4.904484
v -1.026671 3.249797 4.094185
v -1.075062 2.958467 3.644214
v -1.315596 3.074368 4.293931
v -1.530545 4.180286 4.905986
v -1.780486 4.040524 5.090652
v -1.530545 5.293798 5.796526
v -1.723898 5.083742 5.842059
v -1.881813 4.989322 5.664732
v -1.881813 4.415764 5.170462
v -1.881813 4.695643 5.24128
v -1.780486 4.054078 5.185169
v -1.530545 5.021215 5.10423
v -1.881813 4.682209 5.356966
v -1.881813 4.43962 5.28131
v -1.530545 4.653479 5.073347
v -1.881813 4.95217 5.414436
v -1.881813 5.089368 5.661302
v -1.881813 4.872497 5.476853
v -0.776648 4.757736 4.915072
v -1.0342 5.044598 4.875159
v -1.269114 4.746874 4.930968
v -1.0342 4.481648 4.834956
v -1.917947 4.322458 5.226902
v -1.95434 4.546556 5.297719
v -1.95434 4.803082 5.470876
v -1.904324 4.940281 5.717741
v -1.95434 4.72341 5.533292
v -1.723898 5.121716 5.870063
v -1.917947 4.346313 5.33775
v -1.95434 4.533122 5.413406
v -0.719422 4.680984 4.896236
v -0.74115 4.838564 4.916667
v -1.324729 4.805236 4.967827
v -1.317397 4.644735 4.94381
v -0.665052 4.756872 4.930321
v -1.385532 4.738285 4.988907
vt 0.59375 0.859375
vt 0.59375 0.859375
vt 0.59375 0.859375
vt 0.59375 0.859375
vt 0.375 0.828125
vt 0.375 0.828125
vt 0.375 0.828125
vt 0.59375 0.859375
vt 0.59375 0.859375
vt 0.59375 0.859375
vt 0.59375 0.859375
vt 0.59375 0.859375
vt 0.59375 0.859375
vt 0.59375 0.859375
vt 0.59375 0.859375
vt 0.59375 0.859375
vt 0.59375 0.859375
vt 0.59375 0.859375
vt 0.59375 0.859375
vt 0.59375 0.859375
vt 0.59375 0.859375
vt 0.59375 0.859375
vt 0.59375 0.859375
vt 0.59375 0.859375
vt 0.59375 0.859375
vt 0.59375 0.859375
vt 0.59375 0.859375
vt 0.59375 0.859375
vt 0.59375 0.859375
vt 0.59375 0.859375
vt 0.59375 0.859375
vt 0.59375 0.859375
vt 0.59375 0.859375
vt 0.59375 0.859375
vt 0.59375 0.859375
vt 0.59375 0.859375
vt 0.59375 0.859375
vt 0.59375 0.859375
vt 0.59375 0.859375
vt 0.59375 0.859375
vt 0.59375 0.859375
vt 0.59375 0.859375
vt 0.59375 0.859375
vt 0.59375 0.859375
vt 0.59375 0.859375
vt 0.59375 0.859375
vt 0.59375 0.859375
vt 0.59375 0.859375
vt 0.59375 0.859375
vt 0.59375 0.859375
vt 0.375 0.828125
vt 0.375 0.828125
vt 0.375 0.828125
vt 0.375 0.828125
vt 0.59375 0.859375
vt 0.59375 0.859375
vt 0.59375 0.859375
vt 0.59375 0.859375
vt 0.375 0.828125
vt 0.375 0.828125
vt 0.375 0.828125
vt 0.375 0.828125
vt 0.375 0.828125
vt 0.375 0.828125
vt 0.375 0.828125
vt 0.375 0.828125
vt 0.375 0.828125
vt 0.375 0.828125
vt 0.375 0.828125
vt 0.59375 0.859375
vt 0.59375 0.859375
vt 0.59375 0.859375
vt 0.59375 0.859375
vt 0.59375 0.859375
vt 0.59375 0.859375
vt 0.59375 0.859375
vt 0.59375 0.859375
vt 0.59375 0.859375
vt 0.59375 0.859375
vt 0.59375 0.859375
vt 0.375 0.828125
vt 0.375 0.828125
vt 0.375 0.828125
vt 0.375 0.828125
vt 0.375 0.828125
vt 0.375 0.828125
vt 0.375 0.828125
vt 0.375 0.828125
vt 0.59375 0.859375
vt 0.59375 0.859375
vt 0.59375 0.859375
vt 0.59375 0.859375
vt 0.59375 0.859375
vt 0.59375 0.859375
vt 0.59375 0.859375
vt 0.59375 0.859375
vt 0.375 0.828125
vt 0.375 0.828125
vt 0.375 0.828125
vt 0.375 0.828125
vt 0.375 0.828125
vt 0.375 0.828125
vt 0.375 0.828125
vt 0.375 0.828125
vt 0.59375 0.859375
vt 0.59375 0.859375
vt 0.59375 0.859375
vt 0.59375 0.859375
vt 0.375 0.828125
vt 0.375 0.828125
vt 0.375 0.828125
vt 0.375 0.828125
vt 0.375 0.828125
vt 0.375 0.828125
vt 0.375 0.828125
vt 0.375 0.828125
vt 0.59375 0.859375
vt 0.59375 0.859375
vt 0.59375 0.859375
vt 0.59375 0.859375
vt 0.375 0.828125
vt 0.375 0.828125
vt 0.375 0.828125
vt 0.375 0.828125
vt 0.375 0.828125
vt 0.375 0.828125
vt 0.375 0.828125
vt 0.375 0.828125
vt 0.59375 0.859375
vt 0.59375 0.859375
vt 0.59375 0.859375
vt 0.59375 0.859375
vt 0.59375 0.859375
vt 0.59375 0.859375
vt 0.59375 0.859375
vt 0.59375 0.859375
vt 0.375 0.828125
vt 0.375 0.828125
vt 0.375 0.828125
vt 0.375 0.828125
vt 0.375 0.828125
vt 0.375 0.828125
vt 0.375 0.828125
vt 0.375 0.828125
vt 0.59375 0.859375
vt 0.59375 0.859375
vt 0.59375 0.859375
vt 0.59375 0.859375
vt 0.59375 0.859375
vt 0.59375 0.859375
vt 0.59375 0.859375
vt 0.59375 0.859375
vt 0.375 0.828125
vt 0.375 0.828125
vt 0.375 0.828125
vt 0.375 0.828125
vt 0.375 0.828125
vt 0.375 0.828125
vt 0.375 0.828125
vt 0.375 0.828125
vt 0.59375 0.859375
vt 0.59375 0.859375
vt 0.59375 0.859375
vt 0.59375 0.859375
vt 0.375 0.828125
vt 0.375 0.828125
vt 0.375 0.828125
vt 0.375 0.828125
vt 0.375 0.828125
vt 0.375 0.828125
vt 0.375 0.828125
vt 0.375 0.828125
vt 0.375 0.828125
vt 0.375 0.828125
vt 0.375 0.828125
vt 0.375 0.828125
vt 0.375 0.828125
vt 0.375 0.828125
vt 0.375 0.828125
vt 0.375 0.828125
vt 0.375 0.828125
vt 0.375 0.828125
vt 0.375 0.828125
vt 0.375 0.828125
vt 0.59375 0.859375
vt 0.59375 0.859375
vt 0.609375 0.875
vt 0.59375 0.859375
vt 0.375 0.828125
vt 0.375 0.828125
vt 0.375 0.828125
vt 0.375 0.828125
vt 0.59375 0.859375
vt 0.59375 0.859375
vt 0.59375 0.859375
vt 0.59375 0.859375
vt 0.59375 0.859375
vt 0.59375 0.859375
vt 0.59375 0.859375
vt 0.375 0.828125
vt 0.375 0.828125
vt 0.375 0.828125
vt 0.375 0.828125
vt 0.59375 0.859375
vt 0.59375 0.859375
vt 0.59375 0.859375
vt 0.609375 0.875
vt 0.375 0.828125
vt 0.375 0.828125
vt 0.375 0.828125
vt 0.59375 0.859375
vt 0.59375 0.859375
vt 0.59375 0.859375
vt 0.59375 0.859375
vt 0.375 0.828125
vt 0.375 0.828125
vt 0.375 0.828125
vt 0.375 0.828125
vt 0.375 0.828125
vt 0.375 0.828125
vt 0.375 0.828125
vt 0.375 0.828125
vt 0.59375 0.859375
vt 0.59375 0.859375
vt 0.59375 0.859375
vt 0.59375 0.859375
vt 0.59375 0.859375
vt 0.59375 0.859375
vt 0.59375 0.859375
vt 0.375 0.828125
vt 0.375 0.828125
vt 0.375 0.828125
vt 0.375 0.828125
vt 0.375 0.828125
vt 0.375 0.828125
vt 0.375 0.828125
vt 0.375 0.828125
vt 0.390625 0.578125
vt 0.390625 0.578125
vt 0.390625 0.578125
vt 0.390625 0.578125
vt 0.59375 0.859375
vt 0.59375 0.859375
vt 0.59375 0.859375
vt 0.59375 0.859375
vt 0.375 0.828125
vt 0.375 0.828125
vt 0.375 0.828125
vt 0.375 0.828125
vt 0.375 0.828125
vt 0.375 0.828125
vt 0.375 0.828125
vt 0.375 0.828125
vt 0.375 0.828125
vt 0.375 0.828125
vt 0.375 0.828125
vt 0.375 0.828125
vt 0.375 0.828125
vt 0.375 0.828125
vt 0.375 0.828125
vt 0.609375 0.875
vt 0.59375 0.859375
vt 0.59375 0.859375
vt 0.59375 0.875
vt 0.375 0.828125
vt 0.375 0.828125
vt 0.375 0.828125
vt 0.375 0.828125
vt 0.609375 0.875
vt 0.59375 0.875
vt 0.59375 0.859375
vt 0.375 0.828125
vt 0.375 0.828125
vt 0.375 0.828125
vt 0.375 0.828125
vt 0.375 0.828125
vt 0.375 0.828125
vt 0.375 0.828125
vt 0.375 0.828125
vt 0.59375 0.859375
vt 0.59375 0.859375
vt 0.59375 0.859375
vt 0.59375 0.859375
vt 0.375 0.828125
vt 0.375 0.828125
vt 0.375 0.828125
vt 0.375 0.828125
vt 0.375 0.828125
vt 0.375 0.828125
vt 0.375 0.828125
vt 0.375 0.828125
vt 0.59375 0.859375
vt 0.59375 0.859375
vt 0.59375 0.859375
vt 0.59375 0.859375
vt 0.59375 0.859375
vt 0.59375 0.859375
vt 0.59375 0.859375
vt 0.375 0.828125
vt 0.375 0.828125
vt 0.375 0.828125
vt 0.375 0.828125
vt 0.375 0.828125
vt 0.375 0.828125
vt 0.375 0.828125
vt 0.375 0.828125
vt 0.375 0.828125
vt 0.375 0.828125
vt 0.375 0.828125
vt 0.375 0.828125
vt 0.375 0.828125
vt 0.375 0.828125
vt 0.375 0.828125
vt 0.375 0.828125
vt 0.375 0.828125
vt 0.375 0.828125
vt 0.59375 0.859375
vt 0.59375 0.859375
vt 0.59375 0.859375
vt 0.59375 0.859375
vt 0.375 0.828125
vt 0.375 0.828125
vt 0.375 0.828125
vt 0.375 0.828125
vt 0.59375 0.859375
vt 0.59375 0.859375
vt 0.59375 0.859375
vt 0.375 0.828125
vt 0.375 0.828125
vt 0.375 0.828125
vt 0.59375 0.859375
vt 0.59375 0.859375
vt 0.59375 0.859375
vt 0.59375 0.859375
vt 0.375 0.828125
vt 0.375 0.828125
vt 0.375 0.828125
vt 0.375 0.828125
vt 0.375 0.828125
vt 0.375 0.828125
vt 0.109375 0.609375
vt 0.109375 0.625
vt 0.109375 0.609375
vt 0.109375 0.609375
vt 0.109375 0.625
vt 0.09375 0.625
vt 0.09375 0.609375
vt 0.109375 0.609375
vt 0.09375 0.625
vt 0.109375 0.609375
vt 0.109375 0.609375
vt 0.09375 0.609375
vt 0.109375 0.609375
vt 0.109375 0.609375
vt 0.109375 0.609375
vt 0.109375 0.609375
vt 0.59375 0.859375
vt 0.59375 0.859375
vt 0.59375 0.859375
vt 0.59375 0.859375
vt 0.59375 0.859375
vt 0.59375 0.859375
vt 0.59375 0.859375
vt 0.59375 0.859375
vt 0.59375 0.859375
vt 0.59375 0.859375
vt 0.59375 0.859375
vt 0.59375 0.859375
vt 0.109375 0.609375
vt 0.109375 0.625
vt 0.109375 0.609375
vt 0.109375 0.609375
vt 0.109375 0.609375
vt 0.109375 0.609375
vt 0.109375 0.609375
vt 0.109375 0.609375
vt 0.59375 0.859375
vt 0.59375 0.859375
vt 0.59375 0.859375
vt 0.59375 0.859375
vt 0.59375 0.859375
vt 0.59375 0.859375
vt 0.59375 0.859375
vt 0.59375 0.859375
vt 0.59375 0.859375
vt 0.59375 0.859375
vt 0.59375 0.859375
vt 0.59375 0.859375
vt 0.59375 0.859375
vt 0.59375 0.859375
vt 0.59375 0.859375
vt 0.59375 0.859375
vt 0.59375 0.859375
vt 0.59375 0.859375
vt 0.59375 0.859375
vt 0.59375 0.859375
vt 0.59375 0.859375
vt 0.59375 0.859375
vt 0.59375 0.859375
vt 0.59375 0.859375
vt 0.59375 0.859375
vt 0.59375 0.859375
vt 0.59375 0.859375
vt 0.59375 0.859375
vt 0.59375 0.859375
vt 0.59375 0.859375
vt 0.59375 0.859375
vt 0.59375 0.859375
vt 0.59375 0.859375
vt 0.59375 0.859375
vt 0.59375 0.859375
vt 0.59375 0.859375
vt 0.59375 0.859375
vt 0.59375 0.859375
vt 0.59375 0.859375
vt 0.59375 0.859375
vt 0.59375 0.859375
vt 0.59375 0.859375
vt 0.59375 0.859375
vt 0.59375 0.859375
vt 0.59375 0.859375
vt 0.59375 0.859375
vt 0.59375 0.859375
vt 0.59375 0.859375
vt 0.59375 0.859375
vt 0.59375 0.859375
vt 0.59375 0.859375
vt 0.59375 0.859375
vt 0.59375 0.859375
vt 0.59375 0.859375
vt 0.59375 0.859375
vt 0.59375 0.859375
vt 0.59375 0.859375
vt 0.59375 0.859375
vt 0.59375 0.859375
vt 0.59375 0.859375
vt 0.59375 0.859375
vt 0.59375 0.859375
vt 0.59375 0.859375
vt 0.59375 0.859375
vt 0.59375 0.859375
vt 0.59375 0.859375
vt 0.375 0.828125
vt 0.375 0.828125
vt 0.375 0.828125
vt 0.375 0.828125
vt 0.59375 0.859375
vt 0.59375 0.859375
vt 0.59375 0.859375
vt 0.59375 0.859375
vt 0.375 0.828125
vt 0.375 0.828125
vt 0.375 0.828125
vt 0.375 0.828125
vt 0.375 0.828125
vt 0.375 0.828125
vt 0.375 0.828125
vt 0.375 0.828125
vt 0.375 0.828125
vt 0.375 0.828125
vt 0.375 0.828125
vt 0.59375 0.859375
vt 0.59375 0.859375
vt 0.59375 0.859375
vt 0.59375 0.859375
vt 0.59375 0.859375
vt 0.59375 0.859375
vt 0.59375 0.859375
vt 0.59375 0.859375
vt 0.59375 0.859375
vt 0.59375 0.859375
vt 0.59375 0.859375
vt 0.375 0.828125
vt 0.375 0.828125
vt 0.375 0.828125
vt 0.375 0.828125
vt 0.375 0.828125
vt 0.375 0.828125
vt 0.375 0.828125
vt 0.375 0.828125
vt 0.59375 0.859375
vt 0.59375 0.859375
vt 0.59375 0.859375
vt 0.59375 0.859375
vt 0.59375 0.859375
vt 0.59375 0.859375
vt 0.59375 0.859375
vt 0.59375 0.859375
vt 0.375 0.828125
vt 0.375 0.828125
vt 0.375 0.828125
vt 0.375 0.828125
vt 0.375 0.828125
vt 0.375 0.828125
vt 0.375 0.828125
vt 0.375 0.828125
vt 0.59375 0.859375
vt 0.59375 0.859375
vt 0.59375 0.859375
vt 0.59375 0.859375
vt 0.375 0.828125
vt 0.375 0.828125
vt 0.375 0.828125
vt 0.375 0.828125
vt 0.375 0.828125
vt 0.375 0.828125
vt 0.375 0.828125
vt 0.375 0.828125
vt 0.59375 0.859375
vt 0.59375 0.859375
vt 0.59375 0.859375
vt 0.59375 0.859375
vt 0.375 0.828125
vt 0.375 0.828125
vt 0.375 0.828125
vt 0.375 0.828125
vt 0.375 0.828125
vt 0.375 0.828125
vt 0.375 0.828125
vt 0.375 0.828125
vt 0.59375 0.859375
vt 0.59375 0.859375
vt 0.59375 0.859375
vt 0.59375 0.859375
vt 0.59375 0.859375
vt 0.59375 0.859375
vt 0.59375 0.859375
vt 0.59375 0.859375
vt 0.375 0.828125
vt 0.375 0.828125
vt 0.375 0.828125
vt 0.375 0.828125
vt 0.375 0.828125
vt 0.375 0.828125
vt 0.375 0.828125
vt 0.375 0.828125
vt 0.59375 0.859375
vt 0.59375 0.859375
vt 0.59375 0.859375
vt 0.59375 0.859375
vt 0.59375 0.859375
vt 0.59375 0.859375
vt 0.59375 0.859375
vt 0.59375 0.859375
vt 0.375 0.828125
vt 0.375 0.828125
vt 0.375 0.828125
vt 0.375 0.828125
vt 0.375 0.828125
vt 0.375 0.828125
vt 0.375 0.828125
vt 0.375 0.828125
vt 0.59375 0.859375
vt 0.59375 0.859375
vt 0.59375 0.859375
vt 0.59375 0.859375
vt 0.375 0.828125
vt 0.375 0.828125
vt 0.375 0.828125
vt 0.375 0.828125
vt 0.375 0.828125
vt 0.375 0.828125
vt 0.375 0.828125
vt 0.375 0.828125
vt 0.375 0.828125
vt 0.375 0.828125
vt 0.375 0.828125
vt 0.375 0.828125
vt 0.375 0.828125
vt 0.375 0.828125
vt 0.375 0.828125
vt 0.375 0.828125
vt 0.375 0.828125
vt 0.375 0.828125
vt 0.375 0.828125
vt 0.375 0.828125
vt 0.59375 0.859375
vt 0.59375 0.859375
vt 0.59375 0.859375
vt 0.59375 0.859375
vt 0.375 0.828125
vt 0.375 0.828125
vt 0.375 0.828125
vt 0.375 0.828125
vt 0.59375 0.859375
vt 0.59375 0.859375
vt 0.59375 0.859375
vt 0.59375 0.859375
vt 0.59375 0.859375
vt 0.59375 0.859375
vt 0.59375 0.859375
vt 0.375 0.828125
vt 0.375 0.828125
vt 0.375 0.828125
vt 0.375 0.828125
vt 0.59375 0.859375
vt 0.59375 0.859375
vt 0.59375 0.859375
vt 0.59375 0.859375
vt 0.375 0.828125
vt 0.375 0.828125
vt 0.375 0.828125
vt 0.59375 0.859375
vt 0.59375 0.859375
vt 0.59375 0.859375
vt 0.59375 0.859375
vt 0.375 0.828125
vt 0.375 0.828125
vt 0.375 0.828125
vt 0.375 0.828125
vt 0.375 0.828125
vt 0.375 0.828125
vt 0.375 0.828125
vt 0.375 0.828125
vt 0.59375 0.859375
vt 0.59375 0.859375
vt 0.59375 0.859375
vt 0.59375 0.859375
vt 0.59375 0.859375
vt 0.59375 0.859375
vt 0.59375 0.859375
vt 0.375 0.828125
vt 0.375 0.828125
vt 0.375 0.828125
vt 0.375 0.828125
vt 0.375 0.828125
vt 0.375 0.828125
vt 0.375 0.828125
vt 0.375 0.828125
vt 0.390625 0.59375
vt 0.375 0.59375
vt 0.375 0.578125
vt 0.390625 0.578125
vt 0.59375 0.859375
vt 0.59375 0.859375
vt 0.59375 0.859375
vt 0.59375 0.859375
vt 0.375 0.828125
vt 0.375 0.828125
vt 0.375 0.828125
vt 0.375 0.828125
vt 0.375 0.828125
vt 0.375 0.828125
vt 0.375 0.828125
vt 0.375 0.828125
vt 0.375 0.828125
vt 0.375 0.84375
vt 0.375 0.828125
vt 0.375 0.828125
vt 0.375 0.828125
vt 0.375 0.828125
vt 0.375 0.828125
vt 0.59375 0.859375
vt 0.59375 0.859375
vt 0.59375 0.859375
vt 0.59375 0.859375
vt 0.375 0.828125
vt 0.375 0.84375
vt 0.375 0.828125
vt 0.375 0.828125
vt 0.59375 0.859375
vt 0.59375 0.859375
vt 0.59375 0.859375
vt 0.375 0.828125
vt 0.375 0.828125
vt 0.375 0.828125
vt 0.375 0.828125
vt 0.375 0.828125
vt 0.375 0.828125
vt 0.375 0.828125
vt 0.375 0.828125
vt 0.59375 0.859375
vt 0.59375 0.859375
vt 0.59375 0.859375
vt 0.59375 0.859375
vt 0.375 0.828125
vt 0.375 0.828125
vt 0.375 0.828125
vt 0.375 0.828125
vt 0.375 0.828125
vt 0.375 0.828125
vt 0.375 0.828125
vt 0.375 0.828125
vt 0.59375 0.859375
vt 0.59375 0.859375
vt 0.59375 0.859375
vt 0.59375 0.859375
vt 0.59375 0.859375
vt 0.59375 0.859375
vt 0.59375 0.859375
vt 0.375 0.828125
vt 0.375 0.828125
vt 0.375 0.828125
vt 0.375 0.828125
vt 0.375 0.828125
vt 0.375 0.828125
vt 0.375 0.828125
vt 0.390625 0.84375
vt 0.375 0.828125
vt 0.375 0.828125
vt 0.375 0.84375
vt 0.375 0.828125
vt 0.375 0.828125
vt 0.375 0.828125
vt 0.375 0.828125
vt 0.375 0.828125
vt 0.375 0.828125
vt 0.375 0.828125
vt 0.59375 0.859375
vt 0.59375 0.859375
vt 0.59375 0.859375
vt 0.59375 0.859375
vt 0.375 0.828125
vt 0.375 0.828125
vt 0.375 0.828125
vt 0.375 0.828125
vt 0.59375 0.859375
vt 0.59375 0.859375
vt 0.59375 0.859375
vt 0.375 0.828125
vt 0.375 0.828125
vt 0.375 0.828125
vt 0.59375 0.859375
vt 0.59375 0.859375
vt 0.59375 0.859375
vt 0.59375 0.859375
vt 0.375 0.828125
vt 0.375 0.828125
vt 0.375 0.828125
vt 0.390625 0.84375
vt 0.375 0.84375
vt 0.375 0.828125
vt 0.109375 0.609375
vt 0.109375 0.609375
vt 0.109375 0.609375
vt 0.109375 0.609375
vt 0.109375 0.609375
vt 0.109375 0.609375
vt 0.109375 0.609375
vt 0.109375 0.609375
vt 0.109375 0.609375
vt 0.109375 0.609375
vt 0.109375 0.609375
vt 0.109375 0.609375
vt 0.109375 0.609375
vt 0.109375 0.609375
vt 0.109375 0.609375
vt 0.109375 0.609375
vt 0.59375 0.859375
vt 0.59375 0.859375
vt 0.59375 0.859375
vt 0.59375 0.859375
vt 0.59375 0.859375
vt 0.59375 0.859375
vt 0.59375 0.859375
vt 0.59375 0.859375
vt 0.59375 0.859375
vt 0.59375 0.859375
vt 0.59375 0.859375
vt 0.59375 0.859375
vt 0.109375 0.609375
vt 0.109375 0.609375
vt 0.109375 0.609375
vt 0.109375 0.609375
vt 0.109375 0.609375
vt 0.109375 0.609375
vt 0.109375 0.609375
vt 0.109375 0.609375
vt 0.59375 0.859375
vt 0.59375 0.859375
vt 0.59375 0.859375
vt 0.59375 0.859375
vt 0.59375 0.859375
vt 0.59375 0.859375
vt 0.59375 0.859375
vt 0.59375 0.859375
vt 0.59375 0.859375
vt 0.59375 0.859375
vt 0.59375 0.859375
vt 0.59375 0.859375
vt 0.59375 0.859375
vt 0.59375 0.859375
vt 0.59375 0.859375
vt 0.59375 0.859375
vn -0.9770114778542554 -0.04158454218298568 -0.2090916019176184
vn -0.9501028818602042 -0.06084687752224818 -0.30594471947841795
vn -0.9619111462619535 -0.22626270142953062 -0.1534018795152971
vn -0.9660983152664716 -0.23267295330201943 -0.11188092795915622
vn -0.9818024490300006 -0.07998949165606734 0.172237139732687
vn -0.9233688088246823 -0.11022914685344312 0.36774934136399157
vn -0.6637393271989211 0.21160263595616222 0.7174081334818608
vn -0.8502962370691584 -0.35121683614316157 0.3919732685217415
vn -0.7553377676018557 -0.6095430370800917 0.24067019504172715
vn -0.5683867888776851 -0.81798437664148 -0.08853258044224796
vn -0.4983459180536701 -0.8209455219934737 -0.27874683115348176
vn -0.5054016156442509 -0.8328087926316415 -0.22582896585604006
vn -0.49139101959897374 -0.24122909717974958 0.8368652152714462
vn 0.35405237058802874 -0.04661962564558603 -0.9340629151110018
vn -0.6763302873604373 -0.5209815646956044 0.520725985184404
vn 0.4118617403811979 0.8683434710299972 -0.2763141746811901
vn 0.5191331362073797 0.30653262043139645 -0.7978336540300563
vn 0.31628655956396723 0.6448844094012746 0.6957635451432895
vn -0.21610351240621756 -0.8735737074226044 -0.4360828472040854
vn -0.4108621117966391 -0.8700986758952105 0.27225102257917677
vn -0.5422351388203823 -0.36943929408573684 0.7546493637537061
vn 0.4078789795088503 0.8100975217335574 0.42116118453148965
vn -0.1347372561375082 0.4662968920415988 0.874307200176735
vn 0.07315784708096758 -0.22559522350509792 0.971470393034272
vn 0.22621580377473688 -0.9684215356588797 -0.10481478614511883
vn 0.27195823856435264 0.1982063528764706 -0.9416756119579518
vn -0.020291443987768918 0.9563104689091644 0.2916479802015187
vn 0.11406423043988538 -0.5607645889961678 0.8200807442332223
vn 0.26598888483235966 0.6581587103083189 -0.7043273565544137
vn 0.2493389927934666 0.6991088995831908 -0.6701319371559004
vn 0.20711009180790657 -0.9263732461020094 -0.31454414440225476
vn 0.2575551544720726 0.1271771621261208 -0.9578576678392325
vn 0.04562081260153831 0.9285689868737803 0.3683454602323429
vn 0.13315853910131364 -0.40353314329247225 0.9052236219459263
vn 0.22352516865458585 -0.9343396758532523 0.27757137659416253
vn 0.2504789380945033 0.32939723939250487 -0.9103613349937743
vn 0.11081916865251122 0.9888403697257766 -0.09956824322923453
vn 0.17159707156590046 -0.7095482658783481 0.683444001670244
vn -0.0032510436272033113 -0.8947106945123994 -0.44663430660941605
vn 0.19938380162508856 0.026913652553608062 -0.9795518133083881
vn 0.2378386903597263 0.9172394226565324 -0.31953810241140523
vn -0.41128928186194663 -0.8263484082217281 0.38469394959487
vn 0.19049203259074207 -0.9089114706762526 -0.3709349322894511
vn 0.5563709585934103 0.8262582409193925 -0.08802656273330696
vn 0.9356582010791324 -0.1493372225996409 -0.319753224689896
vn 0.9742807995029549 -0.09535430990523172 -0.2041677724382083
vn 0.9352925364688094 -0.3020053156432333 -0.18444690441688613
vn 0.6432576066525668 0.1614649443671267 -0.7484308406420278
vn -0.6754644710637709 -0.7277071361836512 -0.11912208979836181
vn 0.6256574631041503 -0.038886737388354915 -0.7791280770947534
vn -0.6415733653010387 -0.1546465501443806 0.7513108953454233
vn -0.5395960375628479 -0.0704577777139708 0.8389706894797234
vn 0.7156594685585213 0.6655653031840805 -0.21178846111159597
vn -0.7635271162579901 -0.6163098096996027 0.19284335924992907
vn 0.49555994932194264 -0.4925532745357114 0.7154100980362117
vn -0.2904034639576573 -0.9513483294071835 -0.1029669085461683
vn 0.4343780896310429 0.26876949285171325 -0.8596968273529445
vn 0.3049304318225012 0.9408639143627388 0.14762291962486146
vn -0.43172460021194015 -0.4581702401870823 0.7769774131715489
vn -0.6381979420453656 -0.7087275978024855 0.30068019369785337
vn 0.5553830526215174 0.5805756035392154 -0.5953836019205438
vn 0.46651036442714033 0.5657913304848121 -0.6798884101308706
vn -0.037510683302592385 -0.310604197481839 0.9497989161632242
vn -0.22093134368917489 -0.8473190837585032 -0.48294897419328536
vn 0.6534348937098876 0.6655561557095102 -0.36063533282184956
vn 0.4002572230835501 0.11435486532181525 -0.9092398584238787
vn 0.7770485571585702 -0.07695686094320307 -0.6247184816951974
vn 0.8735907195317159 0.2722741034407322 -0.4033684015185182
vn -0.9072123413933294 -0.35724125842316573 0.2221361089599489
vn 0.7829627972880685 0.15259339919731177 -0.6030626108326173
vn -0.7102558787950669 -0.6408566716901005 -0.29127188842614754
vn 0.48143312771706814 -0.5202195702346567 0.7054032479946705
vn 0.7727385675243674 0.6196457883347843 0.13752891790220886
vn -0.7523337720994022 -0.3765460724663222 0.5405616992248636
vn 0.8707841552589616 -0.4679310800323138 -0.15091540441495357
vn 0.7547892518682597 0.41959756667358816 -0.5042133152801069
vn -0.6328092488317008 -0.1211992654203993 0.7647634880501384
vn -0.55767535378594 -0.6303845332300609 -0.5400125369322875
vn 0.5528026364365334 0.10398649056281935 -0.8267986785966983
vn 0.5784838126585969 0.5086252843101586 0.6376964784694861
vn 0.9844844651016 -0.17154402939237545 0.03691861256120607
vn 1 0 0
vn 0.9843021515571682 0.10884241268055332 0.13893381029038862
vn -0.9144716367366796 -0.12047490467117687 0.38629965434699676
vn 0.9899689933410433 0.12349434300192796 -0.06863336994380981
vn -0.7944365412594145 0.05803473814712848 0.6045680698481958
vn 0.7784714507251808 0.32160242727989774 0.5390306848162827
vn -0.8687499527760384 -0.263994602611093 0.41902311313797724
vn 0.0823164465815636 -0.5915165203971927 0.8020799266403456
vn 0.8791475153510122 -0.4658827258652666 0.10026431066182491
vn 0.025777761029537244 -0.25633676078745576 0.9662437436306116
vn 0.374008552997407 -0.21011151426795893 0.9033109950935011
vn -0.41972830583362664 -0.16383061768521695 0.8927416636356309
vn -0.06733435801102915 -0.28634594599368707 0.9557573350198383
vn -0.3879960232078391 -0.06784227770121183 0.9191607646822257
vn -0.4042792545327456 -0.18097255542416246 0.89655296471413
vn 0.04337693413841837 -0.000666748791743643 0.9990585553563917
vn 0.033926326631553545 -0.2619818245399744 0.9644762972577374
vn -0.18614132806161515 -0.10104711935407026 0.9773130949996028
vn -0.4492360361408069 -0.10074934548047035 0.8877142294780187
vn 0.1304292203003762 -0.32694466172734454 0.9359996830447265
vn -0.2948582958345895 -0.010079054252568997 0.9554878324933791
vn -0.5179914542296973 -0.03474822119656954 0.8546797145531638
vn -0.49690736206656827 -0.07262354853768095 0.8647594426901853
vn 0.9787108896748508 -0.1307344309500424 -0.1582197933130706
vn 0.9501030132539406 -0.060850136675127606 -0.30594366323295674
vn 0.9526379797334016 -0.19071565099647983 -0.2368721596862998
vn 0.9592795613532041 -0.23147468317199976 -0.16187091839001408
vn 0.9898171870556747 -0.0983079072889526 0.10294411869387368
vn 0.9691830458786829 -0.21877747356999908 0.11322826784706745
vn 0.8652265538741335 0.09466114871887062 0.49236396841596264
vn 0.8523215412476534 -0.3522445914322636 0.3866157499791524
vn 0.8439710163355263 -0.5350563864260535 0.037783421368012673
vn 0.6955466393975412 -0.6881023439059577 -0.20671244939266198
vn 0.5558217121740677 -0.7675461936759396 -0.3192727123470857
vn 0.5054049691895799 -0.8328087103465566 -0.22582176398519482
vn 0.4167609014141702 -0.18326585061140643 0.8903504810197644
vn -0.3540507877633851 -0.0466195356835635 -0.9340635195621203
vn 0.5549267652969598 -0.5030301033694136 0.6625835798306582
vn -0.4118622584468521 0.8683425528490132 -0.2763162879359759
vn -0.5264624673783261 0.278192272813131 -0.803396744945478
vn -0.3162830133393166 0.6448852131153788 0.6957644122676397
vn 0.21610351240621756 -0.8735737074226044 -0.4360828472040854
vn 0.41086067647727076 -0.8700992932157254 0.27225121573674343
vn 0.5437121363191537 -0.3704844505831387 0.7530726290972022
vn -0.18056078142688894 0.7816266054008616 0.5970407473029266
vn -0.008395747549897872 0.6797579392440846 0.7333884751328684
vn -0.03397283422908215 -0.2768166238853294 0.9603220310266612
vn -0.22621580377473907 -0.9684215356588796 -0.10481478614511643
vn -0.24026177580514335 0.2896517647992729 -0.9264859061181805
vn -0.08776724336513872 0.9841013212108175 0.1544069317848395
vn -0.14915113576490055 -0.5022645101732633 0.8517536618767496
vn -0.23286200201773985 0.6789551080508023 -0.6962723958825408
vn -0.30364183045328824 0.6094614045038051 -0.7323649603983152
vn 0.0003982572665541307 -0.8687873043620654 -0.4951852796382842
vn -0.26128417104666574 0.12045209265858772 -0.9577170121359565
vn 0.022849326201326372 0.8870252883201601 0.46115512159433086
vn -0.10901952357168615 -0.4370665359278311 0.8927976179696318
vn -0.23368940519516923 -0.9279465252049112 0.29035238635089455
vn -0.23558379747682923 0.34855185468007743 -0.9072000214756804
vn -0.24691100716086775 0.9234143552759468 -0.2938381918898797
vn -0.19224765955280643 -0.6940878722789494 0.6937455318427277
vn -0.11071393879844776 -0.8021550094498613 -0.5867621021932369
vn -0.2233483523928237 -0.048591797759369476 -0.9735267590949535
vn -0.6823298097320643 0.6449500477803954 -0.3441881267839882
vn -0.13101886356632075 -0.9444982858759373 0.30125910005708756
vn -0.1904902066784125 -0.9089126989615637 -0.3709328602672215
vn -0.5563712047787118 0.8262580896083992 -0.08802642699646333
vn -0.9356583637231473 -0.1493344564815843 -0.3197540406347864
vn -0.9787423922519988 -0.17503040507514397 -0.10690035971906664
vn -0.9370022825559849 -0.33245876667550445 -0.10722821897931845
vn -0.6432572168129541 0.16146391338130478 -0.7484313981211951
vn 0.6859203376938101 -0.6847519000660109 -0.24622779228591818
vn -0.586058836418437 0.1987588476428 -0.7855125465195154
vn 0.6415714909219257 -0.15464686621370524 0.751312430887775
vn 0.6978067624531948 -0.2132571214385526 0.6838034238217393
vn -0.7725291798147806 0.5550238025169715 -0.30845947055375733
vn 0.7041926590494284 -0.6029493027625269 0.3749197744039092
vn -0.4955582815143439 -0.492559805853209 0.7154067565241464
vn 0.3037477231942513 -0.9402384208043674 -0.15391241891938998
vn -0.4662654161168841 0.1865580826920207 -0.864750046843379
vn -0.24617786236559785 0.9461995677330469 0.21000675727914167
vn 0.46433586115624986 -0.5062226826064176 0.7267260857152756
vn 0.63819807161566 -0.7087272850995903 0.300680655748615
vn -0.6731673690503633 0.4018783498434658 -0.620757186968387
vn -0.4665095018202094 0.5657927343202808 -0.6798878337651295
vn 0.028249610912861732 0.16259209026742547 0.9862888885441939
vn 0.21109065373235839 -0.8572441635504273 -0.4696521904192232
vn -0.6534344194905068 0.6655558866016463 -0.36063668869792087
vn -0.40025577043730237 0.11435519502997299 -0.9092404564257457
vn -0.8838547533556285 -0.4630247755966845 0.06639903729950707
vn -0.8735891689887066 0.2722774700417076 -0.40336948711238474
vn 0.9433633040564722 -0.3124431087298973 0.11155707224041772
vn -0.8584575085139236 0.022508532944186616 -0.5123905463811445
vn 0.7102543177882125 -0.6408597876135476 -0.29126883919005103
vn -0.4967302624871128 -0.49218001837925424 0.7148551432546885
vn -0.6012645621413665 0.7216904406136502 0.3429924696546946
vn 0.7363728425120392 -0.3606524404545613 0.5724376420230493
vn -0.826075618016931 -0.5578525405650705 0.07999760185806806
vn -0.7724866908428636 0.35528296845096075 -0.5263443025238478
vn 0.5385539385078739 -0.0678891489112308 0.8398516052123531
vn 0.5576739914554167 -0.6303858274927165 -0.5400124329591932
vn -0.5975301432067235 0.009181411690965292 -0.8017938822657067
vn -0.5784858474920798 0.5086247000157197 0.6376950986053518
vn -0.9829053098389091 -0.18288285985573657 -0.021237030429538215
vn -1 0 0
vn -0.9843022193425027 0.10884217954157817 0.13893351269604695
vn 0.7493766611899949 -0.11788901066748556 0.6515648861223087
vn -0.9054992671178128 0.4213093026883569 -0.05069071628369841
vn 0.7944412332349151 0.058035619823172485 0.6045618196412402
vn -0.7784704514408145 0.32160156017552644 0.5390326453251248
vn 0.8687485357031194 -0.2639959276539734 0.41902521630064726
vn -0.08234182750831609 -0.5915015946584361 0.8020883286516006
vn -0.87914946237119 -0.46588007880911503 0.10025953810615924
vn -0.0018012731886643718 -0.29124821839839105 0.9566458230163674
vn -0.04337285178853823 -0.0006662194568998856 0.9990587329478507
vn 0.4758058756922769 -0.2511826866830522 0.8429211271331317
vn 0.3879937354279603 -0.06784508608772218 0.919161523108103
vn 0.3879960232078391 -0.06784227770121183 0.9191607646822257
vn 0.404277467761887 -0.18097083515340864 0.8965541176548766
vn -0.04337459051576807 -0.0006677800708797304 0.9990586564198154
vn -0.03392584760349306 -0.2619822652037517 0.9644761944097406
vn -0.345336029910026 -0.16734505151082527 0.923438498320717
vn 0.44944127300420794 -0.12989416871855694 0.8838156182447061
vn 0.29089790702523444 -0.13459991534218244 0.9472387610725268
vn -0.13497882889710405 0.03974122279595844 0.9900511860304235
vn 0.5105835756004303 -0.13458514362536694 0.8492297989604575
vn 0.6113483596870737 -0.3285292246379898 0.7199456449390369
usemtl m_3f613b3f-0f57-e0ce-0290-6ac9631a1981
f 1/1/1 2/2/1 3/3/1 4/4/1
f 2/5/2 5/6/2 3/7/2
f 4/8/3 6/9/3 7/10/3 1/11/3
f 6/12/4 8/13/4 9/14/4 7/15/4
f 8/16/5 10/17/5 11/18/5 9/19/5
f 10/20/6 12/21/6 13/22/6 11/23/6
f 12/24/7 14/25/7 15/26/7 13/27/7
f 14/28/8 16/29/8 17/30/8 15/31/8
f 16/32/9 18/33/9 19/34/9 17/35/9
f 18/36/10 20/37/10 21/38/10 19/39/10
f 20/40/11 22/41/11 23/42/11 21/43/11
f 22/44/12 24/45/12 23/46/12
f 25/47/13 26/48/13 27/49/13 28/50/13
f 29/51/14 30/52/14 31/53/14 32/54/14
f 33/55/15 34/56/15 35/57/15 36/58/15
f 37/59/16 38/60/16 39/61/16 40/62/16
f 41/63/17 42/64/17 43/65/17 44/66/17
f 45/67/18 46/68/18 47/69/18
f 46/70/19 48/71/19 49/72/19
f 50/73/20 51/74/20 52/75/20 53/76/20
f 26/77/21 33/78/21 36/79/21 27/80/21
f 54/81/22 45/82/22 47/83/22 55/84/22
f 23/85/23 24/86/23 46/87/23 45/88/23
f 10/89/24 8/90/24 26/91/24 25/92/24
f 20/93/25 18/94/25 50/95/25 56/96/25
f 9/97/26 11/98/26 57/99/26 42/100/26
f 19/101/27 21/102/27 54/103/27 38/104/27
f 16/105/28 14/106/28 58/107/28 51/108/28
f 1/109/29 7/110/29 41/111/29 59/112/29
f 15/113/30 17/114/30 37/115/30 30/116/30
f 22/117/31 20/118/31 56/119/31 48/120/31
f 11/121/32 13/122/32 29/123/32 57/124/32
f 21/125/33 23/126/33 45/127/33 54/128/33
f 8/129/34 6/130/34 33/131/34 26/132/34
f 18/133/35 16/134/35 51/135/35 50/136/35
f 7/137/36 9/138/36 42/139/36 41/140/36
f 17/141/37 19/142/37 38/143/37 37/144/37
f 6/145/38 4/146/38 34/147/38 33/148/38
f 22/149/39 48/150/39 46/151/39 24/152/39
f 13/153/40 15/154/40 30/155/40 29/156/40
f 2/157/41 1/158/41 59/159/41 60/160/41
f 3/161/42 60/162/42 34/163/42 4/164/42
f 3/165/43 5/166/43 60/167/43
f 5/168/44 2/169/44 60/170/44
f 60/171/45 61/172/45 35/173/45
f 35/174/46 61/175/46 44/176/46 36/177/46
f 36/178/47 44/179/47 43/180/47 27/181/47
f 62/182/48 63/183/48 43/184/48
f 64/185/49 53/186/49 65/187/49 66/188/49
f 32/189/50 31/190/50 67/191/50 68/192/50
f 27/193/51 69/194/51 28/195/51
f 70/196/52 71/197/52 72/198/52 73/199/52
f 40/200/53 39/201/53 74/202/53 75/203/53
f 53/204/54 52/205/54 76/206/54 65/207/54
f 49/208/55 47/209/55 46/210/55
f 56/211/56 50/212/56 53/213/56 64/214/56
f 42/215/57 57/216/57 62/217/57 43/218/57
f 38/219/58 54/220/58 55/221/58 39/222/58
f 51/223/59 58/224/59 70/225/59 52/226/59
f 34/227/60 60/228/60 35/229/60
f 59/230/61 41/231/61 44/232/61 61/233/61
f 30/234/62 37/235/62 40/236/62 31/237/62
f 77/238/63 78/239/63 79/240/63 80/241/63
f 48/242/64 56/243/64 64/244/64 49/245/64
f 60/246/65 59/247/65 61/248/65
f 57/249/66 29/250/66 32/251/66 62/252/66
f 63/253/67 68/254/67 81/255/67 69/256/67
f 67/257/68 75/258/68 82/259/68 83/260/68
f 65/261/69 76/262/69 84/263/69 85/264/69
f 68/265/70 67/266/70 83/267/70 81/268/70
f 65/269/71 85/270/71 66/271/71
f 66/272/72 86/273/72 47/274/72 49/275/72
f 39/276/73 55/277/73 86/278/73 74/279/73
f 52/280/74 70/281/74 73/282/74 76/283/74
f 27/284/75 43/285/75 63/286/75 69/287/75
f 31/288/76 40/289/76 75/290/76 67/291/76
f 71/292/77 28/293/77 69/294/77 72/295/77
f 49/296/78 64/297/78 66/298/78
f 62/299/79 32/300/79 68/301/79 63/302/79
f 55/303/80 47/304/80 86/305/80
f 87/306/81 81/307/81 83/308/81 88/309/81
f 88/310/82 83/311/82 82/312/82 84/313/82
f 84/314/83 82/315/83 85/316/83
f 73/317/84 72/318/84 87/319/84 88/320/84
f 75/321/85 74/322/85 85/323/85 82/324/85
f 69/325/86 87/326/86 72/327/86
f 86/328/87 85/329/87 74/330/87
f 76/331/88 73/332/88 88/333/88 84/334/88
f 85/335/89 86/336/89 66/337/89
f 87/338/90 69/339/90 81/340/90
f 78/341/91 77/342/91 89/343/91 25/344/91
f 77/345/92 80/346/92 58/347/92 90/348/92
f 80/349/93 79/350/93 91/351/93 58/352/93
f 79/353/94 78/354/94 25/355/94 92/356/94
f 92/357/95 25/358/95 28/359/95
f 58/360/96 91/361/96 70/362/96
f 90/363/97 58/364/97 14/365/97
f 25/366/98 89/367/98 10/368/98
f 89/369/99 77/370/99 90/371/99 93/372/99
f 79/373/100 92/374/100 94/375/100 91/376/100
f 10/377/101 89/378/101 93/379/101 12/380/101
f 14/381/102 12/382/102 93/383/102 90/384/102
f 71/385/103 94/386/103 92/387/103 28/388/103
f 71/389/104 70/390/104 91/391/104 94/392/104
f 95/393/105 96/394/105 97/395/105 98/396/105
f 98/397/106 97/398/106 99/399/106
f 96/400/107 95/401/107 100/402/107 101/403/107
f 101/404/108 100/405/108 102/406/108 103/407/108
f 103/408/109 102/409/109 104/410/109 105/411/109
f 105/412/110 104/413/110 106/414/110 107/415/110
f 107/416/111 106/417/111 108/418/111 109/419/111
f 109/420/112 108/421/112 110/422/112 111/423/112
f 111/424/113 110/425/113 112/426/113 113/427/113
f 113/428/114 112/429/114 114/430/114 115/431/114
f 115/432/115 114/433/115 116/434/115 117/435/115
f 117/436/116 116/437/116 118/438/116
f 119/439/117 120/440/117 121/441/117 122/442/117
f 123/443/118 124/444/118 125/445/118 126/446/118
f 127/447/119 128/448/119 129/449/119 130/450/119
f 131/451/120 132/452/120 133/453/120 134/454/120
f 135/455/121 136/456/121 137/457/121 138/458/121
f 139/459/122 140/460/122 141/461/122
f 141/462/123 142/463/123 143/464/123
f 144/465/124 145/466/124 146/467/124 147/468/124
f 122/469/125 121/470/125 128/471/125 127/472/125
f 148/473/126 149/474/126 140/475/126 139/476/126
f 116/477/127 139/478/127 141/479/127 118/480/127
f 105/481/128 119/482/128 122/483/128 103/484/128
f 115/485/129 150/486/129 144/487/129 113/488/129
f 102/489/130 138/490/130 151/491/130 104/492/130
f 112/493/131 134/494/131 148/495/131 114/496/131
f 111/497/132 147/498/132 152/499/132 109/500/132
f 95/501/133 153/502/133 135/503/133 100/504/133
f 108/505/134 126/506/134 131/507/134 110/508/134
f 117/509/135 143/510/135 150/511/135 115/512/135
f 104/513/136 151/514/136 123/515/136 106/516/136
f 114/517/137 148/518/137 139/519/137 116/520/137
f 103/521/138 122/522/138 127/523/138 101/524/138
f 113/525/139 144/526/139 147/527/139 111/528/139
f 100/529/140 135/530/140 138/531/140 102/532/140
f 110/533/141 131/534/141 134/535/141 112/536/141
f 101/537/142 127/538/142 130/539/142 96/540/142
f 117/541/143 118/542/143 141/543/143 143/544/143
f 106/545/144 123/546/144 126/547/144 108/548/144
f 98/549/145 154/550/145 153/551/145 95/552/145
f 97/553/146 96/554/146 130/555/146 154/556/146
f 97/557/147 154/558/147 99/559/147
f 99/560/148 154/561/148 98/562/148
f 154/563/149 129/564/149 155/565/149
f 129/566/150 128/567/150 136/568/150 155/569/150
f 128/570/151 121/571/151 137/572/151 136/573/151
f 156/574/152 137/575/152 157/576/152
f 158/577/153 159/578/153 160/579/153 145/580/153
f 124/581/154 161/582/154 162/583/154 125/584/154
f 121/585/155 120/586/155 163/587/155
f 164/588/156 165/589/156 166/590/156 167/591/156
f 132/592/157 168/593/157 169/594/157 133/595/157
f 145/596/158 160/597/158 170/598/158 146/599/158
f 142/600/159 141/601/159 140/602/159
f 150/603/160 158/604/160 145/605/160 144/606/160
f 138/607/161 137/608/161 156/609/161 151/610/161
f 134/611/162 133/612/162 149/613/162 148/614/162
f 147/615/163 146/616/163 164/617/163 152/618/163
f 130/619/164 129/620/164 154/621/164
f 153/622/165 155/623/165 136/624/165 135/625/165
f 126/626/166 125/627/166 132/628/166 131/629/166
f 171/630/167 172/631/167 173/632/167 174/633/167
f 143/634/168 142/635/168 158/636/168 150/637/168
f 154/638/169 155/639/169 153/640/169
f 151/641/170 156/642/170 124/643/170 123/644/170
f 157/645/171 163/646/171 175/647/171 161/648/171
f 162/649/172 176/650/172 177/651/172 168/652/172
f 160/653/173 178/654/173 179/655/173 170/656/173
f 161/657/174 175/658/174 176/659/174 162/660/174
f 160/661/175 159/662/175 178/663/175
f 159/664/176 142/665/176 140/666/176 180/667/176
f 133/668/177 169/669/177 180/670/177 149/671/177
f 146/672/178 170/673/178 165/674/178 164/675/178
f 121/676/179 163/677/179 157/678/179 137/679/179
f 125/680/180 162/681/180 168/682/180 132/683/180
f 167/684/181 166/685/181 163/686/181 120/687/181
f 142/688/182 159/689/182 158/690/182
f 156/691/183 157/692/183 161/693/183 124/694/183
f 149/695/184 180/696/184 140/697/184
f 181/698/185 182/699/185 176/700/185 175/701/185
f 182/702/186 179/703/186 177/704/186 176/705/186
f 179/706/187 178/707/187 177/708/187
f 165/709/188 182/710/188 181/711/188 166/712/188
f 168/713/189 177/714/189 178/715/189 169/716/189
f 163/717/190 166/718/190 181/719/190
f 180/720/191 169/721/191 178/722/191
f 170/723/192 179/724/192 182/725/192 165/726/192
f 178/727/193 159/728/193 180/729/193
f 181/730/194 175/731/194 163/732/194
f 174/733/195 119/734/195 183/735/195 171/736/195
f 171/737/196 184/738/196 152/739/196 172/740/196
f 172/741/197 152/742/197 185/743/197 173/744/197
f 173/745/198 186/746/198 119/747/198 174/748/198
f 186/749/199 120/750/199 119/751/199
f 152/752/200 164/753/200 185/754/200
f 184/755/201 109/756/201 152/757/201
f 119/758/202 105/759/202 183/760/202
f 183/761/203 187/762/203 184/763/203 171/764/203
f 173/765/204 185/766/204 188/767/204 186/768/204
f 105/769/205 107/770/205 187/771/205 183/772/205
f 109/773/206 184/774/206 187/775/206 107/776/206
f 167/777/207 120/778/207 186/779/207 188/780/207
f 167/781/208 188/782/208 185/783/208 164/784/208