# Made in Blockbench 5.1.4
mtllib Mo_Snat_Tail.mtl

o Tail.001
v 0 0.806739 -7.786406
v 0.152222 3.038322 -1.937889
v 0.294683 3.549764 -1.174072
v 0.519026 3.531392 -1.038235
v 0.274297 2.931002 -1.86434
v 0.038166 1.289676 -7.629486
v 0.061381 0.969917 -7.130632
v 0.115148 0.928622 -7.152806
v 0.13211 1.058548 -7.532068
v 0.061381 1.033464 -4.671007
v 0.061381 1.392292 -3.945588
v 0.274297 1.150172 -3.970221
v 0.274297 0.92546 -4.665114
v 0.061381 0.126353 -5.274016
v 0.061381 0.159543 -5.857543
v 0.172235 0.262933 -5.814344
v 0.217149 0.307593 -5.191584
v 0.222025 1.48755 -1.637735
v 0.111554 1.037125 -2.364906
v 0.274297 1.116626 -2.528191
v 0.37023 1.467161 -1.925573
v 0.061381 0.803074 -5.898395
v 0.061381 0.85164 -5.297391
v 0.217149 0.760696 -5.212415
v 0.172235 0.716747 -5.845824
v 0.061381 2.419221 -2.759672
v 0.274297 2.304275 -2.575979
v 0.061381 0.206846 -6.494169
v 0.061381 0.446714 -7.228662
v 0.126167 0.533135 -7.244768
v 0.150834 0.336422 -6.467364
v 0.061381 0.529945 -3.283611
v 0.061381 0.254341 -3.912454
v 0.274297 0.443308 -3.979547
v 0.274297 0.700346 -3.302062
v 0.075309 1.285078 -8.148095
v 0.037988 1.678102 -8.312922
v 0.100843 1.673738 -8.222601
v 0.104047 1.350268 -8.080904
v 0.036193 2.434035 -8.224282
v 0.061381 2.571573 -8.067555
v 0.089485 2.51664 -8.006352
v 0.082772 2.349897 -8.153119
v 0.035739 2.032371 -8.009908
v 0.037648 1.766059 -7.942701
v 0.100843 1.739548 -8.043468
v 0.100843 2.053154 -8.074873
v 0.510729 2.269545 -0.795823
v 0.779804 2.535821 -0.551342
v 0.78463 3.236635 -0.594706
v 0.139259 0.763632 -6.403086
v 0.234535 0.628123 -5.795303
v 0.201559 0.657375 -6.437705
v 0.274297 1.623668 -3.394595
v 0.445118 1.939285 -2.553142
v 0.415744 1.32877 -3.407121
v 0.274297 0.34812 -4.531529
v 0.336597 0.518429 -4.527967
v 0.377467 0.688616 -3.971253
v 0.445118 2.571715 -1.818307
v 0.151224 0.800006 -7.181643
v 0.377467 1.006885 -3.995583
v 0.336597 0.783603 -4.577982
v 0.234535 0.403565 -5.818798
v 0.279449 0.450531 -5.182396
v 0.445118 1.544151 -2.508241
v 0.445118 2.028371 -1.773323
v 0.061381 0.146326 -4.644212
v 0.072002 0.851885 -7.722754
v 0.13211 0.86919 -7.642509
v 0.151224 0.649788 -7.230222
v 0.061381 1.790825 -3.407904
v 0.061381 0.861827 -6.4015
v 0.415744 1.017457 -3.351308
v 0.279449 0.680754 -5.179276
v 0.201559 0.467416 -6.455439
v 0.100306 1.341257 -7.804893
v 0.107074 1.132338 -7.885714
v 0.104047 1.501335 -7.928873
v 0.034674 1.605473 -7.875535
v 0.100843 2.041057 -8.207833
v 0.084847 2.303777 -8.04022
v 0.0754 2.472256 -7.961335
v 0.050904 2.284866 -7.954983
v 0.029281 2.05407 -8.346872
v 0.067167 2.428031 -7.921617
v 0 3.058958 -1.965742
v 0 3.59144 -1.346003
v 0 2.437613 -2.753818
v 0 1.805838 -3.425265
v 0 1.402268 -3.942202
v 0 1.046362 -4.682269
v 0 1.908838 -0.752941
v 0 0.8584 -5.307007
v 0 0.807126 -5.889446
v 0 0.86483 -6.393573
v 0 0.972919 -7.122705
v 0 1.312703 -7.624025
v 0 1.630871 -7.867117
v 0 1.791051 -7.933428
v 0 2.025972 -7.961212
v 0 2.309208 -7.910551
v 0 2.425783 -7.881563
v 0 1.400749 -1.61856
v 0 0.918807 -2.357524
v 0 0.522601 -3.278029
v 0 0.252139 -3.910739
v 0 0.147772 -4.654056
v 0 0.127799 -5.279426
v 0 0.161675 -5.871959
v 0 0.20976 -6.491062
v 0 0.44649 -7.225846
v 0 1.259286 -8.196163
v 0 1.697909 -8.377609
v 0 2.05469 -8.345699
v 0 2.454323 -8.226461
v 0 2.591861 -8.069735
v 0 2.638078 -8.091378
v 0.115743 2.604985 -8.056689
v 0.077161 2.584565 -8.049104
v 0 2.677222 -8.056123
v 0.115743 2.644129 -8.021433
v 0.163685 2.564236 -7.937687
v 0.163685 2.525092 -7.972942
v 0.109337 2.529173 -7.983041
v 0 2.45125 -7.819251
v 0.115743 2.484343 -7.85394
v 0.170215 2.486911 -7.776207
v 0 2.438243 -7.725193
v 0.115743 2.445199 -7.889196
v 0 2.412107 -7.854507
v 0.24072 2.604403 -7.899367
v 0 2.770564 -8.073542
v 0.170215 2.721896 -8.022528
v 0.19691 2.6783 -7.828871
v 0.139237 2.58219 -7.728126
v 0 2.54238 -7.686395
v 0 2.81422 -7.971347
v 0.139237 2.77441 -7.929617
v 0 2.916995 -7.935854
v 0.171241 2.868035 -7.884532
v 0.242171 2.749834 -7.760629
v 0.171241 2.631632 -7.636727
v 0 2.582672 -7.585405
v 0 2.951399 -7.833456
v 0.136063 2.912496 -7.792677
v 0.192422 2.818577 -7.694228
v 0.136063 2.724657 -7.595778
v 0 2.685755 -7.554999
v 0 3.056455 -7.776581
v 0.158241 3.011211 -7.729156
v 0.223786 2.901983 -7.614659
v 0.158241 2.792756 -7.500163
v 0 2.747512 -7.452737
v 0.117359 2.908642 -7.446109
v 0 2.875087 -7.410936
v 0 3.104214 -7.651115
v 0.117359 3.07066 -7.615942
v 0.165971 2.989651 -7.531025
v 0 3.211454 -7.590988
v 0.138939 3.17173 -7.549347
v 0.196489 3.075825 -7.448816
v 0.138939 2.979921 -7.348286
v 0 2.940196 -7.306645
v 0 3.228822 -7.444611
v 0.072524 3.208086 -7.422875
v 0.102565 3.158025 -7.370399
v 0.072524 3.107964 -7.317924
v 0 3.087228 -7.296187
v 0.100466 3.268191 -7.389759
v 0.142081 3.198843 -7.317066
v 0.100466 3.129495 -7.244373
v 0 3.296916 -7.41987
v 0 3.316702 -7.333203
v 0.065782 3.297894 -7.313488
v 0.09303 3.252486 -7.265891
v 0.065782 3.20708 -7.218294
v 0 3.10077 -7.214262
v 0 3.188272 -7.198578
v 0 3.309847 -7.274181
v 0.032239 3.300629 -7.264519
v 0.045592 3.278376 -7.241192
v 0.032239 3.256123 -7.217866
v 0 3.246905 -7.208203
v 0 3.278376 -7.241192
v 0.088473 2.451483 -7.916978
v -0.152222 3.038322 -1.937889
v -0.274297 2.931002 -1.86434
v -0.519026 3.531392 -1.038235
v -0.294683 3.549764 -1.174072
v -0.038166 1.289676 -7.629486
v -0.132109 1.058548 -7.532068
v -0.115148 0.928622 -7.152806
v -0.061381 0.969917 -7.130632
v -0.061381 1.033464 -4.671007
v -0.274297 0.92546 -4.665114
v -0.274297 1.150172 -3.970221
v -0.061381 1.392292 -3.945588
v -0.061381 0.126353 -5.274016
v -0.217149 0.307593 -5.191584
v -0.172235 0.262933 -5.814344
v -0.061381 0.159543 -5.857543
v -0.222025 1.48755 -1.637735
v -0.37023 1.467161 -1.925573
v -0.274297 1.116626 -2.528191
v -0.111554 1.037125 -2.364906
v -0.061381 0.803074 -5.898395
v -0.172235 0.716747 -5.845824
v -0.217149 0.760696 -5.212415
v -0.061381 0.85164 -5.297391
v -0.061381 2.419221 -2.759672
v -0.274297 2.304275 -2.575979
v -0.061381 0.206846 -6.494169
v -0.150834 0.336422 -6.467364
v -0.126167 0.533135 -7.244768
v -0.061381 0.446714 -7.228662
v -0.061381 0.529945 -3.283611
v -0.274297 0.700346 -3.302062
v -0.274297 0.443308 -3.979547
v -0.061381 0.254341 -3.912454
v -0.075309 1.285078 -8.148095
v -0.104046 1.350268 -8.080904
v -0.100843 1.673738 -8.222601
v -0.037988 1.678102 -8.312922
v -0.036193 2.434035 -8.224282
v -0.082771 2.349897 -8.153119
v -0.089484 2.51664 -8.006352
v -0.061381 2.571573 -8.067555
v -0.035739 2.032371 -8.009908
v -0.100843 2.053154 -8.074873
v -0.100843 1.739548 -8.043468
v -0.037648 1.766059 -7.942701
v -0.78463 3.236635 -0.594706
v -0.779804 2.535821 -0.551342
v -0.510729 2.269545 -0.795823
v -0.139259 0.763632 -6.403086
v -0.201559 0.657375 -6.437705
v -0.234535 0.628123 -5.795303
v -0.274297 1.623668 -3.394595
v -0.415744 1.32877 -3.407121
v -0.445118 1.939285 -2.553142
v -0.377467 0.688616 -3.971253
v -0.336597 0.518429 -4.527967
v -0.274297 0.34812 -4.531529
v -0.445118 2.571715 -1.818307
v -0.151223 0.800006 -7.181643
v -0.336597 0.783603 -4.577982
v -0.377467 1.006885 -3.995583
v -0.279449 0.450531 -5.182396
v -0.234535 0.403565 -5.818798
v -0.445118 2.028371 -1.773323
v -0.445118 1.544151 -2.508241
v -0.061381 0.146326 -4.644212
v -0.072002 0.851885 -7.722754
v -0.151223 0.649788 -7.230222
v -0.132109 0.86919 -7.642509
v -0.061381 1.790825 -3.407904
v -0.061381 0.861827 -6.4015
v -0.415744 1.017457 -3.351308
v -0.279449 0.680754 -5.179276
v -0.201559 0.467416 -6.455439
v -0.100306 1.341257 -7.804893
v -0.107074 1.132338 -7.885714
v -0.104046 1.501335 -7.928873
v -0.034674 1.605473 -7.875535
v -0.100843 2.041057 -8.207833
v -0.084847 2.303777 -8.04022
v -0.0754 2.472256 -7.961335
v -0.050904 2.284866 -7.954983
v -0.029281 2.05407 -8.346872
v -0.067167 2.428031 -7.921617
v -0.07716 2.584565 -8.049104
v -0.115743 2.604985 -8.056689
v -0.115742 2.644129 -8.021433
v -0.163685 2.525092 -7.972942
v -0.163685 2.564236 -7.937687
v -0.109337 2.529173 -7.983041
v -0.170214 2.486911 -7.776207
v -0.115742 2.484343 -7.85394
v -0.115743 2.445199 -7.889196
v -0.240719 2.604403 -7.899367
v -0.170214 2.721896 -8.022528
v -0.139236 2.58219 -7.728126
v -0.19691 2.6783 -7.828871
v -0.139236 2.77441 -7.929617
v -0.17124 2.868035 -7.884532
v -0.24217 2.749834 -7.760629
v -0.17124 2.631632 -7.636727
v -0.136063 2.912496 -7.792677
v -0.192422 2.818577 -7.694228
v -0.136063 2.724657 -7.595778
v -0.15824 3.011211 -7.729156
v -0.223786 2.901983 -7.614659
v -0.15824 2.792756 -7.500163
v -0.117359 2.908642 -7.446109
v -0.117359 3.07066 -7.615942
v -0.165971 2.989651 -7.531025
v -0.138939 3.17173 -7.549347
v -0.196489 3.075825 -7.448816
v -0.138939 2.979921 -7.348286
v -0.072524 3.208086 -7.422875
v -0.102565 3.158025 -7.370399
v -0.072524 3.107964 -7.317924
v -0.14208 3.198843 -7.317066
v -0.100466 3.268191 -7.389759
v -0.100466 3.129495 -7.244373
v -0.065782 3.297894 -7.313488
v -0.093029 3.252486 -7.265891
v -0.065782 3.20708 -7.218294
v -0.032238 3.300629 -7.264519
v -0.045592 3.278376 -7.241192
v -0.032238 3.256123 -7.217866
v -0.088473 2.451483 -7.916978
vt 0.375 0.859375
vt 0.375 0.859375
vt 0.375 0.859375
vt 0.375 0.859375
vt 0.375 0.859375
vt 0.375 0.859375
vt 0.375 0.859375
vt 0.375 0.859375
vt 0.375 0.859375
vt 0.375 0.859375
vt 0.375 0.859375
vt 0.375 0.859375
vt 0.578125 0.90625
vt 0.578125 0.890625
vt 0.578125 0.890625
vt 0.578125 0.890625
vt 0.578125 0.890625
vt 0.578125 0.890625
vt 0.578125 0.890625
vt 0.578125 0.890625
vt 0.375 0.859375
vt 0.375 0.859375
vt 0.375 0.859375
vt 0.375 0.859375
vt 0.375 0.859375
vt 0.375 0.859375
vt 0.375 0.859375
vt 0.375 0.859375
vt 0.578125 0.890625
vt 0.578125 0.890625
vt 0.578125 0.890625
vt 0.578125 0.890625
vt 0.578125 0.890625
vt 0.578125 0.890625
vt 0.578125 0.890625
vt 0.578125 0.890625
vt 0.375 0.859375
vt 0.375 0.859375
vt 0.375 0.859375
vt 0.375 0.859375
vt 0.375 0.859375
vt 0.375 0.859375
vt 0.375 0.859375
vt 0.375 0.859375
vt 0.375 0.859375
vt 0.375 0.859375
vt 0.375 0.859375
vt 0.375 0.859375
vt 0.375 0.859375
vt 0.375 0.859375
vt 0.375 0.859375
vt 0.375 0.859375
vt 0.34375 0.609375
vt 0.34375 0.609375
vt 0.34375 0.609375
vt 0.34375 0.609375
vt 0.34375 0.609375
vt 0.34375 0.609375
vt 0.34375 0.609375
vt 0.34375 0.609375
vt 0.375 0.859375
vt 0.375 0.859375
vt 0.375 0.859375
vt 0.375 0.859375
vt 0.34375 0.609375
vt 0.34375 0.609375
vt 0.34375 0.609375
vt 0.34375 0.609375
vt 0.359375 0.625
vt 0.34375 0.625
vt 0.34375 0.609375
vt 0.34375 0.609375
vt 0.34375 0.609375
vt 0.34375 0.609375
vt 0.34375 0.609375
vt 0.375 0.859375
vt 0.375 0.859375
vt 0.375 0.859375
vt 0.375 0.859375
vt 0.375 0.859375
vt 0.375 0.859375
vt 0.375 0.859375
vt 0.375 0.859375
vt 0.578125 0.890625
vt 0.5625 0.90625
vt 0.578125 0.890625
vt 0.578125 0.890625
vt 0.375 0.859375
vt 0.375 0.859375
vt 0.375 0.859375
vt 0.375 0.859375
vt 0.375 0.859375
vt 0.375 0.859375
vt 0.375 0.859375
vt 0.375 0.859375
vt 0.375 0.859375
vt 0.375 0.859375
vt 0.375 0.859375
vt 0.375 0.859375
vt 0.375 0.859375
vt 0.375 0.859375
vt 0.375 0.859375
vt 0.578125 0.890625
vt 0.578125 0.890625
vt 0.578125 0.890625
vt 0.578125 0.890625
vt 0.578125 0.890625
vt 0.578125 0.890625
vt 0.578125 0.890625
vt 0.578125 0.890625
vt 0.578125 0.890625
vt 0.578125 0.890625
vt 0.578125 0.890625
vt 0.375 0.859375
vt 0.375 0.859375
vt 0.375 0.859375
vt 0.375 0.859375
vt 0.5625 0.90625
vt 0.578125 0.90625
vt 0.578125 0.890625
vt 0.578125 0.890625
vt 0.375 0.859375
vt 0.375 0.859375
vt 0.375 0.859375
vt 0.375 0.859375
vt 0.375 0.859375
vt 0.375 0.859375
vt 0.375 0.859375
vt 0.375 0.859375
vt 0.375 0.859375
vt 0.375 0.859375
vt 0.375 0.859375
vt 0.375 0.859375
vt 0.375 0.859375
vt 0.375 0.859375
vt 0.375 0.859375
vt 0.375 0.859375
vt 0.375 0.859375
vt 0.375 0.859375
vt 0.375 0.859375
vt 0.375 0.859375
vt 0.375 0.859375
vt 0.375 0.859375
vt 0.375 0.859375
vt 0.375 0.859375
vt 0.375 0.859375
vt 0.375 0.859375
vt 0.375 0.859375
vt 0.375 0.859375
vt 0.375 0.859375
vt 0.375 0.859375
vt 0.375 0.859375
vt 0.375 0.859375
vt 0.375 0.859375
vt 0.375 0.859375
vt 0.375 0.859375
vt 0.375 0.859375
vt 0.375 0.859375
vt 0.375 0.859375
vt 0.375 0.859375
vt 0.375 0.859375
vt 0.375 0.859375
vt 0.375 0.859375
vt 0.375 0.859375
vt 0.375 0.859375
vt 0.375 0.859375
vt 0.375 0.859375
vt 0.375 0.859375
vt 0.375 0.859375
vt 0.375 0.859375
vt 0.375 0.859375
vt 0.375 0.859375
vt 0.375 0.859375
vt 0.375 0.859375
vt 0.375 0.859375
vt 0.375 0.859375
vt 0.375 0.859375
vt 0.375 0.859375
vt 0.375 0.859375
vt 0.375 0.859375
vt 0.375 0.859375
vt 0.34375 0.609375
vt 0.34375 0.609375
vt 0.34375 0.609375
vt 0.34375 0.609375
vt 0.375 0.859375
vt 0.375 0.859375
vt 0.375 0.859375
vt 0.375 0.859375
vt 0.34375 0.609375
vt 0.34375 0.609375
vt 0.34375 0.609375
vt 0.34375 0.609375
vt 0.34375 0.625
vt 0.34375 0.609375
vt 0.34375 0.609375
vt 0.34375 0.609375
vt 0.375 0.859375
vt 0.375 0.859375
vt 0.375 0.859375
vt 0.375 0.859375
vt 0.375 0.859375
vt 0.375 0.859375
vt 0.375 0.859375
vt 0.375 0.859375
vt 0.34375 0.609375
vt 0.34375 0.609375
vt 0.34375 0.609375
vt 0.34375 0.609375
vt 0.34375 0.609375
vt 0.34375 0.609375
vt 0.34375 0.609375
vt 0.34375 0.609375
vt 0.375 0.859375
vt 0.375 0.859375
vt 0.375 0.859375
vt 0.375 0.859375
vt 0.375 0.859375
vt 0.375 0.859375
vt 0.375 0.859375
vt 0.375 0.859375
vt 0.375 0.859375
vt 0.375 0.859375
vt 0.375 0.859375
vt 0.375 0.859375
vt 0.375 0.859375
vt 0.375 0.859375
vt 0.375 0.859375
vt 0.375 0.859375
vt 0.375 0.859375
vt 0.375 0.859375
vt 0.375 0.859375
vt 0.375 0.859375
vt 0.375 0.859375
vt 0.375 0.859375
vt 0.375 0.859375
vt 0.375 0.859375
vt 0.375 0.859375
vt 0.375 0.859375
vt 0.375 0.859375
vt 0.375 0.859375
vt 0.375 0.859375
vt 0.375 0.859375
vt 0.375 0.859375
vt 0.375 0.859375
vt 0.375 0.859375
vt 0.375 0.859375
vt 0.375 0.859375
vt 0.375 0.859375
vt 0.375 0.859375
vt 0.375 0.859375
vt 0.375 0.859375
vt 0.375 0.859375
vt 0.375 0.859375
vt 0.375 0.859375
vt 0.375 0.859375
vt 0.375 0.859375
vt 0.375 0.859375
vt 0.375 0.859375
vt 0.375 0.859375
vt 0.375 0.859375
vt 0.375 0.859375
vt 0.375 0.859375
vt 0.375 0.859375
vt 0.375 0.859375
vt 0.375 0.859375
vt 0.375 0.859375
vt 0.375 0.859375
vt 0.375 0.859375
vt 0.375 0.859375
vt 0.375 0.859375
vt 0.375 0.859375
vt 0.375 0.859375
vt 0.375 0.859375
vt 0.375 0.859375
vt 0.375 0.859375
vt 0.375 0.859375
vt 0.375 0.859375
vt 0.375 0.859375
vt 0.375 0.859375
vt 0.375 0.859375
vt 0.375 0.859375
vt 0.375 0.859375
vt 0.375 0.859375
vt 0.375 0.859375
vt 0.375 0.859375
vt 0.375 0.859375
vt 0.375 0.859375
vt 0.375 0.859375
vt 0.375 0.859375
vt 0.375 0.859375
vt 0.375 0.859375
vt 0.375 0.859375
vt 0.375 0.859375
vt 0.375 0.859375
vt 0.375 0.859375
vt 0.375 0.859375
vt 0.375 0.859375
vt 0.375 0.859375
vt 0.375 0.859375
vt 0.375 0.859375
vt 0.375 0.859375
vt 0.375 0.859375
vt 0.375 0.859375
vt 0.375 0.859375
vt 0.375 0.859375
vt 0.375 0.859375
vt 0.375 0.859375
vt 0.375 0.859375
vt 0.375 0.859375
vt 0.375 0.859375
vt 0.375 0.859375
vt 0.375 0.859375
vt 0.375 0.859375
vt 0.375 0.859375
vt 0.375 0.859375
vt 0.375 0.859375
vt 0.375 0.859375
vt 0.375 0.859375
vt 0.375 0.859375
vt 0.375 0.859375
vt 0.375 0.859375
vt 0.375 0.859375
vt 0.375 0.859375
vt 0.375 0.859375
vt 0.375 0.859375
vt 0.375 0.859375
vt 0.375 0.859375
vt 0.578125 0.890625
vt 0.578125 0.890625
vt 0.578125 0.890625
vt 0.578125 0.890625
vt 0.578125 0.890625
vt 0.578125 0.890625
vt 0.578125 0.890625
vt 0.578125 0.890625
vt 0.578125 0.890625
vt 0.578125 0.890625
vt 0.578125 0.890625
vt 0.578125 0.890625
vt 0.578125 0.890625
vt 0.578125 0.890625
vt 0.578125 0.890625
vt 0.578125 0.890625
vt 0.5625 0.90625
vt 0.578125 0.890625
vt 0.578125 0.890625
vt 0.5625 0.890625
vt 0.578125 0.90625
vt 0.5625 0.90625
vt 0.5625 0.890625
vt 0.578125 0.890625
vt 0.578125 0.890625
vt 0.578125 0.90625
vt 0.578125 0.890625
vt 0.578125 0.890625
vt 0.578125 0.890625
vt 0.578125 0.890625
vt 0.578125 0.890625
vt 0.578125 0.890625
vt 0.578125 0.890625
vt 0.578125 0.890625
vt 0.578125 0.890625
vt 0.578125 0.890625
vt 0.578125 0.890625
vt 0.578125 0.890625
vt 0.578125 0.890625
vt 0.578125 0.890625
vt 0.578125 0.890625
vt 0.578125 0.890625
vt 0.578125 0.890625
vt 0.578125 0.890625
vt 0.578125 0.890625
vt 0.578125 0.890625
vt 0.578125 0.890625
vt 0.578125 0.890625
vt 0.578125 0.890625
vt 0.578125 0.890625
vt 0.578125 0.890625
vt 0.578125 0.890625
vt 0.578125 0.890625
vt 0.578125 0.890625
vt 0.578125 0.890625
vt 0.578125 0.890625
vt 0.140625 0.609375
vt 0.140625 0.609375
vt 0.140625 0.609375
vt 0.140625 0.609375
vt 0.140625 0.609375
vt 0.140625 0.609375
vt 0.140625 0.609375
vt 0.140625 0.609375
vt 0.140625 0.609375
vt 0.140625 0.609375
vt 0.140625 0.609375
vt 0.140625 0.609375
vt 0.140625 0.609375
vt 0.140625 0.609375
vt 0.140625 0.609375
vt 0.140625 0.609375
vt 0.140625 0.609375
vt 0.140625 0.609375
vt 0.140625 0.609375
vt 0.140625 0.609375
vt 0.140625 0.609375
vt 0.140625 0.609375
vt 0.140625 0.609375
vt 0.140625 0.609375
vt 0.140625 0.609375
vt 0.140625 0.609375
vt 0.140625 0.609375
vt 0.140625 0.609375
vt 0.140625 0.609375
vt 0.140625 0.609375
vt 0.140625 0.609375
vt 0.140625 0.609375
vt 0.140625 0.609375
vt 0.140625 0.609375
vt 0.140625 0.609375
vt 0.140625 0.609375
vt 0.140625 0.609375
vt 0.140625 0.609375
vt 0.140625 0.609375
vt 0.140625 0.609375
vt 0.140625 0.609375
vt 0.140625 0.609375
vt 0.140625 0.609375
vt 0.140625 0.609375
vt 0.140625 0.609375
vt 0.140625 0.609375
vt 0.140625 0.609375
vt 0.140625 0.609375
vt 0.140625 0.609375
vt 0.140625 0.609375
vt 0.140625 0.609375
vt 0.140625 0.609375
vt 0.140625 0.609375
vt 0.140625 0.609375
vt 0.140625 0.609375
vt 0.140625 0.609375
vt 0.140625 0.609375
vt 0.140625 0.609375
vt 0.140625 0.609375
vt 0.140625 0.609375
vt 0.140625 0.609375
vt 0.140625 0.609375
vt 0.140625 0.609375
vt 0.140625 0.609375
vt 0.140625 0.609375
vt 0.140625 0.609375
vt 0.140625 0.609375
vt 0.140625 0.609375
vt 0.140625 0.609375
vt 0.140625 0.609375
vt 0.140625 0.609375
vt 0.140625 0.609375
vt 0.140625 0.609375
vt 0.140625 0.609375
vt 0.140625 0.609375
vt 0.140625 0.609375
vt 0.140625 0.609375
vt 0.140625 0.609375
vt 0.140625 0.609375
vt 0.140625 0.609375
vt 0.140625 0.609375
vt 0.140625 0.609375
vt 0.140625 0.609375
vt 0.140625 0.609375
vt 0.140625 0.609375
vt 0.140625 0.609375
vt 0.140625 0.609375
vt 0.140625 0.609375
vt 0.140625 0.609375
vt 0.140625 0.609375
vt 0.140625 0.609375
vt 0.140625 0.609375
vt 0.140625 0.609375
vt 0.140625 0.609375
vt 0.140625 0.609375
vt 0.140625 0.609375
vt 0.140625 0.609375
vt 0.140625 0.609375
vt 0.140625 0.609375
vt 0.140625 0.609375
vt 0.140625 0.609375
vt 0.140625 0.609375
vt 0.140625 0.609375
vt 0.140625 0.609375
vt 0.140625 0.609375
vt 0.140625 0.609375
vt 0.140625 0.609375
vt 0.140625 0.609375
vt 0.140625 0.609375
vt 0.140625 0.609375
vt 0.140625 0.609375
vt 0.140625 0.609375
vt 0.140625 0.609375
vt 0.140625 0.609375
vt 0.140625 0.609375
vt 0.140625 0.609375
vt 0.140625 0.609375
vt 0.140625 0.609375
vt 0.140625 0.609375
vt 0.140625 0.609375
vt 0.140625 0.609375
vt 0.140625 0.609375
vt 0.140625 0.609375
vt 0.140625 0.609375
vt 0.140625 0.609375
vt 0.140625 0.609375
vt 0.140625 0.609375
vt 0.140625 0.609375
vt 0.140625 0.609375
vt 0.140625 0.609375
vt 0.140625 0.609375
vt 0.140625 0.609375
vt 0.140625 0.609375
vt 0.140625 0.609375
vt 0.140625 0.609375
vt 0.140625 0.609375
vt 0.140625 0.609375
vt 0.140625 0.609375
vt 0.140625 0.609375
vt 0.140625 0.609375
vt 0.140625 0.609375
vt 0.140625 0.609375
vt 0.140625 0.609375
vt 0.140625 0.609375
vt 0.140625 0.609375
vt 0.140625 0.609375
vt 0.140625 0.609375
vt 0.140625 0.609375
vt 0.140625 0.609375
vt 0.140625 0.609375
vt 0.140625 0.609375
vt 0.140625 0.609375
vt 0.140625 0.609375
vt 0.140625 0.609375
vt 0.140625 0.609375
vt 0.140625 0.609375
vt 0.140625 0.609375
vt 0.140625 0.609375
vt 0.140625 0.609375
vt 0.140625 0.609375
vt 0.140625 0.609375
vt 0.140625 0.609375
vt 0.140625 0.609375
vt 0.140625 0.609375
vt 0.140625 0.609375
vt 0.140625 0.609375
vt 0.140625 0.609375
vt 0.140625 0.609375
vt 0.140625 0.609375
vt 0.140625 0.609375
vt 0.140625 0.609375
vt 0.140625 0.609375
vt 0.140625 0.609375
vt 0.140625 0.609375
vt 0.140625 0.609375
vt 0.140625 0.609375
vt 0.140625 0.609375
vt 0.140625 0.609375
vt 0.140625 0.609375
vt 0.140625 0.609375
vt 0.140625 0.609375
vt 0.140625 0.609375
vt 0.140625 0.609375
vt 0.140625 0.609375
vt 0.140625 0.609375
vt 0.140625 0.609375
vt 0.140625 0.609375
vt 0.140625 0.609375
vt 0.140625 0.609375
vt 0.140625 0.609375
vt 0.140625 0.609375
vt 0.140625 0.609375
vt 0.140625 0.609375
vt 0.140625 0.609375
vt 0.140625 0.609375
vt 0.140625 0.609375
vt 0.140625 0.609375
vt 0.140625 0.609375
vt 0.140625 0.609375
vt 0.140625 0.609375
vt 0.140625 0.609375
vt 0.140625 0.609375
vt 0.140625 0.609375
vt 0.140625 0.609375
vt 0.140625 0.609375
vt 0.140625 0.609375
vt 0.140625 0.609375
vt 0.140625 0.609375
vt 0.375 0.859375
vt 0.375 0.859375
vt 0.375 0.859375
vt 0.375 0.859375
vt 0.375 0.859375
vt 0.375 0.859375
vt 0.375 0.859375
vt 0.375 0.859375
vt 0.140625 0.609375
vt 0.140625 0.609375
vt 0.140625 0.609375
vt 0.140625 0.609375
vt 0.140625 0.609375
vt 0.140625 0.609375
vt 0.140625 0.609375
vt 0.140625 0.609375
vt 0.375 0.859375
vt 0.375 0.859375
vt 0.375 0.859375
vt 0.375 0.859375
vt 0.375 0.859375
vt 0.375 0.859375
vt 0.578125 0.890625
vt 0.578125 0.890625
vt 0.578125 0.890625
vt 0.140625 0.609375
vt 0.140625 0.609375
vt 0.140625 0.609375
vt 0.140625 0.609375
vt 0.578125 0.890625
vt 0.578125 0.890625
vt 0.578125 0.890625
vt 0.578125 0.890625
vt 0.578125 0.890625
vt 0.578125 0.890625
vt 0.578125 0.890625
vt 0.375 0.859375
vt 0.375 0.859375
vt 0.375 0.859375
vt 0.375 0.859375
vt 0.375 0.859375
vt 0.375 0.859375
vt 0.375 0.859375
vt 0.375 0.859375
vt 0.375 0.859375
vt 0.375 0.859375
vt 0.375 0.859375
vt 0.375 0.859375
vt 0.375 0.859375
vt 0.375 0.859375
vt 0.375 0.859375
vt 0.375 0.859375
vt 0.375 0.859375
vt 0.375 0.859375
vt 0.375 0.859375
vt 0.578125 0.890625
vt 0.578125 0.890625
vt 0.578125 0.890625
vt 0.578125 0.890625
vt 0.578125 0.890625
vt 0.578125 0.890625
vt 0.578125 0.890625
vt 0.578125 0.890625
vt 0.375 0.859375
vt 0.375 0.859375
vt 0.375 0.859375
vt 0.375 0.859375
vt 0.375 0.859375
vt 0.375 0.859375
vt 0.375 0.859375
vt 0.375 0.859375
vt 0.578125 0.890625
vt 0.578125 0.890625
vt 0.578125 0.890625
vt 0.578125 0.890625
vt 0.578125 0.890625
vt 0.578125 0.890625
vt 0.578125 0.890625
vt 0.578125 0.890625
vt 0.375 0.859375
vt 0.375 0.859375
vt 0.375 0.859375
vt 0.375 0.859375
vt 0.375 0.859375
vt 0.375 0.859375
vt 0.375 0.859375
vt 0.375 0.859375
vt 0.375 0.859375
vt 0.375 0.859375
vt 0.375 0.859375
vt 0.375 0.859375
vt 0.375 0.859375
vt 0.375 0.859375
vt 0.375 0.859375
vt 0.375 0.859375
vt 0.34375 0.609375
vt 0.34375 0.609375
vt 0.34375 0.609375
vt 0.34375 0.609375
vt 0.34375 0.609375
vt 0.34375 0.609375
vt 0.34375 0.609375
vt 0.34375 0.609375
vt 0.375 0.859375
vt 0.375 0.859375
vt 0.375 0.859375
vt 0.375 0.859375
vt 0.34375 0.609375
vt 0.34375 0.609375
vt 0.34375 0.609375
vt 0.34375 0.609375
vt 0.34375 0.609375
vt 0.34375 0.609375
vt 0.34375 0.609375
vt 0.34375 0.609375
vt 0.34375 0.609375
vt 0.34375 0.609375
vt 0.34375 0.609375
vt 0.375 0.859375
vt 0.375 0.859375
vt 0.375 0.859375
vt 0.375 0.859375
vt 0.375 0.859375
vt 0.375 0.859375
vt 0.375 0.859375
vt 0.375 0.859375
vt 0.578125 0.890625
vt 0.578125 0.890625
vt 0.578125 0.890625
vt 0.578125 0.890625
vt 0.390625 0.875
vt 0.375 0.859375
vt 0.375 0.859375
vt 0.375 0.875
vt 0.375 0.859375
vt 0.375 0.859375
vt 0.375 0.859375
vt 0.375 0.859375
vt 0.375 0.859375
vt 0.375 0.859375
vt 0.375 0.859375
vt 0.375 0.859375
vt 0.375 0.859375
vt 0.375 0.859375
vt 0.375 0.859375
vt 0.578125 0.890625
vt 0.578125 0.890625
vt 0.578125 0.890625
vt 0.578125 0.890625
vt 0.578125 0.890625
vt 0.578125 0.890625
vt 0.578125 0.890625
vt 0.578125 0.890625
vt 0.578125 0.890625
vt 0.578125 0.890625
vt 0.578125 0.890625
vt 0.375 0.859375
vt 0.375 0.859375
vt 0.375 0.859375
vt 0.375 0.859375
vt 0.578125 0.890625
vt 0.578125 0.890625
vt 0.578125 0.890625
vt 0.578125 0.890625
vt 0.375 0.859375
vt 0.375 0.859375
vt 0.375 0.859375
vt 0.375 0.859375
vt 0.375 0.859375
vt 0.375 0.859375
vt 0.375 0.859375
vt 0.375 0.859375
vt 0.375 0.859375
vt 0.375 0.859375
vt 0.375 0.859375
vt 0.375 0.859375
vt 0.375 0.859375
vt 0.375 0.859375
vt 0.375 0.859375
vt 0.375 0.859375
vt 0.375 0.859375
vt 0.375 0.859375
vt 0.375 0.859375
vt 0.375 0.859375
vt 0.375 0.859375
vt 0.375 0.859375
vt 0.375 0.859375
vt 0.375 0.859375
vt 0.375 0.859375
vt 0.375 0.859375
vt 0.375 0.859375
vt 0.375 0.859375
vt 0.375 0.859375
vt 0.375 0.859375
vt 0.375 0.859375
vt 0.375 0.859375
vt 0.375 0.859375
vt 0.375 0.859375
vt 0.375 0.859375
vt 0.375 0.859375
vt 0.375 0.859375
vt 0.375 0.859375
vt 0.375 0.859375
vt 0.375 0.859375
vt 0.375 0.859375
vt 0.375 0.859375
vt 0.375 0.859375
vt 0.375 0.859375
vt 0.375 0.859375
vt 0.375 0.859375
vt 0.375 0.875
vt 0.375 0.859375
vt 0.375 0.859375
vt 0.375 0.859375
vt 0.375 0.859375
vt 0.375 0.859375
vt 0.375 0.859375
vt 0.375 0.859375
vt 0.375 0.859375
vt 0.375 0.859375
vt 0.375 0.859375
vt 0.375 0.859375
vt 0.375 0.859375
vt 0.375 0.859375
vt 0.34375 0.609375
vt 0.34375 0.609375
vt 0.34375 0.609375
vt 0.34375 0.609375
vt 0.375 0.859375
vt 0.375 0.859375
vt 0.375 0.859375
vt 0.375 0.859375
vt 0.34375 0.609375
vt 0.34375 0.609375
vt 0.34375 0.609375
vt 0.34375 0.609375
vt 0.34375 0.609375
vt 0.34375 0.609375
vt 0.34375 0.609375
vt 0.34375 0.609375
vt 0.375 0.859375
vt 0.375 0.859375
vt 0.375 0.859375
vt 0.375 0.859375
vt 0.375 0.859375
vt 0.375 0.859375
vt 0.375 0.859375
vt 0.375 0.859375
vt 0.34375 0.609375
vt 0.34375 0.609375
vt 0.34375 0.609375
vt 0.34375 0.609375
vt 0.34375 0.609375
vt 0.34375 0.609375
vt 0.34375 0.609375
vt 0.34375 0.609375
vt 0.375 0.859375
vt 0.375 0.859375
vt 0.375 0.875
vt 0.375 0.859375
vt 0.375 0.859375
vt 0.375 0.859375
vt 0.375 0.859375
vt 0.375 0.859375
vt 0.375 0.859375
vt 0.375 0.859375
vt 0.375 0.859375
vt 0.375 0.859375
vt 0.375 0.859375
vt 0.375 0.859375
vt 0.375 0.859375
vt 0.375 0.859375
vt 0.375 0.859375
vt 0.375 0.859375
vt 0.375 0.859375
vt 0.375 0.859375
vt 0.375 0.859375
vt 0.375 0.859375
vt 0.375 0.859375
vt 0.375 0.859375
vt 0.375 0.859375
vt 0.375 0.859375
vt 0.375 0.859375
vt 0.375 0.859375
vt 0.375 0.859375
vt 0.375 0.859375
vt 0.375 0.859375
vt 0.375 0.859375
vt 0.375 0.859375
vt 0.375 0.859375
vt 0.375 0.859375
vt 0.375 0.859375
vt 0.375 0.859375
vt 0.375 0.859375
vt 0.375 0.859375
vt 0.375 0.859375
vt 0.375 0.859375
vt 0.375 0.859375
vt 0.375 0.859375
vt 0.375 0.859375
vt 0.375 0.859375
vt 0.375 0.859375
vt 0.375 0.859375
vt 0.375 0.859375
vt 0.375 0.859375
vt 0.375 0.859375
vt 0.375 0.859375
vt 0.375 0.859375
vt 0.375 0.859375
vt 0.375 0.859375
vt 0.375 0.859375
vt 0.375 0.859375
vt 0.375 0.859375
vt 0.375 0.859375
vt 0.375 0.859375
vt 0.375 0.859375
vt 0.375 0.859375
vt 0.375 0.859375
vt 0.375 0.859375
vt 0.375 0.859375
vt 0.375 0.859375
vt 0.375 0.859375
vt 0.375 0.859375
vt 0.375 0.859375
vt 0.375 0.859375
vt 0.375 0.859375
vt 0.375 0.859375
vt 0.375 0.859375
vt 0.375 0.859375
vt 0.375 0.859375
vt 0.375 0.859375
vt 0.375 0.859375
vt 0.375 0.859375
vt 0.375 0.859375
vt 0.375 0.859375
vt 0.375 0.859375
vt 0.375 0.859375
vt 0.375 0.859375
vt 0.375 0.859375
vt 0.375 0.859375
vt 0.375 0.859375
vt 0.375 0.859375
vt 0.375 0.859375
vt 0.375 0.859375
vt 0.375 0.859375
vt 0.375 0.859375
vt 0.375 0.859375
vt 0.375 0.859375
vt 0.375 0.859375
vt 0.375 0.859375
vt 0.375 0.859375
vt 0.375 0.859375
vt 0.375 0.859375
vt 0.375 0.859375
vt 0.375 0.859375
vt 0.375 0.859375
vt 0.375 0.859375
vt 0.375 0.859375
vt 0.375 0.859375
vt 0.375 0.859375
vt 0.375 0.859375
vt 0.375 0.859375
vt 0.375 0.859375
vt 0.375 0.859375
vt 0.375 0.859375
vt 0.375 0.859375
vt 0.375 0.859375
vt 0.375 0.859375
vt 0.375 0.859375
vt 0.375 0.859375
vt 0.375 0.859375
vt 0.578125 0.890625
vt 0.578125 0.890625
vt 0.578125 0.890625
vt 0.578125 0.890625
vt 0.578125 0.890625
vt 0.578125 0.890625
vt 0.578125 0.890625
vt 0.578125 0.890625
vt 0.578125 0.890625
vt 0.578125 0.890625
vt 0.578125 0.890625
vt 0.578125 0.890625
vt 0.578125 0.890625
vt 0.578125 0.890625
vt 0.578125 0.890625
vt 0.578125 0.890625
vt 0.578125 0.890625
vt 0.5625 0.890625
vt 0.578125 0.890625
vt 0.578125 0.890625
vt 0.578125 0.890625
vt 0.578125 0.890625
vt 0.5625 0.890625
vt 0.578125 0.890625
vt 0.578125 0.890625
vt 0.578125 0.890625
vt 0.578125 0.890625
vt 0.578125 0.890625
vt 0.578125 0.890625
vt 0.578125 0.890625
vt 0.578125 0.890625
vt 0.578125 0.890625
vt 0.578125 0.890625
vt 0.578125 0.890625
vt 0.578125 0.890625
vt 0.578125 0.890625
vt 0.578125 0.890625
vt 0.578125 0.890625
vt 0.578125 0.890625
vt 0.578125 0.890625
vt 0.578125 0.890625
vt 0.578125 0.890625
vt 0.578125 0.890625
vt 0.578125 0.890625
vt 0.578125 0.890625
vt 0.578125 0.890625
vt 0.578125 0.890625
vt 0.578125 0.890625
vt 0.578125 0.890625
vt 0.578125 0.890625
vt 0.578125 0.890625
vt 0.578125 0.890625
vt 0.578125 0.890625
vt 0.578125 0.890625
vt 0.578125 0.890625
vt 0.578125 0.890625
vt 0.140625 0.609375
vt 0.140625 0.609375
vt 0.140625 0.609375
vt 0.140625 0.609375
vt 0.140625 0.609375
vt 0.140625 0.609375
vt 0.140625 0.609375
vt 0.140625 0.609375
vt 0.140625 0.609375
vt 0.140625 0.625
vt 0.140625 0.609375
vt 0.140625 0.609375
vt 0.140625 0.609375
vt 0.140625 0.609375
vt 0.140625 0.609375
vt 0.140625 0.625
vt 0.140625 0.609375
vt 0.140625 0.609375
vt 0.140625 0.609375
vt 0.125 0.609375
vt 0.140625 0.625
vt 0.125 0.625
vt 0.125 0.609375
vt 0.140625 0.609375
vt 0.125 0.625
vt 0.140625 0.609375
vt 0.140625 0.609375
vt 0.125 0.609375
vt 0.125 0.609375
vt 0.140625 0.609375
vt 0.140625 0.609375
vt 0.140625 0.609375
vt 0.140625 0.609375
vt 0.140625 0.609375
vt 0.140625 0.609375
vt 0.140625 0.609375
vt 0.140625 0.609375
vt 0.140625 0.609375
vt 0.140625 0.609375
vt 0.140625 0.609375
vt 0.140625 0.609375
vt 0.140625 0.609375
vt 0.140625 0.609375
vt 0.140625 0.609375
vt 0.140625 0.609375
vt 0.140625 0.609375
vt 0.140625 0.609375
vt 0.140625 0.609375
vt 0.140625 0.609375
vt 0.140625 0.609375
vt 0.140625 0.609375
vt 0.140625 0.609375
vt 0.140625 0.609375
vt 0.140625 0.609375
vt 0.140625 0.609375
vt 0.140625 0.609375
vt 0.140625 0.609375
vt 0.140625 0.609375
vt 0.140625 0.609375
vt 0.140625 0.609375
vt 0.140625 0.609375
vt 0.140625 0.609375
vt 0.140625 0.609375
vt 0.140625 0.609375
vt 0.140625 0.609375
vt 0.140625 0.609375
vt 0.140625 0.609375
vt 0.140625 0.609375
vt 0.140625 0.609375
vt 0.140625 0.609375
vt 0.140625 0.609375
vt 0.140625 0.609375
vt 0.140625 0.609375
vt 0.140625 0.609375
vt 0.140625 0.609375
vt 0.140625 0.609375
vt 0.140625 0.609375
vt 0.140625 0.609375
vt 0.140625 0.609375
vt 0.140625 0.609375
vt 0.140625 0.609375
vt 0.140625 0.609375
vt 0.140625 0.609375
vt 0.140625 0.609375
vt 0.140625 0.609375
vt 0.140625 0.609375
vt 0.140625 0.609375
vt 0.140625 0.609375
vt 0.140625 0.609375
vt 0.140625 0.609375
vt 0.140625 0.609375
vt 0.140625 0.609375
vt 0.140625 0.609375
vt 0.140625 0.609375
vt 0.140625 0.609375
vt 0.140625 0.609375
vt 0.140625 0.609375
vt 0.140625 0.609375
vt 0.140625 0.609375
vt 0.140625 0.609375
vt 0.140625 0.609375
vt 0.140625 0.609375
vt 0.140625 0.609375
vt 0.140625 0.609375
vt 0.140625 0.609375
vt 0.140625 0.609375
vt 0.140625 0.609375
vt 0.140625 0.609375
vt 0.140625 0.609375
vt 0.140625 0.609375
vt 0.140625 0.609375
vt 0.140625 0.609375
vt 0.140625 0.609375
vt 0.140625 0.609375
vt 0.140625 0.609375
vt 0.140625 0.609375
vt 0.140625 0.609375
vt 0.140625 0.609375
vt 0.140625 0.609375
vt 0.140625 0.609375
vt 0.140625 0.609375
vt 0.140625 0.609375
vt 0.140625 0.609375
vt 0.140625 0.609375
vt 0.140625 0.609375
vt 0.140625 0.609375
vt 0.140625 0.609375
vt 0.140625 0.609375
vt 0.140625 0.609375
vt 0.140625 0.609375
vt 0.140625 0.609375
vt 0.140625 0.609375
vt 0.140625 0.609375
vt 0.140625 0.609375
vt 0.140625 0.609375
vt 0.140625 0.609375
vt 0.140625 0.609375
vt 0.140625 0.609375
vt 0.140625 0.609375
vt 0.140625 0.609375
vt 0.140625 0.609375
vt 0.140625 0.609375
vt 0.140625 0.609375
vt 0.140625 0.609375
vt 0.140625 0.609375
vt 0.140625 0.609375
vt 0.140625 0.609375
vt 0.140625 0.609375
vt 0.140625 0.609375
vt 0.140625 0.609375
vt 0.140625 0.609375
vt 0.140625 0.609375
vt 0.140625 0.609375
vt 0.140625 0.609375
vt 0.140625 0.609375
vt 0.140625 0.609375
vt 0.140625 0.609375
vt 0.140625 0.609375
vt 0.140625 0.609375
vt 0.140625 0.609375
vt 0.140625 0.609375
vt 0.140625 0.609375
vt 0.140625 0.609375
vt 0.140625 0.609375
vt 0.140625 0.609375
vt 0.140625 0.609375
vt 0.140625 0.609375
vt 0.140625 0.609375
vt 0.140625 0.609375
vt 0.140625 0.609375
vt 0.140625 0.609375
vt 0.140625 0.609375
vt 0.140625 0.609375
vt 0.140625 0.609375
vt 0.140625 0.609375
vt 0.140625 0.609375
vt 0.140625 0.609375
vt 0.140625 0.609375
vt 0.140625 0.609375
vt 0.140625 0.609375
vt 0.140625 0.609375
vt 0.140625 0.609375
vt 0.140625 0.609375
vt 0.140625 0.609375
vt 0.140625 0.609375
vt 0.140625 0.609375
vt 0.140625 0.609375
vt 0.140625 0.609375
vt 0.140625 0.609375
vt 0.140625 0.609375
vt 0.140625 0.609375
vt 0.140625 0.609375
vt 0.140625 0.609375
vt 0.140625 0.609375
vt 0.140625 0.609375
vt 0.140625 0.609375
vt 0.140625 0.609375
vt 0.140625 0.609375
vt 0.140625 0.609375
vt 0.140625 0.609375
vt 0.140625 0.609375
vt 0.140625 0.609375
vt 0.140625 0.609375
vt 0.140625 0.609375
vt 0.140625 0.609375
vt 0.140625 0.609375
vt 0.140625 0.609375
vt 0.140625 0.609375
vt 0.375 0.859375
vt 0.375 0.859375
vt 0.375 0.859375
vt 0.375 0.859375
vt 0.375 0.859375
vt 0.375 0.859375
vt 0.375 0.859375
vt 0.375 0.859375
vt 0.140625 0.625
vt 0.140625 0.609375
vt 0.140625 0.609375
vt 0.125 0.625
vt 0.125 0.625
vt 0.140625 0.609375
vt 0.140625 0.609375
vt 0.140625 0.609375
vt 0.375 0.859375
vt 0.375 0.859375
vt 0.375 0.859375
vt 0.375 0.859375
vt 0.375 0.859375
vt 0.375 0.859375
vt 0.578125 0.890625
vt 0.578125 0.890625
vt 0.578125 0.890625
vt 0.140625 0.609375
vt 0.140625 0.609375
vt 0.140625 0.609375
vt 0.140625 0.609375
vt 0.578125 0.890625
vt 0.578125 0.890625
vt 0.578125 0.890625
vt 0.578125 0.890625
vt 0.578125 0.890625
vt 0.578125 0.890625
vt 0.578125 0.890625
vt 0.375 0.859375
vt 0.390625 0.875
vt 0.375 0.859375
vt 0.375 0.859375
vt 0.390625 0.875
vt 0.375 0.875
vt 0.375 0.859375
vn 0.3987720191891063 0.7258860993123278 -0.5604197065922794
vn 0.6567721240368248 0.6483791734073937 0.385038731272196
vn 0.6955118027392069 0.6440315538195754 -0.31856975678052346
vn 0.6900010575974432 -0.7226403827522253 -0.04110252705281221
vn 0.6566481114310653 -0.681751495131964 0.32253396199369
vn 0.5305386847775108 0.8449066137481221 -0.06827531031955082
vn 0.7259711832256036 0.5083333919843124 -0.4632094598772144
vn 0.765807568802299 -0.6112974207931652 -0.19963524462563298
vn 0.6846652019476778 -0.6675590605997993 0.2925721481157414
vn 0.8062729574747365 -0.1620318603641378 -0.5689196729520596
vn 0.9435200268884546 0.15864995454151448 -0.2908610506485618
vn 0.8550307357175989 0.1326446973660802 0.5013260667857626
vn -0.7351851173992252 0.13254452221125962 0.6647817632776011
vn 0.8180960115430523 0.5750816595833093 -0.00002661309595893255
vn 0.8655761165597227 0.38507149280051794 -0.3201529819848161
vn 0.9370822074641575 -0.3440308227694211 0.05932730769803303
vn 0.8931080457620558 0.19423860795344897 -0.4057454642696428
vn 0.9621662144816141 0.2416711005109877 0.1258223147455526
vn 0.7798487960773429 0.5956004444490709 -0.19260313037120774
vn 0.9132509842036486 -0.4057348325368091 -0.03676799583054269
vn 0.9252397574343326 -0.3729365478012523 0.06963994957595722
vn 0.6521789083776807 -0.7499389771812709 0.11069869905110022
vn 0.6770450779028969 -0.6361989708123686 -0.3699470665172834
vn 0.7028729661725553 0.5107294364729288 -0.49510103629848995
vn 0.583491819439966 0.806637282553118 0.09419974013743321
vn -0.5007035501832793 0.1664808182161742 0.8494587052941031
vn 0.6016557331960558 -0.7127221687290828 0.3606071115694053
vn 0.8262438520111414 -0.5617640277906664 -0.04174055694643617
vn 0.6533565277117658 -0.6532101489130226 0.38267708195481437
vn 0.4435301497007955 0.8607302068577254 -0.249848989009456
vn 0.753519369473289 -0.6570953637594252 0.020838492134643494
vn 0.5554343122451512 0.6680586136072839 -0.495167056220292
vn 0.7809268593790474 0.6178700615927524 0.09159600039164462
vn 0.9665729913221052 -0.02245974818406646 -0.25540597518097713
vn 1 0 0
vn 0.9994644218623087 -0.0036948245938654184 -0.032514884324901946
vn 0.9983635375232591 -0.010091566987648144 -0.056288606482821205
vn 0.9974219049257173 -0.00546974230338181 -0.07155155828832832
vn 0.9962231524290678 -0.016093404780458426 -0.08532545274924065
vn 0.9975134505503035 0.000955013287685546 -0.07046987952911173
vn 0.9986745176923664 0.005356002068324651 -0.051191024152322705
vn 0.9979680498520294 0.005922611837987789 -0.0634404771699745
vn 0.9991370539730632 0.012780295429142486 -0.03951975995337326
vn 0.9059146487495018 -0.37292898851370615 0.2006056297993924
vn 0.9323512064390092 -0.3546211206612432 -0.07046338504988418
vn 0.9918044303960349 -0.12248501261590657 -0.03635097703333562
vn 0.9365606335427051 0.29643275989331114 -0.1870342176183855
vn 0.9166119813074626 -0.3959698635463149 -0.05504855026901907
vn 0.8409111927781906 0.4179434269819068 -0.34379013613392173
vn 0.8709595211026558 0.4850071188610075 0.07872488332653722
vn 0.9099802889168617 -0.3876865717899987 0.1470883946356859
vn 0.976485855445103 -0.1995876116145397 -0.08148717325842847
vn 0.8690388654979975 0.3712854372410327 -0.3269840582454879
vn 0.8042231216521368 0.5862417592229702 -0.09770245822521369
vn 0.9964810042086365 0.04222882812046353 -0.07240396623749049
vn 0.9995367434572254 0.02680092941504627 0.014422505379251018
vn 0.9999526781254284 0.006900851988931739 -0.006857094983338604
vn 0.8594654754573378 0.3200639074141738 0.3985952730121915
vn 0.7681047294659559 0.4872919039458442 0.4154054945723094
vn 0.7844218148951216 0.22690346769955472 0.5772323905175113
vn 1 0 0
vn 0.9982217118354321 0.05936531953107447 -0.005401190360765786
vn 0.9995154066176701 -0.01770452291356059 -0.025602769426700582
vn 0.7231780810692112 -0.1880004155652689 0.6645820542328387
vn 0.8881508068242822 -0.02088620088300436 -0.4590772385449439
vn 0.9267556261198666 -0.18188235101584257 0.3286986763650321
vn 0.8912245710957782 0.12450162446336573 -0.43614001121329077
vn 0.2119742337267511 0.7933092176165385 -0.5707253362875985
vn 0.175135919326547 0.7769629319595686 -0.604694974447809
vn 0.34905387771303586 0.6728462710244753 -0.6522570705036103
vn 0.09725851581163664 0.7995708276733541 -0.5926443053264457
vn 0.26039244983700793 0.8654162985884618 -0.428077565641237
vn -0.47782366399508996 0.17378005474844174 0.8610952552987017
vn 0.14779694485581268 0.9498113852843171 -0.2757070827446673
vn 0.05397753901876161 0.9952978145404004 -0.08042813968121527
vn 0.06344538342156926 0.991248996857813 0.11575884221462134
vn 0.06716490866352222 0.9869559026101158 0.1463110431487405
vn 0.5079859167450435 0.7357247871720789 0.44795016009517963
vn 0.5414938126042456 0.5204218014398759 0.6602617658909173
vn 0.4320937707681345 0.34116087656226346 0.8348078997988956
vn 0.7863305367355825 0.15646444920076893 0.5976647581491072
vn 0.5858497109185243 -0.20570296121328402 0.7838790773867916
vn 0.5020753805628974 -0.24998532790531827 0.8279055791965002
vn 0.535482237809264 -0.7024578865476675 0.4688407945323948
vn 0.3584277954158428 -0.817038470506411 0.4516388526089
vn 0.7002133617261618 -0.6405080202877168 0.3153580885394523
vn 0.14455372650458764 -0.9062779298566068 0.39719583835742844
vn 0.039538851895466104 -0.9885068791367617 0.1459137727909464
vn -0.028617650221798942 -0.9990881574758756 0.03168412358331431
vn -0.018511543940598528 -0.9982152692444632 -0.056776746896413925
vn -0.017233012101328805 -0.9971028445499706 -0.07408738545982606
vn -0.06073009624452114 -0.9488380622499345 -0.30986801550970183
vn 0.7303032762227744 -0.4814335710374701 -0.48464300409310707
vn 0.5817988478441295 -0.2669534059635545 -0.7682746772422617
vn 0.8584551465998334 -0.026371838233225135 -0.5122101984775972
vn -0.03158989710475109 0.3074168038665933 -0.9510504650655295
vn 0.40504108049326903 0.6539491234778413 -0.6389775168309199
vn 0.1066971673864525 -0.5170584346232024 -0.8492739779698368
vn 0.38255464516469523 0.6183245852693462 -0.6865323377047909
vn 0.923824010239181 0.2561973437559375 -0.2844505566139739
vn 0.07981513105610316 -0.6980342773225463 -0.711602201048653
vn 0.23536642226761975 -0.9627456599992883 -0.1331294160637512
vn 0.9238248249777136 -0.2561920157697929 0.28445270926940935
vn 0.3825497138134106 -0.6183356351527951 0.6865251333793012
vn 0.5682174928533752 -0.7329887226255702 -0.37397381368106414
vn 0.23537432166225006 -0.17829385149003488 -0.9554110273714058
vn 0.5682114775946975 -0.40806608848753007 -0.7145752473715684
vn 0.8588882898942779 0.02101382488689365 0.5117316920478013
vn 0.3557611119740905 -0.3262761186090113 0.8757727591289861
vn 0.35576504457063424 0.8594417155914186 -0.3671391705646975
vn 0.8588908549459577 0.5121492671330499 -0.00310281570222122
vn 0.35245107611028614 0.30548224494628656 -0.8845670336222565
vn 0.8509005968296531 -0.038577463066712836 -0.5239083447114361
vn 0.8508995006727966 -0.5251452549695077 -0.013874470721297683
vn 0.35245370898845546 -0.8692064132251597 0.34678032560763034
vn 0.3440978402622945 0.8900407561351372 -0.2990386743302912
vn 0.8318291162111381 0.5526788965862514 0.05105250916067784
vn 0.8333763970184555 0.07404790429094495 0.547723186256212
vn 0.345647327894642 -0.2654775257930127 0.9000275595881019
vn 0.37113761152235397 0.4420836910478688 -0.8165897889534101
vn 0.8960029847933055 0.07978324806758334 -0.43682179955821154
vn 0.896005037716414 -0.432577914152257 0.10025627448938083
vn 0.37113424931903755 -0.7948719954498815 0.48003945653656227
vn 0.3501669233422942 -0.2916587400276172 0.8901226349006607
vn 0.3501646691536882 0.8754107737676705 -0.3332276723922798
vn 0.8453762110463473 0.5335821450799788 0.02508298723777053
vn 0.845377081449234 0.05016847391778359 0.531808907771519
vn 0.37238492862699907 0.4538793591758369 -0.8095202234938893
vn 0.8990297427601915 0.09035783081427182 -0.42846351541652095
vn 0.8990294525439626 -0.42373486726899645 0.11043009426342575
vn 0.372389789599955 -0.7872539082597361 0.4914846167800903
vn 0.30411143424217973 0.9460006419582546 -0.11224536060672917
vn 0.7342011269835759 0.6491266039543303 0.19895566635500816
vn 0.7342019628141022 0.22928738053329656 0.6390420760232451
vn 0.30411474093751184 -0.06758090934981041 0.9502352577314541
vn 0.8295764483144008 -0.08127804694435499 -0.5524461923906941
vn 0.7886066536363511 -0.6024204656613927 -0.12324418198352129
vn 0.35467034937465364 0.31929367249862267 -0.8787835307837781
vn 0.3265194989934503 0.9214814418362107 -0.2103734040427277
vn 0.7882821996212475 0.6027442037757607 0.12373600355196594
vn 0.788278644877845 0.1519773679728768 0.5962546919342313
vn 0.326521198380498 -0.16675752726942994 0.9303632807173491
vn 0.2420142250395854 0.963794057500108 0.11193806147136691
vn 0.584282596552697 0.7275359939598737 0.359590357015392
vn 0.5842858345845917 0.39342829437764726 0.7098057767353564
vn 0.2420260595312473 0.15717818544287226 0.9574541265923204
vn 0.000013470630798671364 0.72355817676348 0.690263402374232
vn 0 0.7235674750835321 0.6902536555507998
vn 0 0.7235526958402103 0.690269147754964
vn 0.000007940188475425051 0.7235581768063138 0.6902634024151045
vn 0.809755793482924 -0.20022594084413142 -0.5515479376572108
vn 0.7498725301406725 -0.573139059215487 -0.3304584805115659
vn 0.36027725263516047 -0.7692821315096141 -0.5276412639035027
vn 0.11910799642110984 -0.8861127074204465 -0.4479035107437261
vn 0.44322493713193645 -0.5436524135639323 0.7127367735219661
vn 0.7001562879643668 -0.5448012556341231 -0.4614897228362098
vn 0.24890028992801888 0.678810616383292 -0.6908435371045194
vn 0.3142064030674805 -0.9366448272912316 0.15482507477787721
vn -0.026276144222881572 -0.7727118422071686 -0.6342128768462388
vn 0.6644474503932432 -0.584821222810104 -0.4652888597600567
vn 0.9557497588483971 -0.18879296296947554 -0.2256094315281103
vn 0.7762280749912313 -0.3864915560012233 -0.49809060695335433
vn -0.7159355243651752 0.44658321218087266 -0.5366560905740058
vn -0.8793218088788234 0.4370915409608497 0.18906121032761833
vn -0.4408607834597419 0.8540315473868835 -0.276173651305167
vn -0.7602126691797355 -0.6496220331915392 -0.008240850120759962
vn -0.5669333063420335 -0.748085062852176 0.34489906479656635
vn -0.6400319724352584 0.7620397028775138 -0.09825764855207463
vn -0.6982292218175143 0.5372349784887421 -0.4731326787364295
vn -0.8274127563163027 -0.5376321795085874 -0.16229531799132377
vn -0.6145487630025173 -0.7375777610055936 0.2798372104671774
vn -0.9492955062670583 -0.11821126363541663 -0.2913145017517797
vn -0.9177282926311902 0.24098174821180618 -0.31575715024845014
vn -0.6929406697864725 0.07184220840375577 0.7174063877939381
vn 0.8457240996756209 0.038755320851240144 0.5322112102667302
vn -0.8594890833515586 0.5107281409659614 -0.02086340396366239
vn -0.8458794340378741 0.4197043550402167 -0.3291447059152582
vn -0.9199602717138685 -0.3886442553596658 0.05127125163360288
vn -0.8391547965329041 0.3451113335481327 -0.42037768127298347
vn -0.9621682804149313 0.241665200334562 0.12581784893500012
vn -0.9365646220136289 0.3002439652958647 -0.18083216001553604
vn -0.9169677768779209 -0.3973887171134555 -0.03538790299644623
vn -0.9815901681704224 -0.15949218367017995 0.10508560843083786
vn -0.6802891710401114 -0.7222828068197729 0.12455597431720698
vn -0.9576409600569568 -0.17740857354704387 -0.22682590163646046
vn -0.5412297190788147 0.6465885188409998 -0.5375813226748761
vn -0.783533544853417 0.6213213886717931 0.005908982009881742
vn 0.5007035501832793 0.1664808182161742 0.8494587052941031
vn -0.671222395034728 -0.6528022626193813 0.3511548124728749
vn -0.6995365440374336 -0.7072056565282485 -0.10251235501447066
vn -0.6533565277117658 -0.6532101489130226 0.38267708195481437
vn -0.5951379613936022 0.7502435293872036 -0.2880025234627284
vn -0.6921550124678842 -0.7215797747903696 -0.015622654353933191
vn -0.626936668808281 0.6016693289686904 -0.49491861137154824
vn -0.6396815070707448 0.754738906544532 0.1455223435066419
vn -0.9662913332696769 -0.021241960126811982 -0.2565732612293834
vn -1 0 0
vn -0.9995206202443678 -0.005463502191085299 -0.030474248967325455
vn -0.99804528431232 -0.004763508668308642 -0.062313076052360486
vn -0.997789775293184 -0.01231605925030291 -0.06529838439747714
vn -0.9954923557925743 0.0012851856177021515 -0.09483310527700116
vn -0.9972755182041481 0.007676153933684581 -0.07336632368760602
vn -0.9986848390694348 0.004765671303105344 -0.05104782649524008
vn -0.9977656888217435 0.020557575597378558 -0.06356898847417605
vn -0.9990269237988061 0.022220294566523587 -0.03809808439372831
vn -0.9064937717132393 -0.3715547328437657 0.20053957800519961
vn -0.9097354580311424 -0.40579433771872375 -0.08781999701827745
vn -0.6249388438890827 -0.7666685667260362 0.14720988483394212
vn -0.8103496548069319 0.5598919600153224 -0.17278434554231803
vn -0.9384373598388347 -0.3423145685505596 -0.04643336964685829
vn -0.722784220402509 0.585423015466124 -0.367236795133178
vn -0.9620130534679113 0.2727028642713564 -0.012807528080932768
vn -0.9116158756662965 -0.3837545590113669 0.14727163226895632
vn -0.9273874682406159 -0.3462100938628714 -0.14174291748698564
vn -0.8628028940369618 0.3831716264972918 -0.3297736658510854
vn -0.8410055146590567 0.5304140006095656 -0.10663354195754235
vn -0.9975680211073955 0.050784425729604926 -0.04773871979001082
vn -0.9998268311649741 -0.0132005779457841 0.013116875561798365
vn -0.9999259145357666 0.011425666501904823 -0.004197568915221454
vn -0.8331628253746525 0.3263334687602634 0.44648199692778273
vn -0.7681065052644805 0.48728923704885246 0.41540533942973573
vn -0.8498222145355159 0.237724495180007 0.4704139326947733
vn -1 0 0
vn -0.9980063965846043 0.06269396155651519 0.007259446298698948
vn -0.9679741802213365 -0.059877343480483305 0.24380461472776047
vn -0.9284139229433479 0.00789463999038881 0.3714636756728246
vn -0.8211104876228856 0.022929160724178548 -0.5703085311515093
vn -0.9842988130298246 -0.02651565177577691 0.17450721153861867
vn -0.8864519111526945 0.1305357616085818 -0.44403088198345286
vn -0.4381989410296426 0.6817843504827564 -0.5857915905143277
vn -0.21462385790192307 0.7669805665357611 -0.6047126674510614
vn -0.15111367794065042 0.719931331283976 -0.677394666774792
vn -0.3444017025887794 0.7400142195684171 -0.5777252133068945
vn -0.12165067589286428 0.8945094440207607 -0.43017899485269984
vn 0.1537392933722257 0.32847055118124824 0.9319180901131258
vn -0.24625686086125903 0.9281083098032304 -0.279235606169682
vn -0.12251577418172731 0.9886430404172994 -0.08703346316842894
vn -0.08188953083691825 0.9901759626982751 0.1133387296287271
vn -0.0671807545623632 0.9869550436679764 0.14630956221236743
vn -0.1122278980728899 0.8225510493714121 0.5575075515830528
vn -0.4327259643582389 0.5473291862881515 0.716365131484903
vn -0.45041474630479694 0.34150135525658815 0.8249262880216022
vn -0.3069944687787271 0.11177941036741987 0.9451242032437744
vn -0.8082844514010322 -0.10366903113723411 0.579593803975163
vn -0.5904890347762515 -0.1947523339697811 0.7831948852120615
vn -0.35593578553178556 -0.8059331659045167 0.4730554393229123
vn -0.6788611005026077 -0.6150261691138037 0.40111147768368244
vn -0.14432502764441243 -0.9089116360214882 0.3912159560909824
vn -0.043926628491638676 -0.9186251120668418 0.39268098348346353
vn 0.0455806338530088 -0.9892570680581475 0.13889873690770524
vn 0.026350128410169555 -0.9991433273817988 0.03191053244926468
vn 0.021266975734772004 -0.998143906324087 -0.05706538365058953
vn 0.051183905458477987 -0.9956905358964192 -0.07733410986310728
vn 0.010594382129705754 -0.9517675807060761 -0.30663697002186974
vn -0.5751168296671386 -0.5490830995360424 -0.6064226100975392
vn -0.8085731008244075 -0.22491788685584008 -0.5437108466781825
vn 0.03798714198550712 0.08901873182313967 -0.995305301115378
vn -0.21296083308561625 0.27935483547283735 -0.9362737630999943
vn -0.2623343342600833 0.7252947938086363 -0.6364967864352553
vn -0.19804125248399063 -0.41569324821110826 -0.8876816916588233
vn -0.38254978740646456 0.618341010504716 -0.686520250890879
vn -0.9238248249777137 0.25619201576979295 -0.28445270926940935
vn -0.22886844374291557 -0.6881815008899766 -0.6884950670059409
vn -0.23536893357642635 -0.9627442696347344 -0.13313503067404076
vn -0.9238238322468073 -0.25618460065964077 0.28446261152862123
vn -0.38254527218157797 -0.6183455874510794 0.6865186444746435
vn -0.5682197415964408 -0.732989324388761 -0.373969217439326
vn -0.23535889218662842 -0.17831015059815777 -0.9554117866461275
vn -0.5682261854703216 -0.4080589833022091 -0.7145676093220399
vn -0.8588864486253195 0.0210104821948849 0.511734919666154
vn -0.3557695047488139 -0.3262818784301279 0.8757672038269594
vn -0.35576451583846797 0.8594397378728499 -0.3671443125465346
vn -0.858891224470731 0.5121486177841574 -0.003107704771302034
vn -0.3524533196778341 0.30548199934397985 -0.8845662244992623
vn -0.8509011099098639 -0.03857276596600564 -0.5239078572419902
vn -0.8508996535469435 -0.5251450482271617 -0.013872920247147839
vn -0.35245283020515605 -0.8692042677801483 0.34678659627089414
vn -0.3441018411148474 0.8900412058909073 -0.2990327319168121
vn -0.8318323935596915 0.5526745884166236 0.05104574755325327
vn -0.833383006836218 0.07403993543869547 0.5477142063858289
vn -0.3456474738067896 -0.26547767288289464 0.9000274601653373
vn -0.3711350983024661 0.442081571677158 -0.8165920785750207
vn -0.896004437153164 0.07978888391386185 -0.43681779108184476
vn -0.8960043691825849 -0.432576125729784 0.10026996486649788
vn -0.3711403997860302 -0.7948737212134284 0.48003184370516827
vn -0.35016392029894117 -0.2916566297984629 0.8901245077041072
vn -0.35016020418712474 0.875408456633819 -0.33323845134921987
vn -0.8453763409057423 0.5335821869464403 0.02507771939934758
vn -0.8453764071658881 0.05016443458206434 0.5318103606647361
vn -0.37238728200499677 0.4538809689909343 -0.809518238329923
vn -0.8990316998048268 0.09035854983702603 -0.4284592573598961
vn -0.8990296981611903 -0.4237350257471362 0.11042748652067179
vn -0.3723903783500804 -0.7872541707190596 0.49148375028858265
vn -0.30411760846375807 0.9459996904327094 -0.11223665142680732
vn -0.7342016391917938 0.6491289669534744 0.19894606623403782
vn -0.7341936592271824 0.22928689096798974 0.6390517916263386
vn -0.3041289365195982 -0.06758738231755827 0.9502302540557834
vn -0.8295803858187937 -0.08127696092270414 -0.5524404394031185
vn -0.7886107937026956 -0.6024149524793874 -0.12324463917291592
vn -0.3546749204350734 0.31929729751126146 -0.8787803688159969
vn -0.3265157612128068 0.9214812817490693 -0.21037990651607805
vn -0.7882839241230971 0.6027366397819962 0.12376186017267006
vn -0.7882869274740922 0.15198214903224047 0.5962425230969336
vn -0.3265243825752611 -0.16675955373088008 0.9303617999592
vn -0.24202632176232744 0.9637884710493385 0.11196000467388716
vn -0.5842893353529711 0.7275453549945406 0.35956046642901524
vn -0.5842682204267134 0.3934280129936203 0.709820431652466
vn -0.24204458184542063 0.15717191361984378 0.9574504738984425
vn -0.000013471048648128405 0.7235581767634759 0.690263402374228
vn 0 0.7235674750835321 0.6902536555507998
vn 0 0.7235526958402103 0.690269147754964
vn -0.000007940434774465775 0.7235581768063124 0.6902634024151032
vn -0.7972803361499209 -0.21123411004107825 -0.5654416117901324
vn -0.6692654970648195 -0.5773965957184547 -0.46765036693166334
vn -0.08928663765197481 -0.6590193852552715 -0.7468074358190129
vn -0.1335432954862157 -0.9303404317938241 -0.3415155475236263
vn -0.44322493713193645 -0.5436524135639323 0.7127367735219661
vn -0.7001562879643668 -0.5448012556341231 -0.4614897228362098
vn -0.24890221868113002 0.6788172241220298 -0.6908363494858049
vn -0.3142080927332958 -0.9366448050229008 0.1548217803944802
vn -0.7090143578592594 -0.593247480558279 -0.38125590770593554
vn -0.6644474503932432 -0.584821222810104 -0.4652888597600567
vn -0.9233121801651021 -0.27263529646000156 -0.27048958035926834
vn -0.776232896995713 -0.38648896205598754 -0.49808510500769665
usemtl m_c75ea828-464d-1db0-c66a-22c60d8367a5
f 2/1/1 3/2/1 4/3/1 5/4/1
f 6/5/2 7/6/2 8/7/2 9/8/2
f 10/9/3 11/10/3 12/11/3 13/12/3
f 14/13/4 15/14/4 16/15/4 17/16/4
f 18/17/5 19/18/5 20/19/5 21/20/5
f 22/21/6 23/22/6 24/23/6 25/24/6
f 26/25/7 2/26/7 5/27/7 27/28/7
f 28/29/8 29/30/8 30/31/8 31/32/8
f 32/33/9 33/34/9 34/35/9 35/36/9
f 36/37/10 37/38/10 38/39/10 39/40/10
f 40/41/11 41/42/11 42/43/11 43/44/11
f 44/45/12 45/46/12 46/47/12 47/48/12
f 4/49/13 48/50/13 49/51/13 50/52/13
f 51/53/14 25/54/14 52/55/14 53/56/14
f 54/57/15 27/58/15 55/59/15 56/60/15
f 34/61/16 57/62/16 58/63/16 59/64/16
f 5/65/17 4/66/17 50/67/17 60/68/17
f 9/69/18 8/70/18 61/71/18
f 13/72/19 12/73/19 62/74/19 63/75/19
f 17/76/20 16/77/20 64/78/20 65/79/20
f 21/80/21 20/81/21 66/82/21 67/83/21
f 33/84/22 68/85/22 57/86/22 34/87/22
f 69/88/23 70/89/23 71/90/23 30/91/23
f 72/92/24 26/93/24 27/94/24 54/95/24
f 73/96/25 22/97/25 25/98/25 51/99/25
f 3/100/26 48/101/26 4/102/26
f 19/103/27 32/104/27 35/105/27 20/106/27
f 15/107/28 28/108/28 31/109/28 16/110/28
f 48/111/29 18/112/29 21/113/29
f 23/114/30 10/115/30 13/116/30 24/117/30
f 68/118/31 14/119/31 17/120/31 57/121/31
f 11/122/32 72/123/32 54/124/32 12/125/32
f 7/126/33 73/127/33 51/128/33 8/129/33
f 50/130/34 49/131/34 67/132/34 60/133/34
f 60/134/35 67/135/35 66/136/35 55/137/35
f 55/138/36 66/139/36 74/140/36 56/141/36
f 56/142/37 74/143/37 59/144/37 62/145/37
f 62/146/38 59/147/38 58/148/38 63/149/38
f 63/150/39 58/151/39 65/152/39 75/153/39
f 75/154/40 65/155/40 64/156/40 52/157/40
f 52/158/41 64/159/41 76/160/41 53/161/41
f 53/162/42 76/163/42 71/164/42 61/165/42
f 61/166/43 71/167/43 70/168/43 9/169/43
f 20/170/44 35/171/44 74/172/44 66/173/44
f 16/174/45 31/175/45 76/176/45 64/177/45
f 48/178/46 21/179/46 67/180/46 49/181/46
f 24/182/47 13/183/47 63/184/47 75/185/47
f 57/186/48 17/187/48 65/188/48 58/189/48
f 12/190/49 54/191/49 56/192/49 62/193/49
f 8/194/50 51/195/50 53/196/50 61/197/50
f 35/198/51 34/199/51 59/200/51 74/201/51
f 31/202/52 30/203/52 71/204/52 76/205/52
f 27/206/53 5/207/53 60/208/53 55/209/53
f 25/210/54 24/211/54 75/212/54 52/213/54
f 77/214/55 9/215/55 70/216/55 78/217/55
f 77/218/56 78/219/56 39/220/56 79/221/56
f 79/222/57 39/223/57 38/224/57 46/225/57
f 80/226/58 6/227/58 77/228/58 79/229/58
f 9/230/59 77/231/59 6/232/59
f 45/233/60 80/234/60 79/235/60 46/236/60
f 46/237/61 38/238/61 81/239/61 47/240/61
f 47/241/62 81/242/62 43/243/62 82/244/62
f 82/245/63 43/246/63 42/247/63 83/248/63
f 84/249/64 44/250/64 47/251/64 82/252/64
f 37/253/65 85/254/65 81/255/65 38/256/65
f 86/257/66 84/258/66 82/259/66 83/260/66
f 85/261/67 40/262/67 43/263/67 81/264/67
f 3/265/68 2/266/68 87/267/68 88/268/68
f 2/269/69 26/270/69 89/271/69 87/272/69
f 26/273/70 72/274/70 90/275/70 89/276/70
f 72/277/71 11/278/71 91/279/71 90/280/71
f 11/281/72 10/282/72 92/283/72 91/284/72
f 48/285/73 3/286/73 88/287/73 93/288/73
f 10/289/74 23/290/74 94/291/74 92/292/74
f 23/293/75 22/294/75 95/295/75 94/296/75
f 22/297/76 73/298/76 96/299/76 95/300/76
f 73/301/77 7/302/77 97/303/77 96/304/77
f 7/305/78 6/306/78 98/307/78 97/308/78
f 6/309/79 80/310/79 99/311/79 98/312/79
f 80/313/80 45/314/80 100/315/80 99/316/80
f 45/317/81 44/318/81 101/319/81 100/320/81
f 44/321/82 84/322/82 102/323/82 101/324/82
f 84/325/83 86/326/83 103/327/83 102/328/83
f 18/329/84 48/330/84 93/331/84 104/332/84
f 19/333/85 18/334/85 104/335/85 105/336/85
f 32/337/86 19/338/86 105/339/86 106/340/86
f 33/341/87 32/342/87 106/343/87 107/344/87
f 68/345/88 33/346/88 107/347/88 108/348/88
f 14/349/89 68/350/89 108/351/89 109/352/89
f 15/353/90 14/354/90 109/355/90 110/356/90
f 28/357/91 15/358/91 110/359/91 111/360/91
f 29/361/92 28/362/92 111/363/92 112/364/92
f 36/365/93 69/366/93 1/367/93 113/368/93
f 37/369/94 36/370/94 113/371/94 114/372/94
f 85/373/95 37/374/95 114/375/95 115/376/95
f 40/377/96 85/378/96 115/379/96 116/380/96
f 41/381/97 40/382/97 116/383/97 117/384/97
f 118/385/98 119/386/98 120/387/98 117/388/98
f 118/389/99 121/390/99 122/391/99 119/392/99
f 119/393/100 122/394/100 123/395/100 124/396/100
f 119/397/101 124/398/101 125/399/101 120/400/101
f 126/401/102 127/402/102 128/403/102 129/404/102
f 124/405/103 123/406/103 127/407/103 130/408/103
f 130/409/104 127/410/104 126/411/104 131/412/104
f 127/413/105 123/414/105 132/415/105 128/416/105
f 122/417/106 121/418/106 133/419/106 134/420/106
f 123/421/107 122/422/107 134/423/107 132/424/107
f 128/425/108 132/426/108 135/427/108 136/428/108
f 129/429/109 128/430/109 136/431/109 137/432/109
f 134/433/110 133/434/110 138/435/110 139/436/110
f 132/437/111 134/438/111 139/439/111 135/440/111
f 139/441/112 138/442/112 140/443/112 141/444/112
f 135/445/113 139/446/113 141/447/113 142/448/113
f 136/449/114 135/450/114 142/451/114 143/452/114
f 137/453/115 136/454/115 143/455/115 144/456/115
f 141/457/116 140/458/116 145/459/116 146/460/116
f 142/461/117 141/462/117 146/463/117 147/464/117
f 143/465/118 142/466/118 147/467/118 148/468/118
f 144/469/119 143/470/119 148/471/119 149/472/119
f 146/473/120 145/474/120 150/475/120 151/476/120
f 147/477/121 146/478/121 151/479/121 152/480/121
f 148/481/122 147/482/122 152/483/122 153/484/122
f 149/485/123 148/486/123 153/487/123 154/488/123
f 154/489/124 153/490/124 155/491/124 156/492/124
f 151/493/125 150/494/125 157/495/125 158/496/125
f 152/497/126 151/498/126 158/499/126 159/500/126
f 153/501/127 152/502/127 159/503/127 155/504/127
f 158/505/128 157/506/128 160/507/128 161/508/128
f 159/509/129 158/510/129 161/511/129 162/512/129
f 155/513/130 159/514/130 162/515/130 163/516/130
f 156/517/131 155/518/131 163/519/131 164/520/131
f 161/521/132 160/522/132 165/523/132 166/524/132
f 162/525/133 161/526/133 166/527/133 167/528/133
f 163/529/134 162/530/134 167/531/134 168/532/134
f 164/533/135 163/534/135 168/535/135 169/536/135
f 167/537/136 166/538/136 170/539/136 171/540/136
f 168/541/137 167/542/137 171/543/137 172/544/137
f 166/545/138 165/546/138 173/547/138 170/548/138
f 170/549/139 173/550/139 174/551/139 175/552/139
f 171/553/140 170/554/140 175/555/140 176/556/140
f 172/557/141 171/558/141 176/559/141 177/560/141
f 178/561/142 172/562/142 177/563/142 179/564/142
f 175/565/143 174/566/143 180/567/143 181/568/143
f 176/569/144 175/570/144 181/571/144 182/572/144
f 177/573/145 176/574/145 182/575/145 183/576/145
f 179/577/146 177/578/146 183/579/146 184/580/146
f 185/581/147 181/582/147 180/583/147
f 185/584/148 182/585/148 181/586/148
f 185/587/149 183/588/149 182/589/149
f 185/590/150 184/591/150 183/592/150
f 42/593/151 41/594/151 120/595/151 125/596/151
f 83/597/152 42/598/152 125/599/152 186/600/152
f 124/601/153 130/602/153 186/603/153 125/604/153
f 130/605/154 131/606/154 103/607/154 186/608/154
f 103/609/155 86/610/155 186/611/155
f 83/612/156 186/613/156 86/614/156
f 41/615/157 117/616/157 120/617/157
f 172/618/158 178/619/158 169/620/158 168/621/158
f 69/622/159 29/623/159 112/624/159 1/625/159
f 30/626/160 29/627/160 69/628/160
f 36/629/161 39/630/161 78/631/161 69/632/161
f 69/633/162 78/634/162 70/635/162
f 187/636/163 188/637/163 189/638/163 190/639/163
f 191/640/164 192/641/164 193/642/164 194/643/164
f 195/644/165 196/645/165 197/646/165 198/647/165
f 199/648/166 200/649/166 201/650/166 202/651/166
f 203/652/167 204/653/167 205/654/167 206/655/167
f 207/656/168 208/657/168 209/658/168 210/659/168
f 211/660/169 212/661/169 188/662/169 187/663/169
f 213/664/170 214/665/170 215/666/170 216/667/170
f 217/668/171 218/669/171 219/670/171 220/671/171
f 221/672/172 222/673/172 223/674/172 224/675/172
f 225/676/173 226/677/173 227/678/173 228/679/173
f 229/680/174 230/681/174 231/682/174 232/683/174
f 189/684/175 233/685/175 234/686/175 235/687/175
f 236/688/176 237/689/176 238/690/176 208/691/176
f 239/692/177 240/693/177 241/694/177 212/695/177
f 219/696/178 242/697/178 243/698/178 244/699/178
f 188/700/179 245/701/179 233/702/179 189/703/179
f 192/704/180 246/705/180 193/706/180
f 196/707/181 247/708/181 248/709/181 197/710/181
f 200/711/182 249/712/182 250/713/182 201/714/182
f 204/715/183 251/716/183 252/717/183 205/718/183
f 220/719/184 219/720/184 244/721/184 253/722/184
f 254/723/185 215/724/185 255/725/185 256/726/185
f 257/727/186 239/728/186 212/729/186 211/730/186
f 258/731/187 236/732/187 208/733/187 207/734/187
f 190/735/188 189/736/188 235/737/188
f 206/738/189 205/739/189 218/740/189 217/741/189
f 202/742/190 201/743/190 214/744/190 213/745/190
f 235/746/191 204/747/191 203/748/191
f 210/749/192 209/750/192 196/751/192 195/752/192
f 253/753/193 244/754/193 200/755/193 199/756/193
f 198/757/194 197/758/194 239/759/194 257/760/194
f 194/761/195 193/762/195 236/763/195 258/764/195
f 233/765/196 245/766/196 251/767/196 234/768/196
f 245/769/197 241/770/197 252/771/197 251/772/197
f 241/773/198 240/774/198 259/775/198 252/776/198
f 240/777/199 248/778/199 242/779/199 259/780/199
f 248/781/200 247/782/200 243/783/200 242/784/200
f 247/785/201 260/786/201 249/787/201 243/788/201
f 260/789/202 238/790/202 250/791/202 249/792/202
f 238/793/203 237/794/203 261/795/203 250/796/203
f 237/797/204 246/798/204 255/799/204 261/800/204
f 246/801/205 192/802/205 256/803/205 255/804/205
f 205/805/206 252/806/206 259/807/206 218/808/206
f 201/809/207 250/810/207 261/811/207 214/812/207
f 235/813/208 234/814/208 251/815/208 204/816/208
f 209/817/209 260/818/209 247/819/209 196/820/209
f 244/821/210 243/822/210 249/823/210 200/824/210
f 197/825/211 248/826/211 240/827/211 239/828/211
f 193/829/212 246/830/212 237/831/212 236/832/212
f 218/833/213 259/834/213 242/835/213 219/836/213
f 214/837/214 261/838/214 255/839/214 215/840/214
f 212/841/215 241/842/215 245/843/215 188/844/215
f 208/845/216 238/846/216 260/847/216 209/848/216
f 262/849/217 263/850/217 256/851/217 192/852/217
f 262/853/218 264/854/218 222/855/218 263/856/218
f 264/857/219 231/858/219 223/859/219 222/860/219
f 265/861/220 264/862/220 262/863/220 191/864/220
f 192/865/221 191/866/221 262/867/221
f 232/868/222 231/869/222 264/870/222 265/871/222
f 231/872/223 230/873/223 266/874/223 223/875/223
f 230/876/224 267/877/224 226/878/224 266/879/224
f 267/880/225 268/881/225 227/882/225 226/883/225
f 269/884/226 267/885/226 230/886/226 229/887/226
f 224/888/227 223/889/227 266/890/227 270/891/227
f 271/892/228 268/893/228 267/894/228 269/895/228
f 270/896/229 266/897/229 226/898/229 225/899/229
f 190/900/230 88/901/230 87/902/230 187/903/230
f 187/904/231 87/905/231 89/906/231 211/907/231
f 211/908/232 89/909/232 90/910/232 257/911/232
f 257/912/233 90/913/233 91/914/233 198/915/233
f 198/916/234 91/917/234 92/918/234 195/919/234
f 235/920/235 93/921/235 88/922/235 190/923/235
f 195/924/236 92/925/236 94/926/236 210/927/236
f 210/928/237 94/929/237 95/930/237 207/931/237
f 207/932/238 95/933/238 96/934/238 258/935/238
f 258/936/239 96/937/239 97/938/239 194/939/239
f 194/940/240 97/941/240 98/942/240 191/943/240
f 191/944/241 98/945/241 99/946/241 265/947/241
f 265/948/242 99/949/242 100/950/242 232/951/242
f 232/952/243 100/953/243 101/954/243 229/955/243
f 229/956/244 101/957/244 102/958/244 269/959/244
f 269/960/245 102/961/245 103/962/245 271/963/245
f 203/964/246 104/965/246 93/966/246 235/967/246
f 206/968/247 105/969/247 104/970/247 203/971/247
f 217/972/248 106/973/248 105/974/248 206/975/248
f 220/976/249 107/977/249 106/978/249 217/979/249
f 253/980/250 108/981/250 107/982/250 220/983/250
f 199/984/251 109/985/251 108/986/251 253/987/251
f 202/988/252 110/989/252 109/990/252 199/991/252
f 213/992/253 111/993/253 110/994/253 202/995/253
f 216/996/254 112/997/254 111/998/254 213/999/254
f 221/1000/255 113/1001/255 1/1002/255 254/1003/255
f 224/1004/256 114/1005/256 113/1006/256 221/1007/256
f 270/1008/257 115/1009/257 114/1010/257 224/1011/257
f 225/1012/258 116/1013/258 115/1014/258 270/1015/258
f 228/1016/259 117/1017/259 116/1018/259 225/1019/259
f 118/1020/260 117/1021/260 272/1022/260 273/1023/260
f 118/1024/261 273/1025/261 274/1026/261 121/1027/261
f 273/1028/262 275/1029/262 276/1030/262 274/1031/262
f 273/1032/263 272/1033/263 277/1034/263 275/1035/263
f 126/1036/264 129/1037/264 278/1038/264 279/1039/264
f 275/1040/265 280/1041/265 279/1042/265 276/1043/265
f 280/1044/266 131/1045/266 126/1046/266 279/1047/266
f 279/1048/267 278/1049/267 281/1050/267 276/1051/267
f 274/1052/268 282/1053/268 133/1054/268 121/1055/268
f 276/1056/269 281/1057/269 282/1058/269 274/1059/269
f 278/1060/270 283/1061/270 284/1062/270 281/1063/270
f 129/1064/271 137/1065/271 283/1066/271 278/1067/271
f 282/1068/272 285/1069/272 138/1070/272 133/1071/272
f 281/1072/273 284/1073/273 285/1074/273 282/1075/273
f 285/1076/274 286/1077/274 140/1078/274 138/1079/274
f 284/1080/275 287/1081/275 286/1082/275 285/1083/275
f 283/1084/276 288/1085/276 287/1086/276 284/1087/276
f 137/1088/277 144/1089/277 288/1090/277 283/1091/277
f 286/1092/278 289/1093/278 145/1094/278 140/1095/278
f 287/1096/279 290/1097/279 289/1098/279 286/1099/279
f 288/1100/280 291/1101/280 290/1102/280 287/1103/280
f 144/1104/281 149/1105/281 291/1106/281 288/1107/281
f 289/1108/282 292/1109/282 150/1110/282 145/1111/282
f 290/1112/283 293/1113/283 292/1114/283 289/1115/283
f 291/1116/284 294/1117/284 293/1118/284 290/1119/284
f 149/1120/285 154/1121/285 294/1122/285 291/1123/285
f 154/1124/286 156/1125/286 295/1126/286 294/1127/286
f 292/1128/287 296/1129/287 157/1130/287 150/1131/287
f 293/1132/288 297/1133/288 296/1134/288 292/1135/288
f 294/1136/289 295/1137/289 297/1138/289 293/1139/289
f 296/1140/290 298/1141/290 160/1142/290 157/1143/290
f 297/1144/291 299/1145/291 298/1146/291 296/1147/291
f 295/1148/292 300/1149/292 299/1150/292 297/1151/292
f 156/1152/293 164/1153/293 300/1154/293 295/1155/293
f 298/1156/294 301/1157/294 165/1158/294 160/1159/294
f 299/1160/295 302/1161/295 301/1162/295 298/1163/295
f 300/1164/296 303/1165/296 302/1166/296 299/1167/296
f 164/1168/297 169/1169/297 303/1170/297 300/1171/297
f 302/1172/298 304/1173/298 305/1174/298 301/1175/298
f 303/1176/299 306/1177/299 304/1178/299 302/1179/299
f 301/1180/300 305/1181/300 173/1182/300 165/1183/300
f 305/1184/301 307/1185/301 174/1186/301 173/1187/301
f 304/1188/302 308/1189/302 307/1190/302 305/1191/302
f 306/1192/303 309/1193/303 308/1194/303 304/1195/303
f 178/1196/304 179/1197/304 309/1198/304 306/1199/304
f 307/1200/305 310/1201/305 180/1202/305 174/1203/305
f 308/1204/306 311/1205/306 310/1206/306 307/1207/306
f 309/1208/307 312/1209/307 311/1210/307 308/1211/307
f 179/1212/308 184/1213/308 312/1214/308 309/1215/308
f 185/1216/309 180/1217/309 310/1218/309
f 185/1219/310 310/1220/310 311/1221/310
f 185/1222/311 311/1223/311 312/1224/311
f 185/1225/312 312/1226/312 184/1227/312
f 227/1228/313 277/1229/313 272/1230/313 228/1231/313
f 268/1232/314 313/1233/314 277/1234/314 227/1235/314
f 275/1236/315 277/1237/315 313/1238/315 280/1239/315
f 280/1240/316 313/1241/316 103/1242/316 131/1243/316
f 103/1244/317 313/1245/317 271/1246/317
f 268/1247/318 271/1248/318 313/1249/318
f 228/1250/319 272/1251/319 117/1252/319
f 306/1253/320 303/1254/320 169/1255/320 178/1256/320
f 254/1257/321 1/1258/321 112/1259/321 216/1260/321
f 215/1261/322 254/1262/322 216/1263/322
f 221/1264/323 254/1265/323 263/1266/323 222/1267/323
f 254/1268/324 256/1269/324 263/1270/324