# Made in Blockbench 5.1.4
mtllib Mo_PottedPlant.mtl

o mesh
v 0.4316152033583773 2.43952375 0.05793782876182135
v 0.3640057823440946 2.512936875 0.01486587728320865
v 0.13968205195504196 2.15625 0.16837816171748526
v 0.1629653991849654 2.43952375 0.47963355166826416
v 0.09535597817068268 2.512936875 0.43656160018965146
v 0.64789397860298 2.517323125 0.19572260451402562
v 0.6550875805161103 2.644828125 0.20030543436096881
v 0.37924417442956815 2.517323125 0.6174183274204684
v 0.38643777634269844 2.644828125 0.6220011572674116
v 0.7231913847747986 2.377931875 0.540114604560574
vt 0.671875 0.84375
vt 0.671875 0.84375
vt 0.671875 0.84375
vt 0.671875 0.84375
vt 0.671875 0.84375
vt 0.671875 0.84375
vt 0.671875 0.84375
vt 0.671875 0.84375
vt 0.671875 0.84375
vt 0.671875 0.84375
vt 0.671875 0.84375
vt 0.671875 0.84375
vt 0.671875 0.84375
vt 0.671875 0.84375
vt 0.671875 0.84375
vt 0.671875 0.84375
vt 0.671875 0.84375
vt 0.671875 0.84375
vt 0.671875 0.84375
vt 0.671875 0.84375
vt 0.671875 0.875
vt 0.671875 0.84375
vt 0.671875 0.84375
vt 0.671875 0.84375
vt 0.671875 0.84375
vt 0.671875 0.875
vt 0.671875 0.84375
vt 0.671875 0.84375
vt 0.703125 0.875
vt 0.671875 0.84375
vt 0.671875 0.84375
vt 0.703125 0.875
vt 0.671875 0.84375
vt 0.671875 0.84375
vt 0.703125 0.875
vt 0.671875 0.84375
vt 0.671875 0.875
vt 0.703125 0.875
vt 0.671875 0.875
vt 0.671875 0.84375
vn -0.09006934389880798 0.44097363547172735 0.8929892306788959
vn 0.704001020805773 -0.5506650565475764 0.44849811393347516
vn -0.8080064615359152 0.286619792080029 -0.5147568871848252
vn -0.7712581439495112 -0.44097363547172747 0.45902410417145123
vn 0.24485053445238295 -0.95693065241447 0.15598699384243367
vn 0.5372996083468238 0 -0.8433914458128856
vn -0.3010649293087292 0.9341160822617183 -0.1917995130347016
vn -0.5372996083468238 0 0.8433914458128856
vn -0.4125456985738464 -0.8721991636198688 -0.26282059578544975
vn 0.9717717516558939 -0.04651240800526301 -0.23129258220960658
vn 0.6271088364208679 0.6686735807108475 0.3995123899733259
vn 0.20106622015314762 -0.04651240800526301 0.978472774794924
usemtl m_9ecebd30-4d95-8a5a-80f6-7f023283ba6b
f 1/1/1 2/2/1 3/3/1
f 1/4/2 4/5/2 3/6/2
f 2/7/3 3/8/3 5/9/3
f 4/10/4 5/11/4 3/12/4
f 6/13/5 8/14/5 4/15/5 1/16/5
f 7/17/6 6/18/6 1/19/6 2/20/6
f 9/21/7 7/22/7 2/23/7 5/24/7
f 8/25/8 9/26/8 5/27/8 4/28/8
f 10/29/9 8/30/9 6/31/9
f 10/32/10 6/33/10 7/34/10
f 10/35/11 7/36/11 9/37/11
f 10/38/12 9/39/12 8/40/12
o mesh
v 0.13245975106398533 2.3756416018850257 0.39752294694850043
v 0.15025635644370128 2.428122352356442 0.3486271724022465
v 0.03962047681968546 2.2203540872823466 0.19575228809899278
v -0.16119419764307308 2.375641609183797 0.2906416651038658
v -0.14339759226335713 2.4281223596552133 0.24174589055761178
v 0.06692859327827783 2.398773145514608 0.5775683495094741
v 0.061312359802594765 2.475862439170843 0.5929988315470078
v -0.22672535542878058 2.3987731528133795 0.4706870676648394
v -0.23234158890446366 2.4758624464696144 0.48611754970237314
v -0.13750375818716348 2.289961264554183 0.6823971957183903
vt 0.625 0.859375
vt 0.625 0.859375
vt 0.625 0.859375
vt 0.625 0.859375
vt 0.625 0.859375
vt 0.625 0.859375
vt 0.625 0.859375
vt 0.625 0.859375
vt 0.625 0.859375
vt 0.625 0.859375
vt 0.625 0.859375
vt 0.625 0.859375
vt 0.625 0.859375
vt 0.625 0.859375
vt 0.625 0.859375
vt 0.625 0.859375
vt 0.625 0.859375
vt 0.625 0.859375
vt 0.625 0.859375
vt 0.625 0.859375
vt 0.625 0.890625
vt 0.625 0.859375
vt 0.625 0.859375
vt 0.625 0.859375
vt 0.625 0.859375
vt 0.625 0.890625
vt 0.625 0.859375
vt 0.625 0.859375
vt 0.65625 0.890625
vt 0.625 0.859375
vt 0.625 0.859375
vt 0.65625 0.890625
vt 0.625 0.859375
vt 0.625 0.859375
vt 0.65625 0.890625
vt 0.625 0.859375
vt 0.625 0.890625
vt 0.65625 0.890625
vt 0.625 0.890625
vt 0.625 0.859375
vn -0.9078148695635435 0.40593986158372836 0.10528528566095949
vn -0.23985802562490321 -0.7128682412085909 0.6590045509854187
vn 0.3047703392474234 0.4538287177500631 -0.8373497090584936
vn -0.6277505354797653 -0.4059398234172384 -0.6641853092088451
vn -0.040993795318105174 -0.9927910707651075 0.11262947462582253
vn 0.9396926358625871 -2.335606772568833e-8 0.3420201019028311
vn 0.06175506897684553 0.9835640265469568 -0.16967061365599662
vn -0.9396926358625871 2.335606772568833e-8 -0.3420201019028311
vn 0.18559815300954088 -0.8399570948739389 -0.5099268617854722
vn 0.5075163681495635 -0.13341510654572497 0.8512505773305942
vn -0.26477515135976076 0.6330011091541112 0.7274638925967948
vn -0.9359533945862061 -0.13341507066827282 0.3258706216907828
usemtl m_9ecebd30-4d95-8a5a-80f6-7f023283ba6b
f 11/41/13 12/42/13 13/43/13
f 11/44/14 14/45/14 13/46/14
f 12/47/15 13/48/15 15/49/15
f 14/50/16 15/51/16 13/52/16
f 16/53/17 18/54/17 14/55/17 11/56/17
f 17/57/18 16/58/18 11/59/18 12/60/18
f 19/61/19 17/62/19 12/63/19 15/64/19
f 18/65/20 19/66/20 15/67/20 14/68/20
f 20/69/21 18/70/21 16/71/21
f 20/72/22 16/73/22 17/74/22
f 20/75/23 17/76/23 19/77/23
f 20/78/24 19/79/24 18/80/24
o mesh
v -0.007116550970317742 2.4120062045740314 -0.6285062605688878
v -0.051560779804383894 2.5332378322749745 -0.5650333252566371
v 0.06719942362823919 2.080721443861622 -0.18981333041776363
v 0.5048534819200325 2.4120062148395487 -0.27002099528975043
v 0.46040925308596636 2.5332378425404922 -0.20654805997749975
v 0.18876622377074367 2.446564420834865 -0.9082558645128705
v 0.2167405391192623 2.6164733034091805 -0.948207333319034
v 0.700736256661094 2.446564431100383 -0.5497705992337332
v 0.7287105720096125 2.616473313674698 -0.5897220680398967
v 0.597706267720628 2.1898778054846613 -0.9474556489314587
vt 0.578125 0.828125
vt 0.578125 0.828125
vt 0.578125 0.828125
vt 0.578125 0.828125
vt 0.578125 0.828125
vt 0.578125 0.828125
vt 0.578125 0.828125
vt 0.578125 0.828125
vt 0.578125 0.828125
vt 0.578125 0.828125
vt 0.578125 0.828125
vt 0.578125 0.828125
vt 0.578125 0.828125
vt 0.578125 0.828125
vt 0.578125 0.828125
vt 0.578125 0.828125
vt 0.578125 0.828125
vt 0.578125 0.828125
vt 0.578125 0.828125
vt 0.578125 0.828125
vt 0.578125 0.859375
vt 0.578125 0.828125
vt 0.578125 0.828125
vt 0.578125 0.828125
vt 0.578125 0.828125
vt 0.578125 0.859375
vt 0.578125 0.828125
vt 0.578125 0.828125
vt 0.609375 0.859375
vt 0.578125 0.828125
vt 0.578125 0.828125
vt 0.609375 0.859375
vt 0.578125 0.828125
vt 0.578125 0.828125
vt 0.609375 0.859375
vt 0.578125 0.828125
vt 0.578125 0.859375
vt 0.609375 0.859375
vt 0.578125 0.859375
vt 0.578125 0.828125
vn 0.9481356905491194 0.3093683524152787 0.07300640266990682
vn 0.41458456916732667 -0.6910508575405215 -0.592088124607184
vn -0.5070696583691832 0.46739427012516543 0.7241705308941561
vn 0.3928851161276835 -0.3093683255264538 0.8659864460176583
vn 0.05774647935555592 -0.9949190730066392 -0.0824704934485555
vn -0.8191520526245605 -1.64248279976853e-8 -0.5735764244466198
vn -0.10048455640083687 0.9845347396931518 0.1435067951780167
vn 0.8191520526245605 1.64248279976853e-8 0.5735764244466198
vn -0.39777150977471065 -0.7204628872043556 0.5680766270255372
vn -0.2115141017502204 -0.19057913100967233 -0.9586143017837757
vn 0.5108004862568223 0.4548785150179584 -0.7294987318802214
vn 0.9731448703377965 -0.19057910725606056 -0.12910718497712037
usemtl m_9ecebd30-4d95-8a5a-80f6-7f023283ba6b
f 21/81/25 22/82/25 23/83/25
f 21/84/26 24/85/26 23/86/26
f 22/87/27 23/88/27 25/89/27
f 24/90/28 25/91/28 23/92/28
f 26/93/29 28/94/29 24/95/29 21/96/29
f 27/97/30 26/98/30 21/99/30 22/100/30
f 29/101/31 27/102/31 22/103/31 25/104/31
f 28/105/32 29/106/32 25/107/32 24/108/32
f 30/109/33 28/110/33 26/111/33
f 30/112/34 26/113/34 27/114/34
f 30/115/35 27/116/35 29/117/35
f 30/118/36 29/119/36 28/120/36
o mesh
v -0.46721417811794197 2.3520076563731487 -0.4087699809967298
v -0.46958794695761386 2.4106014217034955 -0.3637935317430309
v -0.3040731078899451 2.225138910784544 -0.23345867387740077
v -0.15503525970522378 2.3660524823978526 -0.41059090400478004
v -0.15740902854489566 2.4246462477281994 -0.36561445475108123
v -0.4682795496633077 2.3506674878192504 -0.6017539618513155
v -0.4717746613588208 2.424978377504097 -0.6277938719752705
v -0.15610063125058954 2.3647123138439543 -0.6035748848593658
v -0.15959574294610263 2.439023203528801 -0.6296147949833207
v -0.3072737861672469 2.228537222855719 -0.755971474677571
vt 0.5625 0.875
vt 0.5625 0.875
vt 0.5625 0.875
vt 0.5625 0.875
vt 0.5625 0.875
vt 0.5625 0.875
vt 0.5625 0.875
vt 0.5625 0.875
vt 0.5625 0.875
vt 0.5625 0.875
vt 0.5625 0.875
vt 0.5625 0.875
vt 0.5625 0.875
vt 0.5625 0.875
vt 0.5625 0.875
vt 0.5625 0.875
vt 0.5625 0.875
vt 0.5625 0.875
vt 0.5625 0.875
vt 0.5625 0.875
vt 0.5625 0.90625
vt 0.5625 0.875
vt 0.5625 0.875
vt 0.5625 0.875
vt 0.5625 0.875
vt 0.5625 0.90625
vt 0.5625 0.875
vt 0.5625 0.875
vt 0.59375 0.90625
vt 0.5625 0.875
vt 0.5625 0.875
vt 0.59375 0.90625
vt 0.5625 0.875
vt 0.5625 0.875
vt 0.59375 0.90625
vt 0.5625 0.875
vt 0.5625 0.90625
vt 0.59375 0.90625
vt 0.5625 0.90625
vt 0.5625 0.875
vn 0.7977843234912911 0.38713513873071825 -0.4622408003968176
vn 0.03224439629356311 -0.7952075717773577 -0.6054793280497877
vn -0.020487950338715324 0.5625499495037759 0.8265094059986356
vn 0.8346512334254523 -0.3136924043205579 0.45271889071802485
vn 0.044982138248084454 -0.9989653974224083 0.006688945456523461
vn -0.9989725389206983 -0.04494344327905271 0.005826953625760971
vn -0.04455856782541138 0.997508583545133 0.05469149647916545
vn 0.9989725389206983 0.04494344327905271 -0.005826953625760971
vn 0.03811477009401424 -0.7636250483367205 0.644533978819908
vn -0.7612745252193228 -0.2460354784588168 -0.5999396974626997
vn -0.028756238836543654 0.5292317036977465 -0.8479899070915624
vn 0.77325559527241 -0.1769974771691808 -0.6088905299441405
usemtl m_9ecebd30-4d95-8a5a-80f6-7f023283ba6b
f 31/121/37 32/122/37 33/123/37
f 31/124/38 34/125/38 33/126/38
f 32/127/39 33/128/39 35/129/39
f 34/130/40 35/131/40 33/132/40
f 36/133/41 38/134/41 34/135/41 31/136/41
f 37/137/42 36/138/42 31/139/42 32/140/42
f 39/141/43 37/142/43 32/143/43 35/144/43
f 38/145/44 39/146/44 35/147/44 34/148/44
f 40/149/45 38/150/45 36/151/45
f 40/152/46 36/153/46 37/154/46
f 40/155/47 37/156/47 39/157/47
f 40/158/48 39/159/48 38/160/48
o mesh
v -0.45145021871783264 2.408584433158544 0.14748180913015146
v -0.3973494281750113 2.502682540428512 0.15334392540155828
v -0.17019449734858105 2.1974314583407897 -0.05082919004381739
v -0.4142019838682155 2.4143229481405113 -0.28839189786120784
v -0.36010119332539414 2.508421055410479 -0.282529781589801
v -0.7184400069265169 2.4057435816565755 0.12462839897309039
v -0.7648479204851736 2.5247848664030794 0.12222978522247055
v -0.6811917720768998 2.411482096638543 -0.3112453080182689
v -0.7275996856355564 2.5305233813850467 -0.3136439217688888
v -0.8940594693595596 2.2010046744579763 -0.11264110273895109
vt 0.671875 0.890625
vt 0.671875 0.890625
vt 0.671875 0.890625
vt 0.671875 0.890625
vt 0.671875 0.890625
vt 0.671875 0.890625
vt 0.671875 0.890625
vt 0.671875 0.890625
vt 0.671875 0.890625
vt 0.671875 0.890625
vt 0.671875 0.890625
vt 0.671875 0.890625
vt 0.671875 0.890625
vt 0.671875 0.890625
vt 0.671875 0.890625
vt 0.671875 0.890625
vt 0.671875 0.890625
vt 0.671875 0.890625
vt 0.671875 0.890625
vt 0.671875 0.890625
vt 0.671875 0.921875
vt 0.671875 0.890625
vt 0.671875 0.890625
vt 0.671875 0.890625
vt 0.671875 0.890625
vt 0.671875 0.921875
vt 0.671875 0.890625
vt 0.671875 0.890625
vt 0.703125 0.921875
vt 0.671875 0.890625
vt 0.671875 0.890625
vt 0.703125 0.921875
vt 0.671875 0.890625
vt 0.671875 0.890625
vt 0.703125 0.921875
vt 0.671875 0.890625
vt 0.671875 0.921875
vt 0.703125 0.921875
vt 0.671875 0.921875
vt 0.671875 0.890625
vn -0.40051555611741535 0.28453354012331433 -0.870992510790335
vn -0.62755910803823 -0.775946784779643 -0.06384475787717869
vn 0.8240356667815794 0.5611695330466749 0.0778072943368099
vn 0.5431039298020605 -0.2625661765167647 -0.7975569724997241
vn 0.011680114672041051 -0.9998577772723198 -0.012165531196962724
vn -0.08513882251341066 -0.013116605673068186 0.9962827588373933
vn 0.058493962688019346 0.998122945383371 0.018139521169999624
vn 0.08513882251341066 0.013116605673068186 -0.9962827588373933
vn 0.7267190015086622 -0.6848805492476352 0.05308602554826056
vn -0.6658487736981843 -0.24538240893552044 0.7045799343932704
vn -0.9072607375666045 0.4143464408615169 -0.07207621671185568
vn -0.5361195135851592 -0.22539613829038188 -0.8134939753907188
usemtl m_9ecebd30-4d95-8a5a-80f6-7f023283ba6b
f 41/161/49 42/162/49 43/163/49
f 41/164/50 44/165/50 43/166/50
f 42/167/51 43/168/51 45/169/51
f 44/170/52 45/171/52 43/172/52
f 46/173/53 48/174/53 44/175/53 41/176/53
f 47/177/54 46/178/54 41/179/54 42/180/54
f 49/181/55 47/182/55 42/183/55 45/184/55
f 48/185/56 49/186/56 45/187/56 44/188/56
f 50/189/57 48/190/57 46/191/57
f 50/192/58 46/193/58 47/194/58
f 50/195/59 47/196/59 49/197/59
f 50/198/60 49/199/60 48/200/60
o mesh
v -0.2628065803007581 2.3869691942587083 0.39196261149965184
v -0.21138870015866798 2.443185290336828 0.35330617954687216
v -0.2309376684976123 2.1888603089770946 0.18401565453821367
v -0.4238692217507748 2.4032849611517726 0.2014563877697312
v -0.37245134160868465 2.4595010572298923 0.16279995581695156
v -0.4221555675384012 2.4392156710185184 0.5311581171030308
v -0.425403722722363 2.5336814200390276 0.5419947058178045
v -0.5832182089884179 2.4555314379115827 0.3406518933731103
v -0.5864663641723797 2.549997186932092 0.35148848208788386
v -0.6606592599372416 2.338566490137742 0.5601433440000756
vt 0.625 0.796875
vt 0.625 0.796875
vt 0.625 0.796875
vt 0.625 0.796875
vt 0.625 0.796875
vt 0.625 0.796875
vt 0.625 0.796875
vt 0.625 0.796875
vt 0.625 0.796875
vt 0.625 0.796875
vt 0.625 0.796875
vt 0.625 0.796875
vt 0.625 0.796875
vt 0.625 0.796875
vt 0.625 0.796875
vt 0.625 0.796875
vt 0.625 0.796875
vt 0.625 0.796875
vt 0.625 0.796875
vt 0.625 0.796875
vt 0.625 0.828125
vt 0.625 0.796875
vt 0.625 0.796875
vt 0.625 0.796875
vt 0.625 0.796875
vt 0.625 0.828125
vt 0.625 0.796875
vt 0.625 0.796875
vt 0.65625 0.828125
vt 0.625 0.796875
vt 0.625 0.796875
vt 0.65625 0.828125
vt 0.625 0.796875
vt 0.625 0.796875
vt 0.65625 0.828125
vt 0.625 0.796875
vt 0.625 0.828125
vt 0.65625 0.828125
vt 0.625 0.828125
vt 0.625 0.796875
vn -0.7851121667969234 0.38387961824372085 -0.4860404553578799
vn -0.6315224209694265 -0.6074171988956024 0.4818960243649401
vn 0.7330233877012194 0.33696724957143087 -0.5908720553548737
vn -0.3761327868930097 -0.26624462977228236 -0.8874896752872782
vn -0.22436350264079719 -0.9686434196242442 0.10672836690123014
vn 0.6442505658000668 -0.06526306757225701 0.7620248949196824
vn 0.2715267636143108 0.9509651704411324 -0.14811637738280786
vn -0.6442505658000668 0.06526306757225701 -0.7620248949196824
vn 0.32732264913055276 -0.8769652907032274 -0.351840535282621
vn 0.1642612677863242 -0.10684252875082655 0.9806135375138152
vn -0.5277238732357172 0.6832340386265723 0.5046768887903591
vn -0.9439144058823185 0.005416501682081726 -0.3301458100254462
usemtl m_9ecebd30-4d95-8a5a-80f6-7f023283ba6b
f 51/201/61 52/202/61 53/203/61
f 51/204/62 54/205/62 53/206/62
f 52/207/63 53/208/63 55/209/63
f 54/210/64 55/211/64 53/212/64
f 56/213/65 58/214/65 54/215/65 51/216/65
f 57/217/66 56/218/66 51/219/66 52/220/66
f 59/221/67 57/222/67 52/223/67 55/224/67
f 58/225/68 59/226/68 55/227/68 54/228/68
f 60/229/69 58/230/69 56/231/69
f 60/232/70 56/233/70 57/234/70
f 60/235/71 57/236/71 59/237/71
f 60/238/72 59/239/72 58/240/72
o mesh
v -0.35268742457816565 3.123681468514914 0.42893550754540116
v -0.4102698653956539 3.2812960081556266 0.36263921083696676
v -0.0089485240677926 1.9318955898439267 -0.07056618308668461
v 0.28245183535010754 3.174814124215938 0.5302214696483336
v 0.2770098002513262 3.2920921102206036 0.3489880069201756
v -0.4953361996414043 3.4342951424283887 1.2086133384026263
v -0.49595243822917484 3.6442709852662576 1.3436484892311988
v 0.19194346600557585 3.4450912444933657 1.1949621344858352
v 0.19132722741780533 3.6550670873312345 1.3299972853144078
v -0.13805737275492727 3.1163135619091555 1.8216581805078098
vt 0.890625 0.890625
vt 0.890625 0.890625
vt 0.890625 0.890625
vt 0.890625 0.890625
vt 0.890625 0.890625
vt 0.890625 0.890625
vt 0.890625 0.890625
vt 0.890625 0.890625
vt 0.890625 0.890625
vt 0.890625 0.890625
vt 0.890625 0.890625
vt 0.890625 0.890625
vt 0.890625 0.890625
vt 0.890625 0.890625
vt 0.890625 0.890625
vt 0.890625 0.890625
vt 0.890625 0.890625
vt 0.890625 0.890625
vt 0.890625 0.890625
vt 0.890625 0.890625
vt 0.890625 0.890625
vt 0.890625 0.890625
vt 0.890625 0.921875
vt 0.890625 0.890625
vt 0.890625 0.890625
vt 0.890625 0.921875
vt 0.890625 0.890625
vt 0.890625 0.890625
vt 0.890625 0.890625
vt 0.921875 0.921875
vt 0.890625 0.890625
vt 0.890625 0.890625
vt 0.921875 0.921875
vt 0.890625 0.890625
vt 0.890625 0.890625
vt 0.921875 0.921875
vt 0.890625 0.921875
vt 0.890625 0.921875
vt 0.921875 0.921875
vt 0.890625 0.890625
vn -0.9469447328093575 -0.3094723590401809 0.08673253135196654
vn -0.11116777939625175 -0.4112493353749812 0.9047185799892377
vn -0.023646929397797594 0.29920192632565473 -0.9538967606680888
vn 0.9771888865101658 -0.1637098415691861 -0.13528106983024155
vn 0.02206214527511467 -0.9250794574390664 0.37913224496223275
vn -0.9606836274204972 0.14817872833922857 -0.23479785449182608
vn -0.021643162079334605 0.9370249961915259 -0.34859106421059993
vn 0.9912699256299852 -0.06924651036403456 0.11220006837755278
vn 0.004737712910213267 -0.8865503471327791 -0.4626078642599253
vn -0.887280845035947 -0.2513189550660288 0.38674472828574574
vn 0.004129308120287893 0.6727021771051513 0.7399018379031352
vn 0.9057501022662205 -0.22735685036770306 0.35766690486486036
usemtl m_9ecebd30-4d95-8a5a-80f6-7f023283ba6b
f 61/241/73 62/242/73 63/243/73
f 64/244/74 61/245/74 63/246/74
f 63/247/75 62/248/75 65/249/75
f 65/250/76 64/251/76 63/252/76
f 64/253/77 68/254/77 66/255/77 61/256/77
f 61/257/78 66/258/78 67/259/78 62/260/78
f 62/261/79 67/262/79 69/263/79 65/264/79
f 65/265/80 69/266/80 68/267/80 64/268/80
f 68/269/81 70/270/81 66/271/81
f 66/272/82 70/273/82 67/274/82
f 67/275/83 70/276/83 69/277/83
f 69/278/84 70/279/84 68/280/84
o mesh
v -0.4316152033583773 2.43952375 0.05793782876182135
v -0.3640057823440946 2.512936875 0.01486587728320865
v -0.13968205195504196 2.15625 0.16837816171748526
v -0.1629653991849654 2.43952375 0.47963355166826416
v -0.09535597817068268 2.512936875 0.43656160018965146
v -0.64789397860298 2.517323125 0.19572260451402562
v -0.6550875805161103 2.644828125 0.20030543436096881
v -0.37924417442956815 2.517323125 0.6174183274204684
v -0.38643777634269844 2.644828125 0.6220011572674116
v -0.7231913847747986 2.377931875 0.540114604560574
vt 0.671875 0.84375
vt 0.671875 0.84375
vt 0.671875 0.84375
vt 0.671875 0.84375
vt 0.671875 0.84375
vt 0.671875 0.84375
vt 0.671875 0.84375
vt 0.671875 0.84375
vt 0.671875 0.84375
vt 0.671875 0.84375
vt 0.671875 0.84375
vt 0.671875 0.84375
vt 0.671875 0.84375
vt 0.671875 0.84375
vt 0.671875 0.84375
vt 0.671875 0.84375
vt 0.671875 0.84375
vt 0.671875 0.84375
vt 0.671875 0.84375
vt 0.671875 0.84375
vt 0.671875 0.84375
vt 0.671875 0.84375
vt 0.671875 0.875
vt 0.671875 0.84375
vt 0.671875 0.84375
vt 0.671875 0.875
vt 0.671875 0.84375
vt 0.671875 0.84375
vt 0.671875 0.84375
vt 0.703125 0.875
vt 0.671875 0.84375
vt 0.671875 0.84375
vt 0.703125 0.875
vt 0.671875 0.84375
vt 0.671875 0.84375
vt 0.703125 0.875
vt 0.671875 0.875
vt 0.671875 0.875
vt 0.703125 0.875
vt 0.671875 0.84375
vn 0.09006934389880805 0.44097363547172735 0.892989230678896
vn -0.704001020805773 -0.5506650565475764 0.44849811393347516
vn 0.8080064615359152 0.286619792080029 -0.5147568871848252
vn 0.7712581439495112 -0.44097363547172735 0.4590241041714513
vn -0.24485053445238295 -0.95693065241447 0.15598699384243367
vn -0.5372996083468238 0 -0.8433914458128856
vn 0.3010649293087292 0.9341160822617183 -0.1917995130347016
vn 0.5372996083468238 0 0.8433914458128856
vn 0.4125456985738464 -0.8721991636198688 -0.26282059578544975
vn -0.9717717516558939 -0.04651240800526301 -0.23129258220960658
vn -0.6271088364208679 0.6686735807108475 0.3995123899733259
vn -0.2010662201531478 -0.04651240800526302 0.978472774794924
usemtl m_9ecebd30-4d95-8a5a-80f6-7f023283ba6b
f 72/281/85 71/282/85 73/283/85
f 74/284/86 71/285/86 73/286/86
f 73/287/87 72/288/87 75/289/87
f 75/290/88 74/291/88 73/292/88
f 74/293/89 78/294/89 76/295/89 71/296/89
f 71/297/90 76/298/90 77/299/90 72/300/90
f 72/301/91 77/302/91 79/303/91 75/304/91
f 75/305/92 79/306/92 78/307/92 74/308/92
f 78/309/93 80/310/93 76/311/93
f 76/312/94 80/313/94 77/314/94
f 77/315/95 80/316/95 79/317/95
f 79/318/96 80/319/96 78/320/96
o mesh
v 0.007116550970317742 2.4120062045740314 -0.6285062605688878
v 0.051560779804383894 2.5332378322749745 -0.5650333252566371
v -0.06719942362823919 2.080721443861622 -0.18981333041776363
v -0.5048534819200325 2.4120062148395487 -0.27002099528975043
v -0.46040925308596636 2.5332378425404922 -0.20654805997749975
v -0.18876622377074367 2.446564420834865 -0.9082558645128705
v -0.2167405391192623 2.6164733034091805 -0.948207333319034
v -0.700736256661094 2.446564431100383 -0.5497705992337332
v -0.7287105720096125 2.616473313674698 -0.5897220680398967
v -0.597706267720628 2.1898778054846613 -0.9474556489314587
vt 0.578125 0.828125
vt 0.578125 0.828125
vt 0.578125 0.828125
vt 0.578125 0.828125
vt 0.578125 0.828125
vt 0.578125 0.828125
vt 0.578125 0.828125
vt 0.578125 0.828125
vt 0.578125 0.828125
vt 0.578125 0.828125
vt 0.578125 0.828125
vt 0.578125 0.828125
vt 0.578125 0.828125
vt 0.578125 0.828125
vt 0.578125 0.828125
vt 0.578125 0.828125
vt 0.578125 0.828125
vt 0.578125 0.828125
vt 0.578125 0.828125
vt 0.578125 0.828125
vt 0.578125 0.828125
vt 0.578125 0.828125
vt 0.578125 0.859375
vt 0.578125 0.828125
vt 0.578125 0.828125
vt 0.578125 0.859375
vt 0.578125 0.828125
vt 0.578125 0.828125
vt 0.578125 0.828125
vt 0.609375 0.859375
vt 0.578125 0.828125
vt 0.578125 0.828125
vt 0.609375 0.859375
vt 0.578125 0.828125
vt 0.578125 0.828125
vt 0.609375 0.859375
vt 0.578125 0.859375
vt 0.578125 0.859375
vt 0.609375 0.859375
vt 0.578125 0.828125
vn -0.9481356905491194 0.3093683524152788 0.07300640266990677
vn -0.41458456916732667 -0.6910508575405215 -0.592088124607184
vn 0.5070696583691832 0.46739427012516543 0.7241705308941561
vn -0.39288511612768345 -0.30936832552645394 0.8659864460176583
vn -0.05774647935555592 -0.9949190730066392 -0.0824704934485555
vn 0.8191520526245605 -1.64248279976853e-8 -0.5735764244466198
vn 0.10048455640083687 0.9845347396931518 0.1435067951780167
vn -0.8191520526245605 1.64248279976853e-8 0.5735764244466198
vn 0.39777150977471065 -0.7204628872043556 0.5680766270255372
vn 0.2115141017502204 -0.1905791310096724 -0.9586143017837757
vn -0.5108004862568223 0.4548785150179584 -0.7294987318802214
vn -0.9731448703377965 -0.1905791072560606 -0.12910718497712037
usemtl m_9ecebd30-4d95-8a5a-80f6-7f023283ba6b
f 82/321/97 81/322/97 83/323/97
f 84/324/98 81/325/98 83/326/98
f 83/327/99 82/328/99 85/329/99
f 85/330/100 84/331/100 83/332/100
f 84/333/101 88/334/101 86/335/101 81/336/101
f 81/337/102 86/338/102 87/339/102 82/340/102
f 82/341/103 87/342/103 89/343/103 85/344/103
f 85/345/104 89/346/104 88/347/104 84/348/104
f 88/349/105 90/350/105 86/351/105
f 86/352/106 90/353/106 87/354/106
f 87/355/107 90/356/107 89/357/107
f 89/358/108 90/359/108 88/360/108
o mesh
v -0.4621146011082501 2.885745595305808 -0.47489943214448166
v -0.4974987450872688 3.009152972872543 -0.5205995611251376
v 0.10159479582542225 2.019818285148482 -0.25891306661897084
v -0.38863446755096104 2.8067135890994006 0.2545355929537442
v -0.3377892551913012 2.941302882921815 0.2558382507418937
v -0.7863244503293539 3.0295535456366354 -0.5427335189349078
v -0.8661678441404368 3.184393726597738 -0.5127791973551759
v -0.6266150858977536 2.961703508987491 0.23370368297914662
v -0.7064584797088365 3.1165436899485934 0.2636580045588787
v -1.1938954633731034 2.8761283389614345 -0.13893314653445862
vt 0.921875 0.8125
vt 0.921875 0.8125
vt 0.921875 0.8125
vt 0.921875 0.8125
vt 0.921875 0.8125
vt 0.921875 0.8125
vt 0.921875 0.8125
vt 0.921875 0.8125
vt 0.921875 0.8125
vt 0.921875 0.8125
vt 0.921875 0.8125
vt 0.921875 0.8125
vt 0.921875 0.8125
vt 0.921875 0.8125
vt 0.921875 0.8125
vt 0.921875 0.8125
vt 0.921875 0.8125
vt 0.921875 0.8125
vt 0.921875 0.8125
vt 0.921875 0.8125
vt 0.921875 0.8125
vt 0.921875 0.8125
vt 0.921875 0.84375
vt 0.921875 0.8125
vt 0.921875 0.8125
vt 0.921875 0.84375
vt 0.921875 0.8125
vt 0.921875 0.8125
vt 0.921875 0.8125
vt 0.953125 0.84375
vt 0.921875 0.8125
vt 0.921875 0.8125
vt 0.953125 0.84375
vt 0.921875 0.8125
vt 0.921875 0.8125
vt 0.953125 0.84375
vt 0.921875 0.84375
vt 0.921875 0.84375
vt 0.953125 0.84375
vt 0.921875 0.8125
vn -0.28812142815854563 -0.40410485487718456 -0.8681505105110343
vn -0.8407429969014432 -0.5408050414766118 0.026098281067150418
vn 0.8629790899526371 0.48687967744432603 -0.13496395813782094
vn 0.5286568912095485 -0.20768225108364505 0.8230370428853647
vn -0.5477421368412507 -0.8357076919970978 0.03963842914981085
vn 0.3356343970731714 0.342806098855218 -0.8774015785767628
vn 0.42912214918258 0.903198164557593 -0.009341125238357909
vn -0.09071368761573716 -0.2340365913526734 0.9679865189077668
vn 0.23205151038838867 -0.9637126260674171 -0.13194722765071784
vn -0.6523820577121295 -0.1947057011507977 -0.732452961434838
vn -0.5532454169135291 0.8122656856512676 0.18478085554962587
vn -0.46289244204828467 -0.3924481880730822 0.7948050117939179
usemtl m_9ecebd30-4d95-8a5a-80f6-7f023283ba6b
f 91/361/109 92/362/109 93/363/109
f 94/364/110 91/365/110 93/366/110
f 93/367/111 92/368/111 95/369/111
f 95/370/112 94/371/112 93/372/112
f 94/373/113 98/374/113 96/375/113 91/376/113
f 91/377/114 96/378/114 97/379/114 92/380/114
f 92/381/115 97/382/115 99/383/115 95/384/115
f 95/385/116 99/386/116 98/387/116 94/388/116
f 98/389/117 100/390/117 96/391/117
f 96/392/118 100/393/118 97/394/118
f 97/395/119 100/396/119 99/397/119
f 99/398/120 100/399/120 98/400/120
o mesh
v 0.5042364283449572 3.1313802907537633 -0.5329822898290705
v 0.5654859237939746 3.2882093095917018 -0.5273876773124542
v 0.08562113859174697 1.9878170821248604 -0.08684392631243953
v -0.36197857144733525 3.0438582202550677 -0.7194744348020728
v -0.38543638104008066 3.2049116177255135 -0.6051785901163835
v 0.7938650123988007 3.1912150631057257 -1.3707630372801904
v 0.7821584889678789 3.394928320369277 -1.4457955787388879
v -0.15705729243525463 3.1079173712395374 -1.44855395008412
v -0.16876381586617645 3.3116306285030888 -1.5235864915428174
v 0.38187489112564704 2.794215947358704 -1.805024244608358
vt 0.84375 0.8125
vt 0.84375 0.8125
vt 0.84375 0.8125
vt 0.84375 0.8125
vt 0.84375 0.8125
vt 0.84375 0.8125
vt 0.84375 0.8125
vt 0.84375 0.8125
vt 0.84375 0.8125
vt 0.84375 0.8125
vt 0.84375 0.8125
vt 0.84375 0.8125
vt 0.84375 0.8125
vt 0.84375 0.8125
vt 0.84375 0.8125
vt 0.84375 0.8125
vt 0.84375 0.8125
vt 0.84375 0.8125
vt 0.84375 0.8125
vt 0.84375 0.8125
vt 0.84375 0.8125
vt 0.84375 0.8125
vt 0.84375 0.84375
vt 0.84375 0.8125
vt 0.84375 0.8125
vt 0.84375 0.84375
vt 0.84375 0.8125
vt 0.84375 0.8125
vt 0.84375 0.8125
vt 0.875 0.84375
vt 0.84375 0.8125
vt 0.84375 0.8125
vt 0.875 0.84375
vt 0.84375 0.8125
vt 0.84375 0.8125
vt 0.875 0.84375
vt 0.84375 0.84375
vt 0.84375 0.84375
vt 0.875 0.84375
vt 0.84375 0.8125
vn -0.9307913397243714 0.3616105616401561 0.05352834393478429
vn 0.2313499313030088 -0.4259270304174971 -0.8746790120071624
vn -0.1070277361902545 0.35422456246440653 0.92901562044612
vn -0.9394327252643115 -0.2785479243656928 0.19969278538303029
vn 0.09208457721847045 -0.9938538320140268 -0.06144095726411382
vn 0.9264456742119462 0.17583147858911122 0.3328388557111979
vn -0.09442453180753255 0.9911880436122199 0.09289924646146724
vn -0.9591555794186368 -0.14465629680251849 -0.2430948997109583
vn 0.010317287776504078 -0.7428783248233363 0.6693469564288842
vn 0.7884137454451894 -0.17220693112206323 -0.5905493534554155
vn 0.02705219174377535 0.4997087090898932 -0.8657709772113931
vn -0.6410877255292644 -0.29742675993472495 -0.707491237154529
usemtl m_9ecebd30-4d95-8a5a-80f6-7f023283ba6b
f 102/401/121 101/402/121 103/403/121
f 104/404/122 101/405/122 103/406/122
f 103/407/123 102/408/123 105/409/123
f 105/410/124 104/411/124 103/412/124
f 104/413/125 108/414/125 106/415/125 101/416/125
f 101/417/126 106/418/126 107/419/126 102/420/126
f 102/421/127 107/422/127 109/423/127 105/424/127
f 105/425/128 109/426/128 108/427/128 104/428/128
f 108/429/129 110/430/129 106/431/129
f 106/432/130 110/433/130 107/434/130
f 107/435/131 110/436/131 109/437/131
f 109/438/132 110/439/132 108/440/132
o mesh
v -0.13245975106398533 2.3756416018850257 0.39752294694850043
v -0.15025635644370128 2.428122352356442 0.3486271724022465
v -0.03962047681968546 2.2203540872823466 0.19575228809899278
v 0.16119419764307308 2.375641609183797 0.2906416651038658
v 0.14339759226335713 2.4281223596552133 0.24174589055761178
v -0.06692859327827783 2.398773145514608 0.5775683495094741
v -0.061312359802594765 2.475862439170843 0.5929988315470078
v 0.22672535542878058 2.3987731528133795 0.4706870676648394
v 0.23234158890446366 2.4758624464696144 0.48611754970237314
v 0.13750375818716348 2.289961264554183 0.6823971957183903
vt 0.625 0.859375
vt 0.625 0.859375
vt 0.625 0.859375
vt 0.625 0.859375
vt 0.625 0.859375
vt 0.625 0.859375
vt 0.625 0.859375
vt 0.625 0.859375
vt 0.625 0.859375
vt 0.625 0.859375
vt 0.625 0.859375
vt 0.625 0.859375
vt 0.625 0.859375
vt 0.625 0.859375
vt 0.625 0.859375
vt 0.625 0.859375
vt 0.625 0.859375
vt 0.625 0.859375
vt 0.625 0.859375
vt 0.625 0.859375
vt 0.625 0.859375
vt 0.625 0.859375
vt 0.625 0.890625
vt 0.625 0.859375
vt 0.625 0.859375
vt 0.625 0.890625
vt 0.625 0.859375
vt 0.625 0.859375
vt 0.625 0.859375
vt 0.65625 0.890625
vt 0.625 0.859375
vt 0.625 0.859375
vt 0.65625 0.890625
vt 0.625 0.859375
vt 0.625 0.859375
vt 0.65625 0.890625
vt 0.625 0.890625
vt 0.625 0.890625
vt 0.65625 0.890625
vt 0.625 0.859375
vn 0.9078148695635435 0.40593986158372836 0.10528528566095949
vn 0.23985802562490321 -0.7128682412085909 0.6590045509854187
vn -0.3047703392474234 0.4538287177500631 -0.8373497090584936
vn 0.6277505354797653 -0.4059398234172384 -0.6641853092088451
vn 0.040993795318105174 -0.9927910707651075 0.11262947462582253
vn -0.9396926358625871 -2.335606772568833e-8 0.3420201019028311
vn -0.06175506897684553 0.9835640265469568 -0.16967061365599662
vn 0.9396926358625871 2.335606772568833e-8 -0.3420201019028311
vn -0.18559815300954088 -0.8399570948739389 -0.5099268617854722
vn -0.5075163681495635 -0.13341510654572505 0.8512505773305941
vn 0.26477515135976076 0.6330011091541112 0.7274638925967948
vn 0.9359533945862062 -0.13341507066827296 0.32587062169078285
usemtl m_9ecebd30-4d95-8a5a-80f6-7f023283ba6b
f 112/441/133 111/442/133 113/443/133
f 114/444/134 111/445/134 113/446/134
f 113/447/135 112/448/135 115/449/135
f 115/450/136 114/451/136 113/452/136
f 114/453/137 118/454/137 116/455/137 111/456/137
f 111/457/138 116/458/138 117/459/138 112/460/138
f 112/461/139 117/462/139 119/463/139 115/464/139
f 115/465/140 119/466/140 118/467/140 114/468/140
f 118/469/141 120/470/141 116/471/141
f 116/472/142 120/473/142 117/474/142
f 117/475/143 120/476/143 119/477/143
f 119/478/144 120/479/144 118/480/144
o mesh
v 0.2628065803007581 2.3869691942587083 0.39196261149965184
v 0.21138870015866798 2.443185290336828 0.35330617954687216
v 0.2309376684976123 2.1888603089770946 0.18401565453821367
v 0.4238692217507748 2.4032849611517726 0.2014563877697312
v 0.37245134160868465 2.4595010572298923 0.16279995581695156
v 0.4221555675384012 2.4392156710185184 0.5311581171030308
v 0.425403722722363 2.5336814200390276 0.5419947058178045
v 0.5832182089884179 2.4555314379115827 0.3406518933731103
v 0.5864663641723797 2.549997186932092 0.35148848208788386
v 0.6606592599372416 2.338566490137742 0.5601433440000756
vt 0.625 0.796875
vt 0.625 0.796875
vt 0.625 0.796875
vt 0.625 0.796875
vt 0.625 0.796875
vt 0.625 0.796875
vt 0.625 0.796875
vt 0.625 0.796875
vt 0.625 0.796875
vt 0.625 0.796875
vt 0.625 0.796875
vt 0.625 0.796875
vt 0.625 0.796875
vt 0.625 0.796875
vt 0.625 0.796875
vt 0.625 0.796875
vt 0.625 0.796875
vt 0.625 0.796875
vt 0.625 0.796875
vt 0.625 0.796875
vt 0.625 0.796875
vt 0.625 0.796875
vt 0.625 0.828125
vt 0.625 0.796875
vt 0.625 0.796875
vt 0.625 0.828125
vt 0.625 0.796875
vt 0.625 0.796875
vt 0.625 0.796875
vt 0.65625 0.828125
vt 0.625 0.796875
vt 0.625 0.796875
vt 0.65625 0.828125
vt 0.625 0.796875
vt 0.625 0.796875
vt 0.65625 0.828125
vt 0.625 0.828125
vt 0.625 0.828125
vt 0.65625 0.828125
vt 0.625 0.796875
vn 0.7851121667969233 0.38387961824372074 -0.4860404553578799
vn 0.6315224209694265 -0.6074171988956024 0.4818960243649401
vn -0.7330233877012194 0.33696724957143087 -0.5908720553548737
vn 0.3761327868930098 -0.2662446297722823 -0.8874896752872781
vn 0.22436350264079719 -0.9686434196242442 0.10672836690123014
vn -0.6442505658000668 -0.06526306757225701 0.7620248949196824
vn -0.2715267636143108 0.9509651704411324 -0.14811637738280786
vn 0.6442505658000668 0.06526306757225701 -0.7620248949196824
vn -0.32732264913055276 -0.8769652907032274 -0.351840535282621
vn -0.16426126778632413 -0.10684252875082653 0.9806135375138152
vn 0.5277238732357172 0.6832340386265723 0.5046768887903591
vn 0.9439144058823185 0.00541650168208174 -0.3301458100254463
usemtl m_9ecebd30-4d95-8a5a-80f6-7f023283ba6b
f 122/481/145 121/482/145 123/483/145
f 124/484/146 121/485/146 123/486/146
f 123/487/147 122/488/147 125/489/147
f 125/490/148 124/491/148 123/492/148
f 124/493/149 128/494/149 126/495/149 121/496/149
f 121/497/150 126/498/150 127/499/150 122/500/150
f 122/501/151 127/502/151 129/503/151 125/504/151
f 125/505/152 129/506/152 128/507/152 124/508/152
f 128/509/153 130/510/153 126/511/153
f 126/512/154 130/513/154 127/514/154
f 127/515/155 130/516/155 129/517/155
f 129/518/156 130/519/156 128/520/156
o mesh
v 0.45145021871783264 2.408584433158544 0.14748180913015146
v 0.3973494281750113 2.502682540428512 0.15334392540155828
v 0.17019449734858105 2.1974314583407897 -0.05082919004381739
v 0.4142019838682155 2.4143229481405113 -0.28839189786120784
v 0.36010119332539414 2.508421055410479 -0.282529781589801
v 0.7184400069265169 2.4057435816565755 0.12462839897309039
v 0.7648479204851736 2.5247848664030794 0.12222978522247055
v 0.6811917720768998 2.411482096638543 -0.3112453080182689
v 0.7275996856355564 2.5305233813850467 -0.3136439217688888
v 0.8940594693595596 2.2010046744579763 -0.11264110273895109
vt 0.671875 0.890625
vt 0.671875 0.890625
vt 0.671875 0.890625
vt 0.671875 0.890625
vt 0.671875 0.890625
vt 0.671875 0.890625
vt 0.671875 0.890625
vt 0.671875 0.890625
vt 0.671875 0.890625
vt 0.671875 0.890625
vt 0.671875 0.890625
vt 0.671875 0.890625
vt 0.671875 0.890625
vt 0.671875 0.890625
vt 0.671875 0.890625
vt 0.671875 0.890625
vt 0.671875 0.890625
vt 0.671875 0.890625
vt 0.671875 0.890625
vt 0.671875 0.890625
vt 0.671875 0.890625
vt 0.671875 0.890625
vt 0.671875 0.921875
vt 0.671875 0.890625
vt 0.671875 0.890625
vt 0.671875 0.921875
vt 0.671875 0.890625
vt 0.671875 0.890625
vt 0.671875 0.890625
vt 0.703125 0.921875
vt 0.671875 0.890625
vt 0.671875 0.890625
vt 0.703125 0.921875
vt 0.671875 0.890625
vt 0.671875 0.890625
vt 0.703125 0.921875
vt 0.671875 0.921875
vt 0.671875 0.921875
vt 0.703125 0.921875
vt 0.671875 0.890625
vn 0.4005155561174153 0.28453354012331433 -0.8709925107903351
vn 0.62755910803823 -0.775946784779643 -0.06384475787717869
vn -0.8240356667815794 0.5611695330466749 0.0778072943368099
vn -0.5431039298020605 -0.2625661765167647 -0.7975569724997242
vn -0.011680114672041051 -0.9998577772723198 -0.012165531196962724
vn 0.08513882251341066 -0.013116605673068186 0.9962827588373933
vn -0.058493962688019346 0.998122945383371 0.018139521169999624
vn -0.08513882251341066 0.013116605673068186 -0.9962827588373933
vn -0.7267190015086622 -0.6848805492476352 0.05308602554826056
vn 0.6658487736981844 -0.24538240893552044 0.7045799343932704
vn 0.9072607375666045 0.4143464408615169 -0.07207621671185568
vn 0.5361195135851593 -0.22539613829038185 -0.8134939753907187
usemtl m_9ecebd30-4d95-8a5a-80f6-7f023283ba6b
f 132/521/157 131/522/157 133/523/157
f 134/524/158 131/525/158 133/526/158
f 133/527/159 132/528/159 135/529/159
f 135/530/160 134/531/160 133/532/160
f 134/533/161 138/534/161 136/535/161 131/536/161
f 131/537/162 136/538/162 137/539/162 132/540/162
f 132/541/163 137/542/163 139/543/163 135/544/163
f 135/545/164 139/546/164 138/547/164 134/548/164
f 138/549/165 140/550/165 136/551/165
f 136/552/166 140/553/166 137/554/166
f 137/555/167 140/556/167 139/557/167
f 139/558/168 140/559/168 138/560/168
o mesh
v 0.46721417811794197 2.3520076563731487 -0.4087699809967298
v 0.46958794695761386 2.4106014217034955 -0.3637935317430309
v 0.3040731078899451 2.225138910784544 -0.23345867387740077
v 0.15503525970522378 2.3660524823978526 -0.41059090400478004
v 0.15740902854489566 2.4246462477281994 -0.36561445475108123
v 0.4682795496633077 2.3506674878192504 -0.6017539618513155
v 0.4717746613588208 2.424978377504097 -0.6277938719752705
v 0.15610063125058954 2.3647123138439543 -0.6035748848593658
v 0.15959574294610263 2.439023203528801 -0.6296147949833207
v 0.3072737861672469 2.228537222855719 -0.755971474677571
vt 0.5625 0.875
vt 0.5625 0.875
vt 0.5625 0.875
vt 0.5625 0.875
vt 0.5625 0.875
vt 0.5625 0.875
vt 0.5625 0.875
vt 0.5625 0.875
vt 0.5625 0.875
vt 0.5625 0.875
vt 0.5625 0.875
vt 0.5625 0.875
vt 0.5625 0.875
vt 0.5625 0.875
vt 0.5625 0.875
vt 0.5625 0.875
vt 0.5625 0.875
vt 0.5625 0.875
vt 0.5625 0.875
vt 0.5625 0.875
vt 0.5625 0.875
vt 0.5625 0.875
vt 0.5625 0.90625
vt 0.5625 0.875
vt 0.5625 0.875
vt 0.5625 0.90625
vt 0.5625 0.875
vt 0.5625 0.875
vt 0.5625 0.875
vt 0.59375 0.90625
vt 0.5625 0.875
vt 0.5625 0.875
vt 0.59375 0.90625
vt 0.5625 0.875
vt 0.5625 0.875
vt 0.59375 0.90625
vt 0.5625 0.90625
vt 0.5625 0.90625
vt 0.59375 0.90625
vt 0.5625 0.875
vn -0.7977843234912911 0.38713513873071825 -0.4622408003968176
vn -0.03224439629356311 -0.7952075717773577 -0.6054793280497877
vn 0.020487950338715324 0.5625499495037759 0.8265094059986356
vn -0.8346512334254523 -0.3136924043205579 0.45271889071802485
vn -0.044982138248084454 -0.9989653974224083 0.006688945456523461
vn 0.9989725389206983 -0.04494344327905271 0.005826953625760971
vn 0.04455856782541138 0.997508583545133 0.05469149647916545
vn -0.9989725389206983 0.04494344327905271 -0.005826953625760971
vn -0.03811477009401424 -0.7636250483367205 0.644533978819908
vn 0.7612745252193229 -0.24603547845881693 -0.5999396974626998
vn 0.028756238836543654 0.5292317036977465 -0.8479899070915624
vn -0.77325559527241 -0.1769974771691809 -0.6088905299441405
usemtl m_9ecebd30-4d95-8a5a-80f6-7f023283ba6b
f 142/561/169 141/562/169 143/563/169
f 144/564/170 141/565/170 143/566/170
f 143/567/171 142/568/171 145/569/171
f 145/570/172 144/571/172 143/572/172
f 144/573/173 148/574/173 146/575/173 141/576/173
f 141/577/174 146/578/174 147/579/174 142/580/174
f 142/581/175 147/582/175 149/583/175 145/584/175
f 145/585/176 149/586/176 148/587/176 144/588/176
f 148/589/177 150/590/177 146/591/177
f 146/592/178 150/593/178 147/594/178
f 147/595/179 150/596/179 149/597/179
f 149/598/180 150/599/180 148/600/180
o mesh
v 0.5344903796285772 2.857381749335675 -0.33749074074064556
v 0.5848900488060544 2.976468839971276 -0.380479791237533
v -0.13298033145161658 2.064720420464892 -0.1364450535860776
v 0.458431838341382 2.7687382046796665 0.3905739982494656
v 0.42518059945515435 2.908618788886317 0.3959580323657587
v 1.1327508798445596 2.769834469257666 -0.4133684431034538
v 1.2319684427221356 2.912393829635956 -0.3805021382408246
v 0.9730415559579948 2.7019844714742587 0.3630687705468519
v 1.0722591188355708 2.844543831852549 0.39593507540948114
v 1.2183745525058072 2.4048635382376995 -0.020040643794074775
vt 0.875 0.90625
vt 0.875 0.90625
vt 0.875 0.90625
vt 0.875 0.90625
vt 0.875 0.90625
vt 0.875 0.90625
vt 0.875 0.90625
vt 0.875 0.90625
vt 0.875 0.90625
vt 0.875 0.90625
vt 0.875 0.90625
vt 0.875 0.90625
vt 0.875 0.90625
vt 0.875 0.90625
vt 0.875 0.90625
vt 0.875 0.90625
vt 0.875 0.90625
vt 0.875 0.90625
vt 0.875 0.90625
vt 0.875 0.90625
vt 0.875 0.9375
vt 0.875 0.90625
vt 0.875 0.90625
vt 0.875 0.90625
vt 0.875 0.90625
vt 0.875 0.9375
vt 0.875 0.90625
vt 0.875 0.90625
vt 0.90625 0.9375
vt 0.875 0.90625
vt 0.875 0.90625
vt 0.90625 0.9375
vt 0.875 0.90625
vt 0.875 0.90625
vt 0.90625 0.9375
vt 0.875 0.90625
vt 0.875 0.9375
vt 0.90625 0.9375
vt 0.875 0.9375
vt 0.875 0.90625
vn 0.22601137541851643 -0.4139670308796266 -0.8817880445584059
vn 0.7651179836734308 -0.6438882794062782 0.0015345040652840207
vn -0.7950780136332366 0.5961801909484284 -0.11144564665217985
vn -0.5430198477270752 -0.16080495566689862 0.8241791135471895
vn -0.1337736518633639 -0.9844854765741222 -0.11354715532219717
vn -0.08089351630086138 0.2770344947320881 -0.9574487598555963
vn 0.09798204410989739 0.9894603336302867 0.10661973177741559
vn -0.020839985295514733 -0.21080845633621792 0.9773052183171969
vn -0.8716803581413328 -0.43908206842550784 -0.217670141309679
vn 0.74764782654323 -0.3977356769529116 -0.531816752974174
vn 0.9698291123600397 0.12336255121308073 0.2102692887160122
vn 0.49263272002544256 -0.506074839569721 0.7079556906437121
usemtl m_9ecebd30-4d95-8a5a-80f6-7f023283ba6b
f 152/601/181 151/602/181 153/603/181
f 151/604/182 154/605/182 153/606/182
f 152/607/183 153/608/183 155/609/183
f 154/610/184 155/611/184 153/612/184
f 156/613/185 158/614/185 154/615/185 151/616/185
f 157/617/186 156/618/186 151/619/186 152/620/186
f 159/621/187 157/622/187 152/623/187 155/624/187
f 158/625/188 159/626/188 155/627/188 154/628/188
f 160/629/189 158/630/189 156/631/189
f 160/632/190 156/633/190 157/634/190
f 160/635/191 157/636/191 159/637/191
f 160/638/192 159/639/192 158/640/192
o mesh
v 0.25 0.3125 0.25
v 0.25 0.3125 -0.25
v 0.5 0 0.5
v 0.5 0 -0.5
v 0.25 1.09375 0.25
v 0.25 1.09375 -0.25
v 0.28125 1.15625 0.28125
v 0.28125 1.15625 -0.28125
v 0.25 1.21875 0.25
v 0.25 1.21875 -0.25
v 0.25 1.28125 0.25
v 0.25 1.28125 -0.25
v 0.3125 1.34375 0.3125
v 0.3125 1.34375 -0.3125
v 0.28125 1.40625 0.28125
v 0.28125 1.40625 -0.28125
v 0.5 1.46875 0.5
v 0.5 1.46875 -0.5
v 0.5625 1.6875 0.5625
v 0.5625 1.6875 -0.5625
v 0.5625 2.1875 0.5625
v 0.5625 2.1875 -0.5625
v 0.59375 2.25 0.59375
v 0.59375 2.25 -0.59375
v 0.484375 2.25 0.484375
v 0.484375 2.25 -0.484375
v 0.5390625 2.3125 -0.5390625
v 0.5390625 2.3125 0.5390625
v -0.25 0.3125 0.25
v -0.25 0.3125 -0.25
v -0.5 0 0.5
v -0.5 0 -0.5
v -0.25 1.09375 0.25
v -0.25 1.09375 -0.25
v -0.28125 1.15625 0.28125
v -0.28125 1.15625 -0.28125
v -0.25 1.21875 0.25
v -0.25 1.21875 -0.25
v -0.25 1.28125 0.25
v -0.25 1.28125 -0.25
v -0.3125 1.34375 0.3125
v -0.3125 1.34375 -0.3125
v -0.28125 1.40625 0.28125
v -0.28125 1.40625 -0.28125
v -0.5 1.46875 0.5
v -0.5 1.46875 -0.5
v -0.5625 1.6875 0.5625
v -0.5625 1.6875 -0.5625
v -0.5625 2.1875 0.5625
v -0.5625 2.1875 -0.5625
v -0.59375 2.25 0.59375
v -0.59375 2.25 -0.59375
v -0.484375 2.25 0.484375
v -0.484375 2.25 -0.484375
v -0.5390625 2.3125 -0.5390625
v -0.5390625 2.3125 0.5390625
vt 0.125 0.6875
vt 0.125 0.6875
vt 0.125 0.6875
vt 0.125 0.6875
vt 0.078125 0.875
vt 0.078125 0.875
vt 0.078125 0.875
vt 0.078125 0.875
vt 0.078125 0.875
vt 0.078125 0.875
vt 0.078125 0.875
vt 0.078125 0.875
vt 0.078125 0.875
vt 0.078125 0.875
vt 0.078125 0.875
vt 0.078125 0.875
vt 0.078125 0.875
vt 0.078125 0.875
vt 0.078125 0.875
vt 0.078125 0.875
vt 0.078125 0.875
vt 0.078125 0.875
vt 0.078125 0.875
vt 0.078125 0.875
vt 0.359375 0.84375
vt 0.359375 0.84375
vt 0.359375 0.84375
vt 0.359375 0.84375
vt 0.359375 0.84375
vt 0.359375 0.84375
vt 0.359375 0.84375
vt 0.359375 0.84375
vt 0.359375 0.84375
vt 0.359375 0.84375
vt 0.359375 0.84375
vt 0.359375 0.84375
vt 0.359375 0.84375
vt 0.359375 0.84375
vt 0.359375 0.84375
vt 0.359375 0.84375
vt 0.078125 0.875
vt 0.078125 0.875
vt 0.078125 0.875
vt 0.078125 0.875
vt 0.078125 0.875
vt 0.078125 0.875
vt 0.078125 0.875
vt 0.078125 0.875
vt 0.359375 0.84375
vt 0.359375 0.84375
vt 0.359375 0.84375
vt 0.359375 0.84375
vt 0.359375 0.84375
vt 0.359375 0.84375
vt 0.359375 0.84375
vt 0.359375 0.84375
vt 0.359375 0.84375
vt 0.359375 0.84375
vt 0.359375 0.84375
vt 0.359375 0.84375
vt 0.359375 0.84375
vt 0.359375 0.84375
vt 0.359375 0.84375
vt 0.359375 0.84375
vt 0.078125 0.875
vt 0.078125 0.875
vt 0.078125 0.875
vt 0.078125 0.875
vt 0.078125 0.875
vt 0.078125 0.875
vt 0.078125 0.875
vt 0.078125 0.875
vt 0.078125 0.875
vt 0.078125 0.875
vt 0.078125 0.875
vt 0.078125 0.875
vt 0.078125 0.875
vt 0.078125 0.875
vt 0.078125 0.875
vt 0.078125 0.875
vt 0.078125 0.875
vt 0.078125 0.875
vt 0.078125 0.875
vt 0.078125 0.875
vt 0.078125 0.875
vt 0.078125 0.875
vt 0.078125 0.875
vt 0.078125 0.875
vt 0.359375 0.84375
vt 0.359375 0.84375
vt 0.359375 0.84375
vt 0.359375 0.84375
vt 0.359375 0.84375
vt 0.390625 0.84375
vt 0.359375 0.84375
vt 0.359375 0.84375
vt 0.375 0.875
vt 0.34375 0.84375
vt 0.34375 0.84375
vt 0.34375 0.84375
vt 0.359375 0.84375
vt 0.390625 0.875
vt 0.390625 0.84375
vt 0.359375 0.84375
vt 0.34375 0.84375
vt 0.34375 0.875
vt 0.34375 0.84375
vt 0.34375 0.84375
vt 0.359375 0.875
vt 0.359375 0.84375
vt 0.359375 0.84375
vt 0.359375 0.84375
vt 0.078125 0.875
vt 0.078125 0.875
vt 0.078125 0.875
vt 0.078125 0.875
vt 0.078125 0.875
vt 0.078125 0.875
vt 0.078125 0.875
vt 0.078125 0.875
vt 0.359375 0.84375
vt 0.359375 0.84375
vt 0.359375 0.84375
vt 0.359375 0.84375
vt 0.359375 0.84375
vt 0.359375 0.84375
vt 0.359375 0.84375
vt 0.359375 0.84375
vt 0.078125 0.875
vt 0.078125 0.875
vt 0.078125 0.875
vt 0.078125 0.875
vt 0.359375 0.84375
vt 0.359375 0.84375
vt 0.359375 0.84375
vt 0.359375 0.84375
vt 0.359375 0.84375
vt 0.359375 0.84375
vt 0.359375 0.84375
vt 0.359375 0.84375
vt 0.078125 0.875
vt 0.078125 0.875
vt 0.078125 0.875
vt 0.078125 0.875
vt 0.078125 0.875
vt 0.078125 0.875
vt 0.078125 0.875
vt 0.078125 0.875
vt 0.078125 0.875
vt 0.078125 0.875
vt 0.078125 0.875
vt 0.078125 0.875
vt 0.359375 0.84375
vt 0.390625 0.84375
vt 0.359375 0.84375
vt 0.359375 0.84375
vt 0.34375 0.84375
vt 0.34375 0.875
vt 0.375 0.875
vt 0.34375 0.84375
vt 0.390625 0.84375
vt 0.390625 0.875
vt 0.359375 0.875
vt 0.359375 0.84375
vt 0.078125 0.875
vt 0.078125 0.875
vt 0.078125 0.875
vt 0.078125 0.875
vt 0.078125 0.875
vt 0.078125 0.875
vt 0.078125 0.875
vt 0.078125 0.875
vt 0.359375 0.84375
vt 0.359375 0.84375
vt 0.359375 0.84375
vt 0.359375 0.84375
vt 0.359375 0.84375
vt 0.359375 0.84375
vt 0.359375 0.84375
vt 0.359375 0.84375
vt 0.078125 0.875
vt 0.078125 0.875
vt 0.078125 0.875
vt 0.078125 0.875
vt 0.359375 0.84375
vt 0.359375 0.84375
vt 0.359375 0.84375
vt 0.359375 0.84375
vt 0.359375 0.84375
vt 0.359375 0.84375
vt 0.359375 0.84375
vt 0.359375 0.84375
vt 0.078125 0.875
vt 0.078125 0.875
vt 0.078125 0.875
vt 0.078125 0.875
vt 0.078125 0.875
vt 0.078125 0.875
vt 0.078125 0.875
vt 0.078125 0.875
vt 0.078125 0.875
vt 0.078125 0.875
vt 0.078125 0.875
vt 0.078125 0.875
vt 0.359375 0.84375
vt 0.359375 0.84375
vt 0.359375 0.84375
vt 0.359375 0.84375
vt 0.34375 0.84375
vt 0.34375 0.84375
vt 0.34375 0.84375
vt 0.34375 0.84375
vt 0.359375 0.84375
vt 0.359375 0.84375
vt 0.359375 0.84375
vt 0.359375 0.84375
vn 0 1 0
vn 0 -1 0
vn 0 0.6246950475544243 0.7808688094430304
vn 0 0.6246950475544243 -0.7808688094430304
vn 0 0 1
vn 0 0 -1
vn 0 -0.44721359549995804 0.8944271909999161
vn 0 -0.44721359549995804 -0.8944271909999161
vn 0 0.44721359549995804 0.8944271909999161
vn 0 0.44721359549995804 -0.8944271909999161
vn 0 0 1
vn 0 0 -1
vn 0 -0.7071067811865476 0.7071067811865476
vn 0 -0.7071067811865476 -0.7071067811865476
vn 0 0.44721359549995804 0.8944271909999161
vn 0 0.44721359549995804 -0.8944271909999161
vn 0 -0.9615239476408232 0.27472112789737807
vn 0 -0.9615239476408232 -0.27472112789737807
vn 0 -0.27472112789737807 0.9615239476408232
vn 0 -0.27472112789737807 -0.9615239476408232
vn 0 0 1
vn 0 0 -1
vn 0 -0.44721359549995804 0.8944271909999161
vn 0 -0.44721359549995804 -0.8944271909999161
vn 0 0.658504607868518 0.7525766947068778
vn 0 0.658504607868518 -0.7525766947068778
vn 0 0.658504607868518 -0.7525766947068778
vn 0 0.658504607868518 0.7525766947068778
vn 0.7808688094430304 0.6246950475544243 0
vn 1 0 0
vn 0.8944271909999161 -0.44721359549995804 0
vn 0.8944271909999161 0.44721359549995804 0
vn 1 0 0
vn 0.7071067811865476 -0.7071067811865476 0
vn 0.8944271909999161 0.44721359549995804 0
vn 0.27472112789737807 -0.9615239476408232 0
vn 0.9615239476408232 -0.27472112789737807 0
vn 1 0 0
vn 0.8944271909999161 -0.44721359549995804 0
vn -0.7525766947068778 0.658504607868518 0
vn 0.7525766947068778 0.658504607868518 0
vn -0.7808688094430304 0.6246950475544243 0
vn -1 0 0
vn -0.8944271909999161 -0.44721359549995804 0
vn -0.8944271909999161 0.44721359549995804 0
vn -1 0 0
vn -0.7071067811865476 -0.7071067811865476 0
vn -0.8944271909999161 0.44721359549995804 0
vn -0.27472112789737807 -0.9615239476408232 0
vn -0.9615239476408232 -0.27472112789737807 0
vn -1 0 0
vn -0.8944271909999161 -0.44721359549995804 0
vn 0.7525766947068778 0.658504607868518 0
vn -0.7525766947068778 0.658504607868518 0
usemtl m_9ecebd30-4d95-8a5a-80f6-7f023283ba6b
f 213/641/193 185/642/193 186/643/193 214/644/193
f 164/645/194 163/646/194 191/647/194 192/648/194
f 163/649/195 161/650/195 189/651/195 191/652/195
f 190/653/196 162/654/196 164/655/196 192/656/196
f 165/657/197 193/658/197 189/659/197 161/660/197
f 194/661/198 166/662/198 162/663/198 190/664/198
f 167/665/199 195/666/199 193/667/199 165/668/199
f 196/669/200 168/670/200 166/671/200 194/672/200
f 169/673/201 197/674/201 195/675/201 167/676/201
f 198/677/202 170/678/202 168/679/202 196/680/202
f 171/681/203 199/682/203 197/683/203 169/684/203
f 200/685/204 172/686/204 170/687/204 198/688/204
f 173/689/205 201/690/205 199/691/205 171/692/205
f 202/693/206 174/694/206 172/695/206 200/696/206
f 175/697/207 203/698/207 201/699/207 173/700/207
f 204/701/208 176/702/208 174/703/208 202/704/208
f 177/705/209 205/706/209 203/707/209 175/708/209
f 206/709/210 178/710/210 176/711/210 204/712/210
f 179/713/211 207/714/211 205/715/211 177/716/211
f 208/717/212 180/718/212 178/719/212 206/720/212
f 181/721/213 209/722/213 207/723/213 179/724/213
f 210/725/214 182/726/214 180/727/214 208/728/214
f 183/729/215 211/730/215 209/731/215 181/732/215
f 212/733/216 184/734/216 182/735/216 210/736/216
f 187/737/217 215/738/217 214/739/217 186/740/217
f 215/741/218 187/742/218 184/743/218 212/744/218
f 216/745/219 188/746/219 185/747/219 213/748/219
f 188/749/220 216/750/220 211/751/220 183/752/220
f 162/753/221 161/754/221 163/755/221 164/756/221
f 162/757/222 166/758/222 165/759/222 161/760/222
f 166/761/223 168/762/223 167/763/223 165/764/223
f 168/765/224 170/766/224 169/767/224 167/768/224
f 170/769/225 172/770/225 171/771/225 169/772/225
f 172/773/226 174/774/226 173/775/226 171/776/226
f 174/777/227 176/778/227 175/779/227 173/780/227
f 176/781/228 178/782/228 177/783/228 175/784/228
f 178/785/229 180/786/229 179/787/229 177/788/229
f 180/789/230 182/790/230 181/791/230 179/792/230
f 182/793/231 184/794/231 183/795/231 181/796/231
f 185/797/232 188/798/232 187/799/232 186/800/232
f 184/801/233 187/802/233 188/803/233 183/804/233
f 191/805/234 189/806/234 190/807/234 192/808/234
f 193/809/235 194/810/235 190/811/235 189/812/235
f 195/813/236 196/814/236 194/815/236 193/816/236
f 197/817/237 198/818/237 196/819/237 195/820/237
f 199/821/238 200/822/238 198/823/238 197/824/238
f 201/825/239 202/826/239 200/827/239 199/828/239
f 203/829/240 204/830/240 202/831/240 201/832/240
f 205/833/241 206/834/241 204/835/241 203/836/241
f 207/837/242 208/838/242 206/839/242 205/840/242
f 209/841/243 210/842/243 208/843/243 207/844/243
f 211/845/244 212/846/244 210/847/244 209/848/244
f 215/849/245 216/850/245 213/851/245 214/852/245
f 216/853/246 215/854/246 212/855/246 211/856/246