# Made in Blockbench 5.1.4
mtllib Mo_Shrolm_Head.mtl

o Head3Dw/oClaws
v 0.392939 0.789228 1.641932
v 0.392939 0.829351 1.670612
v 0.467099 0.764128 1.846132
v 0.331469 0.889565 2.016279
v 0.311811 0.887158 2.132051
v 0.385971 0.819569 2.200428
v 0.385971 0.821283 2.1083
v 0.238399 0.46216 2.584393
v 0.311811 0.472555 2.495958
v 0.385971 0.52438 2.490015
v 0.312559 0.510392 2.560389
v 0.392487 0.549486 1.901062
v 0.392939 0.72438 1.712416
v 0.405629 0.578965 2.016914
v 0.311811 0.398054 2.1197
v 0.331469 0.415844 1.999664
v 0.385971 0.484004 2.095078
v 0.385971 0.471337 2.1906
v 0.189068 0.749908 2.67323
v 0.157796 0.710001 2.792855
v 0.266835 0.673863 2.779741
v 0.287851 0.692071 2.684791
v 0.091842 0.550111 3.189851
v 0.098692 0.464293 3.125037
v 0.189401 0.483286 3.045053
v 0.392939 0.893547 1.903276
v 0.405629 0.824118 2.018375
v 0.311811 0.865534 2.301937
v 0.311811 0.854405 2.501848
v 0.385971 0.796249 2.494702
v 0.385971 0.804173 2.335619
v 0.200473 0.37326 2.855126
v 0.21282 0.399758 2.704131
v 0.248345 0.465962 2.680893
v 0.242347 0.44723 2.812104
v 0.311811 0.428945 2.300242
v 0.385971 0.493331 2.33427
v 0.392939 0.872483 1.777896
v 0.238399 0.804 2.589292
v 0.312559 0.753774 2.564288
v 0.147661 0.384023 2.972443
v 0.211297 0.423551 2.931221
v 0 0.860946 2.605063
v 0 0.795295 2.726822
v 0 0.915466 1.689143
v 0 0.940646 1.830675
v 0 0.437397 2.499706
v 0 0.385266 2.278778
v 0 0.680567 2.963443
v 0 0.672232 3.120039
v 0.067151 0.646132 3.113327
v 0.126983 0.653104 2.932872
v 0.454675 0.703675 2.018375
v 0 0.673192 3.223024
v 0 0.628839 3.266675
v 0.091795 0.619911 3.209736
v 0.063549 0.646935 3.190942
v 0 0.346044 2.872522
v 0 0.377719 2.733479
v 0 0.907159 2.280692
v 0 0.893856 2.506355
v 0 0.935887 1.958235
v 0 0.726776 2.83442
v 0 0.738427 1.615228
v 0 0.815945 1.535665
v 0.229382 0.730227 1.671963
v 0 0.34834 2.074979
v 0 0.369606 1.93948
v 0.183934 0.395264 1.972876
v 0 0.52935 1.828384
v 0.220639 0.540659 1.869204
v 0 0.452315 2.599533
v 0 0.933009 2.088921
v 0 0.863907 1.568039
v 0 0.35891 3.013059
v 0 0.454864 3.209824
v 0.435017 0.686021 2.102352
v 0.435017 0.677451 2.194873
v 0.435017 0.650344 2.330302
v 0.412805 0.630653 2.490015
v 0.324142 0.600523 2.560389
v 0.297392 0.565343 2.680893
v 0.291394 0.554243 2.775831
v 0.260344 0.550269 2.896537
v 0.22182 0.64634 2.923177
v 0.200023 0.571954 3.02546
v 0.144908 0.621832 3.062828
v 0 0.529898 3.257403
v 0 0.369606 1.93948
v 0.331469 0.415844 1.999664
v 0.184008 0.395274 1.97289
v 0.116649 0.5007 1.859825
v 0.112878 0.404163 1.918264
v 0.272485 0.437515 1.960735
v 0.299087 0.530771 1.90613
v 0.196359 0.421608 1.940479
v 0.216695 0.51719 1.885218
v -0.392939 0.789228 1.641932
v -0.467099 0.764128 1.846132
v -0.392939 0.829351 1.670612
v -0.331469 0.889565 2.016279
v -0.385971 0.821283 2.1083
v -0.385971 0.819569 2.200428
v -0.311811 0.887158 2.132051
v -0.238399 0.46216 2.584393
v -0.312559 0.510392 2.560389
v -0.385971 0.52438 2.490015
v -0.311811 0.472555 2.495958
v -0.392487 0.549486 1.901062
v -0.405629 0.578965 2.016914
v -0.392939 0.72438 1.712416
v -0.311811 0.398054 2.1197
v -0.385971 0.471337 2.1906
v -0.385971 0.484004 2.095078
v -0.331469 0.415844 1.999664
v -0.189068 0.749908 2.67323
v -0.287851 0.692071 2.684791
v -0.266835 0.673863 2.779741
v -0.157796 0.710001 2.792855
v -0.091842 0.550111 3.189851
v -0.189401 0.483286 3.045053
v -0.098692 0.464293 3.125037
v -0.392939 0.893547 1.903276
v -0.405629 0.824118 2.018375
v -0.311811 0.865534 2.301937
v -0.385971 0.804173 2.335619
v -0.385971 0.796249 2.494702
v -0.311811 0.854405 2.501848
v -0.200473 0.37326 2.855126
v -0.242347 0.44723 2.812104
v -0.248345 0.465962 2.680893
v -0.21282 0.399758 2.704131
v -0.385971 0.493331 2.33427
v -0.311811 0.428945 2.300242
v -0.392939 0.872483 1.777896
v -0.238399 0.804 2.589292
v -0.312559 0.753774 2.564288
v -0.211297 0.423551 2.931221
v -0.147661 0.384023 2.972443
v -0.126983 0.653104 2.932872
v -0.067151 0.646132 3.113327
v -0.454675 0.703675 2.018375
v -0.063549 0.646935 3.190942
v -0.091795 0.619911 3.209736
v -0.229382 0.730227 1.671963
v -0.183934 0.395264 1.972876
v -0.220639 0.540659 1.869204
v -0.435017 0.686021 2.102352
v -0.435017 0.677451 2.194873
v -0.435017 0.650344 2.330302
v -0.412805 0.630653 2.490015
v -0.324142 0.600523 2.560389
v -0.297392 0.565343 2.680893
v -0.291394 0.554243 2.775831
v -0.260344 0.550269 2.896537
v -0.22182 0.64634 2.923177
v -0.200023 0.571954 3.02546
v -0.144908 0.621832 3.062828
v -0.331469 0.415844 1.999664
v -0.116649 0.5007 1.859825
v -0.112878 0.404163 1.918264
v -0.272485 0.437515 1.960735
v -0.299087 0.530771 1.90613
v -0.184008 0.395274 1.97289
v -0.196359 0.421608 1.940479
v -0.216695 0.51719 1.885218
vt 0.09375 0.84375
vt 0.09375 0.84375
vt 0.09375 0.84375
vt 0.09375 0.84375
vt 0.09375 0.84375
vt 0.09375 0.84375
vt 0.09375 0.84375
vt 0.09375 0.84375
vt 0.09375 0.84375
vt 0.09375 0.84375
vt 0.09375 0.84375
vt 0.09375 0.84375
vt 0.09375 0.84375
vt 0.09375 0.84375
vt 0.09375 0.84375
vt 0.09375 0.84375
vt 0.09375 0.84375
vt 0.09375 0.84375
vt 0.09375 0.84375
vt 0.09375 0.84375
vt 0.09375 0.84375
vt 0.09375 0.84375
vt 0.09375 0.84375
vt 0.09375 0.84375
vt 0.09375 0.84375
vt 0.09375 0.84375
vt 0.09375 0.84375
vt 0.09375 0.84375
vt 0.09375 0.84375
vt 0.09375 0.84375
vt 0.09375 0.84375
vt 0.09375 0.84375
vt 0.09375 0.84375
vt 0.09375 0.84375
vt 0.09375 0.84375
vt 0.09375 0.84375
vt 0.09375 0.84375
vt 0.09375 0.84375
vt 0.09375 0.84375
vt 0.09375 0.84375
vt 0.09375 0.84375
vt 0.09375 0.84375
vt 0.09375 0.84375
vt 0.09375 0.84375
vt 0.09375 0.84375
vt 0.09375 0.84375
vt 0.09375 0.84375
vt 0.09375 0.84375
vt 0.09375 0.84375
vt 0.09375 0.84375
vt 0.09375 0.84375
vt 0.09375 0.84375
vt 0.09375 0.84375
vt 0.09375 0.84375
vt 0.09375 0.84375
vt 0.09375 0.84375
vt 0.09375 0.84375
vt 0.09375 0.84375
vt 0.09375 0.84375
vt 0.09375 0.84375
vt 0.09375 0.84375
vt 0.09375 0.84375
vt 0.09375 0.84375
vt 0.09375 0.84375
vt 0.09375 0.84375
vt 0.09375 0.84375
vt 0.09375 0.84375
vt 0.09375 0.84375
vt 0.09375 0.84375
vt 0.09375 0.84375
vt 0.09375 0.84375
vt 0.09375 0.84375
vt 0.09375 0.84375
vt 0.09375 0.84375
vt 0.09375 0.84375
vt 0.09375 0.84375
vt 0.09375 0.84375
vt 0.09375 0.84375
vt 0.09375 0.84375
vt 0.09375 0.84375
vt 0.09375 0.84375
vt 0.09375 0.84375
vt 0.09375 0.84375
vt 0.09375 0.84375
vt 0.09375 0.84375
vt 0.09375 0.84375
vt 0.09375 0.84375
vt 0.09375 0.84375
vt 0.09375 0.84375
vt 0.09375 0.84375
vt 0.09375 0.84375
vt 0.09375 0.84375
vt 0.09375 0.84375
vt 0.09375 0.84375
vt 0.09375 0.84375
vt 0.09375 0.84375
vt 0.09375 0.84375
vt 0.09375 0.84375
vt 0.09375 0.84375
vt 0.09375 0.84375
vt 0.09375 0.84375
vt 0.09375 0.84375
vt 0.09375 0.84375
vt 0.09375 0.84375
vt 0.09375 0.84375
vt 0.09375 0.84375
vt 0.09375 0.84375
vt 0.09375 0.84375
vt 0.09375 0.84375
vt 0.09375 0.84375
vt 0.09375 0.84375
vt 0.09375 0.84375
vt 0.09375 0.84375
vt 0.09375 0.84375
vt 0.09375 0.84375
vt 0.09375 0.84375
vt 0.09375 0.84375
vt 0.09375 0.84375
vt 0.09375 0.84375
vt 0.09375 0.84375
vt 0.09375 0.84375
vt 0.09375 0.84375
vt 0.09375 0.84375
vt 0.09375 0.84375
vt 0.09375 0.84375
vt 0.09375 0.84375
vt 0.09375 0.84375
vt 0.09375 0.84375
vt 0.09375 0.84375
vt 0.09375 0.84375
vt 0.09375 0.84375
vt 0.09375 0.84375
vt 0.09375 0.84375
vt 0.09375 0.84375
vt 0.09375 0.84375
vt 0.09375 0.84375
vt 0.09375 0.84375
vt 0.09375 0.84375
vt 0.09375 0.84375
vt 0.09375 0.84375
vt 0.09375 0.84375
vt 0.09375 0.84375
vt 0.09375 0.84375
vt 0.09375 0.84375
vt 0.09375 0.84375
vt 0.09375 0.84375
vt 0.09375 0.84375
vt 0.09375 0.84375
vt 0.09375 0.84375
vt 0.09375 0.84375
vt 0.09375 0.84375
vt 0.09375 0.84375
vt 0.09375 0.84375
vt 0.09375 0.84375
vt 0.09375 0.84375
vt 0.09375 0.84375
vt 0.09375 0.84375
vt 0.09375 0.84375
vt 0.09375 0.84375
vt 0.09375 0.84375
vt 0.09375 0.84375
vt 0.09375 0.84375
vt 0.09375 0.84375
vt 0.09375 0.84375
vt 0.09375 0.84375
vt 0.09375 0.84375
vt 0.09375 0.84375
vt 0.09375 0.84375
vt 0.09375 0.84375
vt 0.09375 0.84375
vt 0.09375 0.84375
vt 0.09375 0.84375
vt 0.09375 0.84375
vt 0.09375 0.84375
vt 0.09375 0.84375
vt 0.09375 0.84375
vt 0.09375 0.84375
vt 0.09375 0.84375
vt 0.09375 0.84375
vt 0.09375 0.84375
vt 0.09375 0.84375
vt 0.09375 0.84375
vt 0.09375 0.84375
vt 0.09375 0.84375
vt 0.09375 0.84375
vt 0.09375 0.84375
vt 0.09375 0.84375
vt 0.09375 0.84375
vt 0.09375 0.84375
vt 0.09375 0.84375
vt 0.09375 0.84375
vt 0.09375 0.84375
vt 0.09375 0.84375
vt 0.09375 0.84375
vt 0.09375 0.84375
vt 0.09375 0.84375
vt 0.09375 0.84375
vt 0.09375 0.84375
vt 0.09375 0.84375
vt 0.09375 0.84375
vt 0.09375 0.84375
vt 0.09375 0.84375
vt 0.09375 0.84375
vt 0.09375 0.84375
vt 0.09375 0.84375
vt 0.09375 0.84375
vt 0.09375 0.84375
vt 0.09375 0.84375
vt 0.09375 0.84375
vt 0.09375 0.84375
vt 0.09375 0.84375
vt 0.09375 0.84375
vt 0.09375 0.84375
vt 0.09375 0.84375
vt 0.09375 0.84375
vt 0.09375 0.84375
vt 0.09375 0.84375
vt 0.09375 0.84375
vt 0.09375 0.84375
vt 0.09375 0.84375
vt 0.09375 0.84375
vt 0.09375 0.84375
vt 0.09375 0.84375
vt 0.09375 0.84375
vt 0.09375 0.84375
vt 0.09375 0.84375
vt 0.09375 0.84375
vt 0.09375 0.84375
vt 0.09375 0.84375
vt 0.09375 0.84375
vt 0.09375 0.84375
vt 0.09375 0.84375
vt 0.09375 0.84375
vt 0.09375 0.84375
vt 0.09375 0.84375
vt 0.09375 0.84375
vt 0.09375 0.84375
vt 0.09375 0.84375
vt 0.09375 0.84375
vt 0.09375 0.84375
vt 0.09375 0.84375
vt 0.09375 0.84375
vt 0.09375 0.84375
vt 0.09375 0.84375
vt 0.09375 0.84375
vt 0.09375 0.84375
vt 0.09375 0.84375
vt 0.09375 0.84375
vt 0.09375 0.84375
vt 0.09375 0.84375
vt 0.09375 0.84375
vt 0.09375 0.84375
vt 0.09375 0.84375
vt 0.09375 0.84375
vt 0.09375 0.84375
vt 0.09375 0.84375
vt 0.09375 0.84375
vt 0.09375 0.84375
vt 0.09375 0.84375
vt 0.09375 0.84375
vt 0.09375 0.84375
vt 0.09375 0.84375
vt 0.09375 0.84375
vt 0.09375 0.84375
vt 0.09375 0.84375
vt 0.09375 0.84375
vt 0.09375 0.84375
vt 0.09375 0.84375
vt 0.09375 0.84375
vt 0.09375 0.84375
vt 0.09375 0.84375
vt 0.09375 0.84375
vt 0.09375 0.84375
vt 0.09375 0.84375
vt 0.09375 0.84375
vt 0.09375 0.84375
vt 0.09375 0.84375
vt 0.09375 0.84375
vt 0.09375 0.84375
vt 0.09375 0.84375
vt 0.09375 0.84375
vt 0.09375 0.84375
vt 0.09375 0.84375
vt 0.09375 0.84375
vt 0.09375 0.84375
vt 0.09375 0.84375
vt 0.09375 0.84375
vt 0.09375 0.84375
vt 0.09375 0.84375
vt 0.09375 0.84375
vt 0.09375 0.84375
vt 0.09375 0.84375
vt 0.09375 0.84375
vt 0.09375 0.84375
vt 0.09375 0.84375
vt 0.09375 0.84375
vt 0.09375 0.84375
vt 0.09375 0.84375
vt 0.09375 0.84375
vt 0.09375 0.84375
vt 0.09375 0.84375
vt 0.09375 0.84375
vt 0.09375 0.84375
vt 0.09375 0.84375
vt 0.09375 0.84375
vt 0.09375 0.84375
vt 0.09375 0.84375
vt 0.09375 0.84375
vt 0.09375 0.84375
vt 0.09375 0.84375
vt 0.09375 0.84375
vt 0.09375 0.84375
vt 0.09375 0.84375
vt 0.09375 0.84375
vt 0.09375 0.84375
vt 0.09375 0.84375
vt 0.09375 0.84375
vt 0.09375 0.84375
vt 0.09375 0.84375
vt 0.09375 0.84375
vt 0.09375 0.84375
vt 0.09375 0.84375
vt 0.09375 0.84375
vt 0.09375 0.84375
vt 0.09375 0.84375
vt 0.09375 0.84375
vt 0.09375 0.84375
vt 0.09375 0.84375
vt 0.09375 0.84375
vt 0.09375 0.84375
vt 0.09375 0.84375
vt 0.09375 0.84375
vt 0.09375 0.84375
vt 0.09375 0.84375
vt 0.09375 0.84375
vt 0.09375 0.84375
vt 0.09375 0.84375
vt 0.09375 0.84375
vt 0.09375 0.84375
vt 0.09375 0.84375
vt 0.09375 0.84375
vt 0.09375 0.84375
vt 0.09375 0.84375
vt 0.09375 0.84375
vt 0.09375 0.84375
vt 0.09375 0.84375
vt 0.09375 0.84375
vt 0.09375 0.84375
vt 0.09375 0.84375
vt 0.09375 0.84375
vt 0.09375 0.84375
vt 0.09375 0.84375
vt 0.09375 0.84375
vt 0.09375 0.84375
vt 0.09375 0.84375
vt 0.09375 0.84375
vt 0.09375 0.84375
vt 0.09375 0.84375
vt 0.09375 0.84375
vt 0.09375 0.84375
vt 0.09375 0.84375
vt 0.09375 0.84375
vt 0.09375 0.84375
vt 0.09375 0.84375
vt 0.09375 0.84375
vt 0.09375 0.84375
vt 0.09375 0.84375
vt 0.09375 0.84375
vt 0.09375 0.84375
vt 0.09375 0.84375
vt 0.09375 0.84375
vt 0.09375 0.84375
vt 0.09375 0.84375
vt 0.09375 0.84375
vt 0.09375 0.84375
vt 0.09375 0.84375
vt 0.09375 0.84375
vt 0.09375 0.84375
vt 0.09375 0.84375
vt 0.09375 0.84375
vt 0.09375 0.84375
vt 0.09375 0.84375
vt 0.09375 0.84375
vt 0.09375 0.84375
vt 0.09375 0.84375
vt 0.09375 0.84375
vt 0.09375 0.84375
vt 0.09375 0.84375
vt 0.09375 0.84375
vt 0.09375 0.84375
vt 0.09375 0.84375
vt 0.09375 0.84375
vt 0.09375 0.84375
vt 0.09375 0.84375
vt 0.09375 0.84375
vt 0.09375 0.84375
vt 0.09375 0.84375
vt 0.09375 0.84375
vt 0.09375 0.84375
vt 0.09375 0.84375
vt 0.09375 0.84375
vt 0.09375 0.84375
vt 0.09375 0.84375
vt 0.09375 0.84375
vt 0.09375 0.84375
vt 0.09375 0.84375
vt 0.09375 0.84375
vt 0.09375 0.84375
vt 0.09375 0.84375
vt 0.09375 0.84375
vt 0.09375 0.84375
vt 0.09375 0.84375
vt 0.09375 0.84375
vt 0.09375 0.84375
vt 0.09375 0.84375
vt 0.09375 0.84375
vt 0.09375 0.84375
vt 0.09375 0.84375
vt 0.09375 0.84375
vt 0.09375 0.84375
vt 0.09375 0.84375
vt 0.09375 0.84375
vt 0.09375 0.84375
vt 0.09375 0.84375
vt 0.09375 0.84375
vt 0.09375 0.84375
vt 0.09375 0.84375
vt 0.09375 0.84375
vt 0.09375 0.84375
vt 0.09375 0.84375
vt 0.09375 0.84375
vt 0.09375 0.84375
vt 0.09375 0.84375
vt 0.09375 0.84375
vt 0.09375 0.84375
vt 0.09375 0.84375
vt 0.09375 0.84375
vt 0.09375 0.84375
vt 0.09375 0.84375
vt 0.09375 0.84375
vt 0.09375 0.84375
vt 0.09375 0.84375
vt 0.09375 0.84375
vt 0.09375 0.84375
vt 0.09375 0.84375
vt 0.09375 0.84375
vt 0.09375 0.84375
vt 0.09375 0.84375
vt 0.09375 0.84375
vt 0.09375 0.84375
vt 0.09375 0.84375
vt 0.09375 0.84375
vt 0.09375 0.84375
vt 0.09375 0.84375
vt 0.09375 0.84375
vt 0.09375 0.84375
vt 0.09375 0.84375
vt 0.09375 0.84375
vt 0.09375 0.84375
vt 0.09375 0.84375
vt 0.09375 0.84375
vt 0.09375 0.84375
vt 0.09375 0.84375
vt 0.09375 0.84375
vt 0.09375 0.84375
vt 0.09375 0.84375
vt 0.09375 0.84375
vt 0.09375 0.84375
vt 0.09375 0.84375
vt 0.09375 0.84375
vt 0.09375 0.84375
vt 0.09375 0.84375
vt 0.09375 0.84375
vt 0.09375 0.84375
vt 0.09375 0.84375
vt 0.09375 0.84375
vt 0.09375 0.84375
vt 0.09375 0.84375
vt 0.09375 0.84375
vt 0.09375 0.84375
vt 0.09375 0.84375
vt 0.09375 0.84375
vt 0.09375 0.84375
vt 0.09375 0.84375
vt 0.09375 0.84375
vt 0.09375 0.84375
vt 0.09375 0.84375
vt 0.09375 0.84375
vt 0.09375 0.84375
vt 0.09375 0.84375
vt 0.09375 0.84375
vt 0.09375 0.84375
vt 0.09375 0.84375
vt 0.09375 0.84375
vt 0.09375 0.84375
vt 0.09375 0.84375
vt 0.09375 0.84375
vt 0.09375 0.84375
vt 0.09375 0.84375
vt 0.09375 0.84375
vt 0.09375 0.84375
vt 0.09375 0.84375
vt 0.09375 0.84375
vt 0.09375 0.84375
vt 0.09375 0.84375
vt 0.09375 0.84375
vt 0.09375 0.84375
vt 0.09375 0.84375
vt 0.09375 0.84375
vt 0.09375 0.84375
vt 0.09375 0.84375
vt 0.09375 0.84375
vt 0.09375 0.84375
vt 0.09375 0.84375
vt 0.09375 0.84375
vt 0.09375 0.84375
vt 0.09375 0.84375
vt 0.09375 0.84375
vt 0.09375 0.84375
vt 0.09375 0.84375
vt 0.09375 0.84375
vt 0.09375 0.84375
vt 0.09375 0.84375
vt 0.09375 0.84375
vt 0.09375 0.84375
vt 0.09375 0.84375
vt 0.09375 0.84375
vt 0.09375 0.84375
vt 0.09375 0.84375
vt 0.09375 0.84375
vt 0.09375 0.84375
vt 0.09375 0.84375
vt 0.09375 0.84375
vt 0.09375 0.84375
vt 0.09375 0.84375
vt 0.09375 0.84375
vt 0.09375 0.84375
vt 0.09375 0.84375
vt 0.09375 0.84375
vt 0.09375 0.84375
vt 0.09375 0.84375
vt 0.09375 0.84375
vt 0.09375 0.84375
vt 0.09375 0.84375
vt 0.09375 0.84375
vt 0.09375 0.84375
vt 0.09375 0.84375
vt 0.09375 0.84375
vt 0.09375 0.84375
vt 0.09375 0.84375
vt 0.09375 0.84375
vt 0.09375 0.84375
vt 0.09375 0.84375
vt 0.09375 0.84375
vt 0.09375 0.84375
vt 0.09375 0.84375
vt 0.09375 0.84375
vt 0.09375 0.84375
vt 0.09375 0.84375
vt 0.09375 0.84375
vt 0.09375 0.84375
vt 0.09375 0.84375
vt 0.09375 0.84375
vt 0.09375 0.84375
vt 0.09375 0.84375
vt 0.09375 0.84375
vt 0.09375 0.84375
vt 0.09375 0.84375
vt 0.09375 0.84375
vt 0.09375 0.84375
vt 0.09375 0.84375
vt 0.09375 0.84375
vt 0.09375 0.84375
vt 0.09375 0.84375
vt 0.09375 0.84375
vt 0.09375 0.84375
vt 0.09375 0.84375
vt 0.09375 0.84375
vt 0.09375 0.84375
vt 0.09375 0.84375
vt 0.09375 0.84375
vt 0.09375 0.84375
vt 0.09375 0.84375
vt 0.09375 0.84375
vt 0.09375 0.84375
vt 0.09375 0.84375
vt 0.09375 0.84375
vt 0.09375 0.84375
vt 0.09375 0.84375
vt 0.09375 0.84375
vt 0.09375 0.84375
vt 0.09375 0.84375
vt 0.09375 0.84375
vt 0.09375 0.84375
vt 0.09375 0.84375
vt 0.09375 0.84375
vt 0.09375 0.84375
vt 0.09375 0.84375
vt 0.09375 0.84375
vt 0.09375 0.84375
vt 0.09375 0.84375
vt 0.09375 0.84375
vt 0.09375 0.84375
vt 0.09375 0.84375
vt 0.09375 0.84375
vt 0.09375 0.84375
vt 0.09375 0.84375
vt 0.09375 0.84375
vt 0.09375 0.84375
vt 0.09375 0.84375
vt 0.09375 0.84375
vt 0.09375 0.84375
vt 0.09375 0.84375
vt 0.09375 0.84375
vt 0.09375 0.84375
vt 0.09375 0.84375
vt 0.09375 0.84375
vt 0.09375 0.84375
vt 0.09375 0.84375
vt 0.09375 0.84375
vt 0.09375 0.84375
vt 0.09375 0.84375
vt 0.09375 0.84375
vt 0.09375 0.84375
vt 0.09375 0.84375
vt 0.09375 0.84375
vt 0.09375 0.84375
vt 0.09375 0.84375
vt 0.09375 0.84375
vt 0.09375 0.875
vt 0.09375 0.84375
vt 0.09375 0.84375
vt 0.0625 0.875
vt 0.09375 0.84375
vt 0.09375 0.84375
vt 0.09375 0.84375
vt 0.09375 0.84375
vt 0.0625 0.875
vt 0.09375 0.84375
vt 0.09375 0.84375
vt 0.0625 0.84375
vt 0.09375 0.84375
vt 0.09375 0.84375
vt 0.09375 0.84375
vt 0.09375 0.84375
vt 0.09375 0.84375
vt 0.09375 0.84375
vt 0.09375 0.84375
vt 0.09375 0.84375
vt 0.09375 0.84375
vt 0.09375 0.84375
vt 0.09375 0.84375
vt 0.09375 0.84375
vt 0.09375 0.84375
vt 0.09375 0.875
vt 0.09375 0.84375
vt 0.09375 0.84375
vt 0.09375 0.84375
vt 0.0625 0.84375
vt 0.09375 0.84375
vt 0.09375 0.84375
vt 0.09375 0.84375
vt 0.09375 0.84375
vt 0.0625 0.84375
vt 0.09375 0.84375
vt 0.09375 0.84375
vt 0.09375 0.84375
vt 0.09375 0.875
vt 0.0625 0.875
vt 0.0625 0.84375
vt 0.09375 0.84375
vn 0.9251353241937829 0.220765383373221 -0.30884830812704717
vn 0.606449490342559 0.7861183437024319 0.11931875526418992
vn 0.5518561594355658 -0.7472281296231671 0.3702767905133819
vn 0.8503812497728166 -0.3868687460057337 -0.3566290837814183
vn 0.7608443469872681 -0.6483074539949849 0.02851884906615483
vn 0.8502447889951233 -0.38737743581065087 -0.3564021899643763
vn 0.33195388248940627 0.8653529781171416 0.3754608410527034
vn 0.6468952870048323 -0.4260375289455643 0.6324701665540384
vn 0.5034620490277257 0.8093747643694993 0.3023879230237567
vn 0.6190956721417359 0.7841014988778154 0.043650752489914325
vn 0.8793912501067276 -0.47595806222874626 -0.011616894386367526
vn 0.5987832153957038 -0.7817395338765659 0.17418944323589802
vn 0.989655483114294 0.1414816412265063 -0.023769096273688978
vn 0.33065634997052173 0.6928379881317881 0.6408134677311863
vn 0.6671432876632554 -0.5493829628415657 0.503088654081252
vn 0.6068168073603653 0.7884800807371954 0.10036196782466536
vn 0.43177009432482405 -0.8343834603575414 -0.3426059350456553
vn 0.32683257453521913 0.8318651955365589 0.4485317878117483
vn 0.14870169879397355 0.9735939968106058 -0.17321239606372435
vn 0.11966266793896335 -0.9662783287122857 0.2280066607858673
vn 0.36612179731693645 0.9292515759242498 0.04946047079956453
vn 0.9083141962584736 0.36987768545862443 0.1953351444955414
vn 0.4545483767399882 0.6247915830600845 0.6348395473978566
vn 0.07016677461739812 -0.972616947994821 -0.22156916801087403
vn 0.1261378854649877 0.9902934823050974 0.05837852991010833
vn 0.13195784352589868 0.9905661932678642 0.036955977687062776
vn 0.2252193348375775 0.8218216865632468 0.523340583854969
vn 0.13867260582462718 -0.7093315159529362 -0.6910996374400128
vn 0.1637207019490102 -0.97457686675474 -0.1529557535362352
vn 0.14609183681428536 -0.7062450459675841 -0.6927301857595592
vn 0.11257229618666602 -0.9827310121471401 0.14685787651848795
vn 0.37812730835167846 0.9257133867807384 -0.008629264954211485
vn 0.14249721717069605 0.9895552746427214 0.021792235437780614
vn 0.2566682999974288 0.5407262475837206 -0.801084582894003
vn 0.14166143238296033 -0.9857927285133956 0.09024818549601403
vn 0.18582985324925705 0.9040590405069774 -0.3848954623257632
vn 0.24027774949952668 0.9208703155695658 0.3070251862604294
vn 0.13019399836350604 -0.9756037081784112 0.1767680043974505
vn 0.2738927039876674 0.9054420482048124 0.32427994702879515
vn 0.005179458705685135 -0.8736423692572884 -0.4865410402484339
vn 0.1222715204384286 0.9836008947190475 0.13258565230659114
vn 0.26374711770870723 -0.8669949452908122 0.4227969048379272
vn 0.9291286135158668 -0.3646936939541325 -0.060979743654534964
vn 0.9210129349052553 -0.3638460289581773 0.13910873785845854
vn 0.8880465881344288 0.36162444443962033 0.2839031850588086
vn 0.9717195531596765 -0.23513136008629348 -0.021779658195864054
vn 0.940176338619442 0.34062925815354467 0.006337254129853849
vn 0.9720171391216208 -0.2303412137473056 -0.04610430026839301
vn 0.9450896871607248 0.3247122022799224 0.03697930384642236
vn 0.9508021717874034 -0.2945772448610384 0.09591390375976347
vn 0.952788215749673 0.3032596898839007 0.015105509593357179
vn 0.6467992928229054 -0.16331723225663913 0.7449685607136859
vn 0.6588772721800282 0.0856145323682376 0.7473626242005772
vn 0.9756476663187478 -0.12538335222032437 0.17997401532659016
vn 0.9700435999227704 0.06737959108222327 0.23339966785422886
vn 0.8967268971665981 -0.4425570695135901 0.004910409505197148
vn 0.9714809340570061 0.06613609341677815 0.22770773353422646
vn 0.9125539771062225 -0.3425027829610237 0.2234660657271479
vn 0.928159983891957 0.17990943865679385 0.32580920518591844
vn 0.8700843191037826 -0.21542674587512659 0.44333350292004864
vn 0.8430898018053902 0.199605803612902 0.49935669541500644
vn 0.8631769829931826 0.00814927575639296 0.5048357013280991
vn 0.748581972318523 0.5520674475342275 0.3672146022324726
vn 0.8734875097244741 -0.25231459641760606 0.41636151934341575
vn 0.8617858495066427 0.4706593589814712 -0.1892218734535332
vn 0.5421428874666012 0.44593609324584577 0.712195261364472
vn 0.6307247290296482 -0.764891050097187 0.13087397629666342
vn 0.10541184814216902 0.9129645578183985 0.3941878466400361
vn 0.9102511544453598 -0.4140512354712725 0.002100056095161551
vn 0.6134109006492028 -0.42292935453626423 0.6669766323015169
vn 0.49520183562867276 -0.23772285675598606 0.8356213169646679
vn 0.30070078192736877 0.9537097710843313 0.004088066357297787
vn 0.07751751067416994 0.9949255788553593 0.06414146925514114
vn 0 0 0
vn 0 0 0
vn -0.1906268984837787 0.9196626258291953 0.34333954072813233
vn -0.0022766983036270876 -0.5177927435857512 -0.8555030633111578
vn 0.05714649849283363 -0.5165539022545742 -0.8543455646139801
vn 0.3059763594165343 -0.7926099256986704 -0.5273973579400564
vn 0.2891082480694481 -0.5722417022088208 -0.7674345934028294
vn 0.1431817217185153 -0.7167260315882682 -0.6824974653502052
vn 0.13976822133453104 -0.7286932835313557 -0.6704259413546532
vn 0.2891046717973014 -0.5722419131657484 -0.7674357833469708
vn 0.32008061994312287 -0.5450422305067468 -0.7749047449209848
vn 0.30595616532644987 -0.7926116618961191 -0.5274064640531119
vn 0.15838768583465151 -0.9801404228955541 -0.11932347791641112
vn 0.2896590276334718 -0.5245074501983376 -0.8006182501023008
vn -0.9251353241937829 0.220765383373221 -0.30884830812704717
vn -0.7737004804703956 0.6334419330918469 0.01178490223731565
vn -0.5824843405589134 -0.6583286138692449 0.4767760786413748
vn -0.942560310184824 -0.33330337099251606 -0.022111638322693142
vn -0.7415400576805949 -0.6650863300940993 -0.08819589773352687
vn -0.8502447889951233 -0.38737743581065087 -0.3564021899643763
vn -0.4639598259153762 0.8453532820923967 0.2648001291392939
vn -0.6468952870048323 -0.4260375289455643 0.6324701665540384
vn -0.8491212381902056 0.48845042710820974 0.20102065344670386
vn -0.6264966308434015 0.7784590154818712 0.03877541433514813
vn -0.8614183081020872 -0.5068243921592631 -0.03297778007888804
vn -0.5740163611047061 -0.8030414389416599 0.16009267480625092
vn -0.7992593892571432 0.5959449080494387 0.0776794390700973
vn -0.5990996855667348 0.656168255934791 0.45882762194241794
vn -0.5561335304064212 -0.6871082543884339 0.46754437555056677
vn -0.6252719487251237 0.7753949295017952 0.08830454937539949
vn -0.8739317440463988 -0.350899777355454 0.33632224577020253
vn -0.2212404419231608 0.7553781674443917 0.6168115522637341
vn -0.14378876886253078 0.9759316781811971 -0.1639577673409531
vn -0.1119610183589647 -0.9699258524707985 0.21612165804661607
vn -0.23649429311513376 0.9647214078717763 0.11568515253856482
vn -0.9083141962584736 0.36987768545862443 0.1953351444955414
vn -0.5064840179623902 0.7820042077419107 0.3632400839976504
vn -0.1189122030922474 -0.9795700024978458 -0.16218044938314485
vn -0.12842837368067234 0.9901856202958149 0.05512340875825837
vn -0.10203881875315945 0.9906630300157633 0.0904148241575835
vn -0.3152895607053601 0.8724209623996271 0.3734623907114741
vn -0.13977103669833854 -0.7286981158632022 -0.670420102053698
vn -0.17469597063400485 -0.9755143813432444 -0.13361515496660625
vn -0.16245091807792714 -0.7150021394404404 -0.6799864997271868
vn -0.03555459934368641 -0.9955294887151421 -0.08750375742833921
vn -0.36288992320765784 0.9318041918740012 0.007200808314361459
vn -0.13091687702164095 0.9904680832360812 0.04282227693087016
vn -0.2512280397956626 0.5628658378372247 -0.7874430269017741
vn -0.2138425708391563 -0.9593298024195442 0.18427611100351224
vn -0.17616890952304795 0.9133127457511859 -0.36718434575277037
vn -0.11160334480372205 0.8175440162265301 0.564948205555887
vn -0.12546643074999134 -0.9778869563597208 0.16731788707839806
vn -0.20180741748222392 0.8910805742220741 0.4065085195825719
vn -0.029025482019696083 -0.8889515619388101 -0.4570805639272736
vn -0.12735952111183038 0.9839181383217437 0.125238370572439
vn -0.5140447360328061 -0.6800927529658554 0.5227158470146918
vn -0.9291286135158668 -0.3646936939541325 -0.060979743654534964
vn -0.9713084413048865 -0.23435960808785233 -0.04044114175910988
vn -0.921737209403106 0.32491090925435784 0.21173903241793016
vn -0.9725238098415164 -0.230783124987471 -0.03060373363430723
vn -0.9452251872425612 0.32502760200757497 0.0301065331028082
vn -0.9538559573013026 -0.296806788653697 0.0454372416624863
vn -0.9516129863133763 0.3013224646897607 0.060311661832733954
vn -0.968416617386131 -0.24452581098622794 0.04874815824142909
vn -0.9759247065043851 0.15376554941541126 0.15468394566763055
vn -0.6980767885069299 -0.08971190202345222 0.7103805824930645
vn -0.6159298941680476 0.026521334781902276 0.7873544210020822
vn -0.8553858818255731 -0.42215424825569114 0.30016792608997916
vn -0.9698836420991939 0.06580659031464697 0.2345105828306332
vn -0.9064796086673877 -0.4218315725209893 -0.018784128797708775
vn -0.9765806839109772 0.1977279085852003 0.08481651949054929
vn -0.9328195175924646 -0.31144513224022996 0.18124479910449112
vn -0.9211442632072531 0.30092152081393936 0.2468592406036141
vn -0.9726172657445692 -0.06736305890917112 0.22243622157813656
vn -0.735350485672441 0.6347871032853187 0.237286739460804
vn -0.7785613578734757 -0.1714587973741479 0.6036920513218813
vn -0.6218051472836466 0.7653751276708184 0.1660098574014252
vn -0.5093221121175192 -0.8597303868762889 -0.038139847793301464
vn -0.8617858495066427 0.4706593589814712 -0.1892218734535332
vn -0.4452544207292341 0.47447760179686255 0.7593546643131733
vn -0.619304571345023 -0.7761092149363701 0.11881218120213347
vn -0.33214233225176243 0.9015670996516909 0.2772331797458558
vn -0.8933848772435559 -0.3809756754417494 -0.23816170102310635
vn -0.5902764079441187 -0.45595161523570255 0.666094502896205
vn -0.6014562884267276 -0.07454078924167559 0.795420645854238
vn -0.30070078192736877 0.9537097710843313 0.004088066357297787
vn -0.5042679785297169 0.7594660819743343 0.41100495880233207
vn 0 0 0
vn 0 0 0
vn -0.08078488954222182 -0.5690935326037736 -0.8182947835408758
vn -0.2414425678999825 -0.6451060461728374 -0.7249439120353458
vn -0.19781772234500708 -0.8935700321774781 -0.40298975957283917
vn -0.1401145179117042 -0.8408437636517522 -0.522828544551966
vn -0.1615271525862798 -0.7238937639446671 -0.6707360117806345
vn -0.13976822133453104 -0.7286932835313557 -0.6704259413546532
vn -0.18852951153072633 -0.26893754250271024 -0.9445259242152059
vn -0.28966211709636075 -0.5245074582339823 -0.8006171270814668
vn -0.22209984171063357 -0.6692434574630862 -0.7090732366652728
vn -0.15838768583465151 -0.9801404228955541 -0.11932347791641112
vn -0.3187596518970773 -0.4999267226887256 -0.8052735909392311
usemtl m_2b3b64f7-5125-4aff-74a0-74cf2a1fa5fd
f 1/1/1 2/2/1 3/3/1
f 4/4/2 5/5/2 6/6/2 7/7/2
f 8/8/3 9/9/3 10/10/3 11/11/3
f 12/12/4 13/13/4 3/14/4 14/15/4
f 15/16/5 16/17/5 17/18/5 18/19/5
f 13/20/6 1/21/6 3/22/6
f 19/23/7 20/24/7 21/25/7 22/26/7
f 23/27/8 24/28/8 25/29/8
f 26/30/9 4/31/9 7/32/9 27/33/9
f 28/34/10 29/35/10 30/36/10 31/37/10
f 32/38/11 33/39/11 34/40/11 35/41/11
f 9/42/12 36/43/12 37/44/12 10/45/12
f 38/46/13 26/47/13 27/48/13 3/49/13
f 39/50/14 19/51/14 22/52/14 40/53/14
f 24/54/15 41/55/15 42/56/15 25/57/15
f 5/58/16 28/59/16 31/60/16 6/61/16
f 33/62/17 8/63/17 11/64/17 34/65/17
f 43/66/18 44/67/18 19/68/18 39/69/18
f 45/70/19 46/71/19 26/72/19 38/73/19
f 47/74/20 48/75/20 36/76/20 9/77/20
f 49/78/21 50/79/21 51/80/21 52/81/21
f 3/82/22 27/83/22 53/84/22
f 54/85/23 55/86/23 56/87/23 57/88/23
f 58/89/24 59/90/24 33/91/24 32/92/24
f 60/93/25 61/94/25 29/95/25 28/96/25
f 46/97/26 62/98/26 4/99/26 26/100/26
f 44/101/27 63/102/27 20/103/27 19/104/27
f 64/105/28 65/106/28 1/107/28 66/108/28
f 67/109/29 68/110/29 69/111/29 15/112/29
f 70/113/30 64/114/30 66/115/30 71/116/30
f 72/117/31 47/118/31 9/119/31 8/120/31
f 50/121/32 54/122/32 57/123/32 51/124/32
f 62/125/33 73/126/33 5/127/33 4/128/33
f 65/129/34 74/130/34 2/131/34 1/132/34
f 75/133/35 58/134/35 32/135/35 41/136/35
f 74/137/36 45/138/36 38/139/36 2/140/36
f 61/141/37 43/142/37 39/143/37 29/144/37
f 48/145/38 67/146/38 15/147/38 36/148/38
f 63/149/39 49/150/39 52/151/39 20/152/39
f 59/153/40 72/154/40 8/155/40 33/156/40
f 73/157/41 60/158/41 28/159/41 5/160/41
f 76/161/42 75/162/42 41/163/42 24/164/42
f 53/165/43 14/166/43 3/167/43
f 14/168/44 53/169/44 77/170/44 17/171/44
f 77/172/45 53/173/45 27/174/45 7/175/45
f 17/176/46 77/177/46 78/178/46 18/179/46
f 77/180/47 7/181/47 6/182/47 78/183/47
f 18/184/48 78/185/48 79/186/48 37/187/48
f 78/188/49 6/189/49 31/190/49 79/191/49
f 37/192/50 79/193/50 80/194/50 10/195/50
f 79/196/51 31/197/51 30/198/51 80/199/51
f 10/200/52 80/201/52 81/202/52 11/203/52
f 80/204/53 30/205/53 40/206/53 81/207/53
f 11/208/54 81/209/54 82/210/54 34/211/54
f 81/212/55 40/213/55 22/214/55 82/215/55
f 34/216/56 82/217/56 83/218/56 35/219/56
f 82/220/57 22/221/57 21/222/57 83/223/57
f 35/224/58 83/225/58 84/226/58 42/227/58
f 83/228/59 21/229/59 85/230/59 84/231/59
f 42/232/60 84/233/60 86/234/60 25/235/60
f 84/236/61 85/237/61 87/238/61 86/239/61
f 25/240/62 86/241/62 56/242/62 23/243/62
f 86/244/63 87/245/63 57/246/63 56/247/63
f 41/248/64 32/249/64 35/250/64 42/251/64
f 2/252/65 38/253/65 3/254/65
f 29/255/66 39/256/66 40/257/66 30/258/66
f 36/259/67 15/260/67 18/261/67 37/262/67
f 20/263/68 52/264/68 85/265/68 21/266/68
f 16/267/69 12/268/69 14/269/69 17/270/69
f 88/271/70 76/272/70 24/273/70 23/274/70
f 23/275/71 56/276/71 55/277/71 88/278/71
f 57/279/72 87/280/72 51/281/72
f 85/282/73 52/283/73 51/284/73 87/285/73
f 70/286/74 89/287/74 68/288/74
f 90/289/75 12/290/75 16/291/75
f 89/292/76 91/293/76 90/294/76 16/295/76
f 92/296/77 93/297/77 89/298/77 70/299/77
f 94/300/78 95/301/78 12/302/78 90/303/78
f 93/304/79 96/305/79 91/306/79 89/307/79
f 95/308/80 97/309/80 71/310/80 12/311/80
f 71/312/81 66/313/81 13/314/81 12/315/81
f 66/316/82 1/317/82 13/318/82
f 71/319/83 97/320/83 92/321/83 70/322/83
f 95/323/84 94/324/84 96/325/84 97/326/84
f 91/327/85 96/328/85 94/329/85 90/330/85
f 15/331/86 69/332/86 16/333/86
f 92/334/87 97/335/87 96/336/87 93/337/87
f 98/338/88 99/339/88 100/340/88
f 101/341/89 102/342/89 103/343/89 104/344/89
f 105/345/90 106/346/90 107/347/90 108/348/90
f 109/349/91 110/350/91 99/351/91 111/352/91
f 112/353/92 113/354/92 114/355/92 115/356/92
f 111/357/93 99/358/93 98/359/93
f 116/360/94 117/361/94 118/362/94 119/363/94
f 120/364/95 121/365/95 122/366/95
f 123/367/96 124/368/96 102/369/96 101/370/96
f 125/371/97 126/372/97 127/373/97 128/374/97
f 129/375/98 130/376/98 131/377/98 132/378/98
f 108/379/99 107/380/99 133/381/99 134/382/99
f 135/383/100 99/384/100 124/385/100 123/386/100
f 136/387/101 137/388/101 117/389/101 116/390/101
f 122/391/102 121/392/102 138/393/102 139/394/102
f 104/395/103 103/396/103 126/397/103 125/398/103
f 132/399/104 131/400/104 106/401/104 105/402/104
f 43/403/105 136/404/105 116/405/105 44/406/105
f 45/407/106 135/408/106 123/409/106 46/410/106
f 47/411/107 108/412/107 134/413/107 48/414/107
f 49/415/108 140/416/108 141/417/108 50/418/108
f 99/419/109 142/420/109 124/421/109
f 54/422/110 143/423/110 144/424/110 55/425/110
f 58/426/111 129/427/111 132/428/111 59/429/111
f 60/430/112 125/431/112 128/432/112 61/433/112
f 46/434/113 123/435/113 101/436/113 62/437/113
f 44/438/114 116/439/114 119/440/114 63/441/114
f 64/442/115 145/443/115 98/444/115 65/445/115
f 67/446/116 112/447/116 146/448/116 68/449/116
f 70/450/117 147/451/117 145/452/117 64/453/117
f 72/454/118 105/455/118 108/456/118 47/457/118
f 50/458/119 141/459/119 143/460/119 54/461/119
f 62/462/120 101/463/120 104/464/120 73/465/120
f 65/466/121 98/467/121 100/468/121 74/469/121
f 75/470/122 139/471/122 129/472/122 58/473/122
f 74/474/123 100/475/123 135/476/123 45/477/123
f 61/478/124 128/479/124 136/480/124 43/481/124
f 48/482/125 134/483/125 112/484/125 67/485/125
f 63/486/126 119/487/126 140/488/126 49/489/126
f 59/490/127 132/491/127 105/492/127 72/493/127
f 73/494/128 104/495/128 125/496/128 60/497/128
f 76/498/129 122/499/129 139/500/129 75/501/129
f 142/502/130 99/503/130 110/504/130
f 110/505/131 114/506/131 148/507/131 142/508/131
f 148/509/132 102/510/132 124/511/132 142/512/132
f 114/513/133 113/514/133 149/515/133 148/516/133
f 148/517/134 149/518/134 103/519/134 102/520/134
f 113/521/135 133/522/135 150/523/135 149/524/135
f 149/525/136 150/526/136 126/527/136 103/528/136
f 133/529/137 107/530/137 151/531/137 150/532/137
f 150/533/138 151/534/138 127/535/138 126/536/138
f 107/537/139 106/538/139 152/539/139 151/540/139
f 151/541/140 152/542/140 137/543/140 127/544/140
f 106/545/141 131/546/141 153/547/141 152/548/141
f 152/549/142 153/550/142 117/551/142 137/552/142
f 131/553/143 130/554/143 154/555/143 153/556/143
f 153/557/144 154/558/144 118/559/144 117/560/144
f 130/561/145 138/562/145 155/563/145 154/564/145
f 154/565/146 155/566/146 156/567/146 118/568/146
f 138/569/147 121/570/147 157/571/147 155/572/147
f 155/573/148 157/574/148 158/575/148 156/576/148
f 121/577/149 120/578/149 144/579/149 157/580/149
f 157/581/150 144/582/150 143/583/150 158/584/150
f 139/585/151 138/586/151 130/587/151 129/588/151
f 100/589/152 99/590/152 135/591/152
f 128/592/153 127/593/153 137/594/153 136/595/153
f 134/596/154 133/597/154 113/598/154 112/599/154
f 119/600/155 118/601/155 156/602/155 140/603/155
f 115/604/156 114/605/156 110/606/156 109/607/156
f 88/608/157 120/609/157 122/610/157 76/611/157
f 120/612/158 88/613/158 55/614/158 144/615/158
f 143/616/159 141/617/159 158/618/159
f 156/619/160 158/620/160 141/621/160 140/622/160
f 159/623/161 115/624/161 109/625/161
f 89/626/162 68/627/162 146/628/162 115/629/162
f 160/630/163 70/631/163 89/632/163 161/633/163
f 162/634/164 159/635/164 109/636/164 163/637/164
f 161/638/165 89/639/165 164/640/165 165/641/165
f 163/642/166 109/643/166 147/644/166 166/645/166
f 147/646/167 109/647/167 111/648/167 145/649/167
f 145/650/168 111/651/168 98/652/168
f 147/653/169 70/654/169 160/655/169 166/656/169
f 163/657/170 166/658/170 165/659/170 162/660/170
f 164/661/171 159/662/171 162/663/171 165/664/171
f 112/665/172 115/666/172 146/667/172
f 160/668/173 161/669/173 165/670/173 166/671/173