# Made in Blockbench 5.1.4
mtllib Mo_Shrolm_Eyes.mtl

o Plane
v -0.023697 0.630311 2.814813
v -0.023697 0.646056 2.72788
v 0.076937 0.637719 2.72788
v 0.076937 0.621973 2.814813
v -0.023697 0.601375 3.045961
v -0.023697 0.612496 2.919688
v 0.076937 0.604159 2.919688
v 0.076937 0.593037 3.045961
v -0.023697 0.653733 2.634101
v 0.076937 0.645396 2.634953
v -0.023697 0.770437 2.814813
v -0.023697 0.731889 2.919688
v 0.076937 0.723551 2.919688
v 0.076937 0.762099 2.814813
v 0.199214 0.577825 2.814959
v 0.199214 0.560011 2.919834
v 0.199214 0.59357 2.728027
v 0.16812 0.51526 3.046107
v -0.023697 0.760735 2.614681
v -0.023697 0.905131 2.499154
v 0.056344 0.899032 2.50901
v 0.076937 0.753517 2.617836
v -0.023697 0.702222 3.011177
v 0.076937 0.693884 3.011177
v -0.023697 0.815318 2.72788
v 0.076937 0.80698 2.72788
v 0.286819 0.51287 2.819875
v 0.249951 0.495056 2.92475
v 0.300911 0.528616 2.732943
v 0.194553 0.483934 3.051023
v 0.199214 0.601248 2.635099
v 0.307378 0.536293 2.640015
v 0.16812 0.649736 3.011323
v 0.199214 0.679403 2.919834
v 0.10345 0.843573 2.62051
v 0.14283 0.851566 2.573237
v 0.199214 0.717951 2.814959
v 0.146528 0.785259 2.727952
v 0.20309 0.534358 3.033632
v 0.267074 0.554752 2.92475
v 0.29352 0.582933 2.819875
v 0.304145 0.613246 2.732943
v 0.389744 0.657853 2.580313
v -0.023697 0.651798 3.028569
v 0.076937 0.643461 3.028569
v 0.211627 0.584781 3.01624
v 0.284197 0.614448 2.92475
v 0.16812 0.582498 3.028715
v 0.264133 0.847539 2.55178
v 0.199214 0.762832 2.728027
v 0.307378 0.697877 2.732943
v 0.376889 0.759557 2.617895
v 0.30022 0.652996 2.819875
v 0.276833 0.714306 2.577653
v 0.316291 0.859597 2.493962
v 0.392306 0.817238 2.495753
v 0.406143 0.854146 2.392215
v 0.349371 0.883043 2.390182
v 0.324288 0.791972 2.470582
v 0.400303 0.753967 2.472373
v 0.421782 0.885109 2.294159
v 0.374886 0.909332 2.292002
v 0.354757 0.834291 2.374876
v 0.411528 0.805393 2.376909
v 0.378932 0.868031 2.280841
v 0.378047 0.93875 2.225635
v 0.386929 0.889365 2.198169
v 0.425827 0.843809 2.282998
v 0.452383 0.858384 2.197345
v 0.443501 0.907769 2.224812
v 0.142656 1.054128 2.559228
v 0.142656 1.070985 2.584457
v 0.154044 1.070985 2.586722
v 0.163699 1.054128 2.563414
v 0.142724 1.023795 2.54107
v 0.167399 1.028899 2.552027
v 0.142656 1.076905 2.614216
v 0.181538 1.054128 2.575334
v 0.193084 1.024787 2.56278
v 0.163699 1.070985 2.593173
v 0.193458 1.054128 2.593173
v 0.209033 1.028899 2.586722
v 0.17015 1.070985 2.602828
v 0.205896 0.991861 2.596708
v 0.214501 1.028899 2.614216
v 0.220421 0.999139 2.614216
v 0.172415 1.070985 2.614216
v 0.197644 1.054128 2.614216
v 0.17015 1.070985 2.625605
v 0.193458 1.054128 2.635259
v 0.20898 0.973134 2.617007
v 0.214501 0.999139 2.643976
v 0.209033 0.96938 2.641711
v 0.209033 1.028899 2.641711
v 0.197644 0.999139 2.669205
v 0.193458 0.96938 2.665019
v 0.181538 1.054128 2.653099
v 0.193458 1.028899 2.665019
v 0.163699 1.070985 2.635259
v 0.196157 0.95669 2.644999
v 0.177344 0.955333 2.65901
v 0.154044 1.070985 2.641711
v 0.17015 0.96938 2.680593
v 0.17015 1.028899 2.680593
v 0.172415 0.999139 2.686062
v 0.163699 1.054128 2.665019
v 0.142656 0.96938 2.686062
v 0.142356 0.949122 2.665848
v 0.142656 1.028899 2.686062
v 0.142656 0.999139 2.691982
v 0.142656 1.070985 2.643976
v 0.142656 1.054128 2.669205
v 0.112896 0.999139 2.686062
v 0.115162 0.96938 2.680593
v 0.121613 1.054128 2.665019
v 0.115162 1.028899 2.680593
v 0.131267 1.070985 2.641711
v 0.111537 0.955658 2.66201
v 0.087668 0.999139 2.669205
v 0.091853 0.96938 2.665019
v 0.103773 1.054128 2.653099
v 0.091853 1.028899 2.665019
v 0.121613 1.070985 2.635259
v 0.076279 0.96938 2.641711
v 0.089323 0.956632 2.645072
v 0.076279 1.028899 2.641711
v 0.07081 0.999139 2.643976
v 0.115162 1.070985 2.625605
v 0.091853 1.054128 2.635259
v 0.07081 1.028899 2.614216
v 0.064891 0.999139 2.614216
v 0.112896 1.070985 2.614216
v 0.087668 1.054128 2.614216
v 0.076469 0.973134 2.617007
v 0.091853 1.054128 2.593173
v 0.076279 1.028899 2.586722
v 0.115162 1.070985 2.602828
v 0.08363 1.004704 2.577129
v 0.103773 1.054128 2.575334
v 0.092365 1.024787 2.56278
v 0.121613 1.070985 2.593173
v 0.131267 1.070985 2.586722
v 0.121613 1.054128 2.563414
v 0.117354 1.024222 2.550396
v 0.102634 0.857767 2.621669
v 0.102634 0.8761 2.664176
v 0.097065 0.912109 2.653855
v 0.097065 0.891229 2.605443
v 0.142724 0.885267 2.68543
v 0.142724 0.92255 2.678061
v 0.183052 0.802166 2.648394
v 0.182815 0.857767 2.621669
v 0.182815 0.8761 2.664176
v 0.177438 0.783757 2.69761
v 0.099398 0.813137 2.694716
v 0.188384 0.912109 2.653855
v 0.142724 0.867931 2.58324
v 0.142724 0.880789 2.581237
v 0.188384 0.891229 2.605443
v 0.08139 0.938751 2.576872
v 0.142724 0.931335 2.539467
v 0.204058 0.938751 2.576872
v 0.203869 0.958113 2.651681
v 0.18134 0.956731 2.668412
v 0.107785 0.957151 2.671622
v 0.08158 0.958113 2.651681
v 0.212639 0.956129 2.563045
v 0.142724 0.951713 2.525289
v 0.176061 0.972806 2.533501
v 0.208772 0.973507 2.552374
v 0.218181 0.974474 2.620913
v 0.222115 0.989767 2.601048
v 0.07281 0.956129 2.563045
v 0.067267 0.974474 2.620913
v 0.063333 0.989767 2.601048
v 0.076677 0.973507 2.552374
v 0.204532 1.006811 2.553181
v 0.210692 1.009459 2.578188
v 0.142724 0.972092 2.514267
v 0.107334 0.97285 2.534686
v 0.109663 1.006195 2.536596
v 0.142724 1.005487 2.517521
v 0.142724 0.950212 2.678498
v 0.17741 1.00623 2.537533
v 0.074757 1.009459 2.578188
v 0.080917 1.006811 2.553181
v 0.142724 1.022487 2.522187
v 0.174003 1.023106 2.540239
v 0.200989 1.023639 2.555815
v 0.204587 1.025209 2.570413
v 0.080862 1.025209 2.570413
v 0.08446 1.023639 2.555815
v 0.111298 1.023109 2.540325
v 0.142724 1.033615 2.53882
v 0.169511 1.034124 2.550285
v 0.198004 1.034665 2.562481
v 0.087445 1.034665 2.562481
v 0.116636 1.034111 2.549987
v 0.201819 1.004704 2.577129
v 0.072974 0.985352 2.596677
v 0.410383 0.899282 2.225263
v 0.422603 0.881713 2.213551
v 0.426798 0.882035 2.213752
v 0.414577 0.899604 2.225465
v 0.410788 0.930836 2.13686
v 0.450868 0.874125 2.120373
v 0.466712 0.870944 2.04272
v 0.405643 0.957456 2.067481
v 0.473258 0.880161 1.975592
v 0.406908 0.974154 2.002494
v 0.460496 0.90974 1.940667
v 0.418207 0.969648 1.957813
v 0.415112 0.914061 2.188303
v 0.438315 0.878353 2.179168
v 0.44909 0.930267 1.930057
v 0.42998 0.957339 1.937805
v 0.398932 0.923102 2.134642
v 0.393787 0.949722 2.065263
v 0.445674 0.882491 2.040373
v 0.432234 0.88055 2.11898
v 0.395052 0.966419 2.000276
v 0.452368 0.891917 1.971728
v 0.403649 0.966993 1.956379
v 0.439318 0.922165 1.936013
v 0.421849 0.880107 2.175884
v 0.402987 0.906152 2.186035
v 0.415423 0.954684 1.93637
v 0.434783 0.927383 1.926688
v -0.124332 0.621973 2.814813
v -0.124332 0.637719 2.72788
v -0.124332 0.593037 3.045961
v -0.124332 0.604159 2.919688
v -0.124332 0.645396 2.634953
v -0.124332 0.762099 2.814813
v -0.124332 0.723551 2.919688
v -0.246609 0.560011 2.919834
v -0.246609 0.577825 2.814959
v -0.246609 0.59357 2.728027
v -0.215515 0.51526 3.046107
v -0.124332 0.753517 2.617836
v -0.103739 0.899032 2.50901
v -0.124332 0.693884 3.011177
v -0.124332 0.80698 2.72788
v -0.297346 0.495056 2.92475
v -0.334213 0.51287 2.819875
v -0.348306 0.528616 2.732943
v -0.241948 0.483934 3.051023
v -0.354773 0.536293 2.640015
v -0.246609 0.601248 2.635099
v -0.246609 0.679403 2.919834
v -0.215515 0.649736 3.011323
v -0.190225 0.851566 2.573237
v -0.150845 0.843573 2.62051
v -0.193922 0.785259 2.727952
v -0.246609 0.717951 2.814959
v -0.250485 0.534358 3.033632
v -0.314469 0.554752 2.92475
v -0.340914 0.582933 2.819875
v -0.35154 0.613246 2.732943
v -0.437138 0.657853 2.580313
v -0.124332 0.643461 3.028569
v -0.331592 0.614448 2.92475
v -0.259021 0.584781 3.01624
v -0.215515 0.582498 3.028715
v -0.311527 0.847539 2.55178
v -0.424284 0.759557 2.617895
v -0.354773 0.697877 2.732943
v -0.246609 0.762832 2.728027
v -0.347615 0.652996 2.819875
v -0.324228 0.714306 2.577653
v -0.363686 0.859597 2.493962
v -0.396766 0.883043 2.390182
v -0.453537 0.854146 2.392215
v -0.4397 0.817238 2.495753
v -0.371683 0.791972 2.470582
v -0.447697 0.753967 2.472373
v -0.422281 0.909332 2.292002
v -0.469176 0.885109 2.294159
v -0.402152 0.834291 2.374876
v -0.458923 0.805393 2.376909
v -0.426326 0.868031 2.280841
v -0.434323 0.889365 2.198169
v -0.425441 0.93875 2.225635
v -0.473222 0.843809 2.282998
v -0.499778 0.858384 2.197345
v -0.490896 0.907769 2.224812
v -0.190051 1.054128 2.559228
v -0.211094 1.054128 2.563414
v -0.201439 1.070985 2.586722
v -0.190051 1.070985 2.584457
v -0.190119 1.023795 2.54107
v -0.214794 1.028899 2.552027
v -0.19005 1.076905 2.614216
v -0.240479 1.024787 2.56278
v -0.228933 1.054128 2.575334
v -0.211094 1.070985 2.593173
v -0.256427 1.028899 2.586722
v -0.240853 1.054128 2.593173
v -0.217545 1.070985 2.602828
v -0.253291 0.991861 2.596708
v -0.267816 0.999139 2.614216
v -0.261896 1.028899 2.614216
v -0.245039 1.054128 2.614216
v -0.21981 1.070985 2.614216
v -0.240853 1.054128 2.635259
v -0.217545 1.070985 2.625605
v -0.256375 0.973134 2.617007
v -0.256427 0.96938 2.641711
v -0.261896 0.999139 2.643976
v -0.256427 1.028899 2.641711
v -0.240853 0.96938 2.665019
v -0.245039 0.999139 2.669205
v -0.240853 1.028899 2.665019
v -0.228933 1.054128 2.653099
v -0.211094 1.070985 2.635259
v -0.243552 0.95669 2.644999
v -0.224739 0.955333 2.65901
v -0.201439 1.070985 2.641711
v -0.217545 0.96938 2.680593
v -0.21981 0.999139 2.686062
v -0.217545 1.028899 2.680593
v -0.211094 1.054128 2.665019
v -0.189751 0.949122 2.665848
v -0.19005 0.96938 2.686062
v -0.19005 0.999139 2.691982
v -0.19005 1.028899 2.686062
v -0.19005 1.054128 2.669205
v -0.19005 1.070985 2.643976
v -0.162556 0.96938 2.680593
v -0.160291 0.999139 2.686062
v -0.162556 1.028899 2.680593
v -0.169007 1.054128 2.665019
v -0.178662 1.070985 2.641711
v -0.158932 0.955658 2.66201
v -0.139248 0.96938 2.665019
v -0.135062 0.999139 2.669205
v -0.139248 1.028899 2.665019
v -0.151168 1.054128 2.653099
v -0.169007 1.070985 2.635259
v -0.136718 0.956632 2.645072
v -0.123674 0.96938 2.641711
v -0.118205 0.999139 2.643976
v -0.123674 1.028899 2.641711
v -0.139248 1.054128 2.635259
v -0.162556 1.070985 2.625605
v -0.112285 0.999139 2.614216
v -0.118205 1.028899 2.614216
v -0.135062 1.054128 2.614216
v -0.160291 1.070985 2.614216
v -0.123863 0.973134 2.617007
v -0.123674 1.028899 2.586722
v -0.139248 1.054128 2.593173
v -0.162556 1.070985 2.602828
v -0.131025 1.004704 2.577129
v -0.139759 1.024787 2.56278
v -0.151168 1.054128 2.575334
v -0.169007 1.070985 2.593173
v -0.169007 1.054128 2.563414
v -0.178662 1.070985 2.586722
v -0.164748 1.024222 2.550396
v -0.150028 0.857767 2.621669
v -0.14446 0.891229 2.605443
v -0.14446 0.912109 2.653855
v -0.150028 0.8761 2.664176
v -0.190119 0.92255 2.678061
v -0.190119 0.885267 2.68543
v -0.230447 0.802166 2.648394
v -0.224833 0.783757 2.69761
v -0.23021 0.8761 2.664176
v -0.23021 0.857767 2.621669
v -0.146792 0.813137 2.694716
v -0.235778 0.912109 2.653855
v -0.235778 0.891229 2.605443
v -0.190119 0.880789 2.581237
v -0.190119 0.867931 2.58324
v -0.190119 0.931335 2.539467
v -0.128785 0.938751 2.576872
v -0.251453 0.938751 2.576872
v -0.251263 0.958113 2.651681
v -0.228734 0.956731 2.668412
v -0.128975 0.958113 2.651681
v -0.15518 0.957151 2.671622
v -0.260034 0.956129 2.563045
v -0.256167 0.973507 2.552374
v -0.223456 0.972806 2.533501
v -0.190119 0.951713 2.525289
v -0.265576 0.974474 2.620913
v -0.26951 0.989767 2.601048
v -0.120204 0.956129 2.563045
v -0.124071 0.973507 2.552374
v -0.110728 0.989767 2.601048
v -0.114662 0.974474 2.620913
v -0.258087 1.009459 2.578188
v -0.251926 1.006811 2.553181
v -0.190119 0.972092 2.514267
v -0.190119 1.005487 2.517521
v -0.157058 1.006195 2.536596
v -0.154729 0.97285 2.534686
v -0.190119 0.950212 2.678498
v -0.224805 1.00623 2.537533
v -0.128312 1.006811 2.553181
v -0.122151 1.009459 2.578188
v -0.190119 1.022487 2.522187
v -0.221398 1.023106 2.540239
v -0.248383 1.023639 2.555815
v -0.251982 1.025209 2.570413
v -0.128257 1.025209 2.570413
v -0.131855 1.023639 2.555815
v -0.158693 1.023109 2.540325
v -0.190119 1.033615 2.53882
v -0.216906 1.034124 2.550285
v -0.245398 1.034665 2.562481
v -0.13484 1.034665 2.562481
v -0.164031 1.034111 2.549987
v -0.249213 1.004704 2.577129
v -0.120369 0.985352 2.596677
v -0.457777 0.899282 2.225263
v -0.469998 0.881713 2.213551
v -0.474192 0.882035 2.213752
v -0.461972 0.899604 2.225465
v -0.458182 0.930836 2.13686
v -0.453038 0.957456 2.067481
v -0.514106 0.870944 2.04272
v -0.498263 0.874125 2.120373
v -0.454303 0.974154 2.002494
v -0.520652 0.880161 1.975592
v -0.465601 0.969648 1.957813
v -0.50789 0.90974 1.940667
v -0.485709 0.878353 2.179168
v -0.462506 0.914062 2.188303
v -0.477375 0.957339 1.937805
v -0.496485 0.930267 1.930057
v -0.446326 0.923102 2.134642
v -0.479629 0.88055 2.11898
v -0.493069 0.882491 2.040373
v -0.441181 0.949722 2.065263
v -0.499763 0.891917 1.971728
v -0.442447 0.966419 2.000276
v -0.486712 0.922165 1.936013
v -0.451044 0.966993 1.956379
v -0.450382 0.906152 2.186035
v -0.469244 0.880107 2.175884
v -0.482178 0.927383 1.926688
v -0.462818 0.954684 1.93637
vt 0.3125 0.9375
vt 0.3125 0.9375
vt 0.3125 0.9375
vt 0.3125 0.9375
vt 0.3125 0.9375
vt 0.3125 0.9375
vt 0.3125 0.9375
vt 0.3125 0.9375
vt 0.3125 0.9375
vt 0.3125 0.9375
vt 0.3125 0.9375
vt 0.3125 0.9375
vt 0.3125 0.9375
vt 0.3125 0.9375
vt 0.3125 0.9375
vt 0.3125 0.9375
vt 0.3125 0.9375
vt 0.3125 0.9375
vt 0.3125 0.9375
vt 0.3125 0.9375
vt 0.3125 0.9375
vt 0.3125 0.9375
vt 0.3125 0.9375
vt 0.3125 0.9375
vt 0.3125 0.9375
vt 0.3125 0.9375
vt 0.3125 0.9375
vt 0.3125 0.9375
vt 0.3125 0.9375
vt 0.3125 0.9375
vt 0.3125 0.9375
vt 0.3125 0.9375
vt 0.3125 0.9375
vt 0.3125 0.9375
vt 0.3125 0.9375
vt 0.3125 0.9375
vt 0.3125 0.9375
vt 0.3125 0.9375
vt 0.3125 0.9375
vt 0.3125 0.9375
vt 0.3125 0.9375
vt 0.3125 0.9375
vt 0.3125 0.9375
vt 0.3125 0.9375
vt 0.3125 0.9375
vt 0.3125 0.9375
vt 0.3125 0.9375
vt 0.3125 0.9375
vt 0.3125 0.9375
vt 0.3125 0.9375
vt 0.3125 0.9375
vt 0.3125 0.9375
vt 0.3125 0.9375
vt 0.3125 0.9375
vt 0.3125 0.9375
vt 0.3125 0.9375
vt 0.3125 0.9375
vt 0.3125 0.9375
vt 0.3125 0.9375
vt 0.3125 0.9375
vt 0.3125 0.9375
vt 0.3125 0.9375
vt 0.3125 0.9375
vt 0.3125 0.9375
vt 0.3125 0.9375
vt 0.3125 0.9375
vt 0.3125 0.9375
vt 0.3125 0.9375
vt 0.3125 0.9375
vt 0.3125 0.9375
vt 0.3125 0.9375
vt 0.3125 0.9375
vt 0.3125 0.9375
vt 0.3125 0.9375
vt 0.3125 0.9375
vt 0.3125 0.9375
vt 0.3125 0.9375
vt 0.3125 0.9375
vt 0.3125 0.9375
vt 0.3125 0.9375
vt 0.3125 0.9375
vt 0.3125 0.9375
vt 0.3125 0.9375
vt 0.3125 0.9375
vt 0.3125 0.9375
vt 0.3125 0.9375
vt 0.3125 0.9375
vt 0.3125 0.9375
vt 0.3125 0.9375
vt 0.3125 0.9375
vt 0.3125 0.9375
vt 0.3125 0.9375
vt 0.3125 0.9375
vt 0.3125 0.9375
vt 0.3125 0.9375
vt 0.3125 0.9375
vt 0.3125 0.9375
vt 0.3125 0.9375
vt 0.3125 0.9375
vt 0.3125 0.9375
vt 0.3125 0.9375
vt 0.3125 0.9375
vt 0.3125 0.9375
vt 0.3125 0.9375
vt 0.3125 0.9375
vt 0.3125 0.9375
vt 0.3125 0.9375
vt 0.3125 0.9375
vt 0.3125 0.9375
vt 0.3125 0.9375
vt 0.3125 0.9375
vt 0.3125 0.9375
vt 0.3125 0.9375
vt 0.3125 0.9375
vt 0.3125 0.9375
vt 0.3125 0.9375
vt 0.3125 0.9375
vt 0.3125 0.9375
vt 0.3125 0.9375
vt 0.3125 0.9375
vt 0.3125 0.9375
vt 0.3125 0.9375
vt 0.3125 0.9375
vt 0.3125 0.9375
vt 0.3125 0.9375
vt 0.3125 0.9375
vt 0.3125 0.9375
vt 0.3125 0.9375
vt 0.3125 0.9375
vt 0.3125 0.9375
vt 0.3125 0.9375
vt 0.3125 0.9375
vt 0.3125 0.9375
vt 0.3125 0.9375
vt 0.3125 0.9375
vt 0.3125 0.9375
vt 0.3125 0.9375
vt 0.3125 0.9375
vt 0.3125 0.9375
vt 0.3125 0.9375
vt 0.3125 0.9375
vt 0.3125 0.9375
vt 0.3125 0.9375
vt 0.3125 0.9375
vt 0.3125 0.9375
vt 0.3125 0.9375
vt 0.3125 0.9375
vt 0.3125 0.9375
vt 0.3125 0.9375
vt 0.3125 0.9375
vt 0.3125 0.9375
vt 0.3125 0.9375
vt 0.3125 0.9375
vt 0.3125 0.9375
vt 0.3125 0.9375
vt 0.3125 0.9375
vt 0.3125 0.9375
vt 0.3125 0.9375
vt 0.3125 0.9375
vt 0.3125 0.9375
vt 0.3125 0.9375
vt 0.3125 0.9375
vt 0.3125 0.9375
vt 0.3125 0.9375
vt 0.3125 0.9375
vt 0.3125 0.9375
vt 0.3125 0.9375
vt 0.3125 0.9375
vt 0.3125 0.9375
vt 0.3125 0.9375
vt 0.3125 0.9375
vt 0.3125 0.9375
vt 0.3125 0.9375
vt 0.3125 0.9375
vt 0.3125 0.9375
vt 0.3125 0.9375
vt 0.3125 0.9375
vt 0.3125 0.9375
vt 0.3125 0.9375
vt 0.3125 0.9375
vt 0.3125 0.9375
vt 0.3125 0.9375
vt 0.3125 0.9375
vt 0.3125 0.9375
vt 0.3125 0.9375
vt 0.3125 0.9375
vt 0.3125 0.9375
vt 0.3125 0.9375
vt 0.3125 0.9375
vt 0.3125 0.9375
vt 0.3125 0.9375
vt 0.3125 0.9375
vt 0.3125 0.9375
vt 0.3125 0.9375
vt 0.3125 0.9375
vt 0.3125 0.9375
vt 0.3125 0.9375
vt 0.3125 0.9375
vt 0.3125 0.9375
vt 0.3125 0.9375
vt 0.3125 0.9375
vt 0.3125 0.9375
vt 0.3125 0.9375
vt 0.3125 0.9375
vt 0.3125 0.9375
vt 0.3125 0.9375
vt 0.3125 0.9375
vt 0.3125 0.9375
vt 0.3125 0.9375
vt 0.3125 0.9375
vt 0.3125 0.9375
vt 0.3125 0.9375
vt 0.3125 0.9375
vt 0.3125 0.9375
vt 0.3125 0.9375
vt 0.3125 0.9375
vt 0.3125 0.9375
vt 0.3125 0.9375
vt 0.3125 0.9375
vt 0.3125 0.9375
vt 0.3125 0.9375
vt 0.3125 0.9375
vt 0.3125 0.9375
vt 0.3125 0.9375
vt 0.3125 0.9375
vt 0.3125 0.9375
vt 0.3125 0.9375
vt 0.3125 0.9375
vt 0.3125 0.9375
vt 0.3125 0.9375
vt 0.3125 0.9375
vt 0.125 0.59375
vt 0.15625 0.625
vt 0.125 0.59375
vt 0.125 0.59375
vt 0.125 0.59375
vt 0.125 0.59375
vt 0.125 0.59375
vt 0.125 0.59375
vt 0.15625 0.625
vt 0.125 0.625
vt 0.125 0.59375
vt 0.125 0.59375
vt 0.125 0.59375
vt 0.125 0.59375
vt 0.125 0.59375
vt 0.125 0.59375
vt 0.125 0.625
vt 0.125 0.59375
vt 0.125 0.59375
vt 0.125 0.59375
vt 0.125 0.59375
vt 0.125 0.59375
vt 0.125 0.59375
vt 0.125 0.59375
vt 0.125 0.59375
vt 0.125 0.59375
vt 0.125 0.59375
vt 0.125 0.625
vt 0.125 0.59375
vt 0.125 0.59375
vt 0.125 0.59375
vt 0.125 0.59375
vt 0.125 0.59375
vt 0.125 0.59375
vt 0.125 0.59375
vt 0.125 0.59375
vt 0.125 0.59375
vt 0.125 0.59375
vt 0.125 0.59375
vt 0.125 0.59375
vt 0.125 0.59375
vt 0.125 0.59375
vt 0.125 0.59375
vt 0.125 0.59375
vt 0.125 0.59375
vt 0.125 0.59375
vt 0.125 0.625
vt 0.125 0.59375
vt 0.125 0.59375
vt 0.125 0.59375
vt 0.125 0.59375
vt 0.125 0.59375
vt 0.125 0.59375
vt 0.125 0.59375
vt 0.125 0.59375
vt 0.125 0.59375
vt 0.125 0.59375
vt 0.125 0.59375
vt 0.125 0.59375
vt 0.125 0.59375
vt 0.125 0.59375
vt 0.125 0.625
vt 0.125 0.59375
vt 0.125 0.59375
vt 0.125 0.59375
vt 0.125 0.59375
vt 0.125 0.59375
vt 0.125 0.59375
vt 0.125 0.59375
vt 0.125 0.59375
vt 0.125 0.59375
vt 0.125 0.59375
vt 0.125 0.59375
vt 0.125 0.59375
vt 0.125 0.59375
vt 0.125 0.59375
vt 0.125 0.625
vt 0.125 0.59375
vt 0.125 0.59375
vt 0.125 0.59375
vt 0.125 0.59375
vt 0.125 0.59375
vt 0.125 0.59375
vt 0.125 0.59375
vt 0.125 0.59375
vt 0.125 0.59375
vt 0.125 0.59375
vt 0.125 0.59375
vt 0.125 0.59375
vt 0.125 0.59375
vt 0.125 0.59375
vt 0.125 0.625
vt 0.125 0.59375
vt 0.125 0.59375
vt 0.125 0.59375
vt 0.125 0.59375
vt 0.125 0.59375
vt 0.125 0.59375
vt 0.125 0.59375
vt 0.125 0.59375
vt 0.125 0.59375
vt 0.125 0.59375
vt 0.125 0.59375
vt 0.125 0.59375
vt 0.125 0.59375
vt 0.125 0.59375
vt 0.125 0.59375
vt 0.125 0.59375
vt 0.125 0.59375
vt 0.125 0.59375
vt 0.125 0.59375
vt 0.125 0.59375
vt 0.125 0.59375
vt 0.125 0.59375
vt 0.125 0.59375
vt 0.125 0.59375
vt 0.125 0.59375
vt 0.125 0.59375
vt 0.125 0.59375
vt 0.125 0.59375
vt 0.125 0.59375
vt 0.125 0.59375
vt 0.125 0.59375
vt 0.125 0.59375
vt 0.125 0.59375
vt 0.125 0.59375
vt 0.125 0.59375
vt 0.125 0.59375
vt 0.125 0.59375
vt 0.125 0.59375
vt 0.125 0.59375
vt 0.125 0.59375
vt 0.125 0.59375
vt 0.125 0.625
vt 0.125 0.59375
vt 0.125 0.59375
vt 0.125 0.59375
vt 0.125 0.59375
vt 0.125 0.59375
vt 0.125 0.59375
vt 0.125 0.59375
vt 0.125 0.59375
vt 0.125 0.59375
vt 0.125 0.59375
vt 0.125 0.625
vt 0.125 0.59375
vt 0.125 0.59375
vt 0.125 0.59375
vt 0.125 0.59375
vt 0.125 0.59375
vt 0.125 0.59375
vt 0.125 0.59375
vt 0.125 0.59375
vt 0.125 0.59375
vt 0.125 0.59375
vt 0.125 0.59375
vt 0.125 0.59375
vt 0.125 0.59375
vt 0.125 0.59375
vt 0.125 0.59375
vt 0.125 0.59375
vt 0.125 0.59375
vt 0.125 0.59375
vt 0.125 0.59375
vt 0.125 0.59375
vt 0.125 0.59375
vt 0.125 0.59375
vt 0.125 0.625
vt 0.125 0.59375
vt 0.125 0.59375
vt 0.125 0.59375
vt 0.125 0.59375
vt 0.125 0.59375
vt 0.125 0.59375
vt 0.125 0.59375
vt 0.125 0.59375
vt 0.125 0.59375
vt 0.125 0.59375
vt 0.125 0.59375
vt 0.125 0.59375
vt 0.125 0.59375
vt 0.125 0.59375
vt 0.125 0.59375
vt 0.125 0.59375
vt 0.125 0.59375
vt 0.125 0.59375
vt 0.125 0.59375
vt 0.125 0.59375
vt 0.125 0.59375
vt 0.125 0.59375
vt 0.125 0.59375
vt 0.125 0.59375
vt 0.125 0.59375
vt 0.125 0.59375
vt 0.125 0.59375
vt 0.125 0.59375
vt 0.125 0.59375
vt 0.125 0.59375
vt 0.125 0.59375
vt 0.125 0.59375
vt 0.125 0.59375
vt 0.125 0.625
vt 0.125 0.59375
vt 0.125 0.59375
vt 0.125 0.59375
vt 0.125 0.59375
vt 0.125 0.59375
vt 0.125 0.59375
vt 0.125 0.59375
vt 0.125 0.59375
vt 0.125 0.59375
vt 0.125 0.59375
vt 0.125 0.59375
vt 0.125 0.59375
vt 0.125 0.59375
vt 0.125 0.59375
vt 0.125 0.59375
vt 0.125 0.59375
vt 0.125 0.59375
vt 0.125 0.59375
vt 0.125 0.625
vt 0.125 0.59375
vt 0.125 0.59375
vt 0.125 0.59375
vt 0.125 0.59375
vt 0.125 0.59375
vt 0.125 0.59375
vt 0.125 0.625
vt 0.125 0.59375
vt 0.125 0.59375
vt 0.125 0.59375
vt 0.125 0.59375
vt 0.125 0.59375
vt 0.125 0.59375
vt 0.125 0.59375
vt 0.125 0.59375
vt 0.125 0.59375
vt 0.125 0.59375
vt 0.125 0.59375
vt 0.125 0.59375
vt 0.125 0.59375
vt 0.125 0.59375
vt 0.125 0.625
vt 0.125 0.59375
vt 0.125 0.59375
vt 0.125 0.59375
vt 0.125 0.59375
vt 0.125 0.59375
vt 0.125 0.59375
vt 0.125 0.59375
vt 0.125 0.59375
vt 0.125 0.59375
vt 0.125 0.59375
vt 0.125 0.59375
vt 0.125 0.59375
vt 0.125 0.59375
vt 0.125 0.59375
vt 0.125 0.625
vt 0.125 0.59375
vt 0.125 0.59375
vt 0.125 0.59375
vt 0.15625 0.625
vt 0.125 0.59375
vt 0.125 0.59375
vt 0.125 0.59375
vt 0.125 0.59375
vt 0.125 0.59375
vt 0.125 0.59375
vt 0.125 0.625
vt 0.15625 0.625
vt 0.3125 0.9375
vt 0.3125 0.9375
vt 0.3125 0.9375
vt 0.3125 0.9375
vt 0.3125 0.9375
vt 0.3125 0.9375
vt 0.3125 0.9375
vt 0.3125 0.9375
vt 0.3125 0.9375
vt 0.3125 0.9375
vt 0.3125 0.9375
vt 0.3125 0.9375
vt 0.3125 0.9375
vt 0.3125 0.9375
vt 0.3125 0.9375
vt 0.3125 0.9375
vt 0.3125 0.9375
vt 0.3125 0.9375
vt 0.3125 0.9375
vt 0.3125 0.9375
vt 0.3125 0.9375
vt 0.3125 0.9375
vt 0.3125 0.9375
vt 0.3125 0.9375
vt 0.3125 0.9375
vt 0.3125 0.9375
vt 0.3125 0.9375
vt 0.3125 0.9375
vt 0.3125 0.9375
vt 0.3125 0.9375
vt 0.3125 0.9375
vt 0.3125 0.9375
vt 0.3125 0.9375
vt 0.3125 0.9375
vt 0.3125 0.9375
vt 0.3125 0.9375
vt 0.3125 0.9375
vt 0.3125 0.9375
vt 0.3125 0.9375
vt 0.3125 0.9375
vt 0.3125 0.9375
vt 0.3125 0.9375
vt 0.3125 0.9375
vt 0.3125 0.9375
vt 0.3125 0.9375
vt 0.3125 0.9375
vt 0.3125 0.9375
vt 0.3125 0.9375
vt 0.3125 0.9375
vt 0.3125 0.9375
vt 0.3125 0.9375
vt 0.3125 0.9375
vt 0.3125 0.9375
vt 0.3125 0.9375
vt 0.3125 0.9375
vt 0.3125 0.9375
vt 0.3125 0.9375
vt 0.3125 0.9375
vt 0.3125 0.9375
vt 0.3125 0.9375
vt 0.3125 0.9375
vt 0.3125 0.9375
vt 0.3125 0.9375
vt 0.3125 0.9375
vt 0.3125 0.9375
vt 0.3125 0.9375
vt 0.3125 0.9375
vt 0.3125 0.9375
vt 0.3125 0.9375
vt 0.3125 0.9375
vt 0.3125 0.9375
vt 0.3125 0.9375
vt 0.3125 0.9375
vt 0.3125 0.9375
vt 0.3125 0.9375
vt 0.3125 0.9375
vt 0.3125 0.9375
vt 0.3125 0.9375
vt 0.3125 0.9375
vt 0.3125 0.9375
vt 0.3125 0.9375
vt 0.3125 0.9375
vt 0.3125 0.9375
vt 0.3125 0.9375
vt 0.3125 0.9375
vt 0.3125 0.9375
vt 0.3125 0.9375
vt 0.3125 0.9375
vt 0.3125 0.9375
vt 0.3125 0.9375
vt 0.3125 0.9375
vt 0.3125 0.9375
vt 0.3125 0.9375
vt 0.3125 0.9375
vt 0.3125 0.9375
vt 0.3125 0.9375
vt 0.3125 0.9375
vt 0.3125 0.9375
vt 0.3125 0.9375
vt 0.3125 0.9375
vt 0.3125 0.9375
vt 0.3125 0.9375
vt 0.3125 0.9375
vt 0.3125 0.9375
vt 0.3125 0.9375
vt 0.3125 0.9375
vt 0.3125 0.9375
vt 0.3125 0.9375
vt 0.3125 0.9375
vt 0.3125 0.9375
vt 0.3125 0.9375
vt 0.3125 0.9375
vt 0.3125 0.9375
vt 0.3125 0.9375
vt 0.3125 0.9375
vt 0.3125 0.9375
vt 0.3125 0.9375
vt 0.3125 0.9375
vt 0.3125 0.9375
vt 0.3125 0.9375
vt 0.3125 0.9375
vt 0.3125 0.9375
vt 0.3125 0.9375
vt 0.3125 0.9375
vt 0.3125 0.9375
vt 0.3125 0.9375
vt 0.3125 0.9375
vt 0.3125 0.9375
vt 0.3125 0.9375
vt 0.3125 0.9375
vt 0.3125 0.9375
vt 0.3125 0.9375
vt 0.3125 0.9375
vt 0.3125 0.9375
vt 0.3125 0.9375
vt 0.3125 0.9375
vt 0.3125 0.9375
vt 0.3125 0.9375
vt 0.3125 0.9375
vt 0.3125 0.9375
vt 0.3125 0.9375
vt 0.3125 0.9375
vt 0.3125 0.9375
vt 0.3125 0.9375
vt 0.3125 0.9375
vt 0.3125 0.9375
vt 0.3125 0.9375
vt 0.3125 0.9375
vt 0.3125 0.9375
vt 0.3125 0.9375
vt 0.3125 0.9375
vt 0.3125 0.9375
vt 0.3125 0.9375
vt 0.3125 0.9375
vt 0.3125 0.9375
vt 0.3125 0.9375
vt 0.3125 0.9375
vt 0.3125 0.9375
vt 0.3125 0.9375
vt 0.3125 0.9375
vt 0.3125 0.9375
vt 0.3125 0.9375
vt 0.3125 0.9375
vt 0.3125 0.9375
vt 0.3125 0.9375
vt 0.3125 0.9375
vt 0.3125 0.9375
vt 0.3125 0.9375
vt 0.3125 0.9375
vt 0.3125 0.9375
vt 0.3125 0.9375
vt 0.3125 0.9375
vt 0.3125 0.9375
vt 0.3125 0.9375
vt 0.3125 0.9375
vt 0.3125 0.9375
vt 0.3125 0.9375
vt 0.3125 0.9375
vt 0.3125 0.9375
vt 0.3125 0.9375
vt 0.3125 0.9375
vt 0.3125 0.9375
vt 0.3125 0.9375
vt 0.3125 0.9375
vt 0.3125 0.9375
vt 0.3125 0.9375
vt 0.3125 0.9375
vt 0.3125 0.9375
vt 0.3125 0.9375
vt 0.3125 0.9375
vt 0.3125 0.9375
vt 0.3125 0.9375
vt 0.3125 0.9375
vt 0.3125 0.9375
vt 0.3125 0.9375
vt 0.3125 0.9375
vt 0.3125 0.9375
vt 0.3125 0.9375
vt 0.3125 0.9375
vt 0.3125 0.9375
vt 0.3125 0.9375
vt 0.3125 0.9375
vt 0.3125 0.9375
vt 0.3125 0.9375
vt 0.3125 0.9375
vt 0.3125 0.9375
vt 0.3125 0.9375
vt 0.3125 0.9375
vt 0.3125 0.9375
vt 0.3125 0.9375
vt 0.3125 0.9375
vt 0.3125 0.9375
vt 0.3125 0.9375
vt 0.3125 0.9375
vt 0.3125 0.9375
vt 0.3125 0.9375
vt 0.3125 0.9375
vt 0.3125 0.9375
vt 0.3125 0.9375
vt 0.3125 0.9375
vt 0.3125 0.9375
vt 0.3125 0.9375
vt 0.3125 0.9375
vt 0.3125 0.9375
vt 0.3125 0.9375
vt 0.125 0.59375
vt 0.125 0.59375
vt 0.125 0.59375
vt 0.125 0.59375
vt 0.125 0.59375
vt 0.125 0.59375
vt 0.125 0.59375
vt 0.125 0.59375
vt 0.125 0.59375
vt 0.125 0.59375
vt 0.3125 0.9375
vt 0.3125 0.9375
vt 0.3125 0.9375
vt 0.3125 0.9375
vt 0.3125 0.9375
vt 0.3125 0.9375
vt 0.3125 0.9375
vt 0.3125 0.9375
vt 0.3125 0.9375
vt 0.3125 0.9375
vt 0.3125 0.9375
vt 0.3125 0.9375
vt 0.3125 0.9375
vt 0.3125 0.9375
vt 0.3125 0.9375
vt 0.3125 0.9375
vt 0.3125 0.9375
vt 0.3125 0.9375
vt 0.3125 0.9375
vt 0.3125 0.9375
vt 0.3125 0.9375
vt 0.3125 0.9375
vt 0.3125 0.9375
vt 0.3125 0.9375
vt 0.3125 0.9375
vt 0.3125 0.9375
vt 0.3125 0.9375
vt 0.3125 0.9375
vt 0.3125 0.9375
vt 0.3125 0.9375
vt 0.3125 0.9375
vt 0.3125 0.9375
vt 0.3125 0.9375
vt 0.3125 0.9375
vt 0.3125 0.9375
vt 0.3125 0.9375
vt 0.3125 0.9375
vt 0.3125 0.9375
vt 0.125 0.59375
vt 0.125 0.59375
vt 0.125 0.59375
vt 0.125 0.59375
vt 0.125 0.59375
vt 0.125 0.59375
vt 0.125 0.59375
vt 0.125 0.59375
vt 0.125 0.59375
vt 0.125 0.59375
vt 0.125 0.59375
vt 0.125 0.59375
vt 0.3125 0.9375
vt 0.3125 0.9375
vt 0.3125 0.9375
vt 0.3125 0.9375
vt 0.3125 0.9375
vt 0.3125 0.9375
vt 0.3125 0.9375
vt 0.3125 0.9375
vt 0.3125 0.9375
vt 0.3125 0.9375
vt 0.3125 0.9375
vt 0.3125 0.9375
vt 0.3125 0.9375
vt 0.3125 0.9375
vt 0.3125 0.9375
vt 0.3125 0.9375
vt 0.3125 0.9375
vt 0.3125 0.9375
vt 0.3125 0.9375
vt 0.3125 0.9375
vt 0.3125 0.9375
vt 0.3125 0.9375
vt 0.3125 0.9375
vt 0.3125 0.9375
vt 0.3125 0.9375
vt 0.3125 0.9375
vt 0.3125 0.9375
vt 0.3125 0.9375
vt 0.3125 0.9375
vt 0.875 0.84375
vt 0.875 0.84375
vt 0.875 0.84375
vt 0.875 0.84375
vt 0.875 0.84375
vt 0.875 0.84375
vt 0.875 0.84375
vt 0.875 0.84375
vt 0.875 0.84375
vt 0.875 0.84375
vt 0.875 0.84375
vt 0.875 0.84375
vt 0.875 0.84375
vt 0.875 0.84375
vt 0.875 0.84375
vt 0.875 0.84375
vt 0.875 0.84375
vt 0.875 0.84375
vt 0.875 0.84375
vt 0.875 0.84375
vt 0.875 0.84375
vt 0.875 0.84375
vt 0.875 0.84375
vt 0.875 0.84375
vt 0.875 0.84375
vt 0.875 0.84375
vt 0.875 0.84375
vt 0.875 0.84375
vt 0.875 0.84375
vt 0.875 0.84375
vt 0.875 0.84375
vt 0.875 0.84375
vt 0.875 0.84375
vt 0.875 0.84375
vt 0.875 0.84375
vt 0.875 0.84375
vt 0.875 0.84375
vt 0.875 0.84375
vt 0.875 0.84375
vt 0.875 0.84375
vt 0.875 0.84375
vt 0.875 0.84375
vt 0.875 0.84375
vt 0.875 0.84375
vt 0.875 0.84375
vt 0.875 0.84375
vt 0.875 0.84375
vt 0.875 0.84375
vt 0.875 0.84375
vt 0.875 0.84375
vt 0.875 0.84375
vt 0.875 0.84375
vt 0.875 0.84375
vt 0.875 0.84375
vt 0.875 0.84375
vt 0.875 0.84375
vt 0.875 0.84375
vt 0.875 0.84375
vt 0.875 0.84375
vt 0.875 0.84375
vt 0.875 0.84375
vt 0.875 0.84375
vt 0.875 0.84375
vt 0.875 0.84375
vt 0.875 0.84375
vt 0.875 0.84375
vt 0.875 0.84375
vt 0.875 0.84375
vt 0.875 0.84375
vt 0.875 0.84375
vt 0.875 0.84375
vt 0.875 0.84375
vt 0.875 0.84375
vt 0.875 0.84375
vt 0.875 0.84375
vt 0.875 0.84375
vt 0.875 0.84375
vt 0.875 0.84375
vt 0.875 0.84375
vt 0.875 0.84375
vt 0.875 0.84375
vt 0.875 0.84375
vt 0.875 0.84375
vt 0.875 0.84375
vt 0.875 0.84375
vt 0.875 0.84375
vt 0.875 0.84375
vt 0.875 0.84375
vt 0.875 0.84375
vt 0.875 0.84375
vt 0.875 0.84375
vt 0.875 0.84375
vt 0.875 0.84375
vt 0.875 0.84375
vt 0.875 0.84375
vt 0.875 0.84375
vt 0.875 0.84375
vt 0.875 0.84375
vt 0.875 0.84375
vt 0.875 0.84375
vt 0.3125 0.9375
vt 0.3125 0.9375
vt 0.3125 0.9375
vt 0.3125 0.9375
vt 0.3125 0.9375
vt 0.3125 0.9375
vt 0.3125 0.9375
vt 0.3125 0.9375
vt 0.3125 0.9375
vt 0.3125 0.9375
vt 0.3125 0.9375
vt 0.3125 0.9375
vt 0.3125 0.9375
vt 0.3125 0.9375
vt 0.3125 0.9375
vt 0.3125 0.9375
vt 0.3125 0.9375
vt 0.3125 0.9375
vt 0.3125 0.9375
vt 0.3125 0.9375
vt 0.3125 0.9375
vt 0.3125 0.9375
vt 0.3125 0.9375
vt 0.3125 0.9375
vt 0.3125 0.9375
vt 0.3125 0.9375
vt 0.3125 0.9375
vt 0.3125 0.9375
vt 0.3125 0.9375
vt 0.3125 0.9375
vt 0.3125 0.9375
vt 0.3125 0.9375
vt 0.3125 0.9375
vt 0.3125 0.9375
vt 0.3125 0.9375
vt 0.3125 0.9375
vt 0.3125 0.9375
vt 0.3125 0.9375
vt 0.3125 0.9375
vt 0.3125 0.9375
vt 0.3125 0.9375
vt 0.3125 0.9375
vt 0.3125 0.9375
vt 0.3125 0.9375
vt 0.3125 0.9375
vt 0.3125 0.9375
vt 0.3125 0.9375
vt 0.3125 0.9375
vt 0.3125 0.9375
vt 0.3125 0.9375
vt 0.3125 0.9375
vt 0.3125 0.9375
vt 0.3125 0.9375
vt 0.3125 0.9375
vt 0.3125 0.9375
vt 0.3125 0.9375
vt 0.3125 0.9375
vt 0.3125 0.9375
vt 0.3125 0.9375
vt 0.3125 0.9375
vt 0.3125 0.9375
vt 0.3125 0.9375
vt 0.3125 0.9375
vt 0.3125 0.9375
vt 0.3125 0.9375
vt 0.3125 0.9375
vt 0.3125 0.9375
vt 0.3125 0.9375
vt 0.3125 0.9375
vt 0.3125 0.9375
vt 0.3125 0.9375
vt 0.3125 0.9375
vt 0.3125 0.9375
vt 0.3125 0.9375
vt 0.3125 0.9375
vt 0.3125 0.9375
vt 0.28125 0.96875
vt 0.3125 0.9375
vt 0.3125 0.9375
vt 0.3125 0.9375
vt 0.3125 0.9375
vt 0.3125 0.9375
vt 0.3125 0.9375
vt 0.3125 0.9375
vt 0.3125 0.9375
vt 0.3125 0.9375
vt 0.3125 0.9375
vt 0.3125 0.9375
vt 0.3125 0.9375
vt 0.3125 0.9375
vt 0.3125 0.9375
vt 0.3125 0.9375
vt 0.3125 0.9375
vt 0.3125 0.9375
vt 0.3125 0.9375
vt 0.3125 0.9375
vt 0.3125 0.9375
vt 0.3125 0.9375
vt 0.3125 0.9375
vt 0.3125 0.9375
vt 0.3125 0.9375
vt 0.3125 0.9375
vt 0.3125 0.9375
vt 0.3125 0.9375
vt 0.3125 0.9375
vt 0.3125 0.9375
vt 0.3125 0.9375
vt 0.3125 0.9375
vt 0.3125 0.9375
vt 0.3125 0.9375
vt 0.3125 0.9375
vt 0.3125 0.9375
vt 0.3125 0.9375
vt 0.3125 0.9375
vt 0.3125 0.9375
vt 0.3125 0.9375
vt 0.3125 0.9375
vt 0.3125 0.9375
vt 0.3125 0.9375
vt 0.3125 0.9375
vt 0.3125 0.9375
vt 0.3125 0.9375
vt 0.3125 0.9375
vt 0.3125 0.9375
vt 0.3125 0.9375
vt 0.3125 0.9375
vt 0.3125 0.9375
vt 0.3125 0.9375
vt 0.3125 0.9375
vt 0.3125 0.9375
vt 0.3125 0.9375
vt 0.3125 0.9375
vt 0.3125 0.9375
vt 0.3125 0.9375
vt 0.3125 0.9375
vt 0.3125 0.9375
vt 0.3125 0.9375
vt 0.3125 0.9375
vt 0.3125 0.9375
vt 0.3125 0.9375
vt 0.3125 0.9375
vt 0.3125 0.9375
vt 0.3125 0.9375
vt 0.3125 0.9375
vt 0.3125 0.9375
vt 0.3125 0.9375
vt 0.3125 0.9375
vt 0.3125 0.9375
vt 0.3125 0.9375
vt 0.3125 0.9375
vt 0.3125 0.9375
vt 0.3125 0.9375
vt 0.3125 0.9375
vt 0.3125 0.9375
vt 0.3125 0.9375
vt 0.3125 0.9375
vt 0.3125 0.9375
vt 0.3125 0.9375
vt 0.3125 0.9375
vt 0.3125 0.9375
vt 0.3125 0.9375
vt 0.3125 0.9375
vt 0.3125 0.9375
vt 0.3125 0.9375
vt 0.3125 0.9375
vt 0.3125 0.9375
vt 0.3125 0.9375
vt 0.3125 0.9375
vt 0.3125 0.9375
vt 0.3125 0.9375
vt 0.3125 0.9375
vt 0.3125 0.9375
vt 0.3125 0.9375
vt 0.3125 0.9375
vt 0.3125 0.9375
vt 0.3125 0.9375
vt 0.3125 0.9375
vt 0.3125 0.9375
vt 0.3125 0.9375
vt 0.3125 0.9375
vt 0.3125 0.9375
vt 0.3125 0.9375
vt 0.3125 0.9375
vt 0.3125 0.9375
vt 0.3125 0.9375
vt 0.3125 0.9375
vt 0.3125 0.9375
vt 0.3125 0.9375
vt 0.3125 0.9375
vt 0.3125 0.9375
vt 0.3125 0.9375
vt 0.3125 0.9375
vt 0.3125 0.9375
vt 0.3125 0.9375
vt 0.3125 0.9375
vt 0.3125 0.9375
vt 0.3125 0.9375
vt 0.3125 0.9375
vt 0.3125 0.9375
vt 0.3125 0.9375
vt 0.3125 0.9375
vt 0.3125 0.9375
vt 0.3125 0.9375
vt 0.3125 0.9375
vt 0.3125 0.9375
vt 0.3125 0.9375
vt 0.3125 0.9375
vt 0.3125 0.9375
vt 0.3125 0.9375
vt 0.3125 0.9375
vt 0.3125 0.9375
vt 0.3125 0.9375
vt 0.3125 0.9375
vt 0.3125 0.9375
vt 0.3125 0.9375
vt 0.3125 0.9375
vt 0.3125 0.9375
vt 0.3125 0.9375
vt 0.3125 0.9375
vt 0.3125 0.9375
vt 0.3125 0.9375
vt 0.3125 0.9375
vt 0.3125 0.9375
vt 0.3125 0.9375
vt 0.3125 0.9375
vt 0.3125 0.9375
vt 0.3125 0.9375
vt 0.3125 0.9375
vt 0.3125 0.9375
vt 0.3125 0.9375
vt 0.3125 0.9375
vt 0.3125 0.9375
vt 0.3125 0.9375
vt 0.3125 0.9375
vt 0.3125 0.9375
vt 0.3125 0.9375
vt 0.3125 0.9375
vt 0.3125 0.9375
vt 0.125 0.625
vt 0.125 0.625
vt 0.125 0.625
vt 0.125 0.625
vt 0.125 0.625
vt 0.125 0.625
vt 0.125 0.625
vt 0.125 0.625
vt 0.125 0.625
vt 0.125 0.625
vt 0.125 0.625
vt 0.125 0.625
vt 0.125 0.625
vt 0.125 0.625
vt 0.125 0.625
vt 0.125 0.625
vt 0.125 0.625
vt 0.125 0.625
vt 0.125 0.625
vt 0.125 0.625
vt 0.125 0.625
vt 0.125 0.625
vt 0.125 0.625
vt 0.125 0.625
vt 0.125 0.625
vt 0.125 0.625
vt 0.125 0.625
vt 0.125 0.625
vt 0.125 0.625
vt 0.125 0.625
vt 0.125 0.625
vt 0.125 0.625
vt 0.125 0.625
vt 0.125 0.625
vt 0.125 0.625
vt 0.125 0.625
vt 0.125 0.625
vt 0.125 0.625
vt 0.125 0.625
vt 0.125 0.625
vt 0.125 0.625
vt 0.125 0.625
vt 0.125 0.625
vt 0.125 0.625
vt 0.125 0.625
vt 0.125 0.625
vt 0.125 0.625
vt 0.125 0.625
vt 0.125 0.625
vt 0.125 0.625
vt 0.125 0.625
vt 0.125 0.625
vt 0.125 0.625
vt 0.125 0.625
vt 0.125 0.625
vt 0.125 0.625
vt 0.125 0.625
vt 0.125 0.625
vt 0.125 0.625
vt 0.125 0.625
vt 0.125 0.625
vt 0.125 0.625
vt 0.125 0.625
vt 0.125 0.625
vt 0.125 0.625
vt 0.125 0.625
vt 0.125 0.625
vt 0.125 0.625
vt 0.125 0.625
vt 0.125 0.625
vt 0.125 0.625
vt 0.125 0.625
vt 0.125 0.625
vt 0.125 0.625
vt 0.125 0.625
vt 0.125 0.625
vt 0.125 0.625
vt 0.125 0.625
vt 0.125 0.625
vt 0.125 0.625
vt 0.125 0.625
vt 0.125 0.625
vt 0.125 0.625
vt 0.125 0.625
vt 0.125 0.625
vt 0.125 0.625
vt 0.125 0.625
vt 0.125 0.625
vt 0.125 0.625
vt 0.125 0.625
vt 0.125 0.625
vt 0.125 0.625
vt 0.125 0.625
vt 0.125 0.625
vt 0.125 0.625
vt 0.125 0.625
vt 0.125 0.625
vt 0.125 0.625
vt 0.125 0.625
vt 0.125 0.625
vt 0.125 0.625
vt 0.125 0.625
vt 0.125 0.625
vt 0.125 0.625
vt 0.125 0.625
vt 0.125 0.625
vt 0.125 0.625
vt 0.125 0.625
vt 0.125 0.625
vt 0.125 0.625
vt 0.125 0.625
vt 0.125 0.625
vt 0.125 0.625
vt 0.125 0.625
vt 0.125 0.625
vt 0.125 0.625
vt 0.125 0.625
vt 0.125 0.625
vt 0.125 0.625
vt 0.125 0.625
vt 0.125 0.625
vt 0.125 0.625
vt 0.15625 0.65625
vt 0.125 0.625
vt 0.125 0.625
vt 0.125 0.625
vt 0.125 0.625
vt 0.125 0.625
vt 0.125 0.625
vt 0.125 0.625
vt 0.125 0.625
vt 0.125 0.625
vt 0.125 0.625
vt 0.15625 0.65625
vt 0.125 0.625
vt 0.125 0.625
vt 0.125 0.625
vt 0.125 0.625
vt 0.125 0.625
vt 0.125 0.625
vt 0.125 0.625
vt 0.125 0.625
vt 0.125 0.625
vt 0.15625 0.65625
vt 0.125 0.65625
vt 0.125 0.625
vt 0.125 0.625
vt 0.125 0.625
vt 0.125 0.625
vt 0.125 0.625
vt 0.125 0.625
vt 0.125 0.625
vt 0.125 0.625
vt 0.125 0.625
vt 0.125 0.625
vt 0.125 0.625
vt 0.125 0.65625
vt 0.15625 0.65625
vt 0.125 0.625
vt 0.125 0.625
vt 0.125 0.625
vt 0.125 0.625
vt 0.125 0.625
vt 0.125 0.625
vt 0.125 0.625
vt 0.125 0.625
vt 0.125 0.65625
vt 0.125 0.625
vt 0.125 0.625
vt 0.125 0.625
vt 0.125 0.625
vt 0.125 0.625
vt 0.125 0.625
vt 0.125 0.625
vt 0.125 0.625
vt 0.125 0.625
vt 0.125 0.625
vt 0.125 0.625
vt 0.125 0.625
vt 0.125 0.65625
vt 0.125 0.625
vt 0.125 0.625
vt 0.125 0.625
vt 0.125 0.625
vt 0.125 0.625
vt 0.125 0.625
vt 0.125 0.625
vt 0.125 0.625
vt 0.125 0.625
vt 0.125 0.625
vt 0.125 0.625
vt 0.125 0.625
vt 0.125 0.625
vt 0.125 0.625
vt 0.125 0.625
vt 0.125 0.625
vt 0.125 0.625
vt 0.125 0.625
vt 0.125 0.625
vt 0.125 0.625
vt 0.125 0.625
vt 0.125 0.625
vt 0.125 0.625
vt 0.125 0.625
vt 0.125 0.625
vt 0.125 0.625
vt 0.125 0.625
vt 0.125 0.625
vt 0.125 0.625
vt 0.125 0.625
vt 0.125 0.625
vt 0.125 0.625
vt 0.125 0.625
vt 0.125 0.625
vt 0.125 0.625
vt 0.125 0.625
vt 0.125 0.625
vt 0.125 0.625
vt 0.125 0.625
vt 0.125 0.625
vt 0.125 0.625
vt 0.125 0.625
vt 0.125 0.625
vt 0.125 0.625
vt 0.125 0.625
vt 0.125 0.625
vt 0.125 0.625
vt 0.125 0.625
vt 0.125 0.625
vt 0.125 0.625
vt 0.125 0.625
vt 0.125 0.625
vt 0.125 0.625
vt 0.125 0.625
vt 0.125 0.625
vt 0.125 0.625
vt 0.125 0.625
vt 0.125 0.625
vt 0.125 0.625
vt 0.125 0.625
vt 0.125 0.625
vt 0.125 0.625
vt 0.125 0.625
vt 0.125 0.625
vt 0.125 0.625
vt 0.125 0.625
vt 0.125 0.625
vt 0.125 0.625
vt 0.125 0.625
vt 0.125 0.625
vt 0.125 0.625
vt 0.125 0.625
vt 0.125 0.625
vt 0.125 0.625
vt 0.125 0.625
vt 0.125 0.625
vt 0.125 0.625
vt 0.125 0.625
vt 0.125 0.625
vt 0.125 0.625
vt 0.125 0.625
vt 0.125 0.625
vt 0.125 0.625
vt 0.125 0.625
vt 0.125 0.625
vt 0.125 0.625
vt 0.125 0.625
vt 0.125 0.625
vt 0.125 0.625
vt 0.125 0.625
vt 0.3125 0.9375
vt 0.3125 0.9375
vt 0.3125 0.9375
vt 0.3125 0.9375
vt 0.3125 0.9375
vt 0.3125 0.9375
vt 0.3125 0.9375
vt 0.3125 0.9375
vt 0.3125 0.9375
vt 0.3125 0.9375
vt 0.3125 0.9375
vt 0.3125 0.9375
vt 0.28125 0.9375
vt 0.3125 0.9375
vt 0.3125 0.9375
vt 0.3125 0.9375
vt 0.3125 0.9375
vt 0.3125 0.9375
vt 0.3125 0.9375
vt 0.3125 0.9375
vt 0.3125 0.9375
vt 0.3125 0.9375
vt 0.3125 0.9375
vt 0.3125 0.9375
vt 0.3125 0.9375
vt 0.3125 0.9375
vt 0.3125 0.9375
vt 0.3125 0.9375
vt 0.3125 0.9375
vt 0.3125 0.9375
vt 0.3125 0.9375
vt 0.3125 0.9375
vt 0.3125 0.9375
vt 0.3125 0.9375
vt 0.3125 0.96875
vt 0.3125 0.9375
vt 0.3125 0.9375
vt 0.3125 0.9375
vt 0.3125 0.9375
vt 0.3125 0.96875
vt 0.3125 0.9375
vt 0.3125 0.9375
vt 0.3125 0.9375
vt 0.3125 0.9375
vt 0.3125 0.9375
vt 0.3125 0.9375
vt 0.3125 0.9375
vt 0.3125 0.9375
vt 0.3125 0.9375
vt 0.3125 0.9375
vt 0.3125 0.9375
vt 0.3125 0.9375
vt 0.28125 0.96875
vt 0.3125 0.96875
vt 0.3125 0.9375
vt 0.3125 0.9375
vt 0.3125 0.9375
vt 0.3125 0.9375
vt 0.3125 0.9375
vt 0.3125 0.9375
vt 0.3125 0.9375
vt 0.3125 0.9375
vt 0.3125 0.9375
vt 0.3125 0.9375
vt 0.3125 0.9375
vt 0.3125 0.9375
vt 0.3125 0.9375
vt 0.3125 0.9375
vt 0.3125 0.9375
vt 0.3125 0.9375
vt 0.3125 0.9375
vt 0.3125 0.9375
vt 0.3125 0.9375
vt 0.3125 0.9375
vt 0.3125 0.9375
vt 0.3125 0.9375
vt 0.3125 0.9375
vt 0.3125 0.9375
vt 0.3125 0.9375
vt 0.3125 0.9375
vt 0.3125 0.9375
vt 0.3125 0.9375
vt 0.3125 0.9375
vt 0.3125 0.9375
vt 0.3125 0.9375
vt 0.3125 0.9375
vt 0.3125 0.9375
vt 0.3125 0.9375
vt 0.3125 0.9375
vt 0.3125 0.9375
vt 0.3125 0.9375
vt 0.3125 0.9375
vt 0.3125 0.9375
vt 0.3125 0.9375
vt 0.3125 0.9375
vt 0.3125 0.9375
vt 0.3125 0.9375
vt 0.3125 0.9375
vt 0.3125 0.9375
vt 0.3125 0.9375
vt 0.3125 0.9375
vt 0.3125 0.9375
vt 0.3125 0.9375
vt 0.3125 0.9375
vt 0.3125 0.9375
vt 0.3125 0.9375
vt 0.3125 0.9375
vt 0.3125 0.9375
vt 0.3125 0.9375
vt 0.3125 0.9375
vt 0.3125 0.9375
vt 0.3125 0.9375
vt 0.3125 0.9375
vt 0.3125 0.9375
vt 0.3125 0.9375
vt 0.3125 0.9375
vt 0.3125 0.9375
vt 0.3125 0.9375
vt 0.3125 0.9375
vt 0.3125 0.9375
vt 0.3125 0.9375
vt 0.3125 0.9375
vt 0.3125 0.9375
vt 0.3125 0.9375
vt 0.3125 0.9375
vt 0.3125 0.9375
vt 0.3125 0.9375
vt 0.3125 0.9375
vt 0.3125 0.9375
vt 0.3125 0.9375
vt 0.3125 0.9375
vt 0.3125 0.9375
vt 0.3125 0.9375
vt 0.3125 0.9375
vt 0.3125 0.9375
vt 0.3125 0.9375
vt 0.3125 0.9375
vt 0.3125 0.9375
vt 0.3125 0.9375
vt 0.3125 0.9375
vt 0.3125 0.9375
vt 0.3125 0.9375
vt 0.3125 0.9375
vt 0.3125 0.9375
vt 0.3125 0.9375
vt 0.3125 0.9375
vt 0.3125 0.9375
vt 0.3125 0.9375
vt 0.3125 0.9375
vt 0.3125 0.9375
vt 0.3125 0.9375
vt 0.3125 0.9375
vt 0.3125 0.9375
vt 0.3125 0.9375
vt 0.3125 0.9375
vt 0.3125 0.9375
vt 0.3125 0.9375
vt 0.3125 0.9375
vt 0.3125 0.9375
vt 0.3125 0.9375
vt 0.3125 0.9375
vt 0.3125 0.9375
vt 0.3125 0.9375
vt 0.3125 0.9375
vt 0.3125 0.9375
vt 0.3125 0.9375
vt 0.3125 0.9375
vt 0.3125 0.9375
vt 0.3125 0.9375
vt 0.3125 0.9375
vt 0.3125 0.9375
vt 0.3125 0.9375
vt 0.3125 0.9375
vt 0.3125 0.9375
vt 0.3125 0.9375
vt 0.3125 0.9375
vt 0.3125 0.9375
vt 0.3125 0.9375
vt 0.3125 0.9375
vt 0.3125 0.9375
vt 0.3125 0.9375
vt 0.3125 0.9375
vt 0.3125 0.9375
vt 0.3125 0.9375
vt 0.3125 0.9375
vt 0.3125 0.9375
vt 0.3125 0.9375
vt 0.3125 0.9375
vt 0.3125 0.9375
vt 0.3125 0.9375
vt 0.3125 0.9375
vt 0.3125 0.9375
vt 0.3125 0.9375
vt 0.3125 0.9375
vt 0.3125 0.9375
vt 0.3125 0.9375
vt 0.3125 0.9375
vt 0.3125 0.9375
vt 0.3125 0.9375
vt 0.3125 0.9375
vt 0.3125 0.9375
vt 0.3125 0.9375
vt 0.3125 0.9375
vt 0.3125 0.9375
vt 0.3125 0.9375
vt 0.3125 0.9375
vt 0.3125 0.9375
vt 0.3125 0.9375
vt 0.3125 0.9375
vt 0.3125 0.9375
vt 0.3125 0.9375
vt 0.3125 0.9375
vt 0.3125 0.9375
vt 0.3125 0.9375
vt 0.3125 0.9375
vt 0.3125 0.9375
vt 0.3125 0.9375
vt 0.3125 0.9375
vt 0.3125 0.9375
vt 0.3125 0.9375
vt 0.3125 0.9375
vt 0.3125 0.9375
vt 0.3125 0.9375
vt 0.3125 0.9375
vt 0.3125 0.9375
vt 0.125 0.625
vt 0.125 0.625
vt 0.125 0.625
vt 0.125 0.625
vt 0.125 0.625
vt 0.125 0.625
vt 0.125 0.625
vt 0.125 0.625
vt 0.125 0.625
vt 0.125 0.625
vt 0.3125 0.9375
vt 0.3125 0.9375
vt 0.3125 0.9375
vt 0.3125 0.9375
vt 0.3125 0.9375
vt 0.3125 0.9375
vt 0.3125 0.9375
vt 0.3125 0.9375
vt 0.3125 0.9375
vt 0.3125 0.9375
vt 0.3125 0.9375
vt 0.3125 0.9375
vt 0.3125 0.9375
vt 0.3125 0.9375
vt 0.3125 0.9375
vt 0.3125 0.9375
vt 0.3125 0.9375
vt 0.3125 0.9375
vt 0.3125 0.9375
vt 0.3125 0.9375
vt 0.3125 0.9375
vt 0.3125 0.9375
vt 0.3125 0.9375
vt 0.3125 0.9375
vt 0.3125 0.9375
vt 0.3125 0.9375
vt 0.3125 0.9375
vt 0.3125 0.9375
vt 0.3125 0.9375
vt 0.3125 0.9375
vt 0.3125 0.9375
vt 0.3125 0.9375
vt 0.3125 0.9375
vt 0.3125 0.9375
vt 0.3125 0.9375
vt 0.3125 0.9375
vt 0.3125 0.9375
vt 0.3125 0.9375
vt 0.125 0.625
vt 0.125 0.625
vt 0.125 0.625
vt 0.125 0.625
vt 0.125 0.625
vt 0.125 0.625
vt 0.125 0.625
vt 0.125 0.625
vt 0.125 0.625
vt 0.125 0.625
vt 0.125 0.625
vt 0.125 0.625
vt 0.3125 0.9375
vt 0.3125 0.9375
vt 0.3125 0.9375
vt 0.3125 0.9375
vt 0.3125 0.9375
vt 0.3125 0.9375
vt 0.3125 0.9375
vt 0.3125 0.9375
vt 0.3125 0.9375
vt 0.28125 0.9375
vt 0.28125 0.96875
vt 0.3125 0.9375
vt 0.3125 0.9375
vt 0.3125 0.9375
vt 0.3125 0.9375
vt 0.3125 0.9375
vt 0.3125 0.9375
vt 0.3125 0.9375
vt 0.3125 0.9375
vt 0.3125 0.9375
vt 0.3125 0.9375
vt 0.3125 0.9375
vt 0.3125 0.9375
vt 0.3125 0.9375
vt 0.3125 0.9375
vt 0.3125 0.9375
vt 0.3125 0.9375
vt 0.3125 0.9375
vt 0.3125 0.9375
vt 0.9140625 0.8125
vt 0.9140625 0.8125
vt 0.9140625 0.8125
vt 0.9140625 0.8125
vt 0.9140625 0.8125
vt 0.9140625 0.8125
vt 0.9140625 0.8125
vt 0.9140625 0.8125
vt 0.9140625 0.8125
vt 0.9140625 0.8125
vt 0.9140625 0.8125
vt 0.9140625 0.8125
vt 0.9140625 0.8125
vt 0.9140625 0.8125
vt 0.9140625 0.8125
vt 0.9140625 0.8125
vt 0.9140625 0.8125
vt 0.9140625 0.8125
vt 0.9140625 0.8125
vt 0.9140625 0.8125
vt 0.9140625 0.8125
vt 0.9140625 0.8125
vt 0.9140625 0.8125
vt 0.9140625 0.8125
vt 0.9140625 0.8125
vt 0.9140625 0.8125
vt 0.9140625 0.8125
vt 0.9140625 0.8125
vt 0.9140625 0.8125
vt 0.9140625 0.8125
vt 0.9140625 0.8125
vt 0.9140625 0.8125
vt 0.9140625 0.8125
vt 0.9140625 0.8125
vt 0.9140625 0.8125
vt 0.9140625 0.8125
vt 0.9140625 0.8125
vt 0.9140625 0.8125
vt 0.9140625 0.8125
vt 0.9140625 0.8125
vt 0.9140625 0.8125
vt 0.9140625 0.8125
vt 0.9140625 0.8125
vt 0.9140625 0.8125
vt 0.9140625 0.8125
vt 0.9140625 0.8125
vt 0.9140625 0.8125
vt 0.9140625 0.8125
vt 0.9140625 0.8125
vt 0.9140625 0.8125
vt 0.9140625 0.8125
vt 0.9140625 0.8125
vt 0.9140625 0.8125
vt 0.9140625 0.8125
vt 0.9140625 0.8125
vt 0.9140625 0.8125
vt 0.9140625 0.8125
vt 0.9140625 0.8125
vt 0.9140625 0.8125
vt 0.9140625 0.8125
vt 0.9140625 0.8125
vt 0.9140625 0.8125
vt 0.9140625 0.8125
vt 0.9140625 0.8125
vt 0.9140625 0.8125
vt 0.9140625 0.8125
vt 0.9140625 0.8125
vt 0.9140625 0.8125
vt 0.9140625 0.8125
vt 0.9140625 0.8125
vt 0.9140625 0.8125
vt 0.9140625 0.8125
vt 0.9140625 0.8125
vt 0.9140625 0.8125
vt 0.9140625 0.8125
vt 0.9140625 0.8125
vt 0.9140625 0.8125
vt 0.9140625 0.8125
vt 0.9140625 0.8125
vt 0.9140625 0.8125
vt 0.9140625 0.8125
vt 0.9140625 0.8125
vt 0.9140625 0.8125
vt 0.9140625 0.8125
vt 0.9140625 0.8125
vt 0.9140625 0.8125
vt 0.9140625 0.8125
vt 0.9140625 0.8125
vt 0.9140625 0.8125
vt 0.9140625 0.8125
vt 0.9140625 0.8125
vt 0.9140625 0.8125
vt 0.9140625 0.8125
vt 0.9140625 0.8125
vt 0.9140625 0.8125
vt 0.9140625 0.8125
vt 0.9140625 0.8125
vt 0.9140625 0.8125
vt 0.9140625 0.8125
vt 0.9140625 0.8125
vt 0.3125 0.9375
vt 0.28125 0.9375
vt 0.28125 0.96875
vt 0.3125 0.96875
vt 0.28125 0.96875
vt 0.28125 0.9375
vt 0.3125 0.9375
vn -0.08124900547812342 -0.9807379653695026 -0.17762781986981702
vn -0.08224573872959912 -0.992769302064824 -0.08743426867392814
vn -0.0816047134715751 -0.9933418919706452 -0.08131762659719854
vn 0.07753370132230733 0.9357791435439095 0.3439562758076825
vn -0.33517286642371263 -0.9288522158799462 -0.15777423955838268
vn -0.33459689392060993 -0.9272734106883576 -0.16795517380855243
vn -0.3383461775634894 -0.9373926335698755 -0.0825646089865933
vn -0.08141340191708739 -0.982604496105087 -0.16691393657317827
vn 0.04848998181264282 -0.6239937921304396 -0.7799233738300727
vn 0.0785709205197835 0.9482976751724428 0.3075030564258087
vn 0.07689380755326583 0.928056060124178 0.36441637123865595
vn 0.07342341763031127 0.8861708095237095 0.45750442412241027
vn -0.5851512855437233 -0.7994728825911187 -0.13579794927750377
vn -0.526854402052015 -0.8363484801451536 -0.15147824529385553
vn -0.7135167802162077 -0.5863599384721501 -0.38350466347207907
vn -0.5111686908282463 -0.8565616870171383 -0.07077178711386824
vn 0.41795542620410786 0.8641692072789026 0.2802228450670928
vn 0.2369320480272203 0.9060697220539304 0.3505721942692265
vn 0.3050084102923415 0.8462285575905854 0.4368833917295279
vn 0.3206037145641792 0.8890588662420222 0.32678370608722246
vn -0.33849036996389703 -0.9377751647502426 -0.0774726391660933
vn 0.9161656129436684 -0.017001194438926857 0.4004391702208996
vn 0.9229336683509842 -0.2647311914227732 0.27948316606206264
vn 0.985277275367567 -0.09423437509438763 0.14264842513968995
vn 0.9970759642976305 -0.03810166215926447 0.0662403559822238
vn 0.02700337624580559 0.32595151314866105 0.9450007559507168
vn 0.7383046189083573 0.5264348871337639 0.42163088040019875
vn 0.16364025828091402 0.2470457868142368 0.9550865118339231
vn 0.4241746952206639 0.745275627933738 0.5144317897860019
vn 0.4813081419564253 0.7788747351297999 0.4021151818359236
vn 0.25134563179499636 0.27729975006355134 0.927324227005995
vn 0.5720556629326214 0.7698573805269039 0.2829698431899991
vn 0.17432699145781705 0.2945497419498894 0.9396012715862616
vn 0.20744088957480475 0.2449741692287109 0.9470775753564842
vn -0.15783984011441612 -0.3590373294673051 -0.9198797643831729
vn 0.0270061345657066 0.32594571190757166 0.9450026780834462
vn 0.8758501760773576 -0.033458468164834214 0.4814218524052731
vn 0.9915855053299731 -0.09482355716584796 0.08812876162704893
vn 0.9479068687969675 -0.27189442030304345 0.16596985357468017
vn 0.859231425801233 0.03066586268533667 0.5106671731973226
vn 0.01803605340568887 -0.1785456508012713 -0.9837663093222382
vn -0.2234247222840066 -0.15241324100304132 -0.9627313215218789
vn 0.44914319338398706 0.8209170442030201 0.3526550699675411
vn -0.9207115642532581 0.025746263618473538 -0.3893935610150823
vn 0.9854891471184155 0.06691656482623816 0.15599139163323758
vn 0.40565472434622607 0.7500508585955047 0.5223676426959594
vn -0.3292481903606248 -0.6889681880499265 -0.6456922370599286
vn 0.4181377216702633 0.8449498317897549 0.3334975674197137
vn -0.9522786891704215 -0.007113279386497623 -0.3051470127794697
vn -0.38506185972798535 -0.7924645945839639 -0.47299812950338344
vn 0.985921691438794 0.06819965455138301 0.15266704120254584
vn -0.9938638176896859 -0.07552386189202369 -0.0808137251473875
vn -0.9658311404355968 -0.025736052488794257 -0.25789118590438226
vn -0.40452670635069027 -0.8227902955497425 -0.3992170755343893
vn 0.9835650414897774 0.05460935637948341 0.17209772617623703
vn -0.43297526834388766 -0.8617956403087493 -0.2642738945627648
vn 0.9544425846506275 0.012916695384221832 0.2981149301624812
vn 0.4068765832386159 0.8230125930428165 0.39636059050441563
vn 0.10982872850775577 0.8264469054904167 -0.5521984813449635
vn 0.16821607236113678 0.5065845933610106 -0.8456213116807385
vn 0.03877659974962817 0.9800440643635242 -0.19496155317826594
vn 0.5053613433677604 0.41546902621744425 -0.7563037755316718
vn 0.11043304459216145 0.9800441642382219 -0.16528151380209077
vn 0.312787931560998 0.8264436953505001 -0.4681394325253985
vn 0.7239370990755667 0.49185010586382755 -0.48373396608445335
vn 0.1652815138020922 0.9800441642382219 -0.11043304459215925
vn 0.46814857015851363 0.8264362085181195 -0.3127940368816752
vn 0.9718889138676192 -0.1344294986993431 -0.1932890296438554
vn 0.5522086853921669 0.8264398177536186 -0.10983075802715997
vn 0.8203127351980967 0.5481412245434015 -0.1631815382568682
vn 0.19496155317826502 0.9800440643635242 -0.038776599749629784
vn 0.5521990661662198 0.826447780762143 0.10981920141069994
vn 0.9072929184023526 -0.37979658629986934 0.18048299989724242
vn 0.8203313272864554 0.5481122987065606 0.16318523670679444
vn 0.19496157891680163 0.9800441937474956 0.03877320012701262
vn 0.9626421236626265 0.19149332567482374 0.19144306718265985
vn 0.8160959135752999 -0.19145391359649927 0.5452823661317876
vn 0.6954296431116405 0.5481508696470395 0.4646592682674165
vn 0.1652747188882871 0.9800445327865301 0.11043994318918131
vn 0.6812533894976 -0.573287587302915 0.4552308881682287
vn 0.8160723671895036 0.19144604622067488 0.5453203672119643
vn 0.46813468809810144 0.8264353196364294 0.31281716106493657
vn 0.11044336821196686 0.9800447157298062 0.1652713453326967
vn 0.39422482820240956 -0.7046218238026906 0.5899956527380102
vn 0.5452915238872761 0.19148884061458268 0.8160816000234138
vn 0.3128173347397515 0.8264487422630108 0.4681108752189018
vn 0.5452779719790468 -0.19149445733043963 0.8160893370741578
vn 0.46468704101813957 0.5481240498497298 0.6954322252284091
vn 0.1130190719079774 -0.8151100675687291 0.5681745041210154
vn 0.19148404376225733 0.1914776094865933 0.9626370998718851
vn 0.10983075802715472 0.8264398177536194 0.5522086853921667
vn 0.19149794439494383 -0.1914843472831465 0.9626329944678077
vn 0.16318444657314266 0.5481184785806296 0.8203273552887731
vn 0.03877534825535257 0.980045365590907 0.1949552608971134
vn -0.19149124702074272 -0.19149768175467283 0.9626316742124307
vn -0.16318523670678708 0.5481122987065687 0.8203313272864514
vn -0.03877194874212792 0.9800454949666987 0.194955286633158
vn -0.13963382070594405 -0.6983808474372247 0.7019733528047372
vn -0.19148350415252605 0.1914917866855194 0.9626343871218487
vn -0.1098192014107003 0.8264477807621425 0.5521990661662202
vn -0.5452926052490177 -0.1914973114609456 0.8160788897918929
vn -0.4646709800810746 0.5481187023632632 0.6954471715307398
vn -0.11045026701388815 0.9800450841521721 0.16526455017856354
vn -0.3969309027568337 -0.6996609572995813 0.5940710422729579
vn -0.545275015569238 0.19149192933594353 0.8160919056057139
vn -0.3128537261540424 0.8264315864904431 0.4681168431945395
vn -0.503406544443229 -0.7958886610393362 0.3363674928418918
vn -0.816085885015635 0.19146242382253525 0.5452943870445103
vn -0.4681126375503084 0.8264533868161549 0.3128024264384806
vn -0.8160785168030664 -0.19146904546588783 0.5453030891539943
vn -0.6954453338807063 0.5481220748539215 0.46466975223419194
vn -0.16527471888828696 0.9800445327865301 0.11043994318918146
vn -0.9626384812824886 0.19147735421472714 0.19147735421472714
vn -0.5521842017894197 0.8264516613597872 0.10986472923476992
vn -0.962640686944343 -0.19148292572740938 0.19146069307874863
vn -0.8203341475915887 0.5481195155862093 0.16314681403178163
vn -0.1949551572143195 0.9800448443746997 0.038789040850613445
vn -0.8203219249399948 0.5481385314772071 -0.16314438320933017
vn -0.19495513145559623 0.9800447148849017 -0.03879244185795506
vn -0.9626403493325566 0.19146062593075922 -0.19148469013238417
vn -0.5522104894813193 0.8264321189200111 -0.10987960740821054
vn -0.695436215134936 0.5481167273699046 -0.46468970706924495
vn -0.16528151380209208 0.9800441642382222 -0.11043304459215944
vn -0.46812868828348897 0.8264524982687624 -0.3127807527826822
vn -0.3128096054757926 0.8264445842405173 -0.4681233810669982
vn -0.4822913498062698 0.49635971472889545 -0.7218185973610655
vn -0.11043994318918365 0.9800445327865298 -0.1652747188882878
vn -0.1098223233742926 0.8264368768936627 -0.5522147641986054
vn -0.1776039099768609 0.4139325449628049 -0.8928139220361355
vn -0.03877320012701288 0.9800441937474953 -0.1949615789168025
vn -0.9889513285492857 -0.1361200681212461 0.05870772364238376
vn 0.1570312780351517 -0.17382198598136375 -0.9721764731303375
vn -0.49153922931257643 0.16885824486959342 0.8543278522829271
vn 0.9999926081504275 0.0035305779590230893 -0.0015227159226191063
vn 0.21232849128149517 0.9077525803199655 0.3618036272794522
vn 0.49152941567913566 0.16885383429911535 0.8543343702348715
vn 0.49843685417168565 0.26932724166980243 0.824028846156474
vn 0.2782943427459126 0.89278974948956 0.354229758775275
vn 0.6722704462032693 -0.11394939150903403 -0.7314834128921709
vn -0.4998898661629709 0.32271586154727777 0.8037192261065834
vn -0.5634134836611845 -0.43450641345140617 -0.7026872868483989
vn -0.9989304173647335 0.04245814934471812 -0.018311931021636856
vn 0.9889512152769467 -0.13612076200320733 0.058708022909280864
vn -0.6943540683697851 0.018823233902882104 -0.7193873182116607
vn -0.48397497442463283 -0.5626062964796051 -0.6702554582337833
vn 0.48480852627363347 -0.5571452619778576 -0.6742031221434769
vn 0.9616460041012791 -0.25186625808438046 0.1086294197472083
vn 0.44620799316142945 -0.1082129848312951 0.8883627506558072
vn -0.40854327793970774 -0.24912943451830014 0.8780813828494891
vn -0.9411117070170624 -0.3104517479819302 0.13389722585025787
vn 0.45356226927315607 -0.40845605048617617 -0.792114210649588
vn 0.9814493350680568 0.13449654520854837 -0.13663045788342432
vn -0.9653003149106165 -0.2609607931044099 -0.009734808461484213
vn 0.944845998678433 0.12759931311385317 -0.3016362943583338
vn -0.4966269687162505 0.08416980759103207 -0.8638733109859323
vn -0.4565629850437441 -0.38956523730183984 -0.7998682182546742
vn -0.43910010593541343 -0.6820779499960857 -0.5847741163018811
vn -0.8555487620226713 -0.5006758443727394 0.1317574083803989
vn 0.9213645226622694 -0.3757292858357919 0.09957369203084857
vn 0.4949847178508896 -0.4962460654650295 -0.7132530908482299
vn 0.25509296665662134 -0.015273292120577788 0.9667958962004978
vn -0.19603381761541264 -0.015489389229522945 0.9804747937465927
vn 0.496620523533122 0.08416742398874442 -0.8638772484240956
vn -0.9327873695150054 0.1760174703656987 -0.314524360581716
vn 0.4826593426075658 0.23282076877400582 -0.8442952378292286
vn 0.9371403326891401 0.23666553327388576 -0.2564321005792275
vn -0.9369436805956262 0.23740887340285804 -0.256463576793094
vn -0.48269408060383273 0.23279720563950393 -0.8442818756768732
vn 0.2670921777335244 0.7064763030096881 -0.6554029309358684
vn 0.8809935159470422 0.39549831190902474 -0.2596757788789337
vn -0.8809935159470417 0.39549831190902557 -0.25967577887893367
vn -0.26737512165935984 0.7058216259905234 -0.6559926650517797
vn -0.42321477935274454 0.852464197481652 0.30691047969948976
vn -0.04087608291736067 0.8315362049780001 0.5539645166038331
vn 0.38108186673194006 0.5447423386421002 0.7470156593665459
vn 0.215016445100471 0.9742817853125607 -0.06740126960618417
vn -0.13704219331086412 0.9866078696087803 -0.08845534963229744
vn 0.5206331331292409 0.7683501932657614 0.37226216729140954
vn -0.3746804150959571 0.6523879258712892 0.658790240304817
vn 0.29020478378520026 0.8770691216113385 0.38279359893302844
vn -0.18915784058076424 0.9787770060862614 -0.07883453369962423
vn 0.1122223582318097 0.9895740157839241 -0.09027408043380786
vn -0.5363533986119449 0.2911241954688359 0.7921942530781446
vn -0.33770968008667845 0.4455192602024851 0.829134947257914
vn 0.5307040328724236 0.32765777688599257 0.7816608028672507
vn -0.4389386521715481 0.4388294243487234 0.7840673414672958
vn 0.5363533986119444 0.2911241954688357 0.792194253078145
vn 0.44423236908946223 0.06919729868603122 0.8932353195590288
vn -0.6789069770787364 -0.7250976441678486 -0.11540677144798836
vn -0.7916193814481202 -0.4018462841772015 -0.46028069567240326
vn -0.8322345584704905 -0.0334303409684778 -0.5534149004048944
vn -0.4826854500141225 0.2327974446707499 -0.8442867440031459
vn -0.4966220456002357 0.08416962685577871 -0.8638761587975424
vn -0.2673783129017355 0.7058218347613122 -0.6559911396993077
vn -0.4597361733455087 -0.4224731250087382 -0.7811268204094515
vn 0.2671168879092358 0.706476752939583 -0.6553923754131018
vn 0.4597270480451748 -0.42247537235092736 -0.7811309756069178
vn 0.4827034116359627 0.2328254201034255 -0.8442687606139802
vn 0.4966178273593341 0.08416771634473354 -0.8638787698943684
vn 0.3452692688935166 0.063794469871418 0.9363329523046604
vn -0.29630953249679887 0.4077235384799191 0.863691019474524
vn 0.7809303847759503 -0.3954634588178335 -0.483483595247576
vn 0.6830499868898493 -0.7218631154811579 -0.11115915579750124
vn 0.9399000693330336 -0.1608165551939094 -0.3012073957314516
vn 0.8342685937923071 -0.03047402526668099 -0.5505154377452575
vn 0.3689274324195537 0.8678056072298672 0.33287531850336566
vn 0.35324341458055397 0.8312824026881314 0.4291720599439329
vn -0.12311841012960884 0.9340237412222641 0.3353229904440238
vn 0.11471115174634906 0.8664645118811468 0.48588126256894537
vn 0.40725197502899774 0.685548197456347 -0.6034645787445475
vn -0.1529337668252656 0.472335551359537 -0.8680497623330807
vn 0.04454149323576092 0.0458987556112281 -0.99795258385039
vn 0.004056623267332357 -0.5670191216878431 0.8236946396863427
vn 0.8274017081227795 0.5421360531110717 0.14661143650021322
vn 0.8274447687364422 0.5397878282558699 0.1548039248775927
vn 0.8274440657228802 0.5397885900724503 0.15480502617029654
vn 0.8264956225432524 0.5519863453181723 0.11052628872412813
vn 0.8274452585638793 0.5397888318738576 0.1547978070400588
vn 0.8438408143717155 0.49586838582901377 0.20505419755715434
vn -0.8091081213726701 -0.5662288512223325 -0.15725436710065108
vn -0.8110740524535782 -0.5625441515774207 -0.16032142390388907
vn -0.8069776090848242 -0.5669317212253313 -0.1654556191376529
vn -0.8278560722304134 -0.5390198022695111 -0.15528031566354444
vn -0.8311380561530558 -0.5320077363707679 -0.1617940050056608
vn -0.8071428668547547 -0.5889121183013252 0.04126632287149074
vn -0.09459995775367651 0.8221140008507857 -0.5614084231627782
vn -0.5580872990094212 0.760031418466782 0.33300271714768404
vn -0.44459059081385793 -0.8562750061527328 -0.2629302576690673
vn -0.17728792051510184 0.98391633023422 -0.021855167303321894
vn -0.33776472142080394 -0.7755104565417865 -0.5333840312175427
vn -0.3197588646637838 -0.9442839178377262 -0.07798814641958435
vn 0.07451591583799938 -0.9963770076061478 0.04099069407368838
vn -0.5614251530924469 0.7906401583015218 0.2443152421689389
vn -0.10073341753427563 -0.9945703476696631 -0.026126655509475655
vn -0.5599735423826353 0.7726692764475694 0.2990180948796117
vn -0.5612607064914599 0.8041716981807363 0.19568929248637618
vn 0.12943168725789816 0.4116976749270207 -0.9020822926946626
vn -0.4604035275073428 -0.8723015886646147 -0.1646770484068278
vn 0.11708313065785814 0.8575072810538668 0.5009718589451507
vn 0.6030411904726165 -0.343488157544562 -0.71997028287285
vn 0.08125772175837088 -0.9807352877373108 -0.17763861641392456
vn 0.08225466875371408 -0.9927678807903646 -0.08744200557641281
vn 0.08228270945316606 -0.9932254367061818 -0.08205356546098867
vn -0.0775329355090592 0.9357791994428052 0.3439562963539569
vn 0.3351728664237127 -0.9288522158799463 -0.1577742395583827
vn 0.3345918794097711 -0.9272766944265342 -0.1679470339316453
vn 0.5959328446262482 -0.6993913034580069 -0.39460847601512344
vn 0.08140302624308669 -0.9826068784902233 -0.16690497195160775
vn 0.01800247018237627 -0.6004422437700107 -0.7994654607697368
vn -0.07857014458816017 0.9482977333448718 0.3075030752892956
vn -0.022777099618131895 0.9223165446806769 0.38576339269205256
vn -0.07342269196232222 0.8861708569954828 0.4575044486307185
vn 0.7235529901991705 -0.5920355947597993 -0.35491537711298177
vn 0.5703739202930186 -0.7870435328811927 -0.23502354860622923
vn 0.6856583616934635 -0.6345380524531845 -0.35669885201491114
vn 0.5315620949840268 -0.8403084036155354 -0.10641205753721367
vn -0.312653971385692 0.8672411356248532 0.38747942765632115
vn -0.23693204802722032 0.9060697220539304 0.3505721942692265
vn -0.25967338519972527 0.8335609545314318 0.4875919073360051
vn -0.3206037145641784 0.8890588662420222 0.32678370608722335
vn 0.33849634686418345 -0.937772262318604 -0.07748165709024403
vn -0.8551865323108708 -0.24529883062113086 0.45660100596693143
vn -0.9710887558562485 -0.09287734971372529 0.219910041061607
vn -0.9934051494736942 -0.03796138784589321 0.10819030470407837
vn -0.8451878569530809 -0.39683553101640306 0.35802101583843937
vn -0.02700586640414841 0.3259457142697833 0.9450026849321236
vn -0.47007115408284333 0.6594139048557729 0.5866910704809521
vn -0.15448257174786337 0.3221561093542496 0.933997096479373
vn -0.2660768149379835 0.7733865168749725 0.5753924087685346
vn -0.4478116916114314 0.7789285805113338 0.43901589415271425
vn -0.2556745453003945 0.24209816834574055 0.9359588686310281
vn -0.4907768528531433 0.7908399856958116 0.36566405036346267
vn -0.2042102647223158 0.24514432936248506 0.94773541959951
vn -0.21158483735104816 0.3186824158272049 0.9239444650224748
vn 0.1640081094008483 -0.3431055627615322 -0.9248675109727078
vn -0.027003108111596282 0.32595151551043283 0.9450007627979808
vn -0.8700320303899101 -0.07034875388207301 0.487950119297916
vn -0.9973206461503246 -0.03809877762290395 0.06245007530771718
vn -0.988702529002641 -0.09456197489183607 0.11629850406749793
vn -0.7974377383598816 -0.228734360659613 0.5583669453801106
vn 0.004591828500175172 -0.15636433898441687 -0.9876887711242806
vn 0.13402042429283612 -0.37423178781235616 -0.9175996375670251
vn -0.4196898842599295 0.8474025255591494 0.3252220175908485
vn 0.706602268425733 -0.19921525780235397 -0.6789893337264954
vn -0.9854904389366592 0.0669124755779452 0.155984984458318
vn -0.38242378052585985 0.8159364508923292 0.43358939123730733
vn 0.32925998131467216 -0.6889673232946227 -0.6456871472601143
vn -0.42019958263064777 0.8433258757058817 0.33501310141834395
vn 0.9517088173533992 -0.008796726458318966 -0.3068761062308569
vn 0.3863808381251879 -0.7922789175933181 -0.4722329559304787
vn -0.986281951508605 0.06077677636545355 0.15347343608260522
vn 0.986373250041474 -0.10873098621678565 -0.1234722002676915
vn 0.9659986430677611 -0.02507003948156517 -0.2573288066106032
vn 0.4064140696559863 -0.8223208127282967 -0.3982663492432328
vn -0.9837359646870493 0.04972913881182479 0.17259943376000683
vn 0.41403786177080926 -0.8674170513415236 -0.27597157111237525
vn -0.953851469331553 0.004562157611831549 0.30024416925556163
vn -0.39836980348566736 0.831361160591407 0.38747918696479644
vn -0.10984752226646059 0.8264414438900103 -0.5522029171173534
vn -0.29110189958662597 0.4287094535910557 -0.8552589598821615
vn -0.038776350829157535 0.980044323179324 -0.19496030165229752
vn -0.4022758737103545 0.4893631947939411 -0.7737556364974915
vn -0.11043102569473177 0.9800449013107551 -0.16527849218456064
vn -0.31280806552549156 0.8264379260561484 -0.46813616450581164
vn -0.6549995039034905 0.5395927237195345 -0.5289757483997877
vn -0.16527699148651198 0.9800452673754695 -0.11043002300150073
vn -0.468131219163476 0.8264419780643715 -0.3128047610532273
vn -0.7309039635693665 0.14539487447347563 -0.6668131121352013
vn -0.5521973949842384 0.8264452795905113 -0.10984642377056751
vn -0.8203324123924013 0.5481130237305778 -0.16317734645282822
vn -0.19495526089711343 0.9800453655909069 -0.03877534825535437
vn -0.5522058909913197 0.826439378199432 0.10984811384734333
vn -0.983502563924024 -0.17852217519051355 -0.029198282828256344
vn -0.8203279410066203 0.5481217473073815 0.16317052225368975
vn -0.19495528663315798 0.9800454949666987 0.03877194874212783
vn -0.9626354569291338 0.1914779130646959 0.191491999496655
vn -0.816080594461801 -0.1914950393104898 0.5452908519885032
vn -0.6954379270718131 0.5481231908279657 0.46467952103210786
vn -0.1652701969428291 0.9800456358582615 0.11043692153285756
vn -0.4414595952034932 -0.7297554687059559 0.5220827345321032
vn -0.816090342640436 0.19148825865194022 0.5452786438578567
vn -0.46813873208962364 0.8264424588156264 0.3127922470015861
vn -0.1104413489359212 0.9800454528510751 0.1652683236169149
vn -0.3942248282024091 -0.7046218238026909 0.5899956527380104
vn -0.545280174815114 0.1914741334341861 0.8160926339449623
vn -0.3128047610532301 0.8264419780643719 0.46813121916347333
vn -0.545292509251293 -0.1914797496245473 0.8160830747161404
vn -0.4646815615007052 0.5481175864560435 0.6954409808307733
vn -0.2549821711332164 -0.6848733774859933 0.6825925206264124
vn -0.1914914829797434 0.1914914829797434 0.9626328603847043
vn -0.10984126690474927 0.8264457534479576 0.5521977115966685
vn -0.19147655924672852 -0.19149824083673428 0.9626344846386246
vn -0.16317156966872404 0.5481135545280785 0.8203332068095499
vn -0.03877194874212792 0.9800454949666987 0.194955286633158
vn 0.1914838078466111 -0.1914838078466113 0.9626359138662574
vn 0.16317674173837635 0.5481177536111315 0.8203293723449956
vn 0.038775348255352476 0.9800453655909072 0.19495526089711346
vn 0.23651123670441904 -0.7590164135391507 0.60659419622241
vn 0.19149818032933624 0.19147814890699605 0.962634180476521
vn 0.10984752226646059 0.8264414438900103 0.5522029171173534
vn 0.5452908519885045 -0.19149503931048856 0.8160805944618003
vn 0.46467952103210913 0.5481231908279648 0.6954379270718128
vn 0.11044336821196703 0.9800447157298061 0.16527134533269644
vn 0.3969384648572217 -0.6996686979210611 0.5940568729223149
vn 0.5452786438578635 0.19148825865193933 0.8160903426404317
vn 0.3128008863853205 0.8264467291777752 0.4681254204889063
vn 0.568789294373949 -0.3912559803250436 0.7234621596638449
vn 0.8160926339449681 0.19147413343418104 0.5452801748151074
vn 0.4681448511494706 0.8264374451987446 0.3127963355213934
vn 0.8160830747161417 -0.1914797496245419 0.5452925092512929
vn 0.6954339599735833 0.5481304712717319 0.46467687028610516
vn 0.1652747188882871 0.9800445327865301 0.11043994318918131
vn 0.9626328603847005 0.19149148297975246 0.19149148297975246
vn 0.5521973949842384 0.8264452795905114 0.10984642377056592
vn 0.9085403362261892 -0.4119670275926717 -0.06955304182033922
vn 0.820333206809556 0.5481135545280709 0.16317156966871993
vn 0.19496157891680163 0.9800441937474956 0.03877320012701262
vn 0.8203293723449956 0.5481177536111327 -0.1631767417383719
vn 0.19496155317826502 0.9800440643635242 -0.038776599749629784
vn 0.8839211227181263 -0.08633105002695661 -0.4595980837796982
vn 0.5522029171173526 0.8264414438900097 -0.10984752226646786
vn 0.6791059695997843 0.4957029518268043 -0.5413812571599887
vn 0.1652815138020922 0.9800441642382219 -0.11043304459215925
vn 0.4681361645058159 0.8264379260561469 -0.31280806552548907
vn 0.3128047610532301 0.8264419780643719 -0.46813121916347333
vn 0.39682695782388044 0.41327887173547917 -0.8195907147602964
vn 0.11043304459216165 0.980044164238222 -0.16528151380209055
vn 0.10984126690474927 0.8264457534479576 -0.5521977115966685
vn 0.29336641868590496 0.49054233798423846 -0.8205512531416691
vn 0.0387734490070009 0.9800439349510637 -0.19496283034911313
vn 0.98895512092813 -0.13609661915097562 0.05869820308750647
vn 0.26916772456737903 -0.6009425000236567 -0.7526067018812264
vn 0.49153516046336976 0.16886501540421797 0.8543288550674047
vn -0.9941626045477207 -0.019465935640690275 0.10612159567460687
vn -0.31446257701434394 0.87211260073735 0.3748771789434959
vn -0.491534566173123 0.16885875521476526 0.854330434342778
vn -0.6734667613307945 0.3107870305031332 0.6707115199947407
vn -0.27829859735458373 0.8927905504589677 0.3542243974116475
vn -0.49682200092348794 -0.44419725731405 -0.7455579762788789
vn 0.3405737690210765 0.42444043734301196 0.8389635409258567
vn 0.48795479156240035 -0.13435380519558435 -0.8624669132324796
vn 0.9958415735199022 -0.0511653376720353 -0.07537684439077992
vn -0.9889552203495512 -0.13609601000843305 0.05869794036553073
vn 0.7497168273869077 0.3415865259582781 -0.566783313107103
vn 0.47998624788114735 -0.558836978929569 -0.6762502738083367
vn -0.47887925143562504 -0.5629482934239478 -0.6736199829841155
vn -0.9456098557533543 -0.3143352644936638 0.0837576396385383
vn -0.5559400352556303 -0.4266840963716184 0.7133521984991033
vn 0.6010679410898578 -0.16537003371441467 0.7819015808548365
vn 0.9593651070581896 -0.27256601823814186 0.07298189543327596
vn -0.467456753283266 -0.3847133191414717 -0.7959144714634983
vn -0.912805207983162 -0.3904284513810328 -0.11980098760454845
vn 0.9597516704090703 0.04315839492177783 -0.2775141151270968
vn -0.9350633240984686 0.2448784806396473 -0.25630276948472536
vn 0.4966222352524547 0.08417579607603298 -0.8638754486659647
vn 0.45972903024726997 -0.42245491861878437 -0.7811408710870921
vn 0.43226486336785963 -0.5150044659797756 -0.7402144877793544
vn 0.9092643885165185 -0.41387358496767557 0.044124000744339385
vn -0.8305284432023126 -0.5489058223506941 0.09447170593067396
vn -0.3797976453967995 -0.6835129554068905 -0.6233488496355672
vn -0.25509914282771357 -0.015273266382381216 0.9667942669785432
vn 0.19603381761541255 -0.015489389229522966 0.9804747937465927
vn -0.4966257987486905 0.08417415252218316 -0.8638735602299666
vn 0.9597051529571816 0.1282692933919078 -0.25002601416687353
vn -0.48239039852665433 0.23184971260505663 -0.8447160553548442
vn -0.9370802481872423 0.2373657151796858 -0.2560041517526086
vn 0.9371868035756371 0.23696242899769507 -0.2559876997966753
vn 0.48214287742157785 0.23367378273673853 -0.8443546701553472
vn -0.29126869367246355 0.7951047927672525 -0.5319501072514988
vn -0.8809651512015073 0.3955246004379459 -0.25973196341018284
vn 0.8809935159470422 0.3954983119090247 -0.2596757788789338
vn 0.4090854043328773 0.5506488167437146 -0.727622850507427
vn 0.277797939767718 0.8957450265412807 0.3470866636553066
vn 0.39858849845165256 0.5869083406274497 0.7047452082873573
vn -0.535902124078021 0.48850989453719323 0.6885978480564151
vn -0.21101966683563683 0.9733290840081386 -0.09000663549125128
vn 0.11704416742229842 0.9902289508582417 -0.07581086831455833
vn -0.3385455626717039 0.7768156504873814 0.5309843191217289
vn 0.05816933266513921 0.7965816277611432 0.6017258836469479
vn -0.40289767728851594 0.8724744770686131 0.2765171757764228
vn 0.18330704489255237 0.9807056176337564 -0.06793392991983047
vn -0.11790462902554365 0.9872090434711939 -0.1073163684767586
vn 0.5363605887783944 0.2910738903929992 0.7922078699033344
vn 0.5476717011508269 0.18996040634806327 0.8148440045669099
vn -0.28562197011181034 0.332896396068537 0.898665721875508
vn 0.38835944117655397 0.20580669822307163 0.8982319006890996
vn -0.5363907294123241 0.2910881236616491 0.7921822326104364
vn -0.38736766713737836 0.2199993585249777 0.895291333983047
vn 0.6789129355689322 -0.7250964600711338 -0.11537915543756498
vn 0.407071767124284 0.7503128577193908 0.5208869281823781
vn 0.8322513263537974 -0.03344580396297072 -0.553388749415468
vn 0.4824020071942781 0.23184802049156977 -0.8447098903464267
vn 0.49661247263552954 0.08417264473898906 -0.8638813679553862
vn 0.29128459071898555 0.7951007697737067 -0.5319474157423196
vn 0.45973617334550865 -0.4224731250087382 -0.7811268204094518
vn -0.4091078195250378 0.5506477526576805 -0.7276110530334976
vn -0.459727048045175 -0.4224753723509272 -0.7811309756069176
vn -0.4821565404039093 0.2336753694316398 -0.8443464290602053
vn -0.4966112452335796 0.08417640589261759 -0.863881707063273
vn -0.3883957228589948 0.20580328309900506 0.89821699556984
vn 0.3873995169505158 0.2200146877723729 0.8952737857387162
vn -0.7809303847759504 -0.3954634588178328 -0.48348359524757645
vn -0.6830841242046961 -0.7218356998046085 -0.11112741222171249
vn -0.9398915662975261 -0.16079999540897044 -0.3012427676795881
vn -0.8342853898524853 -0.030489464375635673 -0.5504891287216976
vn -0.36892076077824887 0.8678064017134561 0.33288064138958556
vn -0.3532375465964558 0.8312843714386529 0.4291730763647234
vn -0.1651693529716103 0.8637996036239827 0.4759929932446383
vn -0.11471196276426372 0.8664648689400721 0.4858804343575013
vn -0.5719122709718119 0.47487033710010973 -0.6688905121574781
vn 0.13358870817266622 0.4632459059552503 -0.8761034685837386
vn 0.01883439114315098 -0.013234664832246383 -0.9997350195712087
vn -0.3733993134815786 0.8013290022050803 -0.46738076866351297
vn -0.8274214026984991 0.542095924239684 0.14664866613498756
vn -0.8274479989516091 0.5397838074349786 0.15480067913925985
vn -0.8274452604873286 0.5397910279938899 0.15479013855655308
vn -0.8462167444027429 0.5130707695988684 0.14379014874339596
vn -0.827446196152938 0.5397714850094906 0.15485327391657955
vn -0.8646752428828284 0.4407294095806423 0.24102761641816137
vn 0.804710347474071 -0.5739428735877816 -0.15175913325384968
vn 0.8090782725354926 -0.5664312837486296 -0.15667785325904462
vn 0.8116387775572452 -0.5572242306154161 -0.17533867679561843
vn 0.8033597557669808 -0.5814908682959508 -0.1283801889017083
vn 0.7766194018867797 -0.6294585859308864 0.025380961583626026
vn 0.8004063176467106 -0.5976736127158611 0.046216656460678227
vn 0.09463094646517042 0.8220892271365374 -0.5614394772343293
vn 0.5580877642320445 0.760034130264751 0.33299574809174604
vn -0.2772528545503941 -0.3151051095059392 -0.907656115831821
vn 0.5058041512258595 0.8361368162263811 -0.21222013371378964
vn 0.337774822801534 -0.775511357202113 -0.5333763248700951
vn 0.47504180266158536 -0.8778492391265615 -0.06095899514385667
vn 0.11869657462192211 -0.9907378646085695 0.06595154891186841
vn 0.08862354196915065 0.9287154949161597 0.36004638216690216
vn 0.32586041615774347 -0.9454165500745539 -0.0015924907003842428
vn 0.5600226700551261 0.7726382968564203 0.2990061391596126
vn 0.5611820838077658 0.8042201528112606 0.1957156473698679
vn -0.039158281647370785 0.3003932566211583 -0.953011290780419
vn 0.4604458223664856 -0.8722808116377904 -0.16466885046592286
vn -0.11708402799755686 0.8575073952431729 0.5009714537687114
vn -0.9128379564020915 0.21724129270636666 -0.3457355725043635
usemtl m_3573425c-968d-8f7e-4abd-647542467e02
f 1/1/1 2/2/1 3/3/1 4/4/1
f 5/5/2 6/6/2 7/7/2 8/8/2
f 2/9/3 9/10/3 10/11/3 3/12/3
f 11/13/4 12/14/4 13/15/4 14/16/4
f 7/17/5 4/18/5 15/19/5 16/20/5
f 4/21/6 3/22/6 17/23/6 15/24/6
f 8/25/7 7/26/7 16/27/7 18/28/7
f 6/29/8 1/30/8 4/31/8 7/32/8
f 19/33/9 20/34/9 21/35/9 22/36/9
f 12/37/10 23/38/10 24/39/10 13/40/10
f 20/41/11 25/42/11 26/43/11 21/44/11
f 25/45/12 11/46/12 14/47/12 26/48/12
f 16/49/13 15/50/13 27/51/13 28/52/13
f 15/53/14 17/54/14 29/55/14 27/56/14
f 18/57/15 16/58/15 28/59/15 30/60/15
f 17/61/16 31/62/16 32/63/16 29/64/16
f 13/65/17 24/66/17 33/67/17 34/68/17
f 21/69/18 35/70/18 36/71/18
f 26/72/19 14/73/19 37/74/19 38/75/19
f 14/76/20 13/77/20 34/78/20 37/79/20
f 3/80/21 10/81/21 31/82/21 17/83/21
f 39/84/22 30/85/22 28/86/22 40/87/22
f 40/88/23 28/89/23 27/90/23 41/91/23
f 41/92/24 27/93/24 29/94/24 42/95/24
f 42/96/25 29/97/25 32/98/25 43/99/25
f 44/100/26 45/101/26 24/102/26 23/103/26
f 34/104/27 33/105/27 46/106/27 47/107/27
f 45/108/28 48/109/28 33/110/28 24/111/28
f 49/112/29 50/113/29 51/114/29 52/115/29
f 50/116/30 37/117/30 53/118/30 51/119/30
f 48/120/31 39/121/31 46/122/31 33/123/31
f 37/124/32 34/125/32 47/126/32 53/127/32
f 18/128/33 30/129/33 39/130/33 48/131/33
f 8/132/34 18/133/34 48/134/34 45/135/34
f 31/136/35 54/137/35 43/138/35 32/139/35
f 5/140/36 8/141/36 45/142/36 44/143/36
f 51/144/37 42/145/37 43/146/37 52/147/37
f 53/148/38 41/149/38 42/150/38 51/151/38
f 47/152/39 40/153/39 41/154/39 53/155/39
f 46/156/40 39/157/40 40/158/40 47/159/40
f 9/160/41 19/161/41 22/162/41 10/163/41
f 10/164/42 22/165/42 54/166/42 31/167/42
f 55/168/43 56/169/43 57/170/43 58/171/43
f 55/172/44 59/173/44 54/174/44 49/175/44
f 60/176/45 56/177/45 52/178/45 43/179/45
f 56/180/46 55/181/46 49/182/46 52/183/46
f 59/184/47 60/185/47 43/186/47 54/187/47
f 58/188/48 57/189/48 61/190/48 62/191/48
f 59/192/49 55/193/49 58/194/49 63/195/49
f 60/196/50 59/197/50 63/198/50 64/199/50
f 56/200/51 60/201/51 64/202/51 57/203/51
f 65/204/52 62/205/52 66/206/52 67/207/52
f 63/208/53 58/209/53 62/210/53 65/211/53
f 64/212/54 63/213/54 65/214/54 68/215/54
f 57/216/55 64/217/55 68/218/55 61/219/55
f 68/220/56 65/221/56 67/222/56 69/223/56
f 61/224/57 68/225/57 69/226/57 70/227/57
f 62/228/58 61/229/58 70/230/58 66/231/58
f 71/232/59 72/233/59 73/234/59 74/235/59
f 75/236/60 71/237/60 74/238/60 76/239/60
f 72/240/61 77/241/61 73/242/61
f 76/243/62 74/244/62 78/245/62 79/246/62
f 73/247/63 77/248/63 80/249/63
f 74/250/64 73/251/64 80/252/64 78/253/64
f 79/254/65 78/255/65 81/256/65 82/257/65
f 80/258/66 77/259/66 83/260/66
f 78/261/67 80/262/67 83/263/67 81/264/67
f 84/265/68 82/266/68 85/267/68 86/268/68
f 81/269/69 83/270/69 87/271/69 88/272/69
f 82/273/70 81/274/70 88/275/70 85/276/70
f 83/277/71 77/278/71 87/279/71
f 88/280/72 87/281/72 89/282/72 90/283/72
f 91/284/73 86/285/73 92/286/73 93/287/73
f 85/288/74 88/289/74 90/290/74 94/291/74
f 87/292/75 77/293/75 89/294/75
f 86/295/76 85/296/76 94/297/76 92/298/76
f 93/299/77 92/300/77 95/301/77 96/302/77
f 94/303/78 90/304/78 97/305/78 98/306/78
f 89/307/79 77/308/79 99/309/79
f 100/310/80 93/311/80 96/312/80 101/313/80
f 92/314/81 94/315/81 98/316/81 95/317/81
f 90/318/82 89/319/82 99/320/82 97/321/82
f 99/322/83 77/323/83 102/324/83
f 101/325/84 96/326/84 103/327/84
f 95/328/85 98/329/85 104/330/85 105/331/85
f 97/332/86 99/333/86 102/334/86 106/335/86
f 96/336/87 95/337/87 105/338/87 103/339/87
f 98/340/88 97/341/88 106/342/88 104/343/88
f 101/344/89 103/345/89 107/346/89 108/347/89
f 105/348/90 104/349/90 109/350/90 110/351/90
f 106/352/91 102/353/91 111/354/91 112/355/91
f 103/356/92 105/357/92 110/358/92 107/359/92
f 104/360/93 106/361/93 112/362/93 109/363/93
f 102/364/94 77/365/94 111/366/94
f 107/367/95 110/368/95 113/369/95 114/370/95
f 109/371/96 112/372/96 115/373/96 116/374/96
f 111/375/97 77/376/97 117/377/97
f 108/378/98 107/379/98 114/380/98 118/381/98
f 110/382/99 109/383/99 116/384/99 113/385/99
f 112/386/100 111/387/100 117/388/100 115/389/100
f 114/390/101 113/391/101 119/392/101 120/393/101
f 116/394/102 115/395/102 121/396/102 122/397/102
f 117/398/103 77/399/103 123/400/103
f 118/401/104 114/402/104 120/403/104
f 113/404/105 116/405/105 122/406/105 119/407/105
f 115/408/106 117/409/106 123/410/106 121/411/106
f 118/412/107 120/413/107 124/414/107 125/415/107
f 119/416/108 122/417/108 126/418/108 127/419/108
f 121/420/109 123/421/109 128/422/109 129/423/109
f 120/424/110 119/425/110 127/426/110 124/427/110
f 122/428/111 121/429/111 129/430/111 126/431/111
f 123/432/112 77/433/112 128/434/112
f 127/435/113 126/436/113 130/437/113 131/438/113
f 129/439/114 128/440/114 132/441/114 133/442/114
f 124/443/115 127/444/115 131/445/115 134/446/115
f 126/447/116 129/448/116 133/449/116 130/450/116
f 128/451/117 77/452/117 132/453/117
f 130/454/118 133/455/118 135/456/118 136/457/118
f 132/458/119 77/459/119 137/460/119
f 131/461/120 130/462/120 136/463/120 138/464/120
f 133/465/121 132/466/121 137/467/121 135/468/121
f 136/469/122 135/470/122 139/471/122 140/472/122
f 137/473/123 77/474/123 141/475/123
f 135/476/124 137/477/124 141/478/124 139/479/124
f 139/480/125 141/481/125 142/482/125 143/483/125
f 140/484/126 139/485/126 143/486/126 144/487/126
f 141/488/127 77/489/127 142/490/127
f 143/491/128 142/492/128 72/493/128 71/494/128
f 144/495/129 143/496/129 71/497/129 75/498/129
f 142/499/130 77/500/130 72/501/130
f 145/502/131 146/503/131 147/504/131 148/505/131
f 21/506/132 49/507/132 54/508/132 22/509/132
f 146/510/133 149/511/133 150/512/133 147/513/133
f 151/514/134 152/515/134 153/516/134 154/517/134
f 35/518/135 21/519/135 26/520/135 155/521/135
f 149/522/136 153/523/136 156/524/136 150/525/136
f 154/526/137 153/527/137 149/528/137 38/529/137
f 155/530/138 26/531/138 38/532/138
f 152/533/139 157/534/139 158/535/139 159/536/139
f 38/537/140 149/538/140 146/539/140 155/540/140
f 157/541/141 145/542/141 148/543/141 158/544/141
f 155/545/142 146/546/142 145/547/142 35/548/142
f 153/549/143 152/550/143 159/551/143 156/552/143
f 35/553/144 145/554/144 157/555/144 36/556/144
f 158/557/145 148/558/145 160/559/145 161/560/145
f 159/561/146 158/562/146 161/563/146 162/564/146
f 156/565/147 159/566/147 162/567/147 163/568/147
f 150/569/148 156/570/148 163/571/148 164/572/148
f 147/573/149 150/574/149 165/575/149 166/576/149
f 148/577/150 147/578/150 166/579/150 160/580/150
f 167/581/151 168/582/151 169/583/151 170/584/151
f 171/585/152 167/586/152 170/587/152 172/588/152
f 173/589/153 174/590/153 175/591/153 176/592/153
f 172/593/154 170/594/154 177/595/154 178/596/154
f 179/597/155 180/598/155 181/599/155 182/600/155
f 168/601/156 173/602/156 176/603/156 180/604/156
f 161/605/157 160/606/157 173/607/157 168/608/157
f 160/609/158 166/610/158 174/611/158 173/612/158
f 163/613/159 162/614/159 167/615/159 171/616/159
f 162/617/160 161/618/160 168/619/160 167/620/160
f 164/621/161 183/622/161 150/623/161
f 165/624/162 150/625/162 183/626/162
f 170/627/163 169/628/163 184/629/163 177/630/163
f 176/631/164 175/632/164 185/633/164 186/634/164
f 187/635/165 188/636/165 184/637/165 182/638/165
f 189/639/166 190/640/166 178/641/166 177/642/166
f 191/643/167 192/644/167 186/645/167 185/646/167
f 192/647/168 193/648/168 181/649/168 186/650/168
f 194/651/169 195/652/169 188/653/169 187/654/169
f 196/655/170 190/656/170 189/657/170
f 192/658/171 191/659/171 197/660/171
f 197/661/172 198/662/172 193/663/172 192/664/172
f 91/665/173 100/666/173 163/667/173 171/668/173
f 199/669/174 84/670/174 172/671/174 178/672/174
f 200/673/175 138/674/175 185/675/175 175/676/175
f 108/677/176 118/678/176 165/679/176 183/680/176
f 100/681/177 101/682/177 164/683/177 163/684/177
f 134/685/178 200/686/178 175/687/178 174/688/178
f 84/689/179 91/690/179 171/691/179 172/692/179
f 125/693/180 134/694/180 174/695/180 166/696/180
f 101/697/181 108/698/181 183/699/181 164/700/181
f 118/701/182 125/702/182 166/703/182 165/704/182
f 79/705/183 190/706/183 196/707/183
f 79/708/184 199/709/184 178/710/184 190/711/184
f 138/712/185 140/713/185 191/714/185 185/715/185
f 75/716/186 76/717/186 195/718/186 194/719/186
f 140/720/187 197/721/187 191/722/187
f 140/723/188 144/724/188 198/725/188 197/726/188
f 124/727/189 134/728/189 125/729/189
f 134/730/190 131/731/190 138/732/190 200/733/190
f 138/734/191 136/735/191 140/736/191
f 181/737/192 193/738/192 187/739/192 182/740/192
f 181/741/193 180/742/193 176/743/193 186/744/193
f 193/745/194 198/746/194 194/747/194 187/748/194
f 180/749/195 179/750/195 168/751/195
f 188/752/196 195/753/196 196/754/196 189/755/196
f 169/756/197 168/757/197 179/758/197
f 184/759/198 188/760/198 189/761/198 177/762/198
f 184/763/199 169/764/199 179/765/199 182/766/199
f 198/767/200 144/768/200 75/769/200 194/770/200
f 195/771/201 76/772/201 79/773/201 196/774/201
f 91/775/202 84/776/202 86/777/202
f 100/778/203 91/779/203 93/780/203
f 84/781/204 199/782/204 82/783/204
f 199/784/205 79/785/205 82/786/205
f 50/787/206 154/788/206 38/789/206
f 38/790/207 37/791/207 50/792/207
f 49/793/208 151/794/208 154/795/208 50/796/208
f 36/797/209 49/798/209 21/799/209
f 201/800/210 202/801/210 67/802/210 66/803/210
f 203/804/211 204/805/211 70/806/211 69/807/211
f 204/808/212 201/809/212 66/810/212 70/811/212
f 69/812/213 203/813/213 202/814/213 67/815/213
f 205/816/214 206/817/214 207/818/214 208/819/214
f 208/820/215 207/821/215 209/822/215 210/823/215
f 210/824/216 209/825/216 211/826/216 212/827/216
f 206/828/217 205/829/217 213/830/217 214/831/217
f 212/832/218 211/833/218 215/834/218 216/835/218
f 214/836/219 213/837/219 204/838/219 203/839/219
f 217/840/220 218/841/220 219/842/220 220/843/220
f 218/844/221 221/845/221 222/846/221 219/847/221
f 221/848/222 223/849/222 224/850/222 222/851/222
f 220/852/223 225/853/223 226/854/223 217/855/223
f 223/856/224 227/857/224 228/858/224 224/859/224
f 225/860/225 202/861/225 201/862/225 226/863/225
f 216/864/226 227/865/226 223/866/226 212/867/226
f 208/868/227 218/869/227 217/870/227 205/871/227
f 211/872/228 224/873/228 228/874/228 215/875/228
f 212/876/229 223/877/229 221/878/229 210/879/229
f 209/880/230 222/881/230 224/882/230 211/883/230
f 206/884/231 220/885/231 219/886/231 207/887/231
f 203/888/232 202/889/232 225/890/232 214/891/232
f 213/892/233 226/893/233 201/894/233 204/895/233
f 214/896/234 225/897/234 220/898/234 206/899/234
f 205/900/235 217/901/235 226/902/235 213/903/235
f 210/904/236 221/905/236 218/906/236 208/907/236
f 215/908/237 228/909/237 227/910/237 216/911/237
f 207/912/238 219/913/238 222/914/238 209/915/238
f 49/916/239 36/917/239 151/918/239
f 157/919/240 152/920/240 151/921/240 36/922/240
f 1/923/241 229/924/241 230/925/241 2/926/241
f 5/927/242 231/928/242 232/929/242 6/930/242
f 2/931/243 230/932/243 233/933/243 9/934/243
f 11/935/244 234/936/244 235/937/244 12/938/244
f 232/939/245 236/940/245 237/941/245 229/942/245
f 229/943/246 237/944/246 238/945/246 230/946/246
f 231/947/247 239/948/247 236/949/247 232/950/247
f 6/951/248 232/952/248 229/953/248 1/954/248
f 19/955/249 240/956/249 241/957/249 20/958/249
f 12/959/250 235/960/250 242/961/250 23/962/250
f 20/963/251 241/964/251 243/965/251 25/966/251
f 25/967/252 243/968/252 234/969/252 11/970/252
f 236/971/253 244/972/253 245/973/253 237/974/253
f 237/975/254 245/976/254 246/977/254 238/978/254
f 239/979/255 247/980/255 244/981/255 236/982/255
f 238/983/256 246/984/256 248/985/256 249/986/256
f 235/987/257 250/988/257 251/989/257 242/990/257
f 241/991/258 252/992/258 253/993/258
f 243/994/259 254/995/259 255/996/259 234/997/259
f 234/998/260 255/999/260 250/1000/260 235/1001/260
f 230/1002/261 238/1003/261 249/1004/261 233/1005/261
f 256/1006/262 257/1007/262 244/1008/262 247/1009/262
f 257/1010/263 258/1011/263 245/1012/263 244/1013/263
f 258/1014/264 259/1015/264 246/1016/264 245/1017/264
f 259/1018/265 260/1019/265 248/1020/265 246/1021/265
f 44/1022/266 23/1023/266 242/1024/266 261/1025/266
f 250/1026/267 262/1027/267 263/1028/267 251/1029/267
f 261/1030/268 242/1031/268 251/1032/268 264/1033/268
f 265/1034/269 266/1035/269 267/1036/269 268/1037/269
f 268/1038/270 267/1039/270 269/1040/270 255/1041/270
f 264/1042/271 251/1043/271 263/1044/271 256/1045/271
f 255/1046/272 269/1047/272 262/1048/272 250/1049/272
f 239/1050/273 264/1051/273 256/1052/273 247/1053/273
f 231/1054/274 261/1055/274 264/1056/274 239/1057/274
f 249/1058/275 248/1059/275 260/1060/275 270/1061/275
f 5/1062/276 44/1063/276 261/1064/276 231/1065/276
f 267/1066/277 266/1067/277 260/1068/277 259/1069/277
f 269/1070/278 267/1071/278 259/1072/278 258/1073/278
f 262/1074/279 269/1075/279 258/1076/279 257/1077/279
f 263/1078/280 262/1079/280 257/1080/280 256/1081/280
f 9/1082/281 233/1083/281 240/1084/281 19/1085/281
f 233/1086/282 249/1087/282 270/1088/282 240/1089/282
f 271/1090/283 272/1091/283 273/1092/283 274/1093/283
f 271/1094/284 265/1095/284 270/1096/284 275/1097/284
f 276/1098/285 260/1099/285 266/1100/285 274/1101/285
f 274/1102/286 266/1103/286 265/1104/286 271/1105/286
f 275/1106/287 270/1107/287 260/1108/287 276/1109/287
f 272/1110/288 277/1111/288 278/1112/288 273/1113/288
f 275/1114/289 279/1115/289 272/1116/289 271/1117/289
f 276/1118/290 280/1119/290 279/1120/290 275/1121/290
f 274/1122/291 273/1123/291 280/1124/291 276/1125/291
f 281/1126/292 282/1127/292 283/1128/292 277/1129/292
f 279/1130/293 281/1131/293 277/1132/293 272/1133/293
f 280/1134/294 284/1135/294 281/1136/294 279/1137/294
f 273/1138/295 278/1139/295 284/1140/295 280/1141/295
f 284/1142/296 285/1143/296 282/1144/296 281/1145/296
f 278/1146/297 286/1147/297 285/1148/297 284/1149/297
f 277/1150/298 283/1151/298 286/1152/298 278/1153/298
f 287/1154/299 288/1155/299 289/1156/299 290/1157/299
f 291/1158/300 292/1159/300 288/1160/300 287/1161/300
f 290/1162/301 289/1163/301 293/1164/301
f 292/1165/302 294/1166/302 295/1167/302 288/1168/302
f 289/1169/303 296/1170/303 293/1171/303
f 288/1172/304 295/1173/304 296/1174/304 289/1175/304
f 294/1176/305 297/1177/305 298/1178/305 295/1179/305
f 296/1180/306 299/1181/306 293/1182/306
f 295/1183/307 298/1184/307 299/1185/307 296/1186/307
f 300/1187/308 301/1188/308 302/1189/308 297/1190/308
f 298/1191/309 303/1192/309 304/1193/309 299/1194/309
f 297/1195/310 302/1196/310 303/1197/310 298/1198/310
f 299/1199/311 304/1200/311 293/1201/311
f 303/1202/312 305/1203/312 306/1204/312 304/1205/312
f 307/1206/313 308/1207/313 309/1208/313 301/1209/313
f 302/1210/314 310/1211/314 305/1212/314 303/1213/314
f 304/1214/315 306/1215/315 293/1216/315
f 301/1217/316 309/1218/316 310/1219/316 302/1220/316
f 308/1221/317 311/1222/317 312/1223/317 309/1224/317
f 310/1225/318 313/1226/318 314/1227/318 305/1228/318
f 306/1229/319 315/1230/319 293/1231/319
f 316/1232/320 317/1233/320 311/1234/320 308/1235/320
f 309/1236/321 312/1237/321 313/1238/321 310/1239/321
f 305/1240/322 314/1241/322 315/1242/322 306/1243/322
f 315/1244/323 318/1245/323 293/1246/323
f 317/1247/324 319/1248/324 311/1249/324
f 312/1250/325 320/1251/325 321/1252/325 313/1253/325
f 314/1254/326 322/1255/326 318/1256/326 315/1257/326
f 311/1258/327 319/1259/327 320/1260/327 312/1261/327
f 313/1262/328 321/1263/328 322/1264/328 314/1265/328
f 317/1266/329 323/1267/329 324/1268/329 319/1269/329
f 320/1270/330 325/1271/330 326/1272/330 321/1273/330
f 322/1274/331 327/1275/331 328/1276/331 318/1277/331
f 319/1278/332 324/1279/332 325/1280/332 320/1281/332
f 321/1282/333 326/1283/333 327/1284/333 322/1285/333
f 318/1286/334 328/1287/334 293/1288/334
f 324/1289/335 329/1290/335 330/1291/335 325/1292/335
f 326/1293/336 331/1294/336 332/1295/336 327/1296/336
f 328/1297/337 333/1298/337 293/1299/337
f 323/1300/338 334/1301/338 329/1302/338 324/1303/338
f 325/1304/339 330/1305/339 331/1306/339 326/1307/339
f 327/1308/340 332/1309/340 333/1310/340 328/1311/340
f 329/1312/341 335/1313/341 336/1314/341 330/1315/341
f 331/1316/342 337/1317/342 338/1318/342 332/1319/342
f 333/1320/343 339/1321/343 293/1322/343
f 334/1323/344 335/1324/344 329/1325/344
f 330/1326/345 336/1327/345 337/1328/345 331/1329/345
f 332/1330/346 338/1331/346 339/1332/346 333/1333/346
f 334/1334/347 340/1335/347 341/1336/347 335/1337/347
f 336/1338/348 342/1339/348 343/1340/348 337/1341/348
f 338/1342/349 344/1343/349 345/1344/349 339/1345/349
f 335/1346/350 341/1347/350 342/1348/350 336/1349/350
f 337/1350/351 343/1351/351 344/1352/351 338/1353/351
f 339/1354/352 345/1355/352 293/1356/352
f 342/1357/353 346/1358/353 347/1359/353 343/1360/353
f 344/1361/354 348/1362/354 349/1363/354 345/1364/354
f 341/1365/355 350/1366/355 346/1367/355 342/1368/355
f 343/1369/356 347/1370/356 348/1371/356 344/1372/356
f 345/1373/357 349/1374/357 293/1375/357
f 347/1376/358 351/1377/358 352/1378/358 348/1379/358
f 349/1380/359 353/1381/359 293/1382/359
f 346/1383/360 354/1384/360 351/1385/360 347/1386/360
f 348/1387/361 352/1388/361 353/1389/361 349/1390/361
f 351/1391/362 355/1392/362 356/1393/362 352/1394/362
f 353/1395/363 357/1396/363 293/1397/363
f 352/1398/364 356/1399/364 357/1400/364 353/1401/364
f 356/1402/365 358/1403/365 359/1404/365 357/1405/365
f 355/1406/366 360/1407/366 358/1408/366 356/1409/366
f 357/1410/367 359/1411/367 293/1412/367
f 358/1413/368 287/1414/368 290/1415/368 359/1416/368
f 360/1417/369 291/1418/369 287/1419/369 358/1420/369
f 359/1421/370 290/1422/370 293/1423/370
f 361/1424/371 362/1425/371 363/1426/371 364/1427/371
f 241/1428/372 240/1429/372 270/1430/372 265/1431/372
f 364/1432/373 363/1433/373 365/1434/373 366/1435/373
f 367/1436/374 368/1437/374 369/1438/374 370/1439/374
f 253/1440/375 371/1441/375 243/1442/375 241/1443/375
f 366/1444/376 365/1445/376 372/1446/376 369/1447/376
f 368/1448/377 254/1449/377 366/1450/377 369/1451/377
f 371/1452/378 254/1453/378 243/1454/378
f 370/1455/379 373/1456/379 374/1457/379 375/1458/379
f 254/1459/380 371/1460/380 364/1461/380 366/1462/380
f 375/1463/381 374/1464/381 362/1465/381 361/1466/381
f 371/1467/382 253/1468/382 361/1469/382 364/1470/382
f 369/1471/383 372/1472/383 373/1473/383 370/1474/383
f 253/1475/384 252/1476/384 375/1477/384 361/1478/384
f 374/1479/385 376/1480/385 377/1481/385 362/1482/385
f 373/1483/386 378/1484/386 376/1485/386 374/1486/386
f 372/1487/387 379/1488/387 378/1489/387 373/1490/387
f 365/1491/388 380/1492/388 379/1493/388 372/1494/388
f 363/1495/389 381/1496/389 382/1497/389 365/1498/389
f 362/1499/390 377/1500/390 381/1501/390 363/1502/390
f 383/1503/391 384/1504/391 385/1505/391 386/1506/391
f 387/1507/392 388/1508/392 384/1509/392 383/1510/392
f 389/1511/393 390/1512/393 391/1513/393 392/1514/393
f 388/1515/394 393/1516/394 394/1517/394 384/1518/394
f 395/1519/395 396/1520/395 397/1521/395 398/1522/395
f 386/1523/396 398/1524/396 390/1525/396 389/1526/396
f 376/1527/397 386/1528/397 389/1529/397 377/1530/397
f 377/1531/398 389/1532/398 392/1533/398 381/1534/398
f 379/1535/399 387/1536/399 383/1537/399 378/1538/399
f 378/1539/400 383/1540/400 386/1541/400 376/1542/400
f 380/1543/401 365/1544/401 399/1545/401
f 382/1546/402 399/1547/402 365/1548/402
f 384/1549/403 394/1550/403 400/1551/403 385/1552/403
f 390/1553/404 401/1554/404 402/1555/404 391/1556/404
f 403/1557/405 396/1558/405 400/1559/405 404/1560/405
f 405/1561/406 394/1562/406 393/1563/406 406/1564/406
f 407/1565/407 402/1566/407 401/1567/407 408/1568/407
f 408/1569/408 401/1570/408 397/1571/408 409/1572/408
f 410/1573/409 403/1574/409 404/1575/409 411/1576/409
f 412/1577/410 405/1578/410 406/1579/410
f 408/1580/411 413/1581/411 407/1582/411
f 413/1583/412 408/1584/412 409/1585/412 414/1586/412
f 307/1587/413 387/1588/413 379/1589/413 316/1590/413
f 415/1591/414 393/1592/414 388/1593/414 300/1594/414
f 416/1595/415 391/1596/415 402/1597/415 354/1598/415
f 323/1599/416 399/1600/416 382/1601/416 334/1602/416
f 316/1603/417 379/1604/417 380/1605/417 317/1606/417
f 350/1607/418 392/1608/418 391/1609/418 416/1610/418
f 300/1611/419 388/1612/419 387/1613/419 307/1614/419
f 340/1615/420 381/1616/420 392/1617/420 350/1618/420
f 317/1619/421 380/1620/421 399/1621/421 323/1622/421
f 334/1623/422 382/1624/422 381/1625/422 340/1626/422
f 294/1627/423 412/1628/423 406/1629/423
f 294/1630/424 406/1631/424 393/1632/424 415/1633/424
f 354/1634/425 402/1635/425 407/1636/425 355/1637/425
f 291/1638/426 410/1639/426 411/1640/426 292/1641/426
f 355/1642/427 407/1643/427 413/1644/427
f 355/1645/428 413/1646/428 414/1647/428 360/1648/428
f 341/1649/429 340/1650/429 350/1651/429
f 350/1652/430 416/1653/430 354/1654/430 346/1655/430
f 354/1656/431 355/1657/431 351/1658/431
f 397/1659/432 396/1660/432 403/1661/432 409/1662/432
f 397/1663/433 401/1664/433 390/1665/433 398/1666/433
f 409/1667/434 403/1668/434 410/1669/434 414/1670/434
f 398/1671/435 386/1672/435 395/1673/435
f 404/1674/436 405/1675/436 412/1676/436 411/1677/436
f 385/1678/437 395/1679/437 386/1680/437
f 400/1681/438 394/1682/438 405/1683/438 404/1684/438
f 400/1685/439 396/1686/439 395/1687/439 385/1688/439
f 414/1689/440 410/1690/440 291/1691/440 360/1692/440
f 411/1693/441 412/1694/441 294/1695/441 292/1696/441
f 307/1697/442 301/1698/442 300/1699/442
f 316/1700/443 308/1701/443 307/1702/443
f 300/1703/444 297/1704/444 415/1705/444
f 415/1706/445 297/1707/445 294/1708/445
f 268/1709/446 254/1710/446 368/1711/446
f 254/1712/447 268/1713/447 255/1714/447
f 265/1715/448 268/1716/448 368/1717/448 367/1718/448
f 252/1719/449 241/1720/449 265/1721/449
f 417/1722/450 283/1723/450 282/1724/450 418/1725/450
f 419/1726/451 285/1727/451 286/1728/451 420/1729/451
f 420/1730/452 286/1731/452 283/1732/452 417/1733/452
f 418/1734/453 282/1735/453 285/1736/453 419/1737/453
f 421/1738/454 422/1739/454 423/1740/454 424/1741/454
f 422/1742/455 425/1743/455 426/1744/455 423/1745/455
f 425/1746/456 427/1747/456 428/1748/456 426/1749/456
f 424/1750/457 429/1751/457 430/1752/457 421/1753/457
f 427/1754/458 431/1755/458 432/1756/458 428/1757/458
f 429/1758/459 419/1759/459 420/1760/459 430/1761/459
f 433/1762/460 434/1763/460 435/1764/460 436/1765/460
f 436/1766/461 435/1767/461 437/1768/461 438/1769/461
f 438/1770/462 437/1771/462 439/1772/462 440/1773/462
f 434/1774/463 433/1775/463 441/1776/463 442/1777/463
f 440/1778/464 439/1779/464 443/1780/464 444/1781/464
f 442/1782/465 441/1783/465 417/1784/465 418/1785/465
f 431/1786/466 427/1787/466 440/1788/466 444/1789/466
f 422/1790/467 421/1791/467 433/1792/467 436/1793/467
f 428/1794/468 432/1795/468 443/1796/468 439/1797/468
f 427/1798/469 425/1799/469 438/1800/469 440/1801/469
f 426/1802/470 428/1803/470 439/1804/470 437/1805/470
f 424/1806/471 423/1807/471 435/1808/471 434/1809/471
f 419/1810/472 429/1811/472 442/1812/472 418/1813/472
f 430/1814/473 420/1815/473 417/1816/473 441/1817/473
f 429/1818/474 424/1819/474 434/1820/474 442/1821/474
f 421/1822/475 430/1823/475 441/1824/475 433/1825/475
f 425/1826/476 422/1827/476 436/1828/476 438/1829/476
f 432/1830/477 431/1831/477 444/1832/477 443/1833/477
f 423/1834/478 426/1835/478 437/1836/478 435/1837/478
f 265/1838/479 367/1839/479 252/1840/479
f 375/1841/480 252/1842/480 367/1843/480 370/1844/480