# Made in Blockbench 5.1.4
mtllib Mo_Shrolm_SpearArms.mtl

o HeadClaws3D
v 0.284783 0.054286 1.798545
v 0.284783 0.109874 1.790477
v 0.284783 0.129852 2.018507
v 0.284783 0.070246 2.004735
v 0.268345 0.005844 1.808468
v 0.268345 0.014962 1.733367
v 0.284783 0.065607 1.734751
v 0.268345 0.022227 2.035625
v 0.280302 0.06712 2.076118
v 0.265502 0.024528 2.111693
v 0.268345 0.106613 1.666092
v 0.268345 0.181355 1.680885
v 0.284783 0.172119 1.719028
v 0.284783 0.125047 1.706315
v 0.291362 0.091801 2.23053
v 0.286817 0.086873 2.178866
v 0.291155 0.115409 2.166137
v 0.284783 0.126708 2.219802
v 0.268345 0.421131 1.819302
v 0.268345 0.459752 1.862176
v 0.284783 0.403568 1.855328
v 0.284783 0.362353 1.808873
v 0.268704 0.125775 2.268348
v 0.2776 0.073511 2.277638
v 0.268345 0.153084 2.029279
v 0.268345 0.172506 2.163439
v 0.284783 0.150425 2.133997
v 0.268345 0.241738 1.873039
v 0.268345 0.124238 1.814879
v 0.284783 0.222077 1.826488
v 0.268345 0.165395 2.243142
v 0.284783 0.144663 2.202222
v 0.268345 0.050231 1.691926
v 0.268518 0.302638 1.735363
v 0.284955 0.248504 1.765845
v 0.268345 0.414906 1.899485
v 0.284783 0.386883 1.870913
v 0.275764 -0.003853 2.156821
v 0.272988 -0.020217 2.223602
v 0.268345 -0.145122 2.061089
v 0.268345 -0.111787 2.03164
v 0.255841 -0.202633 1.895527
v 0.219099 0.040825 1.595534
v 0.219099 0.111383 1.592213
v 0.219099 0.14553 1.850218
v 0.219099 0.18101 2.048038
v 0.219099 -0.283333 1.711006
v 0.219099 -0.204744 1.855507
v 0.219099 -0.044161 2.332819
v 0.219099 -0.194844 2.090708
v 0.219672 0.197111 1.625559
v 0.219099 0.339083 1.693165
v 0.219099 0.41957 1.916179
v 0.219099 0.349388 1.926081
v 0.268345 0.322853 1.892127
v 0.219099 -0.001722 1.65112
v 0.219099 0.188335 2.171884
v 0.219099 0.179756 2.284862
v 0.219099 0.25656 1.899628
v 0.219544 0.006694 2.055766
v 0.219099 -0.012722 1.751856
v 0.219099 -0.264223 1.868631
v 0.219099 -0.092545 2.025977
v 0.219099 0.13283 2.345272
v 0.219099 0.067971 2.363145
v 0.219099 0.480129 1.790238
v 0.219099 0.504328 1.85184
v 0.218654 0.010395 2.116831
v 0.284783 0.312324 1.852944
v 0.284783 0.131458 2.1204
v 0.153415 0.054286 1.798545
v 0.153415 0.070246 2.004735
v 0.153415 0.129852 2.018507
v 0.153415 0.109874 1.790477
v 0.169853 0.005844 1.808468
v 0.153415 0.065607 1.734751
v 0.169853 0.014962 1.733367
v 0.169853 0.022227 2.035625
v 0.172696 0.024528 2.111693
v 0.157896 0.06712 2.076118
v 0.169853 0.106613 1.666092
v 0.153415 0.125047 1.706315
v 0.153415 0.172119 1.719028
v 0.169853 0.181355 1.680885
v 0.146836 0.091801 2.23053
v 0.153415 0.126708 2.219802
v 0.147043 0.115409 2.166137
v 0.151381 0.086873 2.178866
v 0.169853 0.421131 1.819302
v 0.153415 0.362353 1.808873
v 0.153415 0.403568 1.855328
v 0.169853 0.459752 1.862176
v 0.169494 0.125775 2.268348
v 0.160598 0.073511 2.277638
v 0.169853 0.153084 2.029279
v 0.153415 0.150425 2.133997
v 0.169853 0.172506 2.163439
v 0.169853 0.241738 1.873039
v 0.153415 0.222077 1.826488
v 0.169853 0.124238 1.814879
v 0.153415 0.144663 2.202222
v 0.169853 0.165395 2.243142
v 0.169853 0.050231 1.691926
v 0.153243 0.248504 1.765845
v 0.16968 0.302638 1.735363
v 0.153415 0.386883 1.870913
v 0.169853 0.414906 1.899485
v 0.162434 -0.003853 2.156821
v 0.169853 -0.111787 2.03164
v 0.169853 -0.145122 2.061089
v 0.16521 -0.020217 2.223602
v 0.182357 -0.202633 1.895527
v 0.169853 0.322853 1.892127
v 0.153415 0.312324 1.852944
v 0.153415 0.131458 2.1204
v 0.263 0.498921 1.888936
v 0.24281 0.450394 1.915156
v 0.216695 0.51719 1.885218
v 0.299087 0.530771 1.90613
v 0.272485 0.437515 1.960735
v 0.218342 0.428146 1.927363
v 0.169096 0.423482 1.910668
v 0.112878 0.404163 1.918264
v 0.202188 0.422826 1.94203
v 0.116649 0.5007 1.859825
v -0.284783 0.054286 1.798545
v -0.284783 0.070246 2.004735
v -0.284783 0.129852 2.018507
v -0.284783 0.109874 1.790477
v -0.268345 0.005844 1.808468
v -0.284783 0.065607 1.734751
v -0.268345 0.014962 1.733367
v -0.268345 0.022227 2.035625
v -0.265502 0.024528 2.111693
v -0.280302 0.06712 2.076118
v -0.268345 0.106613 1.666092
v -0.284783 0.125047 1.706315
v -0.284783 0.172119 1.719028
v -0.268345 0.181355 1.680885
v -0.291362 0.091801 2.23053
v -0.284783 0.126708 2.219802
v -0.291155 0.115409 2.166137
v -0.286817 0.086873 2.178866
v -0.268345 0.421131 1.819302
v -0.284783 0.362353 1.808873
v -0.284783 0.403568 1.855328
v -0.268345 0.459752 1.862176
v -0.268704 0.125775 2.268348
v -0.2776 0.073511 2.277638
v -0.268345 0.153084 2.029279
v -0.284783 0.150425 2.133997
v -0.268345 0.172506 2.163439
v -0.268345 0.241738 1.873039
v -0.284783 0.222077 1.826488
v -0.268345 0.124238 1.814879
v -0.284783 0.144663 2.202222
v -0.268345 0.165395 2.243142
v -0.268345 0.050231 1.691926
v -0.284955 0.248504 1.765845
v -0.268518 0.302638 1.735363
v -0.284783 0.386883 1.870913
v -0.268345 0.414906 1.899485
v -0.275764 -0.003853 2.156821
v -0.268345 -0.111787 2.03164
v -0.268345 -0.145122 2.061089
v -0.272988 -0.020217 2.223602
v -0.255841 -0.202633 1.895527
v -0.219099 0.040825 1.595534
v -0.219099 0.111383 1.592213
v -0.219099 0.14553 1.850218
v -0.219099 0.18101 2.048038
v -0.219099 -0.283333 1.711006
v -0.219099 -0.204744 1.855507
v -0.219099 -0.044161 2.332819
v -0.219099 -0.194844 2.090708
v -0.219672 0.197111 1.625559
v -0.219099 0.339083 1.693165
v -0.219099 0.41957 1.916179
v -0.268345 0.322853 1.892127
v -0.219099 0.349388 1.926081
v -0.219099 -0.001722 1.65112
v -0.219099 0.188335 2.171884
v -0.219099 0.179756 2.284862
v -0.219099 0.25656 1.899628
v -0.219544 0.006694 2.055766
v -0.219099 -0.012722 1.751856
v -0.219099 -0.264223 1.868631
v -0.219099 -0.092545 2.025977
v -0.219099 0.13283 2.345272
v -0.219099 0.067971 2.363145
v -0.219099 0.480129 1.790238
v -0.219099 0.504328 1.85184
v -0.218654 0.010395 2.116831
v -0.284783 0.312324 1.852944
v -0.284783 0.131458 2.1204
v -0.153415 0.054286 1.798545
v -0.153415 0.109874 1.790477
v -0.153415 0.129852 2.018507
v -0.153415 0.070246 2.004735
v -0.169853 0.005844 1.808468
v -0.169853 0.014962 1.733367
v -0.153415 0.065607 1.734751
v -0.169853 0.022227 2.035625
v -0.157896 0.06712 2.076118
v -0.172696 0.024528 2.111693
v -0.169853 0.106613 1.666092
v -0.169853 0.181355 1.680885
v -0.153415 0.172119 1.719028
v -0.153415 0.125047 1.706315
v -0.146836 0.091801 2.23053
v -0.151381 0.086873 2.178866
v -0.147043 0.115409 2.166137
v -0.153415 0.126708 2.219802
v -0.169853 0.421131 1.819302
v -0.169853 0.459752 1.862176
v -0.153415 0.403568 1.855328
v -0.153415 0.362353 1.808873
v -0.169494 0.125775 2.268348
v -0.160598 0.073511 2.277638
v -0.169853 0.153084 2.029279
v -0.169853 0.172506 2.163439
v -0.153415 0.150425 2.133997
v -0.169853 0.241738 1.873039
v -0.169853 0.124238 1.814879
v -0.153415 0.222077 1.826488
v -0.169853 0.165395 2.243142
v -0.153415 0.144663 2.202222
v -0.169853 0.050231 1.691926
v -0.16968 0.302638 1.735363
v -0.153243 0.248504 1.765845
v -0.169853 0.414906 1.899485
v -0.153415 0.386883 1.870913
v -0.162434 -0.003853 2.156821
v -0.16521 -0.020217 2.223602
v -0.169853 -0.145122 2.061089
v -0.169853 -0.111787 2.03164
v -0.182357 -0.202633 1.895527
v -0.169853 0.322853 1.892127
v -0.153415 0.312324 1.852944
v -0.153415 0.131458 2.1204
v -0.24281 0.450394 1.915156
v -0.263 0.498921 1.888936
v -0.299087 0.530771 1.90613
v -0.216695 0.51719 1.885218
v -0.272485 0.437515 1.960735
v -0.169096 0.423482 1.910668
v -0.218342 0.428146 1.927363
v -0.112878 0.404163 1.918264
v -0.202188 0.422826 1.94203
v -0.116649 0.5007 1.859825
vt 0.40625 0.90625
vt 0.40625 0.90625
vt 0.40625 0.90625
vt 0.40625 0.90625
vt 0.40625 0.90625
vt 0.40625 0.90625
vt 0.40625 0.90625
vt 0.40625 0.90625
vt 0.40625 0.90625
vt 0.40625 0.90625
vt 0.40625 0.90625
vt 0.40625 0.90625
vt 0.40625 0.90625
vt 0.40625 0.90625
vt 0.40625 0.90625
vt 0.40625 0.90625
vt 0.40625 0.90625
vt 0.40625 0.90625
vt 0.40625 0.90625
vt 0.40625 0.90625
vt 0.40625 0.90625
vt 0.40625 0.90625
vt 0.40625 0.90625
vt 0.40625 0.90625
vt 0.40625 0.90625
vt 0.40625 0.90625
vt 0.40625 0.90625
vt 0.40625 0.90625
vt 0.40625 0.90625
vt 0.40625 0.90625
vt 0.40625 0.90625
vt 0.40625 0.90625
vt 0.40625 0.90625
vt 0.40625 0.90625
vt 0.40625 0.90625
vt 0.40625 0.90625
vt 0.40625 0.90625
vt 0.40625 0.90625
vt 0.40625 0.90625
vt 0.40625 0.90625
vt 0.40625 0.90625
vt 0.40625 0.90625
vt 0.40625 0.90625
vt 0.40625 0.90625
vt 0.40625 0.90625
vt 0.40625 0.90625
vt 0.40625 0.90625
vt 0.40625 0.90625
vt 0.40625 0.90625
vt 0.40625 0.90625
vt 0.40625 0.90625
vt 0.40625 0.90625
vt 0.40625 0.90625
vt 0.40625 0.90625
vt 0.40625 0.90625
vt 0.40625 0.90625
vt 0.40625 0.90625
vt 0.40625 0.90625
vt 0.40625 0.90625
vt 0.40625 0.90625
vt 0.40625 0.90625
vt 0.40625 0.90625
vt 0.40625 0.90625
vt 0.40625 0.90625
vt 0.40625 0.90625
vt 0.40625 0.90625
vt 0.40625 0.90625
vt 0.40625 0.90625
vt 0.40625 0.90625
vt 0.40625 0.90625
vt 0.40625 0.90625
vt 0.40625 0.90625
vt 0.40625 0.90625
vt 0.40625 0.90625
vt 0.40625 0.90625
vt 0.40625 0.90625
vt 0.40625 0.90625
vt 0.40625 0.90625
vt 0.40625 0.90625
vt 0.40625 0.90625
vt 0.40625 0.90625
vt 0.40625 0.90625
vt 0.40625 0.90625
vt 0.40625 0.90625
vt 0.40625 0.90625
vt 0.40625 0.90625
vt 0.40625 0.90625
vt 0.40625 0.90625
vt 0.40625 0.90625
vt 0.40625 0.90625
vt 0.40625 0.90625
vt 0.40625 0.90625
vt 0.40625 0.90625
vt 0.40625 0.90625
vt 0.40625 0.90625
vt 0.40625 0.90625
vt 0.40625 0.90625
vt 0.40625 0.90625
vt 0.40625 0.90625
vt 0.40625 0.90625
vt 0.40625 0.90625
vt 0.40625 0.90625
vt 0.40625 0.90625
vt 0.40625 0.90625
vt 0.40625 0.90625
vt 0.40625 0.90625
vt 0.40625 0.90625
vt 0.40625 0.90625
vt 0.40625 0.90625
vt 0.40625 0.90625
vt 0.40625 0.90625
vt 0.40625 0.90625
vt 0.40625 0.90625
vt 0.40625 0.90625
vt 0.40625 0.90625
vt 0.40625 0.90625
vt 0.40625 0.90625
vt 0.40625 0.90625
vt 0.40625 0.90625
vt 0.40625 0.90625
vt 0.40625 0.90625
vt 0.40625 0.90625
vt 0.40625 0.90625
vt 0.40625 0.90625
vt 0.40625 0.90625
vt 0.40625 0.90625
vt 0.40625 0.90625
vt 0.40625 0.90625
vt 0.40625 0.90625
vt 0.40625 0.90625
vt 0.40625 0.90625
vt 0.40625 0.90625
vt 0.40625 0.90625
vt 0.40625 0.90625
vt 0.40625 0.90625
vt 0.40625 0.90625
vt 0.40625 0.90625
vt 0.40625 0.90625
vt 0.40625 0.90625
vt 0.40625 0.90625
vt 0.40625 0.90625
vt 0.40625 0.90625
vt 0.40625 0.90625
vt 0.40625 0.90625
vt 0.40625 0.90625
vt 0.40625 0.90625
vt 0.40625 0.90625
vt 0.40625 0.90625
vt 0.40625 0.90625
vt 0.40625 0.90625
vt 0.40625 0.90625
vt 0.40625 0.90625
vt 0.40625 0.90625
vt 0.40625 0.90625
vt 0.40625 0.90625
vt 0.40625 0.90625
vt 0.40625 0.90625
vt 0.40625 0.90625
vt 0.40625 0.90625
vt 0.40625 0.90625
vt 0.40625 0.90625
vt 0.40625 0.90625
vt 0.40625 0.90625
vt 0.40625 0.90625
vt 0.40625 0.90625
vt 0.40625 0.90625
vt 0.40625 0.90625
vt 0.40625 0.90625
vt 0.40625 0.90625
vt 0.40625 0.90625
vt 0.40625 0.90625
vt 0.40625 0.90625
vt 0.40625 0.90625
vt 0.40625 0.90625
vt 0.40625 0.90625
vt 0.40625 0.90625
vt 0.40625 0.90625
vt 0.40625 0.90625
vt 0.40625 0.90625
vt 0.40625 0.90625
vt 0.40625 0.90625
vt 0.40625 0.90625
vt 0.40625 0.90625
vt 0.40625 0.90625
vt 0.40625 0.90625
vt 0.40625 0.90625
vt 0.40625 0.90625
vt 0.40625 0.90625
vt 0.40625 0.90625
vt 0.40625 0.90625
vt 0.40625 0.90625
vt 0.40625 0.90625
vt 0.40625 0.90625
vt 0.40625 0.90625
vt 0.40625 0.90625
vt 0.40625 0.90625
vt 0.40625 0.90625
vt 0.40625 0.90625
vt 0.40625 0.90625
vt 0.40625 0.90625
vt 0.40625 0.90625
vt 0.40625 0.90625
vt 0.40625 0.90625
vt 0.40625 0.90625
vt 0.40625 0.90625
vt 0.40625 0.90625
vt 0.40625 0.90625
vt 0.40625 0.90625
vt 0.40625 0.90625
vt 0.40625 0.90625
vt 0.40625 0.90625
vt 0.40625 0.90625
vt 0.40625 0.90625
vt 0.40625 0.90625
vt 0.40625 0.90625
vt 0.40625 0.90625
vt 0.40625 0.90625
vt 0.40625 0.90625
vt 0.40625 0.90625
vt 0.40625 0.90625
vt 0.40625 0.90625
vt 0.40625 0.90625
vt 0.40625 0.90625
vt 0.40625 0.90625
vt 0.40625 0.90625
vt 0.40625 0.90625
vt 0.40625 0.90625
vt 0.40625 0.90625
vt 0.40625 0.90625
vt 0.40625 0.90625
vt 0.40625 0.90625
vt 0.40625 0.90625
vt 0.40625 0.90625
vt 0.40625 0.90625
vt 0.40625 0.90625
vt 0.40625 0.90625
vt 0.40625 0.90625
vt 0.40625 0.90625
vt 0.40625 0.90625
vt 0.40625 0.90625
vt 0.40625 0.90625
vt 0.40625 0.90625
vt 0.40625 0.90625
vt 0.40625 0.90625
vt 0.40625 0.90625
vt 0.40625 0.90625
vt 0.40625 0.90625
vt 0.40625 0.90625
vt 0.40625 0.90625
vt 0.40625 0.90625
vt 0.40625 0.90625
vt 0.40625 0.90625
vt 0.40625 0.90625
vt 0.40625 0.90625
vt 0.40625 0.90625
vt 0.40625 0.90625
vt 0.40625 0.90625
vt 0.40625 0.90625
vt 0.40625 0.90625
vt 0.40625 0.90625
vt 0.40625 0.90625
vt 0.40625 0.90625
vt 0.40625 0.90625
vt 0.40625 0.90625
vt 0.40625 0.90625
vt 0.40625 0.90625
vt 0.40625 0.90625
vt 0.40625 0.90625
vt 0.40625 0.90625
vt 0.40625 0.90625
vt 0.40625 0.90625
vt 0.40625 0.90625
vt 0.40625 0.90625
vt 0.40625 0.90625
vt 0.40625 0.90625
vt 0.40625 0.90625
vt 0.40625 0.90625
vt 0.40625 0.90625
vt 0.40625 0.90625
vt 0.40625 0.90625
vt 0.40625 0.90625
vt 0.40625 0.90625
vt 0.40625 0.90625
vt 0.40625 0.90625
vt 0.40625 0.90625
vt 0.40625 0.90625
vt 0.40625 0.90625
vt 0.40625 0.90625
vt 0.40625 0.90625
vt 0.40625 0.90625
vt 0.40625 0.90625
vt 0.40625 0.90625
vt 0.40625 0.90625
vt 0.40625 0.90625
vt 0.40625 0.90625
vt 0.40625 0.90625
vt 0.40625 0.90625
vt 0.40625 0.90625
vt 0.40625 0.90625
vt 0.40625 0.90625
vt 0.40625 0.90625
vt 0.40625 0.90625
vt 0.40625 0.90625
vt 0.40625 0.90625
vt 0.40625 0.90625
vt 0.40625 0.90625
vt 0.40625 0.90625
vt 0.40625 0.90625
vt 0.40625 0.90625
vt 0.40625 0.90625
vt 0.40625 0.90625
vt 0.40625 0.90625
vt 0.40625 0.90625
vt 0.40625 0.90625
vt 0.40625 0.90625
vt 0.40625 0.90625
vt 0.40625 0.90625
vt 0.40625 0.90625
vt 0.40625 0.90625
vt 0.40625 0.90625
vt 0.40625 0.90625
vt 0.40625 0.90625
vt 0.40625 0.90625
vt 0.40625 0.90625
vt 0.40625 0.90625
vt 0.40625 0.90625
vt 0.40625 0.90625
vt 0.40625 0.90625
vt 0.40625 0.90625
vt 0.40625 0.90625
vt 0.40625 0.90625
vt 0.40625 0.90625
vt 0.40625 0.90625
vt 0.40625 0.90625
vt 0.40625 0.90625
vt 0.40625 0.90625
vt 0.40625 0.90625
vt 0.40625 0.90625
vt 0.40625 0.90625
vt 0.40625 0.90625
vt 0.40625 0.90625
vt 0.40625 0.90625
vt 0.40625 0.90625
vt 0.40625 0.90625
vt 0.40625 0.90625
vt 0.40625 0.90625
vt 0.40625 0.90625
vt 0.40625 0.90625
vt 0.40625 0.90625
vt 0.40625 0.90625
vt 0.40625 0.90625
vt 0.40625 0.90625
vt 0.40625 0.90625
vt 0.40625 0.90625
vt 0.40625 0.90625
vt 0.40625 0.90625
vt 0.40625 0.90625
vt 0.40625 0.90625
vt 0.40625 0.90625
vt 0.40625 0.90625
vt 0.40625 0.90625
vt 0.40625 0.90625
vt 0.40625 0.90625
vt 0.40625 0.90625
vt 0.40625 0.90625
vt 0.40625 0.90625
vt 0.40625 0.90625
vt 0.40625 0.90625
vt 0.40625 0.90625
vt 0.40625 0.90625
vt 0.40625 0.90625
vt 0.40625 0.90625
vt 0.40625 0.90625
vt 0.40625 0.90625
vt 0.40625 0.90625
vt 0.40625 0.90625
vt 0.40625 0.90625
vt 0.40625 0.90625
vt 0.40625 0.90625
vt 0.40625 0.90625
vt 0.40625 0.90625
vt 0.40625 0.90625
vt 0.40625 0.90625
vt 0.40625 0.90625
vt 0.40625 0.90625
vt 0.40625 0.90625
vt 0.40625 0.90625
vt 0.40625 0.90625
vt 0.40625 0.90625
vt 0.40625 0.90625
vt 0.40625 0.90625
vt 0.40625 0.90625
vt 0.40625 0.90625
vt 0.40625 0.90625
vt 0.40625 0.90625
vt 0.40625 0.90625
vt 0.40625 0.90625
vt 0.40625 0.90625
vt 0.40625 0.90625
vt 0.40625 0.90625
vt 0.40625 0.90625
vt 0.40625 0.90625
vt 0.40625 0.90625
vt 0.40625 0.90625
vt 0.40625 0.90625
vt 0.40625 0.90625
vt 0.40625 0.90625
vt 0.40625 0.90625
vt 0.40625 0.90625
vt 0.40625 0.90625
vt 0.40625 0.90625
vt 0.40625 0.90625
vt 0.40625 0.90625
vt 0.40625 0.90625
vt 0.40625 0.90625
vt 0.40625 0.90625
vt 0.40625 0.90625
vt 0.40625 0.90625
vt 0.40625 0.90625
vt 0.40625 0.90625
vt 0.40625 0.90625
vt 0.40625 0.90625
vt 0.40625 0.90625
vt 0.40625 0.90625
vt 0.40625 0.90625
vt 0.40625 0.90625
vt 0.40625 0.90625
vt 0.40625 0.90625
vt 0.40625 0.90625
vt 0.40625 0.90625
vt 0.40625 0.90625
vt 0.40625 0.90625
vt 0.40625 0.90625
vt 0.40625 0.90625
vt 0.40625 0.90625
vt 0.40625 0.90625
vt 0.40625 0.90625
vt 0.40625 0.90625
vt 0.40625 0.90625
vt 0.40625 0.90625
vt 0.40625 0.90625
vt 0.40625 0.90625
vt 0.40625 0.90625
vt 0.40625 0.90625
vt 0.40625 0.90625
vt 0.40625 0.90625
vt 0.40625 0.90625
vt 0.40625 0.90625
vt 0.40625 0.90625
vt 0.40625 0.90625
vt 0.40625 0.90625
vt 0.40625 0.90625
vt 0.40625 0.90625
vt 0.40625 0.90625
vt 0.40625 0.90625
vt 0.40625 0.90625
vt 0.40625 0.90625
vt 0.40625 0.90625
vt 0.40625 0.90625
vt 0.40625 0.90625
vt 0.40625 0.90625
vt 0.40625 0.90625
vt 0.40625 0.90625
vt 0.40625 0.90625
vt 0.40625 0.90625
vt 0.40625 0.90625
vt 0.40625 0.90625
vt 0.40625 0.90625
vt 0.40625 0.90625
vt 0.40625 0.90625
vt 0.40625 0.90625
vt 0.40625 0.90625
vt 0.40625 0.90625
vt 0.40625 0.90625
vt 0.40625 0.90625
vt 0.40625 0.90625
vt 0.40625 0.90625
vt 0.40625 0.90625
vt 0.40625 0.90625
vt 0.40625 0.90625
vt 0.40625 0.90625
vt 0.40625 0.90625
vt 0.40625 0.90625
vt 0.40625 0.90625
vt 0.40625 0.90625
vt 0.40625 0.90625
vt 0.40625 0.90625
vt 0.40625 0.90625
vt 0.40625 0.90625
vt 0.40625 0.90625
vt 0.40625 0.90625
vt 0.40625 0.90625
vt 0.40625 0.90625
vt 0.40625 0.90625
vt 0.40625 0.90625
vt 0.40625 0.90625
vt 0.40625 0.90625
vt 0.40625 0.90625
vt 0.40625 0.90625
vt 0.40625 0.90625
vt 0.40625 0.90625
vt 0.40625 0.90625
vt 0.40625 0.90625
vt 0.40625 0.90625
vt 0.40625 0.90625
vt 0.40625 0.90625
vt 0.40625 0.90625
vt 0.40625 0.90625
vt 0.40625 0.90625
vt 0.40625 0.90625
vt 0.40625 0.90625
vt 0.40625 0.90625
vt 0.40625 0.90625
vt 0.40625 0.90625
vt 0.40625 0.90625
vt 0.40625 0.90625
vt 0.40625 0.90625
vt 0.40625 0.90625
vt 0.40625 0.90625
vt 0.40625 0.90625
vt 0.40625 0.90625
vt 0.40625 0.90625
vt 0.40625 0.90625
vt 0.40625 0.90625
vt 0.40625 0.90625
vt 0.40625 0.90625
vt 0.40625 0.90625
vt 0.40625 0.90625
vt 0.40625 0.90625
vt 0.40625 0.90625
vt 0.40625 0.90625
vt 0.40625 0.90625
vt 0.40625 0.90625
vt 0.40625 0.90625
vt 0.40625 0.90625
vt 0.40625 0.90625
vt 0.40625 0.90625
vt 0.40625 0.90625
vt 0.40625 0.90625
vt 0.40625 0.90625
vt 0.40625 0.90625
vt 0.40625 0.90625
vt 0.40625 0.90625
vt 0.40625 0.90625
vt 0.40625 0.90625
vt 0.40625 0.90625
vt 0.40625 0.90625
vt 0.40625 0.90625
vt 0.40625 0.90625
vt 0.40625 0.90625
vt 0.40625 0.90625
vt 0.40625 0.90625
vt 0.40625 0.90625
vt 0.40625 0.90625
vt 0.40625 0.90625
vt 0.40625 0.90625
vt 0.40625 0.90625
vt 0.40625 0.90625
vt 0.40625 0.90625
vt 0.40625 0.90625
vt 0.40625 0.90625
vt 0.40625 0.90625
vt 0.40625 0.90625
vt 0.40625 0.90625
vt 0.40625 0.90625
vt 0.40625 0.90625
vt 0.40625 0.90625
vt 0.40625 0.90625
vt 0.40625 0.90625
vt 0.40625 0.90625
vt 0.40625 0.90625
vt 0.40625 0.90625
vt 0.40625 0.90625
vt 0.40625 0.90625
vt 0.40625 0.90625
vt 0.40625 0.90625
vt 0.40625 0.90625
vt 0.40625 0.90625
vt 0.40625 0.90625
vt 0.40625 0.90625
vt 0.40625 0.90625
vt 0.40625 0.90625
vt 0.40625 0.90625
vt 0.40625 0.90625
vt 0.40625 0.90625
vt 0.40625 0.90625
vt 0.40625 0.90625
vt 0.40625 0.90625
vt 0.40625 0.90625
vt 0.40625 0.90625
vt 0.40625 0.90625
vt 0.40625 0.90625
vt 0.40625 0.90625
vt 0.40625 0.90625
vt 0.40625 0.90625
vt 0.40625 0.90625
vt 0.40625 0.90625
vt 0.40625 0.90625
vt 0.40625 0.90625
vt 0.40625 0.90625
vt 0.40625 0.90625
vt 0.40625 0.90625
vt 0.40625 0.90625
vt 0.40625 0.90625
vt 0.40625 0.90625
vt 0.40625 0.90625
vt 0.40625 0.90625
vt 0.40625 0.90625
vt 0.40625 0.90625
vt 0.40625 0.90625
vt 0.40625 0.90625
vt 0.40625 0.90625
vt 0.40625 0.90625
vt 0.40625 0.90625
vt 0.40625 0.90625
vt 0.40625 0.90625
vt 0.40625 0.90625
vt 0.40625 0.90625
vt 0.40625 0.90625
vt 0.40625 0.90625
vt 0.40625 0.90625
vt 0.40625 0.90625
vt 0.40625 0.90625
vt 0.40625 0.90625
vt 0.40625 0.90625
vt 0.40625 0.90625
vt 0.40625 0.90625
vt 0.40625 0.90625
vt 0.40625 0.90625
vt 0.40625 0.90625
vt 0.40625 0.90625
vt 0.40625 0.90625
vt 0.40625 0.90625
vt 0.40625 0.90625
vt 0.40625 0.90625
vt 0.40625 0.90625
vt 0.40625 0.90625
vt 0.40625 0.90625
vt 0.40625 0.90625
vt 0.40625 0.90625
vt 0.40625 0.90625
vt 0.40625 0.90625
vt 0.40625 0.90625
vt 0.40625 0.90625
vt 0.40625 0.90625
vt 0.40625 0.90625
vt 0.40625 0.90625
vt 0.40625 0.90625
vt 0.40625 0.90625
vt 0.40625 0.90625
vt 0.40625 0.90625
vt 0.40625 0.90625
vt 0.40625 0.90625
vt 0.40625 0.90625
vt 0.40625 0.90625
vt 0.40625 0.90625
vt 0.40625 0.90625
vt 0.40625 0.90625
vt 0.40625 0.90625
vt 0.40625 0.90625
vt 0.40625 0.90625
vt 0.40625 0.90625
vt 0.40625 0.90625
vt 0.40625 0.90625
vt 0.40625 0.90625
vt 0.40625 0.90625
vt 0.40625 0.90625
vt 0.40625 0.90625
vt 0.40625 0.90625
vt 0.40625 0.90625
vt 0.40625 0.90625
vt 0.40625 0.90625
vt 0.40625 0.90625
vt 0.40625 0.90625
vt 0.40625 0.90625
vt 0.40625 0.90625
vt 0.40625 0.90625
vt 0.40625 0.90625
vt 0.40625 0.90625
vt 0.40625 0.90625
vt 0.40625 0.90625
vt 0.40625 0.90625
vt 0.40625 0.90625
vt 0.40625 0.90625
vt 0.40625 0.90625
vt 0.40625 0.90625
vt 0.40625 0.90625
vt 0.40625 0.90625
vt 0.40625 0.90625
vt 0.40625 0.90625
vt 0.40625 0.90625
vt 0.40625 0.90625
vt 0.40625 0.90625
vt 0.40625 0.90625
vt 0.40625 0.90625
vt 0.40625 0.90625
vt 0.40625 0.90625
vt 0.40625 0.90625
vt 0.40625 0.90625
vt 0.40625 0.90625
vt 0.40625 0.90625
vt 0.40625 0.90625
vt 0.40625 0.90625
vt 0.40625 0.90625
vt 0.40625 0.90625
vt 0.40625 0.90625
vt 0.40625 0.90625
vt 0.40625 0.90625
vt 0.40625 0.90625
vt 0.40625 0.90625
vt 0.40625 0.90625
vt 0.40625 0.90625
vt 0.40625 0.90625
vt 0.40625 0.90625
vt 0.40625 0.90625
vt 0.40625 0.90625
vt 0.40625 0.90625
vt 0.40625 0.90625
vt 0.40625 0.90625
vt 0.40625 0.90625
vt 0.40625 0.90625
vt 0.40625 0.90625
vt 0.40625 0.90625
vt 0.40625 0.90625
vt 0.40625 0.90625
vt 0.40625 0.90625
vt 0.40625 0.90625
vt 0.40625 0.90625
vt 0.40625 0.90625
vt 0.40625 0.90625
vt 0.40625 0.90625
vt 0.40625 0.90625
vt 0.40625 0.90625
vt 0.40625 0.90625
vt 0.40625 0.90625
vt 0.40625 0.90625
vt 0.40625 0.90625
vt 0.40625 0.90625
vt 0.40625 0.90625
vt 0.40625 0.90625
vt 0.40625 0.90625
vt 0.40625 0.90625
vt 0.40625 0.90625
vt 0.40625 0.90625
vt 0.40625 0.90625
vt 0.40625 0.90625
vt 0.40625 0.90625
vt 0.40625 0.90625
vt 0.40625 0.90625
vt 0.40625 0.90625
vt 0.40625 0.90625
vt 0.40625 0.90625
vt 0.40625 0.90625
vt 0.40625 0.90625
vt 0.40625 0.90625
vt 0.40625 0.90625
vt 0.40625 0.90625
vt 0.40625 0.90625
vt 0.40625 0.90625
vt 0.40625 0.90625
vt 0.40625 0.90625
vt 0.40625 0.90625
vt 0.40625 0.90625
vt 0.40625 0.90625
vt 0.40625 0.90625
vt 0.40625 0.90625
vt 0.40625 0.90625
vt 0.40625 0.90625
vt 0.40625 0.90625
vt 0.40625 0.90625
vt 0.40625 0.90625
vt 0.40625 0.90625
vt 0.40625 0.90625
vt 0.40625 0.90625
vt 0.40625 0.90625
vt 0.40625 0.90625
vt 0.40625 0.90625
vt 0.40625 0.90625
vt 0.40625 0.90625
vt 0.40625 0.90625
vt 0.40625 0.90625
vt 0.40625 0.90625
vt 0.40625 0.90625
vt 0.40625 0.90625
vt 0.40625 0.90625
vt 0.40625 0.90625
vt 0.40625 0.90625
vt 0.40625 0.90625
vt 0.40625 0.90625
vt 0.40625 0.90625
vt 0.40625 0.90625
vt 0.40625 0.90625
vt 0.40625 0.90625
vt 0.40625 0.90625
vt 0.40625 0.90625
vt 0.40625 0.90625
vt 0.40625 0.90625
vt 0.40625 0.90625
vt 0.40625 0.90625
vt 0.40625 0.90625
vt 0.40625 0.90625
vt 0.40625 0.90625
vt 0.40625 0.90625
vt 0.40625 0.90625
vt 0.40625 0.90625
vt 0.40625 0.90625
vt 0.40625 0.90625
vt 0.40625 0.90625
vt 0.40625 0.90625
vt 0.40625 0.90625
vt 0.40625 0.90625
vt 0.40625 0.90625
vt 0.40625 0.90625
vt 0.40625 0.90625
vt 0.40625 0.90625
vt 0.40625 0.90625
vt 0.40625 0.90625
vt 0.40625 0.90625
vt 0.40625 0.90625
vt 0.40625 0.90625
vt 0.40625 0.90625
vt 0.40625 0.90625
vt 0.40625 0.90625
vt 0.40625 0.90625
vt 0.40625 0.90625
vt 0.40625 0.90625
vt 0.40625 0.90625
vt 0.40625 0.90625
vt 0.40625 0.90625
vt 0.40625 0.90625
vt 0.40625 0.90625
vt 0.40625 0.90625
vt 0.40625 0.90625
vt 0.40625 0.90625
vt 0.40625 0.90625
vt 0.40625 0.90625
vt 0.40625 0.90625
vt 0.40625 0.90625
vt 0.40625 0.90625
vt 0.40625 0.90625
vt 0.40625 0.90625
vt 0.40625 0.90625
vt 0.40625 0.90625
vt 0.40625 0.90625
vt 0.40625 0.90625
vt 0.40625 0.90625
vt 0.40625 0.90625
vt 0.40625 0.90625
vt 0.40625 0.90625
vt 0.40625 0.90625
vt 0.40625 0.90625
vt 0.40625 0.90625
vt 0.40625 0.90625
vt 0.40625 0.90625
vt 0.40625 0.90625
vt 0.40625 0.90625
vt 0.40625 0.90625
vt 0.40625 0.90625
vt 0.40625 0.90625
vt 0.40625 0.90625
vt 0.40625 0.90625
vt 0.40625 0.90625
vt 0.40625 0.90625
vt 0.40625 0.90625
vt 0.40625 0.90625
vt 0.40625 0.90625
vt 0.40625 0.90625
vt 0.40625 0.90625
vt 0.40625 0.90625
vt 0.40625 0.90625
vt 0.40625 0.90625
vt 0.40625 0.90625
vt 0.40625 0.90625
vt 0.40625 0.90625
vt 0.40625 0.90625
vt 0.40625 0.90625
vt 0.40625 0.90625
vt 0.40625 0.90625
vt 0.40625 0.90625
vt 0.40625 0.90625
vt 0.40625 0.90625
vt 0.40625 0.90625
vt 0.40625 0.90625
vt 0.40625 0.90625
vt 0.40625 0.90625
vt 0.40625 0.90625
vt 0.40625 0.90625
vt 0.40625 0.90625
vt 0.40625 0.90625
vt 0.40625 0.90625
vt 0.40625 0.90625
vt 0.40625 0.90625
vt 0.40625 0.90625
vt 0.40625 0.90625
vt 0.40625 0.90625
vt 0.40625 0.90625
vt 0.40625 0.90625
vt 0.40625 0.90625
vt 0.40625 0.90625
vt 0.40625 0.90625
vt 0.40625 0.90625
vt 0.40625 0.90625
vt 0.40625 0.90625
vt 0.40625 0.90625
vt 0.40625 0.90625
vt 0.40625 0.90625
vt 0.40625 0.90625
vt 0.40625 0.90625
vt 0.40625 0.90625
vt 0.40625 0.90625
vt 0.40625 0.90625
vt 0.40625 0.90625
vt 0.40625 0.90625
vt 0.40625 0.90625
vt 0.40625 0.90625
vt 0.40625 0.90625
vt 0.40625 0.90625
vt 0.40625 0.90625
vt 0.40625 0.90625
vt 0.40625 0.90625
vt 0.40625 0.90625
vt 0.40625 0.90625
vt 0.40625 0.90625
vt 0.40625 0.90625
vt 0.40625 0.90625
vt 0.40625 0.90625
vt 0.40625 0.90625
vt 0.40625 0.90625
vt 0.40625 0.90625
vt 0.40625 0.90625
vt 0.40625 0.90625
vt 0.40625 0.90625
vt 0.40625 0.90625
vt 0.40625 0.90625
vt 0.40625 0.90625
vt 0.40625 0.90625
vt 0.40625 0.90625
vt 0.40625 0.90625
vt 0.40625 0.90625
vt 0.40625 0.90625
vt 0.40625 0.90625
vt 0.40625 0.90625
vt 0.40625 0.90625
vt 0.40625 0.90625
vt 0.40625 0.90625
vt 0.40625 0.90625
vt 0.40625 0.90625
vt 0.40625 0.90625
vt 0.40625 0.90625
vt 0.40625 0.90625
vt 0.40625 0.90625
vt 0.40625 0.90625
vt 0.40625 0.90625
vt 0.40625 0.90625
vt 0.40625 0.90625
vt 0.40625 0.90625
vt 0.40625 0.90625
vt 0.40625 0.90625
vt 0.40625 0.90625
vt 0.40625 0.90625
vt 0.40625 0.90625
vt 0.40625 0.90625
vt 0.40625 0.90625
vt 0.40625 0.90625
vt 0.40625 0.90625
vt 0.40625 0.90625
vt 0.40625 0.90625
vt 0.40625 0.90625
vt 0.40625 0.90625
vt 0.40625 0.90625
vt 0.40625 0.90625
vt 0.40625 0.90625
vt 0.40625 0.90625
vt 0.40625 0.90625
vt 0.40625 0.90625
vt 0.40625 0.90625
vt 0.40625 0.90625
vt 0.40625 0.90625
vt 0.40625 0.90625
vt 0.40625 0.90625
vt 0.40625 0.90625
vt 0.40625 0.90625
vt 0.40625 0.90625
vt 0.40625 0.90625
vt 0.40625 0.90625
vt 0.40625 0.90625
vt 0.40625 0.90625
vt 0.40625 0.90625
vt 0.375 0.90625
vt 0.40625 0.90625
vt 0.40625 0.90625
vt 0.40625 0.9375
vt 0.40625 0.90625
vt 0.40625 0.90625
vt 0.40625 0.90625
vt 0.40625 0.90625
vt 0.40625 0.90625
vt 0.40625 0.90625
vt 0.40625 0.90625
vt 0.40625 0.90625
vt 0.40625 0.9375
vt 0.40625 0.90625
vt 0.40625 0.90625
vt 0.40625 0.90625
vt 0.40625 0.90625
vt 0.40625 0.90625
vt 0.375 0.9375
vt 0.40625 0.90625
vt 0.40625 0.90625
vt 0.375 0.90625
vt 0.40625 0.90625
vt 0.40625 0.90625
vt 0.40625 0.90625
vt 0.40625 0.90625
vt 0.40625 0.90625
vt 0.40625 0.90625
vt 0.40625 0.90625
vt 0.40625 0.90625
vt 0.40625 0.90625
vt 0.375 0.90625
vt 0.375 0.9375
vt 0.375 0.9375
vt 0.40625 0.9375
vt 0.40625 0.90625
vt 0.40625 0.9375
vt 0.375 0.9375
vt 0.375 0.90625
vt 0.40625 0.90625
vn 1 0 0
vn 0.950789159331098 -0.30758000120268947 -0.03734323712022647
vn 0.953918840367821 -0.2963764604017621 0.04690244888099841
vn 0.9222368652361782 0.07506509120949684 -0.37926823816536137
vn 0.9812309449243223 -0.18001116390361305 -0.06915065865910658
vn 0.9145235809475118 0.30056676598055104 -0.27075124945036255
vn 0.9109796073095056 0.21736669854388743 0.3505251395126317
vn 0.731495016016215 0.6748122267433051 -0.09769083980179237
vn 0.9481332869930578 -0.31704953235655264 0.02286622243029007
vn 0.6859862328341335 -0.32277695887525937 0.6521026937387034
vn 0.8281411148221856 0.5583020317903284 0.04981099517033253
vn 0.923125116994149 -0.29281144335803433 -0.24920167939466945
vn 0.9496879735471112 0.12720237352137076 -0.2862032653037196
vn 0.9245636838951217 0.24368624984350548 0.29291467368414686
vn 0.7956118853291774 0.6003969162845346 -0.08077914854078215
vn 0.9373990024150014 -0.1450670575525175 -0.31660489428373456
vn 0.9973139213244819 -0.06901011060224743 0.024546832118440585
vn 0.997040112835242 -0.05090228137833917 -0.05761919079584818
vn 0.9819026232533153 0.11071430496198088 -0.1536540956988904
vn 0.8310202619635619 -0.02615206437917208 -0.5556270275416063
vn 0.44067912758087185 0.8835658192800951 -0.15847192027124543
vn 0.4253077968316072 0.7950690745993649 -0.43241004217056966
vn 0.761541574112586 -0.5502503612991055 0.34246017401783874
vn 0.736618970911686 0.293189683186708 -0.6094524603001341
vn 0.6040689638259618 0.11133668813244106 0.7891164862160266
vn 0.8017265990772636 -0.47461538659226993 -0.36328321615768977
vn 0.3344830474165421 0.939696448437907 0.07135597931587392
vn 0.4326046245247393 -0.36656014748484045 0.823703160802301
vn 0.29038718097497024 -0.9549892975710907 0.06058652201673664
vn 0.8443659088854818 -0.5318723506410086 0.06448266849008526
vn 0.2967445924623408 0.953290911235901 -0.05638337875105356
vn 0.3630248835255633 0.7783244847554497 -0.5122732965628946
vn 0.8105459901100611 0.1555931354067675 0.5646290588791832
vn 0.6767521133084597 0.6852362101812403 -0.26918007613674666
vn 0.8100995748893002 -0.5596186673576198 0.17483027743802523
vn 0.76221764615493 0.23023244013940578 -0.6049936226089438
vn 0.46001089294130326 -0.8826664811515998 -0.09638392722231957
vn 0.7285609901575214 0.5409495637004632 0.4202052512201275
vn 0.7589004115313636 0.36919558605779457 -0.5364371208380053
vn -0.2711597785908833 0.6362712799172362 -0.7222404259157925
vn 0.40025321368555183 -0.2511474815329983 0.881318505112664
vn 0.9453075472442917 -0.3261686590425363 0.0027653175903245447
vn 0.9654375159720703 -0.055753472312994184 -0.25460155749469177
vn 0.8205633349412578 -0.14921597133335757 0.5517340004468857
vn 0.961630343454948 -0.1710019533020455 0.21453534560441007
vn 1 0 0
vn 1 0 0
vn 0.9999965854223783 -0.0007985919874297634 0.002488251277820173
vn 1 0 0
vn 1 0 0
vn 1 0 0
vn 1 0 0
vn 0.9906423309094756 0.09548470852845159 0.0975214983861397
vn 0.9979720829739652 -0.014329577987344718 0.06201922927052539
vn 0.9911952771090548 0.020950193570054263 -0.13074024638986154
vn 0.9276546979093627 0.2063997664744167 0.31121680199821383
vn 0.8411411587258691 0.3134340183543694 -0.440727429638246
vn 0.9186376259175268 -0.03148090049977726 0.39384497604048896
vn 0.9275794404072967 -0.08558404490872466 0.3636918379490362
vn 0.2944993353036684 -0.953632544074039 0.06208955136392863
vn -1 0 0
vn -0.9415946849196318 -0.33156783472836665 -0.05884063480828655
vn -0.9546190060525158 -0.2944735044018736 0.04458596739543576
vn -0.9004275718676299 0.11342080278714424 -0.4199594138910144
vn -0.9758270587156898 0.20618395847712068 0.07245499806770472
vn -0.9140605328088949 0.3033865078054502 -0.2691653195393735
vn -0.9133630579242203 0.2666914589902944 0.3076419836773678
vn -0.7872011093459766 0.6071385415191384 -0.10815361689040828
vn -0.9504564965514809 -0.309930523952509 0.023989966352791322
vn -0.9189981240766576 -0.12048324056861587 0.37540143404849863
vn -0.8302028966332639 0.5554837899081453 0.04691385265592861
vn -0.923125116994149 -0.29281144335803433 -0.24920167939466945
vn -0.9154750783056517 0.20876649699659974 -0.34397954987619483
vn -0.9350503078134778 0.2419944189350861 0.25907455116662964
vn -0.5953272647758965 0.8004172976476663 -0.070125583354844
vn -0.9399459658173914 -0.14730026388297213 -0.307902928864956
vn -0.9989940260408654 -0.0296896715353145 -0.033607429815263906
vn -0.9970401128352421 -0.05090228137833906 -0.057619190795848055
vn -0.9819026232533153 0.11071430496198088 -0.1536540956988904
vn -0.8806707322631613 -0.19733245096116697 -0.43067268909547346
vn -0.31578344210187115 0.9403583750524542 -0.1265185526434846
vn -0.4253077968316072 0.7950690745993649 -0.43241004217056966
vn -0.8386551466673284 -0.4431616990310903 0.31664689084259035
vn -0.7525802308354235 0.2689225528632434 -0.6010853988554513
vn -0.3136925951912232 -0.07565629688727081 0.9465057213052125
vn -0.8015275380440501 -0.45536811976608776 -0.3875480373550379
vn -0.3179861253033231 0.9443443349218522 0.08425319706446775
vn -0.330662986901791 -0.418656297236975 0.84580665277415
vn -0.32269934884011603 -0.9440494355183826 0.06808666209756979
vn -0.8443659088854818 -0.5318723506410086 0.06448266849008526
vn -0.45194905455146467 0.882840603555252 -0.12780657574724277
vn -0.5140147372061679 0.6909138673974348 -0.5083570376937788
vn -0.8270678032820428 0.23180068069863238 0.5120813345571845
vn -0.7892180088232408 0.4562846098096785 -0.4110222492760081
vn -0.7483797088895067 -0.6420322088535142 0.16650061296324087
vn -0.8304114945038327 0.10817334503927906 -0.5465485131430918
vn -0.4563087861335875 -0.8833349777477632 -0.10724555368242926
vn -0.6563266676003472 0.40920777074201165 0.6338645799861173
vn -0.7468826974729601 0.38510142997707253 -0.5420914358714116
vn -0.2860443067788446 0.48966803618630983 -0.8236527599036217
vn -0.4803826998140753 -0.20090212442519767 0.8537393033712237
vn -0.9860150773177686 -0.1637395457406725 -0.03104236561013134
vn -0.9917606039768396 -0.10198861572139818 -0.07751920189686637
vn -0.8868899754695623 -0.26272081874027126 0.3800051878751672
vn -0.9867989496368391 -0.16194457434394083 0.0013370999180548012
vn -1 0 0
vn -0.9999954276564755 0.0003767782005952495 0.003000450687862583
vn -0.9999981048663785 -0.0014679363166142363 -0.0012788379967200803
vn -1 0 0
vn -1 0 0
vn -1 0 0
vn -0.9640885165906767 0.2621886219196162 -0.04231381232979571
vn -0.9906423309094756 0.09548470852845159 0.0975214983861397
vn -0.9975296685028412 -0.07023770264539005 0.001107060842732037
vn -0.9911952771090548 0.020950193570054263 -0.13074024638986154
vn -0.9360864637206641 0.24610031264325932 0.25134989269110863
vn -0.9456832980225138 0.11617889845982732 -0.30362075586811027
vn -0.7904251783618046 -0.1435197417865675 0.5955082880441099
vn -0.9034329493659542 -0.12060693026791927 0.41141569533901173
vn -0.3129927313432069 -0.9488958232876884 0.04040132019500594
vn 0.9932068903217662 0.07441922596670371 0.08945307051121153
vn 0.5914868195682438 0.5083243631804604 -0.6258991005539338
vn 0.2978060707047284 -0.19809088813253387 0.9338477093671507
vn 0.37032624201657277 0.8754126360943579 -0.3106625034345314
vn 0.7000121564123881 -0.5423001134510277 -0.46464348464804833
vn -0.12781301708307077 -0.7912016546661124 0.5980499764381977
vn 0.6447124182248265 -0.514695079084472 -0.5651856981142795
vn -0.9985581796714869 -0.034331170871264936 -0.04126660293475423
vn 0.2347023711831423 -0.860652607373904 -0.45187596349165504
vn -0.6732201107545452 0.6724250577595104 -0.30760237998552137
vn -0.33262556988565295 -0.4788290585096956 -0.8124548990466874
vn -0.3195964155757881 0.5243157855808497 0.7892725056289777
vn 0.22877360850208348 -0.9684028229408472 -0.09929052609959076
vn -0.2895581411899242 0.5438107297359437 0.787671234141946
vn -1 0 0
vn -0.9415946849196318 -0.33156783472836665 -0.05884063480828655
vn -0.9546190060525158 -0.2944735044018736 0.04458596739543576
vn -0.9004275718676299 0.11342080278714424 -0.4199594138910144
vn -0.9758270587156898 0.20618395847712068 0.07245499806770472
vn -0.9140605328088949 0.3033865078054502 -0.2691653195393735
vn -0.9133630579242203 0.2666914589902944 0.3076419836773678
vn -0.7872011093459766 0.6071385415191384 -0.10815361689040828
vn -0.9504564965514809 -0.309930523952509 0.023989966352791322
vn -0.9189981240766576 -0.12048324056861587 0.37540143404849863
vn -0.8302028966332639 0.5554837899081453 0.04691385265592861
vn -0.923125116994149 -0.29281144335803433 -0.24920167939466945
vn -0.9154750783056517 0.20876649699659974 -0.34397954987619483
vn -0.9350503078134778 0.2419944189350861 0.25907455116662964
vn -0.5953272647758965 0.8004172976476663 -0.070125583354844
vn -0.9399459658173914 -0.14730026388297213 -0.307902928864956
vn -0.9989940260408654 -0.0296896715353145 -0.033607429815263906
vn -0.997040112835242 -0.05090228137833917 -0.05761919079584818
vn -0.9819026232533153 0.11071430496198088 -0.1536540956988904
vn -0.8806707322631612 -0.19733245096116706 -0.43067268909547357
vn -0.31578344210187104 0.9403583750524542 -0.12651855264348463
vn -0.4253077968316072 0.7950690745993649 -0.43241004217056966
vn -0.8386551466673283 -0.4431616990310905 0.31664689084259046
vn -0.7601138932310384 0.2653444504685957 -0.5931434834192085
vn -0.31369259519122306 -0.07565629688727081 0.9465057213052127
vn -0.80152753804405 -0.4553681197660879 -0.387548037355038
vn -0.31798612530332293 0.9443443349218524 0.08425319706446777
vn -0.33066298690179086 -0.4186562972369749 0.8458066527741501
vn -0.3279566092130346 -0.9422453871979263 0.06795655066083643
vn -0.8443659088854818 -0.5318723506410086 0.06448266849008526
vn -0.4519490545514644 0.8828406035552521 -0.12780657574724277
vn -0.5140147372061679 0.6909138673974348 -0.5083570376937789
vn -0.8270678032820425 0.23180068069863233 0.5120813345571846
vn -0.7892180088232404 0.4562846098096786 -0.4110222492760081
vn -0.7483797088895064 -0.6420322088535144 0.16650061296324084
vn -0.8304114945038324 0.10817334503927896 -0.5465485131430919
vn -0.45630878613358733 -0.8833349777477633 -0.10724555368242925
vn -0.656326667600347 0.4092077707420117 0.6338645799861174
vn -0.7468826974729601 0.3851014299770724 -0.5420914358714117
vn -0.28604430677884446 0.48966803618630983 -0.8236527599036217
vn -0.4803826998140752 -0.20090212442519784 0.853739303371224
vn -0.9860150773177685 -0.16373954574067326 -0.031042365610130927
vn -0.9917606039768398 -0.10198861572139777 -0.07751920189686695
vn -0.886889975469562 -0.2627208187402713 0.38000518787516724
vn -0.9867989496368391 -0.16194457434394083 0.0013370999180548012
vn -1 0 0
vn -0.9999954276564755 0.0003767782005952495 0.003000450687862583
vn -0.9999981048663785 -0.0014679363166142363 -0.0012788379967200803
vn -1 0 0
vn -1 0 0
vn -1 0 0
vn -0.9640885165906767 0.2621886219196162 -0.04231381232979571
vn -0.9906423309094756 0.09548470852845159 0.0975214983861397
vn -0.9975296685028412 -0.07023770264539005 0.001107060842732037
vn -0.9911952771090548 0.020950193570054263 -0.13074024638986154
vn -0.9360864637206641 0.24610031264325932 0.25134989269110863
vn -0.9456832980225137 0.11617889845982751 -0.30362075586811077
vn -0.7904251783618046 -0.1435197417865675 0.5955082880441099
vn -0.9034329493659542 -0.12060693026791927 0.41141569533901173
vn -0.31820529298474637 -0.9471544853669795 0.04054346267530443
vn 1 0 0
vn 0.950789159331098 -0.30758000120268947 -0.03734323712022647
vn 0.953918840367821 -0.2963764604017621 0.04690244888099841
vn 0.9222368652361782 0.07506509120949684 -0.37926823816536137
vn 0.9812309449243225 -0.18001116390361196 -0.06915065865910619
vn 0.9145235809475118 0.30056676598055104 -0.27075124945036255
vn 0.9109796073095056 0.21736669854388743 0.3505251395126317
vn 0.731495016016215 0.6748122267433051 -0.09769083980179237
vn 0.9481332869930578 -0.31704953235655264 0.02286622243029007
vn 0.6859862328341335 -0.32277695887525937 0.6521026937387034
vn 0.8281411148221856 0.5583020317903284 0.04981099517033253
vn 0.923125116994149 -0.29281144335803433 -0.24920167939466945
vn 0.9496879735471112 0.12720237352137043 -0.2862032653037193
vn 0.9245636838951217 0.24368624984350548 0.29291467368414686
vn 0.7956118853291774 0.6003969162845346 -0.08077914854078215
vn 0.9373990024150014 -0.1450670575525175 -0.31660489428373456
vn 0.9973139213244819 -0.06901011060224743 0.024546832118440585
vn 0.9970401128352421 -0.05090228137833906 -0.057619190795848055
vn 0.9819026232533153 0.11071430496198088 -0.1536540956988904
vn 0.831020261963562 -0.026152064379172064 -0.5556270275416061
vn 0.4406791275808721 0.883565819280095 -0.1584719202712454
vn 0.4253077968316072 0.7950690745993649 -0.43241004217056966
vn 0.7615415741125863 -0.5502503612991053 0.34246017401783874
vn 0.7358849901588935 0.2886885206838405 -0.6124803827750086
vn 0.604068963825962 0.11133668813244105 0.7891164862160265
vn 0.801726599077264 -0.4746153865922699 -0.36328321615768966
vn 0.3344830474165423 0.9396964484379069 0.07135597931587394
vn 0.4326046245247396 -0.36656014748484045 0.8237031608023011
vn 0.2894781418475855 -0.9552101026726049 0.06144969605019074
vn 0.8443659088854818 -0.5318723506410086 0.06448266849008526
vn 0.296744592462341 0.953290911235901 -0.05638337875105356
vn 0.3630248835255635 0.7783244847554496 -0.5122732965628944
vn 0.8105459901100612 0.15559313540676745 0.564629058879183
vn 0.6767521133084601 0.6852362101812401 -0.26918007613674666
vn 0.8100995748893002 -0.5596186673576198 0.17483027743802523
vn 0.7542798969201853 0.24238355553119745 -0.6101737859906223
vn 0.4600108929413035 -0.8826664811515997 -0.09638392722231956
vn 0.7285609901575217 0.5409495637004631 0.4202052512201275
vn 0.7589004115313637 0.36919558605779446 -0.5364371208380051
vn -0.2762708384178403 0.6366390363509562 -0.7199758060060278
vn 0.40025321368555195 -0.2511474815329982 0.8813185051126637
vn 0.9453075472442914 -0.32616865904253634 0.002765317590324322
vn 0.9654375159720703 -0.055753472312994455 -0.254601557494692
vn 0.820563334941258 -0.1492159713333576 0.5517340004468855
vn 0.961630343454948 -0.1710019533020455 0.21453534560441007
vn 1 0 0
vn 1 0 0
vn 0.9999965854223783 -0.0007985919874297634 0.002488251277820173
vn 1 0 0
vn 1 0 0
vn 1 0 0
vn 1 0 0
vn 0.9906423309094756 0.09548470852845159 0.0975214983861397
vn 0.9979720829739652 -0.014329577987344718 0.06201922927052539
vn 0.9911952771090548 0.020950193570054263 -0.13074024638986154
vn 0.9276546979093627 0.2063997664744167 0.31121680199821383
vn 0.8411411587258694 0.31343401835436946 -0.4407274296382457
vn 0.9186376259175268 -0.03148090049977726 0.39384497604048896
vn 0.9275794404072967 -0.08558404490872466 0.3636918379490362
vn 0.29896428119655716 -0.9527697033275419 0.05338774194301669
vn -0.6480456122972078 0.1353339024015755 0.7494808998520897
vn -0.5914868195682438 0.5083243631804604 -0.6258991005539338
vn -0.2978060707047284 -0.19809088813253387 0.9338477093671507
vn -0.19005147988459015 0.2908742920434584 -0.9376953562974994
vn -0.6446330877093477 -0.5148141878622715 -0.5651677044966584
vn 0.1278147141905645 -0.7911759457019862 0.5980836244029358
vn 0.22449081564524223 -0.7805751739045276 0.5833577560767067
vn 0.9985581796714869 -0.034331170871264936 -0.04126660293475423
vn -0.22878430130830016 -0.9684015515256928 -0.09927828804680229
vn -0.20699810509501243 0.21414532284579613 -0.9546169730265348
vn -0.191415158843938 -0.7874077572412533 -0.5859601187803222
vn 0.2895999038054254 0.5039212097071459 0.8137538387763065
vn -0.22877360850208348 -0.9684028229408472 -0.09929052609959076
vn 0.319575234986385 0.5243171478841263 0.7892801768814748
usemtl m_6f2e6ff0-5ecd-77c9-b80c-c80ff79ab4ac
f 1/1/1 2/2/1 3/3/1 4/4/1
f 5/5/2 6/6/2 7/7/2 1/8/2
f 8/9/3 4/10/3 9/11/3 10/12/3
f 11/13/4 12/14/4 13/15/4 14/16/4
f 15/17/5 16/18/5 17/19/5 18/20/5
f 19/21/6 20/22/6 21/23/6 22/24/6
f 23/25/7 24/26/7 15/27/7 18/28/7
f 25/29/8 26/30/8 27/31/8 3/32/8
f 8/33/9 5/34/9 1/35/9 4/36/9
f 28/37/10 29/38/10 2/39/10 30/40/10
f 26/41/11 31/42/11 32/43/11 27/44/11
f 6/45/12 33/46/12 7/47/12
f 12/48/13 34/49/13 35/50/13 13/51/13
f 20/52/14 36/53/14 37/54/14 21/55/14
f 29/56/15 25/57/15 3/58/15 2/59/15
f 33/60/16 11/61/16 14/62/16 7/63/16
f 38/64/17 39/65/17 40/66/17 41/67/17
f 41/68/18 40/69/18 42/70/18
f 38/71/19 41/72/19 10/73/19
f 43/74/20 44/75/20 11/76/20 33/77/20
f 45/78/21 46/79/21 25/80/21 29/81/21
f 47/82/22 48/83/22 42/84/22
f 49/85/23 50/86/23 40/87/23 39/88/23
f 51/89/24 52/90/24 34/91/24 12/92/24
f 53/93/25 54/94/25 55/95/25 36/96/25
f 56/97/26 43/98/26 33/99/26 6/100/26
f 57/101/27 58/102/27 31/103/27 26/104/27
f 59/105/28 45/106/28 29/107/28 28/108/28
f 60/109/29 61/110/29 5/111/29 8/112/29
f 62/113/30 47/114/30 42/115/30
f 46/116/31 57/117/31 26/118/31 25/119/31
f 48/120/32 63/121/32 41/122/32 42/123/32
f 64/124/33 65/125/33 24/126/33 23/127/33
f 66/128/34 67/129/34 20/130/34 19/131/34
f 50/132/35 62/133/35 42/134/35 40/135/35
f 44/136/36 51/137/36 12/138/36 11/139/36
f 61/140/37 56/141/37 6/142/37 5/143/37
f 58/144/38 64/145/38 23/146/38 31/147/38
f 52/148/39 66/149/39 19/150/39 34/151/39
f 63/152/40 68/153/40 10/154/40 41/155/40
f 54/156/41 59/157/41 28/158/41 55/159/41
f 16/160/42 10/161/42 9/162/42 17/163/42
f 38/164/43 10/165/43 16/166/43 15/167/43
f 24/168/44 65/169/44 49/170/44 39/171/44
f 15/172/45 24/173/45 39/174/45 38/175/45
f 37/176/46 69/177/46 22/178/46 21/179/46
f 22/180/47 69/181/47 30/182/47 35/183/47
f 35/184/48 30/185/48 2/186/48 13/187/48
f 13/188/49 2/189/49 14/190/49
f 14/191/50 2/192/50 1/193/50 7/194/50
f 3/195/51 27/196/51 70/197/51
f 70/198/52 27/199/52 32/200/52 17/201/52
f 17/202/53 32/203/53 18/204/53
f 9/205/54 4/206/54 3/207/54 70/208/54
f 70/209/55 17/210/55 9/211/55
f 31/212/56 23/213/56 18/214/56 32/215/56
f 34/216/57 19/217/57 22/218/57 35/219/57
f 36/220/58 55/221/58 69/222/58 37/223/58
f 55/224/59 28/225/59 30/226/59 69/227/59
f 10/228/60 68/229/60 60/230/60 8/231/60
f 71/232/61 72/233/61 73/234/61 74/235/61
f 75/236/62 71/237/62 76/238/62 77/239/62
f 78/240/63 79/241/63 80/242/63 72/243/63
f 81/244/64 82/245/64 83/246/64 84/247/64
f 85/248/65 86/249/65 87/250/65 88/251/65
f 89/252/66 90/253/66 91/254/66 92/255/66
f 93/256/67 86/257/67 85/258/67 94/259/67
f 95/260/68 73/261/68 96/262/68 97/263/68
f 78/264/69 72/265/69 71/266/69 75/267/69
f 98/268/70 99/269/70 74/270/70 100/271/70
f 97/272/71 96/273/71 101/274/71 102/275/71
f 77/276/72 76/277/72 103/278/72
f 84/279/73 83/280/73 104/281/73 105/282/73
f 92/283/74 91/284/74 106/285/74 107/286/74
f 100/287/75 74/288/75 73/289/75 95/290/75
f 103/291/76 76/292/76 82/293/76 81/294/76
f 108/295/77 109/296/77 110/297/77 111/298/77
f 109/299/78 112/300/78 110/301/78
f 108/302/79 79/303/79 109/304/79
f 43/305/80 103/306/80 81/307/80 44/308/80
f 45/309/81 100/310/81 95/311/81 46/312/81
f 47/313/82 112/314/82 48/315/82
f 49/316/83 111/317/83 110/318/83 50/319/83
f 51/320/84 84/321/84 105/322/84 52/323/84
f 53/324/85 107/325/85 113/326/85 54/327/85
f 56/328/86 77/329/86 103/330/86 43/331/86
f 57/332/87 97/333/87 102/334/87 58/335/87
f 59/336/88 98/337/88 100/338/88 45/339/88
f 60/340/89 78/341/89 75/342/89 61/343/89
f 62/344/90 112/345/90 47/346/90
f 46/347/91 95/348/91 97/349/91 57/350/91
f 48/351/92 112/352/92 109/353/92 63/354/92
f 64/355/93 93/356/93 94/357/93 65/358/93
f 66/359/94 89/360/94 92/361/94 67/362/94
f 50/363/95 110/364/95 112/365/95 62/366/95
f 44/367/96 81/368/96 84/369/96 51/370/96
f 61/371/97 75/372/97 77/373/97 56/374/97
f 58/375/98 102/376/98 93/377/98 64/378/98
f 52/379/99 105/380/99 89/381/99 66/382/99
f 63/383/100 109/384/100 79/385/100 68/386/100
f 54/387/101 113/388/101 98/389/101 59/390/101
f 88/391/102 87/392/102 80/393/102 79/394/102
f 108/395/103 85/396/103 88/397/103 79/398/103
f 94/399/104 111/400/104 49/401/104 65/402/104
f 85/403/105 108/404/105 111/405/105 94/406/105
f 106/407/106 91/408/106 90/409/106 114/410/106
f 90/411/107 104/412/107 99/413/107 114/414/107
f 104/415/108 83/416/108 74/417/108 99/418/108
f 83/419/109 82/420/109 74/421/109
f 82/422/110 76/423/110 71/424/110 74/425/110
f 73/426/111 115/427/111 96/428/111
f 115/429/112 87/430/112 101/431/112 96/432/112
f 87/433/113 86/434/113 101/435/113
f 80/436/114 115/437/114 73/438/114 72/439/114
f 115/440/115 80/441/115 87/442/115
f 102/443/116 101/444/116 86/445/116 93/446/116
f 105/447/117 104/448/117 90/449/117 89/450/117
f 107/451/118 106/452/118 114/453/118 113/454/118
f 113/455/119 114/456/119 99/457/119 98/458/119
f 79/459/120 78/460/120 60/461/120 68/462/120
f 36/463/121 20/464/121 116/465/121 117/466/121
f 67/467/122 116/468/122 20/469/122
f 36/470/123 117/471/123 53/472/123
f 116/473/124 67/474/124 118/475/124 119/476/124
f 117/477/125 116/478/125 119/479/125 120/480/125
f 53/481/126 121/482/126 122/483/126 107/484/126
f 53/485/127 117/486/127 120/487/127 121/488/127
f 107/489/128 122/490/128 92/491/128
f 123/492/129 122/493/129 121/494/129 124/495/129
f 118/496/130 67/497/130 92/498/130 125/499/130
f 123/500/131 125/501/131 92/502/131 122/503/131
f 123/504/132 124/505/132 118/506/132 125/507/132
f 124/508/133 121/509/133 120/510/133
f 120/511/134 119/512/134 118/513/134 124/514/134
f 126/515/135 127/516/135 128/517/135 129/518/135
f 130/519/136 126/520/136 131/521/136 132/522/136
f 133/523/137 134/524/137 135/525/137 127/526/137
f 136/527/138 137/528/138 138/529/138 139/530/138
f 140/531/139 141/532/139 142/533/139 143/534/139
f 144/535/140 145/536/140 146/537/140 147/538/140
f 148/539/141 141/540/141 140/541/141 149/542/141
f 150/543/142 128/544/142 151/545/142 152/546/142
f 133/547/143 127/548/143 126/549/143 130/550/143
f 153/551/144 154/552/144 129/553/144 155/554/144
f 152/555/145 151/556/145 156/557/145 157/558/145
f 132/559/146 131/560/146 158/561/146
f 139/562/147 138/563/147 159/564/147 160/565/147
f 147/566/148 146/567/148 161/568/148 162/569/148
f 155/570/149 129/571/149 128/572/149 150/573/149
f 158/574/150 131/575/150 137/576/150 136/577/150
f 163/578/151 164/579/151 165/580/151 166/581/151
f 164/582/152 167/583/152 165/584/152
f 163/585/153 134/586/153 164/587/153
f 168/588/154 158/589/154 136/590/154 169/591/154
f 170/592/155 155/593/155 150/594/155 171/595/155
f 172/596/156 167/597/156 173/598/156
f 174/599/157 166/600/157 165/601/157 175/602/157
f 176/603/158 139/604/158 160/605/158 177/606/158
f 178/607/159 162/608/159 179/609/159 180/610/159
f 181/611/160 132/612/160 158/613/160 168/614/160
f 182/615/161 152/616/161 157/617/161 183/618/161
f 184/619/162 153/620/162 155/621/162 170/622/162
f 185/623/163 133/624/163 130/625/163 186/626/163
f 187/627/164 167/628/164 172/629/164
f 171/630/165 150/631/165 152/632/165 182/633/165
f 173/634/166 167/635/166 164/636/166 188/637/166
f 189/638/167 148/639/167 149/640/167 190/641/167
f 191/642/168 144/643/168 147/644/168 192/645/168
f 175/646/169 165/647/169 167/648/169 187/649/169
f 169/650/170 136/651/170 139/652/170 176/653/170
f 186/654/171 130/655/171 132/656/171 181/657/171
f 183/658/172 157/659/172 148/660/172 189/661/172
f 177/662/173 160/663/173 144/664/173 191/665/173
f 188/666/174 164/667/174 134/668/174 193/669/174
f 180/670/175 179/671/175 153/672/175 184/673/175
f 143/674/176 142/675/176 135/676/176 134/677/176
f 163/678/177 140/679/177 143/680/177 134/681/177
f 149/682/178 166/683/178 174/684/178 190/685/178
f 140/686/179 163/687/179 166/688/179 149/689/179
f 161/690/180 146/691/180 145/692/180 194/693/180
f 145/694/181 159/695/181 154/696/181 194/697/181
f 159/698/182 138/699/182 129/700/182 154/701/182
f 138/702/183 137/703/183 129/704/183
f 137/705/184 131/706/184 126/707/184 129/708/184
f 128/709/185 195/710/185 151/711/185
f 195/712/186 142/713/186 156/714/186 151/715/186
f 142/716/187 141/717/187 156/718/187
f 135/719/188 195/720/188 128/721/188 127/722/188
f 195/723/189 135/724/189 142/725/189
f 157/726/190 156/727/190 141/728/190 148/729/190
f 160/730/191 159/731/191 145/732/191 144/733/191
f 162/734/192 161/735/192 194/736/192 179/737/192
f 179/738/193 194/739/193 154/740/193 153/741/193
f 134/742/194 133/743/194 185/744/194 193/745/194
f 196/746/195 197/747/195 198/748/195 199/749/195
f 200/750/196 201/751/196 202/752/196 196/753/196
f 203/754/197 199/755/197 204/756/197 205/757/197
f 206/758/198 207/759/198 208/760/198 209/761/198
f 210/762/199 211/763/199 212/764/199 213/765/199
f 214/766/200 215/767/200 216/768/200 217/769/200
f 218/770/201 219/771/201 210/772/201 213/773/201
f 220/774/202 221/775/202 222/776/202 198/777/202
f 203/778/203 200/779/203 196/780/203 199/781/203
f 223/782/204 224/783/204 197/784/204 225/785/204
f 221/786/205 226/787/205 227/788/205 222/789/205
f 201/790/206 228/791/206 202/792/206
f 207/793/207 229/794/207 230/795/207 208/796/207
f 215/797/208 231/798/208 232/799/208 216/800/208
f 224/801/209 220/802/209 198/803/209 197/804/209
f 228/805/210 206/806/210 209/807/210 202/808/210
f 233/809/211 234/810/211 235/811/211 236/812/211
f 236/813/212 235/814/212 237/815/212
f 233/816/213 236/817/213 205/818/213
f 168/819/214 169/820/214 206/821/214 228/822/214
f 170/823/215 171/824/215 220/825/215 224/826/215
f 172/827/216 173/828/216 237/829/216
f 174/830/217 175/831/217 235/832/217 234/833/217
f 176/834/218 177/835/218 229/836/218 207/837/218
f 178/838/219 180/839/219 238/840/219 231/841/219
f 181/842/220 168/843/220 228/844/220 201/845/220
f 182/846/221 183/847/221 226/848/221 221/849/221
f 184/850/222 170/851/222 224/852/222 223/853/222
f 185/854/223 186/855/223 200/856/223 203/857/223
f 187/858/224 172/859/224 237/860/224
f 171/861/225 182/862/225 221/863/225 220/864/225
f 173/865/226 188/866/226 236/867/226 237/868/226
f 189/869/227 190/870/227 219/871/227 218/872/227
f 191/873/228 192/874/228 215/875/228 214/876/228
f 175/877/229 187/878/229 237/879/229 235/880/229
f 169/881/230 176/882/230 207/883/230 206/884/230
f 186/885/231 181/886/231 201/887/231 200/888/231
f 183/889/232 189/890/232 218/891/232 226/892/232
f 177/893/233 191/894/233 214/895/233 229/896/233
f 188/897/234 193/898/234 205/899/234 236/900/234
f 180/901/235 184/902/235 223/903/235 238/904/235
f 211/905/236 205/906/236 204/907/236 212/908/236
f 233/909/237 205/910/237 211/911/237 210/912/237
f 219/913/238 190/914/238 174/915/238 234/916/238
f 210/917/239 219/918/239 234/919/239 233/920/239
f 232/921/240 239/922/240 217/923/240 216/924/240
f 217/925/241 239/926/241 225/927/241 230/928/241
f 230/929/242 225/930/242 197/931/242 208/932/242
f 208/933/243 197/934/243 209/935/243
f 209/936/244 197/937/244 196/938/244 202/939/244
f 198/940/245 222/941/245 240/942/245
f 240/943/246 222/944/246 227/945/246 212/946/246
f 212/947/247 227/948/247 213/949/247
f 204/950/248 199/951/248 198/952/248 240/953/248
f 240/954/249 212/955/249 204/956/249
f 226/957/250 218/958/250 213/959/250 227/960/250
f 229/961/251 214/962/251 217/963/251 230/964/251
f 231/965/252 238/966/252 239/967/252 232/968/252
f 238/969/253 223/970/253 225/971/253 239/972/253
f 205/973/254 193/974/254 185/975/254 203/976/254
f 162/977/255 241/978/255 242/979/255 147/980/255
f 192/981/256 147/982/256 242/983/256
f 162/984/257 178/985/257 241/986/257
f 242/987/258 243/988/258 244/989/258 192/990/258
f 241/991/259 245/992/259 243/993/259 242/994/259
f 178/995/260 231/996/260 246/997/260 247/998/260
f 178/999/261 247/1000/261 245/1001/261 241/1002/261
f 231/1003/262 215/1004/262 246/1005/262
f 248/1006/263 249/1007/263 247/1008/263 246/1009/263
f 244/1010/264 250/1011/264 215/1012/264 192/1013/264
f 248/1014/265 246/1015/265 215/1016/265 250/1017/265
f 248/1018/266 250/1019/266 244/1020/266 249/1021/266
f 249/1022/267 245/1023/267 247/1024/267
f 245/1025/268 249/1026/268 244/1027/268 243/1028/268