# Made in Blockbench 5.1.4
mtllib Mo_Twolf_DarkHead.mtl

o DarkHead
v 2.521634 3.389374 6.152162
v 2.773242 3.014094 6.587959
v 3.119754 3.014557999999999 6.280623
v 2.969022 3.3483719999999995 5.850788
v 2.112812 1.8274280000000003 5.444062
v 1.9554355 1.4550239999999999 5.1714780000000005
v 2.111976 1.4550239999999999 5.081099
v 2.329113 1.871639 5.339759
v 3.292241 2.6783680000000007 7.486893
v 3.01754 1.897659 7.011096
v 3.322336 1.9286630000000002 6.860546
v 3.669719 2.6873310000000004 7.275414
v 2.998133 1.9749660000000002 6.516262
v 3.221978 1.9749660000000002 6.606733
v 3.14852 2.7411630000000002 7.237962
v 3.476009 2.7717840000000002 7.02518
v 2.329483 4.3671310000000005 5.819346
v 2.467528 4.029553 6.058448
v 2.522483 4.3671310000000005 5.707917
v 2.296187 1.8871320000000003 5.761677
v 1.155594 3.569027 3.525975
v 1.546757 4.2767219999999995 4.017909
v 1.697605 3.5314999999999994 3.760252
v 1.637787 3.269494999999999 3.372304
v 1.844422 4.640060999999999 4.53348
v 2.211173 4.631532999999999 5.168711
v 2.453865 4.537737 5.073528
v 2.17211 4.523028999999999 4.461182
v 0.190824 4.227029999999999 2.115082
v 0.379173 4.224382 2.007065
v 0.212657 3.6955550000000006 1.76058
v 1.57036 5.819236999999999 4.504508
v 1.93452 5.615477 5.135252
v 2.104328 5.613866 5.018813
v 1.763361 5.819236999999999 4.393079
v 0.53857 4.811152 2.7173955000000003
v 0.729485 4.813834999999999 2.61259
v 0.445589 4.354747 2.144863
v 1.023064 -0.47474599999999967 2.643953
v 0.686239 2.6776079999999993 2.060556
v 1.053661 2.382244 1.936969
v 1.306609 0.16095300000000012 2.375088
v 2.112624 1.1706370000000001 4.194745
v 1.921692 0.4618039999999999 3.864042
v 2.210054 0.8850600000000002 3.603518
v 2.407717 1.328487 3.985643
v 2.996544 3.9134200000000003 5.795507
v 3.482072 3.301786 5.409499
v 3.212496 3.774546000000001 5.600503
v 3.044412 3.405329 4.794223
v 2.896744 3.181865 4.765608
v 3.039531 3.2360070000000007 4.642995
v 3.126894 3.3248599999999993 4.794312
v 0.7026335 -0.8805550000000002 3.0015609999999997
v 0.294139 2.9904849999999996 2.307054
v 0.45448 2.9211600000000004 2.195625
v 0.843421 -0.8029770000000003 2.850319
v 1.960099 2.950303999999999 3.461628
v 2.181173 3.2467500000000005 3.844541
v 2.37408 2.850887 3.87957
v 2.272214 2.4673219999999993 3.440678
v 1.886721 2.7656779999999994 3.043489
v 2.137181 2.1995229999999992 2.915748
v 1.344034 1.8841840000000003 1.878359
v 1.384074 1.001805 1.94771
v 2.312753 1.4542989999999998 3.219848
v 2.378814 1.759576 4.655799
v 2.481656 2.104952000000001 4.364992
v 1.482787 3.008813 3.103836
v 2.398561 1.830063 3.659517
v 2.664206 2.379707 4.088878
v 3.588954 2.496746 6.852887
v 3.516142 2.548641 6.610586
v 2.34616 4.460868 4.422781
v 2.437962 4.286448999999999 4.305826
v 2.704132 4.730081 4.19027
v 2.751934 4.849743999999999 4.288584
v 3.016164 2.019703 5.868552
v 2.853711 2.012116 5.454245
v 3.393848 2.4744530000000005 5.256691
v 3.268713 2.3613040000000005 5.601431
v 3.216943 2.9173349999999996 5.093057
v 3.167078 3.1453810000000004 5.233842
v 3.36074 3.1275569999999995 5.199345
v 3.266672 2.850436 5.036415
v 2.672388 4.453282 4.987823
v 2.847515 4.2953589999999995 5.056224
v 3.310376 1.9749660000000002 6.38223
v 3.494465 2.167223 6.659245
v 3.389016 2.7181599999999992 6.283302
v 2.789559 2.456353 4.210032
v 3.044506 2.2345699999999997 4.651613
v 2.54353 1.8956609999999996 6.190088
v 3.09054 2.8886450000000004 4.731347
v 2.711578 3.860486 4.074964
v 3.1895 2.3183430000000005 4.90275
v 3.392991 3.2350709999999996 5.255206
v 3.42521 3.5896349999999995 5.311011
v 2.756571 1.9590100000000001 5.133634
v 3.044412 2.9173349999999996 4.794223
v 3.216944 3.405329 5.093057
v 3.313845 3.2850140000000003 5.118121
v 2.949301 4.218095 5.467452
v 3.289018 4.000102999999999 5.07512
v 3.095619 2.8425340000000006 4.963881
v 2.140584 4.137675 4.066712
v 2.898995 4.089254 4.399581
v 2.646683 3.010865000000001 3.962563
v 3.264236 2.293951 5.839314
v 3.253997 3.0170209999999997 5.747624
v 3.395091 2.1802080000000004 6.293825
v 0.887367 3.253451 3.06325
v 0.9464155 5.497407000000001 3.4238049999999998
v 1.328853 4.379353 4.078302
v 1.14833 5.511328000000001 3.33389
v 1.0667385 3.6796869999999995 3.632211
v 1.4718084999999999 5.878378 4.3338114999999995
v 1.586657 4.7770399999999995 4.545214
v 1.648131 5.865705 4.243416
v 2.225911 5.424568000000001 5.194238
v 1.1255545 5.650751 3.7340815000000003
v 1.316826 5.650751 3.623651
v 0.6745055 5.041854000000001 2.9528425
v 0.866075 5.041854000000001 2.84224
v 2.0329095 5.424568000000001 5.305667
v 1.803694 1.1558900000000003 4.485127
v 2.065919 1.694375 4.939315
v 2.099906 1.370793 4.998181
v 1.981481 0.6526399999999999 4.831639
v 1.585351 0.2425329999999999 4.106946
v 1.718796 -0.6797690000000003 4.339682
v 0.982518 -1.4006429999999996 3.085063
v 1.775931 -0.5543579999999997 4.484098
v 1.995981 0.031203999999999787 4.818178
v 1.985084 0.4632240000000003 4.799304
v 1.812588 0.031203999999999787 4.924059
v 1.6129145 -0.5543579999999997 4.5782155
v 0.808156 -1.4006429999999996 3.190945
v 3.07057 3.1613310000000006 4.6966
v 3.063772 3.0292820000000003 4.721971
v 3.063772 3.2933819999999994 4.721971
v 3.192568 3.405329 4.907907
v 3.257347 3.2933819999999994 4.870507
v 3.257347 3.0292820000000003 4.870507
v 3.192568 2.9173349999999996 4.907907
v 3.280095 3.1613310000000006 4.857374
v 3.289196 3.0292820000000003 5.112417
v 3.289196 3.2933819999999994 5.112417
v 3.314567 3.1613310000000006 5.119215
v 3.216947 5.158638 4.194152
v 3.083905 5.1765419999999995 4.239074
v 3.129912 4.083885 4.79954
v 2.98828 4.730385 4.723459
v 3.107765 4.841442000000001 4.904901
v 2.589797 4.85187 4.347619
v 2.617498 4.838692999999999 4.055735
v 2.933603 4.849484 4.603244
v 3.257474 5.1683699999999995 4.42897
v 2.758483 4.852372000000001 4.764125
v 3.065898 5.202028 4.410148
v 2.961189 5.178796999999999 4.255656
v 3.015057 5.165621 4.009091
v 3.279798 5.2963629999999995 4.114474
v 0.748443 3.255337000000001 3.080906
v 1.91368 1.3525 5.099156
v 1.8147925 0.6526399999999999 4.9278770000000005
v 1.802153 0.44492699999999985 4.905985
v 1.5366035 -0.6792660000000001 4.446040999999999
v 1.6434335 1.1213090000000001 4.6310745
v 1.4103080000000001 0.2411260000000004 4.2272894999999995
v 3.032335 1.7933269999999997 6.499752
v 3.204839 1.7933269999999997 6.569473
v 3.058522 1.9749660000000002 6.27189
v 3.078873 1.7933269999999997 6.311428
v 3.084233 1.5475539999999999 6.274445
v 3.05585 1.5475539999999999 6.389304
v 3.272963 1.7933269999999997 6.396461
v 3.202609 1.5475539999999999 6.326306
v 3.16106 1.5475539999999999 6.431827
v 3.055996 1.4250150000000001 6.202806
v 3.065707 1.4250150000000001 6.178143
v 3.031406 1.4250150000000001 6.192867
v 3.03804 1.4250150000000001 6.166022
v 3.248867 3.3248599999999993 4.72389
v 3.435818 3.2850140000000003 5.0477
v 3.047748 3.3345339999999997 4.657227
v 3.316929 3.5049779999999995 5.123462
v 3.129977 3.544824 4.799653
v 2.036942 3.3483719999999995 6.388925
v 2.333824 3.014557999999999 6.73438
v 1.914333 1.871639 5.579233
v 1.798894 1.4550239999999999 5.261857
v 2.920356 2.6873310000000004 7.708059
v 2.734761 1.9286630000000002 7.199783
v 2.565131 1.9749660000000002 6.985963
v 2.598703 1.9749660000000002 6.746872
v 2.800501 2.7717840000000002 7.415184
v 2.136481 4.3671310000000005 5.930776
v 0.930309 3.569027 3.656043
v 0.556129 3.269494999999999 3.9968
v 0.862193 3.5314999999999994 4.242577
v 1.160755 4.2767219999999995 4.240767
v 1.45842 4.640060999999999 4.756338
v 1.231964 4.523028999999999 5.003975
v 1.621393 4.537737 5.554155
v 1.82517 4.631532999999999 5.391569
v 0.0467625 3.6955550000000006 1.8655599999999999
v -0.1271 3.6955550000000006 1.956738
v 0.003104 4.224382 2.224188
v 1.377359 5.819236999999999 4.615937
v 1.748778 5.613866 5.22409
v 0.089233 4.354747 2.350605
v 0.352349 4.813834999999999 2.830329
v 0.23272 -0.47474599999999967 3.100258
v -0.141897 0.16095300000000012 3.211383
v -0.394845 2.382244 2.773264
v -0.104104 2.6776079999999993 2.516861
v 1.030965 1.1706370000000001 4.819241
v 0.702331 1.328487 4.970248
v 0.470233 0.8850600000000002 4.608005
v 0.840034 0.4618039999999999 4.488538
v 1.975306 3.9134200000000003 6.385119
v 1.698452 3.774546000000001 6.474638
v 1.39825 3.301786 6.612595
v 1.084235 3.405329 5.925932
v 1.043071 3.3248599999999993 5.997407
v 0.955708 3.2360070000000007 5.846091
v 1.133288 3.181865 5.78374
v 0.50126 -0.8029770000000003 3.047866
v 0.128749 2.9211600000000004 2.383686
v 0.305419 2.9904849999999996 2.300541
v 0.47233 2.950303999999999 4.320592
v 0.298129 2.4673219999999993 4.580416
v 0.627287 2.850887 4.888081
v 0.693405 3.2467500000000005 4.703504
v -0.590789 1.8841840000000003 2.99543
v -0.088957 2.1995229999999992 4.201009
v 0.1469 2.7656779999999994 4.047975
v 0.086615 1.4542989999999998 4.50511
v -0.550749 1.001805 3.06478
v 1.297155 1.759576 5.280295
v 0.993887 2.104952000000001 5.223956
v 0.401129 3.008813 3.728332
v 0.424476 1.830063 4.799255
v 0.663491 2.379707 5.24399
v 2.421386 2.548641 7.242644
v 2.594819 2.496746 7.426851
v 1.111682 4.460868 5.135507
v 0.792577 4.849743999999999 5.419819
v 0.731336 4.730081 5.329264
v 0.964496 4.286448999999999 5.156532
v 2.028754 2.019703 6.438633
v 1.671146 2.3613040000000005 6.523787
v 1.310025 2.4744530000000005 6.459786
v 1.751181 2.012116 6.090791
v 1.256766 2.9173349999999996 6.224766
v 1.182849 2.850436 6.239511
v 1.276917 3.1275569999999995 6.402441
v 1.403623 3.1453810000000004 6.251974
v 1.409583 4.2953589999999995 5.886415
v 1.43791 4.453282 5.70055
v 2.474364 2.167223 7.2482
v 2.326507 1.9749660000000002 6.950267
v 2.201514 2.7181599999999992 6.968907
v 0.705737 2.456353 5.413128
v 0.960683 2.2345699999999997 5.854708
v 1.006718 2.8886450000000004 5.934442
v 0.627755 3.860486 5.278059
v 1.105677 2.3183430000000005 6.105845
v 1.341387 3.5896349999999995 6.514106
v 1.309168 3.2350709999999996 6.458301
v 1.522093 1.9590100000000001 5.84636
v 1.084235 2.9173349999999996 5.925932
v 1.230022 3.2850140000000003 6.321217
v 1.256767 3.405329 6.224766
v 1.714823 4.218095 6.180178
v 1.205196 4.000102999999999 6.278216
v 1.205559 2.8425340000000006 6.055108
v 0.906106 4.137675 4.779438
v 0.815173 4.089254 5.602676
v 0.56286 3.010865000000001 5.165658
v 1.879398 2.293951 6.63885
v 2.207589 2.1802080000000004 6.97943
v 1.805112 3.0170209999999997 6.584139
v 0.663691 3.253451 3.19239
v 0.76759 5.511328000000001 3.55371
v 1.322009 4.379353 4.082253
v 1.9737369999999999 4.7228270000000006 5.203177
v 1.305363 5.865705 4.441314
v 1.597463 4.7770399999999995 4.538975
v 1.839909 5.424568000000001 5.417097
v 0.934283 5.650751 3.844512
v 0.482936 5.041854000000001 3.063446
v 1.436909 1.1558900000000003 4.69689
v 1.648103 0.6526399999999999 5.024115
v 1.733121 1.370793 5.209945
v 1.699134 1.694375 5.151078
v 0.635005 -1.4006429999999996 3.2857
v 1.353398 -0.6797690000000003 4.550644
v 1.218565 0.2425329999999999 4.318709
v 1.449899 -0.5543579999999997 4.672332
v 1.629195 0.031203999999999787 5.029941
v 1.618299 0.4632240000000003 5.011067
v 1.011983 3.0292820000000003 5.906572
v 0.986612 3.1613310000000006 5.899774
v 1.011983 3.2933819999999994 5.906572
v 1.043831 3.2933819999999994 6.148481
v 1.10861 3.405329 6.111081
v 1.10861 2.9173349999999996 6.111081
v 1.043831 3.0292820000000003 6.148481
v 1.021084 3.1613310000000006 6.161614
v 1.237407 3.0292820000000003 6.297018
v 1.230609 3.1613310000000006 6.322388
v 1.237407 3.2933819999999994 6.297018
v 0.583715 5.1765419999999995 5.682559
v 0.478291 5.158638 5.775316
v 1.046089 4.083885 6.002635
v 1.148408 4.841442000000001 6.036136
v 1.051018 4.730385 5.841938
v 0.658142 4.838692999999999 5.18697
v 0.924772 4.85187 5.308921
v 0.974246 4.849484 5.734479
v 0.661386 5.1683699999999995 5.927823
v 1.201133 4.852372000000001 5.663261
v 0.740873 5.202028 5.752502
v 0.659433 5.178796999999999 5.584575
v 0.418968 5.165621 5.507944
v 0.377862 5.2963629999999995 5.789907
v 1.8954285 1.6541360000000003 5.067543499999999
v 2.541433 1.7933269999999997 6.952491
v 2.567305 1.7933269999999997 6.768237
v 2.356877 1.9749660000000002 6.676985
v 2.459896 1.5475539999999999 6.733378
v 2.346234 1.5475539999999999 6.70053
v 2.380943 1.7933269999999997 6.714378
v 2.357538 1.7933269999999997 6.924982
v 2.331959 1.5475539999999999 6.828976
v 2.272097 1.4250150000000001 6.636334
v 2.298311 1.4250150000000001 6.640256
v 2.444117 1.5475539999999999 6.845755
v 2.275433 1.4250150000000001 6.606313
v 2.301999 1.4250150000000001 6.61399
v 1.108049 3.2850140000000003 6.391638
v 0.921098 3.3248599999999993 6.067828
v 0.963925 3.3345339999999997 5.860322
v 1.046154 3.544824 6.002748
v 1.233106 3.5049779999999995 6.326558
v 0.26741099999999995 4.354747 2.2477340000000003
v 0.813882 -1.4006429999999996 3.187639
vt 0.140625 0.875
vt 0.140625 0.875
vt 0.140625 0.875
vt 0.140625 0.875
vt 0.375 0.84375
vt 0.375 0.84375
vt 0.375 0.84375
vt 0.375 0.84375
vt 0.140625 0.875
vt 0.140625 0.875
vt 0.140625 0.875
vt 0.140625 0.875
vt 0.140625 0.875
vt 0.140625 0.875
vt 0.140625 0.875
vt 0.140625 0.875
vt 0.140625 0.875
vt 0.140625 0.875
vt 0.140625 0.875
vt 0.140625 0.875
vt 0.375 0.84375
vt 0.375 0.84375
vt 0.375 0.84375
vt 0.140625 0.875
vt 0.140625 0.875
vt 0.140625 0.875
vt 0.140625 0.875
vt 0.140625 0.875
vt 0.140625 0.875
vt 0.140625 0.875
vt 0.140625 0.875
vt 0.140625 0.875
vt 0.140625 0.875
vt 0.140625 0.875
vt 0.375 0.84375
vt 0.375 0.84375
vt 0.375 0.84375
vt 0.375 0.84375
vt 0.375 0.84375
vt 0.375 0.84375
vt 0.375 0.84375
vt 0.375 0.84375
vt 0.375 0.84375
vt 0.375 0.84375
vt 0.375 0.84375
vt 0.375 0.84375
vt 0.140625 0.875
vt 0.140625 0.875
vt 0.140625 0.875
vt 0.140625 0.875
vt 0.140625 0.875
vt 0.140625 0.875
vt 0.140625 0.875
vt 0.140625 0.875
vt 0.140625 0.875
vt 0.140625 0.875
vt 0.140625 0.875
vt 0.140625 0.875
vt 0.140625 0.875
vt 0.140625 0.875
vt 0.140625 0.875
vt 0.140625 0.875
vt 0.140625 0.875
vt 0.140625 0.875
vt 0.140625 0.875
vt 0.140625 0.875
vt 0.140625 0.875
vt 0.140625 0.875
vt 0.140625 0.875
vt 0.140625 0.875
vt 0.140625 0.875
vt 0.140625 0.875
vt 0.140625 0.875
vt 0.140625 0.875
vt 0.140625 0.875
vt 0.140625 0.875
vt 0.140625 0.875
vt 0.140625 0.875
vt 0.140625 0.875
vt 0.140625 0.875
vt 0.140625 0.875
vt 0.140625 0.875
vt 0.140625 0.875
vt 0.140625 0.875
vt 0.140625 0.875
vt 0.140625 0.875
vt 0.140625 0.875
vt 0.140625 0.875
vt 0.140625 0.875
vt 0.140625 0.875
vt 0.140625 0.875
vt 0.140625 0.875
vt 0.140625 0.875
vt 0.140625 0.875
vt 0.140625 0.875
vt 0.140625 0.875
vt 0.140625 0.875
vt 0.140625 0.875
vt 0.140625 0.875
vt 0.140625 0.875
vt 0.140625 0.875
vt 0.140625 0.875
vt 0.140625 0.875
vt 0.140625 0.875
vt 0.140625 0.875
vt 0.140625 0.875
vt 0.140625 0.875
vt 0.140625 0.875
vt 0.140625 0.875
vt 0.140625 0.875
vt 0.140625 0.875
vt 0.140625 0.875
vt 0.140625 0.875
vt 0.140625 0.875
vt 0.140625 0.875
vt 0.140625 0.875
vt 0.140625 0.875
vt 0.140625 0.875
vt 0.140625 0.875
vt 0.140625 0.875
vt 0.140625 0.875
vt 0.140625 0.875
vt 0.140625 0.875
vt 0.140625 0.875
vt 0.140625 0.875
vt 0.140625 0.875
vt 0.140625 0.875
vt 0.140625 0.875
vt 0.140625 0.875
vt 0.140625 0.875
vt 0.140625 0.875
vt 0.140625 0.875
vt 0.140625 0.875
vt 0.140625 0.875
vt 0.140625 0.875
vt 0.140625 0.875
vt 0.140625 0.875
vt 0.140625 0.875
vt 0.140625 0.875
vt 0.140625 0.875
vt 0.140625 0.875
vt 0.140625 0.875
vt 0.140625 0.875
vt 0.140625 0.875
vt 0.140625 0.875
vt 0.140625 0.875
vt 0.140625 0.875
vt 0.140625 0.875
vt 0.140625 0.875
vt 0.140625 0.875
vt 0.140625 0.875
vt 0.140625 0.875
vt 0.140625 0.875
vt 0.140625 0.875
vt 0.140625 0.875
vt 0.140625 0.875
vt 0.140625 0.875
vt 0.140625 0.875
vt 0.140625 0.875
vt 0.140625 0.875
vt 0.140625 0.875
vt 0.140625 0.875
vt 0.140625 0.875
vt 0.140625 0.875
vt 0.140625 0.875
vt 0.140625 0.875
vt 0.140625 0.875
vt 0.140625 0.875
vt 0.140625 0.875
vt 0.140625 0.875
vt 0.140625 0.875
vt 0.140625 0.875
vt 0.140625 0.875
vt 0.140625 0.875
vt 0.140625 0.875
vt 0.140625 0.875
vt 0.140625 0.875
vt 0.140625 0.875
vt 0.140625 0.875
vt 0.140625 0.875
vt 0.140625 0.875
vt 0.140625 0.875
vt 0.140625 0.875
vt 0.140625 0.875
vt 0.140625 0.875
vt 0.140625 0.875
vt 0.140625 0.875
vt 0.140625 0.875
vt 0.140625 0.875
vt 0.140625 0.875
vt 0.140625 0.875
vt 0.140625 0.875
vt 0.140625 0.875
vt 0.140625 0.875
vt 0.140625 0.875
vt 0.140625 0.875
vt 0.140625 0.875
vt 0.140625 0.875
vt 0.140625 0.875
vt 0.140625 0.875
vt 0.140625 0.875
vt 0.140625 0.875
vt 0.140625 0.875
vt 0.140625 0.875
vt 0.140625 0.875
vt 0.140625 0.875
vt 0.140625 0.875
vt 0.140625 0.875
vt 0.140625 0.875
vt 0.140625 0.875
vt 0.140625 0.875
vt 0.140625 0.875
vt 0.140625 0.875
vt 0.140625 0.875
vt 0.140625 0.875
vt 0.140625 0.875
vt 0.140625 0.875
vt 0.140625 0.875
vt 0.140625 0.875
vt 0.140625 0.875
vt 0.140625 0.875
vt 0.140625 0.875
vt 0.140625 0.875
vt 0.140625 0.875
vt 0.140625 0.875
vt 0.140625 0.875
vt 0.140625 0.875
vt 0.140625 0.875
vt 0.140625 0.875
vt 0.140625 0.875
vt 0.140625 0.875
vt 0.140625 0.875
vt 0.140625 0.875
vt 0.140625 0.875
vt 0.140625 0.875
vt 0.140625 0.875
vt 0.140625 0.875
vt 0.140625 0.875
vt 0.140625 0.875
vt 0.140625 0.875
vt 0.140625 0.875
vt 0.140625 0.875
vt 0.140625 0.875
vt 0.140625 0.875
vt 0.140625 0.875
vt 0.140625 0.875
vt 0.140625 0.875
vt 0.140625 0.875
vt 0.140625 0.875
vt 0.140625 0.875
vt 0.140625 0.875
vt 0.140625 0.875
vt 0.140625 0.875
vt 0.140625 0.875
vt 0.140625 0.875
vt 0.140625 0.875
vt 0.140625 0.875
vt 0.140625 0.875
vt 0.140625 0.875
vt 0.140625 0.875
vt 0.140625 0.875
vt 0.140625 0.875
vt 0.140625 0.875
vt 0.140625 0.875
vt 0.140625 0.875
vt 0.140625 0.875
vt 0.140625 0.875
vt 0.140625 0.875
vt 0.140625 0.875
vt 0.140625 0.875
vt 0.140625 0.875
vt 0.140625 0.875
vt 0.140625 0.875
vt 0.140625 0.875
vt 0.375 0.84375
vt 0.375 0.84375
vt 0.375 0.84375
vt 0.375 0.84375
vt 0.375 0.84375
vt 0.375 0.84375
vt 0.375 0.84375
vt 0.375 0.84375
vt 0.375 0.84375
vt 0.375 0.84375
vt 0.375 0.84375
vt 0.375 0.84375
vt 0.375 0.84375
vt 0.375 0.84375
vt 0.375 0.84375
vt 0.375 0.84375
vt 0.375 0.84375
vt 0.375 0.84375
vt 0.375 0.84375
vt 0.375 0.84375
vt 0.375 0.84375
vt 0.375 0.84375
vt 0.375 0.84375
vt 0.375 0.84375
vt 0.375 0.84375
vt 0.375 0.84375
vt 0.375 0.84375
vt 0.375 0.84375
vt 0.375 0.84375
vt 0.375 0.84375
vt 0.375 0.84375
vt 0.375 0.84375
vt 0.375 0.84375
vt 0.375 0.84375
vt 0.375 0.84375
vt 0.140625 0.875
vt 0.140625 0.875
vt 0.140625 0.875
vt 0.140625 0.875
vt 0.375 0.84375
vt 0.375 0.84375
vt 0.375 0.84375
vt 0.375 0.84375
vt 0.140625 0.875
vt 0.140625 0.875
vt 0.140625 0.875
vt 0.140625 0.875
vt 0.140625 0.875
vt 0.140625 0.875
vt 0.140625 0.875
vt 0.140625 0.875
vt 0.140625 0.875
vt 0.140625 0.875
vt 0.140625 0.875
vt 0.140625 0.875
vt 0.140625 0.875
vt 0.140625 0.875
vt 0.140625 0.875
vt 0.140625 0.875
vt 0.375 0.84375
vt 0.375 0.84375
vt 0.375 0.84375
vt 0.375 0.84375
vt 0.375 0.84375
vt 0.375 0.84375
vt 0.375 0.84375
vt 0.375 0.84375
vt 0.375 0.84375
vt 0.375 0.84375
vt 0.375 0.84375
vt 0.375 0.84375
vt 0.375 0.84375
vt 0.375 0.84375
vt 0.375 0.84375
vt 0.375 0.84375
vt 0.375 0.84375
vt 0.375 0.84375
vt 0.375 0.84375
vt 0.375 0.84375
vt 0.375 0.84375
vt 0.375 0.84375
vt 0.375 0.84375
vt 0.375 0.84375
vt 0.375 0.84375
vt 0.375 0.84375
vt 0.140625 0.875
vt 0.140625 0.875
vt 0.140625 0.875
vt 0.140625 0.875
vt 0.140625 0.875
vt 0.140625 0.875
vt 0.140625 0.875
vt 0.140625 0.875
vt 0.140625 0.875
vt 0.140625 0.875
vt 0.140625 0.875
vt 0.140625 0.875
vt 0.140625 0.875
vt 0.140625 0.875
vt 0.140625 0.875
vt 0.140625 0.875
vt 0.140625 0.875
vt 0.140625 0.875
vt 0.140625 0.875
vt 0.140625 0.875
vt 0.140625 0.875
vt 0.140625 0.875
vt 0.140625 0.875
vt 0.625 0.875
vt 0.625 0.875
vt 0.625 0.875
vt 0.625 0.875
vt 0.625 0.875
vt 0.625 0.875
vt 0.625 0.875
vt 0.625 0.875
vt 0.625 0.875
vt 0.625 0.875
vt 0.625 0.875
vt 0.625 0.875
vt 0.625 0.875
vt 0.625 0.875
vt 0.625 0.875
vt 0.625 0.875
vt 0.625 0.875
vt 0.625 0.875
vt 0.625 0.875
vt 0.625 0.875
vt 0.625 0.875
vt 0.625 0.875
vt 0.625 0.875
vt 0.625 0.875
vt 0.625 0.875
vt 0.625 0.875
vt 0.625 0.875
vt 0.625 0.875
vt 0.625 0.875
vt 0.625 0.875
vt 0.625 0.875
vt 0.625 0.875
vt 0.625 0.875
vt 0.625 0.875
vt 0.625 0.875
vt 0.625 0.875
vt 0.625 0.875
vt 0.625 0.90625
vt 0.65625 0.90625
vt 0.625 0.875
vt 0.625 0.875
vt 0.625 0.875
vt 0.625 0.875
vt 0.625 0.875
vt 0.65625 0.90625
vt 0.625 0.875
vt 0.625 0.875
vt 0.625 0.875
vt 0.625 0.875
vt 0.625 0.90625
vt 0.625 0.875
vt 0.65625 0.90625
vt 0.625 0.875
vt 0.625 0.90625
vt 0.625 0.875
vt 0.625 0.875
vt 0.625 0.875
vt 0.625 0.875
vt 0.625 0.875
vt 0.65625 0.90625
vt 0.625 0.90625
vt 0.625 0.875
vt 0.140625 0.875
vt 0.140625 0.875
vt 0.140625 0.875
vt 0.140625 0.875
vt 0.140625 0.875
vt 0.140625 0.875
vt 0.140625 0.875
vt 0.140625 0.875
vt 0.140625 0.875
vt 0.140625 0.875
vt 0.140625 0.875
vt 0.140625 0.875
vt 0.140625 0.875
vt 0.140625 0.875
vt 0.140625 0.875
vt 0.140625 0.875
vt 0.140625 0.875
vt 0.140625 0.875
vt 0.140625 0.875
vt 0.140625 0.875
vt 0.140625 0.875
vt 0.140625 0.875
vt 0.140625 0.875
vt 0.140625 0.875
vt 0.140625 0.875
vt 0.140625 0.875
vt 0.140625 0.875
vt 0.140625 0.875
vt 0.140625 0.875
vt 0.140625 0.875
vt 0.140625 0.875
vt 0.140625 0.875
vt 0.140625 0.875
vt 0.140625 0.875
vt 0.140625 0.875
vt 0.140625 0.875
vt 0.140625 0.875
vt 0.140625 0.875
vt 0.140625 0.875
vt 0.140625 0.875
vt 0.140625 0.875
vt 0.140625 0.875
vt 0.140625 0.875
vt 0.140625 0.875
vt 0.140625 0.875
vt 0.140625 0.875
vt 0.140625 0.875
vt 0.140625 0.875
vt 0.140625 0.875
vt 0.140625 0.875
vt 0.140625 0.875
vt 0.140625 0.875
vt 0.140625 0.875
vt 0.140625 0.875
vt 0.140625 0.875
vt 0.375 0.84375
vt 0.375 0.84375
vt 0.375 0.84375
vt 0.375 0.84375
vt 0.375 0.84375
vt 0.375 0.84375
vt 0.375 0.84375
vt 0.140625 0.875
vt 0.140625 0.875
vt 0.140625 0.875
vt 0.140625 0.875
vt 0.140625 0.875
vt 0.140625 0.875
vt 0.140625 0.875
vt 0.140625 0.875
vt 0.140625 0.875
vt 0.140625 0.875
vt 0.140625 0.875
vt 0.140625 0.875
vt 0.140625 0.875
vt 0.140625 0.875
vt 0.140625 0.875
vt 0.140625 0.875
vt 0.140625 0.875
vt 0.140625 0.875
vt 0.140625 0.875
vt 0.140625 0.875
vt 0.140625 0.875
vt 0.140625 0.875
vt 0.140625 0.875
vt 0.375 0.84375
vt 0.375 0.84375
vt 0.375 0.84375
vt 0.375 0.84375
vt 0.375 0.84375
vt 0.375 0.84375
vt 0.375 0.84375
vt 0.375 0.84375
vt 0.375 0.84375
vt 0.375 0.84375
vt 0.375 0.84375
vt 0.375 0.84375
vt 0.375 0.84375
vt 0.375 0.84375
vt 0.375 0.84375
vt 0.375 0.84375
vt 0.375 0.84375
vt 0.375 0.84375
vt 0.375 0.84375
vt 0.375 0.84375
vt 0.375 0.84375
vt 0.375 0.84375
vt 0.375 0.84375
vt 0.375 0.84375
vt 0.375 0.84375
vt 0.375 0.84375
vt 0.375 0.84375
vt 0.375 0.84375
vt 0.375 0.84375
vt 0.375 0.84375
vt 0.375 0.84375
vt 0.375 0.84375
vt 0.375 0.84375
vt 0.375 0.84375
vt 0.375 0.84375
vt 0.375 0.84375
vt 0.375 0.84375
vt 0.375 0.84375
vt 0.375 0.84375
vt 0.375 0.84375
vt 0.375 0.84375
vt 0.375 0.84375
vt 0.375 0.84375
vt 0.375 0.84375
vt 0.375 0.84375
vt 0.375 0.84375
vt 0.375 0.84375
vt 0.375 0.84375
vt 0.375 0.84375
vt 0.375 0.84375
vt 0.375 0.84375
vt 0.375 0.84375
vt 0.375 0.84375
vt 0.375 0.84375
vt 0.375 0.84375
vt 0.375 0.84375
vt 0.375 0.84375
vt 0.375 0.84375
vt 0.375 0.84375
vt 0.375 0.84375
vt 0.375 0.84375
vt 0.375 0.84375
vt 0.375 0.84375
vt 0.375 0.84375
vt 0.375 0.84375
vt 0.375 0.84375
vt 0.375 0.84375
vt 0.375 0.84375
vt 0.375 0.84375
vt 0.375 0.84375
vt 0.375 0.84375
vt 0.375 0.84375
vt 0.375 0.84375
vt 0.375 0.84375
vt 0.375 0.84375
vt 0.375 0.84375
vt 0.34375 0.15625
vt 0.34375 0.15625
vt 0.3125 0.1875
vt 0.34375 0.1875
vt 0.140625 0.875
vt 0.140625 0.875
vt 0.140625 0.875
vt 0.140625 0.875
vt 0.140625 0.875
vt 0.140625 0.875
vt 0.140625 0.875
vt 0.140625 0.875
vt 0.140625 0.875
vt 0.140625 0.875
vt 0.140625 0.875
vt 0.140625 0.875
vt 0.140625 0.875
vt 0.140625 0.875
vt 0.3125 0.1875
vt 0.34375 0.15625
vt 0.34375 0.15625
vt 0.3125 0.15625
vt 0.34375 0.15625
vt 0.34375 0.15625
vt 0.34375 0.1875
vt 0.34375 0.15625
vt 0.34375 0.15625
vt 0.34375 0.15625
vt 0.34375 0.15625
vt 0.3125 0.1875
vt 0.34375 0.15625
vt 0.34375 0.15625
vt 0.34375 0.15625
vt 0.34375 0.15625
vt 0.34375 0.15625
vt 0.34375 0.15625
vt 0.34375 0.15625
vt 0.34375 0.15625
vt 0.34375 0.15625
vt 0.34375 0.1875
vt 0.34375 0.15625
vt 0.34375 0.15625
vt 0.34375 0.1875
vt 0.3125 0.1875
vt 0.3125 0.15625
vt 0.34375 0.15625
vt 0.34375 0.15625
vt 0.34375 0.15625
vt 0.34375 0.15625
vt 0.34375 0.15625
vt 0.34375 0.15625
vt 0.34375 0.15625
vt 0.34375 0.15625
vt 0.34375 0.15625
vt 0.34375 0.15625
vt 0.3125 0.15625
vt 0.34375 0.15625
vt 0.34375 0.15625
vt 0.34375 0.15625
vt 0.34375 0.15625
vt 0.34375 0.15625
vt 0.34375 0.15625
vt 0.3125 0.15625
vt 0.34375 0.15625
vt 0.34375 0.15625
vt 0.34375 0.15625
vt 0.375 0.84375
vt 0.375 0.84375
vt 0.375 0.84375
vt 0.375 0.84375
vt 0.140625 0.875
vt 0.140625 0.875
vt 0.140625 0.875
vt 0.140625 0.875
vt 0.140625 0.875
vt 0.140625 0.875
vt 0.140625 0.875
vt 0.140625 0.875
vt 0.140625 0.875
vt 0.140625 0.875
vt 0.140625 0.875
vt 0.140625 0.875
vt 0.140625 0.875
vt 0.140625 0.875
vt 0.140625 0.875
vt 0.140625 0.875
vt 0.140625 0.875
vt 0.140625 0.875
vt 0.140625 0.875
vt 0.140625 0.875
vt 0.140625 0.875
vt 0.140625 0.875
vt 0.140625 0.875
vt 0.140625 0.875
vt 0.140625 0.875
vt 0.375 0.84375
vt 0.375 0.84375
vt 0.375 0.84375
vt 0.375 0.84375
vt 0.375 0.84375
vt 0.375 0.84375
vt 0.375 0.84375
vt 0.375 0.84375
vt 0.375 0.84375
vt 0.375 0.84375
vt 0.375 0.84375
vt 0.375 0.84375
vt 0.375 0.84375
vt 0.375 0.84375
vt 0.375 0.84375
vt 0.375 0.84375
vt 0.140625 0.875
vt 0.140625 0.875
vt 0.140625 0.875
vt 0.140625 0.875
vt 0.140625 0.875
vt 0.140625 0.875
vt 0.140625 0.875
vt 0.140625 0.875
vt 0.375 0.84375
vt 0.375 0.84375
vt 0.375 0.84375
vt 0.375 0.84375
vt 0.140625 0.875
vt 0.140625 0.875
vt 0.140625 0.875
vt 0.140625 0.875
vt 0.140625 0.875
vt 0.140625 0.875
vt 0.140625 0.875
vt 0.140625 0.875
vt 0.140625 0.875
vt 0.140625 0.875
vt 0.140625 0.875
vt 0.140625 0.875
vt 0.375 0.84375
vt 0.375 0.84375
vt 0.375 0.84375
vt 0.140625 0.875
vt 0.140625 0.875
vt 0.140625 0.875
vt 0.140625 0.875
vt 0.140625 0.875
vt 0.140625 0.875
vt 0.140625 0.875
vt 0.140625 0.875
vt 0.140625 0.875
vt 0.140625 0.875
vt 0.140625 0.875
vt 0.375 0.84375
vt 0.375 0.84375
vt 0.375 0.84375
vt 0.375 0.84375
vt 0.375 0.84375
vt 0.375 0.84375
vt 0.375 0.84375
vt 0.375 0.84375
vt 0.375 0.84375
vt 0.375 0.84375
vt 0.375 0.84375
vt 0.375 0.84375
vt 0.140625 0.875
vt 0.140625 0.875
vt 0.140625 0.875
vt 0.140625 0.875
vt 0.140625 0.875
vt 0.140625 0.875
vt 0.140625 0.875
vt 0.140625 0.875
vt 0.140625 0.875
vt 0.140625 0.875
vt 0.140625 0.875
vt 0.140625 0.875
vt 0.140625 0.875
vt 0.140625 0.875
vt 0.140625 0.875
vt 0.140625 0.875
vt 0.140625 0.875
vt 0.140625 0.875
vt 0.140625 0.875
vt 0.140625 0.875
vt 0.140625 0.875
vt 0.140625 0.875
vt 0.140625 0.875
vt 0.140625 0.875
vt 0.140625 0.875
vt 0.140625 0.875
vt 0.140625 0.875
vt 0.140625 0.875
vt 0.140625 0.875
vt 0.140625 0.875
vt 0.140625 0.875
vt 0.140625 0.875
vt 0.140625 0.875
vt 0.140625 0.875
vt 0.140625 0.875
vt 0.140625 0.875
vt 0.140625 0.875
vt 0.140625 0.875
vt 0.140625 0.875
vt 0.140625 0.875
vt 0.140625 0.875
vt 0.140625 0.875
vt 0.140625 0.875
vt 0.140625 0.875
vt 0.140625 0.875
vt 0.140625 0.875
vt 0.140625 0.875
vt 0.140625 0.875
vt 0.140625 0.875
vt 0.140625 0.875
vt 0.140625 0.875
vt 0.140625 0.875
vt 0.140625 0.875
vt 0.140625 0.875
vt 0.140625 0.875
vt 0.140625 0.875
vt 0.140625 0.875
vt 0.140625 0.875
vt 0.140625 0.875
vt 0.140625 0.875
vt 0.140625 0.875
vt 0.140625 0.875
vt 0.140625 0.875
vt 0.140625 0.875
vt 0.140625 0.875
vt 0.140625 0.875
vt 0.140625 0.875
vt 0.140625 0.875
vt 0.140625 0.875
vt 0.140625 0.875
vt 0.140625 0.875
vt 0.140625 0.875
vt 0.140625 0.875
vt 0.140625 0.875
vt 0.140625 0.875
vt 0.140625 0.875
vt 0.140625 0.875
vt 0.140625 0.875
vt 0.140625 0.875
vt 0.140625 0.875
vt 0.140625 0.875
vt 0.140625 0.875
vt 0.140625 0.875
vt 0.140625 0.875
vt 0.140625 0.875
vt 0.140625 0.90625
vt 0.140625 0.875
vt 0.140625 0.875
vt 0.140625 0.875
vt 0.140625 0.875
vt 0.140625 0.875
vt 0.140625 0.875
vt 0.140625 0.875
vt 0.140625 0.875
vt 0.140625 0.875
vt 0.140625 0.875
vt 0.140625 0.875
vt 0.140625 0.875
vt 0.140625 0.875
vt 0.140625 0.875
vt 0.140625 0.875
vt 0.140625 0.875
vt 0.140625 0.875
vt 0.140625 0.875
vt 0.140625 0.875
vt 0.140625 0.875
vt 0.140625 0.875
vt 0.140625 0.875
vt 0.140625 0.875
vt 0.140625 0.875
vt 0.140625 0.875
vt 0.140625 0.875
vt 0.140625 0.875
vt 0.140625 0.875
vt 0.140625 0.875
vt 0.140625 0.875
vt 0.140625 0.875
vt 0.140625 0.875
vt 0.140625 0.875
vt 0.140625 0.875
vt 0.140625 0.875
vt 0.140625 0.875
vt 0.140625 0.875
vt 0.140625 0.875
vt 0.140625 0.875
vt 0.140625 0.875
vt 0.140625 0.875
vt 0.140625 0.875
vt 0.140625 0.875
vt 0.140625 0.875
vt 0.140625 0.875
vt 0.140625 0.875
vt 0.140625 0.875
vt 0.140625 0.875
vt 0.140625 0.875
vt 0.140625 0.875
vt 0.140625 0.875
vt 0.140625 0.875
vt 0.140625 0.875
vt 0.140625 0.875
vt 0.140625 0.875
vt 0.140625 0.875
vt 0.140625 0.875
vt 0.140625 0.875
vt 0.140625 0.875
vt 0.140625 0.875
vt 0.140625 0.875
vt 0.140625 0.875
vt 0.140625 0.875
vt 0.140625 0.875
vt 0.140625 0.875
vt 0.140625 0.875
vt 0.140625 0.875
vt 0.140625 0.875
vt 0.140625 0.875
vt 0.140625 0.875
vt 0.140625 0.875
vt 0.140625 0.875
vt 0.140625 0.875
vt 0.140625 0.875
vt 0.140625 0.875
vt 0.140625 0.875
vt 0.140625 0.875
vt 0.140625 0.875
vt 0.140625 0.875
vt 0.140625 0.875
vt 0.140625 0.875
vt 0.140625 0.875
vt 0.140625 0.875
vt 0.140625 0.875
vt 0.140625 0.875
vt 0.140625 0.875
vt 0.140625 0.875
vt 0.140625 0.875
vt 0.140625 0.875
vt 0.140625 0.875
vt 0.140625 0.875
vt 0.140625 0.875
vt 0.140625 0.875
vt 0.140625 0.875
vt 0.140625 0.875
vt 0.140625 0.875
vt 0.140625 0.875
vt 0.140625 0.875
vt 0.140625 0.875
vt 0.140625 0.875
vt 0.140625 0.875
vt 0.140625 0.875
vt 0.140625 0.875
vt 0.140625 0.875
vt 0.140625 0.875
vt 0.140625 0.875
vt 0.140625 0.875
vt 0.140625 0.875
vt 0.140625 0.875
vt 0.140625 0.875
vt 0.140625 0.875
vt 0.140625 0.875
vt 0.140625 0.875
vt 0.140625 0.875
vt 0.140625 0.875
vt 0.140625 0.875
vt 0.140625 0.875
vt 0.140625 0.875
vt 0.140625 0.875
vt 0.140625 0.875
vt 0.140625 0.875
vt 0.140625 0.875
vt 0.140625 0.875
vt 0.140625 0.875
vt 0.140625 0.875
vt 0.140625 0.875
vt 0.140625 0.875
vt 0.140625 0.875
vt 0.140625 0.875
vt 0.140625 0.875
vt 0.140625 0.875
vt 0.140625 0.875
vt 0.140625 0.875
vt 0.140625 0.875
vt 0.140625 0.875
vt 0.140625 0.875
vt 0.140625 0.875
vt 0.140625 0.875
vt 0.140625 0.875
vt 0.140625 0.875
vt 0.140625 0.875
vt 0.140625 0.875
vt 0.375 0.84375
vt 0.375 0.84375
vt 0.375 0.84375
vt 0.375 0.84375
vt 0.375 0.84375
vt 0.375 0.84375
vt 0.375 0.84375
vt 0.375 0.84375
vt 0.375 0.84375
vt 0.375 0.84375
vt 0.375 0.84375
vt 0.375 0.84375
vt 0.375 0.84375
vt 0.375 0.84375
vt 0.375 0.84375
vt 0.375 0.84375
vt 0.375 0.84375
vt 0.375 0.84375
vt 0.375 0.84375
vt 0.375 0.84375
vt 0.375 0.84375
vt 0.375 0.84375
vt 0.375 0.84375
vt 0.375 0.84375
vt 0.375 0.84375
vt 0.375 0.84375
vt 0.375 0.84375
vt 0.375 0.84375
vt 0.375 0.84375
vt 0.375 0.84375
vt 0.375 0.84375
vt 0.375 0.84375
vt 0.375 0.84375
vt 0.375 0.84375
vt 0.375 0.84375
vt 0.140625 0.875
vt 0.140625 0.875
vt 0.140625 0.875
vt 0.140625 0.875
vt 0.375 0.84375
vt 0.375 0.84375
vt 0.375 0.84375
vt 0.375 0.84375
vt 0.140625 0.875
vt 0.140625 0.875
vt 0.140625 0.875
vt 0.140625 0.875
vt 0.140625 0.875
vt 0.140625 0.875
vt 0.140625 0.875
vt 0.140625 0.875
vt 0.140625 0.875
vt 0.140625 0.875
vt 0.140625 0.875
vt 0.140625 0.875
vt 0.140625 0.875
vt 0.140625 0.875
vt 0.140625 0.875
vt 0.140625 0.875
vt 0.375 0.84375
vt 0.375 0.84375
vt 0.375 0.84375
vt 0.375 0.84375
vt 0.375 0.84375
vt 0.375 0.84375
vt 0.375 0.84375
vt 0.375 0.84375
vt 0.375 0.84375
vt 0.375 0.84375
vt 0.375 0.84375
vt 0.375 0.84375
vt 0.375 0.84375
vt 0.375 0.84375
vt 0.375 0.84375
vt 0.375 0.84375
vt 0.375 0.84375
vt 0.375 0.84375
vt 0.375 0.84375
vt 0.375 0.84375
vt 0.375 0.84375
vt 0.375 0.84375
vt 0.375 0.84375
vt 0.375 0.84375
vt 0.375 0.84375
vt 0.375 0.84375
vt 0.140625 0.875
vt 0.140625 0.875
vt 0.140625 0.875
vt 0.140625 0.875
vt 0.140625 0.875
vt 0.140625 0.875
vt 0.140625 0.875
vt 0.140625 0.875
vt 0.140625 0.875
vt 0.140625 0.875
vt 0.140625 0.875
vt 0.140625 0.875
vt 0.140625 0.875
vt 0.140625 0.875
vt 0.140625 0.875
vt 0.140625 0.875
vt 0.140625 0.875
vt 0.140625 0.875
vt 0.140625 0.875
vt 0.140625 0.875
vt 0.140625 0.875
vt 0.140625 0.875
vt 0.140625 0.875
vt 0.625 0.875
vt 0.625 0.875
vt 0.625 0.875
vt 0.625 0.875
vt 0.625 0.875
vt 0.625 0.875
vt 0.625 0.875
vt 0.625 0.875
vt 0.625 0.875
vt 0.625 0.875
vt 0.625 0.875
vt 0.625 0.875
vt 0.625 0.875
vt 0.625 0.875
vt 0.625 0.875
vt 0.625 0.875
vt 0.625 0.875
vt 0.625 0.875
vt 0.625 0.875
vt 0.625 0.875
vt 0.625 0.875
vt 0.625 0.875
vt 0.625 0.875
vt 0.625 0.875
vt 0.625 0.875
vt 0.625 0.875
vt 0.625 0.875
vt 0.625 0.875
vt 0.625 0.875
vt 0.625 0.875
vt 0.625 0.875
vt 0.625 0.875
vt 0.625 0.875
vt 0.625 0.875
vt 0.625 0.875
vt 0.625 0.875
vt 0.625 0.875
vt 0.625 0.875
vt 0.625 0.875
vt 0.625 0.875
vt 0.625 0.875
vt 0.625 0.875
vt 0.625 0.875
vt 0.625 0.875
vt 0.625 0.875
vt 0.625 0.875
vt 0.625 0.875
vt 0.625 0.875
vt 0.625 0.875
vt 0.625 0.875
vt 0.625 0.875
vt 0.625 0.875
vt 0.625 0.875
vt 0.625 0.875
vt 0.625 0.875
vt 0.625 0.875
vt 0.625 0.875
vt 0.625 0.875
vt 0.625 0.875
vt 0.625 0.875
vt 0.625 0.875
vt 0.625 0.875
vt 0.140625 0.875
vt 0.140625 0.875
vt 0.140625 0.875
vt 0.140625 0.90625
vt 0.109375 0.90625
vt 0.109375 0.875
vt 0.140625 0.875
vt 0.140625 0.875
vt 0.140625 0.875
vt 0.140625 0.875
vt 0.140625 0.875
vt 0.140625 0.875
vt 0.140625 0.875
vt 0.140625 0.875
vt 0.140625 0.875
vt 0.140625 0.875
vt 0.140625 0.875
vt 0.140625 0.875
vt 0.140625 0.875
vt 0.140625 0.875
vt 0.140625 0.875
vt 0.140625 0.875
vt 0.140625 0.875
vt 0.140625 0.875
vt 0.140625 0.875
vt 0.140625 0.875
vt 0.140625 0.875
vt 0.140625 0.875
vt 0.140625 0.875
vt 0.140625 0.875
vt 0.140625 0.875
vt 0.140625 0.875
vt 0.109375 0.875
vt 0.109375 0.90625
vt 0.140625 0.875
vt 0.140625 0.875
vt 0.140625 0.875
vt 0.109375 0.875
vt 0.140625 0.875
vt 0.140625 0.875
vt 0.140625 0.875
vt 0.140625 0.875
vt 0.140625 0.875
vt 0.140625 0.875
vt 0.140625 0.875
vt 0.140625 0.875
vt 0.140625 0.875
vt 0.140625 0.875
vt 0.140625 0.875
vt 0.140625 0.875
vt 0.140625 0.875
vt 0.140625 0.875
vt 0.140625 0.875
vt 0.140625 0.875
vt 0.140625 0.875
vt 0.375 0.84375
vt 0.375 0.84375
vt 0.375 0.84375
vt 0.375 0.84375
vt 0.375 0.84375
vt 0.375 0.84375
vt 0.375 0.84375
vt 0.140625 0.875
vt 0.140625 0.875
vt 0.140625 0.875
vt 0.140625 0.875
vt 0.140625 0.875
vt 0.109375 0.875
vt 0.140625 0.875
vt 0.140625 0.875
vt 0.140625 0.875
vt 0.140625 0.875
vt 0.109375 0.875
vt 0.109375 0.875
vt 0.140625 0.875
vt 0.140625 0.875
vt 0.140625 0.875
vt 0.140625 0.875
vt 0.140625 0.875
vt 0.140625 0.875
vt 0.140625 0.875
vt 0.140625 0.875
vt 0.140625 0.875
vt 0.140625 0.875
vt 0.140625 0.875
vt 0.375 0.84375
vt 0.375 0.84375
vt 0.375 0.84375
vt 0.375 0.84375
vt 0.375 0.84375
vt 0.375 0.84375
vt 0.375 0.84375
vt 0.375 0.84375
vt 0.375 0.84375
vt 0.375 0.84375
vt 0.375 0.84375
vt 0.375 0.84375
vt 0.375 0.84375
vt 0.375 0.84375
vt 0.375 0.84375
vt 0.375 0.84375
vt 0.375 0.84375
vt 0.375 0.84375
vt 0.375 0.84375
vt 0.375 0.84375
vt 0.375 0.84375
vt 0.375 0.84375
vt 0.375 0.84375
vt 0.375 0.84375
vt 0.375 0.84375
vt 0.375 0.84375
vt 0.375 0.84375
vt 0.375 0.84375
vt 0.375 0.84375
vt 0.375 0.84375
vt 0.375 0.84375
vt 0.375 0.84375
vt 0.375 0.84375
vt 0.375 0.84375
vt 0.375 0.84375
vt 0.375 0.84375
vt 0.375 0.84375
vt 0.375 0.84375
vt 0.375 0.84375
vt 0.375 0.84375
vt 0.375 0.84375
vt 0.375 0.84375
vt 0.375 0.84375
vt 0.375 0.84375
vt 0.375 0.84375
vt 0.375 0.84375
vt 0.375 0.84375
vt 0.375 0.84375
vt 0.375 0.84375
vt 0.375 0.84375
vt 0.375 0.84375
vt 0.375 0.84375
vt 0.375 0.84375
vt 0.375 0.84375
vt 0.375 0.84375
vt 0.375 0.84375
vt 0.375 0.84375
vt 0.375 0.84375
vt 0.375 0.84375
vt 0.375 0.84375
vt 0.375 0.84375
vt 0.375 0.84375
vt 0.375 0.84375
vt 0.375 0.84375
vt 0.375 0.84375
vt 0.375 0.84375
vt 0.375 0.84375
vt 0.375 0.84375
vt 0.375 0.84375
vt 0.375 0.84375
vt 0.375 0.84375
vt 0.375 0.84375
vt 0.375 0.84375
vt 0.375 0.84375
vt 0.375 0.84375
vt 0.375 0.84375
vt 0.34375 0.15625
vt 0.34375 0.15625
vt 0.34375 0.15625
vt 0.34375 0.15625
vt 0.140625 0.875
vt 0.140625 0.875
vt 0.140625 0.875
vt 0.140625 0.875
vt 0.140625 0.875
vt 0.140625 0.875
vt 0.140625 0.875
vt 0.140625 0.875
vt 0.140625 0.875
vt 0.140625 0.875
vt 0.140625 0.875
vt 0.140625 0.875
vt 0.140625 0.875
vt 0.140625 0.875
vt 0.34375 0.15625
vt 0.34375 0.15625
vt 0.34375 0.15625
vt 0.34375 0.15625
vt 0.34375 0.15625
vt 0.34375 0.15625
vt 0.34375 0.15625
vt 0.34375 0.15625
vt 0.34375 0.15625
vt 0.34375 0.15625
vt 0.34375 0.15625
vt 0.34375 0.15625
vt 0.34375 0.15625
vt 0.34375 0.15625
vt 0.34375 0.15625
vt 0.34375 0.15625
vt 0.34375 0.15625
vt 0.34375 0.15625
vt 0.34375 0.15625
vt 0.34375 0.15625
vt 0.34375 0.15625
vt 0.34375 0.15625
vt 0.34375 0.15625
vt 0.34375 0.15625
vt 0.34375 0.15625
vt 0.34375 0.15625
vt 0.34375 0.15625
vt 0.34375 0.15625
vt 0.34375 0.15625
vt 0.34375 0.15625
vt 0.34375 0.15625
vt 0.34375 0.15625
vt 0.34375 0.15625
vt 0.34375 0.15625
vt 0.34375 0.15625
vt 0.34375 0.15625
vt 0.34375 0.15625
vt 0.34375 0.15625
vt 0.34375 0.15625
vt 0.34375 0.15625
vt 0.34375 0.15625
vt 0.34375 0.15625
vt 0.34375 0.15625
vt 0.34375 0.15625
vt 0.34375 0.15625
vt 0.34375 0.15625
vt 0.34375 0.15625
vt 0.34375 0.15625
vt 0.375 0.84375
vt 0.375 0.875
vt 0.375 0.84375
vt 0.375 0.84375
vt 0.140625 0.875
vt 0.140625 0.875
vt 0.140625 0.875
vt 0.140625 0.875
vt 0.140625 0.875
vt 0.140625 0.875
vt 0.140625 0.875
vt 0.140625 0.875
vt 0.140625 0.875
vt 0.140625 0.875
vt 0.140625 0.875
vt 0.140625 0.875
vt 0.140625 0.875
vt 0.140625 0.875
vt 0.140625 0.875
vt 0.140625 0.875
vt 0.140625 0.875
vt 0.140625 0.875
vt 0.140625 0.875
vt 0.140625 0.875
vt 0.140625 0.875
vt 0.140625 0.875
vt 0.140625 0.875
vt 0.140625 0.875
vt 0.140625 0.875
vt 0.375 0.875
vt 0.375 0.84375
vt 0.375 0.84375
vt 0.375 0.84375
vt 0.375 0.875
vt 0.40625 0.875
vt 0.375 0.84375
vt 0.375 0.84375
vt 0.375 0.84375
vt 0.375 0.84375
vt 0.375 0.84375
vt 0.375 0.84375
vt 0.375 0.84375
vt 0.40625 0.875
vt 0.375 0.875
vt 0.375 0.84375
vt 0.140625 0.875
vt 0.140625 0.875
vt 0.140625 0.875
vt 0.140625 0.875
vt 0.140625 0.875
vt 0.140625 0.875
vt 0.140625 0.875
vt 0.140625 0.875
vt 0.140625 0.875
vt 0.140625 0.875
vt 0.140625 0.875
vt 0.140625 0.875
vt 0.140625 0.875
vt 0.140625 0.875
vt 0.140625 0.875
vt 0.140625 0.875
vn 0.4012510331686565 0.7957668452915255 0.453599753434522
vn 0.38187513416842633 -0.645514084859774 0.6614249376546781
vn 0.40848265254999877 -0.5755038303200838 0.7084753092752274
vn 0.06323915860451258 -0.9856565001372923 -0.15646748082619957
vn 0.08677412734119733 0.9767004071768156 0.1962818520516258
vn 0.3870410822209138 0.6330876822333745 0.6703724243117686
vn 0.22455740256083861 -0.9730046535798149 0.05325332916498088
vn 0.39002726113023317 0.3704169908455133 -0.8430124485843633
vn 0.30031601428863014 0.9401939949739103 -0.16076549187182584
vn -0.4323080146290117 0.47657448951061343 -0.7654975744149817
vn 0.15930401605696184 0.9626321454838078 0.21900133093057805
vn -0.31809254661546 0.7651010561597862 -0.5598548969606957
vn -0.4584521879311166 -0.20885157693514628 -0.8638301975462974
vn 0.8623548475323638 -0.3854472490749135 0.32829032138949144
vn 0.6537111778716486 0.0420803294653426 0.7555732537601834
vn 0.6637250391691657 -0.5088039747238351 0.5482586868305112
vn -0.6162440336643964 -0.20161709589840196 -0.7613106052161162
vn 0.7134032335634926 0.2912480369559661 -0.6373620692435729
vn 0.644494902686776 0.4280641908279383 -0.6335513940806901
vn 0.8441802234928963 -0.30265380304668466 -0.4424482181734521
vn 0.6441798851334716 -0.6303345391020845 0.43325586482399775
vn 0.5826740584844935 0.38862805515951443 -0.713764090097101
vn 0.8404898433028896 -0.48066075107097045 -0.25008411721773727
vn 0.37794928127125393 0.7593667455157087 -0.5296380713198621
vn 0.4955246530783142 0.6824596058365694 -0.5373120179123214
vn 0.814327120422343 -0.04430024595439142 -0.5787130801641132
vn 0.9494652797567518 0.10265402322535584 -0.29661057643327754
vn 0.9510736978340412 0.08673181267909488 -0.2965407458641756
vn 0.7408915981689046 0.5477302621735972 -0.3886787872549375
vn 0.9457628227030989 -0.28076747805963054 -0.1634084038741638
vn -0.5434859252765502 -0.22158041182749855 -0.8096450889869268
vn 0.9940061285510352 -0.04626042719508058 -0.09905447631839526
vn 0.7749627090444214 0.5165932648732188 -0.3640936669020212
vn 0.6268796603213952 -0.17857542387184175 0.7583750453860704
vn 0.5880197134744024 -0.7793904669406534 -0.21629451358624938
vn -0.10601313004826363 0.5054648358255801 -0.8563098247720794
vn 0.6956546317898595 0.6009725774127671 -0.3935690466324439
vn -0.22435147031236388 -0.9704961392497286 -0.08833833522345962
vn 0.8134128334660459 0.5414183208220897 -0.21266349999689066
vn 0.4555949207767337 -0.661759727409206 -0.5954051824948581
vn 0.17501289197567296 -0.9811863470219471 -0.0815097543858334
vn 0.12235938163761259 0.9383335796219865 0.32335472020530415
vn 0.45874646299367566 -0.6482769176890308 -0.6076913037738831
vn 0.5613563782859531 0.1661244976008833 0.810729096464739
vn 0.8660261611654891 3.7778521099788733e-7 -0.49999868817510273
vn 0.8660253374521539 6.096799401565125e-7 -0.5000001148904978
vn 0.8660251120565283 -6.059250151305856e-7 -0.5000005052868551
vn 0.8660265062735426 -7.424911612621928e-7 -0.49999809042744386
vn 0.6191463209725669 -0.78314025237099 -0.05787208603841298
vn 0.7961957902014497 0.48376615851565524 0.3633766194191572
vn -0.2887370535594522 -0.4125299228303979 -0.863973365718731
vn 0.5762786579701233 -0.808680334512239 -0.11806364784016632
vn 0.7254634994817313 0.5532778956141748 0.409373034217534
vn 0.4026166549598351 0.9076302411895028 -0.11877362681689291
vn 0.37390033416998664 0.503989761072497 -0.778583881699114
vn 0.8660252457997266 -3.719497623380193e-7 -0.5000002736373099
vn 0.6701821090449339 -0.6982159153921752 -0.25169520497846454
vn 0.37771868484616516 -0.17160922788127844 -0.9098784908019724
vn 0.9479170468954938 -0.09274637550354604 -0.3047152474620882
vn 0.9670079005755767 -0.01852471145758598 -0.2540719490416616
vn 0.9327516331064395 0.0034815284464529404 -0.3605028015105387
vn 0.8602520868081159 -0.48308131502943524 0.16309135541687442
vn 0.2792091816833255 -0.9469920378565777 -0.15889717775962628
vn 0.714495415097794 0.6513892369784581 0.2553201201489089
vn 0.8598872965743869 -0.09262575954285392 0.5020102646949579
vn 0.7205712275462869 -0.6705915802464393 -0.1763066604953447
vn 0.6332874596930548 0.32613870956246993 0.701840819217894
vn 0.15805597361960208 0.35108458801664094 -0.9229073199733251
vn 0.3039446543654196 0.24352763322053936 -0.9210385111061796
vn 0.2667907429820904 0.04482099726054976 -0.9627116794054356
vn 0.29332118219981246 0.10333115846360348 -0.9504132552545099
vn 0.9438824099809441 -0.15456324555358258 0.291883879740742
vn 0.8909463984092303 0.023446977525434388 -0.45350276118954685
vn 0.4556773789074276 0.5606186756853594 0.691422321613101
vn 0.8388485859540283 0.5204903347001062 0.1594454807346354
vn 0.17409326181082596 0.08231784908317459 0.9812824812022211
vn 0.15114504497909811 0.20152213195664193 0.9677520373060013
vn 0.866025907710735 -1.5268549953925624e-8 -0.4999991271730355
vn -0.43462869082296873 -0.5825583933037976 -0.6868213883571261
vn -0.08968818828485223 0.947233828448295 -0.3077403176793175
vn -0.3046532118740009 0.7664393655103354 -0.5654707061298309
vn 0.4187408592553019 0.8872886008369231 0.19332623105773122
vn 0.43608158416588017 0.4892192593162774 0.7553127618843797
vn 0.3604321068710695 0.7967877910708904 -0.48499269307573406
vn 0.13780492894507562 0.7704016540169064 -0.6224878256210782
vn 0.4571456215262815 0.6037304054007052 0.653090712163364
vn 0.2479553180954727 0.727419097120934 -0.6398278029063273
vn 0.8660249967876026 0.0000016999371974342676 -0.5000007049356464
vn 0.8542600123796346 -0.13326872054006209 -0.5024731628403267
vn 0.8622231775257756 -0.0030639688083797063 -0.5065193029219088
vn 0.8610911494126632 -0.034161635156340256 -0.5073017002599379
vn 0.8660254670050481 -1.5322991092246975e-7 -0.4999998904986531
vn 0.4130807050699395 -0.5634323538085766 0.7154776822379917
vn -0.571323191487716 -0.3806819630471355 -0.7270976921149387
vn 0.35126089898286966 -0.9195507192868586 0.1761881253228127
vn 0.6944376260192177 -0.41065845372865495 0.5908604047911684
vn 0.51605206830273 -0.6850271930404235 0.5142256387964654
vn 0.853877768881827 -0.5149368363382169 -0.07571532467989674
vn 0.239814346633405 -0.9668682465770534 0.08749213055931225
vn 0.8303037858556364 0.45798828648675566 0.31755684945332774
vn -0.38031060665945465 -0.15558494559733813 -0.9116782147039552
vn -0.4795136936838396 0.4158225040992585 -0.7727601585578173
vn -0.5463669006234226 -0.3854334132532535 -0.7435887935217298
vn -0.3479096467829014 0.15958829291711424 -0.9238454710822576
vn 0.518008711940612 0.5252907361047162 -0.6750826741342081
vn 0.5180106347176865 -0.5252903235645864 -0.675081519735796
vn 0.5987374358817571 0.18073971163409452 -0.7802862548527708
vn 0.35675127214722735 -0.8102905385167531 -0.4649277072960542
vn 0.5987349576114354 -0.1807425601138547 -0.7802874966943418
vn 0.8436439853042059 -0.5252885206528626 -0.11107113094933442
vn 0.9751147556966072 0.1807477891758402 -0.12838009943442216
vn 0.5810164632571727 -0.8102894686957854 -0.07649082523301969
vn 0.975114827908028 -0.1807501535712149 -0.1283762220112405
vn 0.8436441865303915 0.5252883678679117 -0.1110703250924363
vn 0.6165341742984246 -0.15816278883340773 0.7712782533888785
vn 0.37175678504058224 0.3859486770402236 0.8442988282990755
vn 0.4172447116977012 -0.4095966147353506 0.8112567187750392
vn 0.5957260893319248 0.1550277057165431 0.7880842828971762
vn 0.24020573973855333 0.7250466468036081 -0.6454522155477496
vn 0.5410797028859126 -0.6522690337406516 0.5308275263660782
vn 0.42899657995647505 0.8695973286170872 -0.24446353602873735
vn 0.8196596756577994 -0.4909763685599088 -0.2951274667262872
vn 0.5552457408297916 0.8314740656890516 0.018789501773462117
vn -0.609122111749735 0.5910932084550272 -0.528752372945867
vn -0.23414150615911208 -0.5932509613913884 -0.7702149387682221
vn 0.6835216286463432 -0.47370677649418697 -0.5553378008709088
vn -0.07747546305249148 -0.72565616200854 -0.6836817148087534
vn 0.7845846343646117 -0.6020582660694673 -0.14816475888812147
vn -0.1822559709686987 0.8362781287082134 0.5171282746964682
vn -0.5954109855383902 0.76666851967866 0.2402189402065026
vn -0.5672039280060889 0.7871967798592797 0.24207629754613386
vn -0.13149451261993897 0.682374079573173 0.719079139370285
vn 0.5860430525304966 -0.7316604783523336 -0.3481759397172241
vn 0.6259839699193288 -0.690733380699675 -0.36198268769546815
vn -0.6710434739069563 0.7350626254904223 -0.09686894617993588
vn 0.39041324689236706 -0.5771009356359829 -0.7173088642551637
vn 0.8711929258244206 -0.47321066148820856 -0.1307461504113127
vn 0.5330435904743126 -0.5926170116694318 -0.6038788025210408
vn -0.3950711522919165 0.9086959755730207 -0.1348718228694693
vn 0.12345254535102398 0.9160556321028791 0.38157770891254694
vn -0.3168256766428138 0.9457068139450228 0.07252663426478145
vn 0.8659902375299882 0.017933650429763793 -0.49973922468125087
vn -0.13063227924553625 0.034321745144656975 -0.9908366290309122
vn 0.860553921396689 0.01734423560436057 -0.5090639703024383
vn -0.11132692066628273 -0.12503957610479402 -0.985886109620425
vn -0.8649401950459654 -0.34098014349198036 -0.3682539894394032
vn 0.8781563800882162 -0.048592955767637704 -0.47589925064043226
vn 0.8177358760704811 -0.053617914114721575 -0.5730908795934807
vn -0.38791471132435085 -0.3136022585999216 -0.8667039864562606
vn -0.10341542615044093 -0.6611557182818054 -0.7430870513051567
vn 0.09604564367092668 0.7288866783400061 0.6778638834384894
vn 0.47920105260836926 -0.2719425537851947 0.8345139894692104
vn 0.499364941332217 0.050380424299140955 0.8649257009799801
vn 0.22257040418513865 -0.8954632718099031 0.38549700909393275
vn 0.5569759938545108 0.20491968511970865 0.8048513309426899
vn -0.4336481069388769 -0.5162121362163488 -0.7385623533401107
vn 0.5411775490780123 0.46077770881606406 0.7034278665450596
vn -0.47134289482881964 -0.5883959109191045 -0.6569825930023302
vn 0.5426007399203182 0.2784845900031648 0.7924839242336039
vn -0.4418867119689212 -0.46791349564913803 -0.7653712134478927
vn -0.37030734672692295 -0.15300713974467461 0.9162211982633998
vn 0.05053206446417351 -0.992039824327547 -0.11534078814174353
vn 0.2141025587914565 -0.9748811642434266 -0.061374342540935115
vn 0.8021360269432964 -0.4825784370727961 -0.3517042029205801
vn 0.8530190605686617 -0.45903464094943475 -0.24828548228799413
vn -0.9706893992927129 0.0149257554642707 -0.23987353318899737
vn 0.9183558264867006 -0.16083002582924197 0.3616023765819228
vn -0.9584559979281244 -0.15894287638245533 -0.23685282789714557
vn 0.3965880493826512 -0.15260915730807437 -0.905222825713417
vn 0.5203225544471093 -0.8290293343091328 0.20487752973079074
vn 0.8723852624206435 -0.3477768240608861 0.34350434430642734
vn -0.34139654106300854 -0.4122571902520083 0.8446847996949709
vn 0.3970457113172957 0.1450338631880499 -0.9062670035112681
vn 0 -1 0
vn -0.21662323852304666 -0.8159740140189408 0.5359671454274086
vn 0.33504247249213376 0.5503594153722278 -0.764755552799388
vn -0.8404201838206573 0.5005635947428122 -0.20767764021436336
vn -0.05298444006122317 -0.9943695495627168 -0.09177062718451051
vn 0.866025933858618 0.0000022910497688309256 -0.49999908187821696
vn 0.8660255305924828 -0.0000013692773913164424 -0.49999978036008547
vn 0.8660258403004883 0.000001381022154288916 -0.4999992439293543
vn 0.8660248730270534 -3.8675981751809604e-7 -0.5000009192974815
vn 0.8660257812985699 0.000001459500389209308 -0.4999993461236443
vn 0.849659533853671 0.31303953234291 0.42436414518912274
vn 0.8660263896873263 -2.8075063169415333e-7 -0.4999982923621408
vn 0.7573884385571926 0.5372103209886564 -0.3711708826984715
vn 0.8823529760743745 0.38247579914927465 0.27416325187343776
vn 0.30020871371389735 0.45164591533055043 -0.8401730151435933
vn -0.030500803816371994 -0.9981377017645027 -0.05282830001838001
vn -0.15044498810512152 -0.95365871452073 -0.26057889740483375
vn -0.5591591623105245 -0.19984640109745463 -0.8046132283107131
vn 0.21505627019628376 0.788113994167592 0.5767383573566685
vn 0.337745299900562 -0.6278112647986526 0.7012710803868898
vn 0.4079369286061326 -0.5749534593297699 0.7092361961181378
vn -0.16335460861756254 -0.9830456678663049 -0.08328557337674831
vn 0.18687530276931577 0.961638561613619 0.20082056177734003
vn 0.3870406792081792 0.6330876822340907 0.6703726569912725
vn -0.0661598751833996 -0.9730046919050269 0.22109893813974038
vn -0.6384795565110292 0.7692348406556093 -0.024932224911124793
vn -0.2893845833075245 0.9401941866858753 0.17969823111543407
vn -0.40483565080648 0.4900881261557617 -0.7719596650325897
vn 0.13850245760196278 0.9608684050095601 0.23989367955950944
vn -0.3214309703461783 0.765981608523708 -0.5567354009812447
vn -0.6011829222807512 -0.21998323612340673 -0.7682359466873766
vn 0.04093150645676435 -0.6448827558590127 0.7631846716063323
vn 0.24946999048115662 0.12192371885085344 0.9606764963456271
vn 0.8202287146438836 -0.5522069908352567 -0.1493060445739346
vn -0.29088050920221553 -0.1961058011445366 -0.9364459643373555
vn -0.8299279550839336 0.4650782828737085 0.3080937846978467
vn -0.861405047323898 0.44671230530583617 0.24172186647727747
vn -0.7671662131179174 -0.43115561968242944 0.4749324510565422
vn -0.3589653324067926 -0.16535735995317297 0.9185863234554486
vn -0.5793217210413146 0.8013989985618188 0.1488152836030066
vn -0.5379720258743973 -0.6285681076893198 0.5616833924663115
vn -0.6801080872540092 0.7298086289802728 0.06951514020433007
vn -0.8874886517956295 0.42164141376658437 0.1859634671942105
vn -0.9220852155494165 -0.011440073172900569 0.3868177606974441
vn -0.7128143994327886 0.09719800497414076 0.6945848974677752
vn -0.9382559821097937 0.15970477692953614 0.3068714653744686
vn -0.5777802757364382 0.46066296870654594 0.6737652278296924
vn -0.6102802184876747 -0.06903550797640637 0.7891718149814244
vn 0.21177774947965466 -0.06702092417165886 -0.9750171180797337
vn -0.35785935468977514 -0.488362827384412 0.7958884539243681
vn -0.7647248473288498 0.4446391686466818 0.4663602873134193
vn -0.015415063137182687 -0.5983393336345298 0.8010945123106658
vn -0.30392038043580794 -0.5175498842372906 0.7998590623864437
vn -0.6085962600765548 0.5454188264724693 -0.5763062518750124
vn -0.6745907791697165 0.6179416227446167 0.40382599165846716
vn -0.4568635730073384 -0.6267884607615423 0.6311987809835702
vn -0.31650438998221153 0.6714637871803634 0.6700457847247394
vn -0.7434343837227152 -0.661758733684549 0.09685399057885534
vn -0.16221365801260695 -0.9751778770665842 0.15071442278056574
vn 0.09332627178252914 0.9563132896577884 0.2770471061373368
vn -0.7556484430023745 -0.6482779172123424 0.09344074401948449
vn 0.5411715118981515 0.06467889140233542 0.8384211565298398
vn -0.8660266633206675 -0.0000020521581531187842 0.49999781840870106
vn -0.8660262100281102 3.0321617383756235e-7 0.49999860354230563
vn -0.866025370904871 2.071428506339392e-7 0.5000000569490346
vn -0.8660245867642535 3.6614586976418685e-7 0.5000014151176674
vn -0.35046910665829395 -0.7653038962290926 0.5398901292806788
vn 0.3929889247938108 0.2804514344188677 0.8757320925498872
vn -0.6348180403601462 -0.4950761192260955 -0.5932163954286265
vn -0.3801059032980859 -0.789027620292387 0.4826540341628555
vn -0.07718300733248873 0.5534134151859578 0.8293228414021453
vn 0.5050425965425605 0.8627256140860227 0.025228762899595483
vn -0.74232041655066 0.6686853839744323 -0.04266446332746487
vn -0.866025060599829 1.5241507143894383e-7 0.5000005944126861
vn -0.5530695125555016 -0.6982157193819645 0.45454254310190356
vn -0.950127211766644 -0.11553635738198248 0.2896715926414699
vn -0.7378483669928049 -0.09274651168958913 0.6685640372436018
vn -0.7191581819064768 0.005470294822997792 0.6948248594225168
vn -0.7090933170692819 -0.08830094247759987 0.6995638721698331
vn -0.5554953739542071 -0.23014046955707204 0.7990370791067999
vn -0.2772124979986049 -0.9469923687345811 0.1623535786850442
vn -0.2563171764631543 0.6174615471362646 0.7436684361044557
vn -0.4792823945320776 0.01715539450783101 0.8774930647765137
vn -0.51296851036785 -0.6705903348006018 0.5358842321276169
vn 0.2911685085343551 0.3261395421537759 0.8993630516546722
vn -0.878289041515036 0.3510849861064154 -0.3245730920536353
vn -0.9496148544849687 0.2435283310316385 -0.19729566677055166
vn -0.9671281556191784 0.044822274027043495 -0.2503079989926227
vn -0.8981032457757987 0.2455132377568864 -0.3648750608264509
vn -0.21916522771173402 -0.15456334866318763 0.963367413924763
vn -0.8499057289626862 -0.05574011737253753 0.5239783308417445
vn 0.5232392180108044 0.5355281555795232 0.6628954029988714
vn 0.4098550474561167 0.6286814750727027 0.6608921568419126
vn 0.4227946837009826 0.18415851418444404 0.8873163455541456
vn 0.5070997246275781 0.27341270879467217 0.8173710050841014
vn -0.8660255218610168 4.4813604120583057e-7 0.4999997954851111
vn -0.187441552620286 -0.5210245859749586 -0.8327058575276864
vn -0.14631838222186827 0.9562235864438948 -0.2534312209502825
vn -0.31891001754279197 0.7701882908625453 -0.5523643700756663
vn -0.04194772384156114 0.8872888746819533 0.45930255968168243
vn 0.4360838039681139 0.4892187887707799 0.7553117850466459
vn -0.6934621236262997 0.7143471962325443 0.09390615704204723
vn -0.7073622270426646 0.6893172687896295 -0.15646208071493756
vn 0.197453288770779 0.6577580470943812 0.7268882653036774
vn -0.79528377711007 0.5946025752499912 -0.11820106332693989
vn -0.8601607752993443 -0.029917334127527822 0.5091447669917986
vn -0.8622840880050126 -0.13326681426731965 0.4885755906596275
vn -0.8699364631710731 0.0015742460110126457 0.49316130403236347
vn -0.8698818238564385 -0.03416269790272306 0.4920757285176777
vn -0.8660251591325787 0.0000018468216051707048 0.5000004237458016
vn 0.4130809517999917 -0.5634328080407129 0.7154771820843557
vn -0.4372959473639503 -0.41528835004239 -0.7976890626918076
vn 0.012779672527723747 -0.9446788773634547 0.32774761422992443
vn 0.2403539415217977 -0.4628196925629808 0.8532455185764789
vn 0.1357836917047466 -0.6480441769918242 0.7494007831154299
vn -0.17971850380506071 -0.7772590462930757 0.6029673576120426
vn -0.07608469783792413 -0.9674387353765249 0.24139886505114738
vn -0.14014211276049102 0.45798559632284697 0.8778435975684006
vn -0.5993814894042492 -0.15558377665941453 -0.7851977576381237
vn -0.4294718192340322 0.4158232810688437 -0.8016513926919557
vn -0.37078190031371794 -0.38543421055638594 -0.8449622782897022
vn -0.6261188620520443 0.15958714177580238 -0.7632215371453318
vn -0.8436447174139249 0.5252879647801261 0.11106819903434147
vn -0.843645143075865 -0.5252876415805208 0.11106649435035694
vn -0.9751165419116442 0.18074039806558884 0.12837693794980987
vn -0.5810167807820125 -0.8102891980695442 0.07649128016657707
vn -0.9751160742289849 -0.180743038551679 0.12837677280318016
vn -0.5180130905126681 -0.5252867163107258 0.6750824421691098
vn -0.598735893283371 0.18073419610356878 0.7802887160871677
vn -0.356754631856473 -0.8102888935963954 0.46492799610615204
vn -0.5987383755257966 -0.1807365888506986 0.780286257166781
vn -0.5180111902193598 0.5252902043786851 0.6750811862223102
vn 0.359672960486023 -0.15815799816479215 0.9195767554216046
vn 0.5453032557435551 0.3859486731887007 0.7441021307181969
vn 0.4939440223103603 -0.40959707005888907 0.7669742779409463
vn 0.38463090089619817 0.1550231357279489 0.9099598328854153
vn -0.6790849208523326 0.7250429142572246 -0.11470153772453126
vn 0.667246998691361 -0.15864600519845665 0.7277450705926783
vn -0.4118363451345638 0.8764253598405926 0.2495384007612707
vn -0.6588277527167521 -0.4613413370792359 0.5942307320832011
vn -0.3386439995392846 0.8278487729916731 0.44719867020399184
vn 0.3220788981817762 0.5583721981493533 -0.7645166261631415
vn -0.7520385820259723 -0.6371227342656601 -0.16885672218248937
vn -0.8701511786869851 -0.4868971075605334 0.07594822498805952
vn -0.4262334719321715 -0.6653684894643297 -0.6128701335785608
vn -0.5161683968637073 -0.5519542779536359 0.6549172933491915
vn 0.6016004930432772 0.6885491220379024 0.4049406787554438
vn 0.5450411798939835 0.753080143962401 -0.3685110703755639
vn 0.4785700344448291 0.7942370362058809 -0.3743771526821225
vn 0.6137945583257048 0.7818058229198065 0.10970822858125731
vn -0.5955271336491087 -0.726321068155278 0.3432275324641844
vn -0.6264787684578895 -0.6907327533383645 0.3611268698630555
vn 0.1633960073712627 0.7494425522157723 -0.6415899046146533
vn -0.771553101271774 -0.6169747088681244 0.1550742420100809
vn -0.548827252170602 -0.4732100375115489 0.689101522036619
vn -0.7894953274130176 -0.5926177669283536 0.15969129692586284
vn 0.08073298573013027 0.908695458866044 -0.40957874462834215
vn 0.26872918677366364 0.916056330809073 0.29770022331295554
vn 0.2212233083140175 0.9457065785387109 -0.23811617997777174
vn -0.852889170902762 0.003531714887832006 0.5220800600930382
vn -0.49304154887473195 0.16629685849425857 -0.8539645109359908
vn -0.8509710689946115 0.011171453424986445 0.5250937424522802
vn -0.4995664136518298 -0.04160749800215067 -0.8652758025398897
vn -0.43328758604453643 -0.49905470063126106 -0.750470701331865
vn -0.8544826064584172 -0.05052905739825061 0.5170167208306462
vn -0.8456593996187246 -0.042816956837310974 0.5320027143198521
vn -0.4769780784668805 -0.2999429472197493 -0.8261514032398499
vn -0.3762743968064203 -0.6585357645124273 -0.651727109430011
vn 0.3131391337409508 0.768908233437106 0.5574262385935883
vn 0.48106851118824157 -0.2725602041307639 0.8332370747076279
vn 0.49936503778143515 0.05038120278022587 0.8649255999494776
vn 0.21346275328476683 -0.8959978932821949 0.389385963016074
vn 0.528012264143164 0.12005821971117953 0.8407074834888719
vn -0.4269988466998299 -0.5202735672722979 -0.7395859653311256
vn 0.4807450245473157 0.42462863545668394 0.7671862507391509
vn -0.39560104494413595 -0.6115529668856592 -0.6852027305348802
vn 0.47760484780884016 0.2646504504061727 0.8377671206542452
vn -0.38641096624035554 -0.4528739063335028 -0.8034872681825326
vn 0.9786256440500611 -0.15300116178123271 0.13741358484951904
vn -0.6929175909315122 -0.6314535332206218 0.34803972124006555
vn 0.08568343242283633 -0.9511859445827402 -0.29648549414175673
vn -0.7056531444288433 -0.4825774663213792 0.5188184930749137
vn -0.6415319752975899 -0.45903407850432565 0.6145929054605636
vn 0.27760477690544766 0.014922664276156797 -0.9605794615388037
vn -0.1460188102990205 -0.16082638850611675 0.976121600928357
vn 0.27411046852336907 -0.15894512397426966 -0.9484724026616185
vn -0.9822391810560075 -0.1526123141614716 -0.10915893350846022
vn -0.08274495875142647 -0.8290265079013464 0.5530536330213588
vn -0.1387192304552416 -0.3477765520325847 0.927258564240974
vn 0.9022172347080132 -0.41225703342917175 0.12668148950815555
vn -0.9833724525037063 0.14503341898804162 -0.10928827491311847
vn 0 -1 0
vn 0.5724748345391342 -0.8159727076407272 0.08038099405239826
vn -0.8298220824094122 0.5503565389287365 -0.09221166739675037
vn 0.24033005508965907 0.500592632499766 -0.831654063242377
vn -0.052983754430232295 -0.9943695754252396 -0.09177074280567829
vn -0.8660239889807687 2.588941654280708e-8 0.500002450503832
vn -0.8660253770690344 0.000006392820800741765 0.5000000462315667
vn -0.8660251407566513 3.8663032827420864e-7 0.5000004555770653
vn -0.8660266045836482 -9.610856443505484e-7 0.4999979201480681
vn -0.8660230177738337 0.0000056058287065081845 0.5000041326373984
vn -0.05732521862782675 0.31304142557661896 0.9480078508020016
vn -0.8660252771757762 4.950569130449417e-7 0.5000002192923273
vn -0.7001394516144631 0.5372084551338012 0.4703316107022296
vn -0.20374120489075329 0.3824754352043879 0.9012225379421437
vn -0.8777181816869419 0.45164156376473447 -0.16009588194676982
vn -0.030500478980114848 -0.9981377017645603 -0.05282848756253851
vn -0.1504457366836656 -0.9536582421482012 -0.2605801939835645
vn -0.3153234391895365 -0.2051641177449411 -0.9265413177444506
vn 0.8660250263455636 0.000003379963671847797 -0.5000006537313143
vn 0.8660256622445331 -1.634084060016178e-8 -0.4999995523337172
vn -0.8660248245161639 0.0000010284245150382684 0.5000010033196833
vn -0.8660245600128151 -3.842953440477748e-7 0.5000014614523267
usemtl m_cd002a01-7b91-4801-b790-b6903de5fdc5
f 1/1/1 2/2/1 3/3/1 4/4/1
f 5/5/2 6/6/2 7/7/2 8/8/2
f 9/9/3 10/10/3 11/11/3 12/12/3
f 10/13/4 13/14/4 14/15/4 11/16/4
f 15/17/5 9/18/5 12/19/5 16/20/5
f 17/21/6 18/22/6 19/23/6
f 20/24/7 5/25/7 8/26/7
f 21/27/8 22/28/8 23/29/8 24/30/8
f 25/31/9 26/32/9 27/33/9 28/34/9
f 207/35/10 29/36/10 30/37/10 31/38/10
f 32/39/11 33/40/11 34/41/11 35/42/11
f 348/43/12 36/44/12 37/45/12 38/46/12
f 39/47/13 40/48/13 41/49/13 42/50/13
f 43/51/14 44/52/14 45/53/14 46/54/14
f 47/55/15 4/56/15 48/57/15 49/58/15
f 50/59/16 51/60/16 52/61/16 53/62/16
f 54/63/17 55/64/17 56/65/17 57/66/17
f 58/67/18 59/68/18 60/69/18 61/70/18
f 41/71/19 62/72/19 63/73/19 64/74/19
f 45/75/20 42/76/20 65/77/20 66/78/20
f 67/79/21 43/80/21 46/81/21 68/82/21
f 69/83/22 24/84/22 58/85/22 62/86/22
f 44/87/23 39/88/23 42/89/23 45/90/23
f 40/91/24 69/92/24 62/93/24 41/94/24
f 24/95/25 23/96/25 59/97/25 58/98/25
f 63/99/26 66/100/26 65/101/26 64/102/26
f 66/103/27 63/104/27 61/105/27 70/106/27
f 70/107/28 61/108/28 60/109/28 71/110/28
f 16/111/29 12/112/29 72/113/29 73/114/29
f 46/115/30 45/116/30 66/117/30 70/118/30
f 42/119/31 41/120/31 64/121/31 65/122/31
f 68/123/32 46/124/32 70/125/32 71/126/32
f 62/127/33 58/128/33 61/129/33 63/130/33
f 74/131/34 75/132/34 76/133/34 77/134/34
f 78/135/35 79/136/35 80/137/35 81/138/35
f 82/139/36 83/140/36 84/141/36 85/142/36
f 74/143/37 86/144/37 87/145/37 75/146/37
f 11/147/38 14/148/38 88/149/38 89/150/38
f 3/151/39 16/152/39 73/153/39 90/154/39
f 91/155/40 92/156/40 68/157/40
f 93/158/41 20/159/41 79/160/41 78/161/41
f 2/162/42 15/163/42 16/164/42 3/165/42
f 67/166/43 68/167/43 92/168/43
f 18/169/44 1/170/44 4/171/44 47/172/44
f 94/173/45 92/174/45 95/175/45 52/176/45
f 96/177/46 92/178/46 94/179/46 85/180/46
f 96/181/47 85/182/47 84/183/47 80/184/47
f 80/185/48 84/186/48 48/187/48
f 79/188/49 99/189/49 96/190/49 80/191/49
f 51/192/50 100/193/50 94/194/50 52/195/50
f 83/196/51 101/197/51 102/198/51 84/199/51
f 99/200/52 67/201/52 92/202/52 96/203/52
f 103/204/53 47/205/53 49/206/53 104/207/53
f 85/208/54 94/209/54 100/210/54 105/211/54
f 106/212/55 75/213/55 107/214/55 95/215/55
f 95/216/56 92/217/56 91/218/56 108/219/56
f 71/220/57 91/221/57 68/222/57
f 71/223/58 60/224/58 108/225/58 91/226/58
f 89/227/59 73/228/59 72/229/59
f 109/230/60 110/231/60 90/232/60 111/233/60
f 111/234/61 90/235/61 73/236/61 89/237/61
f 12/238/62 11/239/62 89/240/62 72/241/62
f 13/242/63 10/243/63 93/244/63
f 4/245/64 3/246/64 90/247/64 110/248/64
f 81/249/65 48/250/65 110/251/65 109/252/65
f 78/253/66 81/254/66 109/255/66
f 4/256/67 110/257/67 48/258/67
f 106/259/68 23/260/68 22/261/68
f 23/262/69 106/263/69 59/264/69
f 60/265/70 59/266/70 108/267/70
f 95/268/71 108/269/71 59/270/71 106/271/71
f 81/272/72 80/273/72 48/274/72
f 112/275/73 56/276/73 31/277/73 30/278/73
f 113/279/74 114/280/74 22/281/74 115/282/74
f 36/283/75 116/284/75 21/285/75 37/286/75
f 33/287/76 288/288/76 26/289/76 34/290/76
f 117/291/77 118/292/77 25/293/77 119/294/77
f 26/295/78 120/296/78 19/297/78
f 55/298/79 207/299/79 31/300/79 56/301/79
f 121/302/80 117/303/80 119/304/80 122/305/80
f 123/306/81 113/307/81 115/308/81 124/309/81
f 26/310/82 19/311/82 103/312/82 27/313/82
f 125/314/83 17/315/83 19/316/83 120/317/83
f 56/318/84 112/319/84 69/320/84 40/321/84
f 22/322/85 25/323/85 28/324/85 106/325/85
f 19/326/86 18/327/86 47/328/86 103/329/86
f 112/330/87 21/331/87 24/332/87 69/333/87
f 126/334/88 127/335/88 128/336/88 129/337/88
f 127/338/89 8/339/89 7/340/89
f 57/341/90 130/342/90 131/343/90 132/344/90
f 133/345/91 130/346/91 134/347/91
f 130/348/92 126/349/92 135/350/92 134/351/92
f 136/352/93 137/353/93 133/354/93 134/355/93
f 138/356/94 54/357/94 57/358/94 132/359/94
f 8/360/95 127/361/95 67/362/95 99/363/95
f 126/364/96 130/365/96 44/366/96 43/367/96
f 127/368/97 126/369/97 43/370/97 67/371/97
f 130/372/98 57/373/98 39/374/98 44/375/98
f 8/376/99 99/377/99 79/378/99 20/379/99
f 49/380/100 98/381/100 104/382/100
f 51/383/101 139/384/101 140/385/101
f 51/386/102 50/387/102 141/388/102
f 51/389/103 140/390/103 100/391/103
f 51/392/104 141/393/104 139/394/104
f 141/395/105 50/396/105 142/397/105 143/398/105
f 100/399/106 140/400/106 144/401/106 145/402/106
f 139/403/107 141/404/107 143/405/107 146/406/107
f 105/407/108 100/408/108 145/409/108
f 140/410/109 139/411/109 146/412/109 144/413/109
f 145/414/110 144/415/110 147/416/110 82/417/110
f 146/418/111 143/419/111 148/420/111 149/421/111
f 105/422/112 145/423/112 82/424/112
f 144/425/113 146/426/113 149/427/113 147/428/113
f 143/429/114 142/430/114 101/431/114 148/432/114
f 147/433/115 149/434/115 83/435/115
f 148/436/116 101/437/116 83/438/116
f 82/439/117 147/440/117 83/441/117
f 149/442/118 148/443/118 83/444/118
f 85/445/119 105/446/119 82/447/119
f 77/448/120 76/449/120 150/450/120 151/451/120
f 75/452/121 87/453/121 152/454/121 107/455/121
f 103/456/122 87/457/122 153/458/122 154/459/122
f 87/460/123 103/461/123 104/462/123 152/463/123
f 106/464/124 28/465/124 155/466/124 156/467/124
f 87/468/125 86/469/125 157/470/125 153/471/125
f 75/472/126 106/473/126 156/474/126 76/475/126
f 153/476/127 157/477/127 151/478/127 150/479/127
f 154/480/128 153/481/128 150/482/128 158/483/128
f 159/484/129 154/485/129 158/486/129 160/487/129
f 155/488/130 159/489/130 160/490/130 161/491/130
f 28/492/131 27/493/131 159/494/131 155/495/131
f 27/496/132 103/497/132 154/498/132 159/499/132
f 86/500/133 74/501/133 77/502/133 157/503/133
f 157/504/134 77/505/134 151/506/134
f 156/507/135 155/508/135 161/509/135 162/510/135
f 76/511/136 156/512/136 162/513/136 150/514/136
f 158/515/137 150/516/137 163/517/137
f 150/518/138 162/519/138 163/520/138
f 162/521/139 161/522/139 163/523/139
f 158/524/140 163/525/140 160/526/140
f 161/527/141 160/528/141 163/529/141
f 34/530/142 26/531/142 25/532/142 35/533/142
f 120/534/143 26/535/143 288/536/143 125/537/143
f 119/538/144 25/539/144 22/540/144 122/541/144
f 35/542/145 25/543/145 118/544/145 32/545/145
f 124/546/146 21/547/146 116/548/146 123/549/146
f 37/550/147 21/551/147 112/552/147 38/553/147
f 115/554/148 22/555/148 21/556/148 124/557/148
f 122/558/149 22/559/149 114/560/149 121/561/149
f 38/562/150 112/563/150 164/564/150 348/565/150
f 29/566/151 164/567/151 112/568/151 30/569/151
f 128/570/152 165/571/152 166/572/152 129/573/152
f 135/574/153 167/575/153 136/576/153 134/577/153
f 131/578/154 168/579/154 138/580/154 132/581/154
f 128/582/155 127/583/155 329/584/155 165/585/155
f 6/586/156 329/587/156 127/588/156 7/589/156
f 135/590/157 126/591/157 169/592/157 167/593/157
f 166/594/158 169/595/158 126/596/158 129/597/158
f 131/598/159 130/599/159 170/600/159 168/601/159
f 130/602/160 133/603/160 137/604/160 170/605/160
f 14/606/161 13/607/161 171/608/161 172/609/161
f 88/610/162 173/611/162 78/612/162 109/613/162
f 13/614/163 93/615/163 78/616/163 173/617/163
f 109/618/164 111/619/164 88/620/164
f 89/621/165 88/622/165 111/623/165
f 171/624/166 174/625/166 175/626/166 176/627/166
f 88/628/167 14/629/167 172/630/167 177/631/167
f 13/632/168 173/633/168 174/634/168 171/635/168
f 173/636/169 88/637/169 177/638/169 174/639/169
f 178/640/170 179/641/170 180/642/170 181/643/170
f 177/644/171 172/645/171 179/646/171 178/647/171
f 172/648/172 171/649/172 176/650/172 179/651/172
f 174/652/173 177/653/173 178/654/173 175/655/173
f 180/656/174 182/657/174 183/658/174 181/659/174
f 179/660/175 176/661/175 182/662/175 180/663/175
f 175/664/176 178/665/176 181/666/176 183/667/176
f 176/668/177 175/669/177 183/670/177 182/671/177
f 102/672/178 53/673/178 184/674/178 185/675/178
f 84/676/179 102/677/179 97/678/179
f 53/679/180 52/680/180 186/681/180
f 152/682/181 104/683/181 187/684/181 188/685/181
f 107/686/182 152/687/182 188/688/182 186/689/182
f 95/690/183 107/691/183 186/692/183 52/693/183
f 98/694/184 49/695/184 48/696/184
f 98/697/185 97/698/185 187/699/185 104/700/185
f 185/701/186 184/702/186 188/703/186 187/704/186
f 185/705/187 187/706/187 97/707/187
f 184/708/188 186/709/188 188/710/188
f 53/711/189 186/712/189 184/713/189
f 97/714/190 102/715/190 185/716/190
f 39/717/191 57/718/191 56/719/191 40/720/191
f 1/721/192 189/722/192 190/723/192 2/724/192
f 5/725/193 191/726/193 192/727/193 6/728/193
f 9/729/194 193/730/194 194/731/194 10/732/194
f 10/733/195 194/734/195 195/735/195 196/736/195
f 15/737/196 197/738/196 193/739/196 9/740/196
f 17/741/197 198/742/197 18/743/197
f 20/744/198 191/745/198 5/746/198
f 199/747/199 200/748/199 201/749/199 202/750/199
f 203/751/200 204/752/200 205/753/200 206/754/200
f 207/755/201 208/756/201 209/757/201 29/758/201
f 32/759/202 210/760/202 211/761/202 33/762/202
f 348/763/203 212/764/203 213/765/203 36/766/203
f 214/767/204 215/768/204 216/769/204 217/770/204
f 218/771/205 219/772/205 220/773/205 221/774/205
f 222/775/206 223/776/206 224/777/206 189/778/206
f 225/779/207 226/780/207 227/781/207 228/782/207
f 54/783/208 229/784/208 230/785/208 231/786/208
f 232/787/209 233/788/209 234/789/209 235/790/209
f 216/791/210 236/792/210 237/793/210 238/794/210
f 220/795/211 239/796/211 240/797/211 215/798/211
f 241/799/212 242/800/212 219/801/212 218/802/212
f 243/803/213 238/804/213 232/805/213 200/806/213
f 221/807/214 220/808/214 215/809/214 214/810/214
f 217/811/215 216/812/215 238/813/215 243/814/215
f 200/815/216 232/816/216 235/817/216 201/818/216
f 237/819/217 236/820/217 240/821/217 239/822/217
f 239/823/218 244/824/218 233/825/218 237/826/218
f 244/827/219 245/828/219 234/829/219 233/830/219
f 197/831/220 246/832/220 247/833/220 193/834/220
f 219/835/221 244/836/221 239/837/221 220/838/221
f 215/839/222 240/840/222 236/841/222 216/842/222
f 242/843/223 245/844/223 244/845/223 219/846/223
f 238/847/224 237/848/224 233/849/224 232/850/224
f 248/851/225 249/852/225 250/853/225 251/854/225
f 252/855/226 253/856/226 254/857/226 255/858/226
f 256/859/227 257/860/227 258/861/227 259/862/227
f 248/863/228 251/864/228 260/865/228 261/866/228
f 194/867/229 262/868/229 263/869/229 195/870/229
f 190/871/230 264/872/230 246/873/230 197/874/230
f 265/875/231 242/876/231 266/877/231
f 93/878/232 252/879/232 255/880/232 20/881/232
f 2/882/233 190/883/233 197/884/233 15/885/233
f 241/886/234 266/887/234 242/888/234
f 18/889/235 222/890/235 189/891/235 1/892/235
f 267/893/236 227/894/236 268/895/236 266/896/236
f 269/897/237 257/898/237 267/899/237 266/900/237
f 269/901/238 254/902/238 258/903/238 257/904/238
f 254/905/239 224/906/239 258/907/239
f 255/908/240 254/909/240 269/910/240 272/911/240
f 228/912/241 227/913/241 267/914/241 273/915/241
f 259/916/242 258/917/242 274/918/242 275/919/242
f 272/920/243 269/921/243 266/922/243 241/923/243
f 276/924/244 277/925/244 223/926/244 222/927/244
f 257/928/245 278/929/245 273/930/245 267/931/245
f 279/932/246 268/933/246 280/934/246 251/935/246
f 268/936/247 281/937/247 265/938/247 266/939/247
f 245/940/248 242/941/248 265/942/248
f 245/943/249 265/944/249 281/945/249 234/946/249
f 262/947/250 247/948/250 246/949/250
f 282/950/251 283/951/251 264/952/251 284/953/251
f 283/954/252 262/955/252 246/956/252 264/957/252
f 193/958/253 247/959/253 262/960/253 194/961/253
f 196/962/254 93/963/254 10/964/254
f 189/965/255 284/966/255 264/967/255 190/968/255
f 253/969/256 282/970/256 284/971/256 224/972/256
f 252/973/257 282/974/257 253/975/257
f 189/976/258 224/977/258 284/978/258
f 279/979/259 202/980/259 201/981/259
f 201/982/260 235/983/260 279/984/260
f 234/985/261 281/986/261 235/987/261
f 268/988/262 279/989/262 235/990/262 281/991/262
f 253/992/263 224/993/263 254/994/263
f 285/995/264 209/996/264 208/997/264 230/998/264
f 113/999/265 286/1000/265 202/1001/265 287/1002/265
f 36/1003/266 213/1004/266 199/1005/266 116/1006/266
f 33/1007/267 211/1008/267 206/1009/267 288/1010/267
f 117/1011/268 289/1012/268 203/1013/268 290/1014/268
f 206/1015/269 198/1016/269 291/1017/269
f 231/1018/270 230/1019/270 208/1020/270 207/1021/270
f 121/1022/271 292/1023/271 289/1024/271 117/1025/271
f 123/1026/272 293/1027/272 286/1028/272 113/1029/272
f 206/1030/273 205/1031/273 276/1032/273 198/1033/273
f 125/1034/274 291/1035/274 198/1036/274 17/1037/274
f 230/1038/275 217/1039/275 243/1040/275 285/1041/275
f 202/1042/276 279/1043/276 204/1044/276 203/1045/276
f 198/1046/277 276/1047/277 222/1048/277 18/1049/277
f 285/1050/278 243/1051/278 200/1052/278 199/1053/278
f 294/1054/279 295/1055/279 296/1056/279 297/1057/279
f 297/1058/280 192/1059/280 191/1060/280
f 229/1061/281 298/1062/281 299/1063/281 300/1064/281
f 301/1065/282 302/1066/282 300/1067/282
f 300/1068/283 302/1069/283 303/1070/283 294/1071/283
f 136/1072/284 302/1073/284 301/1074/284 137/1075/284
f 349/1076/285 298/1077/285 229/1078/285 54/1079/285
f 191/1080/286 272/1081/286 241/1082/286 297/1083/286
f 294/1084/287 218/1085/287 221/1086/287 300/1087/287
f 297/1088/288 241/1089/288 218/1090/288 294/1091/288
f 300/1092/289 221/1093/289 214/1094/289 229/1095/289
f 191/1096/290 20/1097/290 255/1098/290 272/1099/290
f 223/1100/291 277/1101/291 270/1102/291
f 228/1103/292 304/1104/292 305/1105/292
f 228/1106/293 306/1107/293 225/1108/293
f 228/1109/294 273/1110/294 304/1111/294
f 228/1112/295 305/1113/295 306/1114/295
f 306/1115/296 307/1116/296 308/1117/296 225/1118/296
f 273/1119/297 309/1120/297 310/1121/297 304/1122/297
f 305/1123/298 311/1124/298 307/1125/298 306/1126/298
f 278/1127/299 309/1128/299 273/1129/299
f 304/1130/300 310/1131/300 311/1132/300 305/1133/300
f 309/1134/301 256/1135/301 312/1136/301 310/1137/301
f 311/1138/302 313/1139/302 314/1140/302 307/1141/302
f 278/1142/303 256/1143/303 309/1144/303
f 310/1145/304 312/1146/304 313/1147/304 311/1148/304
f 307/1149/305 314/1150/305 275/1151/305 308/1152/305
f 312/1153/306 259/1154/306 313/1155/306
f 314/1156/307 259/1157/307 275/1158/307
f 256/1159/308 259/1160/308 312/1161/308
f 313/1162/309 259/1163/309 314/1164/309
f 257/1165/310 256/1166/310 278/1167/310
f 249/1168/311 315/1169/311 316/1170/311 250/1171/311
f 251/1172/312 280/1173/312 317/1174/312 260/1175/312
f 276/1176/313 318/1177/313 319/1178/313 260/1179/313
f 260/1180/314 317/1181/314 277/1182/314 276/1183/314
f 279/1184/315 320/1185/315 321/1186/315 204/1187/315
f 260/1188/316 319/1189/316 322/1190/316 261/1191/316
f 251/1192/317 250/1193/317 320/1194/317 279/1195/317
f 319/1196/318 316/1197/318 315/1198/318 322/1199/318
f 318/1200/319 323/1201/319 316/1202/319 319/1203/319
f 324/1204/320 325/1205/320 323/1206/320 318/1207/320
f 321/1208/321 326/1209/321 325/1210/321 324/1211/321
f 204/1212/322 321/1213/322 324/1214/322 205/1215/322
f 205/1216/323 324/1217/323 318/1218/323 276/1219/323
f 261/1220/324 322/1221/324 249/1222/324 248/1223/324
f 322/1224/325 315/1225/325 249/1226/325
f 320/1227/326 327/1228/326 326/1229/326 321/1230/326
f 250/1231/327 316/1232/327 327/1233/327 320/1234/327
f 323/1235/328 328/1236/328 316/1237/328
f 316/1238/329 328/1239/329 327/1240/329
f 327/1241/330 328/1242/330 326/1243/330
f 323/1244/331 325/1245/331 328/1246/331
f 326/1247/332 328/1248/332 325/1249/332
f 211/1250/333 210/1251/333 203/1252/333 206/1253/333
f 291/1254/334 125/1255/334 288/1256/334 206/1257/334
f 289/1258/335 292/1259/335 202/1260/335 203/1261/335
f 210/1262/336 32/1263/336 290/1264/336 203/1265/336
f 293/1266/337 123/1267/337 116/1268/337 199/1269/337
f 213/1270/338 212/1271/338 285/1272/338 199/1273/338
f 286/1274/339 293/1275/339 199/1276/339 202/1277/339
f 292/1278/340 121/1279/340 287/1280/340 202/1281/340
f 212/1282/341 348/1283/341 164/1284/341 285/1285/341
f 29/1286/342 209/1287/342 285/1288/342 164/1289/342
f 296/1290/343 295/1291/343 166/1292/343 165/1293/343
f 303/1294/344 302/1295/344 136/1296/344 167/1297/344
f 299/1298/345 298/1299/345 349/1300/345 168/1301/345
f 296/1302/346 165/1303/346 329/1304/346 297/1305/346
f 6/1306/347 192/1307/347 297/1308/347 329/1309/347
f 303/1310/348 167/1311/348 169/1312/348 294/1313/348
f 166/1314/349 295/1315/349 294/1316/349 169/1317/349
f 299/1318/350 168/1319/350 170/1320/350 300/1321/350
f 300/1322/351 170/1323/351 137/1324/351 301/1325/351
f 195/1326/352 330/1327/352 331/1328/352 196/1329/352
f 263/1330/353 282/1331/353 252/1332/353 332/1333/353
f 196/1334/354 332/1335/354 252/1336/354 93/1337/354
f 282/1338/355 263/1339/355 283/1340/355
f 262/1341/356 283/1342/356 263/1343/356
f 331/1344/357 333/1345/357 334/1346/357 335/1347/357
f 263/1348/358 336/1349/358 330/1350/358 195/1351/358
f 196/1352/359 331/1353/359 335/1354/359 332/1355/359
f 332/1356/360 335/1357/360 336/1358/360 263/1359/360
f 337/1360/361 338/1361/361 339/1362/361 340/1363/361
f 336/1364/362 337/1365/362 340/1366/362 330/1367/362
f 330/1368/363 340/1369/363 333/1370/363 331/1371/363
f 335/1372/364 334/1373/364 337/1374/364 336/1375/364
f 339/1376/365 338/1377/365 341/1378/365 342/1379/365
f 340/1380/366 339/1381/366 342/1382/366 333/1383/366
f 334/1384/367 341/1385/367 338/1386/367 337/1387/367
f 333/1388/368 342/1389/368 341/1390/368 334/1391/368
f 274/1392/369 343/1393/369 344/1394/369 226/1395/369
f 258/1396/370 271/1397/370 274/1398/370
f 226/1399/371 345/1400/371 227/1401/371
f 317/1402/372 346/1403/372 347/1404/372 277/1405/372
f 280/1406/373 345/1407/373 346/1408/373 317/1409/373
f 268/1410/374 227/1411/374 345/1412/374 280/1413/374
f 270/1414/375 224/1415/375 223/1416/375
f 270/1417/376 277/1418/376 347/1419/376 271/1420/376
f 343/1421/377 347/1422/377 346/1423/377 344/1424/377
f 343/1425/378 271/1426/378 347/1427/378
f 344/1428/379 346/1429/379 345/1430/379
f 226/1431/380 344/1432/380 345/1433/380
f 271/1434/381 343/1435/381 274/1436/381
f 214/1437/382 217/1438/382 230/1439/382 229/1440/382
f 48/1441/383 84/1442/383 97/1443/383
f 48/1444/384 97/1445/384 98/1446/384
f 271/1447/385 258/1448/385 224/1449/385
f 270/1450/386 271/1451/386 224/1452/386