# Made in Blockbench 5.1.4
mtllib Mo_Twolf_Tail.mtl

o Tail.002
v 0.205452 1.270032 -4.637225
v 0.324416 2.311584 -5.040432
v 0.228608 1.757972 -5.935273
v 0.085859 0.413268 -5.045607
v 0.10345 1.012112 -7.007404
v -0.073423 -0.750216 -5.493794
v 0.002759 0.369648 -7.688597
v -0.218735 -1.773782 -6.064647
v -0.186169 -1.011101 -8.21716
v -0.355941 -2.718513 -6.696583
v -0.349907 -2.24051 -8.535169
v -0.462537 -3.415925 -7.343876
v -0.482138 -3.237543 -8.774055
v -0.546393 -3.916965 -8.056572
v -0.548656 -3.710449 -9.016732
v -0.593614 -4.09496 -8.903309
v -0.600155 -4.046909 -9.331483
v 0.303347 1.930238 -4.12711
v 0.377539 2.541252 -4.21372
v 0.384074 2.448148 -3.593051
v 0.31828 -1.732255 -6.101497
v 0.195564 -2.577218 -6.666696
v 0.70946 -2.227935 -6.591218
v 0.803699 -1.579053 -6.157177
v 0.523026 2.113316 -5.130127
v 0.570539 2.318729 -4.390721
v 0.932201 1.576338 -4.830565
v 0.895714 1.418592 -5.398386
v 0.347406 -1.050116 -8.026693
v 0.516382 0.184819 -7.553949
v 0.95583 -0.106852 -7.272577
v 0.826066 -1.05521 -7.635617
v 0.100224 -3.200979 -7.245633
v 0.025224 -3.649107 -7.883064
v 0.57865 -3.051084 -7.525318
v 0.636245 -2.706947 -7.035809
v 0.718381 1.426528 -5.985785
v 1.110953 0.846709 -6.068318
v -0.02286 -3.765328 -9.023337
v 0.0232 -3.4644 -8.741826
v 0.57794 -2.879093 -8.284947
v 0.437106 -3.349281 -8.47068
v 0.082694 -3.041435 -8.524777
v 0.20096 -2.149694 -8.311119
v 0.713604 -1.899621 -7.854039
v 0.623627 -2.554281 -8.118266
v -0.017011 -3.808305 -8.640381
v 0.486335 -3.313581 -8.149613
v 0.448246 -0.816783 -5.590929
v 0.903505 -0.876024 -5.765092
v 0.514666 1.169444 -4.77238
v 0.590707 0.223832 -5.190072
v 0.932242 -0.066761 -5.454888
v 0.814004 0.703209 -5.121446
v 0.60644 0.759435 -6.944694
v 0.622631 1.757366 -4.316735
v 0.576385 2.235458 -3.835598
v 0.881243 1.156667 -4.771077
v 1.118132 0.132655 -5.47594
v 1.000934 0.963674 -5.16765
v 1.038097 -1.033574 -7.286448
v 0.955447 -1.654146 -7.44697
v 0.814847 -2.72099 -7.672309
v 0.856266 -2.500375 -7.205388
v 1.095008 -0.901886 -5.911767
v 1.175409 -0.314591 -5.685534
v 0.8887 -2.157421 -7.567554
v 0.855124 -2.396131 -7.69005
v 1.024989 0.33442 -6.804704
v 1.247465 0.364179 -6.134614
v 1.184289 -0.012311 -6.675797
v 0.848334 1.719122 -4.342779
v 0.952401 -1.895429 -6.518902
v 1.021659 -1.418555 -6.199918
v 1.151728 0.661724 -5.67869
v 1.133463 -0.336609 -7.019644
v 0.898594 -2.247463 -6.845639
v -0.730045 -1.600599 -6.070708
v -1.164945 -1.331816 -6.09936
v -1.259184 -1.980698 -6.533401
v -0.852761 -2.445561 -6.635908
v 0.078137 2.169188 -5.117062
v -0.469495 1.590045 -5.358291
v -0.433008 1.747791 -4.790471
v 0.12565 2.374602 -4.377655
v -0.700918 -0.91846 -7.995905
v -1.142577 -0.807974 -7.577799
v -1.012813 0.140385 -7.214759
v -0.531942 0.316475 -7.52316
v -0.9481 -3.069323 -7.214845
v -1.332399 -2.459711 -6.977991
v -1.389994 -2.803847 -7.4675
v -1.0231 -3.51745 -7.852275
v -0.329943 1.558185 -5.954996
v -0.85769 1.093945 -6.0105
v -1.071185 -3.633672 -8.992549
v -1.381377 -3.120903 -8.417274
v -1.390704 -2.631856 -8.22713
v -1.025125 -3.332744 -8.711038
v -0.965631 -2.909779 -8.493989
v -1.345017 -2.307044 -8.060449
v -1.25504 -1.652385 -7.796222
v -0.847364 -2.018038 -8.280331
v -1.065335 -3.676649 -8.609592
v -1.401625 -3.076477 -8.094166
v -0.600078 -0.685126 -5.56014
v -1.065138 -0.628787 -5.707274
v -0.126305 1.249942 -4.753556
v -0.551205 0.874662 -5.081351
v -0.875072 0.160214 -5.401809
v -0.457617 0.355489 -5.159283
v -0.441884 0.891092 -6.913905
v 0.131495 2.29133 -3.822532
v -0.059155 1.842989 -4.296712
v -0.483966 1.32812 -4.730982
v -0.670336 1.173564 -5.118566
v -1.006826 0.399522 -5.413531
v -1.4048 -1.357729 -7.377653
v -1.32215 -0.737157 -7.21713
v -1.503981 -2.203958 -7.13607
v -1.5454 -2.424573 -7.602991
v -1.184837 -0.018174 -5.616217
v -1.265238 -0.605469 -5.84245
v -1.505123 -2.099714 -7.620732
v -1.471546 -1.861004 -7.498236
v -0.943654 0.581657 -6.746887
v -1.175958 0.284106 -6.606479
v -1.112781 0.660596 -6.065296
v -0.288426 1.861885 -4.309393
v -1.338588 -1.122138 -6.1306
v -1.407846 -1.599012 -6.449584
v -0.920322 0.921947 -5.617836
v -1.226784 -0.040192 -6.950326
v -1.461653 -1.951046 -6.776321
vt 0.921875 0.859375
vt 0.921875 0.859375
vt 0.921875 0.859375
vt 0.921875 0.859375
vt 0.921875 0.859375
vt 0.921875 0.859375
vt 0.921875 0.859375
vt 0.921875 0.859375
vt 0.921875 0.859375
vt 0.921875 0.859375
vt 0.921875 0.859375
vt 0.921875 0.859375
vt 0.921875 0.859375
vt 0.921875 0.859375
vt 0.921875 0.859375
vt 0.921875 0.859375
vt 0.171875 0.828125
vt 0.171875 0.828125
vt 0.171875 0.828125
vt 0.171875 0.828125
vt 0.171875 0.828125
vt 0.171875 0.828125
vt 0.171875 0.828125
vt 0.171875 0.828125
vt 0.171875 0.828125
vt 0.171875 0.828125
vt 0.171875 0.828125
vt 0.171875 0.828125
vt 0.171875 0.828125
vt 0.171875 0.828125
vt 0.171875 0.828125
vt 0.921875 0.859375
vt 0.921875 0.859375
vt 0.921875 0.859375
vt 0.921875 0.859375
vt 0.921875 0.859375
vt 0.921875 0.859375
vt 0.921875 0.859375
vt 0.921875 0.859375
vt 0.921875 0.859375
vt 0.921875 0.859375
vt 0.921875 0.859375
vt 0.921875 0.859375
vt 0.921875 0.859375
vt 0.921875 0.859375
vt 0.921875 0.859375
vt 0.921875 0.859375
vt 0.921875 0.859375
vt 0.921875 0.859375
vt 0.921875 0.859375
vt 0.171875 0.828125
vt 0.171875 0.828125
vt 0.171875 0.828125
vt 0.171875 0.828125
vt 0.921875 0.859375
vt 0.921875 0.859375
vt 0.921875 0.859375
vt 0.921875 0.859375
vt 0.171875 0.828125
vt 0.171875 0.828125
vt 0.171875 0.828125
vt 0.171875 0.828125
vt 0.171875 0.828125
vt 0.171875 0.828125
vt 0.171875 0.828125
vt 0.171875 0.828125
vt 0.171875 0.828125
vt 0.171875 0.828125
vt 0.171875 0.828125
vt 0.171875 0.828125
vt 0.921875 0.859375
vt 0.921875 0.859375
vt 0.921875 0.859375
vt 0.921875 0.859375
vt 0.921875 0.859375
vt 0.921875 0.859375
vt 0.921875 0.859375
vt 0.921875 0.859375
vt 0.921875 0.859375
vt 0.921875 0.859375
vt 0.921875 0.859375
vt 0.921875 0.859375
vt 0.921875 0.859375
vt 0.921875 0.859375
vt 0.921875 0.859375
vt 0.921875 0.859375
vt 0.921875 0.859375
vt 0.921875 0.859375
vt 0.921875 0.859375
vt 0.921875 0.859375
vt 0.171875 0.828125
vt 0.171875 0.828125
vt 0.171875 0.828125
vt 0.171875 0.828125
vt 0.171875 0.828125
vt 0.171875 0.828125
vt 0.171875 0.828125
vt 0.171875 0.828125
vt 0.171875 0.828125
vt 0.171875 0.828125
vt 0.171875 0.828125
vt 0.171875 0.828125
vt 0.921875 0.859375
vt 0.921875 0.859375
vt 0.921875 0.859375
vt 0.921875 0.859375
vt 0.171875 0.828125
vt 0.171875 0.828125
vt 0.171875 0.828125
vt 0.171875 0.828125
vt 0.921875 0.859375
vt 0.921875 0.859375
vt 0.921875 0.859375
vt 0.921875 0.859375
vt 0.921875 0.859375
vt 0.921875 0.859375
vt 0.921875 0.859375
vt 0.921875 0.859375
vt 0.921875 0.859375
vt 0.921875 0.859375
vt 0.921875 0.859375
vt 0.921875 0.859375
vt 0.921875 0.859375
vt 0.921875 0.859375
vt 0.921875 0.859375
vt 0.921875 0.859375
vt 0.921875 0.859375
vt 0.921875 0.859375
vt 0.921875 0.859375
vt 0.921875 0.859375
vt 0.921875 0.859375
vt 0.921875 0.859375
vt 0.921875 0.859375
vt 0.921875 0.859375
vt 0.921875 0.859375
vt 0.921875 0.859375
vt 0.921875 0.859375
vt 0.921875 0.859375
vt 0.921875 0.859375
vt 0.921875 0.859375
vt 0.921875 0.859375
vt 0.921875 0.859375
vt 0.921875 0.859375
vt 0.921875 0.859375
vt 0.921875 0.859375
vt 0.921875 0.859375
vt 0.171875 0.828125
vt 0.171875 0.828125
vt 0.171875 0.828125
vt 0.171875 0.828125
vt 0.921875 0.859375
vt 0.921875 0.859375
vt 0.921875 0.859375
vt 0.921875 0.859375
vt 0.171875 0.828125
vt 0.171875 0.828125
vt 0.171875 0.828125
vt 0.171875 0.828125
vt 0.921875 0.859375
vt 0.921875 0.859375
vt 0.921875 0.859375
vt 0.921875 0.859375
vt 0.171875 0.828125
vt 0.171875 0.828125
vt 0.171875 0.828125
vt 0.171875 0.828125
vt 0.921875 0.890625
vt 0.890625 0.890625
vt 0.890625 0.859375
vt 0.921875 0.859375
vt 0.921875 0.859375
vt 0.921875 0.859375
vt 0.921875 0.859375
vt 0.921875 0.859375
vt 0.921875 0.859375
vt 0.921875 0.859375
vt 0.921875 0.859375
vt 0.921875 0.859375
vt 0.921875 0.859375
vt 0.921875 0.859375
vt 0.921875 0.859375
vt 0.921875 0.859375
vt 0.921875 0.859375
vt 0.921875 0.859375
vt 0.921875 0.859375
vt 0.921875 0.859375
vt 0.921875 0.859375
vt 0.921875 0.859375
vt 0.921875 0.859375
vt 0.921875 0.859375
vt 0.921875 0.859375
vt 0.921875 0.859375
vt 0.921875 0.859375
vt 0.921875 0.859375
vt 0.921875 0.859375
vt 0.921875 0.859375
vt 0.921875 0.859375
vt 0.921875 0.859375
vt 0.921875 0.859375
vt 0.921875 0.859375
vt 0.921875 0.859375
vt 0.921875 0.859375
vt 0.921875 0.859375
vt 0.921875 0.859375
vt 0.921875 0.859375
vt 0.921875 0.859375
vt 0.921875 0.859375
vt 0.921875 0.859375
vt 0.921875 0.859375
vt 0.921875 0.859375
vt 0.921875 0.859375
vt 0.921875 0.859375
vt 0.921875 0.859375
vt 0.921875 0.859375
vt 0.921875 0.859375
vt 0.921875 0.859375
vt 0.890625 0.890625
vt 0.921875 0.890625
vt 0.171875 0.828125
vt 0.171875 0.828125
vt 0.171875 0.828125
vt 0.171875 0.828125
vt 0.921875 0.859375
vt 0.921875 0.859375
vt 0.921875 0.859375
vt 0.921875 0.859375
vt 0.171875 0.828125
vt 0.171875 0.828125
vt 0.171875 0.828125
vt 0.171875 0.828125
vt 0.921875 0.859375
vt 0.921875 0.859375
vt 0.921875 0.859375
vt 0.921875 0.859375
vt 0.921875 0.859375
vt 0.921875 0.859375
vt 0.921875 0.859375
vt 0.921875 0.859375
vt 0.921875 0.859375
vt 0.921875 0.859375
vt 0.921875 0.859375
vt 0.921875 0.859375
vt 0.921875 0.859375
vt 0.921875 0.859375
vt 0.921875 0.859375
vt 0.921875 0.859375
vt 0.921875 0.859375
vt 0.921875 0.859375
vt 0.921875 0.859375
vt 0.921875 0.859375
vt 0.171875 0.828125
vt 0.171875 0.828125
vt 0.171875 0.828125
vt 0.171875 0.828125
vt 0.171875 0.828125
vt 0.171875 0.828125
vt 0.171875 0.828125
vt 0.171875 0.828125
vt 0.921875 0.859375
vt 0.921875 0.859375
vt 0.890625 0.859375
vt 0.921875 0.859375
vt 0.171875 0.828125
vt 0.171875 0.828125
vt 0.171875 0.828125
vt 0.921875 0.859375
vt 0.921875 0.859375
vt 0.921875 0.859375
vt 0.171875 0.828125
vt 0.171875 0.828125
vt 0.171875 0.828125
vt 0.171875 0.828125
vt 0.921875 0.859375
vt 0.921875 0.859375
vt 0.921875 0.859375
vt 0.921875 0.859375
vt 0.921875 0.859375
vt 0.921875 0.859375
vt 0.921875 0.859375
vt 0.921875 0.859375
vt 0.921875 0.859375
vt 0.921875 0.859375
vt 0.921875 0.859375
vt 0.921875 0.859375
vt 0.171875 0.828125
vt 0.171875 0.828125
vt 0.171875 0.828125
vt 0.171875 0.828125
vt 0.171875 0.828125
vt 0.171875 0.828125
vt 0.171875 0.828125
vt 0.171875 0.828125
vt 0.171875 0.828125
vt 0.171875 0.828125
vt 0.921875 0.859375
vt 0.921875 0.859375
vt 0.921875 0.859375
vt 0.921875 0.859375
vt 0.171875 0.828125
vt 0.171875 0.828125
vt 0.171875 0.828125
vt 0.171875 0.828125
vt 0.921875 0.859375
vt 0.921875 0.859375
vt 0.921875 0.859375
vt 0.921875 0.859375
vt 0.921875 0.859375
vt 0.921875 0.859375
vt 0.921875 0.859375
vt 0.921875 0.859375
vt 0.921875 0.859375
vt 0.921875 0.859375
vt 0.921875 0.859375
vt 0.921875 0.859375
vt 0.921875 0.859375
vt 0.921875 0.859375
vt 0.921875 0.859375
vt 0.921875 0.859375
vt 0.171875 0.828125
vt 0.171875 0.859375
vt 0.171875 0.828125
vt 0.171875 0.828125
vt 0.921875 0.859375
vt 0.921875 0.859375
vt 0.921875 0.859375
vt 0.921875 0.859375
vt 0.171875 0.828125
vt 0.171875 0.828125
vt 0.171875 0.828125
vt 0.171875 0.828125
vt 0.171875 0.828125
vt 0.171875 0.828125
vt 0.171875 0.828125
vt 0.171875 0.828125
vt 0.171875 0.828125
vt 0.171875 0.828125
vt 0.171875 0.828125
vt 0.171875 0.828125
vt 0.921875 0.859375
vt 0.921875 0.859375
vt 0.921875 0.859375
vt 0.921875 0.859375
vt 0.921875 0.859375
vt 0.921875 0.859375
vt 0.921875 0.859375
vt 0.921875 0.859375
vt 0.921875 0.859375
vt 0.921875 0.859375
vt 0.921875 0.859375
vt 0.921875 0.859375
vt 0.921875 0.859375
vt 0.921875 0.859375
vt 0.921875 0.859375
vt 0.921875 0.859375
vt 0.921875 0.859375
vt 0.921875 0.859375
vt 0.921875 0.859375
vt 0.921875 0.859375
vt 0.171875 0.828125
vt 0.171875 0.828125
vt 0.171875 0.828125
vt 0.171875 0.828125
vt 0.171875 0.828125
vt 0.171875 0.828125
vt 0.171875 0.828125
vt 0.171875 0.828125
vt 0.171875 0.828125
vt 0.171875 0.828125
vt 0.171875 0.828125
vt 0.171875 0.828125
vt 0.921875 0.859375
vt 0.921875 0.859375
vt 0.921875 0.859375
vt 0.921875 0.859375
vt 0.171875 0.828125
vt 0.171875 0.828125
vt 0.171875 0.828125
vt 0.171875 0.828125
vt 0.921875 0.859375
vt 0.921875 0.859375
vt 0.921875 0.859375
vt 0.921875 0.859375
vt 0.921875 0.859375
vt 0.921875 0.859375
vt 0.921875 0.859375
vt 0.921875 0.859375
vt 0.921875 0.859375
vt 0.921875 0.859375
vt 0.921875 0.859375
vt 0.921875 0.859375
vt 0.921875 0.859375
vt 0.921875 0.859375
vt 0.921875 0.859375
vt 0.921875 0.859375
vt 0.921875 0.859375
vt 0.921875 0.859375
vt 0.921875 0.859375
vt 0.921875 0.859375
vt 0.921875 0.859375
vt 0.921875 0.859375
vt 0.921875 0.859375
vt 0.921875 0.859375
vt 0.921875 0.859375
vt 0.921875 0.859375
vt 0.921875 0.859375
vt 0.921875 0.859375
vt 0.921875 0.859375
vt 0.921875 0.859375
vt 0.921875 0.859375
vt 0.921875 0.859375
vt 0.921875 0.859375
vt 0.921875 0.859375
vt 0.921875 0.859375
vt 0.921875 0.859375
vt 0.171875 0.828125
vt 0.171875 0.828125
vt 0.171875 0.828125
vt 0.171875 0.828125
vt 0.921875 0.859375
vt 0.921875 0.859375
vt 0.921875 0.859375
vt 0.921875 0.859375
vt 0.171875 0.828125
vt 0.171875 0.828125
vt 0.171875 0.828125
vt 0.171875 0.828125
vt 0.921875 0.859375
vt 0.921875 0.859375
vt 0.921875 0.859375
vt 0.921875 0.859375
vt 0.171875 0.828125
vt 0.171875 0.828125
vt 0.171875 0.828125
vt 0.171875 0.828125
vt 0.921875 0.859375
vt 0.921875 0.859375
vt 0.921875 0.859375
vt 0.921875 0.859375
vt 0.921875 0.859375
vt 0.921875 0.859375
vt 0.921875 0.859375
vt 0.921875 0.859375
vt 0.921875 0.859375
vt 0.921875 0.859375
vt 0.921875 0.859375
vt 0.921875 0.859375
vt 0.921875 0.859375
vt 0.921875 0.859375
vt 0.921875 0.859375
vt 0.921875 0.859375
vt 0.921875 0.859375
vt 0.921875 0.859375
vt 0.921875 0.859375
vt 0.921875 0.859375
vt 0.921875 0.859375
vt 0.921875 0.859375
vt 0.921875 0.859375
vt 0.921875 0.859375
vt 0.921875 0.859375
vt 0.921875 0.859375
vt 0.921875 0.859375
vt 0.921875 0.859375
vt 0.921875 0.859375
vt 0.921875 0.859375
vt 0.921875 0.859375
vt 0.921875 0.859375
vt 0.921875 0.859375
vt 0.921875 0.859375
vt 0.921875 0.859375
vt 0.921875 0.859375
vt 0.921875 0.859375
vt 0.921875 0.859375
vt 0.921875 0.859375
vt 0.921875 0.859375
vt 0.921875 0.859375
vt 0.921875 0.859375
vt 0.921875 0.859375
vt 0.921875 0.859375
vt 0.921875 0.859375
vt 0.921875 0.859375
vt 0.921875 0.859375
vt 0.921875 0.859375
vt 0.921875 0.859375
vt 0.921875 0.859375
vt 0.921875 0.859375
vt 0.921875 0.859375
vt 0.171875 0.828125
vt 0.171875 0.828125
vt 0.171875 0.828125
vt 0.171875 0.828125
vt 0.921875 0.859375
vt 0.921875 0.859375
vt 0.921875 0.859375
vt 0.921875 0.859375
vt 0.171875 0.828125
vt 0.171875 0.828125
vt 0.171875 0.859375
vt 0.171875 0.828125
vt 0.921875 0.859375
vt 0.921875 0.859375
vt 0.921875 0.859375
vt 0.921875 0.859375
vt 0.921875 0.859375
vt 0.921875 0.859375
vt 0.921875 0.859375
vt 0.921875 0.859375
vt 0.921875 0.859375
vt 0.921875 0.859375
vt 0.921875 0.859375
vt 0.921875 0.859375
vt 0.921875 0.859375
vt 0.921875 0.859375
vt 0.921875 0.859375
vt 0.921875 0.859375
vt 0.921875 0.859375
vt 0.921875 0.859375
vt 0.921875 0.859375
vt 0.921875 0.859375
vt 0.171875 0.828125
vt 0.171875 0.828125
vt 0.140625 0.859375
vt 0.171875 0.828125
vt 0.171875 0.828125
vt 0.171875 0.828125
vt 0.140625 0.828125
vt 0.140625 0.859375
vt 0.921875 0.859375
vt 0.921875 0.859375
vt 0.921875 0.859375
vt 0.921875 0.859375
vt 0.171875 0.828125
vt 0.171875 0.828125
vt 0.171875 0.828125
vt 0.921875 0.859375
vt 0.921875 0.859375
vt 0.921875 0.859375
vt 0.171875 0.828125
vt 0.171875 0.828125
vt 0.140625 0.859375
vt 0.171875 0.859375
vt 0.921875 0.859375
vt 0.921875 0.859375
vt 0.921875 0.859375
vt 0.921875 0.859375
vt 0.921875 0.859375
vt 0.921875 0.859375
vt 0.921875 0.859375
vt 0.921875 0.859375
vt 0.921875 0.859375
vt 0.921875 0.859375
vt 0.921875 0.859375
vt 0.921875 0.859375
vt 0.171875 0.828125
vt 0.171875 0.828125
vt 0.171875 0.828125
vt 0.171875 0.828125
vt 0.171875 0.828125
vt 0.171875 0.828125
vt 0.171875 0.828125
vt 0.171875 0.828125
vt 0.171875 0.828125
vt 0.171875 0.828125
vt 0.921875 0.859375
vt 0.921875 0.859375
vt 0.921875 0.859375
vt 0.921875 0.859375
vt 0.171875 0.859375
vt 0.140625 0.859375
vt 0.140625 0.828125
vt 0.171875 0.828125
vt 0.921875 0.859375
vt 0.921875 0.859375
vt 0.921875 0.859375
vt 0.921875 0.859375
vn -0.9917849355843584 0.12455592535000011 0.029128388354581383
vn -0.9917849853176129 0.12455568826761548 0.029127708779149244
vn -0.9917850192159133 0.12455547924054176 0.0291274483957911
vn -0.9917849835837812 0.1245557439599614 0.029127529663529
vn -0.9917849727943946 0.12455572985121462 0.029127957368366004
vn -0.9917849376554216 0.12455597288148611 0.029128114586737076
vn -0.9917850879447919 0.12455453533657695 0.029129144467883072
vn -0.9917851046819014 0.12455446186546565 0.029128888762096305
vn -0.9917849940279363 0.12455565579897565 0.029127551038386115
vn -0.9917850416322095 0.12455551634496898 0.029126526442996938
vn 0.2672281056066716 -0.5622803191424919 0.7825790581652994
vn 0.8297798969515553 0.521691563572847 -0.19825043533870207
vn 0.6205906510773461 0.20483567841972386 -0.7569079129205397
vn 0.49854438194812745 -0.7356653389656501 0.45853026974510064
vn 0.8143417096145501 0.5290279574968249 -0.2386985550203223
vn -0.1388725383374818 0.6877872004027075 -0.712504866690685
vn 0.6347443130947462 0.09942055766255192 -0.7662996866161085
vn 0.7241921986371799 -0.6839833587154477 -0.08782041011850626
vn 0.252431767648498 -0.49839391501376096 0.8293863443288122
vn 0.3691543769155183 -0.3505149587584312 0.8607347499030645
vn 0.401599722055432 0.6358699311457643 -0.6590804912221883
vn 0.09114383042992152 -0.43882400934697086 0.8939386393904291
vn 0.09753542619039444 -0.4952835980072208 0.8632386681462316
vn 0.4806982131555651 -0.8705719280735467 -0.10504163897880903
vn 0.34605627279759654 0.1749545645086293 -0.9217569942316856
vn 0.061427588313973776 0.6768345032679477 -0.7335677927635316
vn 0.4911558067679079 0.7162616965103022 -0.4957168098726827
vn 0.21455995547174755 -0.8107160679915089 0.5447049500494275
vn 0.3402773865077026 0.2952058086824097 -0.8927848737247133
vn 0.6270304374548533 0.7392452941392526 -0.24566079377496428
vn 0.0998357334608065 -0.5631869825616864 0.8202763247817199
vn 0.022782850140601642 -0.7194097043707242 0.6942122290745808
vn 0.42882197881828393 0.7173516786961425 -0.549106801591637
vn 0.24252406256538564 0.4157071846043505 -0.8765669488094482
vn 0.7848274675535056 0.6140164927984405 0.08384266661464276
vn 0.1239384882897135 -0.3714212993565952 0.9201551333904079
vn 0.37516364012196657 -0.9111230957897577 0.17060758321048794
vn 0.3423541128839392 0.19229638806485547 -0.9196824237358576
vn 0.1371314772905703 -0.6182907720139931 0.773893713101771
vn 0.13673133424536382 -0.6850371565571662 0.7155617627930905
vn -0.17580349399703257 -0.5854363462930648 0.791427454627057
vn 0.8539946322850536 0.020734888516737743 -0.5198684760845907
vn 0.830517264171961 -0.5466138334255785 0.10702518871796125
vn 0.5496470994800328 -0.31595375191886266 0.7733442265133817
vn 0.847579878763994 0.1430235486545725 -0.5110309321799087
vn 0.9018711058709973 0.29810560146553367 -0.31266844863192833
vn 0.9451661180484563 -0.06953310749753361 0.3191021094492294
vn 0.5193679950134948 -0.5259519336823408 0.6735216768682869
vn 0.9791597512706844 0.17053253627865858 -0.11029431337063374
vn -0.4537519874657513 -0.6535451601715051 0.6057952273559792
vn 0.7038872710932005 0.5419349807341892 -0.4591831728728757
vn 0.287573299113387 0.40494351964429587 -0.8679414401531547
vn 0.9043763216450398 0.4233086910631582 0.05397426162703271
vn 0.28739886497620853 -0.3783064380759087 0.8799352995082682
vn 0.6302437018435699 -0.7661213494845577 0.12590057247873673
vn 0.6292343012604069 0.11502342753003186 -0.7686571441394213
vn -0.025257652055609384 -0.6094789353476163 0.7923998222994336
vn 0.3550956139400882 -0.6645286096108569 0.6575019634717247
vn 0.6765298632552049 0.48319458728332637 -0.5557250533708102
vn 0.9787457254781048 0.03029226497719957 0.20282796538172287
vn 0.9917849974894629 -0.12455564232615175 -0.02912749078698927
vn 0.9917851218617136 -0.12455492617600879 -0.02912631832269336
vn 0.9917849219617633 -0.12455601553482246 -0.029128466547146303
vn 0.9917849816036163 -0.12455569224872307 -0.029127818214829734
vn 0.9917849552779512 -0.12455598910777163 -0.02912744516254508
vn 0.9917851414766204 -0.12455453997893111 -0.02912730191481691
vn 0.9323823670636237 -0.13393506642406497 -0.33574472381679465
vn 0.9644062613438441 0.03898561147651707 0.2615352465320709
vn 0.6344217046079759 -0.5757148681614955 0.515811488142812
vn 0.8856814112017203 0.26523695514133633 -0.3810745274602884
vn 0.4946224947710683 -0.28030663652506826 0.8226644377791276
vn 0.49331243383060586 -0.4760562068648917 0.7280201443185041
vn 0.9001677889082981 -0.42600446972087935 -0.09065397724191947
vn 0.8234311774082632 0.11138562680937916 -0.5563760762400946
vn 0.9380532766135696 -0.1594570201202589 -0.3076190972110046
vn 0.9512728726105659 0.3050106987982043 0.04525920297434992
vn 0.7663547885632791 -0.5644883422597436 0.30668102239782996
vn 0.849488427305068 0.08320952806424786 -0.5210044014344672
vn -0.35218782734711757 -0.48449054883867715 0.8007700308793496
vn -0.6851881770206303 0.7119519025623554 -0.15375841605904975
vn -0.593407518847941 0.357297813386784 -0.7212529300625082
vn -0.6374944812233515 -0.592992995708112 0.4918943925792293
vn -0.6373123885994223 0.7470845329165884 -0.18893813806244136
vn -0.7616686820237663 0.22213911235233044 -0.6086994608076285
vn -0.3502552065372659 0.39156376759467604 -0.8508813702277186
vn -0.8670738277324889 -0.4979791320081105 0.014133695404214849
vn -0.3193887214891517 -0.42657992667249495 0.8461798926620828
vn -0.5254431665935063 -0.13836111963804681 0.8395032336165805
vn -0.269436834425995 0.7201427923737266 -0.6393732484602955
vn -0.2994379103006501 -0.29993548608118376 0.905745903697071
vn -0.16683498103206684 -0.4620817039958482 0.8710032077646576
vn -0.6861233764706135 -0.7240344590541854 -0.07077297763043497
vn -0.3447631354427971 0.26171274299898256 -0.9014681472972854
vn 0.06541953439600362 0.6763324480483665 -0.7336856985360379
vn -0.2821482301126657 0.8353804886731105 -0.4717327796417854
vn -0.3763672207682229 -0.7365024226021157 0.5620604030105827
vn -0.3077884572188213 0.37659526553052514 -0.8737518363831066
vn -0.43805991597513505 0.8730088018360108 -0.21438083387446363
vn -0.1883203977247378 -0.5269981186775675 0.8287390486221227
vn -0.2451605147356711 -0.6533196759964037 0.7162888544229172
vn -0.2692810141999817 0.8050252092441404 -0.5286039612723852
vn -0.18252680008325467 0.46908784884155463 -0.8640836518072603
vn -0.6025983482801074 0.7882593831699137 0.12458882572154689
vn -0.15848243531547812 -0.33595323257045084 0.9284496449576249
vn -0.5781362649400286 -0.7914001018705781 0.19860598661780482
vn -0.33677675315229166 0.2775867294387819 -0.8997371983949985
vn -0.22756428050742028 -0.5779467172416347 0.7837040833546537
vn -0.2601614567798387 -0.6351934942444386 0.727217464913854
vn -0.9055744789144715 0.2685408111184823 0.3283606186841093
vn -0.8509614778592679 0.23485570159461386 -0.46979502192772593
vn -0.9272917221927712 -0.29994139853823726 0.22397593485839287
vn -0.43780057657395655 -0.2703673888516154 0.8574567803668419
vn -0.8140345040181072 0.3516989116422716 -0.4622290577382995
vn -0.8167707427819392 0.5139459166198005 -0.26219296048001145
vn -0.9559425125689927 0.1516989423405454 0.2513192065005007
vn -0.5934008899265307 -0.38620226007108344 0.7062033688325117
vn -0.8462006722957098 0.5053500396220615 0.16901408124848497
vn -0.4368412980787175 -0.45354123964459164 0.7768333310527736
vn -0.5734898949148233 0.7023577638835593 -0.4216668257559178
vn -0.22826061399201225 0.4697263884090589 -0.8527920098899682
vn -0.770069182600326 0.6327498910257765 0.08136970822200432
vn -0.39820746713308164 -0.2461802994531286 0.8836436347762733
vn -0.7983184023551433 -0.5466778153939043 0.25264816369267346
vn -0.6246341347143852 0.27249444174308907 -0.7318326154037776
vn -0.08310814454106337 -0.6015534598093136 0.7944976219614419
vn -0.4696655071702021 -0.5609492383932373 0.6817259444385287
vn -0.5671179896938742 0.6393807447172676 -0.5192007791311289
vn -0.9335221030121683 0.25365795070116504 0.2533655999417125
vn -0.9917849375821196 0.12455582993361208 0.02912872834128197
vn -0.9917850345899972 0.12455533299122291 0.02912755030488458
vn -0.9917849518515196 0.12455587926654936 0.029128031533489987
vn -0.991785063990783 0.12455529691382668 0.029126703478199886
vn -0.9917850794101498 0.12455546780984028 0.029125447602999028
vn -0.9917848969613585 0.12455541877904579 0.029131869355125756
vn -0.9543594725877965 0.10301506434670046 -0.28033175631666873
vn -0.9081037907428239 0.2741497515811116 0.3165271219761876
vn -0.7260967277421091 -0.4048508314328861 0.555769148343359
vn -0.8131843824682258 0.47859209231910027 -0.3311808709442564
vn -0.3576628458645388 -0.27989042744343207 0.8909201071440763
vn -0.5527270372462414 -0.3446851527874455 0.758739064332981
vn -0.9811985433386896 -0.18972651403470836 -0.03540153135488938
vn -0.9056011241187392 0.20858561752161664 -0.3692947930285531
vn -0.9645245457565269 0.07948390501200008 -0.2517433404823428
vn -0.8633985149463431 0.49806693327769036 0.08045081953470838
vn -0.8630227187674541 -0.3598590387876814 0.35453245139766576
vn -0.8312322069052603 0.29428710491219245 -0.47164405867752746
usemtl m_3d59d2b7-f776-6696-60d1-a8e374ca52d9
f 1/1/1 2/2/1 3/3/1 4/4/1
f 3/5/2 5/6/2 6/7/2 4/8/2
f 5/9/3 7/10/3 8/11/3 6/12/3
f 7/13/4 9/14/4 10/15/4 8/16/4
f 9/17/5 11/18/5 12/19/5 10/20/5
f 11/21/6 13/22/6 14/23/6 12/24/6
f 13/25/7 15/26/7 16/27/7 14/28/7
f 15/29/8 17/30/8 16/31/8
f 1/32/9 18/33/9 19/34/9 2/35/9
f 18/36/10 20/37/10 19/38/10
f 21/39/11 22/40/11 23/41/11 24/42/11
f 25/43/12 26/44/12 27/45/12 28/46/12
f 29/47/13 30/48/13 31/49/13 32/50/13
f 33/51/14 34/52/14 35/53/14 36/54/14
f 37/55/15 25/56/15 28/57/15 38/58/15
f 39/59/16 40/60/16 41/61/16 42/62/16
f 43/63/17 44/64/17 45/65/17 46/66/17
f 47/67/18 39/68/18 42/69/18 48/70/18
f 49/71/19 21/72/19 24/73/19 50/74/19
f 51/75/20 52/76/20 53/77/20 54/78/20
f 7/79/21 5/80/21 55/81/21 30/82/21
f 1/83/22 4/84/22 52/85/22 51/86/22
f 6/87/23 8/88/23 21/89/23 49/90/23
f 16/91/24 17/92/24 39/93/24 47/94/24
f 13/95/25 11/96/25 44/97/25 43/98/25
f 17/99/26 15/100/26 40/101/26 39/102/26
f 3/103/27 2/104/27 25/105/27 37/106/27
f 12/107/28 14/108/28 34/109/28 33/110/28
f 9/111/29 7/112/29 30/113/29 29/114/29
f 2/115/30 19/116/30 26/117/30 25/118/30
f 8/119/31 10/120/31 22/121/31 21/122/31
f 20/123/32 18/124/32 56/125/32 57/126/32
f 5/127/33 3/128/33 37/129/33 55/130/33
f 15/131/34 13/132/34 43/133/34 40/134/34
f 19/135/35 20/136/35 57/137/35 26/138/35
f 4/139/36 6/140/36 49/141/36 52/142/36
f 14/143/37 16/144/37 47/145/37 34/146/37
f 11/147/38 9/148/38 29/149/38 44/150/38
f 18/151/39 1/152/39 51/153/39 56/154/39
f 10/155/40 12/156/40 33/157/40 22/158/40
f 58/159/41 54/160/41 59/161/41 60/162/41
f 45/163/42 32/164/42 61/165/42 62/166/42
f 35/167/43 48/168/43 63/169/43 64/170/43
f 53/171/44 50/172/44 65/173/44 66/174/44
f 41/175/45 46/176/45 67/177/45 68/178/45
f 69/179/46 38/180/46 70/181/46 71/182/46
f 58/183/47 60/184/47 27/185/47 72/186/47
f 24/187/48 23/188/48 73/189/48 74/190/48
f 28/191/49 27/192/49 60/193/49 75/194/49
f 57/195/50 56/196/50 58/197/50 72/198/50
f 55/199/51 37/200/51 38/201/51 69/202/51
f 40/203/52 43/204/52 46/205/52 41/206/52
f 26/207/53 57/208/53 72/209/53 27/210/53
f 52/211/54 49/212/54 50/213/54 53/214/54
f 34/215/55 47/216/55 48/217/55 35/218/55
f 44/219/56 29/220/56 32/221/56 45/222/56
f 56/223/57 51/224/57 54/225/57 58/226/57
f 22/227/58 33/228/58 36/229/58 23/230/58
f 30/231/59 55/232/59 69/233/59 31/234/59
f 59/235/60 66/236/60 70/237/60 75/238/60
f 70/239/61 66/240/61 65/241/61 71/242/61
f 71/243/62 65/244/62 74/245/62 76/246/62
f 76/247/63 74/248/63 73/249/63 61/250/63
f 61/251/64 73/252/64 77/253/64 62/254/64
f 62/255/65 77/256/65 64/257/65 67/258/65
f 67/259/66 64/260/66 63/261/66 68/262/66
f 68/263/67 63/264/67 42/265/67
f 59/266/68 75/267/68 60/268/68
f 23/269/69 36/270/69 77/271/69 73/272/69
f 31/273/70 69/274/70 71/275/70 76/276/70
f 54/277/71 53/278/71 66/279/71 59/280/71
f 50/281/72 24/282/72 74/283/72 65/284/72
f 48/285/73 42/286/73 63/287/73
f 46/288/74 45/289/74 62/290/74 67/291/74
f 42/292/75 41/293/75 68/294/75
f 38/295/76 28/296/76 75/297/76 70/298/76
f 36/299/77 35/300/77 64/301/77 77/302/77
f 32/303/78 31/304/78 76/305/78 61/306/78
f 78/307/79 79/308/79 80/309/79 81/310/79
f 82/311/80 83/312/80 84/313/80 85/314/80
f 86/315/81 87/316/81 88/317/81 89/318/81
f 90/319/82 91/320/82 92/321/82 93/322/82
f 94/323/83 95/324/83 83/325/83 82/326/83
f 96/327/84 97/328/84 98/329/84 99/330/84
f 100/331/85 101/332/85 102/333/85 103/334/85
f 104/335/86 105/336/86 97/337/86 96/338/86
f 106/339/87 107/340/87 79/341/87 78/342/87
f 108/343/88 109/344/88 110/345/88 111/346/88
f 7/347/89 89/348/89 112/349/89 5/350/89
f 1/351/90 108/352/90 111/353/90 4/354/90
f 6/355/91 106/356/91 78/357/91 8/358/91
f 16/359/92 104/360/92 96/361/92 17/362/92
f 13/363/93 100/364/93 103/365/93 11/366/93
f 17/367/94 96/368/94 99/369/94 15/370/94
f 3/371/95 94/372/95 82/373/95 2/374/95
f 12/375/96 90/376/96 93/377/96 14/378/96
f 9/379/97 86/380/97 89/381/97 7/382/97
f 2/383/98 82/384/98 85/385/98 19/386/98
f 8/387/99 78/388/99 81/389/99 10/390/99
f 20/391/100 113/392/100 114/393/100 18/394/100
f 5/395/101 112/396/101 94/397/101 3/398/101
f 15/399/102 99/400/102 100/401/102 13/402/102
f 19/403/103 85/404/103 113/405/103 20/406/103
f 4/407/104 111/408/104 106/409/104 6/410/104
f 14/411/105 93/412/105 104/413/105 16/414/105
f 11/415/106 103/416/106 86/417/106 9/418/106
f 18/419/107 114/420/107 108/421/107 1/422/107
f 10/423/108 81/424/108 90/425/108 12/426/108
f 115/427/109 116/428/109 117/429/109 109/430/109
f 102/431/110 118/432/110 119/433/110 87/434/110
f 92/435/111 120/436/111 121/437/111 105/438/111
f 110/439/112 122/440/112 123/441/112 107/442/112
f 98/443/113 124/444/113 125/445/113 101/446/113
f 126/447/114 127/448/114 128/449/114 95/450/114
f 115/451/115 129/452/115 84/453/115 116/454/115
f 79/455/116 130/456/116 131/457/116 80/458/116
f 83/459/117 132/460/117 116/461/117 84/462/117
f 113/463/118 129/464/118 115/465/118 114/466/118
f 112/467/119 126/468/119 95/469/119 94/470/119
f 99/471/120 98/472/120 101/473/120 100/474/120
f 85/475/121 84/476/121 129/477/121 113/478/121
f 111/479/122 110/480/122 107/481/122 106/482/122
f 93/483/123 92/484/123 105/485/123 104/486/123
f 103/487/124 102/488/124 87/489/124 86/490/124
f 114/491/125 115/492/125 109/493/125 108/494/125
f 81/495/126 80/496/126 91/497/126 90/498/126
f 89/499/127 88/500/127 126/501/127 112/502/127
f 117/503/128 132/504/128 128/505/128 122/506/128
f 128/507/129 127/508/129 123/509/129 122/510/129
f 127/511/130 133/512/130 130/513/130 123/514/130
f 133/515/131 119/516/131 131/517/131 130/518/131
f 119/519/132 118/520/132 134/521/132 131/522/132
f 118/523/133 125/524/133 120/525/133 134/526/133
f 125/527/134 124/528/134 121/529/134 120/530/134
f 124/531/135 97/532/135 121/533/135
f 117/534/136 116/535/136 132/536/136
f 80/537/137 131/538/137 134/539/137 91/540/137
f 88/541/138 133/542/138 127/543/138 126/544/138
f 109/545/139 117/546/139 122/547/139 110/548/139
f 107/549/140 123/550/140 130/551/140 79/552/140
f 105/553/141 121/554/141 97/555/141
f 101/556/142 125/557/142 118/558/142 102/559/142
f 97/560/143 124/561/143 98/562/143
f 95/563/144 128/564/144 132/565/144 83/566/144
f 91/567/145 134/568/145 120/569/145 92/570/145
f 87/571/146 119/572/146 133/573/146 88/574/146