# Made in Blockbench 5.1.4
mtllib Mo_Twolf_LightHead.mtl

o LightHead
v -2.521633 3.389374 6.152162
v -2.773241 3.014094 6.587959
v -2.333824 3.014557999999999 6.73438
v -2.036942 3.3483719999999995 6.388925
v -1.098715 -1.0870579999999999 4.110211
v -1.277233 -1.0876099999999997 3.9967984999999997
v -0.805943 -1.4006429999999996 3.1805000000000003
v -0.635004 -1.4006429999999996 3.2857
v -2.112812 1.8274280000000003 5.444062
v -1.95873 1.5107049999999997 5.177185
v -1.772607 1.5172860000000004 5.287322
v -1.914332 1.871639 5.579233
v -3.292241 2.6783680000000007 7.486893
v -3.01754 1.8976579999999998 7.011096
v -2.734761 1.9286630000000002 7.199783
v -2.920356 2.6873310000000004 7.708059
v -2.816461 1.8274280000000003 6.662818
v -2.467394 1.9649299999999998 6.904513
v -3.036665 2.7411630000000002 7.044224
v -2.695052 2.7717840000000002 7.232541
v -2.329482 4.3671310000000005 5.819346
v -2.467528 4.029553 6.058448
v -2.136481 4.3671310000000005 5.930776
v -2.296187 1.8871320000000003 5.761677
v -0.876736 3.6796869999999995 3.748833
v -1.160755 4.2767219999999995 4.240767
v -0.862192 3.5314999999999994 4.242577
v -0.556129 3.269494999999999 3.9968
v -1.458419 4.640060999999999 4.756338
v -1.82517 4.631532999999999 5.391569
v -1.621393 4.537737 5.554155
v -1.231963 4.523028999999999 5.003975
v -0.197508 4.173628000000001 2.551754
v 0.1271 3.96321 1.956738
v -0.23272 -0.47474599999999967 3.100258
v 0.104104 2.6776079999999993 2.516861
v 0.394845 2.382244 2.773264
v 0.141897 0.16095300000000012 3.211383
v -1.030965 1.1706370000000001 4.819241
v -0.840033 0.4618039999999999 4.488538
v -0.470232 0.8850600000000002 4.608005
v -0.702331 1.328487 4.970248
v -1.975306 3.9134200000000003 6.385119
v -1.401157 3.301786 6.610916
v -1.698452 3.774546000000001 6.474638
v -1.084235 3.405329 5.925932
v -1.133287 3.181865 5.78374
v -0.958616 3.2360070000000007 5.844412
v -1.045978 3.5033209999999997 5.995728
v -0.501259 -0.8029770000000003 3.047866
v -0.028828 2.9211600000000004 2.221922
v -0.47233 2.950303999999999 4.320592
v -0.693405 3.2467500000000005 4.703504
v -0.627287 2.850885999999999 4.888081
v -0.298128 2.4673219999999993 4.580416
v -0.146899 2.7656779999999994 4.047975
v 0.088958 2.1995229999999992 4.201009
v 0.590789 1.8841840000000003 2.99543
v 0.550749 1.001805 3.06478
v -0.086615 1.4542989999999998 4.50511
v -1.297155 1.759575 5.280295
v -0.993887 2.104952000000001 5.223956
v -0.401129 3.008813 3.728332
v -0.424475 1.830063 4.799255
v -0.663491 2.379707 5.24399
v -2.478714 2.496746 7.493885
v -2.276252 2.548641 7.143209
v -1.111682 4.460868 5.135507
v -0.964495 4.286448999999999 5.156532
v -0.780584 4.511892 5.30083
v -0.815352 4.629618000000001 5.40667
v -2.028754 2.019703 6.438633
v -1.75118 2.012116 6.090791
v -1.312933 2.4744530000000005 6.458107
v -1.789895 2.3613040000000005 6.455227
v -1.256766 3.405329 6.224766
v -1.205559 3.4801280000000006 6.055108
v -1.23293 3.4634739999999997 6.319538
v -1.256766 2.9173349999999996 6.224766
v -1.403622 3.1453810000000004 6.251974
v -1.279825 3.1275569999999995 6.400762
v -1.185757 2.8897650000000006 6.237832
v -1.437909 4.453282 5.70055
v -1.409583 4.2953589999999995 5.886415
v -2.219066 2.055467 7.070871
v -2.40755 2.139277 7.370625
v -2.126305 2.7181599999999992 6.883493
v -0.708645 2.456353 5.411449
v -0.963591 2.2345690000000005 5.853029
v -2.54353 1.8956609999999996 6.190088
v -0.630663 3.860486 5.27638
v -0.958105 3.051819 5.843526
v -1.000719 2.827451999999999 5.917337
v -1.108586 2.3183430000000005 6.104167
v -1.195966 2.80222 6.255514
v -0.818081 4.089254 5.600997
v -1.048997 4.083885 6.000957
v -1.208103 4.000102999999999 6.276537
v -1.26361 2.9794850000000004 6.372677
v -1.522093 1.9590100000000001 5.84636
v -1.084235 2.9173349999999996 5.925932
v -1.009626 2.9279740000000007 5.932763
v -1.714823 4.218095 6.180178
v -1.205559 2.8425340000000006 6.055108
v -0.906105 4.137675 4.779438
v -0.565768 3.0108639999999998 5.16398
v -2.00069 2.1211389999999994 6.568822
v -1.916382 3.0170209999999997 6.519897
v -1.872244 2.293951 6.59786
v -0.689096 3.3641109999999994 3.423831
v -0.637228 4.570333 3.333992
v -0.640765 4.7895509999999994 3.340119
v -0.513309 4.636920999999999 3.116921
v -1.517809 5.457439000000001 4.859203
v -1.735308 5.410105 5.235923
v -1.828986 5.068977 5.398178
v -1.279374 5.413257 4.446222
v -1.420321 5.218954 4.69035
v -1.886844 5.124612000000001 5.498391
v -0.20475349999999998 2.9904849999999996 2.1392084999999996
v -1.436908 1.1558900000000003 4.69689
v -1.699134 1.694375 5.151078
v -1.708813 1.5113899999999996 5.167843
v -1.543835 0.674874 4.882093
v -1.616672 0.5277010000000004 5.008251
v -1.218565 0.2425329999999999 4.318709
v -1.7155649999999998 0.6732259999999997 4.7560105
v -1.799588 0.5277180000000001 4.901544
v -1.884753 1.4900799999999998 5.049053
v -0.6685135 -0.9831260000000004 2.9424655
v -0.986612 3.1613310000000006 5.899774
v -1.011983 3.0292820000000003 5.906572
v -1.011983 3.2933819999999994 5.906572
v -1.10861 3.405329 6.111081
v -1.043831 3.2933819999999994 6.148481
v -1.043831 3.0292820000000003 6.148481
v -1.10861 2.9173349999999996 6.111081
v -1.021084 3.1613310000000006 6.161614
v -1.237407 3.0292820000000003 6.297018
v -1.237407 3.2933819999999994 6.297018
v -1.230608 3.1613310000000006 6.322388
v -0.491654 4.61318 5.767601
v -0.543613 4.86665 5.705712
v -1.09962 4.517384 5.813878
v -1.173004 4.621587 6.021935
v -0.94228 4.6747250000000005 5.298813
v -0.683341 4.618926999999999 5.172421
v -0.997078 4.629365999999999 5.721297
v -0.62464 4.844716999999999 5.949037
v -1.216774 4.6909600000000005 5.654231
v -0.692322 4.916925000000001 5.780533
v -0.615599 4.897855 5.609882
v -0.382826 4.842058 5.52881
v -0.343469 4.811610999999999 5.809764
v -1.5966325000000001 5.248877 4.550013
v -1.4673794999999998 5.396421999999999 4.32614
v -2.019544 5.0716920000000005 5.271744
v -2.087925 5.144647000000001 5.400957
v -1.926887 5.410268 5.12203
v -1.710185 5.457511 4.746692
v -1.02837 5.290907000000001 4.011471
v -1.01471 5.012086999999999 3.987812
v -1.1996194999999998 5.027437000000001 3.8623665
v -1.217165 5.287241 3.892756
v -0.871554 5.198301000000001 3.739858
v -1.056277 5.186659000000001 3.61409
v -0.474317 4.091519 2.606106
v -0.295762 4.103726999999999 2.729155
v -0.818803 4.790933000000001 3.2027725
v -0.821786 4.560131 3.20794
v -0.6993784999999999 4.63031 2.9959245
v -0.285988 4.328764 2.712538
v -1.509904 -0.3401240000000003 4.845686
v -1.692785 -0.31448300000000007 4.716556
v -1.416867 -0.960502 4.238652
v -1.228945 -0.9501900000000001 4.336688
v -1.738039 1.4025590000000001 5.218465
v -1.9224675 1.3683259999999997 5.1143765000000005
v -1.829334 0.7769519999999996 4.953065
v -1.643124 0.7704199999999997 5.054067
v -1.115649 -0.8191600000000001 4.140454
v -1.477591 -0.1676000000000002 4.767354
v -1.772921 -0.16577999999999982 4.855354
v -1.587779 -0.1619970000000004 4.958207
v -1.6424750000000001 -0.15082099999999965 4.629415
v -1.2851564999999998 -0.8305150000000001 4.010522
v -0.919079 3.011875 5.98504
v -1.095211 2.9736650000000004 6.290109
v -2.182451 2.1802080000000004 7.203391
v -2.064439 2.2131600000000002 6.998989
v -2.293433 2.1972749999999994 7.172969
v -2.181254 2.2027970000000003 7.18969
v -2.273513 2.2169849999999993 7.164401
v -1.87133 2.3783720000000006 6.441864
v -1.953679 2.311019 6.584497
v -2.159383 2.2355970000000003 6.940787
v -2.079849 2.2301889999999993 7.014051
v -2.158775 2.2488410000000005 6.965668
v -2.178041 2.3646770000000004 7.021409
v -2.103296 2.3536889999999993 7.066222
v -2.175956 2.3375500000000002 7.192072
v -2.146056 2.5104729999999993 7.127699
v -2.195883 2.500349 7.214003
v -2.258557 2.3459090000000007 7.160866
v -2.203475 2.517367 7.093508
v -2.25823 2.505592 7.188347
v -2.286216 2.616849 7.187578
v -2.259656 2.6206460000000007 7.141575
v -2.25327 2.615157999999999 7.203267
v -2.228299 2.618423 7.160016
v -2.969022 3.3483719999999995 5.850788
v -3.119754 3.014557999999999 6.280623
v -1.46471 -1.0870579999999999 3.898904
v -0.982518 -1.4006429999999996 3.085063
v -2.329113 1.871639 5.339759
v -3.669719 2.6873310000000004 7.275414
v -3.322336 1.9286630000000002 6.860546
v -3.200308 1.9649299999999998 6.481365
v -3.37056 2.7717840000000002 6.842537
v -2.522483 4.3671310000000005 5.707917
v -1.262738 3.6796869999999995 3.525975
v -1.637787 3.269494999999999 3.372304
v -1.697604 3.5314999999999994 3.760252
v -1.546757 4.2767219999999995 4.017909
v -1.844421 4.640060999999999 4.53348
v -2.172109 4.523028999999999 4.461182
v -2.453864 4.537737 5.073528
v -2.211172 4.631532999999999 5.168711
v -0.0467625 3.96321 1.8655599999999999
v -0.212656 3.96321 1.76058
v -0.565651 4.173628000000001 2.339206
v -0.38324400000000003 4.162096 2.4483629999999996
v -1.023063 -0.47474599999999967 2.643953
v -1.306609 0.16095300000000012 2.375088
v -1.053661 2.382244 1.936969
v -0.686239 2.6776079999999993 2.060556
v -2.112624 1.1706370000000001 4.194745
v -2.407717 1.328487 3.985643
v -2.210054 0.8850600000000002 3.603518
v -1.921692 0.4618039999999999 3.864042
v -2.996543 3.9134200000000003 5.795507
v -3.212496 3.774546000000001 5.600503
v -3.479164 3.301786 5.411178
v -3.044412 3.405329 4.794223
v -3.123985 3.5033209999999997 4.79599
v -3.036623 3.2360070000000007 4.644674
v -2.896744 3.181865 4.765608
v -0.364349 2.9211600000000004 2.028209
v -0.843421 -0.8029770000000003 2.850319
v -1.960099 2.950303999999999 3.461628
v -2.272214 2.4673219999999993 3.440678
v -2.37408 2.850885999999999 3.87957
v -2.181173 3.2467500000000005 3.844541
v -1.344034 1.8841840000000003 1.878359
v -2.137181 2.1995229999999992 2.915748
v -1.886721 2.7656779999999994 3.043489
v -2.312753 1.4542979999999996 3.219848
v -1.384073 1.001805 1.94771
v -2.378814 1.759575 4.655799
v -2.481656 2.104952000000001 4.364992
v -1.482787 3.008813 3.103836
v -2.398561 1.8300619999999999 3.659517
v -2.664205 2.379707 4.088878
v -3.502596 2.548641 6.435179
v -3.705058 2.496746 6.785854
v -2.34616 4.460868 4.422781
v -2.729159 4.629618000000001 4.301733
v -2.654883 4.511892 4.218704
v -2.437961 4.286448999999999 4.305826
v -3.016164 2.019703 5.868552
v -3.149965 2.3613040000000005 5.669991
v -3.390939 2.4744530000000005 5.258369
v -2.853711 2.012116 5.454245
v -3.216943 3.405329 5.093057
v -3.310937 3.4634739999999997 5.1198
v -3.095619 3.4801280000000006 4.963881
v -3.216943 2.9173349999999996 5.093057
v -3.263764 2.8897650000000006 5.038094
v -3.357831 3.1275569999999995 5.201024
v -3.167078 3.1453810000000004 5.233842
v -2.847515 4.2953589999999995 5.056224
v -2.672387 4.453282 4.987823
v -3.633895 2.139277 6.662594
v -3.468542 2.055467 6.349485
v -3.352649 2.7181599999999992 6.175463
v -2.786651 2.456353 4.211711
v -3.041598 2.2345690000000005 4.653292
v -2.708669 3.860486 4.076643
v -3.078726 2.827451999999999 4.717599
v -3.036111 3.051819 4.643789
v -3.186592 2.3183430000000005 4.904429
v -3.273973 2.80222 5.055777
v -3.127004 4.083885 4.801219
v -2.896087 4.089254 4.40126
v -3.28611 4.000102999999999 5.076799
v -3.341617 2.9794850000000004 5.17294
v -2.756571 1.9590100000000001 5.133634
v -3.087632 2.9279740000000007 4.733026
v -3.044412 2.9173349999999996 4.794223
v -2.949301 4.218095 5.467452
v -3.095619 2.8425340000000006 4.963881
v -2.140584 4.137675 4.066712
v -2.643775 3.0108639999999998 3.964242
v -3.142943 2.1211389999999994 5.909342
v -3.142727 3.0170209999999997 5.811866
v -3.232314 2.293951 5.812624
v -1.075098 3.3641109999999994 3.200973
v -1.026767 4.7895509999999994 3.117261
v -1.023229 4.570333 3.111134
v -0.8972 4.636920999999999 2.895282
v -2.214988 5.068977 5.175319
v -2.12131 5.410105 5.013064
v -1.903811 5.457439000000001 4.636345
v -1.806323 5.218954 4.467492
v -1.665376 5.413257 4.223363
v -2.272846 5.124612000000001 5.275532
v -1.803693 1.1558900000000003 4.485127
v -1.91062 0.674874 4.67033
v -2.075598 1.5113899999999996 4.956079
v -1.983457 0.5277010000000004 4.796487
v -1.585351 0.2425329999999999 4.106946
v -3.063771 3.0292820000000003 4.721971
v -3.07057 3.1613310000000006 4.6966
v -3.063771 3.2933819999999994 4.721971
v -3.257347 3.2933819999999994 4.870507
v -3.192568 3.405329 4.907907
v -3.192568 2.9173349999999996 4.907907
v -3.257347 3.0292820000000003 4.870507
v -3.280094 3.1613310000000006 4.857374
v -3.289195 3.0292820000000003 5.112417
v -3.314566 3.1613310000000006 5.119215
v -3.289195 3.2933819999999994 5.112417
v -3.124007 4.86665 4.215921
v -3.203583 4.61318 4.201868
v -3.083168 4.621587 4.919102
v -2.939677 4.517384 4.75152
v -2.592299 4.618926999999999 4.070283
v -2.572288 4.6747250000000005 4.357727
v -2.910771 4.629365999999999 4.616426
v -3.294219 4.844716999999999 4.407755
v -2.742842 4.6909600000000005 4.773156
v -3.114449 4.916925000000001 4.382117
v -3.005022 4.897855 4.230349
v -3.051198 4.842058 3.988225
v -3.314191 4.811610999999999 4.094617
v -2.010214 5.0716920000000005 5.27713
v -1.414372 5.290907000000001 3.788613
v -1.400712 5.012086999999999 3.764953
v -1.257556 5.198301000000001 3.517
v -0.670157 4.103726999999999 2.512998
v -0.660654 4.328764 2.496224
v -1.896056 -0.3401240000000003 4.622741
v -1.59573 -0.9501900000000001 4.124924
v -2.104825 1.4025590000000001 5.006701
v -2.009909 0.7704199999999997 4.842303
v -1.844376 -0.1676000000000002 4.555591
v -1.482434 -0.8191600000000001 3.92869
v -1.954565 -0.1619970000000004 4.746443
v -3.178179 3.011875 4.680748
v -3.35431 2.9736650000000004 4.985817
v -3.601616 2.1802080000000004 6.384036
v -3.483604 2.2131600000000002 6.179634
v -3.519778 2.1972749999999994 6.464938
v -3.522318 2.2169849999999993 6.443403
v -3.590348 2.2027970000000003 6.376149
v -3.180024 2.311019 5.876467
v -3.097675 2.3783720000000006 5.733834
v -3.385728 2.2355970000000003 6.232756
v -3.488943 2.2301889999999993 6.200511
v -3.522402 2.3536889999999993 6.246901
v -3.446219 2.3646770000000004 6.289225
v -3.40758 2.2488410000000005 6.24467
v -3.595062 2.3375500000000002 6.372752
v -3.604089 2.500349 6.400974
v -3.554262 2.5104729999999993 6.314671
v -3.526735 2.3459090000000007 6.428683
v -3.495942 2.517367 6.347302
v -3.509479 2.6206460000000007 6.41999
v -3.536039 2.616849 6.465993
v -3.550698 2.505592 6.442141
v -3.566098 2.615157999999999 6.445304
v -3.541127 2.618423 6.402053
v -2.147172 1.5172860000000004 5.071066
v -2.065919 1.694375 4.939315
v -0.491815 4.3165569999999995 2.591786
vt 0.9375 0.875
vt 0.9375 0.875
vt 0.9375 0.875
vt 0.9375 0.875
vt 0.125 0.625
vt 0.125 0.625
vt 0.125 0.625
vt 0.125 0.625
vt 0.125 0.625
vt 0.125 0.625
vt 0.125 0.625
vt 0.125 0.625
vt 0.9375 0.875
vt 0.9375 0.875
vt 0.9375 0.875
vt 0.9375 0.875
vt 0.9375 0.875
vt 0.9375 0.875
vt 0.9375 0.875
vt 0.9375 0.875
vt 0.9375 0.875
vt 0.9375 0.875
vt 0.9375 0.875
vt 0.9375 0.875
vt 0.125 0.625
vt 0.125 0.625
vt 0.125 0.625
vt 0.9375 0.875
vt 0.9375 0.875
vt 0.9375 0.875
vt 0.9375 0.875
vt 0.9375 0.875
vt 0.9375 0.875
vt 0.9375 0.875
vt 0.9375 0.875
vt 0.9375 0.875
vt 0.9375 0.875
vt 0.9375 0.875
vt 0.125 0.625
vt 0.125 0.625
vt 0.125 0.625
vt 0.125 0.625
vt 0.9375 0.875
vt 0.9375 0.875
vt 0.9375 0.875
vt 0.9375 0.875
vt 0.9375 0.875
vt 0.9375 0.875
vt 0.9375 0.875
vt 0.9375 0.875
vt 0.9375 0.875
vt 0.9375 0.875
vt 0.9375 0.875
vt 0.9375 0.875
vt 0.9375 0.875
vt 0.9375 0.875
vt 0.9375 0.875
vt 0.9375 0.875
vt 0.9375 0.875
vt 0.9375 0.875
vt 0.9375 0.875
vt 0.9375 0.875
vt 0.9375 0.875
vt 0.9375 0.875
vt 0.9375 0.875
vt 0.9375 0.875
vt 0.9375 0.875
vt 0.9375 0.875
vt 0.9375 0.875
vt 0.9375 0.875
vt 0.9375 0.875
vt 0.9375 0.875
vt 0.9375 0.875
vt 0.9375 0.875
vt 0.9375 0.875
vt 0.9375 0.875
vt 0.9375 0.875
vt 0.9375 0.875
vt 0.9375 0.875
vt 0.9375 0.875
vt 0.9375 0.875
vt 0.9375 0.875
vt 0.9375 0.875
vt 0.9375 0.875
vt 0.9375 0.875
vt 0.9375 0.875
vt 0.9375 0.875
vt 0.9375 0.875
vt 0.9375 0.875
vt 0.9375 0.875
vt 0.9375 0.875
vt 0.9375 0.875
vt 0.9375 0.875
vt 0.9375 0.875
vt 0.9375 0.875
vt 0.9375 0.875
vt 0.9375 0.875
vt 0.9375 0.875
vt 0.9375 0.875
vt 0.9375 0.875
vt 0.9375 0.875
vt 0.9375 0.875
vt 0.9375 0.875
vt 0.9375 0.875
vt 0.9375 0.875
vt 0.9375 0.875
vt 0.9375 0.875
vt 0.9375 0.875
vt 0.9375 0.875
vt 0.9375 0.875
vt 0.9375 0.875
vt 0.9375 0.875
vt 0.9375 0.875
vt 0.9375 0.875
vt 0.9375 0.875
vt 0.9375 0.875
vt 0.9375 0.875
vt 0.9375 0.875
vt 0.9375 0.875
vt 0.9375 0.875
vt 0.9375 0.875
vt 0.9375 0.875
vt 0.9375 0.875
vt 0.9375 0.875
vt 0.9375 0.875
vt 0.9375 0.875
vt 0.9375 0.875
vt 0.9375 0.875
vt 0.9375 0.875
vt 0.9375 0.875
vt 0.9375 0.875
vt 0.9375 0.875
vt 0.9375 0.875
vt 0.9375 0.875
vt 0.9375 0.875
vt 0.9375 0.875
vt 0.9375 0.875
vt 0.9375 0.875
vt 0.9375 0.875
vt 0.9375 0.875
vt 0.9375 0.875
vt 0.9375 0.875
vt 0.9375 0.875
vt 0.9375 0.875
vt 0.9375 0.875
vt 0.9375 0.875
vt 0.9375 0.875
vt 0.9375 0.875
vt 0.9375 0.875
vt 0.9375 0.875
vt 0.9375 0.875
vt 0.9375 0.875
vt 0.9375 0.875
vt 0.9375 0.875
vt 0.9375 0.875
vt 0.9375 0.875
vt 0.9375 0.875
vt 0.9375 0.875
vt 0.9375 0.875
vt 0.9375 0.875
vt 0.9375 0.875
vt 0.9375 0.875
vt 0.9375 0.875
vt 0.9375 0.875
vt 0.9375 0.875
vt 0.9375 0.875
vt 0.9375 0.875
vt 0.9375 0.875
vt 0.9375 0.875
vt 0.9375 0.875
vt 0.9375 0.875
vt 0.9375 0.875
vt 0.9375 0.875
vt 0.9375 0.875
vt 0.9375 0.875
vt 0.9375 0.875
vt 0.9375 0.875
vt 0.9375 0.875
vt 0.9375 0.875
vt 0.9375 0.875
vt 0.9375 0.875
vt 0.9375 0.875
vt 0.9375 0.875
vt 0.9375 0.875
vt 0.9375 0.875
vt 0.9375 0.875
vt 0.9375 0.875
vt 0.9375 0.875
vt 0.9375 0.875
vt 0.9375 0.875
vt 0.9375 0.875
vt 0.9375 0.875
vt 0.9375 0.875
vt 0.9375 0.875
vt 0.9375 0.875
vt 0.9375 0.875
vt 0.9375 0.875
vt 0.9375 0.875
vt 0.9375 0.875
vt 0.9375 0.875
vt 0.9375 0.875
vt 0.9375 0.875
vt 0.9375 0.875
vt 0.9375 0.875
vt 0.9375 0.875
vt 0.9375 0.875
vt 0.9375 0.875
vt 0.9375 0.875
vt 0.9375 0.875
vt 0.9375 0.875
vt 0.9375 0.875
vt 0.9375 0.875
vt 0.9375 0.875
vt 0.9375 0.875
vt 0.9375 0.875
vt 0.9375 0.875
vt 0.9375 0.875
vt 0.9375 0.875
vt 0.9375 0.875
vt 0.9375 0.875
vt 0.9375 0.875
vt 0.9375 0.875
vt 0.9375 0.875
vt 0.9375 0.875
vt 0.9375 0.875
vt 0.9375 0.875
vt 0.9375 0.875
vt 0.9375 0.875
vt 0.9375 0.875
vt 0.9375 0.875
vt 0.9375 0.875
vt 0.9375 0.875
vt 0.9375 0.875
vt 0.9375 0.875
vt 0.9375 0.875
vt 0.9375 0.875
vt 0.9375 0.875
vt 0.9375 0.875
vt 0.9375 0.875
vt 0.9375 0.875
vt 0.9375 0.875
vt 0.9375 0.875
vt 0.9375 0.875
vt 0.9375 0.875
vt 0.9375 0.875
vt 0.9375 0.875
vt 0.9375 0.875
vt 0.9375 0.875
vt 0.9375 0.875
vt 0.9375 0.875
vt 0.9375 0.875
vt 0.9375 0.875
vt 0.9375 0.875
vt 0.9375 0.875
vt 0.9375 0.875
vt 0.9375 0.875
vt 0.9375 0.875
vt 0.9375 0.875
vt 0.9375 0.875
vt 0.9375 0.875
vt 0.9375 0.875
vt 0.9375 0.875
vt 0.9375 0.875
vt 0.9375 0.875
vt 0.9375 0.875
vt 0.9375 0.875
vt 0.9375 0.875
vt 0.9375 0.875
vt 0.9375 0.875
vt 0.9375 0.875
vt 0.9375 0.875
vt 0.9375 0.875
vt 0.9375 0.875
vt 0.9375 0.875
vt 0.9375 0.875
vt 0.9375 0.875
vt 0.9375 0.875
vt 0.9375 0.875
vt 0.9375 0.875
vt 0.9375 0.875
vt 0.125 0.625
vt 0.125 0.625
vt 0.125 0.625
vt 0.125 0.625
vt 0.125 0.625
vt 0.125 0.625
vt 0.125 0.625
vt 0.125 0.625
vt 0.125 0.625
vt 0.125 0.625
vt 0.125 0.625
vt 0.125 0.625
vt 0.125 0.625
vt 0.125 0.625
vt 0.125 0.625
vt 0.125 0.625
vt 0.125 0.625
vt 0.125 0.625
vt 0.125 0.625
vt 0.125 0.625
vt 0.125 0.625
vt 0.125 0.625
vt 0.125 0.625
vt 0.125 0.625
vt 0.125 0.625
vt 0.125 0.625
vt 0.125 0.625
vt 0.9375 0.875
vt 0.9375 0.875
vt 0.9375 0.875
vt 0.9375 0.875
vt 0.9375 0.875
vt 0.9375 0.875
vt 0.9375 0.875
vt 0.9375 0.875
vt 0.9375 0.875
vt 0.9375 0.875
vt 0.9375 0.875
vt 0.9375 0.875
vt 0.9375 0.875
vt 0.9375 0.875
vt 0.9375 0.875
vt 0.9375 0.875
vt 0.9375 0.875
vt 0.9375 0.875
vt 0.9375 0.875
vt 0.9375 0.875
vt 0.125 0.625
vt 0.125 0.625
vt 0.125 0.625
vt 0.125 0.625
vt 0.125 0.625
vt 0.125 0.625
vt 0.125 0.625
vt 0.125 0.625
vt 0.125 0.625
vt 0.125 0.625
vt 0.125 0.625
vt 0.125 0.625
vt 0.125 0.625
vt 0.125 0.625
vt 0.125 0.625
vt 0.125 0.625
vt 0.125 0.625
vt 0.125 0.625
vt 0.125 0.625
vt 0.125 0.625
vt 0.125 0.625
vt 0.125 0.625
vt 0.125 0.625
vt 0.9375 0.875
vt 0.9375 0.875
vt 0.9375 0.875
vt 0.9375 0.875
vt 0.9375 0.875
vt 0.9375 0.875
vt 0.9375 0.875
vt 0.9375 0.875
vt 0.9375 0.875
vt 0.9375 0.875
vt 0.9375 0.875
vt 0.9375 0.875
vt 0.9375 0.875
vt 0.9375 0.875
vt 0.9375 0.875
vt 0.9375 0.875
vt 0.9375 0.875
vt 0.9375 0.875
vt 0.9375 0.875
vt 0.9375 0.875
vt 0.9375 0.875
vt 0.9375 0.875
vt 0.9375 0.875
vt 0.40625 0.625
vt 0.375 0.59375
vt 0.375 0.59375
vt 0.40625 0.625
vt 0.375 0.625
vt 0.375 0.59375
vt 0.40625 0.625
vt 0.375 0.59375
vt 0.375 0.59375
vt 0.40625 0.625
vt 0.375 0.59375
vt 0.375 0.59375
vt 0.375 0.59375
vt 0.375 0.625
vt 0.375 0.59375
vt 0.375 0.59375
vt 0.375 0.59375
vt 0.375 0.59375
vt 0.375 0.59375
vt 0.375 0.59375
vt 0.375 0.59375
vt 0.375 0.59375
vt 0.375 0.59375
vt 0.375 0.59375
vt 0.375 0.625
vt 0.375 0.59375
vt 0.375 0.59375
vt 0.375 0.59375
vt 0.375 0.59375
vt 0.375 0.59375
vt 0.375 0.59375
vt 0.375 0.59375
vt 0.375 0.59375
vt 0.375 0.59375
vt 0.375 0.59375
vt 0.375 0.59375
vt 0.375 0.59375
vt 0.375 0.59375
vt 0.375 0.59375
vt 0.375 0.59375
vt 0.375 0.59375
vt 0.375 0.59375
vt 0.375 0.59375
vt 0.375 0.59375
vt 0.375 0.59375
vt 0.375 0.59375
vt 0.375 0.59375
vt 0.375 0.59375
vt 0.375 0.59375
vt 0.375 0.59375
vt 0.375 0.59375
vt 0.375 0.59375
vt 0.375 0.59375
vt 0.375 0.59375
vt 0.375 0.59375
vt 0.375 0.59375
vt 0.375 0.59375
vt 0.375 0.59375
vt 0.375 0.59375
vt 0.375 0.59375
vt 0.375 0.59375
vt 0.375 0.59375
vt 0.375 0.59375
vt 0.375 0.59375
vt 0.375 0.59375
vt 0.375 0.59375
vt 0.375 0.59375
vt 0.375 0.59375
vt 0.9375 0.875
vt 0.9375 0.875
vt 0.9375 0.875
vt 0.9375 0.875
vt 0.9375 0.875
vt 0.9375 0.875
vt 0.9375 0.875
vt 0.9375 0.875
vt 0.9375 0.875
vt 0.9375 0.875
vt 0.9375 0.875
vt 0.9375 0.875
vt 0.9375 0.875
vt 0.9375 0.875
vt 0.9375 0.875
vt 0.9375 0.875
vt 0.9375 0.875
vt 0.9375 0.875
vt 0.9375 0.875
vt 0.9375 0.875
vt 0.9375 0.875
vt 0.9375 0.875
vt 0.9375 0.875
vt 0.9375 0.875
vt 0.9375 0.875
vt 0.9375 0.875
vt 0.9375 0.875
vt 0.9375 0.875
vt 0.9375 0.875
vt 0.9375 0.875
vt 0.9375 0.875
vt 0.9375 0.875
vt 0.9375 0.875
vt 0.9375 0.875
vt 0.9375 0.875
vt 0.9375 0.875
vt 0.9375 0.875
vt 0.9375 0.875
vt 0.9375 0.875
vt 0.9375 0.875
vt 0.9375 0.875
vt 0.9375 0.875
vt 0.9375 0.875
vt 0.9375 0.875
vt 0.9375 0.875
vt 0.9375 0.875
vt 0.9375 0.875
vt 0.9375 0.875
vt 0.9375 0.875
vt 0.9375 0.875
vt 0.9375 0.875
vt 0.9375 0.875
vt 0.9375 0.875
vt 0.9375 0.875
vt 0.9375 0.875
vt 0.9375 0.875
vt 0.9375 0.875
vt 0.9375 0.875
vt 0.125 0.625
vt 0.125 0.625
vt 0.125 0.625
vt 0.125 0.625
vt 0.125 0.625
vt 0.125 0.625
vt 0.125 0.625
vt 0.9375 0.875
vt 0.9375 0.875
vt 0.9375 0.875
vt 0.9375 0.875
vt 0.9375 0.875
vt 0.9375 0.875
vt 0.9375 0.875
vt 0.9375 0.875
vt 0.9375 0.875
vt 0.9375 0.875
vt 0.9375 0.875
vt 0.9375 0.875
vt 0.9375 0.875
vt 0.9375 0.875
vt 0.9375 0.875
vt 0.9375 0.875
vt 0.9375 0.875
vt 0.9375 0.875
vt 0.9375 0.875
vt 0.9375 0.875
vt 0.9375 0.875
vt 0.9375 0.875
vt 0.9375 0.875
vt 0.125 0.625
vt 0.125 0.625
vt 0.125 0.625
vt 0.125 0.625
vt 0.125 0.625
vt 0.125 0.625
vt 0.125 0.625
vt 0.125 0.625
vt 0.125 0.625
vt 0.125 0.625
vt 0.125 0.625
vt 0.125 0.625
vt 0.125 0.625
vt 0.125 0.625
vt 0.125 0.625
vt 0.125 0.625
vt 0.125 0.625
vt 0.125 0.625
vt 0.125 0.625
vt 0.125 0.625
vt 0.125 0.625
vt 0.125 0.625
vt 0.125 0.625
vt 0.125 0.625
vt 0.125 0.625
vt 0.125 0.625
vt 0.125 0.625
vt 0.125 0.625
vt 0.125 0.625
vt 0.125 0.625
vt 0.125 0.625
vt 0.125 0.625
vt 0.125 0.625
vt 0.125 0.625
vt 0.125 0.625
vt 0.125 0.625
vt 0.125 0.625
vt 0.125 0.625
vt 0.125 0.625
vt 0.125 0.625
vt 0.125 0.625
vt 0.125 0.625
vt 0.125 0.625
vt 0.125 0.625
vt 0.125 0.625
vt 0.125 0.625
vt 0.125 0.625
vt 0.125 0.625
vt 0.125 0.625
vt 0.125 0.625
vt 0.125 0.625
vt 0.125 0.625
vt 0.125 0.625
vt 0.125 0.625
vt 0.125 0.625
vt 0.125 0.625
vt 0.125 0.625
vt 0.125 0.625
vt 0.125 0.625
vt 0.125 0.625
vt 0.125 0.625
vt 0.125 0.625
vt 0.125 0.625
vt 0.125 0.625
vt 0.125 0.625
vt 0.125 0.625
vt 0.125 0.625
vt 0.125 0.625
vt 0.125 0.625
vt 0.125 0.625
vt 0.125 0.625
vt 0.125 0.625
vt 0.125 0.625
vt 0.125 0.625
vt 0.125 0.625
vt 0.125 0.625
vt 0.125 0.625
vt 0.125 0.625
vt 0.125 0.625
vt 0.125 0.625
vt 0.125 0.625
vt 0.125 0.625
vt 0.125 0.625
vt 0.125 0.625
vt 0.125 0.625
vt 0.125 0.625
vt 0.125 0.625
vt 0.125 0.625
vt 0.125 0.625
vt 0.125 0.625
vt 0.125 0.625
vt 0.125 0.625
vt 0.125 0.625
vt 0.125 0.625
vt 0.125 0.625
vt 0.125 0.625
vt 0.125 0.625
vt 0.125 0.625
vt 0.125 0.625
vt 0.125 0.625
vt 0.125 0.625
vt 0.125 0.625
vt 0.125 0.625
vt 0.125 0.625
vt 0.125 0.625
vt 0.125 0.625
vt 0.125 0.625
vt 0.9375 0.875
vt 0.9375 0.875
vt 0.9375 0.875
vt 0.9375 0.875
vt 0.9375 0.875
vt 0.9375 0.875
vt 0.9375 0.875
vt 0.9375 0.875
vt 0.9375 0.875
vt 0.9375 0.875
vt 0.9375 0.875
vt 0.9375 0.875
vt 0.9375 0.875
vt 0.9375 0.875
vt 0.9375 0.875
vt 0.9375 0.875
vt 0.9375 0.875
vt 0.9375 0.875
vt 0.9375 0.875
vt 0.9375 0.875
vt 0.9375 0.875
vt 0.9375 0.875
vt 0.9375 0.875
vt 0.9375 0.875
vt 0.9375 0.875
vt 0.9375 0.875
vt 0.9375 0.875
vt 0.9375 0.875
vt 0.9375 0.875
vt 0.9375 0.875
vt 0.9375 0.875
vt 0.9375 0.875
vt 0.9375 0.875
vt 0.9375 0.875
vt 0.9375 0.875
vt 0.9375 0.875
vt 0.9375 0.875
vt 0.9375 0.875
vt 0.9375 0.875
vt 0.9375 0.875
vt 0.9375 0.875
vt 0.9375 0.875
vt 0.9375 0.875
vt 0.9375 0.875
vt 0.9375 0.875
vt 0.9375 0.875
vt 0.9375 0.875
vt 0.9375 0.875
vt 0.9375 0.875
vt 0.9375 0.875
vt 0.9375 0.875
vt 0.9375 0.875
vt 0.9375 0.875
vt 0.9375 0.875
vt 0.9375 0.875
vt 0.9375 0.875
vt 0.9375 0.875
vt 0.9375 0.875
vt 0.9375 0.875
vt 0.9375 0.875
vt 0.9375 0.875
vt 0.9375 0.875
vt 0.9375 0.875
vt 0.9375 0.875
vt 0.9375 0.875
vt 0.9375 0.875
vt 0.9375 0.875
vt 0.9375 0.875
vt 0.9375 0.875
vt 0.9375 0.875
vt 0.9375 0.875
vt 0.9375 0.875
vt 0.375 0.15625
vt 0.375 0.15625
vt 0.375 0.15625
vt 0.375 0.15625
vt 0.9375 0.875
vt 0.9375 0.875
vt 0.9375 0.875
vt 0.9375 0.875
vt 0.9375 0.875
vt 0.9375 0.875
vt 0.9375 0.875
vt 0.9375 0.875
vt 0.9375 0.875
vt 0.9375 0.875
vt 0.9375 0.875
vt 0.9375 0.875
vt 0.375 0.15625
vt 0.375 0.15625
vt 0.375 0.1875
vt 0.375 0.15625
vt 0.375 0.15625
vt 0.375 0.15625
vt 0.375 0.15625
vt 0.375 0.15625
vt 0.375 0.15625
vt 0.375 0.15625
vt 0.375 0.15625
vt 0.375 0.15625
vt 0.375 0.15625
vt 0.375 0.15625
vt 0.375 0.15625
vt 0.375 0.15625
vt 0.34375 0.1875
vt 0.375 0.15625
vt 0.375 0.15625
vt 0.34375 0.15625
vt 0.375 0.15625
vt 0.375 0.15625
vt 0.375 0.15625
vt 0.34375 0.1875
vt 0.375 0.15625
vt 0.375 0.15625
vt 0.375 0.15625
vt 0.375 0.15625
vt 0.375 0.15625
vt 0.375 0.15625
vt 0.34375 0.1875
vt 0.375 0.1875
vt 0.375 0.15625
vt 0.375 0.15625
vt 0.34375 0.15625
vt 0.375 0.15625
vt 0.375 0.15625
vt 0.375 0.15625
vt 0.375 0.15625
vt 0.375 0.15625
vt 0.375 0.1875
vt 0.34375 0.1875
vt 0.34375 0.15625
vt 0.375 0.15625
vt 0.375 0.15625
vt 0.375 0.1875
vt 0.375 0.15625
vt 0.375 0.15625
vt 0.9375 0.875
vt 0.9375 0.875
vt 0.9375 0.875
vt 0.9375 0.875
vt 0.125 0.625
vt 0.125 0.625
vt 0.125 0.625
vt 0.125 0.625
vt 0.125 0.625
vt 0.125 0.625
vt 0.125 0.625
vt 0.125 0.625
vt 0.125 0.625
vt 0.125 0.625
vt 0.125 0.625
vt 0.125 0.625
vt 0.125 0.625
vt 0.125 0.625
vt 0.125 0.625
vt 0.125 0.625
vt 0.125 0.625
vt 0.125 0.625
vt 0.125 0.625
vt 0.125 0.625
vt 0.125 0.625
vt 0.125 0.625
vt 0.125 0.625
vt 0.125 0.625
vt 0.125 0.625
vt 0.125 0.625
vt 0.125 0.625
vt 0.125 0.625
vt 0.125 0.625
vt 0.125 0.625
vt 0.125 0.625
vt 0.125 0.625
vt 0.125 0.625
vt 0.125 0.625
vt 0.9375 0.875
vt 0.9375 0.875
vt 0.9375 0.875
vt 0.9375 0.875
vt 0.125 0.625
vt 0.125 0.625
vt 0.125 0.625
vt 0.125 0.625
vt 0.125 0.625
vt 0.125 0.625
vt 0.125 0.625
vt 0.125 0.625
vt 0.9375 0.875
vt 0.9375 0.875
vt 0.9375 0.875
vt 0.9375 0.875
vt 0.9375 0.875
vt 0.9375 0.875
vt 0.9375 0.875
vt 0.9375 0.875
vt 0.9375 0.875
vt 0.9375 0.875
vt 0.9375 0.875
vt 0.9375 0.875
vt 0.125 0.625
vt 0.125 0.625
vt 0.125 0.625
vt 0.9375 0.875
vt 0.9375 0.875
vt 0.9375 0.875
vt 0.9375 0.875
vt 0.9375 0.875
vt 0.9375 0.875
vt 0.9375 0.875
vt 0.9375 0.875
vt 0.9375 0.875
vt 0.9375 0.875
vt 0.9375 0.875
vt 0.125 0.625
vt 0.125 0.625
vt 0.125 0.625
vt 0.125 0.625
vt 0.9375 0.875
vt 0.9375 0.875
vt 0.9375 0.875
vt 0.9375 0.875
vt 0.9375 0.875
vt 0.9375 0.875
vt 0.9375 0.875
vt 0.9375 0.875
vt 0.9375 0.875
vt 0.9375 0.875
vt 0.9375 0.875
vt 0.9375 0.875
vt 0.9375 0.875
vt 0.9375 0.875
vt 0.9375 0.875
vt 0.9375 0.875
vt 0.9375 0.875
vt 0.9375 0.875
vt 0.9375 0.875
vt 0.9375 0.875
vt 0.9375 0.875
vt 0.9375 0.875
vt 0.9375 0.875
vt 0.9375 0.875
vt 0.9375 0.875
vt 0.9375 0.875
vt 0.9375 0.875
vt 0.9375 0.875
vt 0.9375 0.875
vt 0.9375 0.875
vt 0.9375 0.875
vt 0.9375 0.875
vt 0.9375 0.875
vt 0.9375 0.875
vt 0.9375 0.875
vt 0.9375 0.875
vt 0.9375 0.875
vt 0.9375 0.875
vt 0.9375 0.875
vt 0.9375 0.875
vt 0.9375 0.875
vt 0.9375 0.875
vt 0.9375 0.875
vt 0.9375 0.875
vt 0.9375 0.875
vt 0.9375 0.875
vt 0.9375 0.875
vt 0.9375 0.875
vt 0.9375 0.875
vt 0.9375 0.875
vt 0.9375 0.875
vt 0.9375 0.875
vt 0.9375 0.875
vt 0.9375 0.875
vt 0.9375 0.875
vt 0.9375 0.875
vt 0.9375 0.875
vt 0.9375 0.875
vt 0.9375 0.875
vt 0.9375 0.875
vt 0.9375 0.875
vt 0.9375 0.875
vt 0.9375 0.875
vt 0.9375 0.875
vt 0.9375 0.875
vt 0.9375 0.875
vt 0.9375 0.875
vt 0.9375 0.875
vt 0.9375 0.875
vt 0.9375 0.875
vt 0.9375 0.875
vt 0.9375 0.875
vt 0.9375 0.875
vt 0.9375 0.875
vt 0.9375 0.875
vt 0.9375 0.875
vt 0.9375 0.875
vt 0.9375 0.875
vt 0.9375 0.875
vt 0.9375 0.875
vt 0.9375 0.875
vt 0.9375 0.875
vt 0.9375 0.875
vt 0.9375 0.875
vt 0.9375 0.90625
vt 0.9375 0.875
vt 0.9375 0.875
vt 0.90625 0.90625
vt 0.9375 0.875
vt 0.9375 0.875
vt 0.9375 0.875
vt 0.9375 0.875
vt 0.9375 0.875
vt 0.9375 0.875
vt 0.9375 0.875
vt 0.9375 0.875
vt 0.9375 0.875
vt 0.9375 0.875
vt 0.9375 0.875
vt 0.9375 0.875
vt 0.9375 0.90625
vt 0.90625 0.90625
vt 0.90625 0.875
vt 0.9375 0.875
vt 0.9375 0.875
vt 0.9375 0.875
vt 0.9375 0.875
vt 0.9375 0.875
vt 0.9375 0.875
vt 0.9375 0.875
vt 0.9375 0.875
vt 0.9375 0.875
vt 0.9375 0.875
vt 0.9375 0.875
vt 0.9375 0.875
vt 0.9375 0.875
vt 0.9375 0.875
vt 0.9375 0.875
vt 0.9375 0.875
vt 0.9375 0.875
vt 0.9375 0.875
vt 0.9375 0.875
vt 0.9375 0.875
vt 0.9375 0.875
vt 0.9375 0.875
vt 0.9375 0.875
vt 0.9375 0.875
vt 0.9375 0.875
vt 0.9375 0.875
vt 0.9375 0.875
vt 0.9375 0.875
vt 0.9375 0.875
vt 0.9375 0.875
vt 0.9375 0.875
vt 0.9375 0.875
vt 0.9375 0.875
vt 0.9375 0.875
vt 0.9375 0.875
vt 0.9375 0.875
vt 0.9375 0.875
vt 0.9375 0.875
vt 0.9375 0.875
vt 0.9375 0.875
vt 0.9375 0.875
vt 0.9375 0.875
vt 0.9375 0.875
vt 0.9375 0.875
vt 0.9375 0.875
vt 0.9375 0.875
vt 0.9375 0.875
vt 0.9375 0.875
vt 0.9375 0.875
vt 0.9375 0.875
vt 0.9375 0.875
vt 0.9375 0.875
vt 0.9375 0.875
vt 0.9375 0.875
vt 0.9375 0.875
vt 0.9375 0.875
vt 0.9375 0.875
vt 0.9375 0.875
vt 0.9375 0.875
vt 0.9375 0.875
vt 0.9375 0.875
vt 0.9375 0.875
vt 0.9375 0.875
vt 0.9375 0.875
vt 0.9375 0.875
vt 0.9375 0.875
vt 0.9375 0.875
vt 0.9375 0.875
vt 0.9375 0.875
vt 0.9375 0.875
vt 0.9375 0.875
vt 0.9375 0.875
vt 0.9375 0.875
vt 0.9375 0.875
vt 0.9375 0.875
vt 0.9375 0.875
vt 0.9375 0.875
vt 0.9375 0.875
vt 0.9375 0.875
vt 0.9375 0.875
vt 0.9375 0.875
vt 0.9375 0.875
vt 0.9375 0.875
vt 0.9375 0.875
vt 0.9375 0.875
vt 0.9375 0.875
vt 0.9375 0.875
vt 0.9375 0.875
vt 0.90625 0.90625
vt 0.9375 0.875
vt 0.9375 0.875
vt 0.9375 0.875
vt 0.9375 0.875
vt 0.9375 0.875
vt 0.9375 0.875
vt 0.9375 0.875
vt 0.9375 0.875
vt 0.9375 0.875
vt 0.9375 0.875
vt 0.9375 0.875
vt 0.9375 0.875
vt 0.9375 0.875
vt 0.9375 0.875
vt 0.9375 0.875
vt 0.9375 0.875
vt 0.9375 0.875
vt 0.9375 0.875
vt 0.9375 0.875
vt 0.9375 0.875
vt 0.9375 0.875
vt 0.9375 0.875
vt 0.9375 0.875
vt 0.9375 0.875
vt 0.9375 0.875
vt 0.9375 0.875
vt 0.9375 0.875
vt 0.9375 0.875
vt 0.9375 0.875
vt 0.9375 0.875
vt 0.9375 0.875
vt 0.9375 0.875
vt 0.9375 0.875
vt 0.9375 0.875
vt 0.9375 0.875
vt 0.9375 0.875
vt 0.9375 0.875
vt 0.9375 0.875
vt 0.9375 0.875
vt 0.9375 0.875
vt 0.9375 0.875
vt 0.9375 0.875
vt 0.9375 0.875
vt 0.9375 0.875
vt 0.9375 0.875
vt 0.9375 0.875
vt 0.125 0.625
vt 0.125 0.625
vt 0.125 0.625
vt 0.125 0.625
vt 0.125 0.625
vt 0.125 0.625
vt 0.125 0.625
vt 0.125 0.625
vt 0.125 0.625
vt 0.125 0.625
vt 0.125 0.625
vt 0.125 0.625
vt 0.125 0.625
vt 0.125 0.625
vt 0.125 0.625
vt 0.125 0.625
vt 0.125 0.625
vt 0.125 0.625
vt 0.125 0.625
vt 0.125 0.625
vt 0.125 0.625
vt 0.125 0.625
vt 0.125 0.625
vt 0.125 0.625
vt 0.125 0.625
vt 0.125 0.625
vt 0.125 0.625
vt 0.9375 0.875
vt 0.9375 0.875
vt 0.9375 0.875
vt 0.9375 0.875
vt 0.9375 0.875
vt 0.9375 0.875
vt 0.9375 0.875
vt 0.9375 0.875
vt 0.9375 0.875
vt 0.9375 0.875
vt 0.9375 0.875
vt 0.9375 0.875
vt 0.9375 0.875
vt 0.9375 0.875
vt 0.9375 0.875
vt 0.9375 0.875
vt 0.9375 0.875
vt 0.9375 0.875
vt 0.9375 0.875
vt 0.9375 0.875
vt 0.125 0.625
vt 0.125 0.625
vt 0.125 0.625
vt 0.125 0.625
vt 0.125 0.625
vt 0.125 0.625
vt 0.125 0.625
vt 0.125 0.625
vt 0.125 0.625
vt 0.125 0.625
vt 0.125 0.65625
vt 0.125 0.625
vt 0.125 0.625
vt 0.125 0.625
vt 0.125 0.625
vt 0.125 0.625
vt 0.125 0.625
vt 0.125 0.625
vt 0.125 0.625
vt 0.125 0.625
vt 0.125 0.625
vt 0.125 0.625
vt 0.125 0.625
vt 0.9375 0.875
vt 0.9375 0.875
vt 0.9375 0.875
vt 0.9375 0.875
vt 0.9375 0.875
vt 0.9375 0.875
vt 0.9375 0.875
vt 0.9375 0.875
vt 0.9375 0.875
vt 0.9375 0.875
vt 0.9375 0.875
vt 0.9375 0.875
vt 0.9375 0.875
vt 0.9375 0.875
vt 0.9375 0.875
vt 0.9375 0.875
vt 0.9375 0.875
vt 0.9375 0.875
vt 0.9375 0.875
vt 0.9375 0.875
vt 0.9375 0.875
vt 0.9375 0.875
vt 0.9375 0.875
vt 0.375 0.59375
vt 0.375 0.59375
vt 0.375 0.59375
vt 0.375 0.59375
vt 0.375 0.59375
vt 0.375 0.59375
vt 0.375 0.59375
vt 0.375 0.59375
vt 0.375 0.59375
vt 0.375 0.59375
vt 0.375 0.59375
vt 0.375 0.59375
vt 0.375 0.59375
vt 0.375 0.59375
vt 0.375 0.59375
vt 0.375 0.59375
vt 0.375 0.59375
vt 0.375 0.59375
vt 0.375 0.59375
vt 0.375 0.59375
vt 0.375 0.59375
vt 0.375 0.59375
vt 0.375 0.59375
vt 0.375 0.59375
vt 0.375 0.59375
vt 0.375 0.59375
vt 0.375 0.59375
vt 0.375 0.59375
vt 0.375 0.59375
vt 0.375 0.59375
vt 0.375 0.59375
vt 0.375 0.59375
vt 0.375 0.59375
vt 0.375 0.59375
vt 0.375 0.59375
vt 0.375 0.59375
vt 0.375 0.59375
vt 0.375 0.59375
vt 0.375 0.59375
vt 0.375 0.59375
vt 0.375 0.59375
vt 0.375 0.59375
vt 0.375 0.59375
vt 0.375 0.59375
vt 0.375 0.59375
vt 0.375 0.59375
vt 0.375 0.59375
vt 0.375 0.59375
vt 0.375 0.59375
vt 0.375 0.59375
vt 0.375 0.59375
vt 0.375 0.59375
vt 0.375 0.59375
vt 0.375 0.59375
vt 0.375 0.59375
vt 0.375 0.59375
vt 0.375 0.59375
vt 0.375 0.59375
vt 0.375 0.59375
vt 0.375 0.59375
vt 0.375 0.59375
vt 0.375 0.59375
vt 0.375 0.59375
vt 0.375 0.59375
vt 0.375 0.59375
vt 0.375 0.59375
vt 0.375 0.59375
vt 0.375 0.59375
vt 0.9375 0.875
vt 0.9375 0.875
vt 0.9375 0.875
vt 0.9375 0.875
vt 0.9375 0.875
vt 0.9375 0.875
vt 0.9375 0.875
vt 0.9375 0.875
vt 0.9375 0.875
vt 0.9375 0.875
vt 0.90625 0.90625
vt 0.9375 0.875
vt 0.9375 0.875
vt 0.90625 0.875
vt 0.9375 0.875
vt 0.9375 0.875
vt 0.9375 0.875
vt 0.90625 0.875
vt 0.90625 0.875
vt 0.9375 0.875
vt 0.9375 0.875
vt 0.9375 0.875
vt 0.9375 0.875
vt 0.9375 0.875
vt 0.9375 0.875
vt 0.9375 0.875
vt 0.90625 0.875
vt 0.9375 0.875
vt 0.9375 0.875
vt 0.9375 0.875
vt 0.90625 0.90625
vt 0.9375 0.875
vt 0.9375 0.875
vt 0.9375 0.875
vt 0.9375 0.875
vt 0.9375 0.875
vt 0.9375 0.875
vt 0.9375 0.875
vt 0.9375 0.875
vt 0.9375 0.875
vt 0.9375 0.875
vt 0.9375 0.875
vt 0.9375 0.875
vt 0.9375 0.875
vt 0.9375 0.875
vt 0.9375 0.875
vt 0.9375 0.875
vt 0.9375 0.875
vt 0.9375 0.875
vt 0.9375 0.875
vt 0.9375 0.875
vt 0.9375 0.875
vt 0.9375 0.875
vt 0.9375 0.875
vt 0.9375 0.875
vt 0.9375 0.875
vt 0.9375 0.875
vt 0.9375 0.875
vt 0.125 0.625
vt 0.125 0.625
vt 0.125 0.625
vt 0.125 0.625
vt 0.125 0.625
vt 0.125 0.625
vt 0.125 0.625
vt 0.9375 0.875
vt 0.9375 0.875
vt 0.9375 0.875
vt 0.9375 0.875
vt 0.9375 0.875
vt 0.9375 0.875
vt 0.9375 0.875
vt 0.9375 0.875
vt 0.9375 0.875
vt 0.9375 0.875
vt 0.9375 0.875
vt 0.9375 0.875
vt 0.9375 0.875
vt 0.9375 0.875
vt 0.9375 0.875
vt 0.9375 0.875
vt 0.9375 0.875
vt 0.9375 0.875
vt 0.9375 0.875
vt 0.9375 0.875
vt 0.9375 0.875
vt 0.9375 0.875
vt 0.9375 0.875
vt 0.125 0.625
vt 0.125 0.625
vt 0.125 0.625
vt 0.125 0.625
vt 0.125 0.625
vt 0.125 0.625
vt 0.125 0.625
vt 0.125 0.625
vt 0.125 0.625
vt 0.125 0.625
vt 0.125 0.625
vt 0.125 0.625
vt 0.125 0.625
vt 0.125 0.625
vt 0.125 0.625
vt 0.125 0.625
vt 0.125 0.625
vt 0.125 0.625
vt 0.125 0.625
vt 0.125 0.625
vt 0.125 0.625
vt 0.125 0.625
vt 0.125 0.625
vt 0.125 0.625
vt 0.125 0.625
vt 0.125 0.625
vt 0.125 0.625
vt 0.125 0.625
vt 0.125 0.625
vt 0.125 0.625
vt 0.125 0.625
vt 0.125 0.625
vt 0.125 0.625
vt 0.125 0.625
vt 0.125 0.625
vt 0.125 0.625
vt 0.125 0.625
vt 0.125 0.625
vt 0.125 0.625
vt 0.125 0.625
vt 0.125 0.625
vt 0.125 0.625
vt 0.125 0.625
vt 0.125 0.625
vt 0.125 0.625
vt 0.125 0.625
vt 0.125 0.625
vt 0.125 0.625
vt 0.125 0.625
vt 0.125 0.625
vt 0.125 0.625
vt 0.125 0.625
vt 0.125 0.625
vt 0.125 0.625
vt 0.125 0.625
vt 0.125 0.625
vt 0.125 0.625
vt 0.125 0.625
vt 0.125 0.625
vt 0.125 0.625
vt 0.125 0.625
vt 0.125 0.625
vt 0.125 0.625
vt 0.125 0.625
vt 0.125 0.625
vt 0.125 0.625
vt 0.125 0.625
vt 0.125 0.625
vt 0.125 0.625
vt 0.125 0.625
vt 0.15625 0.65625
vt 0.125 0.625
vt 0.125 0.625
vt 0.125 0.625
vt 0.125 0.625
vt 0.125 0.625
vt 0.125 0.625
vt 0.125 0.625
vt 0.125 0.625
vt 0.125 0.625
vt 0.125 0.625
vt 0.125 0.625
vt 0.125 0.625
vt 0.125 0.625
vt 0.125 0.625
vt 0.125 0.625
vt 0.125 0.625
vt 0.15625 0.65625
vt 0.125 0.625
vt 0.125 0.625
vt 0.15625 0.65625
vt 0.125 0.625
vt 0.125 0.625
vt 0.125 0.625
vt 0.125 0.625
vt 0.125 0.625
vt 0.125 0.625
vt 0.125 0.625
vt 0.125 0.625
vt 0.125 0.625
vt 0.125 0.625
vt 0.125 0.625
vt 0.125 0.65625
vt 0.125 0.625
vt 0.125 0.625
vt 0.125 0.625
vt 0.125 0.625
vt 0.9375 0.875
vt 0.9375 0.875
vt 0.9375 0.875
vt 0.9375 0.875
vt 0.9375 0.875
vt 0.9375 0.875
vt 0.9375 0.875
vt 0.9375 0.875
vt 0.9375 0.875
vt 0.9375 0.875
vt 0.9375 0.875
vt 0.9375 0.875
vt 0.9375 0.875
vt 0.9375 0.875
vt 0.9375 0.875
vt 0.9375 0.875
vt 0.9375 0.875
vt 0.9375 0.875
vt 0.9375 0.875
vt 0.9375 0.875
vt 0.9375 0.875
vt 0.9375 0.875
vt 0.9375 0.875
vt 0.9375 0.875
vt 0.9375 0.875
vt 0.9375 0.875
vt 0.9375 0.875
vt 0.9375 0.875
vt 0.9375 0.875
vt 0.9375 0.875
vt 0.9375 0.875
vt 0.9375 0.875
vt 0.9375 0.875
vt 0.9375 0.875
vt 0.9375 0.875
vt 0.9375 0.875
vt 0.9375 0.875
vt 0.9375 0.875
vt 0.9375 0.875
vt 0.9375 0.875
vt 0.9375 0.875
vt 0.9375 0.875
vt 0.9375 0.875
vt 0.9375 0.875
vt 0.9375 0.875
vt 0.9375 0.875
vt 0.9375 0.875
vt 0.9375 0.875
vt 0.9375 0.875
vt 0.9375 0.875
vt 0.9375 0.875
vt 0.9375 0.875
vt 0.9375 0.875
vt 0.9375 0.875
vt 0.9375 0.875
vt 0.9375 0.875
vt 0.9375 0.875
vt 0.9375 0.875
vt 0.9375 0.875
vt 0.9375 0.875
vt 0.9375 0.875
vt 0.9375 0.875
vt 0.9375 0.875
vt 0.9375 0.875
vt 0.9375 0.875
vt 0.9375 0.875
vt 0.9375 0.875
vt 0.9375 0.875
vt 0.9375 0.875
vt 0.9375 0.875
vt 0.9375 0.875
vt 0.9375 0.875
vt 0.375 0.15625
vt 0.375 0.15625
vt 0.375 0.15625
vt 0.375 0.15625
vt 0.9375 0.875
vt 0.9375 0.875
vt 0.9375 0.875
vt 0.9375 0.875
vt 0.9375 0.875
vt 0.9375 0.875
vt 0.9375 0.875
vt 0.9375 0.875
vt 0.9375 0.875
vt 0.9375 0.875
vt 0.9375 0.875
vt 0.9375 0.875
vt 0.375 0.15625
vt 0.375 0.15625
vt 0.375 0.15625
vt 0.375 0.15625
vt 0.375 0.15625
vt 0.375 0.15625
vt 0.375 0.15625
vt 0.375 0.15625
vt 0.375 0.15625
vt 0.375 0.15625
vt 0.375 0.15625
vt 0.375 0.15625
vt 0.375 0.15625
vt 0.375 0.15625
vt 0.375 0.15625
vt 0.375 0.15625
vt 0.375 0.15625
vt 0.375 0.15625
vt 0.375 0.15625
vt 0.375 0.15625
vt 0.375 0.15625
vt 0.375 0.15625
vt 0.375 0.15625
vt 0.375 0.15625
vt 0.375 0.15625
vt 0.375 0.15625
vt 0.375 0.15625
vt 0.375 0.15625
vt 0.375 0.15625
vt 0.375 0.15625
vt 0.375 0.15625
vt 0.375 0.15625
vt 0.375 0.15625
vt 0.375 0.15625
vt 0.375 0.15625
vt 0.375 0.15625
vt 0.375 0.15625
vt 0.375 0.15625
vt 0.375 0.15625
vt 0.375 0.15625
vt 0.375 0.15625
vt 0.375 0.15625
vt 0.375 0.15625
vt 0.375 0.15625
vt 0.375 0.15625
vt 0.375 0.15625
vt 0.375 0.15625
vt 0.375 0.15625
vt 0.9375 0.875
vt 0.9375 0.875
vt 0.9375 0.875
vt 0.9375 0.875
vt 0.125 0.625
vt 0.125 0.625
vt 0.125 0.625
vt 0.125 0.625
vt 0.125 0.625
vt 0.125 0.625
vt 0.125 0.625
vt 0.125 0.625
vt 0.125 0.625
vt 0.125 0.625
vt 0.125 0.625
vt 0.125 0.625
vt 0.125 0.625
vt 0.125 0.625
vt 0.125 0.625
vt 0.125 0.625
vt 0.125 0.625
vt 0.125 0.625
vt 0.125 0.625
vt 0.125 0.625
vt 0.125 0.625
vt 0.125 0.625
vt 0.125 0.625
vt 0.125 0.625
vt 0.125 0.625
vt 0.125 0.65625
vt 0.15625 0.65625
vt 0.125 0.625
vt 0.125 0.625
vt 0.125 0.65625
vt 0.125 0.625
vt 0.15625 0.65625
vt 0.125 0.65625
vt 0.125 0.625
vn -0.19220425884345307 0.7957668353139095 0.5742931887955182
vn -0.1670037910090311 -0.9489770169390519 0.26749271973283795
vn -0.3466113323435706 -0.6972915024549682 0.627411463789998
vn -0.4093158025332249 -0.5755033371501839 0.7079946911704804
vn 0.17112787557055503 -0.941986012437302 0.28875180099036635
vn -0.08011960476084085 0.9922951250996841 0.09450520428192952
vn -0.3870419023060316 0.6330883692287413 0.6703713020458298
vn 0.06615963899320361 -0.9730047370241223 0.22109881025665323
vn 0.9249192177395884 0.37076032731002445 0.0840310677603901
vn 0.2893847789195478 0.9401940527963468 0.1796986166225681
vn 0.09265764903034247 0.9574705960645187 -0.2732482712626474
vn 0.5188717902771132 -0.20885143907270148 -0.8289470077465055
vn 0.1468688276833003 -0.38544685533968714 0.9109666674273431
vn -0.3266099450966469 0.04198697337940948 0.9442261582006729
vn -0.13676628336394747 -0.5102547750955493 0.8490789411044198
vn 0.468047965176194 -0.24751889478085745 -0.8483310079331576
vn 0.908673559472421 0.29124822658449345 0.29914349872111246
vn 0.8709191366233 0.428064146012295 0.24137303984101105
vn 0.8052620588771608 -0.30265307246739476 0.5098569743162898
vn -0.053120292754019464 -0.6303348937834783 0.7745038128871274
vn 0.909475029791679 0.38862762212809254 0.14772860760356965
vn 0.6368239700114977 -0.48066147957071925 0.6028430751660686
vn 0.6476538118515396 0.7593675201498901 0.06249407440371589
vn 0.7130889495857472 0.6824588024344332 0.16048094266440177
vn 0.9083439612437195 -0.04430061550602832 0.41587101791042796
vn 0.7316051840686011 0.10265425126502867 0.6739554579800988
vn 0.7323483524257602 0.08673136674607677 0.675384009820807
vn 0.5158108915774856 0.7674681535409397 0.38069903786390136
vn 0.6143967006137223 -0.28076653862957557 0.737351235884866
vn 0.42943227061968353 -0.2215804507492466 -0.8754941626282745
vn 0.5827875564641578 -0.04626068085165286 0.8113067320302957
vn 0.702794775226415 0.5165943544231347 0.4890907654951151
vn -0.40493756744184745 -0.23520599324117378 0.8835743925769421
vn 0.48306194982686756 -0.7776206451196941 0.40243916920833644
vn -0.019241814549372654 -0.9126914794995435 -0.4081960507180121
vn 0.6915707763582111 0.5067635237296464 -0.514704373698547
vn 0.6886688395965301 0.6009713685076126 0.40567060973511015
vn 0.2659253823545305 -0.9560673475716465 0.12336497852678296
vn 0.4639910587297804 0.6159622922859057 0.6366339229892718
vn 0.745811410074498 -0.6586403258763394 0.09979109044498218
vn 0.15809580459296774 -0.9811864010706077 0.11081048201416142
vn -0.2819656696362205 0.8863001243088093 0.3673791648920597
vn 0.755677945896251 -0.6477109129217247 0.09706397564559623
vn 0.23606529019008182 -0.9717291063705824 -0.003965173350779763
vn -0.4214352162547214 0.16612383594276336 0.8915128880907993
vn 0.866021679861799 0.000005919811523160631 0.500006449932702
vn 0.8660247187561313 -5.23785590689977e-7 0.5000011865016817
vn 0.8660263225634036 1.2117704299089524e-7 0.4999984086247606
vn 0.866025650860589 5.800857746668989e-8 0.499999572051307
vn 0.8660253116820278 7.871737518097491e-7 0.500000159525402
vn 0.8660254335193118 -3.922987415873687e-7 0.4999999484975318
vn 0.8660258804889953 -1.2878586378941542e-7 0.4999991743225625
vn 0.8660259402424374 -8.342399742805409e-7 0.49999907082564327
vn 0.36171179143835464 -0.7812464656644246 0.5087421152423905
vn -0.144616988453719 0.4475457459709147 0.8824900746829476
vn 0.8714894816191572 -0.4841914611427666 0.07787626328738265
vn 0.3929804945753611 -0.8071531428664005 0.44053392019706794
vn 0.008201887791645757 0.5532790625440688 0.8329555858429726
vn -0.6189074488637806 0.7741176191055831 -0.13302436442708745
vn 0.8641507450388238 0.49925344124629367 -0.06316241962258469
vn 0.8660256825145052 1.425664429044416e-8 0.49999951722505226
vn 0.5489604911232052 -0.6940886638331878 0.46570731787682845
vn 0.9784724958540402 -0.16688882944315586 -0.12140713926396039
vn -0.06452124209940707 -0.566278528692681 0.821684633700547
vn 0.5514117481008914 -0.7115263405348597 0.43551733694698075
vn 0.2600182699506624 0.5730378471853782 0.7771860298442143
vn 0.7784836874631762 -0.6060581182951066 0.16326881393067802
vn -0.3023073605943111 0.25323993574098874 0.9189558175866787
vn 0.8782883007839559 0.3510858653445397 -0.32457414539871693
vn 0.9496153767124093 0.24352728558444378 -0.1972944436298747
vn 0.968618614835944 0.04807880302005371 -0.2438573511162949
vn 0.9708666172291346 0.10279126871701626 -0.21645315111035732
vn 0.03623448505587391 -0.17777158698510914 0.9834044564438029
vn 0.8752026194316558 -0.007870142298112847 0.4836925012858645
vn 0.8660252112912662 7.545141878277588e-7 0.5000003334072375
vn 0.8663513560659364 0.0007763197127460377 0.4994344052730219
vn 0.8660257893473648 1.1119704397947024e-7 0.49999933218481535
vn 0.8660261505791595 -6.888546591138918e-8 0.49999870651136497
vn 0.86602555349552 5.834481739791192e-7 0.49999974069237085
vn 0.44174901421962753 -0.3087199170200203 -0.842347803030992
vn 0.04194620830144321 0.8872888446938572 0.4593027560237061
vn 0.7098689185652481 0.6912320482294825 0.13521972472786425
vn 0.6079930196726249 0.7704012308004294 -0.1919021407138199
vn -0.3370208660354366 0.6037295506809139 0.7224455450006916
vn 0.8109328170658764 0.5777356455894351 -0.09278733761112433
vn 0.8660256867797124 0.0000012523434081114606 0.4999995098359192
vn 0.8901427553197827 -0.01903997554510249 0.4552838175061217
vn 0.8660257842814094 0.0000013372481151747995 0.4999993409575472
vn -0.42640263539188566 0.7010245219083322 0.5716164905021976
vn 0.004672601446716906 -0.9986478065267304 0.0517757212897186
vn 0.7762385452994521 -0.48508091040172713 -0.4026788188559487
vn 0.023045216598727367 -0.9195511905347002 0.39229392804137764
vn -0.16448345833436742 -0.410658700905051 0.8968303202419855
vn -0.18730758571677558 -0.6850277395598663 0.7040261815916031
vn 0.49251126470568773 -0.5149357526920006 0.7016222806735307
vn 0.04413665628859002 -0.9668682359622411 0.25143144166736026
vn 0.19048832150245387 0.3806335290135932 0.9048935384683859
vn 0.599383967876624 -0.15558415163199496 -0.7851957913879993
vn 0.42947337530802104 0.4158240704018863 -0.8016501496138717
vn 0.370783199808242 -0.38543489653506036 -0.8449613951376528
vn 0.6261214448558391 0.15958752480924449 -0.7632193382094662
vn 0.8436434569576864 0.5252903965179117 0.11106627237167707
vn 0.8436434269165644 -0.5252900733158364 0.1110680291367356
vn 0.9751165204968527 0.18074058917093358 0.1283768315555997
vn 0.5810065808483358 0.8102966385818021 0.07648993733791815
vn 0.5810167807820125 -0.8102891980695442 0.07649128016657707
vn 0.9751160260059543 -0.1807432296597304 0.1283768700293205
vn 0.5180121120592738 -0.5252877513696961 0.6750823875801077
vn 0.5987379215675449 0.18074064677816115 0.7802856655604976
vn 0.35674836892058276 0.8102963341165476 0.4649198341540056
vn 0.356754631856473 -0.8102888935963954 0.46492799610615204
vn 0.5987366838898849 -0.1807432065354968 0.7802860223378416
vn 0.5180126498416524 0.5252878889367723 0.6750818678800216
vn -0.3596733358285856 -0.15815531549404171 0.9195770700027909
vn -0.5453071093281116 0.38595045777866455 0.7440983810334882
vn -0.49394611962019275 -0.4095961520320521 0.7669734175006917
vn -0.3846308460346552 0.1550203223454205 0.9099603353655518
vn 0.349556820744634 -0.6302474250817495 0.693251911103553
vn 0.39125524333229167 0.879837790306057 -0.2698236411331374
vn -0.5933723088728415 -0.6279609661627509 0.5035616427398515
vn 0.4291022244891178 0.8676584708416729 0.25107779454818513
vn 0.589618113780386 -0.6815569178836401 0.4333943326660064
vn 0.2634282729628679 0.82980169836549 0.49197020884759823
vn 0.32968480289706187 0.6676933891900287 -0.6674529712052065
vn 0.31010960966265844 -0.7006556356532164 -0.6425836211904726
vn 0.7064435977522655 -0.6141991194071447 0.35170567938878056
vn 0.38638147764888103 -0.7715903080498716 -0.5053293483000685
vn 0.1719686009287832 -0.8551843939749743 0.4889646741803063
vn -0.3437311184473387 0.9144881732832556 0.2134485866338683
vn -0.3195752006206178 0.902718441115706 -0.2880470572977994
vn -0.2935886285123655 0.9272027526258216 -0.23259572810206058
vn -0.4982208764609612 0.8000730951876047 0.33415415696261763
vn 0.3493118452324814 -0.9176742771476358 0.18935457702903116
vn 0.45450517236570703 -0.8513910122419126 0.2618365760670392
vn -0.07530608319996894 0.8460375994939557 -0.527777769592074
vn 0.6701150609933392 -0.7347914158902871 -0.10501133350186835
vn 0.3561389273725755 -0.4410055120410284 0.8238198849016342
vn 0.8063718381568986 -0.5651694075749429 -0.17420677188000733
vn 0.2551395714155528 0.964455024159081 0.06877721622888495
vn 0.2537195056390996 0.9218007566346728 0.29310369756452376
vn 0.28723392667619996 0.9576048692666612 0.022126584077807137
vn -0.2615495202303445 0.823090300085616 0.5040974175417359
vn 0.26523977924368664 0.8929213480263107 -0.3637847244534005
vn -0.44760949969926095 0.4813687305231592 0.7536112267300029
vn -0.328317172005794 0.5246614585637738 0.785454128809475
vn 0.5501227873983027 0.6205438111768741 -0.5588293990076061
vn -0.054429385070528 0.9941113692217473 0.09370180160972094
vn 0.5642679520362478 0.0972121605513824 -0.8198484458396875
vn 0.09962706862894237 0.9769857100792272 -0.1886090387478615
vn -0.2568514406544856 0.8381572471712353 0.48116500958408437
vn -0.2317401268538996 0.9419849039547896 0.24281876848181297
vn 0.3969995732370569 0.7651301189761802 -0.50691936231031
vn -0.18370243709555983 0.9642621222074956 0.19092400132264337
vn 0.5624944816583636 0.0321666911206695 -0.8261750795601598
vn 0.5693241213681863 -0.08510702381375562 -0.8176960555890602
vn 0.2504843269554417 0.822808873699021 -0.5101403329593027
vn -0.4999191696111961 -0.6428522283912103 0.5803635380584374
vn -0.4260528052732522 -0.29992059086965545 0.8535377240000521
vn 0.8660248548998245 2.6404568178789844e-7 0.5000009506947647
vn -0.5322343027134553 0.47035032990229975 0.703915630012518
vn -0.5024138882678572 -0.07668030348334123 0.8612203062708611
vn -0.23083674655562747 -0.9009992563967124 0.3673074140446721
vn -0.5538965580729834 0.42799464852080493 0.7141562740692368
vn -0.031144774990747054 -0.9959853419153276 -0.08392378495148915
vn -0.5980464466346331 -0.12713427439445651 0.7913136697554795
vn 0.26820016070162045 -0.8654962171967817 -0.4230661553677938
vn 0.8716245749430682 0.002193679606896075 0.4901691423632237
vn 0.8715686661181835 -0.00025455320871439616 0.49027338847181406
vn 0.9025656484424092 -0.2792365822476586 -0.3277227202779514
vn -0.5822332995085002 0.7771562994708757 -0.2388147213556564
vn 0.8660288594390925 -0.000005708674107310581 0.4999940145502101
vn 0.8660266889135865 0.0000012512535597169937 0.4999977740828497
vn 0.3927263092780816 -0.3980840705977217 0.8290326403327948
vn 0.7699847898748452 -0.49061526273381273 0.40794618190886706
vn -0.7373900845707603 0.569020498313135 0.36396639360825433
vn -0.2894242804929715 0.7113945480378294 -0.640430623005473
vn 0.5067899705814876 -0.6931991887775969 0.5124829854698559
vn 0.7444693723266282 -0.5764264297226982 0.33689453065423836
vn 0.06002782066019602 0.947918925405575 0.3128040466565732
vn -0.15097593493980682 0.5184897261662201 0.8416499693632322
vn 0.10550337549765637 0.8743060406249291 0.47376997064541815
vn 0.8660251758771557 0.0000013300830287757513 0.5000003947450169
vn 0.8660256091032248 0.0000015796187944403086 0.49999964437476685
vn -0.1089430153226067 -0.11835543625762728 0.9869769045528295
vn 0.8660263308682914 2.678158664861043e-7 0.4999983942401548
vn 0.7456856553483486 -0.6203251001930079 0.2432070588577534
vn 0.8660257923866513 0.0000022507300426134435 0.49999932691555404
vn 0.08445709325584358 0.9682046112253386 0.2354715061334703
vn 0.5430127705983231 0.43573596878724 -0.7178240010421625
vn -0.7321776913640962 0.5992126777938204 -0.32382093051546507
vn 0.44811918457666394 0.784552766998223 -0.4285628917787659
vn 0.8111787530547172 0.2799064084044968 0.5134602546708841
vn 0.8632724753750586 0.0380921156996023 0.5032987422807125
vn 0.8681436275212968 -0.04401428324775414 0.4943575475952101
vn -0.8687147781854577 0.08740845321810507 -0.48753912301292224
vn -0.2652972081999519 -0.00661244214592955 0.964144007361026
vn -0.8343729919262868 -0.21339404761004746 -0.5082171689234606
vn -0.8677834556762211 0.0860088154369565 -0.489442905477
vn -0.36321920338677044 -0.16791553474784446 0.9164475890532013
vn 0.5091333051831197 0.43538415358974325 -0.7424445543986805
vn 0.01970328894722231 0.9960511536951925 0.08656719717732732
vn -0.3860490611320401 -0.10728846785096345 0.9162179364459436
vn 0.4699537799515945 0.5695096646034155 -0.6743902331977485
vn 0.7583893058667707 0.43155330152227134 0.48847457322991306
vn 0.3408404062951208 -0.22433311205036136 -0.9129635656883451
vn 0.8660252740273723 8.78303663875206e-7 0.5000002247449933
vn 0.8660243936824853 -8.023493961335684e-7 0.500001749543179
vn 0.8660258394590072 9.56830680430727e-8 0.49999924538874324
vn 0.8710341519799206 -0.0018513884868128366 0.4912189719924218
vn 0.8763688100385432 -0.009737686131978701 0.48154219572164475
vn 0.8660279854192237 0.0000022028569496248517 0.49999552844587375
vn 0.8660274350635407 4.4476112969043385e-7 0.4999964817046885
vn 0.8660253553679393 4.64800834996458e-8 0.5000000838598255
vn 0.8660247851484851 1.0905864211759477e-7 0.5000010715073605
vn -0.39194161522681037 0.7881141950727162 0.47461330130779483
vn -0.14971962010252068 -0.9491317153013669 0.27700726049228797
vn -0.4277669104718449 -0.6752543600749374 0.6008718827713272
vn -0.4102481241407366 -0.57495368574425 0.7079016428064773
vn -0.04667176344436664 -0.9928373725422869 -0.10998044453593374
vn -0.01813838041154027 0.9836153593437439 0.17936505796593766
vn -0.3870392972505291 0.6330883692287478 0.6703728060796481
vn -0.22455740256083861 -0.9730046535798149 0.05325332916498088
vn -0.5156609824879392 0.6710528080636937 -0.5327118169605446
vn -0.30031560885377745 0.9401942096673113 -0.16076499366107314
vn 0.15856139498646923 0.955026443287887 -0.2505649150236986
vn 0.3647192498736889 -0.21998321135841076 -0.9047581198817806
vn -0.6404713681304822 -0.6448833475112277 0.41703944023051515
vn -0.7065398682840911 0.11918331506368934 0.6975648729226039
vn -0.6363480372725823 -0.5268969251167153 0.5634188546382546
vn 0.04222307358681528 -0.18617498177883574 -0.9816089283500495
vn -0.6817821685953157 0.4650788156966725 -0.5646899766913249
vn -0.6400395414894818 0.44671232079533196 -0.6251379749939867
vn -0.794886562106082 -0.4311556860576856 -0.4269193457355853
vn -0.9750022841564319 -0.16535584470639403 0.14841829574272708
vn -0.41853849393193193 0.8013991316335353 -0.42729961492400886
vn -0.7554179938474825 -0.6285682574835788 -0.18505566799074988
vn -0.4002562629709655 0.7298081103623022 -0.5542337467187678
vn -0.604793337679843 0.4216420621150636 -0.6756056469223982
vn -0.7960363488315838 -0.011440222969368233 -0.6051406883009043
vn -0.957934722149942 0.09719752150980782 -0.27002538753210636
vn -0.7348859288482297 0.15970594336985097 -0.6591181102300413
vn -0.5947086154867683 0.7705397166649705 -0.22932554961817508
vn -0.9885826351724207 -0.06903789979470064 -0.1339333484517199
vn 0.9502783981919667 -0.0670212004277343 -0.3041038056699315
vn -0.8681887732779683 -0.4883632918144801 0.08803152368453881
vn -0.7862423545990087 0.44463926551037664 -0.42909076359320514
vn -0.476184568103373 -0.6872933512711583 0.548521746513905
vn -0.8680702719413463 -0.05310396149888463 0.493592921591064
vn -0.5612421424513695 -0.7176220617556626 -0.41234188972034974
vn 0.41568307601977317 0.6202330673572751 -0.6652206569758079
vn -0.6870184391454268 0.6179421638270407 -0.3822998122402577
vn -0.5343034485344951 -0.8434083738216772 -0.05641045870776585
vn -0.7785735779657782 0.6262279334885471 -0.040764678488002276
vn -0.45932708403394507 -0.6586412835245953 -0.5959952093011714
vn -0.2116297007216783 -0.975177816188701 -0.06512370218199322
vn -0.2528120958671715 0.9241437153621423 0.28643400206662595
vn -0.4618990692448044 -0.6477099017911017 -0.6059052177961045
vn -0.26304032066018246 -0.9507407438229113 -0.16401776654389022
vn -0.455508891141608 0.06467902286934149 0.8878785244005004
vn -0.866024673348921 -3.081791002877314e-7 -0.5000012651491996
vn -0.8660255656196412 -4.595658196540879e-7 -0.49999971969289114
vn -0.8660248750318574 -4.187113092158924e-8 -0.5000009158252156
vn -0.8660251903024908 5.432049762252219e-7 -0.5000003697611031
vn -0.8660249049117703 5.458086304461841e-7 -0.5000008640715151
vn -0.8660258920976548 -5.914386151384993e-7 -0.4999991542153961
vn -0.8660254864481491 -7.499046049644065e-7 -0.4999998568216639
vn -0.8660317862174662 0.000001763838038561007 -0.4999889451356637
vn -0.6444888462679312 -0.7638025925698169 -0.0352097517721613
vn -0.5488443528514064 0.3131876424761115 0.775037661629018
vn 0.18706355740923875 -0.2554707329636393 -0.9485472735127235
vn -0.6100786340545922 -0.7872565511993062 -0.08961686707231872
vn -0.7581839874177146 0.5533539768436643 0.34490059080070684
vn 0.037433640734399344 0.9886587316328421 0.1454394544389795
vn -0.3370241646937379 0.666904267456065 -0.6645700944681286
vn -0.8660263174696982 4.828895638744951e-7 -0.49999841744713625
vn -0.6777949299904824 -0.6940890802633338 -0.24255799623676874
vn -0.7369438012883184 -0.10791586355241711 -0.6672840475662967
vn -0.9548469434705488 -0.24700972480595867 0.16508637253339625
vn -0.18279195783577018 -0.9436117943290558 -0.2760142781699267
vn -0.8739203051910863 0.4718477207478529 -0.116717730443043
vn -0.6238330644853256 -0.560781225203179 -0.5443865585358156
vn -0.6446853017300411 0.2532397602866129 0.7212839146572066
vn -0.15805593514349958 0.3510843957076534 -0.9229073997192274
vn -0.3039440703390035 0.24352765334747603 -0.9210386985142538
vn -0.2731219508900366 0.04807729164893399 -0.960777275943662
vn -0.13658872866111132 0.2455476000321908 -0.9597134443786711
vn -0.8697718100785858 -0.1777719439822471 0.4603196001968558
vn -0.856491477521065 -0.007868989957639846 -0.5161011799355139
vn -0.8660245924323403 -0.000002218785774870723 -0.5000014052955013
vn -0.863162719308827 -0.003059422229660254 -0.5049165871022775
vn -0.8660238132097902 -0.0000016657367431917028 -0.5000027549432102
vn -0.8660268908077777 1.078701427143109e-7 -0.499997424391168
vn -0.8660249413232392 -0.0000012912071808311469 -0.5000008010037718
vn 0.6269518777877737 -0.2781628327230842 -0.7277065214974056
vn -0.41874162077068333 0.8872888743412995 0.1933233263330909
vn -0.5227322685509423 0.612054629668227 -0.5934139412899525
vn -0.2181811291210135 0.6893176192812152 -0.6908243008493241
vn -0.5307763027509341 0.6577575875677312 0.534445013481394
vn -0.325109499843673 0.577735668411974 -0.7486823829608698
vn -0.8660249505619163 -4.064236106971665e-7 -0.500000785003449
vn -0.8490438323577711 -0.0034904957167954304 -0.5283108811816015
vn -0.8660255048170011 0.0000015068749460320546 -0.4999998250041573
vn -0.32479595473472506 0.755981799351081 0.5683301037582474
vn -0.14634110702308545 -0.9864403989517981 0.0742941431815153
vn 0.43259519745069563 -0.41504149325410084 -0.8003761328400542
vn -0.277448528215992 -0.9446784180342147 0.1749428497857323
vn -0.6187548870644134 -0.4628202187122515 0.6347754208261759
vn -0.5811068927334602 -0.6480451690645795 0.4922928377193024
vn -0.6120450822143269 -0.7772586169593232 0.1458418996713154
vn -0.2470999238187589 -0.9674387296175213 0.05480813885546686
vn -0.8789044478844221 0.3806340780758813 0.2874798603316473
vn 0.3803104867891121 -0.15558217223979148 -0.9116787379989602
vn 0.47951697299173784 0.4158242876430098 -0.772757163938986
vn 0.5463707983934181 -0.38543518021607515 -0.7435850136431885
vn 0.3479100691932011 0.15958569225712588 -0.9238457612506518
vn -0.5180101095439275 0.5252872391155458 -0.6750843227572804
vn -0.5180100334200304 -0.525287219642583 -0.6750843963211888
vn -0.5987369801308863 0.18074055848591286 -0.7802864084052389
vn -0.3567450092448906 0.8102979789942555 -0.4649195453158406
vn -0.35675127214722735 -0.8102905385167531 -0.4649277072960542
vn -0.5987351145844731 -0.18074305935630752 -0.7802872606021711
vn -0.8436434671919893 -0.5252905066314749 -0.11106567384717664
vn -0.975116565397541 0.18074061740132727 -0.12837645075593263
vn -0.581006263322257 0.8102969092010265 -0.07648948241145032
vn -0.5810164632571727 -0.8102894686957854 -0.07649082523301969
vn -0.9751160996484847 -0.1807432759617874 -0.12837624546982193
vn -0.8436434347504187 0.52529015759494 -0.11106757103853111
vn -0.6165367405578097 -0.15816317224209772 0.7712761233751946
vn -0.37175809892709805 0.38594937019282094 0.8442979329181582
vn -0.41724843540979667 -0.4095950925985625 0.8112555721024366
vn -0.5957285717697144 0.15502808225137563 0.788082332304612
vn -0.775154366848268 -0.6302446466501824 0.043902083377075504
vn 0.03804729700210769 0.8798386500873276 -0.4737471403642901
vn -0.206321201496736 0.010527366795296462 0.978427685810914
vn -0.4250844084158432 0.8744683110384374 -0.2336844425958557
vn -0.7493182687258227 -0.60732764830591 -0.2639607163139026
vn -0.5593125848834738 0.825837391639789 -0.07184730308478184
vn 0.7164585999618931 0.6738264001642048 -0.18067943154214627
vn 0.15078945575798813 -0.7766990349670019 -0.6115563335568833
vn -0.4143304669979217 -0.6463047611828114 -0.6407967070684065
vn 0.8569895288424522 -0.24387940000669592 -0.4539733314929039
vn -0.8674449990892195 -0.4740051330066808 0.1511896406451947
vn -0.20995961479547573 0.7467806174078316 0.63105916491159
vn 0.40789514303790614 0.8947727090889958 0.18166824531443393
vn 0.3302618292998927 0.9386932550510666 0.09890448437316567
vn 0.009443157381709692 0.8944040355060858 0.4471602040086894
vn -0.3542601502428781 -0.9123607223604291 -0.2051771386969068
vn -0.45400929335160123 -0.8513913423296421 -0.26269439232025893
vn 0.4598445166591418 0.8421126235368122 -0.2817611573273859
vn -0.09568355511385174 -0.6444406032367456 -0.75864416308348
vn -0.8915164778227295 -0.441009079184136 0.10348604663294056
vn -0.25231461700492275 -0.5651710154715802 -0.7854419503161784
vn -0.1871311489333886 0.9644553255268351 -0.18656864195731396
vn -0.38069459860127075 0.9218009679954363 -0.07317511871185359
vn -0.16277687504967783 0.9576049444640444 -0.2376898384177924
vn -0.17112935398133408 0.8651626597543044 0.4713897711796357
vn 0.18386706942494985 0.9006053301138646 -0.3938311061249195
vn -0.39990642831200274 0.46124959876775656 0.7920376608667802
vn -0.4174720006445069 0.5503333826384084 0.7230838793885811
vn 0.3347680848216352 0.7364141338492339 -0.5878984205217235
vn -0.053521988961053334 0.9941315661704738 0.09400971141905295
vn 0.4647208199334106 0.1337682408803875 -0.8752945888397718
vn 0.17242278749035955 0.9696518937676538 -0.17333662990509785
vn -0.17140454597528465 0.8713126479191724 0.4598203466519148
vn -0.14159544655148926 0.9315094929501267 0.3350235723940668
vn 0.3226798773595578 0.7486114691183656 -0.5791878495373183
vn -0.10020294096369177 0.9603837406770395 0.260043152698555
vn 0.3803114807403229 -0.025614344734683055 -0.9245036954825632
vn 0.4915560170955791 -0.017183049612229096 -0.870676418001059
vn 0.27279397774645037 0.8329185992217009 -0.481487333972379
vn -0.41674479519159296 -0.6890083307952953 0.5929513435142871
vn -0.49319454072564045 -0.2875711097223613 0.8210127903093071
vn -0.8351989884274469 0.036609396436518477 -0.5487279852735084
vn -0.35745957356508407 0.5250978380745096 0.7723308317788076
vn -0.513717340603428 -0.08347759404051351 0.8538887429030486
vn -0.1738313779265078 -0.9092376269206788 0.3782454095423027
vn -0.4105695799329747 0.5236617095328656 0.7464656951278991
vn -0.02853285100532268 -0.999510000855216 0.01286991079667003
vn -0.4621318421181087 -0.06146594616962163 0.884678528032639
vn 0.12863533473349978 -0.8917555118024193 -0.4338491187360024
vn -0.8603114767439238 0.0021925536176291283 -0.5097640196123328
vn -0.8602990587645831 -0.000008454775273599757 -0.5097896913603581
vn -0.1674632689294684 -0.2792363003537719 -0.9455068175979455
vn 0.4979354326207804 0.7771569430437644 0.38482124528101025
vn -0.8660222411977215 -0.000005049667037437608 -0.5000054776953711
vn -0.8660260072538368 0.00000151928636182305 -0.4999989547565765
vn -0.9143276695174322 -0.3980818981665537 0.07440238643306363
vn -0.7071022093730261 -0.5247474997342442 -0.47396890934157754
vn 0.05348751122830359 0.5690215697215337 0.820581220437224
vn 0.699341727666938 0.7113943853119045 -0.06956418971367362
vn -0.6972164394665519 -0.6932011887020675 -0.18265089246873326
vn -0.663992310435129 -0.576426464029723 -0.4762843092620311
vn -0.3009080462389558 0.9479194951773796 0.10441732792653062
vn -0.6534205672380273 0.5184536474375393 0.5515862378350702
vn -0.4630494073541839 0.8743055595109865 0.14551644222258844
vn -0.866025064984785 0.0000014702830626677528 -0.5000005868155929
vn -0.8660260883966662 -4.695280839753718e-7 -0.49999881421474346
vn -0.7492370820871032 -0.13214798263461414 0.6489843646122804
vn -0.8660251106780762 0.0000015036851728399673 -0.500000507672507
vn -0.5888542116004369 -0.6046798346856646 -0.5362956414189336
vn -0.866026074182168 0.0000016921437594087676 -0.4999988388324105
vn -0.3244598443433105 0.9458116488865255 0.012889307167840936
vn 0.39540244131370167 0.414929768035963 -0.8194450542902719
vn 0.6302339938815392 0.622736348033698 0.46368583523089957
vn 0.14706177776407814 0.78456848900012 -0.6023496655506148
vn -0.8518893446064394 0.2678006519343241 -0.45007483307730295
vn -0.8673229570250477 0.03794361528609639 -0.49629746148489257
vn -0.8628381734291213 -0.04288101781117677 -0.5036581229216651
vn 0.8571000694105245 0.09085956780991143 0.507073968917623
vn -0.636859249648649 0.06588612962917312 0.7681596930713351
vn 0.8522806431656169 -0.22172761669280167 0.47376636571303005
vn 0.8580384761847385 0.08688641035392707 0.5061825017544372
vn -0.5935459794398092 -0.1556191323415347 0.7896112055563203
vn 0.40129335525492005 0.43091531236215636 -0.8082546854798144
vn -0.08059739519969017 0.9961077942386939 0.03568363972395323
vn -0.5600642032370237 -0.102452027335549 0.8220898189050354
vn 0.380980946764238 0.5532735511239544 -0.7407711494309926
vn -0.7961427679932835 0.4284415646975396 -0.42731079861327737
vn 0.24822271004197666 -0.23915488159659146 -0.9387174382251228
vn -0.8660242619712047 -5.841668586781239e-7 -0.500001977672978
vn -0.8660245045770519 5.097095004253137e-7 -0.5000015574693862
vn -0.8660253586865183 8.890152554649425e-7 -0.5000000781110913
vn -0.860765445440909 -0.0015912969717162425 -0.508999327807868
vn -0.8554635460533202 -0.013181336079627789 -0.5176952518161966
vn -0.8660248284915371 -7.099850351112153e-7 -0.5000009964347069
vn -0.8660257402477084 1.9219470798332148e-7 -0.4999994172280322
vn -0.8660258691748172 4.103851871627597e-7 -0.4999991939191844
vn -0.8660253914686673 -6.889104385155311e-7 -0.5000000213310669
usemtl m_930b401c-356b-0099-a488-5b22d2153a30
f 1/1/1 2/2/1 3/3/1 4/4/1
f 5/5/2 6/6/2 7/7/2 8/8/2
f 9/9/3 10/10/3 11/11/3 12/12/3
f 13/13/4 14/14/4 15/15/4 16/16/4
f 14/17/5 17/18/5 18/19/5 15/20/5
f 19/21/6 13/22/6 16/23/6 20/24/6
f 21/25/7 22/26/7 23/27/7
f 24/28/8 9/29/8 12/30/8
f 25/31/9 26/32/9 27/33/9 28/34/9
f 29/35/10 30/36/10 31/37/10 32/38/10
f 229/39/11 232/40/11 33/41/11 34/42/11
f 35/43/12 36/44/12 37/45/12 38/46/12
f 39/47/13 40/48/13 41/49/13 42/50/13
f 43/51/14 4/52/14 44/53/14 45/54/14
f 46/55/15 47/56/15 48/57/15 49/58/15
f 35/59/16 50/60/16 51/61/16 36/62/16
f 52/63/17 53/64/17 54/65/17 55/66/17
f 37/67/18 56/68/18 57/69/18 58/70/18
f 41/71/19 38/72/19 59/73/19 60/74/19
f 61/75/20 39/76/20 42/77/20 62/78/20
f 63/79/21 28/80/21 52/81/21 56/82/21
f 40/83/22 35/84/22 38/85/22 41/86/22
f 36/87/23 63/88/23 56/89/23 37/90/23
f 28/91/24 27/92/24 53/93/24 52/94/24
f 57/95/25 60/96/25 59/97/25 58/98/25
f 60/99/26 57/100/26 55/101/26 64/102/26
f 64/103/27 55/104/27 54/105/27 65/106/27
f 20/107/28 16/108/28 66/109/28 67/110/28
f 42/111/29 41/112/29 60/113/29 64/114/29
f 38/115/30 37/116/30 58/117/30 59/118/30
f 62/119/31 42/120/31 64/121/31 65/122/31
f 56/123/32 52/124/32 55/125/32 57/126/32
f 68/127/33 69/128/33 70/129/33 71/130/33
f 72/131/34 73/132/34 74/133/34 75/134/34
f 76/135/35 77/136/35 49/137/35 78/138/35
f 79/139/36 80/140/36 81/141/36 82/142/36
f 68/143/37 83/144/37 84/145/37 69/146/37
f 15/147/38 18/148/38 85/149/38 86/150/38
f 3/151/39 20/152/39 67/153/39 87/154/39
f 88/155/40 89/156/40 62/157/40
f 90/158/41 24/159/41 73/160/41 72/161/41
f 2/162/42 19/163/42 20/164/42 3/165/42
f 61/166/43 62/167/43 89/168/43
f 17/169/44 90/170/44 72/171/44 18/172/44
f 22/173/45 1/174/45 4/175/45 43/176/45
f 91/177/46 92/178/46 93/179/46 89/180/46
f 94/181/47 89/182/47 93/183/47 95/184/47
f 49/185/48 48/186/48 96/187/48 97/188/48
f 49/189/49 97/190/49 98/191/49 78/192/49
f 48/193/50 91/194/50 96/195/50
f 94/196/51 95/197/51 99/198/51 74/199/51
f 74/200/52 99/201/52 44/202/52
f 98/203/53 44/204/53 81/205/53 78/206/53
f 73/207/54 100/208/54 94/209/54 74/210/54
f 47/211/55 101/212/55 102/213/55 48/214/55
f 80/215/56 76/216/56 78/217/56 81/218/56
f 100/219/57 61/220/57 89/221/57 94/222/57
f 103/223/58 43/224/58 45/225/58 98/226/58
f 101/227/59 104/228/59 82/229/59 102/230/59
f 105/231/60 69/232/60 96/233/60 91/234/60
f 91/235/61 89/236/61 88/237/61 106/238/61
f 65/239/62 88/240/62 62/241/62
f 65/242/63 54/243/63 106/244/63 88/245/63
f 16/246/64 15/247/64 86/248/64 66/249/64
f 18/250/65 72/251/65 107/252/65 85/253/65
f 4/254/66 3/255/66 87/256/66 108/257/66
f 75/258/67 109/259/67 107/260/67 72/261/67
f 4/262/68 108/263/68 44/264/68
f 105/265/69 27/266/69 26/267/69
f 27/268/70 105/269/70 53/270/70
f 54/271/71 53/272/71 106/273/71
f 91/274/72 106/275/72 53/276/72 105/277/72
f 75/278/73 74/279/73 44/280/73
f 110/281/74 51/282/74 34/283/74
f 26/284/75 25/285/75 111/286/75 112/287/75
f 25/288/76 110/289/76 113/290/76 111/291/76
f 30/292/77 114/293/77 115/294/77 116/295/77
f 29/296/78 26/297/78 117/298/78 118/299/78
f 30/300/79 116/301/79 119/302/79 23/303/79
f 120/304/80 229/305/80 34/306/80 51/307/80
f 30/308/81 23/309/81 103/310/81 31/311/81
f 51/312/82 110/313/82 63/314/82 36/315/82
f 26/316/83 29/317/83 32/318/83 105/319/83
f 23/320/84 22/321/84 43/322/84 103/323/84
f 110/324/85 25/325/85 28/326/85 63/327/85
f 121/328/86 122/329/86 123/330/86 124/331/86
f 122/332/87 12/333/87 11/334/87 123/335/87
f 125/336/88 126/337/88 124/338/88
f 125/339/89 124/340/89 127/341/89 128/342/89
f 123/343/90 11/344/90 10/345/90 129/346/90
f 7/347/91 130/348/91 50/349/91 8/350/91
f 12/351/92 122/352/92 61/353/92 100/354/92
f 121/355/93 126/356/93 40/357/93 39/358/93
f 122/359/94 121/360/94 39/361/94 61/362/94
f 126/363/95 50/364/95 35/365/95 40/366/95
f 12/367/96 100/368/96 73/369/96 24/370/96
f 45/371/97 44/372/97 98/373/97
f 47/374/98 131/375/98 132/376/98
f 47/377/99 46/378/99 133/379/99
f 47/380/100 132/381/100 101/382/100
f 47/383/101 133/384/101 131/385/101
f 133/386/102 46/387/102 134/388/102 135/389/102
f 101/390/103 132/391/103 136/392/103 137/393/103
f 131/394/104 133/395/104 135/396/104 138/397/104
f 46/398/105 77/399/105 134/400/105
f 104/401/106 101/402/106 137/403/106
f 132/404/107 131/405/107 138/406/107 136/407/107
f 137/408/108 136/409/108 139/410/108 79/411/108
f 138/412/109 135/413/109 140/414/109 141/415/109
f 134/416/110 77/417/110 76/418/110
f 104/419/111 137/420/111 79/421/111
f 136/422/112 138/423/112 141/424/112 139/425/112
f 135/426/113 134/427/113 76/428/113 140/429/113
f 139/430/114 141/431/114 80/432/114
f 140/433/115 76/434/115 80/435/115
f 79/436/116 139/437/116 80/438/116
f 141/439/117 140/440/117 80/441/117
f 49/442/118 77/443/118 46/444/118
f 82/445/119 104/446/119 79/447/119
f 71/448/120 70/449/120 142/450/120 143/451/120
f 69/452/121 84/453/121 97/454/121 96/455/121
f 103/456/122 84/457/122 144/458/122 145/459/122
f 84/460/123 103/461/123 98/462/123 97/463/123
f 105/464/124 32/465/124 146/466/124 147/467/124
f 84/468/125 83/469/125 148/470/125 144/471/125
f 69/472/126 105/473/126 147/474/126 70/475/126
f 144/476/127 148/477/127 143/478/127 142/479/127
f 145/480/128 144/481/128 142/482/128 149/483/128
f 150/484/129 145/485/129 149/486/129 151/487/129
f 146/488/130 150/489/130 151/490/130 152/491/130
f 32/492/131 31/493/131 150/494/131 146/495/131
f 31/496/132 103/497/132 145/498/132 150/499/132
f 83/500/133 68/501/133 71/502/133 148/503/133
f 148/504/134 71/505/134 143/506/134
f 147/507/135 146/508/135 152/509/135 153/510/135
f 70/511/136 147/512/136 153/513/136 142/514/136
f 149/515/137 142/516/137 154/517/137
f 142/518/138 153/519/138 154/520/138
f 153/521/139 152/522/139 154/523/139
f 149/524/140 154/525/140 151/526/140
f 152/527/141 151/528/141 154/529/141
f 155/530/142 118/531/142 117/532/142 156/533/142
f 157/534/143 158/535/143 119/536/143 116/537/143
f 116/538/144 115/539/144 159/540/144 157/541/144
f 119/542/145 158/543/145 21/544/145 23/545/145
f 114/546/146 118/547/146 155/548/146 160/549/146
f 114/550/147 160/551/147 159/552/147 115/553/147
f 161/554/148 162/555/148 163/556/148 164/557/148
f 161/558/149 164/559/149 156/560/149 117/561/149
f 163/562/150 162/563/150 165/564/150 166/565/150
f 167/566/151 168/567/151 33/568/151 232/569/151
f 112/570/152 169/571/152 166/572/152 165/573/152
f 170/574/153 111/575/153 113/576/153 171/577/153
f 112/578/154 111/579/154 170/580/154 169/581/154
f 172/582/155 168/583/155 167/584/155 385/585/155
f 172/586/156 385/587/156 171/588/156 113/589/156
f 173/590/157 174/591/157 175/592/157 176/593/157
f 177/594/158 178/595/158 179/596/158 180/597/158
f 176/598/159 181/599/159 182/600/159 173/601/159
f 177/602/160 123/603/160 129/604/160 178/605/160
f 125/606/161 128/607/161 183/608/161 184/609/161
f 124/610/162 180/611/162 179/612/162 127/613/162
f 173/614/163 182/615/163 185/616/163 174/617/163
f 183/618/164 185/619/164 182/620/164 184/621/164
f 5/622/165 181/623/165 186/624/165 6/625/165
f 181/626/166 176/627/166 175/628/166 186/629/166
f 50/630/167 126/631/167 181/632/167
f 181/633/168 5/634/168 8/635/168 50/636/168
f 93/637/169 92/638/169 187/639/169
f 102/640/170 82/641/170 188/642/170 187/643/170
f 102/644/171 92/645/171 91/646/171 48/647/171
f 81/648/172 44/649/172 99/650/172 82/651/172
f 99/652/173 95/653/173 188/654/173
f 95/655/174 93/656/174 187/657/174 188/658/174
f 92/659/175 102/660/175 187/661/175
f 82/662/176 99/663/176 188/664/176
f 86/665/177 85/666/177 189/667/177
f 85/668/178 190/669/178 189/670/178
f 86/671/179 189/672/179 191/673/179
f 191/674/180 189/675/180 192/676/180 193/677/180
f 109/678/181 75/679/181 194/680/181 195/681/181
f 87/682/182 67/683/182 196/684/182 195/685/182
f 87/686/183 195/687/183 194/688/183 108/689/183
f 75/690/184 44/691/184 108/692/184 194/693/184
f 67/694/185 66/695/185 86/696/185 191/697/185
f 190/698/186 85/699/186 107/700/186 109/701/186
f 196/702/187 67/703/187 191/704/187
f 196/705/188 190/706/188 109/707/188 195/708/188
f 197/709/189 198/710/189 199/711/189 200/712/189
f 196/713/190 191/714/190 193/715/190 198/716/190
f 190/717/191 196/718/191 198/719/191 197/720/191
f 189/721/192 190/722/192 197/723/192 192/724/192
f 201/725/193 200/726/193 202/727/193 203/728/193
f 192/729/194 197/730/194 200/731/194 201/732/194
f 198/733/195 193/734/195 204/735/195 199/736/195
f 193/737/196 192/738/196 201/739/196 204/740/196
f 205/741/197 206/742/197 207/743/197 208/744/197
f 199/745/198 204/746/198 206/747/198 205/748/198
f 204/749/199 201/750/199 203/751/199 206/752/199
f 200/753/200 199/754/200 205/755/200 202/756/200
f 209/757/201 210/758/201 208/759/201 207/760/201
f 206/761/202 203/762/202 209/763/202 207/764/202
f 202/765/203 205/766/203 208/767/203 210/768/203
f 203/769/204 202/770/204 210/771/204 209/772/204
f 130/773/205 120/774/205 51/775/205 50/776/205
f 114/777/206 30/778/206 29/779/206 118/780/206
f 117/781/207 26/782/207 162/783/207 161/784/207
f 112/785/208 165/786/208 162/787/208 26/788/208
f 113/789/209 110/790/209 168/791/209 172/792/209
f 34/793/210 33/794/210 168/795/210 110/796/210
f 124/797/211 123/798/211 177/799/211 180/800/211
f 125/801/212 184/802/212 182/803/212 126/804/212
f 121/805/213 124/806/213 126/807/213
f 182/808/214 181/809/214 126/810/214
f 1/811/215 211/812/215 212/813/215 2/814/215
f 213/815/216 214/816/216 7/817/216 6/818/216
f 9/819/217 215/820/217 383/821/217 10/822/217
f 13/823/218 216/824/218 217/825/218 14/826/218
f 14/827/219 217/828/219 218/829/219 17/830/219
f 19/831/220 219/832/220 216/833/220 13/834/220
f 21/835/221 220/836/221 22/837/221
f 24/838/222 215/839/222 9/840/222
f 221/841/223 222/842/223 223/843/223 224/844/223
f 225/845/224 226/846/224 227/847/224 228/848/224
f 229/849/225 230/850/225 231/851/225 232/852/225
f 233/853/226 234/854/226 235/855/226 236/856/226
f 237/857/227 238/858/227 239/859/227 240/860/227
f 241/861/228 242/862/228 243/863/228 211/864/228
f 244/865/229 245/866/229 246/867/229 247/868/229
f 233/869/230 236/870/230 248/871/230 249/872/230
f 250/873/231 251/874/231 252/875/231 253/876/231
f 235/877/232 254/878/232 255/879/232 256/880/232
f 239/881/233 257/882/233 258/883/233 234/884/233
f 259/885/234 260/886/234 238/887/234 237/888/234
f 261/889/235 256/890/235 250/891/235 222/892/235
f 240/893/236 239/894/236 234/895/236 233/896/236
f 236/897/237 235/898/237 256/899/237 261/900/237
f 222/901/238 250/902/238 253/903/238 223/904/238
f 255/905/239 254/906/239 258/907/239 257/908/239
f 257/909/240 262/910/240 251/911/240 255/912/240
f 262/913/241 263/914/241 252/915/241 251/916/241
f 219/917/242 264/918/242 265/919/242 216/920/242
f 238/921/243 262/922/243 257/923/243 239/924/243
f 234/925/244 258/926/244 254/927/244 235/928/244
f 260/929/245 263/930/245 262/931/245 238/932/245
f 256/933/246 255/934/246 251/935/246 250/936/246
f 266/937/247 267/938/247 268/939/247 269/940/247
f 270/941/248 271/942/248 272/943/248 273/944/248
f 274/945/249 275/946/249 245/947/249 276/948/249
f 277/949/250 278/950/250 279/951/250 280/952/250
f 266/953/251 269/954/251 281/955/251 282/956/251
f 217/957/252 283/958/252 284/959/252 218/960/252
f 212/961/253 285/962/253 264/963/253 219/964/253
f 286/965/254 260/966/254 287/967/254
f 90/968/255 270/969/255 273/970/255 24/971/255
f 2/972/256 212/973/256 219/974/256 19/975/256
f 259/976/257 287/977/257 260/978/257
f 17/979/258 218/980/258 270/981/258 90/982/258
f 22/983/259 241/984/259 211/985/259 1/986/259
f 288/987/260 287/988/260 289/989/260 290/990/260
f 291/991/261 292/992/261 289/993/261 287/994/261
f 245/995/262 293/996/262 294/997/262 246/998/262
f 245/999/263 275/1000/263 295/1001/263 293/1002/263
f 246/1003/264 294/1004/264 288/1005/264
f 291/1006/265 272/1007/265 296/1008/265 292/1009/265
f 272/1010/266 243/1011/266 296/1012/266
f 295/1013/267 275/1014/267 279/1015/267 243/1016/267
f 273/1017/268 272/1018/268 291/1019/268 297/1020/268
f 247/1021/269 246/1022/269 298/1023/269 299/1024/269
f 280/1025/270 279/1026/270 275/1027/270 274/1028/270
f 297/1029/271 291/1030/271 287/1031/271 259/1032/271
f 300/1033/272 295/1034/272 242/1035/272 241/1036/272
f 299/1037/273 298/1038/273 278/1039/273 301/1040/273
f 302/1041/274 288/1042/274 294/1043/274 269/1044/274
f 288/1045/275 303/1046/275 286/1047/275 287/1048/275
f 263/1049/276 260/1050/276 286/1051/276
f 263/1052/277 286/1053/277 303/1054/277 252/1055/277
f 216/1056/278 265/1057/278 283/1058/278 217/1059/278
f 218/1060/279 284/1061/279 304/1062/279 270/1063/279
f 211/1064/280 305/1065/280 285/1066/280 212/1067/280
f 271/1068/281 270/1069/281 304/1070/281 306/1071/281
f 211/1072/282 243/1073/282 305/1074/282
f 302/1075/283 224/1076/283 223/1077/283
f 223/1078/284 253/1079/284 302/1080/284
f 252/1081/285 303/1082/285 253/1083/285
f 288/1084/286 302/1085/286 253/1086/286 303/1087/286
f 271/1088/287 243/1089/287 272/1090/287
f 307/1091/288 230/1092/288 248/1093/288
f 224/1094/289 308/1095/289 309/1096/289 221/1097/289
f 221/1098/290 309/1099/290 310/1100/290 307/1101/290
f 228/1102/291 311/1103/291 312/1104/291 313/1105/291
f 225/1106/292 314/1107/292 315/1108/292 224/1109/292
f 228/1110/293 220/1111/293 316/1112/293 311/1113/293
f 120/1114/294 248/1115/294 230/1116/294 229/1117/294
f 228/1118/295 227/1119/295 300/1120/295 220/1121/295
f 248/1122/296 236/1123/296 261/1124/296 307/1125/296
f 224/1126/297 302/1127/297 226/1128/297 225/1129/297
f 220/1130/298 300/1131/298 241/1132/298 22/1133/298
f 307/1134/299 261/1135/299 222/1136/299 221/1137/299
f 317/1138/300 318/1139/300 319/1140/300 384/1141/300
f 384/1142/301 319/1143/301 383/1144/301 215/1145/301
f 320/1146/302 318/1147/302 321/1148/302
f 320/1149/303 128/1150/303 127/1151/303 318/1152/303
f 319/1153/304 129/1154/304 10/1155/304 383/1156/304
f 7/1157/305 214/1158/305 249/1159/305 130/1160/305
f 215/1161/306 297/1162/306 259/1163/306 384/1164/306
f 317/1165/307 237/1166/307 240/1167/307 321/1168/307
f 384/1169/308 259/1170/308 237/1171/308 317/1172/308
f 321/1173/309 240/1174/309 233/1175/309 249/1176/309
f 215/1177/310 24/1178/310 273/1179/310 297/1180/310
f 242/1181/311 295/1182/311 243/1183/311
f 247/1184/312 322/1185/312 323/1186/312
f 247/1187/313 324/1188/313 244/1189/313
f 247/1190/314 299/1191/314 322/1192/314
f 247/1193/315 323/1194/315 324/1195/315
f 324/1196/316 325/1197/316 326/1198/316 244/1199/316
f 299/1200/317 327/1201/317 328/1202/317 322/1203/317
f 323/1204/318 329/1205/318 325/1206/318 324/1207/318
f 244/1208/319 326/1209/319 276/1210/319
f 301/1211/320 327/1212/320 299/1213/320
f 322/1214/321 328/1215/321 329/1216/321 323/1217/321
f 327/1218/322 277/1219/322 330/1220/322 328/1221/322
f 329/1222/323 331/1223/323 332/1224/323 325/1225/323
f 326/1226/324 274/1227/324 276/1228/324
f 301/1229/325 277/1230/325 327/1231/325
f 328/1232/326 330/1233/326 331/1234/326 329/1235/326
f 325/1236/327 332/1237/327 274/1238/327 326/1239/327
f 330/1240/328 280/1241/328 331/1242/328
f 332/1243/329 280/1244/329 274/1245/329
f 277/1246/330 280/1247/330 330/1248/330
f 331/1249/331 280/1250/331 332/1251/331
f 245/1252/332 244/1253/332 276/1254/332
f 278/1255/333 277/1256/333 301/1257/333
f 267/1258/334 333/1259/334 334/1260/334 268/1261/334
f 269/1262/335 294/1263/335 293/1264/335 281/1265/335
f 300/1266/336 335/1267/336 336/1268/336 281/1269/336
f 281/1270/337 293/1271/337 295/1272/337 300/1273/337
f 302/1274/338 337/1275/338 338/1276/338 226/1277/338
f 281/1278/339 336/1279/339 339/1280/339 282/1281/339
f 269/1282/340 268/1283/340 337/1284/340 302/1285/340
f 336/1286/341 334/1287/341 333/1288/341 339/1289/341
f 335/1290/342 340/1291/342 334/1292/342 336/1293/342
f 341/1294/343 342/1295/343 340/1296/343 335/1297/343
f 338/1298/344 343/1299/344 342/1300/344 341/1301/344
f 226/1302/345 338/1303/345 341/1304/345 227/1305/345
f 227/1306/346 341/1307/346 335/1308/346 300/1309/346
f 282/1310/347 339/1311/347 267/1312/347 266/1313/347
f 339/1314/348 333/1315/348 267/1316/348
f 337/1317/349 344/1318/349 343/1319/349 338/1320/349
f 268/1321/350 334/1322/350 344/1323/350 337/1324/350
f 340/1325/351 345/1326/351 334/1327/351
f 334/1328/352 345/1329/352 344/1330/352
f 344/1331/353 345/1332/353 343/1333/353
f 340/1334/354 342/1335/354 345/1336/354
f 343/1337/355 345/1338/355 342/1339/355
f 155/1340/356 156/1341/356 315/1342/356 314/1343/356
f 346/1344/357 311/1345/357 316/1346/357 158/1347/357
f 311/1348/358 346/1349/358 159/1350/358 312/1351/358
f 316/1352/359 220/1353/359 21/1354/359 158/1355/359
f 313/1356/360 160/1357/360 155/1358/360 314/1359/360
f 313/1360/361 312/1361/361 159/1362/361 160/1363/361
f 347/1364/362 164/1365/362 163/1366/362 348/1367/362
f 347/1368/363 315/1369/363 156/1370/363 164/1371/363
f 163/1372/364 166/1373/364 349/1374/364 348/1375/364
f 167/1376/365 232/1377/365 231/1378/365 350/1379/365
f 308/1380/366 349/1381/366 166/1382/366 169/1383/366
f 170/1384/367 171/1385/367 310/1386/367 309/1387/367
f 308/1388/368 169/1389/368 170/1390/368 309/1391/368
f 351/1392/369 385/1393/369 167/1394/369 350/1395/369
f 351/1396/370 310/1397/370 171/1398/370 385/1399/370
f 352/1400/371 353/1401/371 175/1402/371 174/1403/371
f 354/1404/372 355/1405/372 179/1406/372 178/1407/372
f 353/1408/373 352/1409/373 356/1410/373 357/1411/373
f 354/1412/374 178/1413/374 129/1414/374 319/1415/374
f 320/1416/375 358/1417/375 183/1418/375 128/1419/375
f 318/1420/376 127/1421/376 179/1422/376 355/1423/376
f 352/1424/377 174/1425/377 185/1426/377 356/1427/377
f 183/1428/378 358/1429/378 356/1430/378 185/1431/378
f 213/1432/379 6/1433/379 186/1434/379 357/1435/379
f 357/1436/380 186/1437/380 175/1438/380 353/1439/380
f 249/1440/381 357/1441/381 321/1442/381
f 357/1443/382 249/1444/382 214/1445/382 213/1446/382
f 289/1447/383 359/1448/383 290/1449/383
f 298/1450/384 359/1451/384 360/1452/384 278/1453/384
f 298/1454/385 246/1455/385 288/1456/385 290/1457/385
f 279/1458/386 278/1459/386 296/1460/386 243/1461/386
f 296/1462/387 360/1463/387 292/1464/387
f 292/1465/388 360/1466/388 359/1467/388 289/1468/388
f 290/1469/389 359/1470/389 298/1471/389
f 278/1472/390 360/1473/390 296/1474/390
f 283/1475/391 361/1476/391 284/1477/391
f 284/1478/392 361/1479/392 362/1480/392
f 283/1481/393 363/1482/393 361/1483/393
f 363/1484/394 364/1485/394 365/1486/394 361/1487/394
f 306/1488/395 366/1489/395 367/1490/395 271/1491/395
f 285/1492/396 366/1493/396 368/1494/396 264/1495/396
f 285/1496/397 305/1497/397 367/1498/397 366/1499/397
f 271/1500/398 367/1501/398 305/1502/398 243/1503/398
f 264/1504/399 363/1505/399 283/1506/399 265/1507/399
f 362/1508/400 306/1509/400 304/1510/400 284/1511/400
f 368/1512/401 363/1513/401 264/1514/401
f 368/1515/402 366/1516/402 306/1517/402 362/1518/402
f 369/1519/403 370/1520/403 371/1521/403 372/1522/403
f 368/1523/404 372/1524/404 364/1525/404 363/1526/404
f 362/1527/405 369/1528/405 372/1529/405 368/1530/405
f 361/1531/406 365/1532/406 369/1533/406 362/1534/406
f 373/1535/407 374/1536/407 375/1537/407 370/1538/407
f 365/1539/408 373/1540/408 370/1541/408 369/1542/408
f 372/1543/409 371/1544/409 376/1545/409 364/1546/409
f 364/1547/410 376/1548/410 373/1549/410 365/1550/410
f 377/1551/411 378/1552/411 379/1553/411 380/1554/411
f 371/1555/412 377/1556/412 380/1557/412 376/1558/412
f 376/1559/413 380/1560/413 374/1561/413 373/1562/413
f 370/1563/414 375/1564/414 377/1565/414 371/1566/414
f 381/1567/415 379/1568/415 378/1569/415 382/1570/415
f 380/1571/416 379/1572/416 381/1573/416 374/1574/416
f 375/1575/417 382/1576/417 378/1577/417 377/1578/417
f 374/1579/418 381/1580/418 382/1581/418 375/1582/418
f 130/1583/419 249/1584/419 248/1585/419 120/1586/419
f 313/1587/420 314/1588/420 225/1589/420 228/1590/420
f 315/1591/421 347/1592/421 348/1593/421 224/1594/421
f 308/1595/422 224/1596/422 348/1597/422 349/1598/422
f 310/1599/423 351/1600/423 350/1601/423 307/1602/423
f 230/1603/424 307/1604/424 350/1605/424 231/1606/424
f 318/1607/425 355/1608/425 354/1609/425 319/1610/425
f 320/1611/426 321/1612/426 356/1613/426 358/1614/426
f 317/1615/427 321/1616/427 318/1617/427
f 356/1618/428 321/1619/428 357/1620/428