# Made in Blockbench 5.1.4
mtllib DiceBorder.mtl

o NormalBorder
v 0.5 -0.5 0.53125
v 0.5 -0.5 0.5
v 0.5 -0.5625 0.5625
v 0.5 -0.53125 0.5
v 0.5625 -0.5 0.5625
v 0.53125 -0.5 0.5
v 0.5625 -0.5625 0.5
v -0.5 0.5 -0.53125
v -0.5 0.5 -0.5
v -0.5 0.5625 -0.5625
v -0.5 0.53125 -0.5
v -0.5625 0.5 -0.5625
v -0.53125 0.5 -0.5
v -0.5625 0.5625 -0.5
v 0.5 0.5 0.53125
v 0.5 0.5 0.5
v 0.5 0.5625 0.5625
v 0.5 0.53125 0.5
v 0.5625 0.5 0.5625
v 0.53125 0.5 0.5
v 0.5625 0.5625 0.5
v 0.5 0.5 -0.53125
v 0.5 0.5 -0.5
v 0.5 0.5625 -0.5625
v 0.5 0.53125 -0.5
v 0.5625 0.5 -0.5625
v 0.53125 0.5 -0.5
v 0.5625 0.5625 -0.5
v -0.5 0.5 0.53125
v -0.5 0.5 0.5
v -0.5 0.5625 0.5625
v -0.5 0.53125 0.5
v -0.5625 0.5 0.5625
v -0.53125 0.5 0.5
v -0.5625 0.5625 0.5
v 0.5 -0.5 -0.53125
v 0.5 -0.5 -0.5
v 0.5 -0.5625 -0.5625
v 0.5 -0.53125 -0.5
v 0.5625 -0.5 -0.5625
v 0.53125 -0.5 -0.5
v 0.5625 -0.5625 -0.5
v -0.5 -0.5 0.53125
v -0.5 -0.5 0.5
v -0.5 -0.5625 0.5625
v -0.5 -0.53125 0.5
v -0.5625 -0.5 0.5625
v -0.53125 -0.5 0.5
v -0.5625 -0.5625 0.5
v -0.5 -0.5 -0.53125
v -0.5 -0.5 -0.5
v -0.5 -0.5625 -0.5625
v -0.5 -0.53125 -0.5
v -0.5625 -0.5 -0.5625
v -0.53125 -0.5 -0.5
v -0.5625 -0.5625 -0.5
vt 0.109375 0.984375
vt 0.078125 0.984375
vt 0.078125 0.953125
vt 0.171875 0.984375
vt 0.140625 0.984375
vt 0.140625 0.953125
vt 0.234375 0.984375
vt 0.203125 0.984375
vt 0.203125 0.953125
vt 0.296875 0.984375
vt 0.265625 0.984375
vt 0.265625 0.953125
vt 0.359375 0.984375
vt 0.328125 0.984375
vt 0.328125 0.953125
vt 0.421875 0.984375
vt 0.390625 0.984375
vt 0.390625 0.953125
vt 0.484375 0.984375
vt 0.453125 0.984375
vt 0.453125 0.953125
vt 0.546875 0.984375
vt 0.515625 0.984375
vt 0.515625 0.953125
vt 0.609375 0.984375
vt 0.578125 0.984375
vt 0.578125 0.953125
vt 0.671875 0.984375
vt 0.640625 0.984375
vt 0.640625 0.953125
vt 0.734375 0.984375
vt 0.703125 0.984375
vt 0.703125 0.953125
vt 0.796875 0.984375
vt 0.765625 0.984375
vt 0.765625 0.953125
vt 0.859375 0.984375
vt 0.828125 0.984375
vt 0.828125 0.953125
vt 0.921875 0.984375
vt 0.890625 0.984375
vt 0.890625 0.953125
vt 0.984375 0.984375
vt 0.953125 0.984375
vt 0.953125 0.953125
vt 0.046875 0.921875
vt 0.015625 0.921875
vt 0.015625 0.890625
vt 0.109375 0.921875
vt 0.078125 0.921875
vt 0.078125 0.890625
vt 0.171875 0.921875
vt 0.140625 0.921875
vt 0.140625 0.890625
vt 0.234375 0.921875
vt 0.203125 0.921875
vt 0.203125 0.890625
vt 0.296875 0.921875
vt 0.265625 0.921875
vt 0.265625 0.890625
vt 0.359375 0.921875
vt 0.328125 0.921875
vt 0.328125 0.890625
vt 0.421875 0.921875
vt 0.390625 0.921875
vt 0.390625 0.890625
vt 0.484375 0.921875
vt 0.453125 0.921875
vt 0.453125 0.890625
vt 0.546875 0.921875
vt 0.515625 0.921875
vt 0.515625 0.890625
vt 0.671875 0.921875
vt 0.640625 0.921875
vt 0.640625 0.890625
vt 0.734375 0.921875
vt 0.703125 0.921875
vt 0.703125 0.890625
vt 0.796875 0.921875
vt 0.765625 0.921875
vt 0.765625 0.890625
vt 0.859375 0.921875
vt 0.828125 0.921875
vt 0.828125 0.890625
vt 0.921875 0.921875
vt 0.890625 0.921875
vt 0.890625 0.890625
vt 0.984375 0.921875
vt 0.953125 0.921875
vt 0.953125 0.890625
vt 0.046875 0.859375
vt 0.015625 0.859375
vt 0.015625 0.828125
vt 0.109375 0.859375
vt 0.078125 0.859375
vt 0.078125 0.828125
vt 0.171875 0.859375
vt 0.140625 0.859375
vt 0.140625 0.828125
vt 0.171875 0.828125
vt 0.234375 0.859375
vt 0.203125 0.859375
vt 0.203125 0.828125
vt 0.234375 0.828125
vt 0.296875 0.859375
vt 0.265625 0.859375
vt 0.265625 0.828125
vt 0.296875 0.828125
vt 0.359375 0.859375
vt 0.328125 0.859375
vt 0.328125 0.828125
vt 0.359375 0.828125
vt 0.421875 0.859375
vt 0.390625 0.859375
vt 0.390625 0.828125
vt 0.421875 0.828125
vt 0.484375 0.859375
vt 0.453125 0.859375
vt 0.453125 0.828125
vt 0.484375 0.828125
vt 0.546875 0.859375
vt 0.515625 0.859375
vt 0.515625 0.828125
vt 0.546875 0.828125
vt 0.609375 0.859375
vt 0.578125 0.859375
vt 0.578125 0.828125
vt 0.609375 0.828125
vt 0.671875 0.859375
vt 0.640625 0.859375
vt 0.640625 0.828125
vt 0.671875 0.828125
vt 0.734375 0.859375
vt 0.703125 0.859375
vt 0.703125 0.828125
vt 0.734375 0.828125
vt 0.796875 0.859375
vt 0.765625 0.859375
vt 0.765625 0.828125
vt 0.796875 0.828125
vt 0.859375 0.859375
vt 0.828125 0.859375
vt 0.828125 0.828125
vt 0.859375 0.828125
vt 0.921875 0.859375
vt 0.890625 0.859375
vt 0.890625 0.828125
vt 0.921875 0.828125
vt 0.984375 0.859375
vt 0.953125 0.859375
vt 0.953125 0.828125
vt 0.984375 0.828125
vt 0.046875 0.796875
vt 0.015625 0.796875
vt 0.015625 0.765625
vt 0.046875 0.765625
vt 0.109375 0.796875
vt 0.078125 0.796875
vt 0.078125 0.765625
vt 0.109375 0.765625
vt 0.171875 0.796875
vt 0.140625 0.796875
vt 0.140625 0.765625
vt 0.171875 0.765625
vt 0.234375 0.796875
vt 0.203125 0.796875
vt 0.203125 0.765625
vt 0.234375 0.765625
vt 0.296875 0.796875
vt 0.265625 0.796875
vt 0.265625 0.765625
vt 0.296875 0.765625
vt 0.359375 0.796875
vt 0.328125 0.796875
vt 0.328125 0.765625
vt 0.359375 0.765625
vt 0.421875 0.796875
vt 0.390625 0.796875
vt 0.390625 0.765625
vt 0.421875 0.765625
vt 0.484375 0.796875
vt 0.453125 0.796875
vt 0.453125 0.765625
vt 0.484375 0.765625
vt 0.546875 0.796875
vt 0.515625 0.796875
vt 0.515625 0.765625
vt 0.546875 0.765625
vt 0.609375 0.796875
vt 0.578125 0.796875
vt 0.578125 0.765625
vt 0.609375 0.765625
vt 0.671875 0.796875
vt 0.640625 0.796875
vt 0.640625 0.765625
vt 0.671875 0.765625
vt 0.734375 0.796875
vt 0.703125 0.796875
vt 0.703125 0.765625
vt 0.734375 0.765625
vt 0.796875 0.796875
vt 0.765625 0.796875
vt 0.765625 0.765625
vt 0.796875 0.765625
vt 0.859375 0.796875
vt 0.828125 0.796875
vt 0.828125 0.765625
vt 0.859375 0.765625
vt 0.921875 0.796875
vt 0.890625 0.796875
vt 0.890625 0.765625
vt 0.921875 0.765625
vt 0.984375 0.796875
vt 0.953125 0.796875
vt 0.953125 0.765625
vt 0.984375 0.765625
vt 0.046875 0.734375
vt 0.015625 0.734375
vt 0.015625 0.703125
vt 0.046875 0.703125
vt 0.109375 0.734375
vt 0.078125 0.734375
vt 0.078125 0.703125
vt 0.109375 0.703125
vt 0.171875 0.734375
vt 0.140625 0.734375
vt 0.140625 0.703125
vt 0.171875 0.703125
vt 0.234375 0.734375
vt 0.203125 0.734375
vt 0.203125 0.703125
vt 0.234375 0.703125
vt 0.296875 0.734375
vt 0.265625 0.734375
vt 0.265625 0.703125
vt 0.296875 0.703125
vt 0.359375 0.734375
vt 0.328125 0.734375
vt 0.328125 0.703125
vt 0.359375 0.703125
vt 0.421875 0.734375
vt 0.390625 0.734375
vt 0.390625 0.703125
vt 0.421875 0.703125
vt 0.484375 0.734375
vt 0.453125 0.734375
vt 0.453125 0.703125
vt 0.484375 0.703125
vt 0.546875 0.734375
vt 0.515625 0.734375
vt 0.515625 0.703125
vt 0.546875 0.703125
vt 0.609375 0.734375
vt 0.578125 0.734375
vt 0.578125 0.703125
vt 0.609375 0.703125
vt 0.671875 0.734375
vt 0.640625 0.734375
vt 0.640625 0.703125
vt 0.671875 0.703125
vt 0.734375 0.734375
vt 0.703125 0.734375
vt 0.703125 0.703125
vt 0.734375 0.703125
vt 0.796875 0.734375
vt 0.765625 0.734375
vt 0.765625 0.703125
vt 0.796875 0.703125
vt 0.859375 0.734375
vt 0.828125 0.734375
vt 0.828125 0.703125
vt 0.859375 0.703125
vt 0.921875 0.734375
vt 0.890625 0.734375
vt 0.890625 0.703125
vt 0.921875 0.703125
vt 0.984375 0.734375
vt 0.953125 0.734375
vt 0.953125 0.703125
vt 0.984375 0.703125
vt 0.046875 0.671875
vt 0.015625 0.671875
vt 0.015625 0.640625
vt 0.046875 0.640625
vt 0.109375 0.671875
vt 0.078125 0.671875
vt 0.078125 0.640625
vt 0.109375 0.640625
vn -0.4082482904638631 -0.8164965809277261 -0.4082482904638631
vn 0.8164965809277261 0.4082482904638631 -0.4082482904638631
vn -0.4082482904638631 0.4082482904638631 0.8164965809277261
vn 0.5773502691896258 -0.5773502691896258 0.5773502691896258
vn 0.4082482904638631 0.8164965809277261 0.4082482904638631
vn -0.8164965809277261 -0.4082482904638631 0.4082482904638631
vn 0.4082482904638631 -0.4082482904638631 -0.8164965809277261
vn -0.5773502691896258 0.5773502691896258 -0.5773502691896258
vn -0.4082482904638631 0.8164965809277261 -0.4082482904638631
vn 0.8164965809277261 -0.4082482904638631 -0.4082482904638631
vn -0.4082482904638631 -0.4082482904638631 0.8164965809277261
vn 0.5773502691896258 0.5773502691896258 0.5773502691896258
vn -0.4082482904638631 0.8164965809277261 0.4082482904638631
vn 0.8164965809277261 -0.4082482904638631 0.4082482904638631
vn -0.4082482904638631 -0.4082482904638631 -0.8164965809277261
vn 0.5773502691896258 0.5773502691896258 -0.5773502691896258
vn 0.4082482904638631 0.8164965809277261 -0.4082482904638631
vn -0.8164965809277261 -0.4082482904638631 -0.4082482904638631
vn 0.4082482904638631 -0.4082482904638631 0.8164965809277261
vn -0.5773502691896258 0.5773502691896258 0.5773502691896258
vn -0.4082482904638631 -0.8164965809277261 0.4082482904638631
vn 0.8164965809277261 0.4082482904638631 0.4082482904638631
vn -0.4082482904638631 0.4082482904638631 -0.8164965809277261
vn 0.5773502691896258 -0.5773502691896258 -0.5773502691896258
vn 0.4082482904638631 -0.8164965809277261 -0.4082482904638631
vn -0.8164965809277261 0.4082482904638631 -0.4082482904638631
vn 0.4082482904638631 0.4082482904638631 0.8164965809277261
vn -0.5773502691896258 -0.5773502691896258 0.5773502691896258
vn 0.4082482904638631 -0.8164965809277261 0.4082482904638631
vn -0.8164965809277261 0.4082482904638631 0.4082482904638631
vn 0.4082482904638631 0.4082482904638631 -0.8164965809277261
vn -0.5773502691896258 -0.5773502691896258 -0.5773502691896258
vn -1 0 0
vn 0 -1 0
vn 0.8944271909999161 -0.44721359549995804 0
vn -0.44721359549995804 0.8944271909999161 0
vn 0 -1 0
vn 0 0 1
vn 0 0.8944271909999161 0.44721359549995804
vn 0 -0.44721359549995804 -0.8944271909999161
vn 1 0 0
vn 0 -1 0
vn 0.44721359549995804 0.8944271909999161 0
vn -0.8944271909999161 -0.44721359549995804 0
vn 0 0 -1
vn 0 -1 0
vn 0 0.8944271909999161 -0.44721359549995804
vn 0 -0.44721359549995804 0.8944271909999161
vn -1 0 0
vn -0.44721359549995804 0 0.8944271909999161
vn 0 0 -1
vn 0.8944271909999161 0 -0.44721359549995804
vn 0 -0.8944271909999161 -0.44721359549995804
vn 0 0 1
vn 0 1 0
vn 0 0.44721359549995804 0.8944271909999161
vn 0.44721359549995804 0 0.8944271909999161
vn -0.8944271909999161 0 -0.44721359549995804
vn 1 0 0
vn 0 0 -1
vn 1 0 0
vn 0 1 0
vn 0.44721359549995804 -0.8944271909999161 0
vn -0.8944271909999161 0.44721359549995804 0
vn 1 0 0
vn 0 0 1
vn -0.8944271909999161 0 0.44721359549995804
vn 0.44721359549995804 0 -0.8944271909999161
vn 0 0 1
vn 0 -0.8944271909999161 0.44721359549995804
vn 0 0.44721359549995804 -0.8944271909999161
vn 0 1 0
vn -1 0 0
vn -0.44721359549995804 0 -0.8944271909999161
vn 0 0 1
vn 0.8944271909999161 0 0.44721359549995804
vn -1 0 0
vn -0.44721359549995804 -0.8944271909999161 0
vn 0.8944271909999161 0.44721359549995804 0
vn 0 1 0
usemtl m_530b0d60-0a74-cf22-3722-1e6359b648a0
f 4/1/1 7/2/1 3/3/1
f 7/4/2 6/5/2 5/6/2
f 1/7/3 3/8/3 5/9/3
f 3/10/4 7/11/4 5/12/4
f 14/13/5 11/14/5 10/15/5
f 13/16/6 14/17/6 12/18/6
f 10/19/7 8/20/7 12/21/7
f 14/22/8 10/23/8 12/24/8
f 21/25/9 18/26/9 17/27/9
f 20/28/10 21/29/10 19/30/10
f 17/31/11 15/32/11 19/33/11
f 21/34/12 17/35/12 19/36/12
f 25/37/13 28/38/13 24/39/13
f 28/40/14 27/41/14 26/42/14
f 22/43/15 24/44/15 26/45/15
f 24/46/16 28/47/16 26/48/16
f 32/49/17 35/50/17 31/51/17
f 35/52/18 34/53/18 33/54/18
f 29/55/19 31/56/19 33/57/19
f 31/58/20 35/59/20 33/60/20
f 42/61/21 39/62/21 38/63/21
f 41/64/22 42/65/22 40/66/22
f 38/67/23 36/68/23 40/69/23
f 42/70/24 38/71/24 40/72/24
f 49/73/25 46/74/25 45/75/25
f 48/76/26 49/77/26 47/78/26
f 45/79/27 43/80/27 47/81/27
f 49/82/28 45/83/28 47/84/28
f 53/85/29 56/86/29 52/87/29
f 56/88/30 55/89/30 54/90/30
f 50/91/31 52/92/31 54/93/31
f 52/94/32 56/95/32 54/96/32
f 23/97/33 16/98/33 18/99/33 25/100/33
f 16/101/34 23/102/34 27/103/34 20/104/34
f 28/105/35 21/106/35 20/107/35 27/108/35
f 25/109/36 18/110/36 21/111/36 28/112/36
f 23/113/37 9/114/37 8/115/37 22/116/37
f 9/117/38 23/118/38 25/119/38 11/120/38
f 24/121/39 10/122/39 11/123/39 25/124/39
f 10/125/40 24/126/40 22/127/40 8/128/40
f 11/129/41 32/130/41 30/131/41 9/132/41
f 34/133/42 13/134/42 9/135/42 30/136/42
f 32/137/43 11/138/43 14/139/43 35/140/43
f 13/141/44 34/142/44 35/143/44 14/144/44
f 16/145/45 30/146/45 32/147/45 18/148/45
f 15/149/46 29/150/46 30/151/46 16/152/46
f 18/153/47 32/154/47 31/155/47 17/156/47
f 29/157/48 15/158/48 17/159/48 31/160/48
f 16/161/49 2/162/49 1/163/49 15/164/49
f 5/165/50 19/166/50 15/167/50 1/168/50
f 20/169/51 6/170/51 2/171/51 16/172/51
f 6/173/52 20/174/52 19/175/52 5/176/52
f 3/177/53 45/178/53 46/179/53 4/180/53
f 46/181/54 4/182/54 2/183/54 44/184/54
f 43/185/55 1/186/55 2/187/55 44/188/55
f 45/189/56 3/190/56 1/191/56 43/192/56
f 43/193/57 29/194/57 33/195/57 47/196/57
f 47/197/58 33/198/58 34/199/58 48/200/58
f 29/201/59 43/202/59 44/203/59 30/204/59
f 48/205/60 34/206/60 30/207/60 44/208/60
f 51/209/61 44/210/61 46/211/61 53/212/61
f 44/213/62 51/214/62 55/215/62 48/216/62
f 49/217/63 56/218/63 53/219/63 46/220/63
f 56/221/64 49/222/64 48/223/64 55/224/64
f 9/225/65 51/226/65 50/227/65 8/228/65
f 51/229/66 9/230/66 13/231/66 55/232/66
f 12/233/67 54/234/67 55/235/67 13/236/67
f 54/237/68 12/238/68 8/239/68 50/240/68
f 37/241/69 51/242/69 53/243/69 39/244/69
f 52/245/70 38/246/70 39/247/70 53/248/70
f 50/249/71 36/250/71 38/251/71 52/252/71
f 51/253/72 37/254/72 36/255/72 50/256/72
f 37/257/73 23/258/73 22/259/73 36/260/73
f 26/261/74 40/262/74 36/263/74 22/264/74
f 23/265/75 37/266/75 41/267/75 27/268/75
f 40/269/76 26/270/76 27/271/76 41/272/76
f 2/273/77 37/274/77 39/275/77 4/276/77
f 42/277/78 7/278/78 4/279/78 39/280/78
f 7/281/79 42/282/79 41/283/79 6/284/79
f 37/285/80 2/286/80 6/287/80 41/288/80