# Made in Blockbench 5.1.4
mtllib Mo_Cylime_Eye.mtl

o Eye
v 0 4.401861 -2.610058
v 0 4.325791 -2.320367
v 0.114066 4.393975 -2.588783
v 0.210767 4.371518 -2.528198
v 0.275381 4.337909 -2.437526
v 0.29807 4.298264 -2.33057
v 0.275381 4.258619 -2.223615
v 0.210767 4.225009 -2.132943
v 0.114066 4.202552 -2.072358
v 0 4.194666 -2.051083
v 0 2.651853 -1.342715
v 0 2.950818 -1.324622
v -0.540179 2.988163 -1.425372
v -0.573451 2.691498 -1.44967
v 0 1.384509 -3.092724
v 0 1.366416 -2.793758
v -0.22375 1.381885 -2.83549
v -0.114067 1.392395 -3.113998
v 0 2.362162 -1.418785
v -0.584686 2.402583 -1.527836
v -0.114067 4.202552 -2.072358
v 0 1.46058 -3.382415
v 0 2.092878 -1.54991
v -0.573451 2.132523 -1.656865
v 0 4.013526 -1.812554
v -0.22375 4.028995 -1.854286
v 0 1.854349 -1.73105
v -0.540179 1.891694 -1.8318
v 0 3.789332 -1.613948
v -0.324834 3.81179 -1.674533
v 0 1.655742 -1.955244
v -0.486148 1.689352 -2.045917
v 0 3.5307 -1.462895
v -0.413435 3.559283 -1.540006
v 0 1.50469 -2.213876
v -0.413435 1.533272 -2.290987
v 0 3.247568 -1.365202
v -0.486148 3.281178 -1.455874
v 0 1.406996 -2.497008
v -0.324834 1.429453 -2.557593
v -0.99812 1.998043 -2.118711
v -0.898285 1.785064 -2.304129
v -0.600215 3.875742 -1.847065
v -0.763928 3.640679 -1.759598
v -0.763928 1.614668 -2.510579
v -0.898285 3.37689 -1.714087
v -0.600215 1.493406 -2.730126
v -0.99812 3.094512 -1.712283
v -0.413435 1.425936 -2.954333
v -1.059599 2.804398 -1.754253
v -0.210767 1.414852 -3.174584
v -1.080358 2.517695 -1.838386
v -0.210767 4.225009 -2.132943
v -1.059599 2.245422 -1.961448
v -0.413435 4.073047 -1.973129
v -0.540179 1.491864 -3.132193
v -0.275381 1.448462 -3.265256
v -1.384433 2.973364 -2.210093
v -1.411556 2.689972 -2.303157
v -0.275381 4.258619 -2.223615
v -1.384433 2.414389 -2.417289
v -0.540179 4.138974 -2.150989
v -1.304107 2.157206 -2.548103
v -0.784218 3.971454 -2.105278
v -1.173665 1.928306 -2.690572
v -0.99812 3.762497 -2.088241
v -0.99812 1.736486 -2.839221
v -1.173665 3.520132 -2.10053
v -0.784218 1.589118 -2.988338
v -1.304107 3.253675 -2.141675
v -1.270366 2.097272 -3.146412
v -1.080357 1.88018 -3.226882
v -1.080357 3.906191 -2.475901
v -1.270366 3.689099 -2.55637
v -0.848832 1.702017 -3.292921
v -1.411555 3.44142 -2.648177
v -0.584685 1.569631 -3.341993
v -1.498499 3.172673 -2.747794
v -0.29807 1.488107 -3.372211
v -1.527856 2.893186 -2.851392
v -0.29807 4.298264 -2.330571
v -1.498499 2.613698 -2.954989
v -0.584685 4.216741 -2.360789
v -1.411555 2.344951 -3.054605
v -0.848832 4.084353 -2.409861
v -0.275381 4.337909 -2.437526
v -0.275381 1.527752 -3.479167
v -1.411555 3.0964 -3.399626
v -1.384432 2.813007 -3.492689
v -0.540179 4.294507 -2.570589
v -1.304107 2.532696 -3.561108
v -0.784218 4.197253 -2.714444
v -1.173665 2.266239 -3.602252
v -0.99812 4.049885 -2.863561
v -0.99812 2.023874 -3.614542
v -1.173665 3.858065 -3.01221
v -0.784218 1.814917 -3.597504
v -1.304107 3.629165 -3.15468
v -0.540179 1.647397 -3.551793
v -1.384432 3.371982 -3.285494
v -0.763928 4.171702 -3.192203
v -0.898284 4.001307 -3.398653
v -0.763928 2.145692 -3.943184
v -0.600214 1.910629 -3.855717
v -0.99812 3.788328 -3.584072
v -0.413435 1.713325 -3.729653
v -1.059598 3.540949 -3.741334
v -0.210767 1.561362 -3.569839
v -1.080357 3.268676 -3.864397
v -0.210767 4.371518 -2.528198
v -1.059598 2.981974 -3.948529
v -0.413435 4.360435 -2.748449
v -0.99812 2.691859 -3.9905
v -0.600214 4.292965 -2.972656
v -0.898284 2.409481 -3.988695
v -0.584685 3.383788 -4.174946
v -0.57345 3.094873 -4.253112
v -0.114066 4.393975 -2.588783
v -0.223749 4.404486 -2.867291
v -0.540178 2.798208 -4.277411
v -0.324834 4.356917 -3.145189
v -0.486147 2.505193 -4.246908
v -0.413434 4.253098 -3.411795
v -0.413434 2.227088 -4.162776
v -0.486147 4.097019 -3.656866
v -0.324834 1.974581 -4.028249
v -0.540178 3.894677 -3.870982
v -0.223749 1.757376 -3.848495
v -0.57345 3.653848 -4.045917
v -0.114066 1.583819 -3.630424
v 0 2.255671 -4.239886
v 0 1.997038 -4.088834
v 0 4.130629 -3.747538
v 0 3.932022 -3.971732
v 0 1.772844 -3.890227
v 0 3.693493 -4.152872
v 0 1.591705 -3.651699
v 0 3.424209 -4.283997
v 0 3.134518 -4.360067
v 0 4.419954 -2.909023
v 0 2.835553 -4.37816
v 0 4.379375 -3.205774
v 0 2.538802 -4.33758
v 0 4.281681 -3.488905
v -0.114066 4.393975 -2.588783
v -0.210767 4.371518 -2.528198
v -0.275381 4.337909 -2.437526
v -0.29807 4.298264 -2.33057
v -0.275381 4.258619 -2.223615
v -0.210767 4.225009 -2.132943
v -0.114066 4.202552 -2.072358
v 0.573451 2.691498 -1.44967
v 0.540179 2.988163 -1.425372
v 0.114067 1.392395 -3.113998
v 0.22375 1.381885 -2.83549
v 0.584686 2.402583 -1.527836
v 0.114067 4.202552 -2.072358
v 0.573451 2.132523 -1.656865
v 0.22375 4.028995 -1.854286
v 0.540179 1.891694 -1.8318
v 0.324834 3.81179 -1.674533
v 0.486148 1.689352 -2.045917
v 0.413435 3.559283 -1.540006
v 0.413435 1.533272 -2.290987
v 0.486148 3.281178 -1.455874
v 0.324834 1.429453 -2.557593
v 0.898285 1.785064 -2.304129
v 0.99812 1.998043 -2.118711
v 0.763928 3.640679 -1.759598
v 0.600215 3.875742 -1.847065
v 0.763928 1.614668 -2.510579
v 0.898285 3.37689 -1.714087
v 0.600215 1.493406 -2.730126
v 0.99812 3.094512 -1.712283
v 0.413435 1.425936 -2.954333
v 1.059599 2.804398 -1.754253
v 0.210767 1.414852 -3.174584
v 1.080358 2.517695 -1.838386
v 0.210767 4.225009 -2.132943
v 1.059599 2.245422 -1.961448
v 0.413435 4.073047 -1.973129
v 0.275381 1.448462 -3.265256
v 0.540179 1.491864 -3.132193
v 1.411556 2.689972 -2.303157
v 1.384433 2.973364 -2.210093
v 0.275381 4.258619 -2.223615
v 1.384433 2.414389 -2.417289
v 0.540179 4.138974 -2.150989
v 1.304107 2.157206 -2.548103
v 0.784218 3.971454 -2.105278
v 1.173665 1.928306 -2.690572
v 0.99812 3.762497 -2.088241
v 0.99812 1.736486 -2.839221
v 1.173665 3.520132 -2.10053
v 0.784218 1.589118 -2.988338
v 1.304107 3.253675 -2.141675
v 1.080357 1.88018 -3.226882
v 1.270366 2.097272 -3.146412
v 1.270366 3.689099 -2.55637
v 1.080357 3.906191 -2.475901
v 0.848832 1.702017 -3.292921
v 1.411555 3.44142 -2.648177
v 0.584685 1.569631 -3.341993
v 1.498499 3.172673 -2.747794
v 0.29807 1.488107 -3.372211
v 1.527856 2.893186 -2.851392
v 0.29807 4.298264 -2.330571
v 1.498499 2.613698 -2.954989
v 0.584685 4.216741 -2.360789
v 1.411555 2.344951 -3.054605
v 0.848832 4.084353 -2.409861
v 0.275381 4.337909 -2.437526
v 0.275381 1.527752 -3.479167
v 1.384432 2.813007 -3.492689
v 1.411555 3.0964 -3.399626
v 0.540179 4.294507 -2.570589
v 1.304107 2.532696 -3.561108
v 0.784218 4.197253 -2.714444
v 1.173665 2.266239 -3.602252
v 0.99812 4.049885 -2.863561
v 0.99812 2.023874 -3.614542
v 1.173665 3.858065 -3.01221
v 0.784218 1.814917 -3.597504
v 1.304107 3.629165 -3.15468
v 0.540179 1.647397 -3.551793
v 1.384432 3.371982 -3.285494
v 0.898284 4.001307 -3.398653
v 0.763928 4.171702 -3.192203
v 0.600214 1.910629 -3.855717
v 0.763928 2.145692 -3.943184
v 0.99812 3.788328 -3.584072
v 0.413435 1.713325 -3.729653
v 1.059598 3.540949 -3.741334
v 0.210767 1.561362 -3.569839
v 1.080357 3.268676 -3.864397
v 0.210767 4.371518 -2.528198
v 1.059598 2.981974 -3.948529
v 0.413435 4.360435 -2.748449
v 0.99812 2.691859 -3.9905
v 0.600214 4.292965 -2.972656
v 0.898284 2.409481 -3.988695
v 0.57345 3.094873 -4.253112
v 0.584685 3.383788 -4.174946
v 0.223749 4.404486 -2.867291
v 0.114066 4.393975 -2.588783
v 0.540178 2.798208 -4.277411
v 0.324834 4.356917 -3.145189
v 0.486147 2.505193 -4.246908
v 0.413434 4.253098 -3.411795
v 0.413434 2.227088 -4.162776
v 0.486147 4.097019 -3.656866
v 0.324834 1.974581 -4.028249
v 0.540178 3.894677 -3.870982
v 0.223749 1.757376 -3.848495
v 0.57345 3.653848 -4.045917
v 0.114066 1.583819 -3.630424
vt 0.609375 0.859375
vt 0.609375 0.859375
vt 0.609375 0.859375
vt 0.609375 0.859375
vt 0.609375 0.859375
vt 0.609375 0.859375
vt 0.609375 0.859375
vt 0.609375 0.859375
vt 0.609375 0.859375
vt 0.609375 0.859375
vt 0.609375 0.859375
vt 0.609375 0.859375
vt 0.609375 0.859375
vt 0.609375 0.859375
vt 0.609375 0.859375
vt 0.609375 0.859375
vt 0.609375 0.859375
vt 0.609375 0.859375
vt 0.609375 0.859375
vt 0.609375 0.859375
vt 0.609375 0.859375
vt 0.609375 0.859375
vt 0.609375 0.859375
vt 0.609375 0.859375
vt 0.609375 0.859375
vt 0.609375 0.859375
vt 0.609375 0.859375
vt 0.609375 0.859375
vt 0.609375 0.859375
vt 0.609375 0.859375
vt 0.609375 0.859375
vt 0.609375 0.859375
vt 0.609375 0.859375
vt 0.609375 0.859375
vt 0.609375 0.859375
vt 0.609375 0.859375
vt 0.609375 0.859375
vt 0.609375 0.859375
vt 0.609375 0.859375
vt 0.609375 0.859375
vt 0.609375 0.859375
vt 0.609375 0.859375
vt 0.609375 0.859375
vt 0.609375 0.859375
vt 0.609375 0.859375
vt 0.609375 0.859375
vt 0.609375 0.859375
vt 0.609375 0.859375
vt 0.609375 0.859375
vt 0.609375 0.859375
vt 0.609375 0.859375
vt 0.609375 0.859375
vt 0.609375 0.859375
vt 0.609375 0.859375
vt 0.609375 0.859375
vt 0.609375 0.859375
vt 0.609375 0.859375
vt 0.609375 0.859375
vt 0.609375 0.859375
vt 0.609375 0.859375
vt 0.609375 0.859375
vt 0.609375 0.859375
vt 0.609375 0.859375
vt 0.609375 0.859375
vt 0.609375 0.859375
vt 0.609375 0.859375
vt 0.609375 0.859375
vt 0.609375 0.859375
vt 0.609375 0.859375
vt 0.609375 0.859375
vt 0.609375 0.859375
vt 0.609375 0.859375
vt 0.609375 0.859375
vt 0.609375 0.859375
vt 0.609375 0.859375
vt 0.609375 0.859375
vt 0.609375 0.859375
vt 0.609375 0.859375
vt 0.609375 0.859375
vt 0.609375 0.859375
vt 0.609375 0.859375
vt 0.609375 0.859375
vt 0.609375 0.859375
vt 0.609375 0.859375
vt 0.609375 0.859375
vt 0.609375 0.859375
vt 0.609375 0.859375
vt 0.609375 0.859375
vt 0.609375 0.859375
vt 0.609375 0.859375
vt 0.609375 0.859375
vt 0.609375 0.859375
vt 0.609375 0.859375
vt 0.609375 0.859375
vt 0.609375 0.859375
vt 0.609375 0.859375
vt 0.609375 0.859375
vt 0.609375 0.859375
vt 0.609375 0.859375
vt 0.609375 0.859375
vt 0.609375 0.859375
vt 0.609375 0.859375
vt 0.609375 0.859375
vt 0.609375 0.859375
vt 0.609375 0.859375
vt 0.609375 0.859375
vt 0.609375 0.859375
vt 0.609375 0.859375
vt 0.609375 0.859375
vt 0.609375 0.859375
vt 0.609375 0.859375
vt 0.609375 0.859375
vt 0.609375 0.859375
vt 0.609375 0.859375
vt 0.609375 0.859375
vt 0.609375 0.859375
vt 0.609375 0.859375
vt 0.609375 0.859375
vt 0.609375 0.859375
vt 0.609375 0.859375
vt 0.609375 0.859375
vt 0.609375 0.859375
vt 0.609375 0.859375
vt 0.609375 0.859375
vt 0.609375 0.859375
vt 0.609375 0.859375
vt 0.609375 0.859375
vt 0.609375 0.859375
vt 0.609375 0.859375
vt 0.609375 0.859375
vt 0.609375 0.859375
vt 0.609375 0.859375
vt 0.609375 0.859375
vt 0.609375 0.859375
vt 0.609375 0.859375
vt 0.609375 0.859375
vt 0.609375 0.859375
vt 0.609375 0.859375
vt 0.609375 0.859375
vt 0.609375 0.859375
vt 0.609375 0.859375
vt 0.609375 0.859375
vt 0.609375 0.859375
vt 0.609375 0.859375
vt 0.609375 0.859375
vt 0.609375 0.859375
vt 0.609375 0.859375
vt 0.609375 0.859375
vt 0.609375 0.859375
vt 0.609375 0.859375
vt 0.609375 0.859375
vt 0.609375 0.859375
vt 0.609375 0.859375
vt 0.609375 0.859375
vt 0.609375 0.859375
vt 0.609375 0.859375
vt 0.609375 0.859375
vt 0.609375 0.859375
vt 0.609375 0.859375
vt 0.609375 0.859375
vt 0.609375 0.859375
vt 0.609375 0.859375
vt 0.609375 0.859375
vt 0.609375 0.859375
vt 0.609375 0.859375
vt 0.609375 0.859375
vt 0.609375 0.859375
vt 0.609375 0.859375
vt 0.609375 0.859375
vt 0.609375 0.859375
vt 0.609375 0.859375
vt 0.609375 0.859375
vt 0.609375 0.859375
vt 0.609375 0.859375
vt 0.609375 0.859375
vt 0.609375 0.859375
vt 0.609375 0.859375
vt 0.609375 0.859375
vt 0.609375 0.859375
vt 0.609375 0.859375
vt 0.609375 0.859375
vt 0.609375 0.859375
vt 0.609375 0.859375
vt 0.609375 0.859375
vt 0.609375 0.859375
vt 0.609375 0.859375
vt 0.609375 0.859375
vt 0.609375 0.859375
vt 0.609375 0.859375
vt 0.609375 0.859375
vt 0.609375 0.859375
vt 0.609375 0.859375
vt 0.609375 0.859375
vt 0.609375 0.859375
vt 0.609375 0.859375
vt 0.609375 0.859375
vt 0.609375 0.859375
vt 0.609375 0.859375
vt 0.609375 0.859375
vt 0.609375 0.859375
vt 0.609375 0.859375
vt 0.609375 0.859375
vt 0.609375 0.859375
vt 0.609375 0.859375
vt 0.609375 0.859375
vt 0.609375 0.859375
vt 0.609375 0.859375
vt 0.609375 0.859375
vt 0.609375 0.859375
vt 0.609375 0.859375
vt 0.609375 0.859375
vt 0.609375 0.859375
vt 0.609375 0.859375
vt 0.609375 0.859375
vt 0.609375 0.859375
vt 0.609375 0.859375
vt 0.609375 0.859375
vt 0.609375 0.859375
vt 0.609375 0.859375
vt 0.609375 0.859375
vt 0.609375 0.859375
vt 0.609375 0.859375
vt 0.609375 0.859375
vt 0.609375 0.859375
vt 0.609375 0.859375
vt 0.609375 0.859375
vt 0.609375 0.859375
vt 0.609375 0.859375
vt 0.609375 0.859375
vt 0.609375 0.859375
vt 0.609375 0.859375
vt 0.609375 0.859375
vt 0.609375 0.859375
vt 0.609375 0.859375
vt 0.609375 0.859375
vt 0.609375 0.859375
vt 0.609375 0.859375
vt 0.609375 0.859375
vt 0.609375 0.859375
vt 0.609375 0.859375
vt 0.609375 0.859375
vt 0.609375 0.859375
vt 0.609375 0.859375
vt 0.609375 0.859375
vt 0.609375 0.859375
vt 0.609375 0.859375
vt 0.609375 0.859375
vt 0.609375 0.859375
vt 0.609375 0.859375
vt 0.609375 0.859375
vt 0.609375 0.859375
vt 0.609375 0.859375
vt 0.609375 0.859375
vt 0.609375 0.859375
vt 0.609375 0.859375
vt 0.609375 0.859375
vt 0.609375 0.859375
vt 0.609375 0.859375
vt 0.609375 0.859375
vt 0.609375 0.859375
vt 0.609375 0.859375
vt 0.609375 0.859375
vt 0.609375 0.859375
vt 0.609375 0.859375
vt 0.609375 0.859375
vt 0.609375 0.859375
vt 0.609375 0.859375
vt 0.609375 0.859375
vt 0.609375 0.859375
vt 0.609375 0.859375
vt 0.609375 0.859375
vt 0.609375 0.859375
vt 0.609375 0.859375
vt 0.609375 0.859375
vt 0.609375 0.859375
vt 0.609375 0.859375
vt 0.609375 0.859375
vt 0.609375 0.859375
vt 0.609375 0.859375
vt 0.609375 0.859375
vt 0.609375 0.859375
vt 0.609375 0.859375
vt 0.609375 0.859375
vt 0.609375 0.859375
vt 0.609375 0.859375
vt 0.609375 0.859375
vt 0.609375 0.859375
vt 0.609375 0.859375
vt 0.609375 0.859375
vt 0.609375 0.859375
vt 0.609375 0.859375
vt 0.609375 0.859375
vt 0.609375 0.859375
vt 0.609375 0.859375
vt 0.609375 0.859375
vt 0.609375 0.859375
vt 0.609375 0.859375
vt 0.609375 0.859375
vt 0.609375 0.859375
vt 0.609375 0.859375
vt 0.609375 0.859375
vt 0.609375 0.859375
vt 0.609375 0.859375
vt 0.609375 0.859375
vt 0.609375 0.859375
vt 0.609375 0.859375
vt 0.609375 0.859375
vt 0.609375 0.859375
vt 0.609375 0.859375
vt 0.609375 0.859375
vt 0.609375 0.859375
vt 0.609375 0.859375
vt 0.609375 0.859375
vt 0.609375 0.859375
vt 0.609375 0.859375
vt 0.609375 0.859375
vt 0.609375 0.859375
vt 0.609375 0.859375
vt 0.609375 0.859375
vt 0.609375 0.859375
vt 0.609375 0.859375
vt 0.609375 0.859375
vt 0.609375 0.859375
vt 0.609375 0.859375
vt 0.609375 0.859375
vt 0.609375 0.859375
vt 0.609375 0.859375
vt 0.609375 0.859375
vt 0.609375 0.859375
vt 0.609375 0.859375
vt 0.609375 0.859375
vt 0.609375 0.859375
vt 0.609375 0.859375
vt 0.609375 0.859375
vt 0.609375 0.859375
vt 0.609375 0.859375
vt 0.609375 0.859375
vt 0.609375 0.859375
vt 0.609375 0.859375
vt 0.609375 0.859375
vt 0.609375 0.859375
vt 0.609375 0.859375
vt 0.609375 0.859375
vt 0.609375 0.859375
vt 0.609375 0.859375
vt 0.609375 0.859375
vt 0.609375 0.859375
vt 0.609375 0.859375
vt 0.609375 0.859375
vt 0.609375 0.859375
vt 0.609375 0.859375
vt 0.609375 0.859375
vt 0.609375 0.859375
vt 0.609375 0.859375
vt 0.609375 0.859375
vt 0.609375 0.859375
vt 0.609375 0.859375
vt 0.609375 0.859375
vt 0.609375 0.859375
vt 0.609375 0.859375
vt 0.609375 0.859375
vt 0.609375 0.859375
vt 0.609375 0.859375
vt 0.609375 0.859375
vt 0.609375 0.859375
vt 0.609375 0.859375
vt 0.609375 0.859375
vt 0.609375 0.859375
vt 0.609375 0.859375
vt 0.609375 0.859375
vt 0.609375 0.859375
vt 0.609375 0.859375
vt 0.609375 0.859375
vt 0.609375 0.859375
vt 0.609375 0.859375
vt 0.609375 0.859375
vt 0.609375 0.859375
vt 0.609375 0.859375
vt 0.609375 0.859375
vt 0.609375 0.859375
vt 0.609375 0.859375
vt 0.609375 0.859375
vt 0.609375 0.859375
vt 0.609375 0.859375
vt 0.609375 0.859375
vt 0.609375 0.859375
vt 0.609375 0.859375
vt 0.609375 0.859375
vt 0.609375 0.859375
vt 0.609375 0.859375
vt 0.609375 0.859375
vt 0.609375 0.859375
vt 0.609375 0.859375
vt 0.609375 0.859375
vt 0.609375 0.859375
vt 0.609375 0.859375
vt 0.609375 0.859375
vt 0.609375 0.859375
vt 0.609375 0.859375
vt 0.609375 0.859375
vt 0.609375 0.859375
vt 0.609375 0.859375
vt 0.609375 0.859375
vt 0.609375 0.859375
vt 0.609375 0.859375
vt 0.609375 0.859375
vt 0.609375 0.859375
vt 0.609375 0.859375
vt 0.609375 0.859375
vt 0.609375 0.859375
vt 0.609375 0.859375
vt 0.609375 0.859375
vt 0.609375 0.859375
vt 0.609375 0.859375
vt 0.609375 0.859375
vt 0.609375 0.859375
vt 0.609375 0.859375
vt 0.609375 0.859375
vt 0.609375 0.859375
vt 0.609375 0.859375
vt 0.609375 0.859375
vt 0.609375 0.859375
vt 0.609375 0.859375
vt 0.609375 0.859375
vt 0.609375 0.859375
vt 0.609375 0.859375
vt 0.609375 0.859375
vt 0.609375 0.859375
vt 0.609375 0.859375
vt 0.609375 0.859375
vt 0.609375 0.859375
vt 0.609375 0.859375
vt 0.609375 0.859375
vt 0.609375 0.859375
vt 0.609375 0.859375
vt 0.609375 0.859375
vt 0.609375 0.859375
vt 0.609375 0.859375
vt 0.609375 0.859375
vt 0.609375 0.859375
vt 0.609375 0.859375
vt 0.609375 0.859375
vt 0.609375 0.859375
vt 0.609375 0.859375
vt 0.609375 0.859375
vt 0.609375 0.859375
vt 0.609375 0.859375
vt 0.609375 0.859375
vt 0.609375 0.859375
vt 0.609375 0.859375
vt 0.609375 0.859375
vt 0.609375 0.859375
vt 0.609375 0.859375
vt 0.609375 0.859375
vt 0.609375 0.859375
vt 0.609375 0.859375
vt 0.609375 0.859375
vt 0.609375 0.859375
vt 0.609375 0.859375
vt 0.609375 0.859375
vt 0.609375 0.859375
vt 0.609375 0.859375
vt 0.609375 0.859375
vt 0.609375 0.859375
vt 0.609375 0.859375
vt 0.640625 0.890625
vt 0.609375 0.859375
vt 0.609375 0.859375
vt 0.609375 0.859375
vt 0.609375 0.859375
vt 0.875 0.84375
vt 0.875 0.84375
vt 0.875 0.875
vt 0.609375 0.859375
vt 0.609375 0.859375
vt 0.609375 0.859375
vt 0.609375 0.859375
vt 0.875 0.84375
vt 0.875 0.84375
vt 0.875 0.875
vt 0.875 0.84375
vt 0.609375 0.859375
vt 0.609375 0.859375
vt 0.609375 0.859375
vt 0.609375 0.859375
vt 0.609375 0.859375
vt 0.609375 0.859375
vt 0.875 0.84375
vt 0.875 0.84375
vt 0.875 0.84375
vt 0.875 0.84375
vt 0.609375 0.859375
vt 0.609375 0.859375
vt 0.609375 0.859375
vt 0.609375 0.859375
vt 0.609375 0.859375
vt 0.609375 0.859375
vt 0.609375 0.859375
vt 0.609375 0.859375
vt 0.609375 0.859375
vt 0.609375 0.859375
vt 0.609375 0.859375
vt 0.609375 0.859375
vt 0.609375 0.859375
vt 0.609375 0.859375
vt 0.609375 0.859375
vt 0.609375 0.859375
vt 0.609375 0.859375
vt 0.609375 0.859375
vt 0.609375 0.859375
vt 0.609375 0.859375
vt 0.609375 0.859375
vt 0.609375 0.859375
vt 0.609375 0.859375
vt 0.609375 0.859375
vt 0.609375 0.859375
vt 0.609375 0.859375
vt 0.609375 0.859375
vt 0.875 0.84375
vt 0.875 0.84375
vt 0.875 0.84375
vt 0.640625 0.890625
vt 0.609375 0.859375
vt 0.609375 0.859375
vt 0.609375 0.859375
vt 0.609375 0.859375
vt 0.609375 0.859375
vt 0.609375 0.859375
vt 0.609375 0.859375
vt 0.609375 0.859375
vt 0.609375 0.859375
vt 0.609375 0.859375
vt 0.609375 0.859375
vt 0.609375 0.859375
vt 0.609375 0.859375
vt 0.609375 0.859375
vt 0.609375 0.859375
vt 0.609375 0.859375
vt 0.609375 0.859375
vt 0.609375 0.859375
vt 0.609375 0.859375
vt 0.609375 0.859375
vt 0.609375 0.859375
vt 0.609375 0.859375
vt 0.609375 0.859375
vt 0.609375 0.859375
vt 0.609375 0.859375
vt 0.609375 0.859375
vt 0.609375 0.859375
vt 0.609375 0.859375
vt 0.609375 0.859375
vt 0.609375 0.859375
vt 0.609375 0.859375
vt 0.609375 0.859375
vt 0.609375 0.859375
vt 0.609375 0.859375
vt 0.609375 0.859375
vt 0.609375 0.859375
vt 0.609375 0.859375
vt 0.609375 0.859375
vt 0.609375 0.859375
vt 0.609375 0.859375
vt 0.609375 0.859375
vt 0.609375 0.859375
vt 0.609375 0.859375
vt 0.609375 0.859375
vt 0.609375 0.859375
vt 0.609375 0.859375
vt 0.609375 0.859375
vt 0.609375 0.859375
vt 0.609375 0.859375
vt 0.609375 0.859375
vt 0.609375 0.859375
vt 0.609375 0.859375
vt 0.609375 0.859375
vt 0.609375 0.859375
vt 0.609375 0.859375
vt 0.609375 0.859375
vt 0.609375 0.859375
vt 0.609375 0.859375
vt 0.609375 0.859375
vt 0.609375 0.859375
vt 0.609375 0.859375
vt 0.609375 0.859375
vt 0.609375 0.859375
vt 0.609375 0.859375
vt 0.609375 0.859375
vt 0.609375 0.859375
vt 0.609375 0.859375
vt 0.609375 0.859375
vt 0.609375 0.859375
vt 0.609375 0.859375
vt 0.609375 0.859375
vt 0.609375 0.859375
vt 0.609375 0.859375
vt 0.609375 0.859375
vt 0.609375 0.859375
vt 0.609375 0.859375
vt 0.609375 0.859375
vt 0.609375 0.859375
vt 0.609375 0.859375
vt 0.609375 0.859375
vt 0.609375 0.859375
vt 0.609375 0.859375
vt 0.609375 0.859375
vt 0.609375 0.859375
vt 0.609375 0.859375
vt 0.609375 0.859375
vt 0.609375 0.859375
vt 0.609375 0.859375
vt 0.609375 0.859375
vt 0.609375 0.859375
vt 0.609375 0.859375
vt 0.609375 0.859375
vt 0.609375 0.859375
vt 0.609375 0.859375
vt 0.609375 0.859375
vt 0.609375 0.859375
vt 0.609375 0.859375
vt 0.609375 0.859375
vt 0.609375 0.859375
vt 0.609375 0.859375
vt 0.609375 0.859375
vt 0.609375 0.859375
vt 0.609375 0.859375
vt 0.609375 0.859375
vt 0.609375 0.859375
vt 0.609375 0.859375
vt 0.609375 0.859375
vt 0.609375 0.859375
vt 0.609375 0.859375
vt 0.609375 0.859375
vt 0.609375 0.859375
vt 0.609375 0.859375
vt 0.609375 0.859375
vt 0.609375 0.859375
vt 0.609375 0.859375
vt 0.609375 0.859375
vt 0.609375 0.859375
vt 0.609375 0.859375
vt 0.609375 0.859375
vt 0.609375 0.859375
vt 0.609375 0.859375
vt 0.609375 0.859375
vt 0.609375 0.859375
vt 0.609375 0.859375
vt 0.609375 0.859375
vt 0.609375 0.859375
vt 0.609375 0.859375
vt 0.609375 0.859375
vt 0.609375 0.859375
vt 0.609375 0.859375
vt 0.609375 0.859375
vt 0.609375 0.859375
vt 0.609375 0.859375
vt 0.609375 0.859375
vt 0.609375 0.859375
vt 0.609375 0.859375
vt 0.609375 0.859375
vt 0.609375 0.859375
vt 0.609375 0.859375
vt 0.609375 0.859375
vt 0.609375 0.859375
vt 0.609375 0.859375
vt 0.609375 0.859375
vt 0.609375 0.859375
vt 0.609375 0.859375
vt 0.609375 0.859375
vt 0.609375 0.859375
vt 0.609375 0.859375
vt 0.609375 0.859375
vt 0.609375 0.859375
vt 0.609375 0.859375
vt 0.609375 0.859375
vt 0.609375 0.859375
vt 0.609375 0.859375
vt 0.609375 0.859375
vt 0.609375 0.859375
vt 0.609375 0.859375
vt 0.609375 0.859375
vt 0.609375 0.859375
vt 0.609375 0.859375
vt 0.609375 0.859375
vt 0.609375 0.859375
vt 0.609375 0.859375
vt 0.609375 0.859375
vt 0.609375 0.859375
vt 0.609375 0.859375
vt 0.609375 0.859375
vt 0.609375 0.859375
vt 0.609375 0.859375
vt 0.609375 0.859375
vt 0.609375 0.859375
vt 0.609375 0.859375
vt 0.609375 0.859375
vt 0.609375 0.859375
vt 0.609375 0.859375
vt 0.609375 0.859375
vt 0.609375 0.859375
vt 0.609375 0.859375
vt 0.609375 0.859375
vt 0.609375 0.859375
vt 0.609375 0.859375
vt 0.609375 0.859375
vt 0.609375 0.859375
vt 0.609375 0.859375
vt 0.609375 0.859375
vt 0.609375 0.859375
vt 0.609375 0.859375
vt 0.609375 0.859375
vt 0.609375 0.859375
vt 0.609375 0.859375
vt 0.609375 0.859375
vt 0.609375 0.859375
vt 0.609375 0.859375
vt 0.609375 0.859375
vt 0.609375 0.859375
vt 0.609375 0.859375
vt 0.609375 0.859375
vt 0.609375 0.859375
vt 0.609375 0.859375
vt 0.609375 0.859375
vt 0.609375 0.859375
vt 0.609375 0.859375
vt 0.609375 0.859375
vt 0.609375 0.859375
vt 0.609375 0.859375
vt 0.609375 0.859375
vt 0.609375 0.859375
vt 0.609375 0.859375
vt 0.609375 0.859375
vt 0.609375 0.859375
vt 0.609375 0.859375
vt 0.609375 0.859375
vt 0.609375 0.859375
vt 0.609375 0.859375
vt 0.609375 0.859375
vt 0.609375 0.859375
vt 0.609375 0.859375
vt 0.609375 0.859375
vt 0.609375 0.859375
vt 0.609375 0.859375
vt 0.609375 0.859375
vt 0.609375 0.859375
vt 0.609375 0.859375
vt 0.609375 0.859375
vt 0.609375 0.859375
vt 0.609375 0.859375
vt 0.609375 0.859375
vt 0.609375 0.859375
vt 0.609375 0.859375
vt 0.609375 0.859375
vt 0.609375 0.859375
vt 0.609375 0.859375
vt 0.609375 0.859375
vt 0.609375 0.859375
vt 0.609375 0.859375
vt 0.609375 0.859375
vt 0.609375 0.859375
vt 0.609375 0.859375
vt 0.609375 0.859375
vt 0.609375 0.859375
vt 0.609375 0.859375
vt 0.609375 0.859375
vt 0.609375 0.859375
vt 0.609375 0.859375
vt 0.609375 0.859375
vt 0.609375 0.859375
vt 0.609375 0.859375
vt 0.609375 0.859375
vt 0.609375 0.859375
vt 0.609375 0.859375
vt 0.609375 0.859375
vt 0.609375 0.859375
vt 0.609375 0.859375
vt 0.609375 0.859375
vt 0.609375 0.859375
vt 0.609375 0.859375
vt 0.609375 0.859375
vt 0.609375 0.859375
vt 0.609375 0.859375
vt 0.609375 0.859375
vt 0.609375 0.859375
vt 0.609375 0.859375
vt 0.609375 0.859375
vt 0.609375 0.859375
vt 0.609375 0.859375
vt 0.609375 0.859375
vt 0.609375 0.859375
vt 0.609375 0.859375
vt 0.609375 0.859375
vt 0.609375 0.859375
vt 0.609375 0.859375
vt 0.609375 0.859375
vt 0.609375 0.859375
vt 0.609375 0.859375
vt 0.609375 0.859375
vt 0.609375 0.859375
vt 0.609375 0.859375
vt 0.609375 0.859375
vt 0.609375 0.859375
vt 0.609375 0.859375
vt 0.609375 0.859375
vt 0.609375 0.859375
vt 0.609375 0.859375
vt 0.609375 0.859375
vt 0.609375 0.859375
vt 0.609375 0.859375
vt 0.609375 0.859375
vt 0.609375 0.859375
vt 0.609375 0.859375
vt 0.609375 0.859375
vt 0.609375 0.859375
vt 0.609375 0.859375
vt 0.609375 0.859375
vt 0.609375 0.859375
vt 0.609375 0.859375
vt 0.609375 0.859375
vt 0.609375 0.859375
vt 0.609375 0.859375
vt 0.609375 0.859375
vt 0.609375 0.859375
vt 0.609375 0.859375
vt 0.609375 0.859375
vt 0.609375 0.859375
vt 0.609375 0.859375
vt 0.609375 0.859375
vt 0.609375 0.859375
vt 0.609375 0.859375
vt 0.609375 0.859375
vt 0.609375 0.859375
vt 0.609375 0.859375
vt 0.609375 0.859375
vt 0.609375 0.859375
vt 0.609375 0.859375
vt 0.609375 0.859375
vt 0.609375 0.859375
vt 0.609375 0.859375
vt 0.609375 0.859375
vt 0.609375 0.859375
vt 0.609375 0.859375
vt 0.609375 0.859375
vt 0.609375 0.859375
vt 0.609375 0.859375
vt 0.609375 0.859375
vt 0.609375 0.859375
vt 0.609375 0.859375
vt 0.609375 0.859375
vt 0.609375 0.859375
vt 0.609375 0.859375
vt 0.609375 0.859375
vt 0.609375 0.859375
vt 0.609375 0.859375
vt 0.609375 0.859375
vt 0.609375 0.859375
vt 0.609375 0.859375
vt 0.609375 0.859375
vt 0.609375 0.859375
vt 0.609375 0.859375
vt 0.609375 0.859375
vt 0.609375 0.859375
vt 0.609375 0.859375
vt 0.609375 0.859375
vt 0.609375 0.859375
vt 0.609375 0.859375
vt 0.609375 0.859375
vt 0.609375 0.859375
vt 0.609375 0.859375
vt 0.609375 0.859375
vt 0.609375 0.859375
vt 0.609375 0.859375
vt 0.609375 0.859375
vt 0.609375 0.859375
vt 0.609375 0.859375
vt 0.609375 0.859375
vt 0.609375 0.859375
vt 0.609375 0.859375
vt 0.609375 0.859375
vt 0.609375 0.859375
vt 0.609375 0.859375
vt 0.609375 0.859375
vt 0.609375 0.859375
vt 0.609375 0.859375
vt 0.609375 0.859375
vt 0.609375 0.859375
vt 0.609375 0.859375
vt 0.609375 0.859375
vt 0.609375 0.859375
vt 0.609375 0.859375
vt 0.609375 0.859375
vt 0.609375 0.859375
vt 0.609375 0.859375
vt 0.609375 0.859375
vt 0.609375 0.859375
vt 0.609375 0.859375
vt 0.609375 0.859375
vt 0.609375 0.859375
vt 0.609375 0.859375
vt 0.609375 0.859375
vt 0.609375 0.859375
vt 0.609375 0.859375
vt 0.609375 0.859375
vt 0.609375 0.859375
vt 0.609375 0.859375
vt 0.609375 0.859375
vt 0.609375 0.859375
vt 0.609375 0.859375
vt 0.609375 0.859375
vt 0.609375 0.859375
vt 0.609375 0.859375
vt 0.609375 0.859375
vt 0.609375 0.859375
vt 0.609375 0.859375
vt 0.609375 0.859375
vt 0.609375 0.859375
vt 0.609375 0.859375
vt 0.609375 0.859375
vt 0.609375 0.859375
vt 0.609375 0.859375
vt 0.609375 0.859375
vt 0.609375 0.859375
vt 0.609375 0.859375
vt 0.609375 0.859375
vt 0.609375 0.859375
vt 0.609375 0.859375
vt 0.609375 0.859375
vt 0.609375 0.859375
vt 0.609375 0.859375
vt 0.609375 0.859375
vt 0.609375 0.859375
vt 0.609375 0.859375
vt 0.609375 0.859375
vt 0.609375 0.859375
vt 0.609375 0.859375
vt 0.609375 0.859375
vt 0.609375 0.859375
vt 0.609375 0.859375
vt 0.609375 0.859375
vt 0.609375 0.859375
vt 0.609375 0.859375
vt 0.609375 0.859375
vt 0.609375 0.859375
vt 0.609375 0.859375
vt 0.609375 0.859375
vt 0.609375 0.859375
vt 0.609375 0.859375
vt 0.609375 0.859375
vt 0.609375 0.859375
vt 0.609375 0.859375
vt 0.609375 0.859375
vt 0.609375 0.859375
vt 0.609375 0.859375
vt 0.609375 0.859375
vt 0.609375 0.859375
vt 0.609375 0.859375
vt 0.609375 0.859375
vt 0.609375 0.859375
vt 0.609375 0.890625
vt 0.609375 0.859375
vt 0.609375 0.859375
vt 0.609375 0.859375
vt 0.609375 0.859375
vt 0.609375 0.859375
vt 0.609375 0.859375
vt 0.609375 0.859375
vt 0.609375 0.859375
vt 0.609375 0.890625
vt 0.609375 0.859375
vt 0.609375 0.859375
vt 0.609375 0.859375
vt 0.609375 0.859375
vt 0.609375 0.859375
vt 0.609375 0.859375
vt 0.609375 0.859375
vt 0.609375 0.859375
vt 0.609375 0.859375
vt 0.609375 0.859375
vt 0.609375 0.859375
vt 0.609375 0.859375
vt 0.609375 0.859375
vt 0.609375 0.859375
vt 0.609375 0.859375
vt 0.609375 0.859375
vt 0.609375 0.859375
vt 0.609375 0.859375
vt 0.609375 0.859375
vt 0.609375 0.890625
vt 0.640625 0.890625
vt 0.609375 0.859375
vt 0.609375 0.859375
vt 0.609375 0.859375
vt 0.609375 0.859375
vt 0.609375 0.859375
vt 0.609375 0.859375
vt 0.90625 0.875
vt 0.875 0.875
vt 0.875 0.84375
vt 0.609375 0.859375
vt 0.609375 0.859375
vt 0.609375 0.859375
vt 0.609375 0.859375
vt 0.875 0.84375
vt 0.875 0.84375
vt 0.875 0.875
vt 0.90625 0.875
vt 0.609375 0.859375
vt 0.609375 0.859375
vt 0.609375 0.859375
vt 0.609375 0.859375
vt 0.609375 0.859375
vt 0.609375 0.859375
vt 0.875 0.84375
vt 0.875 0.84375
vt 0.875 0.84375
vt 0.875 0.84375
vt 0.609375 0.859375
vt 0.609375 0.859375
vt 0.609375 0.859375
vt 0.609375 0.859375
vt 0.609375 0.859375
vt 0.609375 0.859375
vt 0.609375 0.859375
vt 0.609375 0.859375
vt 0.609375 0.859375
vt 0.609375 0.859375
vt 0.609375 0.859375
vt 0.609375 0.859375
vt 0.609375 0.859375
vt 0.609375 0.859375
vt 0.609375 0.859375
vt 0.609375 0.859375
vt 0.609375 0.859375
vt 0.609375 0.859375
vt 0.609375 0.859375
vt 0.609375 0.859375
vt 0.609375 0.859375
vt 0.609375 0.859375
vt 0.609375 0.859375
vt 0.609375 0.859375
vt 0.609375 0.859375
vt 0.609375 0.859375
vt 0.609375 0.859375
vt 0.875 0.84375
vt 0.875 0.84375
vt 0.875 0.84375
vt 0.640625 0.890625
vt 0.609375 0.890625
vt 0.609375 0.859375
vn 0.019493749206058033 0.9670257612895881 0.2539314292169915
vn 0.05551215104406184 0.96184039996921 0.2679205965832629
vn 0.08307780941018722 0.9522597321375397 0.2937677316060186
vn 0.09799763435466832 0.9397408437194925 0.327541768796386
vn 0.0979975875607068 0.9261900272264704 0.3640995829419636
vn 0.08307617851870591 0.9136695821317772 0.3978771710589486
vn 0.055512302416792746 0.9040893717430286 0.4237225415076269
vn 0.0194936420575725 0.8989039857168428 0.43771180288142264
vn -0.1869905158853614 -0.05934276956978601 0.9805676838794525
vn -0.05764610487970589 -0.9965138827262501 -0.060307612504987035
vn -0.19418590105869873 -0.24914512319422716 0.9487984735540813
vn -0.019493471226091606 0.8989039887114328 0.4377118043396067
vn -0.01949516482352432 -0.9670249145718743 -0.2539345450027687
vn -0.19418619921018324 -0.4294614282272117 0.8819606576834064
vn -0.05764560692781505 0.795066288048393 0.603776930340067
vn -0.1869894492147402 -0.5941154147142164 0.7823437990304025
vn -0.09335691887871445 0.6602032284539326 0.7452624925732394
vn -0.17278715517709314 -0.7372713940179862 0.6531274688516651
vn -0.12519339480765004 0.5003622571389448 0.8567171210658489
vn -0.15197685144134354 -0.8534818569012816 0.49846941387242244
vn -0.15197635693330222 0.32238473189772593 0.9343293164471042
vn -0.12519535677299526 -0.9378712979567158 0.32361018388095836
vn -0.1727858691367873 0.13344935749598708 0.9758772015015791
vn -0.09335659505317478 -0.9864521083761782 0.13489545596598204
vn -0.4920545353824498 -0.6913094143403372 0.5291253422904457
vn -0.3565279759955621 0.5336629672464912 0.7668713319209282
vn -0.4327893206373991 -0.8130533004090096 0.3894069011153186
vn -0.4327891743501412 0.3628142050808684 0.8252632205283724
vn -0.3565281575940383 -0.9045676529585907 0.23376277304906287
vn -0.49205449274415797 0.17941109367858157 0.8518767725647559
vn -0.2658594762038999 -0.961617840115478 0.06789601228519225
vn -0.5325027391154875 -0.00959924688017544 0.8463738460596694
vn -0.16415875125709908 -0.9811798319355157 -0.10167616135900832
vn -0.5529965429046434 -0.19748973711471748 0.8094396995884701
vn -0.05551264707125406 0.9040894999251036 0.4237222228539808
vn -0.05550902262812288 -0.9618401881060595 -0.2679220053503829
vn -0.5529967108310039 -0.37780535252580166 0.7426020154921114
vn -0.16415982728558784 0.8104010446445961 0.5624070571610152
vn -0.5325017400514557 -0.5443753645479269 0.6481491798309117
vn -0.2658590040972503 0.6850389654636123 0.6782629325983857
vn -0.24568359167197207 -0.9528448052972045 -0.1781189203911037
vn -0.8276167619953831 -0.10204245150611235 0.5519400631906515
vn -0.08307617851870593 0.9136695821317773 0.3978771710589487
vn -0.08308101768215434 -0.9522572064268574 -0.2937750113760792
vn -0.8276171688654719 -0.2823569706131461 0.4851024252106642
vn -0.24567628726310048 0.8387342292059609 0.4859712487739388
vn -0.796945557512372 -0.4524659073100953 0.400190431024215
vn -0.39788598999231894 0.7309264101011251 0.5544667005190793
vn -0.7364119266131802 -0.6063784970045966 0.30000432115606385
vn -0.5335827645721009 0.5951996805901334 0.6008550354095381
vn -0.647714963983485 -0.7383541917941049 0.1878787185711758
vn -0.6477137446316323 0.43751538670573914 0.6237364759343453
vn -0.5335814450149307 -0.8430310394780444 0.06774590771660406
vn -0.7364139829888531 0.2643383481134994 0.6227517028279568
vn -0.3978870747374858 -0.9157298308923325 -0.055899486319169384
vn -0.7969448578434751 0.08231172753588975 0.5984176410057618
vn -0.7640313921315456 -0.6407547324507272 -0.07542814249025247
vn -0.7640317894589072 0.5351129053614533 0.360429747956304
vn -0.6294011992099547 -0.7626297204617907 -0.14916447265164035
vn -0.8686557371647933 0.3753073821736156 0.32339075307849746
vn -0.469337982313287 -0.8557763677353002 -0.21764343956083163
vn -0.9400611879494952 0.20239798637812953 0.2744449271184701
vn -0.28980279237554407 -0.9158243236929998 -0.277993074848272
vn -0.9762411619212947 0.02266639298300624 0.21549809372637288
vn -0.09799880298103271 0.9261909945527681 0.3640967951295909
vn -0.09799872774964061 -0.9397398690663572 -0.3275442379993851
vn -0.9762413169719313 -0.15764907334635545 0.1486595463128574
vn -0.2898041516377287 0.8757555002460391 0.3860904783627106
vn -0.9400614672376381 -0.33237786729100677 0.07621936204207767
vn -0.46933775901403746 0.7908809014212856 0.3927205975381681
vn -0.8686564887508517 -0.4954144687338004 0.0006393123242832387
vn -0.6294029273724613 0.6756022163631614 0.383944788036197
vn -0.09799872774964061 0.9397398690663572 0.3275442379993851
vn -0.0979988029810327 -0.926190994552766 -0.36409679512959586
vn -0.9762411122819059 -0.02266470335358303 -0.21549849631141665
vn -0.2898005734385008 0.9158254120256235 0.27799180261801504
vn -0.9400612444984129 -0.20239668893441853 -0.27444569025670523
vn -0.46933951310757854 0.855775282556157 0.21764440539988833
vn -0.8686570129266249 -0.375306231679474 -0.3233886614523564
vn -0.6294020290418543 0.7626292314850908 0.14916347113974238
vn -0.7640307718266514 -0.5351132809864182 -0.3604313474351559
vn -0.7640305208397996 0.6407555653214285 0.07542989284681019
vn -0.6294032398492656 -0.6756017548167152 -0.38394508794334503
vn -0.8686568857038246 0.49541377135251974 -0.0006403698975429138
vn -0.46933476048191314 -0.7908823598741342 -0.3927212439419412
vn -0.9400615320720056 0.33237761083918355 -0.0762196807345076
vn -0.28980335824141096 -0.8757553499860123 -0.38609141472309105
vn -0.9762408848608567 0.15764846398276391 -0.14866303013852064
vn -0.6477141012543275 0.7383545740001 -0.18788019078505844
vn -0.5335806614198985 -0.5952007030052366 -0.6008558902938173
vn -0.7364106867393494 0.6063802268068108 -0.3000038682980613
vn -0.39788497007740653 -0.7309260535944899 -0.554467902374237
vn -0.7969460784961462 0.4524622775435228 -0.40019349741061894
vn -0.24568204369204913 -0.8387329781946703 -0.48597049776297824
vn -0.8276168988600656 0.2823590671412522 -0.48510166555513895
vn -0.08307780941018722 0.9522597321375397 0.2937677316060186
vn -0.08307617851870902 -0.913669582131778 -0.39787717105894665
vn -0.8276168349451766 0.10204118751723432 -0.5519401874890076
vn -0.2456803667336694 0.9528467954757022 0.17811272204223758
vn -0.7969459363804429 -0.08230715528511838 -0.5984168335496343
vn -0.3978869824707092 0.9157298143998689 0.05590041323224214
vn -0.7364100638148143 -0.2643436156579288 -0.6227541013699985
vn -0.5335803936579097 0.8430317466500278 -0.06774538836019506
vn -0.6477158576126845 -0.437511832408639 -0.6237367748493748
vn -0.5529953610136372 0.19748815988072285 -0.8094408918533356
vn -0.16415682322045164 0.9811798521982956 0.10167907862633375
vn -0.5325028672224386 0.009602882677527205 -0.846373724216533
vn -0.26585823919723833 0.961617910293867 -0.06789986195126087
vn -0.49205424033783896 -0.17941328341294865 -0.8518764571817544
vn -0.35652813923807997 0.9045676345901592 -0.2337628721234331
vn -0.43278854044954645 -0.3628138892053119 -0.8252636918314457
vn -0.4327882745914613 0.8130545956952566 -0.3894053592273337
vn -0.35652752719673303 -0.53366324622004 -0.7668713464362009
vn -0.49205393291569166 0.6913100830423625 -0.5291250288789616
vn -0.2658586364487991 -0.6850403169112278 -0.6782617117542091
vn -0.5325011089132579 0.5443737510257683 -0.648151053536354
vn -0.1641600468382073 -0.8103998036049258 -0.5624087813496293
vn -0.5529960209769951 0.377806375879375 -0.7426020085675122
vn -0.05551215104406181 0.96184039996921 0.26792059658326284
vn -0.055512302416793134 -0.9040893717430283 -0.42372254150762745
vn -0.12519493005655818 -0.5003587905823511 -0.8567189213359889
vn -0.17278738719641193 0.7372712473814979 -0.6531275729980839
vn -0.09335619648136922 -0.6602069454526143 -0.7452592902840333
vn -0.18698976389141028 0.5941153784890993 -0.7823437513283971
vn -0.05764825168608989 -0.7950660652330049 -0.6037769712339519
vn -0.1941862509666833 0.4294609159020364 -0.8819608957590401
vn -0.019493749206058033 0.9670257612895881 0.2539314292169915
vn -0.019493642057574163 -0.8989039857168428 -0.43771180288142264
vn -0.19418680023828358 0.24914614158174772 -0.9487980221038326
vn -0.05764549764222526 0.9965137148433555 0.060310966918763066
vn -0.18698917105128693 0.05934409094357739 -0.9805678603644081
vn -0.09335455653426909 0.9864519999368468 -0.13489765970870415
vn -0.1727855284027288 -0.13345035187602453 -0.9758771258507677
vn -0.12519810937060155 0.9378710982718563 -0.32360969768591463
vn -0.15197528710534944 -0.3223872776190106 -0.9343286120732093
vn -0.1519758475874388 0.8534827215939375 -0.49846823940014984
vn -0.18698975758035072 0.05934277828920564 -0.9805678279573321
vn -0.18699074125345275 0.5941170021702237 -0.782342284692417
vn -0.019493749206058033 0.9670257612895881 0.2539314292169915
vn -0.05551215104406184 0.96184039996921 0.2679205965832629
vn -0.08307780941018722 0.9522597321375397 0.2937677316060186
vn -0.09799763435466832 0.9397408437194925 0.327541768796386
vn -0.0979975875607068 0.9261900272264704 0.3640995829419636
vn -0.08307617851870591 0.9136695821317772 0.3978771710589486
vn -0.055512302416792746 0.9040893717430286 0.4237225415076269
vn -0.0194936420575725 0.8989039857168428 0.43771180288142264
vn 0.18698933116555863 -0.05934078158541981 0.9805680301086145
vn 0.0576461504913015 -0.9965138776897922 -0.060307652127971755
vn 0.19418648087426513 -0.2491461696879854 0.9487980800863134
vn 0.019493471226091606 0.8989039887114328 0.4377118043396067
vn 0.01949516482352432 -0.9670249145718743 -0.2539345450027687
vn 0.1941859253465804 -0.4294609327010272 0.8819609592724931
vn 0.05764433566479712 0.7950666204310083 0.6037766140239116
vn 0.18699040933562736 -0.5941170097557665 0.7823423582648206
vn 0.09335478793737523 0.6602044237422725 0.7452617006396489
vn 0.17278813116928973 -0.7372727138607741 0.6531257207639227
vn 0.12519652921897326 0.500359501730819 0.8567182723038009
vn 0.15197524277081265 -0.8534803752958652 0.49847244113349126
vn 0.15197436308632284 0.3223871000312198 0.9343288236472034
vn 0.12519533339538114 -0.9378712871710918 0.3236102241834443
vn 0.1727872427253506 0.133447348676951 0.9758772329972982
vn 0.09335783877648673 -0.9864522205093499 0.13489377521278167
vn 0.4920539539941199 -0.6913078364629592 0.5291279444554549
vn 0.3565286885263878 0.5336625243365838 0.7668713088754587
vn 0.43278952935550036 -0.8130537650598473 0.38940569898532756
vn 0.43278803318183284 0.3628152167044735 0.8252633742401796
vn 0.3565286188737091 -0.9045681145497972 0.2337602833327988
vn 0.4920561242779329 0.17940918870688763 0.851876231367043
vn 0.2658588914097471 -0.9616178532789973 0.06789811568426173
vn 0.5325021552766286 -0.00959838594951381 0.8463742231500847
vn 0.16415898558918657 -0.9811797453141768 -0.10167661892262397
vn 0.552996597765342 -0.1974898367767217 0.8094396377926277
vn 0.05551264707125406 0.9040894999251036 0.4237222228539808
vn 0.05550902262812288 -0.9618401881060595 -0.2679220053503829
vn 0.5529961534494489 -0.37780413033523336 0.7426030523582243
vn 0.16415831654818477 0.8104012174579578 0.5624072491093316
vn 0.5325022465266575 -0.544376659369555 0.6481476762109902
vn 0.2658587304786603 0.68503906543482 0.6782629388787682
vn 0.24568368175166624 -0.9528445719840669 -0.1781200442438927
vn 0.827617104377764 -0.10204321373148902 0.5519394088781078
vn 0.08307617851870593 0.9136695821317773 0.3978771710589487
vn 0.08308101768215434 -0.9522572064268574 -0.2937750113760792
vn 0.8276174339189973 -0.28235797937579094 0.48510138585264284
vn 0.24568353127932185 0.8387343631133556 0.48596735547869524
vn 0.796945446590518 -0.4524645259744772 0.40019221368403946
vn 0.39788548432199533 0.730926530493762 0.5544669046807057
vn 0.7364118475044655 -0.6063791539362794 0.3000031875273692
vn 0.5335826087224547 0.5951997563542241 0.6008550987591036
vn 0.6477149604884176 -0.7383542009396807 0.18787869467880966
vn 0.6477154045024716 0.43751413582974563 0.6237356296696146
vn 0.5335811319959991 -0.8430313925619997 0.06774397931066566
vn 0.7364108699348146 0.2643416943873786 0.6227539636568036
vn 0.3978869824707089 -0.9157298143998688 -0.0559004132322446
vn 0.7969449062967036 0.08231165421886531 0.5984175865626716
vn 0.7640306557323697 -0.6407554363775737 -0.07542962185872759
vn 0.7640300260327412 0.535114218355947 0.3604315366802864
vn 0.6294034025224733 -0.7626286843248111 -0.14916047310913483
vn 0.868656923070967 0.37530598478269017 0.32338918934802924
vn 0.46933468491593117 -0.8557765163034289 -0.21764996595090672
vn 0.940061873474207 0.20239666261025774 0.27444355522473796
vn 0.2898034897766868 -0.9158247513134719 -0.2779909390517455
vn 0.9762415594033498 0.022664815546726856 0.21549645897310862
vn 0.09799880298103271 0.9261909945527681 0.3640967951295909
vn 0.09799872774964061 -0.9397398690663572 -0.3275442379993851
vn 0.9762413040503904 -0.1576469764089232 0.1486618548758151
vn 0.28980050411348196 0.875754809437033 0.3860947831342427
vn 0.9400615785577615 -0.3323774269647188 0.07621990923507345
vn 0.46933948409980475 0.7908806611607043 0.39271901974176954
vn 0.8686568857038249 -0.4954137713525198 0.0006403698975429138
vn 0.6294024989088778 0.6756023987664945 0.38394516945550766
vn 0.09799872774964061 0.9397398690663572 0.3275442379993851
vn 0.0979988029810327 -0.926190994552766 -0.36409679512959586
vn 0.9762406998739481 -0.02266634000820024 -0.21550019243670437
vn 0.2898012943988496 0.9158258540915923 0.277989594665262
vn 0.9400624289990305 -0.20239440162058922 -0.27444331978950837
vn 0.4693388750659499 0.8557753113073155 0.2176456682516241
vn 0.8686552433787333 -0.3753083167947693 -0.323390994765332
vn 0.6294013088497014 0.7626295701613128 0.14916477846279333
vn 0.7640325352462504 -0.5351119679955259 -0.3604295587117447
vn 0.764031392131545 0.6407547324507276 0.07542814249025263
vn 0.6294013199495351 -0.675602572145421 -0.38394679703869716
vn 0.8686564880499686 0.495414469965134 -0.000639310456974412
vn 0.469338956804841 -0.7908817754376752 -0.39271740591154686
vn 0.9400620073040283 0.3323757310414953 -0.07622201675469434
vn 0.28980415163772616 -0.8757555002460378 -0.386090478362715
vn 0.9762408957925355 0.1576502379449921 -0.1486610771455514
vn 0.6477139940306383 0.7383548545740185 -0.18787945780169332
vn 0.5335805636215896 -0.5952007505482517 -0.6008559300465167
vn 0.7364105850372868 0.6063810713530009 -0.30000241090669266
vn 0.39788297730276745 -0.7309265280438774 -0.5544687069388212
vn 0.7969461172691332 0.4524627603689305 -0.4001928743106013
vn 0.24567855149357049 -0.8387329136383572 -0.4859723746425647
vn 0.8276167754893113 0.28235859760502147 -0.48510214933269546
vn 0.08307780941018722 0.9522597321375397 0.2937677316060186
vn 0.08307617851870902 -0.913669582131778 -0.39787717105894665
vn 0.8276167391098186 0.10204097416509426 -0.551940370634971
vn 0.24568101938720532 0.9528451051068128 0.17812086454666354
vn 0.7969460295086999 -0.08230701436727665 -0.5984167289074257
vn 0.39788723867148007 0.9157298601933295 0.05589783942774444
vn 0.7364113452715083 -0.2643422382044536 -0.6227531707317654
vn 0.5335808058305823 0.843031281715046 -0.06774792763674105
vn 0.6477139625417279 -0.43751326053493433 -0.6237377410295001
vn 0.5529962617133125 0.19748979612807308 -0.8094398772956483
vn 0.16415672605132123 0.9811798881172774 0.1016788888918377
vn 0.5325023749369341 0.00960215674911217 -0.8463740421777423
vn 0.26585858862583667 0.9616179024304626 -0.06789860513379785
vn 0.4920537559417767 -0.17941384899008464 -0.8518766178585686
vn 0.3565279124337853 0.9045674076312853 -0.23376409627405026
vn 0.4327882760741639 -0.3628141235695783 -0.8252637274418354
vn 0.43278859859543545 0.8130553170007886 -0.38940349307953853
vn 0.35652945409127346 -0.5336620484600558 -0.7668712841140914
vn 0.4920534072120846 0.6913086562886972 -0.5291273818196282
vn 0.26585640205647026 -0.6850411332825359 -0.6782617630358999
vn 0.5325017400514558 0.5443753645479265 -0.6481491798309122
vn 0.1641595257643072 -0.8103998632116501 -0.5624088475543183
vn 0.5529956738091476 0.3778056146334275 -0.7426026543851194
vn 0.05551215104406181 0.96184039996921 0.26792059658326284
vn 0.055512302416793134 -0.9040893717430283 -0.42372254150762745
vn 0.12519559679004033 -0.5003582044664115 -0.8567191662193244
vn 0.17278746549797078 0.7372713532692853 -0.6531274327535663
vn 0.09335982471341915 -0.6602049103094791 -0.7452606386578673
vn 0.18698976389141028 0.5941153784890993 -0.7823437513283971
vn 0.0576459894515193 -0.7950666567154894 -0.6037764083494898
vn 0.19418651880749388 0.429461400529795 -0.8819606008027875
vn 0.019493749206058033 0.9670257612895881 0.2539314292169915
vn 0.019493642057574163 -0.8989039857168428 -0.43771180288142264
vn 0.19418622691708023 0.2491451068112594 -0.9487984111642022
vn 0.05764188454639794 0.9965141137999306 0.06030782821059863
vn 0.18698917105128693 0.05934409094357739 -0.9805678603644081
vn 0.0933589543270478 0.9864523964376565 -0.1348917166076738
vn 0.1727865207839849 -0.13344890056138978 -0.975877148607509
vn 0.12519728083795134 0.9378707160184921 -0.3236111260537006
vn 0.15197399106256365 -0.3223888169543966 -0.9343282917386483
vn 0.15197595001054442 0.8534828159253655 -0.4984680466574577
vn 0.18698975758035072 0.05934277828920564 -0.9805678279573321
vn 0.18699074125345275 0.5941170021702237 -0.782342284692417
usemtl m_6e16fb73-cc8a-366e-9b8a-3db1b4d18ef2
f 1/1/1 2/2/1 3/3/1
f 3/4/2 2/5/2 4/6/2
f 4/7/3 2/8/3 5/9/3
f 5/10/4 2/11/4 6/12/4
f 6/13/5 2/14/5 7/15/5
f 7/16/6 2/17/6 8/18/6
f 8/19/7 2/20/7 9/21/7
f 9/22/8 2/23/8 10/24/8
f 11/25/9 12/26/9 13/27/9 14/28/9
f 15/29/10 16/30/10 17/31/10 18/32/10
f 19/33/11 11/34/11 14/35/11 20/36/11
f 10/37/12 2/38/12 21/39/12
f 22/40/13 15/41/13 18/42/13
f 23/43/14 19/44/14 20/45/14 24/46/14
f 25/47/15 10/48/15 21/49/15 26/50/15
f 27/51/16 23/52/16 24/53/16 28/54/16
f 29/55/17 25/56/17 26/57/17 30/58/17
f 31/59/18 27/60/18 28/61/18 32/62/18
f 33/63/19 29/64/19 30/65/19 34/66/19
f 35/67/20 31/68/20 32/69/20 36/70/20
f 37/71/21 33/72/21 34/73/21 38/74/21
f 39/75/22 35/76/22 36/77/22 40/78/22
f 12/79/23 37/80/23 38/81/23 13/82/23
f 16/83/24 39/84/24 40/85/24 17/86/24
f 32/87/25 28/88/25 41/89/25 42/90/25
f 34/91/26 30/92/26 43/93/26 44/94/26
f 36/95/27 32/96/27 42/97/27 45/98/27
f 38/99/28 34/100/28 44/101/28 46/102/28
f 40/103/29 36/104/29 45/105/29 47/106/29
f 13/107/30 38/108/30 46/109/30 48/110/30
f 17/111/31 40/112/31 47/113/31 49/114/31
f 14/115/32 13/116/32 48/117/32 50/118/32
f 18/119/33 17/120/33 49/121/33 51/122/33
f 20/123/34 14/124/34 50/125/34 52/126/34
f 21/127/35 2/128/35 53/129/35
f 22/130/36 18/131/36 51/132/36
f 24/133/37 20/134/37 52/135/37 54/136/37
f 26/137/38 21/138/38 53/139/38 55/140/38
f 28/141/39 24/142/39 54/143/39 41/144/39
f 30/145/40 26/146/40 55/147/40 43/148/40
f 51/149/41 49/150/41 56/151/41 57/152/41
f 52/153/42 50/154/42 58/155/42 59/156/42
f 53/157/43 2/158/43 60/159/43
f 22/160/44 51/161/44 57/162/44
f 54/163/45 52/164/45 59/165/45 61/166/45
f 55/167/46 53/168/46 60/169/46 62/170/46
f 41/171/47 54/172/47 61/173/47 63/174/47
f 43/175/48 55/176/48 62/177/48 64/178/48
f 42/179/49 41/180/49 63/181/49 65/182/49
f 44/183/50 43/184/50 64/185/50 66/186/50
f 45/187/51 42/188/51 65/189/51 67/190/51
f 46/191/52 44/192/52 66/193/52 68/194/52
f 47/195/53 45/196/53 67/197/53 69/198/53
f 48/199/54 46/200/54 68/201/54 70/202/54
f 49/203/55 47/204/55 69/205/55 56/206/55
f 50/207/56 48/208/56 70/209/56 58/210/56
f 67/211/57 65/212/57 71/213/57 72/214/57
f 68/215/58 66/216/58 73/217/58 74/218/58
f 69/219/59 67/220/59 72/221/59 75/222/59
f 70/223/60 68/224/60 74/225/60 76/226/60
f 56/227/61 69/228/61 75/229/61 77/230/61
f 58/231/62 70/232/62 76/233/62 78/234/62
f 57/235/63 56/236/63 77/237/63 79/238/63
f 59/239/64 58/240/64 78/241/64 80/242/64
f 60/243/65 2/244/65 81/245/65
f 22/246/66 57/247/66 79/248/66
f 61/249/67 59/250/67 80/251/67 82/252/67
f 62/253/68 60/254/68 81/255/68 83/256/68
f 63/257/69 61/258/69 82/259/69 84/260/69
f 64/261/70 62/262/70 83/263/70 85/264/70
f 65/265/71 63/266/71 84/267/71 71/268/71
f 66/269/72 64/270/72 85/271/72 73/272/72
f 81/273/73 2/274/73 86/275/73
f 22/276/74 79/277/74 87/278/74
f 82/279/75 80/280/75 88/281/75 89/282/75
f 83/283/76 81/284/76 86/285/76 90/286/76
f 84/287/77 82/288/77 89/289/77 91/290/77
f 85/291/78 83/292/78 90/293/78 92/294/78
f 71/295/79 84/296/79 91/297/79 93/298/79
f 73/299/80 85/300/80 92/301/80 94/302/80
f 72/303/81 71/304/81 93/305/81 95/306/81
f 74/307/82 73/308/82 94/309/82 96/310/82
f 75/311/83 72/312/83 95/313/83 97/314/83
f 76/315/84 74/316/84 96/317/84 98/318/84
f 77/319/85 75/320/85 97/321/85 99/322/85
f 78/323/86 76/324/86 98/325/86 100/326/86
f 79/327/87 77/328/87 99/329/87 87/330/87
f 80/331/88 78/332/88 100/333/88 88/334/88
f 96/335/89 94/336/89 101/337/89 102/338/89
f 97/339/90 95/340/90 103/341/90 104/342/90
f 98/343/91 96/344/91 102/345/91 105/346/91
f 99/347/92 97/348/92 104/349/92 106/350/92
f 100/351/93 98/352/93 105/353/93 107/354/93
f 87/355/94 99/356/94 106/357/94 108/358/94
f 88/359/95 100/360/95 107/361/95 109/362/95
f 86/363/96 2/364/96 110/365/96
f 22/366/97 87/367/97 108/368/97
f 89/369/98 88/370/98 109/371/98 111/372/98
f 90/373/99 86/374/99 110/375/99 112/376/99
f 91/377/100 89/378/100 111/379/100 113/380/100
f 92/381/101 90/382/101 112/383/101 114/384/101
f 93/385/102 91/386/102 113/387/102 115/388/102
f 94/389/103 92/390/103 114/391/103 101/392/103
f 95/393/104 93/394/104 115/395/104 103/396/104
f 111/397/105 109/398/105 116/399/105 117/400/105
f 112/401/106 110/402/106 118/403/106 119/404/106
f 113/405/107 111/406/107 117/407/107 120/408/107
f 114/409/108 112/410/108 119/411/108 121/412/108
f 115/413/109 113/414/109 120/415/109 122/416/109
f 101/417/110 114/418/110 121/419/110 123/420/110
f 103/421/111 115/422/111 122/423/111 124/424/111
f 102/425/112 101/426/112 123/427/112 125/428/112
f 104/429/113 103/430/113 124/431/113 126/432/113
f 105/433/114 102/434/114 125/435/114 127/436/114
f 106/437/115 104/438/115 126/439/115 128/440/115
f 107/441/116 105/442/116 127/443/116 129/444/116
f 108/445/117 106/446/117 128/447/117 130/448/117
f 109/449/118 107/450/118 129/451/118 116/452/118
f 110/453/119 2/454/119 118/455/119
f 22/456/120 108/457/120 130/458/120
f 126/459/121 124/460/121 131/461/121 132/462/121
f 127/463/122 125/464/122 133/465/122 134/466/122
f 128/467/123 126/468/123 132/469/123 135/470/123
f 129/471/124 134/472/124 136/473/124
f 130/474/125 128/475/125 135/476/125 137/477/125
f 116/478/126 129/479/126 136/480/126 138/481/126
f 118/482/127 2/483/127 1/484/127
f 22/485/128 130/486/128 137/487/128
f 117/488/129 116/489/129 138/490/129 139/491/129
f 119/492/130 118/493/130 1/494/130 140/495/130
f 120/496/131 117/497/131 141/498/131
f 121/499/132 119/500/132 140/501/132 142/502/132
f 122/503/133 120/504/133 141/505/133 143/506/133
f 123/507/134 121/508/134 142/509/134 144/510/134
f 124/511/135 122/512/135 143/513/135 131/514/135
f 125/515/136 123/516/136 144/517/136 133/518/136
f 141/519/137 117/520/137 139/521/137
f 134/522/138 129/523/138 127/524/138
f 1/525/139 145/526/139 2/527/139
f 145/528/140 146/529/140 2/530/140
f 146/531/141 147/532/141 2/533/141
f 147/534/142 148/535/142 2/536/142
f 148/537/143 149/538/143 2/539/143
f 149/540/144 150/541/144 2/542/144
f 150/543/145 151/544/145 2/545/145
f 151/546/146 10/547/146 2/548/146
f 11/549/147 152/550/147 153/551/147 12/552/147
f 15/553/148 154/554/148 155/555/148 16/556/148
f 19/557/149 156/558/149 152/559/149 11/560/149
f 10/561/150 157/562/150 2/563/150
f 22/564/151 154/565/151 15/566/151
f 23/567/152 158/568/152 156/569/152 19/570/152
f 25/571/153 159/572/153 157/573/153 10/574/153
f 27/575/154 160/576/154 158/577/154 23/578/154
f 29/579/155 161/580/155 159/581/155 25/582/155
f 31/583/156 162/584/156 160/585/156 27/586/156
f 33/587/157 163/588/157 161/589/157 29/590/157
f 35/591/158 164/592/158 162/593/158 31/594/158
f 37/595/159 165/596/159 163/597/159 33/598/159
f 39/599/160 166/600/160 164/601/160 35/602/160
f 12/603/161 153/604/161 165/605/161 37/606/161
f 16/607/162 155/608/162 166/609/162 39/610/162
f 162/611/163 167/612/163 168/613/163 160/614/163
f 163/615/164 169/616/164 170/617/164 161/618/164
f 164/619/165 171/620/165 167/621/165 162/622/165
f 165/623/166 172/624/166 169/625/166 163/626/166
f 166/627/167 173/628/167 171/629/167 164/630/167
f 153/631/168 174/632/168 172/633/168 165/634/168
f 155/635/169 175/636/169 173/637/169 166/638/169
f 152/639/170 176/640/170 174/641/170 153/642/170
f 154/643/171 177/644/171 175/645/171 155/646/171
f 156/647/172 178/648/172 176/649/172 152/650/172
f 157/651/173 179/652/173 2/653/173
f 22/654/174 177/655/174 154/656/174
f 158/657/175 180/658/175 178/659/175 156/660/175
f 159/661/176 181/662/176 179/663/176 157/664/176
f 160/665/177 168/666/177 180/667/177 158/668/177
f 161/669/178 170/670/178 181/671/178 159/672/178
f 177/673/179 182/674/179 183/675/179 175/676/179
f 178/677/180 184/678/180 185/679/180 176/680/180
f 179/681/181 186/682/181 2/683/181
f 22/684/182 182/685/182 177/686/182
f 180/687/183 187/688/183 184/689/183 178/690/183
f 181/691/184 188/692/184 186/693/184 179/694/184
f 168/695/185 189/696/185 187/697/185 180/698/185
f 170/699/186 190/700/186 188/701/186 181/702/186
f 167/703/187 191/704/187 189/705/187 168/706/187
f 169/707/188 192/708/188 190/709/188 170/710/188
f 171/711/189 193/712/189 191/713/189 167/714/189
f 172/715/190 194/716/190 192/717/190 169/718/190
f 173/719/191 195/720/191 193/721/191 171/722/191
f 174/723/192 196/724/192 194/725/192 172/726/192
f 175/727/193 183/728/193 195/729/193 173/730/193
f 176/731/194 185/732/194 196/733/194 174/734/194
f 193/735/195 197/736/195 198/737/195 191/738/195
f 194/739/196 199/740/196 200/741/196 192/742/196
f 195/743/197 201/744/197 197/745/197 193/746/197
f 196/747/198 202/748/198 199/749/198 194/750/198
f 183/751/199 203/752/199 201/753/199 195/754/199
f 185/755/200 204/756/200 202/757/200 196/758/200
f 182/759/201 205/760/201 203/761/201 183/762/201
f 184/763/202 206/764/202 204/765/202 185/766/202
f 186/767/203 207/768/203 2/769/203
f 22/770/204 205/771/204 182/772/204
f 187/773/205 208/774/205 206/775/205 184/776/205
f 188/777/206 209/778/206 207/779/206 186/780/206
f 189/781/207 210/782/207 208/783/207 187/784/207
f 190/785/208 211/786/208 209/787/208 188/788/208
f 191/789/209 198/790/209 210/791/209 189/792/209
f 192/793/210 200/794/210 211/795/210 190/796/210
f 207/797/211 212/798/211 2/799/211
f 22/800/212 213/801/212 205/802/212
f 208/803/213 214/804/213 215/805/213 206/806/213
f 209/807/214 216/808/214 212/809/214 207/810/214
f 210/811/215 217/812/215 214/813/215 208/814/215
f 211/815/216 218/816/216 216/817/216 209/818/216
f 198/819/217 219/820/217 217/821/217 210/822/217
f 200/823/218 220/824/218 218/825/218 211/826/218
f 197/827/219 221/828/219 219/829/219 198/830/219
f 199/831/220 222/832/220 220/833/220 200/834/220
f 201/835/221 223/836/221 221/837/221 197/838/221
f 202/839/222 224/840/222 222/841/222 199/842/222
f 203/843/223 225/844/223 223/845/223 201/846/223
f 204/847/224 226/848/224 224/849/224 202/850/224
f 205/851/225 213/852/225 225/853/225 203/854/225
f 206/855/226 215/856/226 226/857/226 204/858/226
f 222/859/227 227/860/227 228/861/227 220/862/227
f 223/863/228 229/864/228 230/865/228 221/866/228
f 224/867/229 231/868/229 227/869/229 222/870/229
f 225/871/230 232/872/230 229/873/230 223/874/230
f 226/875/231 233/876/231 231/877/231 224/878/231
f 213/879/232 234/880/232 232/881/232 225/882/232
f 215/883/233 235/884/233 233/885/233 226/886/233
f 212/887/234 236/888/234 2/889/234
f 22/890/235 234/891/235 213/892/235
f 214/893/236 237/894/236 235/895/236 215/896/236
f 216/897/237 238/898/237 236/899/237 212/900/237
f 217/901/238 239/902/238 237/903/238 214/904/238
f 218/905/239 240/906/239 238/907/239 216/908/239
f 219/909/240 241/910/240 239/911/240 217/912/240
f 220/913/241 228/914/241 240/915/241 218/916/241
f 221/917/242 230/918/242 241/919/242 219/920/242
f 237/921/243 242/922/243 243/923/243 235/924/243
f 238/925/244 244/926/244 245/927/244 236/928/244
f 239/929/245 246/930/245 242/931/245 237/932/245
f 240/933/246 247/934/246 244/935/246 238/936/246
f 241/937/247 248/938/247 246/939/247 239/940/247
f 228/941/248 249/942/248 247/943/248 240/944/248
f 230/945/249 250/946/249 248/947/249 241/948/249
f 227/949/250 251/950/250 249/951/250 228/952/250
f 229/953/251 252/954/251 250/955/251 230/956/251
f 231/957/252 253/958/252 251/959/252 227/960/252
f 232/961/253 254/962/253 252/963/253 229/964/253
f 233/965/254 255/966/254 253/967/254 231/968/254
f 234/969/255 256/970/255 254/971/255 232/972/255
f 235/973/256 243/974/256 255/975/256 233/976/256
f 236/977/257 245/978/257 2/979/257
f 22/980/258 256/981/258 234/982/258
f 252/983/259 132/984/259 131/985/259 250/986/259
f 253/987/260 134/988/260 133/989/260 251/990/260
f 254/991/261 135/992/261 132/993/261 252/994/261
f 255/995/262 136/996/262 134/997/262
f 256/998/263 137/999/263 135/1000/263 254/1001/263
f 243/1002/264 138/1003/264 136/1004/264 255/1005/264
f 245/1006/265 1/1007/265 2/1008/265
f 22/1009/266 137/1010/266 256/1011/266
f 242/1012/267 139/1013/267 138/1014/267 243/1015/267
f 244/1016/268 140/1017/268 1/1018/268 245/1019/268
f 246/1020/269 141/1021/269 242/1022/269
f 247/1023/270 142/1024/270 140/1025/270 244/1026/270
f 248/1027/271 143/1028/271 141/1029/271 246/1030/271
f 249/1031/272 144/1032/272 142/1033/272 247/1034/272
f 250/1035/273 131/1036/273 143/1037/273 248/1038/273
f 251/1039/274 133/1040/274 144/1041/274 249/1042/274
f 141/1043/275 139/1044/275 242/1045/275
f 134/1046/276 253/1047/276 255/1048/276