# Made in Blockbench 5.1.4
mtllib Mo_Banner_Diamond.mtl

o Fabric
v 0.5 2.84375 0.0625
v 0.5 2.84375 -0.0625
v 0.5 0.71875 0.0625
v 0.5 0.71875 -0.0625
v -0.5 2.84375 0.0625
v -0.5 2.84375 -0.0625
v -0.5 0.71875 0.0625
v -0.5 0.71875 -0.0625
v 0 2.84375 -0.0625
v 0 0.25 -0.0625
v 0 0.25 0.0625
v 0 2.84375 0.0625
vt 0.109375 0.859375
vt 0.109375 0.859375
vt 0.109375 0.859375
vt 0.109375 0.859375
vt 0.109375 0.859375
vt 0.109375 0.890625
vt 0.109375 0.859375
vt 0.109375 0.859375
vt 0.109375 0.859375
vt 0.078125 0.859375
vt 0.078125 0.890625
vt 0.109375 0.859375
vt 0.109375 0.859375
vt 0.109375 0.859375
vt 0.109375 0.859375
vt 0.109375 0.859375
vt 0.109375 0.859375
vt 0.078125 0.890625
vt 0.109375 0.859375
vt 0.109375 0.859375
vt 0.109375 0.859375
vt 0.109375 0.859375
vt 0.078125 0.859375
vt 0.109375 0.859375
vt 0.109375 0.859375
vt 0.078125 0.859375
vt 0.109375 0.859375
vt 0.109375 0.859375
vt 0.109375 0.859375
vt 0.109375 0.859375
vt 0.109375 0.859375
vt 0.109375 0.859375
vt 0.109375 0.859375
vt 0.109375 0.859375
vt 0.078125 0.890625
vt 0.109375 0.890625
vt 0.109375 0.890625
vt 0.078125 0.890625
vt 0.078125 0.859375
vt 0.109375 0.859375
vn 1 0 0
vn -1 0 0
vn 0 1 0
vn 0.6839411288813297 -0.7295372041400852 0
vn 0 0 1
vn 0 0 -1
vn 0 0 -1
vn -0.6839411288813297 -0.7295372041400852 0
vn 0 0 1
vn 0 1 0
usemtl m_afd1bd7b-ade8-03af-0098-b65cd255863e
f 2/1/1 1/2/1 3/3/1 4/4/1
f 7/5/2 5/6/2 6/7/2 8/8/2
f 2/9/3 9/10/3 12/11/3 1/12/3
f 3/13/4 11/14/4 10/15/4 4/16/4
f 1/17/5 12/18/5 11/19/5 3/20/5
f 4/21/6 10/22/6 9/23/6 2/24/6
f 6/25/7 9/26/7 10/27/7 8/28/7
f 8/29/8 10/30/8 11/31/8 7/32/8
f 7/33/9 11/34/9 12/35/9 5/36/9
f 5/37/10 12/38/10 9/39/10 6/40/10
o Wood
v 0.5625 2.75 0.1875
v 0.5625 2.75 0.0625
v 0.5625 2.625 0.1875
v 0.5625 2.625 0.0625
v -0.5625 2.75 0.1875
v -0.5625 2.75 0.0625
v -0.5625 2.625 0.1875
v -0.5625 2.625 0.0625
vt 0.375 0.890625
vt 0.40625 0.859375
vt 0.40625 0.859375
vt 0.375 0.859375
vt 0.40625 0.859375
vt 0.40625 0.859375
vt 0.40625 0.890625
vt 0.40625 0.859375
vt 0.40625 0.859375
vt 0.40625 0.859375
vt 0.375 0.890625
vt 0.40625 0.890625
vt 0.375 0.859375
vt 0.40625 0.859375
vt 0.40625 0.859375
vt 0.40625 0.859375
vt 0.40625 0.859375
vt 0.40625 0.859375
vt 0.40625 0.859375
vt 0.40625 0.859375
vt 0.40625 0.890625
vt 0.375 0.890625
vt 0.375 0.859375
vt 0.40625 0.859375
vn 1 0 0
vn -1 0 0
vn 0 1 0
vn 0 -1 0
vn 0 0 1
vn 0 0 -1
usemtl m_afd1bd7b-ade8-03af-0098-b65cd255863e
f 14/41/11 13/42/11 15/43/11 16/44/11
f 19/45/12 17/46/12 18/47/12 20/48/12
f 17/49/13 13/50/13 14/51/13 18/52/13
f 16/53/14 15/54/14 19/55/14 20/56/14
f 15/57/15 13/58/15 17/59/15 19/60/15
f 18/61/16 14/62/16 16/63/16 20/64/16
o Diamond
v -5.551115123125783e-17 2.2178300858899105 -0.012499999999999997
v -5.551115123125783e-17 2.2178300858899105 -0.075
v 0.3897051086649125 1.6875 -0.012499999999999997
v 0.3897051086649125 1.6875 -0.075
v -0.3897051086649125 1.6875 -0.012499999999999997
v -0.3897051086649125 1.6875 -0.075
v 5.551115123125783e-17 1.1571699141100893 -0.012499999999999997
v 5.551115123125783e-17 1.1571699141100893 -0.075
vt 0.609375 0.875
vt 0.640625 0.84375
vt 0.640625 0.84375
vt 0.609375 0.84375
vt 0.640625 0.84375
vt 0.640625 0.84375
vt 0.640625 0.875
vt 0.640625 0.84375
vt 0.640625 0.84375
vt 0.640625 0.84375
vt 0.609375 0.875
vt 0.640625 0.875
vt 0.609375 0.84375
vt 0.640625 0.84375
vt 0.640625 0.84375
vt 0.640625 0.84375
vt 0.640625 0.84375
vt 0.640625 0.84375
vt 0.640625 0.84375
vt 0.640625 0.84375
vt 0.640625 0.875
vt 0.609375 0.875
vt 0.609375 0.84375
vt 0.640625 0.84375
vn 0.8058275485627145 0.5921502866480824 0
vn -0.8058275485627145 -0.5921502866480824 0
vn -0.8058275485627147 0.5921502866480823 0
vn 0.8058275485627147 -0.5921502866480823 0
vn 0 0 1
vn 0 0 -1
usemtl m_afd1bd7b-ade8-03af-0098-b65cd255863e
f 22/65/17 21/66/17 23/67/17 24/68/17
f 27/69/18 25/70/18 26/71/18 28/72/18
f 25/73/19 21/74/19 22/75/19 26/76/19
f 24/77/20 23/78/20 27/79/20 28/80/20
f 23/81/21 21/82/21 25/83/21 27/84/21
f 26/85/22 22/86/22 24/87/22 28/88/22