# Made in Blockbench 5.1.4
mtllib Mo_Banner_Heart.mtl

o Fabric
v 0.5 2.84375 0.0625
v 0.5 2.84375 -0.0625
v 0.5 0.71875 0.0625
v 0.5 0.71875 -0.0625
v -0.5 2.84375 0.0625
v -0.5 2.84375 -0.0625
v -0.5 0.71875 0.0625
v -0.5 0.71875 -0.0625
v 0 2.84375 -0.0625
v 0 0.25 -0.0625
v 0 0.25 0.0625
v 0 2.84375 0.0625
vt 0.109375 0.859375
vt 0.109375 0.859375
vt 0.109375 0.859375
vt 0.109375 0.859375
vt 0.109375 0.859375
vt 0.109375 0.890625
vt 0.109375 0.859375
vt 0.109375 0.859375
vt 0.109375 0.859375
vt 0.078125 0.859375
vt 0.078125 0.890625
vt 0.109375 0.859375
vt 0.109375 0.859375
vt 0.109375 0.859375
vt 0.109375 0.859375
vt 0.109375 0.859375
vt 0.109375 0.859375
vt 0.078125 0.890625
vt 0.109375 0.859375
vt 0.109375 0.859375
vt 0.109375 0.859375
vt 0.109375 0.859375
vt 0.078125 0.859375
vt 0.109375 0.859375
vt 0.109375 0.859375
vt 0.078125 0.859375
vt 0.109375 0.859375
vt 0.109375 0.859375
vt 0.109375 0.859375
vt 0.109375 0.859375
vt 0.109375 0.859375
vt 0.109375 0.859375
vt 0.109375 0.859375
vt 0.109375 0.859375
vt 0.078125 0.890625
vt 0.109375 0.890625
vt 0.109375 0.890625
vt 0.078125 0.890625
vt 0.078125 0.859375
vt 0.109375 0.859375
vn 1 0 0
vn -1 0 0
vn 0 1 0
vn 0.6839411288813297 -0.7295372041400852 0
vn 0 0 1
vn 0 0 -1
vn 0 0 -1
vn -0.6839411288813297 -0.7295372041400852 0
vn 0 0 1
vn 0 1 0
usemtl m_afd1bd7b-ade8-03af-0098-b65cd255863e
f 2/1/1 1/2/1 3/3/1 4/4/1
f 7/5/2 5/6/2 6/7/2 8/8/2
f 2/9/3 9/10/3 12/11/3 1/12/3
f 3/13/4 11/14/4 10/15/4 4/16/4
f 1/17/5 12/18/5 11/19/5 3/20/5
f 4/21/6 10/22/6 9/23/6 2/24/6
f 6/25/7 9/26/7 10/27/7 8/28/7
f 8/29/8 10/30/8 11/31/8 7/32/8
f 7/33/9 11/34/9 12/35/9 5/36/9
f 5/37/10 12/38/10 9/39/10 6/40/10
o Wood
v 0.5625 2.75 0.1875
v 0.5625 2.75 0.0625
v 0.5625 2.625 0.1875
v 0.5625 2.625 0.0625
v -0.5625 2.75 0.1875
v -0.5625 2.75 0.0625
v -0.5625 2.625 0.1875
v -0.5625 2.625 0.0625
vt 0.375 0.890625
vt 0.40625 0.859375
vt 0.40625 0.859375
vt 0.375 0.859375
vt 0.40625 0.859375
vt 0.40625 0.859375
vt 0.40625 0.890625
vt 0.40625 0.859375
vt 0.40625 0.859375
vt 0.40625 0.859375
vt 0.375 0.890625
vt 0.40625 0.890625
vt 0.375 0.859375
vt 0.40625 0.859375
vt 0.40625 0.859375
vt 0.40625 0.859375
vt 0.40625 0.859375
vt 0.40625 0.859375
vt 0.40625 0.859375
vt 0.40625 0.859375
vt 0.40625 0.890625
vt 0.375 0.890625
vt 0.375 0.859375
vt 0.40625 0.859375
vn 1 0 0
vn -1 0 0
vn 0 1 0
vn 0 -1 0
vn 0 0 1
vn 0 0 -1
usemtl m_afd1bd7b-ade8-03af-0098-b65cd255863e
f 14/41/11 13/42/11 15/43/11 16/44/11
f 19/45/12 17/46/12 18/47/12 20/48/12
f 17/49/13 13/50/13 14/51/13 18/52/13
f 16/53/14 15/54/14 19/55/14 20/56/14
f 15/57/15 13/58/15 17/59/15 19/60/15
f 18/61/16 14/62/16 16/63/16 20/64/16
o Heart
v 0.375 1.691964375 -0.0125
v 0.375 1.691964375 -0.075
v 0 1.28125 -0.075
v 0 1.28125 -0.0125
v 0 1.691964375 -0.075
v 0 1.691964375 -0.0125
v 0.375 1.863095 -0.075
v 0 1.863095 -0.0125
v 0 1.863095 -0.075
v 0.375 1.863095 -0.0125
v 0.340909375 1.9315475 -0.075
v 0.034090625 1.9315475 -0.0125
v 0.034090625 1.9315475 -0.075
v 0.340909375 1.9315475 -0.0125
v 0.2727275 2 -0.075
v 0.1022725 2 -0.0125
v 0.1022725 2 -0.075
v 0.2727275 2 -0.0125
v -0.375 1.691964375 -0.0125
v -0.375 1.691964375 -0.075
v -0.375 1.863095 -0.075
v -0.375 1.863095 -0.0125
v -0.340909375 1.9315475 -0.075
v -0.034090625 1.9315475 -0.0125
v -0.034090625 1.9315475 -0.075
v -0.340909375 1.9315475 -0.0125
v -0.2727275 2 -0.075
v -0.1022725 2 -0.0125
v -0.1022725 2 -0.075
v -0.2727275 2 -0.0125
vt 0.90625 0.890625
vt 0.90625 0.890625
vt 0.90625 0.890625
vt 0.90625 0.890625
vt 0.90625 0.890625
vt 0.90625 0.890625
vt 0.90625 0.890625
vt 0.90625 0.890625
vt 0.90625 0.890625
vt 0.90625 0.890625
vt 0.90625 0.890625
vt 0.90625 0.890625
vt 0.90625 0.890625
vt 0.90625 0.890625
vt 0.90625 0.890625
vt 0.90625 0.890625
vt 0.90625 0.890625
vt 0.90625 0.890625
vt 0.90625 0.890625
vt 0.90625 0.890625
vt 0.90625 0.890625
vt 0.90625 0.890625
vt 0.90625 0.890625
vt 0.90625 0.890625
vt 0.90625 0.890625
vt 0.875 0.890625
vt 0.90625 0.890625
vt 0.90625 0.890625
vt 0.875 0.890625
vt 0.90625 0.890625
vt 0.90625 0.890625
vt 0.90625 0.890625
vt 0.90625 0.890625
vt 0.90625 0.890625
vt 0.90625 0.890625
vt 0.90625 0.890625
vt 0.90625 0.890625
vt 0.90625 0.890625
vt 0.90625 0.890625
vt 0.90625 0.890625
vt 0.90625 0.890625
vt 0.90625 0.890625
vt 0.90625 0.890625
vt 0.90625 0.890625
vt 0.90625 0.890625
vt 0.90625 0.890625
vt 0.90625 0.890625
vt 0.90625 0.890625
vt 0.90625 0.890625
vt 0.90625 0.890625
vt 0.90625 0.890625
vt 0.90625 0.890625
vt 0.90625 0.890625
vt 0.90625 0.890625
vt 0.875 0.890625
vt 0.90625 0.890625
vt 0.90625 0.890625
vt 0.90625 0.890625
vt 0.90625 0.921875
vt 0.90625 0.890625
vt 0.90625 0.890625
vt 0.90625 0.890625
vt 0.90625 0.921875
vt 0.90625 0.890625
vt 0.90625 0.890625
vt 0.90625 0.890625
vt 0.90625 0.890625
vt 0.90625 0.890625
vt 0.90625 0.890625
vt 0.90625 0.890625
vt 0.90625 0.890625
vt 0.90625 0.890625
vt 0.90625 0.890625
vt 0.90625 0.890625
vt 0.875 0.921875
vt 0.90625 0.921875
vt 0.90625 0.890625
vt 0.90625 0.890625
vt 0.90625 0.890625
vt 0.90625 0.890625
vt 0.875 0.921875
vt 0.90625 0.890625
vt 0.90625 0.890625
vt 0.875 0.890625
vt 0.875 0.890625
vt 0.90625 0.890625
vt 0.90625 0.890625
vt 0.90625 0.890625
vt 0.90625 0.890625
vt 0.90625 0.890625
vt 0.90625 0.890625
vt 0.90625 0.890625
vt 0.90625 0.890625
vt 0.90625 0.890625
vt 0.90625 0.890625
vt 0.875 0.921875
vt 0.90625 0.890625
vt 0.90625 0.890625
vt 0.90625 0.890625
vt 0.90625 0.890625
vt 0.90625 0.890625
vt 0.90625 0.890625
vt 0.90625 0.890625
vt 0.90625 0.890625
vt 0.90625 0.890625
vt 0.90625 0.890625
vt 0.90625 0.890625
vt 0.90625 0.890625
vt 0.90625 0.890625
vt 0.90625 0.890625
vt 0.90625 0.890625
vt 0.90625 0.890625
vt 0.90625 0.921875
vt 0.875 0.921875
vt 0.875 0.890625
vt 0.90625 0.890625
vn -0.7384855669160337 0.6742692840821864 0
vn 0 0 -1
vn 0 0 -1
vn 0 0 1
vn 1 0 0
vn 0 1 0
vn 0 0 -1
vn -0.8951354787527449 0.4457942066448308 0
vn 0 0 1
vn 0.8951354787527451 0.44579420664483077 0
vn 0 0 -1
vn -0.7085059231551805 0.705704865261694 0
vn 0 0 1
vn 0.7085059231551805 0.705704865261694 0
vn 0 0 -1
vn 0.7384855669160337 0.6742692840821864 0
vn 0 0 -1
vn 0 0 -1
vn 0 0 1
vn -1 0 0
vn 0 1 0
vn 0 0 -1
vn 0.8951354787527449 0.4457942066448308 0
vn 0 0 1
vn -0.8951354787527451 0.44579420664483077 0
vn 0 0 -1
vn 0.7085059231551805 0.705704865261694 0
vn 0 0 1
vn -0.7085059231551805 0.705704865261694 0
vn 0 0 -1
usemtl m_afd1bd7b-ade8-03af-0098-b65cd255863e
f 24/65/17 21/66/17 22/67/17 23/68/17
f 25/69/18 22/70/18 23/71/18
f 26/72/19 21/73/19 24/74/19
f 30/75/20 28/76/20 26/77/20 21/78/20
f 27/79/21 30/80/21 21/81/21 22/82/21
f 35/83/22 37/84/22 36/85/22 38/86/22
f 33/87/23 31/88/23 27/89/23 29/90/23
f 32/91/24 33/92/24 29/93/24 28/94/24
f 34/95/25 32/96/25 28/97/25 30/98/25
f 31/99/26 34/100/26 30/101/26 27/102/26
f 37/103/27 35/104/27 31/105/27 33/106/27
f 36/107/28 37/108/28 33/109/28 32/110/28
f 38/111/29 36/112/29 32/113/29 34/114/29
f 35/115/30 38/116/30 34/117/30 31/118/30
f 29/119/31 27/120/31 22/121/31 25/122/31
f 40/123/32 39/124/32 24/125/32 23/126/32
f 40/127/33 25/128/33 23/129/33
f 39/130/34 26/131/34 24/132/34
f 26/133/35 28/134/35 42/135/35 39/136/35
f 39/137/36 42/138/36 41/139/36 40/140/36
f 48/141/37 49/142/37 47/143/37 50/144/37
f 41/145/38 43/146/38 45/147/38 29/148/38
f 29/149/39 45/150/39 44/151/39 28/152/39
f 28/153/40 44/154/40 46/155/40 42/156/40
f 42/157/41 46/158/41 43/159/41 41/160/41
f 43/161/42 47/162/42 49/163/42 45/164/42
f 45/165/43 49/166/43 48/167/43 44/168/43
f 44/169/44 48/170/44 50/171/44 46/172/44
f 46/173/45 50/174/45 47/175/45 43/176/45
f 40/177/46 41/178/46 29/179/46 25/180/46