# Made in Blockbench 5.1.4
mtllib Mo_Banner_Club.mtl

o Fabric
v 0.5 2.84375 0.0625
v 0.5 2.84375 -0.0625
v 0.5 0.71875 0.0625
v 0.5 0.71875 -0.0625
v -0.5 2.84375 0.0625
v -0.5 2.84375 -0.0625
v -0.5 0.71875 0.0625
v -0.5 0.71875 -0.0625
v 0 2.84375 -0.0625
v 0 0.25 -0.0625
v 0 0.25 0.0625
v 0 2.84375 0.0625
vt 0.109375 0.859375
vt 0.109375 0.859375
vt 0.109375 0.859375
vt 0.109375 0.859375
vt 0.109375 0.859375
vt 0.109375 0.890625
vt 0.109375 0.859375
vt 0.109375 0.859375
vt 0.109375 0.859375
vt 0.078125 0.859375
vt 0.078125 0.890625
vt 0.109375 0.859375
vt 0.109375 0.859375
vt 0.109375 0.859375
vt 0.109375 0.859375
vt 0.109375 0.859375
vt 0.109375 0.859375
vt 0.078125 0.890625
vt 0.109375 0.859375
vt 0.109375 0.859375
vt 0.109375 0.859375
vt 0.109375 0.859375
vt 0.078125 0.859375
vt 0.109375 0.859375
vt 0.109375 0.859375
vt 0.078125 0.859375
vt 0.109375 0.859375
vt 0.109375 0.859375
vt 0.109375 0.859375
vt 0.109375 0.859375
vt 0.109375 0.859375
vt 0.109375 0.859375
vt 0.109375 0.859375
vt 0.109375 0.859375
vt 0.078125 0.890625
vt 0.109375 0.890625
vt 0.109375 0.890625
vt 0.078125 0.890625
vt 0.078125 0.859375
vt 0.109375 0.859375
vn 1 0 0
vn -1 0 0
vn 0 1 0
vn 0.6839411288813297 -0.7295372041400852 0
vn 0 0 1
vn 0 0 -1
vn 0 0 -1
vn -0.6839411288813297 -0.7295372041400852 0
vn 0 0 1
vn 0 1 0
usemtl m_afd1bd7b-ade8-03af-0098-b65cd255863e
f 2/1/1 1/2/1 3/3/1 4/4/1
f 7/5/2 5/6/2 6/7/2 8/8/2
f 2/9/3 9/10/3 12/11/3 1/12/3
f 3/13/4 11/14/4 10/15/4 4/16/4
f 1/17/5 12/18/5 11/19/5 3/20/5
f 4/21/6 10/22/6 9/23/6 2/24/6
f 6/25/7 9/26/7 10/27/7 8/28/7
f 8/29/8 10/30/8 11/31/8 7/32/8
f 7/33/9 11/34/9 12/35/9 5/36/9
f 5/37/10 12/38/10 9/39/10 6/40/10
o Wood
v 0.5625 2.75 0.1875
v 0.5625 2.75 0.0625
v 0.5625 2.625 0.1875
v 0.5625 2.625 0.0625
v -0.5625 2.75 0.1875
v -0.5625 2.75 0.0625
v -0.5625 2.625 0.1875
v -0.5625 2.625 0.0625
vt 0.375 0.890625
vt 0.40625 0.859375
vt 0.40625 0.859375
vt 0.375 0.859375
vt 0.40625 0.859375
vt 0.40625 0.859375
vt 0.40625 0.890625
vt 0.40625 0.859375
vt 0.40625 0.859375
vt 0.40625 0.859375
vt 0.375 0.890625
vt 0.40625 0.890625
vt 0.375 0.859375
vt 0.40625 0.859375
vt 0.40625 0.859375
vt 0.40625 0.859375
vt 0.40625 0.859375
vt 0.40625 0.859375
vt 0.40625 0.859375
vt 0.40625 0.859375
vt 0.40625 0.890625
vt 0.375 0.890625
vt 0.375 0.859375
vt 0.40625 0.859375
vn 1 0 0
vn -1 0 0
vn 0 1 0
vn 0 -1 0
vn 0 0 1
vn 0 0 -1
usemtl m_afd1bd7b-ade8-03af-0098-b65cd255863e
f 14/41/11 13/42/11 15/43/11 16/44/11
f 19/45/12 17/46/12 18/47/12 20/48/12
f 17/49/13 13/50/13 14/51/13 18/52/13
f 16/53/14 15/54/14 19/55/14 20/56/14
f 15/57/15 13/58/15 17/59/15 19/60/15
f 18/61/16 14/62/16 16/63/16 20/64/16
o Club
v 0.09408 1.51800125 -0.012499999999999997
v 0.09408 1.51800125 -0.075
v 0.09408 1.2615 -0.012499999999999997
v 0.09408 1.2615 -0.075
v 0.075264375 1.56075125 -0.012499999999999997
v 0.075264375 1.56075125 -0.075
v 0.11289625 1.21875 -0.012499999999999997
v 0.11289625 1.21875 -0.075
v 0.14112 1.64625125 -0.012499999999999997
v 0.14112 1.64625125 -0.075
v 0.329280625 1.64625125 -0.012499999999999997
v 0.329280625 1.64625125 -0.075
v 0.282240625 1.6035012499999999 -0.075
v 0.282240625 1.6035012499999999 -0.012499999999999997
v 0.18816 1.6035012499999999 -0.012499999999999997
v 0.18816 1.6035012499999999 -0.075
v 0.14112 1.84356 -0.075
v 0.329280625 1.84356 -0.075
v 0.329280625 1.84356 -0.012499999999999997
v 0.14112 1.84356 -0.012499999999999997
v 0.37109375 1.8040981249999999 -0.012499999999999997
v 0.37109375 1.8040981249999999 -0.075
v 0.37109375 1.685713125 -0.075
v 0.37109375 1.685713125 -0.012499999999999997
v 0.287466875 1.8830218749999998 -0.012499999999999997
v 0.18293375 1.8830218749999998 -0.012499999999999997
v 0.287466875 1.8830218749999998 -0.075
v 0.18293375 1.8830218749999998 -0.075
v 0.108864375 1.8830218749999998 -0.012499999999999997
v 0.108864375 1.8830218749999998 -0.075
v 0.108864375 2.08033 -0.012499999999999997
v 0.108864375 2.08033 -0.075
v 0.14112 2.0408681250000003 -0.012499999999999997
v 0.14112 2.0408681250000003 -0.075
v 0.14112 1.9224831249999998 -0.075
v 0.14112 1.9224831249999998 -0.012499999999999997
v 0.076608125 2.1197918749999998 -0.012499999999999997
v 0.076608125 2.1197918749999998 -0.075
v -0.09408 1.51800125 -0.012499999999999997
v -0.09408 1.51800125 -0.075
v -0.09408 1.2615 -0.012499999999999997
v -0.09408 1.2615 -0.075
v -0.075264375 1.56075125 -0.012499999999999997
v -0.075264375 1.56075125 -0.075
v -0.11289625 1.21875 -0.012499999999999997
v -0.11289625 1.21875 -0.075
v -0.14112 1.64625125 -0.012499999999999997
v -0.14112 1.64625125 -0.075
v -0.329280625 1.64625125 -0.012499999999999997
v -0.329280625 1.64625125 -0.075
v -0.282240625 1.6035012499999999 -0.075
v -0.282240625 1.6035012499999999 -0.012499999999999997
v -0.18816 1.6035012499999999 -0.012499999999999997
v -0.18816 1.6035012499999999 -0.075
v -0.14112 1.84356 -0.075
v -0.329280625 1.84356 -0.075
v -0.329280625 1.84356 -0.012499999999999997
v -0.14112 1.84356 -0.012499999999999997
v -0.37109375 1.8040981249999999 -0.012499999999999997
v -0.37109375 1.8040981249999999 -0.075
v -0.37109375 1.685713125 -0.075
v -0.37109375 1.685713125 -0.012499999999999997
v -0.287466875 1.8830218749999998 -0.012499999999999997
v -0.18293375 1.8830218749999998 -0.012499999999999997
v -0.287466875 1.8830218749999998 -0.075
v -0.18293375 1.8830218749999998 -0.075
v -0.108864375 1.8830218749999998 -0.012499999999999997
v -0.108864375 1.8830218749999998 -0.075
v -0.108864375 2.08033 -0.012499999999999997
v -0.108864375 2.08033 -0.075
v -0.14112 2.0408681250000003 -0.012499999999999997
v -0.14112 2.0408681250000003 -0.075
v -0.14112 1.9224831249999998 -0.075
v -0.14112 1.9224831249999998 -0.012499999999999997
v -0.076608125 2.1197918749999998 -0.012499999999999997
v -0.076608125 2.1197918749999998 -0.075
vt 0.390625 0.625
vt 0.390625 0.625
vt 0.390625 0.625
vt 0.390625 0.625
vt 0.390625 0.625
vt 0.390625 0.625
vt 0.390625 0.625
vt 0.390625 0.625
vt 0.390625 0.625
vt 0.390625 0.625
vt 0.390625 0.625
vt 0.390625 0.625
vt 0.390625 0.625
vt 0.390625 0.625
vt 0.390625 0.625
vt 0.390625 0.625
vt 0.390625 0.625
vt 0.390625 0.625
vt 0.390625 0.625
vt 0.390625 0.625
vt 0.390625 0.625
vt 0.390625 0.625
vt 0.390625 0.625
vt 0.390625 0.625
vt 0.390625 0.625
vt 0.390625 0.625
vt 0.390625 0.625
vt 0.390625 0.625
vt 0.390625 0.625
vt 0.390625 0.625
vt 0.390625 0.625
vt 0.390625 0.625
vt 0.390625 0.625
vt 0.390625 0.625
vt 0.390625 0.625
vt 0.390625 0.625
vt 0.390625 0.625
vt 0.390625 0.625
vt 0.390625 0.625
vt 0.390625 0.625
vt 0.390625 0.625
vt 0.390625 0.625
vt 0.390625 0.625
vt 0.390625 0.625
vt 0.359375 0.625
vt 0.390625 0.625
vt 0.390625 0.625
vt 0.359375 0.65625
vt 0.390625 0.625
vt 0.390625 0.625
vt 0.390625 0.625
vt 0.390625 0.625
vt 0.390625 0.625
vt 0.390625 0.625
vt 0.390625 0.625
vt 0.390625 0.625
vt 0.390625 0.625
vt 0.390625 0.625
vt 0.390625 0.625
vt 0.390625 0.625
vt 0.390625 0.625
vt 0.390625 0.65625
vt 0.390625 0.625
vt 0.390625 0.625
vt 0.390625 0.625
vt 0.390625 0.625
vt 0.359375 0.625
vt 0.390625 0.625
vt 0.390625 0.65625
vt 0.359375 0.65625
vt 0.390625 0.625
vt 0.390625 0.625
vt 0.390625 0.625
vt 0.390625 0.625
vt 0.390625 0.625
vt 0.390625 0.625
vt 0.390625 0.625
vt 0.390625 0.625
vt 0.390625 0.625
vt 0.390625 0.625
vt 0.390625 0.625
vt 0.390625 0.625
vt 0.390625 0.625
vt 0.390625 0.625
vt 0.390625 0.625
vt 0.390625 0.625
vt 0.390625 0.625
vt 0.390625 0.625
vt 0.390625 0.625
vt 0.390625 0.625
vt 0.390625 0.625
vt 0.390625 0.625
vt 0.390625 0.625
vt 0.390625 0.625
vt 0.390625 0.625
vt 0.390625 0.625
vt 0.390625 0.625
vt 0.390625 0.625
vt 0.390625 0.625
vt 0.390625 0.625
vt 0.390625 0.625
vt 0.390625 0.625
vt 0.390625 0.625
vt 0.390625 0.625
vt 0.390625 0.625
vt 0.390625 0.625
vt 0.390625 0.625
vt 0.390625 0.625
vt 0.390625 0.625
vt 0.390625 0.625
vt 0.390625 0.625
vt 0.390625 0.625
vt 0.390625 0.625
vt 0.390625 0.625
vt 0.390625 0.625
vt 0.390625 0.625
vt 0.390625 0.625
vt 0.390625 0.625
vt 0.390625 0.625
vt 0.390625 0.625
vt 0.390625 0.625
vt 0.390625 0.625
vt 0.390625 0.625
vt 0.390625 0.625
vt 0.390625 0.625
vt 0.390625 0.625
vt 0.390625 0.625
vt 0.390625 0.625
vt 0.390625 0.625
vt 0.390625 0.625
vt 0.390625 0.625
vt 0.390625 0.625
vt 0.390625 0.625
vt 0.390625 0.625
vt 0.390625 0.625
vt 0.390625 0.625
vt 0.390625 0.625
vt 0.390625 0.625
vt 0.390625 0.625
vt 0.390625 0.625
vt 0.390625 0.625
vt 0.390625 0.625
vt 0.390625 0.625
vt 0.390625 0.625
vt 0.390625 0.625
vt 0.390625 0.625
vt 0.390625 0.625
vt 0.390625 0.625
vt 0.390625 0.625
vt 0.390625 0.625
vt 0.390625 0.625
vt 0.390625 0.625
vt 0.390625 0.625
vt 0.390625 0.625
vt 0.390625 0.625
vt 0.390625 0.625
vt 0.390625 0.625
vt 0.390625 0.625
vt 0.390625 0.625
vt 0.390625 0.625
vt 0.390625 0.625
vt 0.390625 0.625
vt 0.390625 0.625
vt 0.390625 0.625
vt 0.390625 0.625
vt 0.390625 0.625
vt 0.390625 0.625
vt 0.390625 0.625
vt 0.390625 0.625
vt 0.390625 0.625
vt 0.390625 0.625
vt 0.390625 0.625
vt 0.390625 0.625
vt 0.390625 0.625
vt 0.390625 0.625
vt 0.390625 0.625
vt 0.390625 0.625
vt 0.390625 0.625
vt 0.390625 0.625
vt 0.390625 0.625
vt 0.390625 0.625
vt 0.390625 0.625
vt 0.390625 0.625
vt 0.390625 0.625
vt 0.390625 0.625
vt 0.390625 0.625
vt 0.390625 0.625
vt 0.390625 0.625
vt 0.390625 0.625
vt 0.390625 0.625
vt 0.390625 0.625
vt 0.390625 0.625
vt 0.390625 0.625
vt 0.390625 0.625
vt 0.390625 0.625
vt 0.390625 0.625
vt 0.390625 0.625
vt 0.390625 0.625
vt 0.390625 0.625
vt 0.390625 0.625
vt 0.390625 0.625
vt 0.390625 0.625
vt 0.390625 0.625
vt 0.390625 0.625
vt 0.390625 0.625
vt 0.390625 0.625
vt 0.390625 0.625
vt 0.390625 0.625
vt 0.390625 0.625
vt 0.390625 0.625
vt 0.390625 0.625
vt 0.390625 0.625
vt 0.390625 0.625
vt 0.390625 0.625
vt 0.390625 0.625
vt 0.390625 0.625
vt 0.390625 0.625
vt 0.390625 0.625
vt 0.390625 0.625
vt 0.390625 0.625
vt 0.390625 0.625
vt 0.390625 0.625
vt 0.390625 0.625
vt 0.390625 0.625
vt 0.390625 0.625
vt 0.390625 0.625
vt 0.390625 0.625
vt 0.390625 0.625
vt 0.390625 0.625
vt 0.390625 0.625
vt 0.390625 0.625
vt 0.390625 0.625
vt 0.390625 0.625
vt 0.390625 0.625
vt 0.390625 0.625
vt 0.390625 0.625
vt 0.390625 0.625
vt 0.390625 0.625
vt 0.390625 0.625
vt 0.390625 0.625
vt 0.390625 0.625
vt 0.390625 0.625
vt 0.390625 0.625
vt 0.390625 0.625
vt 0.390625 0.625
vt 0.390625 0.625
vt 0.390625 0.625
vt 0.390625 0.625
vt 0.390625 0.625
vt 0.390625 0.625
vt 0.390625 0.625
vt 0.390625 0.625
vt 0.390625 0.625
vt 0.390625 0.625
vt 0.390625 0.625
vt 0.390625 0.625
vt 0.390625 0.625
vt 0.390625 0.625
vt 0.390625 0.625
vt 0.390625 0.625
vt 0.390625 0.625
vt 0.390625 0.625
vt 0.390625 0.625
vt 0.390625 0.625
vt 0.390625 0.625
vt 0.390625 0.625
vt 0.390625 0.625
vt 0.390625 0.625
vt 0.390625 0.625
vt 0.390625 0.625
vt 0.390625 0.625
vt 0.390625 0.625
vt 0.390625 0.625
vt 0.390625 0.625
vt 0.390625 0.625
vt 0.390625 0.625
vt 0.390625 0.625
vt 0.390625 0.625
vt 0.390625 0.625
vt 0.390625 0.65625
vt 0.390625 0.625
vt 0.390625 0.625
vt 0.390625 0.65625
vt 0.390625 0.625
vt 0.390625 0.625
vt 0.390625 0.625
vt 0.390625 0.625
vt 0.390625 0.625
vt 0.390625 0.625
vt 0.390625 0.625
vt 0.390625 0.625
vt 0.390625 0.625
vt 0.359375 0.625
vt 0.359375 0.65625
vt 0.390625 0.65625
vt 0.390625 0.625
vn 0 -1 0
vn 0 0 1
vn 0 0 -1
vn 0 0 1
vn 0 0 -1
vn 0 0 1
vn 0 0 -1
vn 0 0 1
vn 0 0 -1
vn 0 0 1
vn 0 0 -1
vn 0 1 0
vn 0 0 1
vn 0 0 -1
vn 0 0 1
vn 0 0 -1
vn 0 0 1
vn 0 0 -1
vn 1 0 0
vn 0.9152706322970808 0.4028395085570704 0
vn 0.9152656985292108 0.40285071812749174 0
vn 0.7922369597729468 -0.6102135688180969 0
vn 0 -1 0
vn 0.6725553272596642 -0.7400468443109842 0
vn 0 0 1
vn -0.6725553272596639 -0.7400468443109844 0
vn 0 0 -1
vn 0 0 -1
vn 0 0 1
vn 1 0 0
vn 0.6863633376935975 0.7272588044637925 0
vn 0 0 -1
vn -0.6863633376935975 0.7272588044637925 0
vn 0 0 1
vn 0 1 0
vn 0.6863579114718323 0.7272639255181192 0
vn 0 0 1
vn -0.6863579114718321 0.7272639255181195 0
vn 0 0 -1
vn 0.7742588026276379 0.6328691069673226 0
vn 1 0 0
vn 0.7742588026276379 0.6328691069673226 0
vn 0 0 -1
vn 0.7742538910339747 -0.6328751158157114 0
vn 0 0 1
vn 0.7742527938289763 0.6328764581243523 0
vn -1 0 0
vn -0.9152706322970808 0.4028395085570704 0
vn -0.9152656985292108 0.40285071812749174 0
vn -0.7922369597729468 -0.6102135688180969 0
vn 0 -1 0
vn -0.6725553272596642 -0.7400468443109842 0
vn 0 0 1
vn 0.6725553272596639 -0.7400468443109844 0
vn 0 0 -1
vn 0 0 -1
vn 0 0 1
vn -1 0 0
vn -0.6863633376935975 0.7272588044637925 0
vn 0 0 -1
vn 0.6863633376935975 0.7272588044637925 0
vn 0 0 1
vn 0 1 0
vn -0.6863579114718323 0.7272639255181192 0
vn 0 0 1
vn 0.6863579114718321 0.7272639255181195 0
vn 0 0 -1
vn -0.7742588026276379 0.6328691069673226 0
vn -1 0 0
vn -0.7742588026276379 0.6328691069673226 0
vn 0 0 -1
vn -0.7742538910339747 -0.6328751158157114 0
vn 0 0 1
vn -0.7742527938289763 0.6328764581243523 0
usemtl m_afd1bd7b-ade8-03af-0098-b65cd255863e
f 28/65/17 27/66/17 65/67/17 66/68/17
f 23/69/18 21/70/18 59/71/18 61/72/18
f 60/73/19 22/74/19 24/75/19 62/76/19
f 25/77/20 63/78/20 59/79/20 21/80/20
f 64/81/21 26/82/21 22/83/21 60/84/21
f 65/85/22 27/86/22 23/87/22 61/88/22
f 28/89/23 66/90/23 62/91/23 24/92/23
f 29/93/24 67/94/24 63/95/24 25/96/24
f 68/97/25 30/98/25 26/99/25 64/100/25
f 29/101/26 40/102/26 78/103/26 67/104/26
f 68/105/27 75/106/27 37/107/27 30/108/27
f 95/109/28 57/110/28 58/111/28 96/112/28
f 40/113/29 49/114/29 87/115/29 78/116/29
f 75/117/30 88/118/30 50/119/30 37/120/30
f 49/121/31 51/122/31 89/123/31 87/124/31
f 88/125/32 90/126/32 52/127/32 50/128/32
f 51/129/33 57/130/33 95/131/33 89/132/33
f 90/133/34 96/134/34 58/135/34 52/136/34
f 22/137/35 21/138/35 23/139/35 24/140/35
f 26/141/36 25/142/36 21/143/36 22/144/36
f 27/145/37 28/146/37 24/147/37 23/148/37
f 30/149/38 29/150/38 25/151/38 26/152/38
f 33/153/39 34/154/39 35/155/39 36/156/39
f 34/157/40 33/158/40 32/159/40 31/160/40
f 35/161/41 34/162/41 31/163/41 29/164/41
f 36/165/42 35/166/42 29/167/42 30/168/42
f 33/169/43 36/170/43 30/171/43 32/172/43
f 30/173/44 37/174/44 38/175/44 32/176/44
f 31/177/45 39/178/45 40/179/45 29/180/45
f 43/181/46 42/182/46 41/183/46 44/184/46
f 39/185/47 41/186/47 42/187/47 38/188/47
f 38/189/48 42/190/48 43/191/48 32/192/48
f 44/193/49 43/194/49 32/195/49 31/196/49
f 31/197/50 44/198/50 41/199/50 39/200/50
f 46/201/51 45/202/51 47/203/51 48/204/51
f 38/205/52 47/206/52 45/207/52 39/208/52
f 39/209/53 45/210/53 46/211/53 40/212/53
f 40/213/54 46/214/54 48/215/54 37/216/54
f 37/217/55 48/218/55 47/219/55 38/220/55
f 37/221/56 50/222/56 49/223/56 40/224/56
f 55/225/57 54/226/57 53/227/57 56/228/57
f 51/229/58 53/230/58 54/231/58 52/232/58
f 52/233/59 54/234/59 55/235/59 50/236/59
f 50/237/60 55/238/60 56/239/60 49/240/60
f 49/241/61 56/242/61 53/243/61 51/244/61
f 52/245/62 58/246/62 57/247/62 51/248/62
f 61/249/63 59/250/63 60/251/63 62/252/63
f 59/253/64 63/254/64 64/255/64 60/256/64
f 62/257/65 66/258/65 65/259/65 61/260/65
f 63/261/66 67/262/66 68/263/66 64/264/66
f 73/265/67 72/266/67 71/267/67 74/268/67
f 70/269/68 71/270/68 72/271/68 69/272/68
f 69/273/69 72/274/69 73/275/69 67/276/69
f 67/277/70 73/278/70 74/279/70 68/280/70
f 68/281/71 74/282/71 71/283/71 70/284/71
f 76/285/72 75/286/72 68/287/72 70/288/72
f 78/289/73 77/290/73 69/291/73 67/292/73
f 79/293/74 80/294/74 81/295/74 82/296/74
f 80/297/75 79/298/75 77/299/75 76/300/75
f 81/301/76 80/302/76 76/303/76 70/304/76
f 70/305/77 81/306/77 82/307/77 69/308/77
f 79/309/78 82/310/78 69/311/78 77/312/78
f 85/313/79 83/314/79 84/315/79 86/316/79
f 83/317/80 85/318/80 76/319/80 77/320/80
f 84/321/81 83/322/81 77/323/81 78/324/81
f 86/325/82 84/326/82 78/327/82 75/328/82
f 85/329/83 86/330/83 75/331/83 76/332/83
f 87/333/84 88/334/84 75/335/84 78/336/84
f 91/337/85 92/338/85 93/339/85 94/340/85
f 92/341/86 91/342/86 89/343/86 90/344/86
f 93/345/87 92/346/87 90/347/87 88/348/87
f 94/349/88 93/350/88 88/351/88 87/352/88
f 91/353/89 94/354/89 87/355/89 89/356/89
f 95/357/90 96/358/90 90/359/90 89/360/90