# Made in Blockbench 5.1.4
mtllib Mo_Banner_Spade.mtl

o Spade
v 0 2.21875 -0.0125
v 0 2.21875 -0.075
v 0.09375 1.510416875 -0.0125
v 0.09375 1.510416875 -0.075
v 0.09375 1.260416875 -0.0125
v 0.09375 1.260416875 -0.075
v 0.075 1.552083125 -0.0125
v 0.075 1.552083125 -0.075
v 0.1125 1.21875 -0.0125
v 0.1125 1.21875 -0.075
v 0.140625 1.635416875 -0.0125
v 0.140625 1.635416875 -0.075
v 0.140625 1.760416875 -0.0125
v 0.140625 1.760416875 -0.075
v 0.328125 1.635416875 -0.0125
v 0.328125 1.635416875 -0.075
v 0.28125 1.59375 -0.075
v 0.28125 1.59375 -0.0125
v 0.1875 1.59375 -0.0125
v 0.1875 1.59375 -0.075
v 0.375 1.760416875 -0.0125
v 0.375 1.677083125 -0.0125
v 0.375 1.677083125 -0.075
v 0.375 1.760416875 -0.075
v -0.09375 1.510416875 -0.0125
v -0.09375 1.510416875 -0.075
v -0.09375 1.260416875 -0.0125
v -0.09375 1.260416875 -0.075
v -0.075 1.552083125 -0.0125
v -0.075 1.552083125 -0.075
v -0.1125 1.21875 -0.0125
v -0.1125 1.21875 -0.075
v -0.140625 1.635416875 -0.0125
v -0.140625 1.635416875 -0.075
v -0.140625 1.760416875 -0.0125
v -0.140625 1.760416875 -0.075
v -0.328125 1.635416875 -0.0125
v -0.328125 1.635416875 -0.075
v -0.28125 1.59375 -0.075
v -0.28125 1.59375 -0.0125
v -0.1875 1.59375 -0.0125
v -0.1875 1.59375 -0.075
v -0.375 1.760416875 -0.0125
v -0.375 1.677083125 -0.0125
v -0.375 1.677083125 -0.075
v -0.375 1.760416875 -0.075
vt 0.109375 0.59375
vt 0.109375 0.59375
vt 0.109375 0.59375
vt 0.109375 0.59375
vt 0.109375 0.59375
vt 0.109375 0.59375
vt 0.109375 0.59375
vt 0.109375 0.59375
vt 0.109375 0.59375
vt 0.109375 0.59375
vt 0.109375 0.59375
vt 0.109375 0.59375
vt 0.109375 0.59375
vt 0.109375 0.59375
vt 0.109375 0.59375
vt 0.109375 0.59375
vt 0.109375 0.59375
vt 0.109375 0.59375
vt 0.109375 0.59375
vt 0.109375 0.59375
vt 0.109375 0.59375
vt 0.109375 0.59375
vt 0.109375 0.59375
vt 0.109375 0.59375
vt 0.109375 0.59375
vt 0.109375 0.59375
vt 0.109375 0.59375
vt 0.109375 0.59375
vt 0.109375 0.59375
vt 0.109375 0.59375
vt 0.109375 0.59375
vt 0.109375 0.59375
vt 0.109375 0.59375
vt 0.109375 0.59375
vt 0.109375 0.59375
vt 0.109375 0.59375
vt 0.109375 0.59375
vt 0.109375 0.59375
vt 0.109375 0.59375
vt 0.109375 0.59375
vt 0.109375 0.59375
vt 0.109375 0.59375
vt 0.109375 0.59375
vt 0.109375 0.59375
vt 0.109375 0.59375
vt 0.140625 0.625
vt 0.109375 0.59375
vt 0.109375 0.59375
vt 0.109375 0.59375
vt 0.140625 0.625
vt 0.109375 0.59375
vt 0.109375 0.59375
vt 0.109375 0.59375
vt 0.109375 0.59375
vt 0.109375 0.59375
vt 0.109375 0.59375
vt 0.109375 0.59375
vt 0.109375 0.59375
vt 0.109375 0.59375
vt 0.109375 0.59375
vt 0.109375 0.59375
vt 0.109375 0.59375
vt 0.109375 0.59375
vt 0.109375 0.59375
vt 0.109375 0.59375
vt 0.109375 0.59375
vt 0.109375 0.59375
vt 0.109375 0.59375
vt 0.109375 0.59375
vt 0.109375 0.59375
vt 0.109375 0.59375
vt 0.109375 0.59375
vt 0.109375 0.59375
vt 0.109375 0.59375
vt 0.109375 0.59375
vt 0.109375 0.59375
vt 0.109375 0.59375
vt 0.109375 0.59375
vt 0.109375 0.59375
vt 0.109375 0.59375
vt 0.109375 0.59375
vt 0.109375 0.59375
vt 0.109375 0.59375
vt 0.109375 0.59375
vt 0.109375 0.59375
vt 0.109375 0.59375
vt 0.109375 0.59375
vt 0.109375 0.59375
vt 0.109375 0.59375
vt 0.109375 0.59375
vt 0.109375 0.59375
vt 0.109375 0.59375
vt 0.109375 0.59375
vt 0.109375 0.59375
vt 0.109375 0.59375
vt 0.109375 0.59375
vt 0.109375 0.59375
vt 0.109375 0.59375
vt 0.109375 0.59375
vt 0.109375 0.59375
vt 0.109375 0.59375
vt 0.109375 0.59375
vt 0.109375 0.59375
vt 0.109375 0.59375
vt 0.109375 0.59375
vt 0.109375 0.59375
vt 0.109375 0.59375
vt 0.109375 0.59375
vt 0.109375 0.59375
vt 0.109375 0.59375
vt 0.109375 0.59375
vt 0.109375 0.59375
vt 0.109375 0.59375
vt 0.109375 0.59375
vt 0.109375 0.59375
vt 0.109375 0.59375
vt 0.109375 0.59375
vt 0.109375 0.59375
vt 0.109375 0.59375
vt 0.109375 0.59375
vt 0.109375 0.59375
vt 0.109375 0.59375
vt 0.109375 0.59375
vt 0.109375 0.59375
vt 0.109375 0.59375
vt 0.109375 0.59375
vt 0.109375 0.59375
vt 0.109375 0.59375
vt 0.109375 0.59375
vt 0.109375 0.59375
vt 0.109375 0.59375
vt 0.109375 0.59375
vt 0.109375 0.59375
vt 0.109375 0.59375
vt 0.109375 0.59375
vt 0.109375 0.59375
vt 0.109375 0.625
vt 0.109375 0.59375
vt 0.109375 0.59375
vt 0.109375 0.59375
vt 0.109375 0.59375
vt 0.109375 0.59375
vt 0.109375 0.59375
vt 0.109375 0.59375
vt 0.109375 0.59375
vt 0.109375 0.59375
vt 0.109375 0.59375
vt 0.109375 0.59375
vt 0.109375 0.625
vt 0.140625 0.625
vt 0.109375 0.59375
vt 0.109375 0.59375
vt 0.109375 0.59375
vt 0.109375 0.59375
vt 0.109375 0.59375
vt 0.109375 0.59375
vt 0.109375 0.59375
vt 0.109375 0.59375
vt 0.109375 0.59375
vt 0.109375 0.59375
vt 0.109375 0.59375
vt 0.109375 0.59375
vt 0.109375 0.59375
vt 0.109375 0.59375
vt 0.109375 0.59375
vt 0.109375 0.59375
vt 0.109375 0.59375
vt 0.109375 0.59375
vt 0.109375 0.59375
vt 0.109375 0.59375
vt 0.109375 0.59375
vt 0.109375 0.59375
vt 0.109375 0.59375
vt 0.109375 0.59375
vt 0.109375 0.625
vt 0.109375 0.59375
vt 0.109375 0.625
vt 0.109375 0.59375
vt 0.109375 0.59375
vt 0.109375 0.59375
vt 0.109375 0.59375
vt 0.109375 0.59375
vt 0.109375 0.59375
vt 0.140625 0.625
vt 0.109375 0.625
vt 0.109375 0.59375
vn 0 -1 0
vn 0 0 1
vn 0 0 -1
vn 0 0 1
vn 0 0 -1
vn 0 0 1
vn 0 0 -1
vn 0 0 1
vn 0 0 -1
vn 0 0 -1
vn 0 0 1
vn 0 0 -1
vn 0 0 -1
vn 1 0 0
vn 0.9119199694877193 0.41036808995037305 0
vn 0.9119222730044331 0.4103629710371397 0
vn 0.7856378182831796 -0.6186866884645618 0
vn 1 0 0
vn 0 0 1
vn 0 -1 0
vn 0 0 -1
vn 0.664365694460706 -0.7474076692299483 0
vn 0 0 1
vn -0.664365694460706 -0.7474076692299483 0
vn 0 0 -1
vn 0 0 1
vn 0.6643601275314903 -0.7474126175991024 0
vn 0 0 -1
vn 0.7739571581354391 0.633237962673524 0
vn 0 0 1
vn 0 0 -1
vn -1 0 0
vn -0.9119199694877193 0.41036808995037305 0
vn -0.9119222730044331 0.4103629710371397 0
vn -0.7856378182831796 -0.6186866884645618 0
vn -1 0 0
vn 0 0 1
vn 0 -1 0
vn 0 0 -1
vn -0.664365694460706 -0.7474076692299483 0
vn 0 0 1
vn 0.664365694460706 -0.7474076692299483 0
vn 0 0 -1
vn 0 0 1
vn -0.6643601275314903 -0.7474126175991024 0
vn 0 0 -1
vn -0.7739571581354391 0.633237962673524 0
vn 0 0 1
vn 0 0 -1
usemtl m_afd1bd7b-ade8-03af-0098-b65cd255863e
f 10/1/1 9/2/1 31/3/1 32/4/1
f 5/5/2 3/6/2 25/7/2 27/8/2
f 26/9/3 4/10/3 6/11/3 28/12/3
f 7/13/4 29/14/4 25/15/4 3/16/4
f 30/17/5 8/18/5 4/19/5 26/20/5
f 31/21/6 9/22/6 5/23/6 27/24/6
f 10/25/7 32/26/7 28/27/7 6/28/7
f 11/29/8 33/30/8 29/31/8 7/32/8
f 34/33/9 12/34/9 8/35/9 30/36/9
f 33/37/10 35/38/10 13/39/10 11/40/10
f 1/41/11 35/42/11 13/43/11
f 2/44/12 14/45/12 36/46/12
f 14/47/13 12/48/13 34/49/13 36/50/13
f 4/51/14 3/52/14 5/53/14 6/54/14
f 8/55/15 7/56/15 3/57/15 4/58/15
f 9/59/16 10/60/16 6/61/16 5/62/16
f 12/63/17 11/64/17 7/65/17 8/66/17
f 24/67/18 21/68/18 22/69/18 23/70/18
f 15/71/19 21/72/19 13/73/19 11/74/19
f 17/75/20 18/76/20 19/77/20 20/78/20
f 24/79/21 16/80/21 12/81/21 14/82/21
f 18/83/22 17/84/22 16/85/22 15/86/22
f 19/87/23 18/88/23 15/89/23 11/90/23
f 20/91/24 19/92/24 11/93/24 12/94/24
f 17/95/25 20/96/25 12/97/25 16/98/25
f 22/99/26 21/100/26 15/101/26
f 23/102/27 22/103/27 15/104/27 16/105/27
f 24/106/28 23/107/28 16/108/28
f 1/109/29 21/110/29 24/111/29 2/112/29
f 13/113/30 21/114/30 1/115/30
f 24/116/31 14/117/31 2/118/31
f 27/119/32 25/120/32 26/121/32 28/122/32
f 25/123/33 29/124/33 30/125/33 26/126/33
f 28/127/34 32/128/34 31/129/34 27/130/34
f 29/131/35 33/132/35 34/133/35 30/134/35
f 44/135/36 43/136/36 46/137/36 45/138/36
f 35/139/37 43/140/37 37/141/37 33/142/37
f 41/143/38 40/144/38 39/145/38 42/146/38
f 34/147/39 38/148/39 46/149/39 36/150/39
f 38/151/40 39/152/40 40/153/40 37/154/40
f 37/155/41 40/156/41 41/157/41 33/158/41
f 33/159/42 41/160/42 42/161/42 34/162/42
f 34/163/43 42/164/43 39/165/43 38/166/43
f 43/167/44 44/168/44 37/169/44
f 37/170/45 44/171/45 45/172/45 38/173/45
f 45/174/46 46/175/46 38/176/46
f 46/177/47 43/178/47 1/179/47 2/180/47
f 43/181/48 35/182/48 1/183/48
f 36/184/49 46/185/49 2/186/49
o Wood
v 0.5625 2.75 0.1875
v 0.5625 2.75 0.0625
v 0.5625 2.625 0.1875
v 0.5625 2.625 0.0625
v -0.5625 2.75 0.1875
v -0.5625 2.75 0.0625
v -0.5625 2.625 0.1875
v -0.5625 2.625 0.0625
vt 0.375 0.890625
vt 0.40625 0.859375
vt 0.40625 0.859375
vt 0.375 0.859375
vt 0.40625 0.859375
vt 0.40625 0.859375
vt 0.40625 0.890625
vt 0.40625 0.859375
vt 0.40625 0.859375
vt 0.40625 0.859375
vt 0.375 0.890625
vt 0.40625 0.890625
vt 0.375 0.859375
vt 0.40625 0.859375
vt 0.40625 0.859375
vt 0.40625 0.859375
vt 0.40625 0.859375
vt 0.40625 0.859375
vt 0.40625 0.859375
vt 0.40625 0.859375
vt 0.40625 0.890625
vt 0.375 0.890625
vt 0.375 0.859375
vt 0.40625 0.859375
vn 1 0 0
vn -1 0 0
vn 0 1 0
vn 0 -1 0
vn 0 0 1
vn 0 0 -1
usemtl m_afd1bd7b-ade8-03af-0098-b65cd255863e
f 48/187/50 47/188/50 49/189/50 50/190/50
f 53/191/51 51/192/51 52/193/51 54/194/51
f 51/195/52 47/196/52 48/197/52 52/198/52
f 50/199/53 49/200/53 53/201/53 54/202/53
f 49/203/54 47/204/54 51/205/54 53/206/54
f 52/207/55 48/208/55 50/209/55 54/210/55
o Fabric
v 0.5 2.84375 0.0625
v 0.5 2.84375 -0.0625
v 0.5 0.71875 0.0625
v 0.5 0.71875 -0.0625
v -0.5 2.84375 0.0625
v -0.5 2.84375 -0.0625
v -0.5 0.71875 0.0625
v -0.5 0.71875 -0.0625
v 0 2.84375 -0.0625
v 0 0.25 -0.0625
v 0 0.25 0.0625
v 0 2.84375 0.0625
vt 0.109375 0.859375
vt 0.109375 0.859375
vt 0.109375 0.859375
vt 0.109375 0.859375
vt 0.109375 0.859375
vt 0.109375 0.890625
vt 0.109375 0.859375
vt 0.109375 0.859375
vt 0.109375 0.859375
vt 0.078125 0.859375
vt 0.078125 0.890625
vt 0.109375 0.859375
vt 0.109375 0.859375
vt 0.109375 0.859375
vt 0.109375 0.859375
vt 0.109375 0.859375
vt 0.109375 0.859375
vt 0.078125 0.890625
vt 0.109375 0.859375
vt 0.109375 0.859375
vt 0.109375 0.859375
vt 0.109375 0.859375
vt 0.078125 0.859375
vt 0.109375 0.859375
vt 0.109375 0.859375
vt 0.078125 0.859375
vt 0.109375 0.859375
vt 0.109375 0.859375
vt 0.109375 0.859375
vt 0.109375 0.859375
vt 0.109375 0.859375
vt 0.109375 0.859375
vt 0.109375 0.859375
vt 0.109375 0.859375
vt 0.078125 0.890625
vt 0.109375 0.890625
vt 0.109375 0.890625
vt 0.078125 0.890625
vt 0.078125 0.859375
vt 0.109375 0.859375
vn 1 0 0
vn -1 0 0
vn 0 1 0
vn 0.6839411288813297 -0.7295372041400852 0
vn 0 0 1
vn 0 0 -1
vn 0 0 -1
vn -0.6839411288813297 -0.7295372041400852 0
vn 0 0 1
vn 0 1 0
usemtl m_afd1bd7b-ade8-03af-0098-b65cd255863e
f 56/211/56 55/212/56 57/213/56 58/214/56
f 61/215/57 59/216/57 60/217/57 62/218/57
f 56/219/58 63/220/58 66/221/58 55/222/58
f 57/223/59 65/224/59 64/225/59 58/226/59
f 55/227/60 66/228/60 65/229/60 57/230/60
f 58/231/61 64/232/61 63/233/61 56/234/61
f 60/235/62 63/236/62 64/237/62 62/238/62
f 62/239/63 64/240/63 65/241/63 61/242/63
f 61/243/64 65/244/64 66/245/64 59/246/64
f 59/247/65 66/248/65 63/249/65 60/250/65